<?xml version="1.0" encoding="utf-8" standalone="no"?>
<!DOCTYPE svg PUBLIC "-//W3C//DTD SVG 1.1//EN"
  "http://www.w3.org/Graphics/SVG/1.1/DTD/svg11.dtd">
<!-- Created with matplotlib (https://matplotlib.org/) -->
<svg height="345.6pt" version="1.1" viewBox="0 0 460.8 345.6" width="460.8pt" xmlns="http://www.w3.org/2000/svg" xmlns:xlink="http://www.w3.org/1999/xlink">
 <defs>
  <style type="text/css">
*{stroke-linecap:butt;stroke-linejoin:round;}
  </style>
 </defs>
 <g id="figure_1">
  <g id="patch_1">
   <path d="M 0 345.6 
L 460.8 345.6 
L 460.8 0 
L 0 0 
z
" style="fill:#ffffff;"/>
  </g>
  <g id="axes_1">
   <g id="patch_2">
    <path d="M 57.6 307.584 
L 414.72 307.584 
L 414.72 41.472 
L 57.6 41.472 
z
" style="fill:#ffffff;"/>
   </g>
   <g id="matplotlib.axis_1">
    <g id="xtick_1">
     <g id="line2d_1">
      <defs>
       <path d="M 0 0 
L 0 12 
" id="m5b33c16717" style="stroke:#000000;stroke-width:2.5;"/>
      </defs>
      <g>
       <use style="stroke:#000000;stroke-width:2.5;" x="73.832727" xlink:href="#m5b33c16717" y="307.584"/>
      </g>
     </g>
     <g id="text_1">
      <!-- 0 -->
      <defs>
       <path d="M 31.78125 66.40625 
Q 24.171875 66.40625 20.328125 58.90625 
Q 16.5 51.421875 16.5 36.375 
Q 16.5 21.390625 20.328125 13.890625 
Q 24.171875 6.390625 31.78125 6.390625 
Q 39.453125 6.390625 43.28125 13.890625 
Q 47.125 21.390625 47.125 36.375 
Q 47.125 51.421875 43.28125 58.90625 
Q 39.453125 66.40625 31.78125 66.40625 
z
M 31.78125 74.21875 
Q 44.046875 74.21875 50.515625 64.515625 
Q 56.984375 54.828125 56.984375 36.375 
Q 56.984375 17.96875 50.515625 8.265625 
Q 44.046875 -1.421875 31.78125 -1.421875 
Q 19.53125 -1.421875 13.0625 8.265625 
Q 6.59375 17.96875 6.59375 36.375 
Q 6.59375 54.828125 13.0625 64.515625 
Q 19.53125 74.21875 31.78125 74.21875 
z
" id="DejaVuSans-48"/>
      </defs>
      <g transform="translate(66.833977 339.800562)scale(0.22 -0.22)">
       <use xlink:href="#DejaVuSans-48"/>
      </g>
     </g>
    </g>
    <g id="xtick_2">
     <g id="line2d_2">
      <g>
       <use style="stroke:#000000;stroke-width:2.5;" x="164.014545" xlink:href="#m5b33c16717" y="307.584"/>
      </g>
     </g>
     <g id="text_2">
      <!-- 50 -->
      <defs>
       <path d="M 10.796875 72.90625 
L 49.515625 72.90625 
L 49.515625 64.59375 
L 19.828125 64.59375 
L 19.828125 46.734375 
Q 21.96875 47.46875 24.109375 47.828125 
Q 26.265625 48.1875 28.421875 48.1875 
Q 40.625 48.1875 47.75 41.5 
Q 54.890625 34.8125 54.890625 23.390625 
Q 54.890625 11.625 47.5625 5.09375 
Q 40.234375 -1.421875 26.90625 -1.421875 
Q 22.3125 -1.421875 17.546875 -0.640625 
Q 12.796875 0.140625 7.71875 1.703125 
L 7.71875 11.625 
Q 12.109375 9.234375 16.796875 8.0625 
Q 21.484375 6.890625 26.703125 6.890625 
Q 35.15625 6.890625 40.078125 11.328125 
Q 45.015625 15.765625 45.015625 23.390625 
Q 45.015625 31 40.078125 35.4375 
Q 35.15625 39.890625 26.703125 39.890625 
Q 22.75 39.890625 18.8125 39.015625 
Q 14.890625 38.140625 10.796875 36.28125 
z
" id="DejaVuSans-53"/>
      </defs>
      <g transform="translate(150.017045 339.800562)scale(0.22 -0.22)">
       <use xlink:href="#DejaVuSans-53"/>
       <use x="63.623047" xlink:href="#DejaVuSans-48"/>
      </g>
     </g>
    </g>
    <g id="xtick_3">
     <g id="line2d_3">
      <g>
       <use style="stroke:#000000;stroke-width:2.5;" x="254.196364" xlink:href="#m5b33c16717" y="307.584"/>
      </g>
     </g>
     <g id="text_3">
      <!-- 100 -->
      <defs>
       <path d="M 12.40625 8.296875 
L 28.515625 8.296875 
L 28.515625 63.921875 
L 10.984375 60.40625 
L 10.984375 69.390625 
L 28.421875 72.90625 
L 38.28125 72.90625 
L 38.28125 8.296875 
L 54.390625 8.296875 
L 54.390625 0 
L 12.40625 0 
z
" id="DejaVuSans-49"/>
      </defs>
      <g transform="translate(233.200114 339.800562)scale(0.22 -0.22)">
       <use xlink:href="#DejaVuSans-49"/>
       <use x="63.623047" xlink:href="#DejaVuSans-48"/>
       <use x="127.246094" xlink:href="#DejaVuSans-48"/>
      </g>
     </g>
    </g>
    <g id="xtick_4">
     <g id="line2d_4">
      <g>
       <use style="stroke:#000000;stroke-width:2.5;" x="344.378182" xlink:href="#m5b33c16717" y="307.584"/>
      </g>
     </g>
     <g id="text_4">
      <!-- 150 -->
      <g transform="translate(323.381932 339.800562)scale(0.22 -0.22)">
       <use xlink:href="#DejaVuSans-49"/>
       <use x="63.623047" xlink:href="#DejaVuSans-53"/>
       <use x="127.246094" xlink:href="#DejaVuSans-48"/>
      </g>
     </g>
    </g>
    <g id="text_5">
     <!-- Degrees -->
     <defs>
      <path d="M 19.671875 64.796875 
L 19.671875 8.109375 
L 31.59375 8.109375 
Q 46.6875 8.109375 53.6875 14.9375 
Q 60.6875 21.78125 60.6875 36.53125 
Q 60.6875 51.171875 53.6875 57.984375 
Q 46.6875 64.796875 31.59375 64.796875 
z
M 9.8125 72.90625 
L 30.078125 72.90625 
Q 51.265625 72.90625 61.171875 64.09375 
Q 71.09375 55.28125 71.09375 36.53125 
Q 71.09375 17.671875 61.125 8.828125 
Q 51.171875 0 30.078125 0 
L 9.8125 0 
z
" id="DejaVuSans-68"/>
      <path d="M 56.203125 29.59375 
L 56.203125 25.203125 
L 14.890625 25.203125 
Q 15.484375 15.921875 20.484375 11.0625 
Q 25.484375 6.203125 34.421875 6.203125 
Q 39.59375 6.203125 44.453125 7.46875 
Q 49.3125 8.734375 54.109375 11.28125 
L 54.109375 2.78125 
Q 49.265625 0.734375 44.1875 -0.34375 
Q 39.109375 -1.421875 33.890625 -1.421875 
Q 20.796875 -1.421875 13.15625 6.1875 
Q 5.515625 13.8125 5.515625 26.8125 
Q 5.515625 40.234375 12.765625 48.109375 
Q 20.015625 56 32.328125 56 
Q 43.359375 56 49.78125 48.890625 
Q 56.203125 41.796875 56.203125 29.59375 
z
M 47.21875 32.234375 
Q 47.125 39.59375 43.09375 43.984375 
Q 39.0625 48.390625 32.421875 48.390625 
Q 24.90625 48.390625 20.390625 44.140625 
Q 15.875 39.890625 15.1875 32.171875 
z
" id="DejaVuSans-101"/>
      <path d="M 45.40625 27.984375 
Q 45.40625 37.75 41.375 43.109375 
Q 37.359375 48.484375 30.078125 48.484375 
Q 22.859375 48.484375 18.828125 43.109375 
Q 14.796875 37.75 14.796875 27.984375 
Q 14.796875 18.265625 18.828125 12.890625 
Q 22.859375 7.515625 30.078125 7.515625 
Q 37.359375 7.515625 41.375 12.890625 
Q 45.40625 18.265625 45.40625 27.984375 
z
M 54.390625 6.78125 
Q 54.390625 -7.171875 48.1875 -13.984375 
Q 42 -20.796875 29.203125 -20.796875 
Q 24.46875 -20.796875 20.265625 -20.09375 
Q 16.0625 -19.390625 12.109375 -17.921875 
L 12.109375 -9.1875 
Q 16.0625 -11.328125 19.921875 -12.34375 
Q 23.78125 -13.375 27.78125 -13.375 
Q 36.625 -13.375 41.015625 -8.765625 
Q 45.40625 -4.15625 45.40625 5.171875 
L 45.40625 9.625 
Q 42.625 4.78125 38.28125 2.390625 
Q 33.9375 0 27.875 0 
Q 17.828125 0 11.671875 7.65625 
Q 5.515625 15.328125 5.515625 27.984375 
Q 5.515625 40.671875 11.671875 48.328125 
Q 17.828125 56 27.875 56 
Q 33.9375 56 38.28125 53.609375 
Q 42.625 51.21875 45.40625 46.390625 
L 45.40625 54.6875 
L 54.390625 54.6875 
z
" id="DejaVuSans-103"/>
      <path d="M 41.109375 46.296875 
Q 39.59375 47.171875 37.8125 47.578125 
Q 36.03125 48 33.890625 48 
Q 26.265625 48 22.1875 43.046875 
Q 18.109375 38.09375 18.109375 28.8125 
L 18.109375 0 
L 9.078125 0 
L 9.078125 54.6875 
L 18.109375 54.6875 
L 18.109375 46.1875 
Q 20.953125 51.171875 25.484375 53.578125 
Q 30.03125 56 36.53125 56 
Q 37.453125 56 38.578125 55.875 
Q 39.703125 55.765625 41.0625 55.515625 
z
" id="DejaVuSans-114"/>
      <path d="M 44.28125 53.078125 
L 44.28125 44.578125 
Q 40.484375 46.53125 36.375 47.5 
Q 32.28125 48.484375 27.875 48.484375 
Q 21.1875 48.484375 17.84375 46.4375 
Q 14.5 44.390625 14.5 40.28125 
Q 14.5 37.15625 16.890625 35.375 
Q 19.28125 33.59375 26.515625 31.984375 
L 29.59375 31.296875 
Q 39.15625 29.25 43.1875 25.515625 
Q 47.21875 21.78125 47.21875 15.09375 
Q 47.21875 7.46875 41.1875 3.015625 
Q 35.15625 -1.421875 24.609375 -1.421875 
Q 20.21875 -1.421875 15.453125 -0.5625 
Q 10.6875 0.296875 5.421875 2 
L 5.421875 11.28125 
Q 10.40625 8.6875 15.234375 7.390625 
Q 20.0625 6.109375 24.8125 6.109375 
Q 31.15625 6.109375 34.5625 8.28125 
Q 37.984375 10.453125 37.984375 14.40625 
Q 37.984375 18.0625 35.515625 20.015625 
Q 33.0625 21.96875 24.703125 23.78125 
L 21.578125 24.515625 
Q 13.234375 26.265625 9.515625 29.90625 
Q 5.8125 33.546875 5.8125 39.890625 
Q 5.8125 47.609375 11.28125 51.796875 
Q 16.75 56 26.8125 56 
Q 31.78125 56 36.171875 55.265625 
Q 40.578125 54.546875 44.28125 53.078125 
z
" id="DejaVuSans-115"/>
     </defs>
     <g transform="translate(185.97 366.612125)scale(0.24 -0.24)">
      <use xlink:href="#DejaVuSans-68"/>
      <use x="77.001953" xlink:href="#DejaVuSans-101"/>
      <use x="138.525391" xlink:href="#DejaVuSans-103"/>
      <use x="202.001953" xlink:href="#DejaVuSans-114"/>
      <use x="243.083984" xlink:href="#DejaVuSans-101"/>
      <use x="304.607422" xlink:href="#DejaVuSans-101"/>
      <use x="366.130859" xlink:href="#DejaVuSans-115"/>
     </g>
    </g>
   </g>
   <g id="matplotlib.axis_2">
    <g id="ytick_1">
     <g id="line2d_5">
      <defs>
       <path d="M 0 0 
L -12 0 
" id="m0a467d7177" style="stroke:#000000;stroke-width:2.5;"/>
      </defs>
      <g>
       <use style="stroke:#000000;stroke-width:2.5;" x="57.6" xlink:href="#m0a467d7177" y="285.408"/>
      </g>
     </g>
     <g id="text_6">
      <!-- 0 -->
      <g transform="translate(28.1025 293.766281)scale(0.22 -0.22)">
       <use xlink:href="#DejaVuSans-48"/>
      </g>
     </g>
    </g>
    <g id="ytick_2">
     <g id="line2d_6">
      <g>
       <use style="stroke:#000000;stroke-width:2.5;" x="57.6" xlink:href="#m0a467d7177" y="223.177633"/>
      </g>
     </g>
     <g id="text_7">
      <!-- 1 -->
      <g transform="translate(28.1025 231.535914)scale(0.22 -0.22)">
       <use xlink:href="#DejaVuSans-49"/>
      </g>
     </g>
    </g>
    <g id="ytick_3">
     <g id="line2d_7">
      <g>
       <use style="stroke:#000000;stroke-width:2.5;" x="57.6" xlink:href="#m0a467d7177" y="160.947266"/>
      </g>
     </g>
     <g id="text_8">
      <!-- 2 -->
      <defs>
       <path d="M 19.1875 8.296875 
L 53.609375 8.296875 
L 53.609375 0 
L 7.328125 0 
L 7.328125 8.296875 
Q 12.9375 14.109375 22.625 23.890625 
Q 32.328125 33.6875 34.8125 36.53125 
Q 39.546875 41.84375 41.421875 45.53125 
Q 43.3125 49.21875 43.3125 52.78125 
Q 43.3125 58.59375 39.234375 62.25 
Q 35.15625 65.921875 28.609375 65.921875 
Q 23.96875 65.921875 18.8125 64.3125 
Q 13.671875 62.703125 7.8125 59.421875 
L 7.8125 69.390625 
Q 13.765625 71.78125 18.9375 73 
Q 24.125 74.21875 28.421875 74.21875 
Q 39.75 74.21875 46.484375 68.546875 
Q 53.21875 62.890625 53.21875 53.421875 
Q 53.21875 48.921875 51.53125 44.890625 
Q 49.859375 40.875 45.40625 35.40625 
Q 44.1875 33.984375 37.640625 27.21875 
Q 31.109375 20.453125 19.1875 8.296875 
z
" id="DejaVuSans-50"/>
      </defs>
      <g transform="translate(28.1025 169.305547)scale(0.22 -0.22)">
       <use xlink:href="#DejaVuSans-50"/>
      </g>
     </g>
    </g>
    <g id="ytick_4">
     <g id="line2d_8">
      <g>
       <use style="stroke:#000000;stroke-width:2.5;" x="57.6" xlink:href="#m0a467d7177" y="98.716899"/>
      </g>
     </g>
     <g id="text_9">
      <!-- 3 -->
      <defs>
       <path d="M 40.578125 39.3125 
Q 47.65625 37.796875 51.625 33 
Q 55.609375 28.21875 55.609375 21.1875 
Q 55.609375 10.40625 48.1875 4.484375 
Q 40.765625 -1.421875 27.09375 -1.421875 
Q 22.515625 -1.421875 17.65625 -0.515625 
Q 12.796875 0.390625 7.625 2.203125 
L 7.625 11.71875 
Q 11.71875 9.328125 16.59375 8.109375 
Q 21.484375 6.890625 26.8125 6.890625 
Q 36.078125 6.890625 40.9375 10.546875 
Q 45.796875 14.203125 45.796875 21.1875 
Q 45.796875 27.640625 41.28125 31.265625 
Q 36.765625 34.90625 28.71875 34.90625 
L 20.21875 34.90625 
L 20.21875 43.015625 
L 29.109375 43.015625 
Q 36.375 43.015625 40.234375 45.921875 
Q 44.09375 48.828125 44.09375 54.296875 
Q 44.09375 59.90625 40.109375 62.90625 
Q 36.140625 65.921875 28.71875 65.921875 
Q 24.65625 65.921875 20.015625 65.03125 
Q 15.375 64.15625 9.8125 62.3125 
L 9.8125 71.09375 
Q 15.4375 72.65625 20.34375 73.4375 
Q 25.25 74.21875 29.59375 74.21875 
Q 40.828125 74.21875 47.359375 69.109375 
Q 53.90625 64.015625 53.90625 55.328125 
Q 53.90625 49.265625 50.4375 45.09375 
Q 46.96875 40.921875 40.578125 39.3125 
z
" id="DejaVuSans-51"/>
      </defs>
      <g transform="translate(28.1025 107.07518)scale(0.22 -0.22)">
       <use xlink:href="#DejaVuSans-51"/>
      </g>
     </g>
    </g>
    <g id="text_10">
     <!-- Activation -->
     <defs>
      <path d="M 34.1875 63.1875 
L 20.796875 26.90625 
L 47.609375 26.90625 
z
M 28.609375 72.90625 
L 39.796875 72.90625 
L 67.578125 0 
L 57.328125 0 
L 50.6875 18.703125 
L 17.828125 18.703125 
L 11.1875 0 
L 0.78125 0 
z
" id="DejaVuSans-65"/>
      <path d="M 48.78125 52.59375 
L 48.78125 44.1875 
Q 44.96875 46.296875 41.140625 47.34375 
Q 37.3125 48.390625 33.40625 48.390625 
Q 24.65625 48.390625 19.8125 42.84375 
Q 14.984375 37.3125 14.984375 27.296875 
Q 14.984375 17.28125 19.8125 11.734375 
Q 24.65625 6.203125 33.40625 6.203125 
Q 37.3125 6.203125 41.140625 7.25 
Q 44.96875 8.296875 48.78125 10.40625 
L 48.78125 2.09375 
Q 45.015625 0.34375 40.984375 -0.53125 
Q 36.96875 -1.421875 32.421875 -1.421875 
Q 20.0625 -1.421875 12.78125 6.34375 
Q 5.515625 14.109375 5.515625 27.296875 
Q 5.515625 40.671875 12.859375 48.328125 
Q 20.21875 56 33.015625 56 
Q 37.15625 56 41.109375 55.140625 
Q 45.0625 54.296875 48.78125 52.59375 
z
" id="DejaVuSans-99"/>
      <path d="M 18.3125 70.21875 
L 18.3125 54.6875 
L 36.8125 54.6875 
L 36.8125 47.703125 
L 18.3125 47.703125 
L 18.3125 18.015625 
Q 18.3125 11.328125 20.140625 9.421875 
Q 21.96875 7.515625 27.59375 7.515625 
L 36.8125 7.515625 
L 36.8125 0 
L 27.59375 0 
Q 17.1875 0 13.234375 3.875 
Q 9.28125 7.765625 9.28125 18.015625 
L 9.28125 47.703125 
L 2.6875 47.703125 
L 2.6875 54.6875 
L 9.28125 54.6875 
L 9.28125 70.21875 
z
" id="DejaVuSans-116"/>
      <path d="M 9.421875 54.6875 
L 18.40625 54.6875 
L 18.40625 0 
L 9.421875 0 
z
M 9.421875 75.984375 
L 18.40625 75.984375 
L 18.40625 64.59375 
L 9.421875 64.59375 
z
" id="DejaVuSans-105"/>
      <path d="M 2.984375 54.6875 
L 12.5 54.6875 
L 29.59375 8.796875 
L 46.6875 54.6875 
L 56.203125 54.6875 
L 35.6875 0 
L 23.484375 0 
z
" id="DejaVuSans-118"/>
      <path d="M 34.28125 27.484375 
Q 23.390625 27.484375 19.1875 25 
Q 14.984375 22.515625 14.984375 16.5 
Q 14.984375 11.71875 18.140625 8.90625 
Q 21.296875 6.109375 26.703125 6.109375 
Q 34.1875 6.109375 38.703125 11.40625 
Q 43.21875 16.703125 43.21875 25.484375 
L 43.21875 27.484375 
z
M 52.203125 31.203125 
L 52.203125 0 
L 43.21875 0 
L 43.21875 8.296875 
Q 40.140625 3.328125 35.546875 0.953125 
Q 30.953125 -1.421875 24.3125 -1.421875 
Q 15.921875 -1.421875 10.953125 3.296875 
Q 6 8.015625 6 15.921875 
Q 6 25.140625 12.171875 29.828125 
Q 18.359375 34.515625 30.609375 34.515625 
L 43.21875 34.515625 
L 43.21875 35.40625 
Q 43.21875 41.609375 39.140625 45 
Q 35.0625 48.390625 27.6875 48.390625 
Q 23 48.390625 18.546875 47.265625 
Q 14.109375 46.140625 10.015625 43.890625 
L 10.015625 52.203125 
Q 14.9375 54.109375 19.578125 55.046875 
Q 24.21875 56 28.609375 56 
Q 40.484375 56 46.34375 49.84375 
Q 52.203125 43.703125 52.203125 31.203125 
z
" id="DejaVuSans-97"/>
      <path d="M 30.609375 48.390625 
Q 23.390625 48.390625 19.1875 42.75 
Q 14.984375 37.109375 14.984375 27.296875 
Q 14.984375 17.484375 19.15625 11.84375 
Q 23.34375 6.203125 30.609375 6.203125 
Q 37.796875 6.203125 41.984375 11.859375 
Q 46.1875 17.53125 46.1875 27.296875 
Q 46.1875 37.015625 41.984375 42.703125 
Q 37.796875 48.390625 30.609375 48.390625 
z
M 30.609375 56 
Q 42.328125 56 49.015625 48.375 
Q 55.71875 40.765625 55.71875 27.296875 
Q 55.71875 13.875 49.015625 6.21875 
Q 42.328125 -1.421875 30.609375 -1.421875 
Q 18.84375 -1.421875 12.171875 6.21875 
Q 5.515625 13.875 5.515625 27.296875 
Q 5.515625 40.765625 12.171875 48.375 
Q 18.84375 56 30.609375 56 
z
" id="DejaVuSans-111"/>
      <path d="M 54.890625 33.015625 
L 54.890625 0 
L 45.90625 0 
L 45.90625 32.71875 
Q 45.90625 40.484375 42.875 44.328125 
Q 39.84375 48.1875 33.796875 48.1875 
Q 26.515625 48.1875 22.3125 43.546875 
Q 18.109375 38.921875 18.109375 30.90625 
L 18.109375 0 
L 9.078125 0 
L 9.078125 54.6875 
L 18.109375 54.6875 
L 18.109375 46.1875 
Q 21.34375 51.125 25.703125 53.5625 
Q 30.078125 56 35.796875 56 
Q 45.21875 56 50.046875 50.171875 
Q 54.890625 44.34375 54.890625 33.015625 
z
" id="DejaVuSans-110"/>
     </defs>
     <g transform="translate(19.11125 234.813)rotate(-90)scale(0.24 -0.24)">
      <use xlink:href="#DejaVuSans-65"/>
      <use x="68.392578" xlink:href="#DejaVuSans-99"/>
      <use x="123.373047" xlink:href="#DejaVuSans-116"/>
      <use x="162.582031" xlink:href="#DejaVuSans-105"/>
      <use x="190.365234" xlink:href="#DejaVuSans-118"/>
      <use x="249.544922" xlink:href="#DejaVuSans-97"/>
      <use x="310.824219" xlink:href="#DejaVuSans-116"/>
      <use x="350.033203" xlink:href="#DejaVuSans-105"/>
      <use x="377.816406" xlink:href="#DejaVuSans-111"/>
      <use x="438.998047" xlink:href="#DejaVuSans-110"/>
     </g>
    </g>
   </g>
   <g id="line2d_9">
    <path clip-path="url(#pdc618f43d0)" d="M 73.832727 269.57246 
L 90.065455 242.609919 
L 106.298182 233.262343 
L 122.530909 221.190226 
L 138.763636 207.068495 
L 154.996364 205.073996 
L 171.229091 207.978048 
L 187.461818 186.903423 
L 203.694545 179.898585 
L 219.927273 181.19173 
L 236.16 190.465653 
L 252.392727 190.162877 
L 268.625455 191.606112 
L 284.858182 226.507573 
L 301.090909 221.0307 
L 317.323636 248.148751 
L 333.556364 255.013251 
L 349.789091 262.166856 
L 366.021818 258.184013 
L 382.254545 263.212225 
L 398.487273 269.57246 
" style="fill:none;stroke:#0e4db3;stroke-linecap:square;stroke-width:3;"/>
   </g>
   <g id="line2d_10">
    <path clip-path="url(#pdc618f43d0)" d="M 73.832727 272.808006 
L 90.065455 250.726291 
L 106.298182 242.431684 
L 122.530909 233.507088 
L 138.763636 222.604336 
L 154.996364 221.429493 
L 171.229091 222.755428 
L 187.461818 204.064659 
L 203.694545 200.589402 
L 219.927273 199.598225 
L 236.16 204.372316 
L 252.392727 207.424499 
L 268.625455 208.075051 
L 284.858182 238.220255 
L 301.090909 232.786357 
L 317.323636 254.681802 
L 333.556364 259.952283 
L 349.789091 264.731 
L 366.021818 262.686998 
L 382.254545 266.448804 
L 398.487273 272.808006 
" style="fill:none;stroke:#d44e4e;stroke-linecap:square;stroke-width:3;"/>
   </g>
   <g id="line2d_11">
    <path clip-path="url(#pdc618f43d0)" d="M 73.832727 177.759679 
L 90.065455 176.941626 
L 106.298182 184.197941 
L 122.530909 198.145331 
L 138.763636 200.629677 
L 154.996364 203.675302 
L 171.229091 203.481517 
L 187.461818 187.786061 
L 203.694545 182.586812 
L 219.927273 201.129576 
L 236.16 201.117246 
L 252.392727 198.340763 
L 268.625455 182.908142 
L 284.858182 194.062846 
L 301.090909 180.108601 
L 317.323636 184.964518 
L 333.556364 184.420828 
L 349.789091 166.464937 
L 366.021818 171.565988 
L 382.254545 166.738588 
L 398.487273 177.759679 
" style="fill:none;stroke:#0e4db3;stroke-linecap:square;stroke-width:3;"/>
   </g>
   <g id="line2d_12">
    <path clip-path="url(#pdc618f43d0)" d="M 73.832727 200.196351 
L 90.065455 190.415512 
L 106.298182 202.528886 
L 122.530909 216.121608 
L 138.763636 217.75704 
L 154.996364 220.476031 
L 171.229091 220.472618 
L 187.461818 208.358918 
L 203.694545 204.677822 
L 219.927273 218.866809 
L 236.16 218.816215 
L 252.392727 215.388132 
L 268.625455 204.077708 
L 284.858182 211.163607 
L 301.090909 202.233276 
L 317.323636 205.918326 
L 333.556364 205.325059 
L 349.789091 191.425339 
L 366.021818 193.984923 
L 382.254545 191.36387 
L 398.487273 200.196351 
" style="fill:none;stroke:#d44e4e;stroke-linecap:square;stroke-width:3;"/>
   </g>
   <g id="line2d_13">
    <path clip-path="url(#pdc618f43d0)" d="M 73.832727 176.294004 
L 90.065455 171.022996 
L 106.298182 170.981215 
L 122.530909 171.010147 
L 138.763636 159.473875 
L 154.996364 160.04508 
L 171.229091 159.013354 
L 187.461818 166.743002 
L 203.694545 157.396283 
L 219.927273 161.614132 
L 236.16 168.699697 
L 252.392727 168.822435 
L 268.625455 170.094845 
L 284.858182 177.806074 
L 301.090909 179.220162 
L 317.323636 179.831886 
L 333.556364 179.547293 
L 349.789091 180.443136 
L 366.021818 177.987284 
L 382.254545 176.692285 
L 398.487273 176.294004 
" style="fill:none;stroke:#0e4db3;stroke-linecap:square;stroke-width:3;"/>
   </g>
   <g id="line2d_14">
    <path clip-path="url(#pdc618f43d0)" d="M 73.832727 195.391459 
L 90.065455 191.596238 
L 106.298182 191.27818 
L 122.530909 190.933282 
L 138.763636 183.760098 
L 154.996364 183.641862 
L 171.229091 181.937588 
L 187.461818 187.793814 
L 203.694545 179.443004 
L 219.927273 183.457707 
L 236.16 189.229489 
L 252.392727 189.09592 
L 268.625455 190.249198 
L 284.858182 194.361505 
L 301.090909 195.402772 
L 317.323636 196.811118 
L 333.556364 197.525795 
L 349.789091 198.2039 
L 366.021818 196.187813 
L 382.254545 195.399085 
L 398.487273 195.391459 
" style="fill:none;stroke:#d44e4e;stroke-linecap:square;stroke-width:3;"/>
   </g>
   <g id="line2d_15">
    <path clip-path="url(#pdc618f43d0)" d="M 73.832727 161.897412 
L 90.065455 161.750527 
L 106.298182 162.235426 
L 122.530909 173.811142 
L 138.763636 174.992454 
L 154.996364 177.946401 
L 171.229091 175.365312 
L 187.461818 172.27465 
L 203.694545 164.123092 
L 219.927273 167.00333 
L 236.16 165.840312 
L 252.392727 160.65998 
L 268.625455 158.839747 
L 284.858182 158.939718 
L 301.090909 153.190088 
L 317.323636 152.298629 
L 333.556364 138.525409 
L 349.789091 151.185121 
L 366.021818 150.512714 
L 382.254545 156.571323 
L 398.487273 161.897412 
" style="fill:none;stroke:#0e4db3;stroke-linecap:square;stroke-width:3;"/>
   </g>
   <g id="line2d_16">
    <path clip-path="url(#pdc618f43d0)" d="M 73.832727 187.914067 
L 90.065455 187.909245 
L 106.298182 188.242689 
L 122.530909 196.863062 
L 138.763636 197.426818 
L 154.996364 198.853399 
L 171.229091 197.928542 
L 187.461818 194.004055 
L 203.694545 190.037387 
L 219.927273 191.588285 
L 236.16 191.815393 
L 252.392727 186.169651 
L 268.625455 183.621996 
L 284.858182 182.911933 
L 301.090909 179.712724 
L 317.323636 179.710454 
L 333.556364 170.556584 
L 349.789091 178.976778 
L 366.021818 177.958938 
L 382.254545 183.294412 
L 398.487273 187.914067 
" style="fill:none;stroke:#d44e4e;stroke-linecap:square;stroke-width:3;"/>
   </g>
   <g id="line2d_17">
    <path clip-path="url(#pdc618f43d0)" d="M 73.832727 245.781242 
L 90.065455 245.175412 
L 106.298182 245.720103 
L 122.530909 244.40208 
L 138.763636 229.16906 
L 154.996364 227.194695 
L 171.229091 214.884828 
L 187.461818 218.676978 
L 203.694545 200.020327 
L 219.927273 185.36021 
L 236.16 185.591265 
L 252.392727 169.922048 
L 268.625455 156.115994 
L 284.858182 163.489439 
L 301.090909 144.380678 
L 317.323636 155.485011 
L 333.556364 158.634494 
L 349.789091 209.906537 
L 366.021818 214.645688 
L 382.254545 214.122183 
L 398.487273 245.781242 
" style="fill:none;stroke:#0e4db3;stroke-linecap:square;stroke-width:3;"/>
   </g>
   <g id="line2d_18">
    <path clip-path="url(#pdc618f43d0)" d="M 73.832727 249.176832 
L 90.065455 248.291508 
L 106.298182 248.769419 
L 122.530909 248.19439 
L 138.763636 236.2652 
L 154.996364 234.770871 
L 171.229091 223.994136 
L 187.461818 226.897913 
L 203.694545 212.259429 
L 219.927273 201.540921 
L 236.16 201.57055 
L 252.392727 188.481933 
L 268.625455 177.550835 
L 284.858182 184.683144 
L 301.090909 168.887331 
L 317.323636 176.701513 
L 333.556364 179.761137 
L 349.789091 219.832897 
L 366.021818 223.791067 
L 382.254545 223.751657 
L 398.487273 249.176832 
" style="fill:none;stroke:#d44e4e;stroke-linecap:square;stroke-width:3;"/>
   </g>
   <g id="line2d_19">
    <path clip-path="url(#pdc618f43d0)" d="M 73.832727 285.408 
L 90.065455 285.408 
L 106.298182 285.408 
L 122.530909 285.408 
L 138.763636 285.408 
L 154.996364 285.408 
L 171.229091 285.408 
L 187.461818 285.408 
L 203.694545 285.408 
L 219.927273 285.408 
L 236.16 285.408 
L 252.392727 285.408 
L 268.625455 285.408 
L 284.858182 285.408 
L 301.090909 285.408 
L 317.323636 285.408 
L 333.556364 285.408 
L 349.789091 285.408 
L 366.021818 285.408 
L 382.254545 285.408 
L 398.487273 285.408 
" style="fill:none;stroke:#0e4db3;stroke-linecap:square;stroke-width:3;"/>
   </g>
   <g id="line2d_20">
    <path clip-path="url(#pdc618f43d0)" d="M 73.832727 285.408 
L 90.065455 285.408 
L 106.298182 285.408 
L 122.530909 285.408 
L 138.763636 285.408 
L 154.996364 285.408 
L 171.229091 285.408 
L 187.461818 285.408 
L 203.694545 285.408 
L 219.927273 285.408 
L 236.16 285.408 
L 252.392727 285.408 
L 268.625455 285.408 
L 284.858182 285.408 
L 301.090909 285.408 
L 317.323636 285.408 
L 333.556364 285.408 
L 349.789091 285.408 
L 366.021818 285.408 
L 382.254545 285.408 
L 398.487273 285.408 
" style="fill:none;stroke:#d44e4e;stroke-linecap:square;stroke-width:3;"/>
   </g>
   <g id="line2d_21">
    <path clip-path="url(#pdc618f43d0)" d="M 73.832727 285.408 
L 90.065455 284.8517 
L 106.298182 285.186395 
L 122.530909 284.982858 
L 138.763636 285.221511 
L 154.996364 285.408 
L 171.229091 285.408 
L 187.461818 285.408 
L 203.694545 285.408 
L 219.927273 285.408 
L 236.16 285.408 
L 252.392727 285.408 
L 268.625455 284.114339 
L 284.858182 285.408 
L 301.090909 285.408 
L 317.323636 285.408 
L 333.556364 285.408 
L 349.789091 285.408 
L 366.021818 285.408 
L 382.254545 285.408 
L 398.487273 285.408 
" style="fill:none;stroke:#0e4db3;stroke-linecap:square;stroke-width:3;"/>
   </g>
   <g id="line2d_22">
    <path clip-path="url(#pdc618f43d0)" d="M 73.832727 285.408 
L 90.065455 285.408 
L 106.298182 285.408 
L 122.530909 285.408 
L 138.763636 285.408 
L 154.996364 285.408 
L 171.229091 285.408 
L 187.461818 285.408 
L 203.694545 285.408 
L 219.927273 285.408 
L 236.16 285.408 
L 252.392727 285.408 
L 268.625455 285.408 
L 284.858182 285.408 
L 301.090909 285.408 
L 317.323636 285.408 
L 333.556364 285.408 
L 349.789091 285.408 
L 366.021818 285.408 
L 382.254545 285.408 
L 398.487273 285.408 
" style="fill:none;stroke:#d44e4e;stroke-linecap:square;stroke-width:3;"/>
   </g>
   <g id="line2d_23">
    <path clip-path="url(#pdc618f43d0)" d="M 73.832727 253.454659 
L 90.065455 243.375569 
L 106.298182 228.60787 
L 122.530909 227.185585 
L 138.763636 211.924716 
L 154.996364 208.828653 
L 171.229091 198.593598 
L 187.461818 199.874695 
L 203.694545 185.15644 
L 219.927273 185.905198 
L 236.16 220.844037 
L 252.392727 187.676172 
L 268.625455 204.087196 
L 284.858182 224.413701 
L 301.090909 220.433813 
L 317.323636 234.74593 
L 333.556364 236.511845 
L 349.789091 239.413229 
L 366.021818 240.395456 
L 382.254545 250.023239 
L 398.487273 253.454659 
" style="fill:none;stroke:#0e4db3;stroke-linecap:square;stroke-width:3;"/>
   </g>
   <g id="line2d_24">
    <path clip-path="url(#pdc618f43d0)" d="M 73.832727 254.066161 
L 90.065455 246.353482 
L 106.298182 234.388695 
L 122.530909 232.024217 
L 138.763636 220.665379 
L 154.996364 218.600642 
L 171.229091 210.197971 
L 187.461818 210.554798 
L 203.694545 199.523825 
L 219.927273 199.573551 
L 236.16 227.748088 
L 252.392727 201.207306 
L 268.625455 214.183749 
L 284.858182 231.278096 
L 301.090909 227.351866 
L 317.323636 238.757217 
L 333.556364 240.010803 
L 349.789091 241.181395 
L 366.021818 242.31162 
L 382.254545 250.711684 
L 398.487273 254.066161 
" style="fill:none;stroke:#d44e4e;stroke-linecap:square;stroke-width:3;"/>
   </g>
   <g id="line2d_25">
    <path clip-path="url(#pdc618f43d0)" d="M 73.832727 219.444898 
L 90.065455 214.877766 
L 106.298182 208.007039 
L 122.530909 205.231215 
L 138.763636 208.616278 
L 154.996364 208.801413 
L 171.229091 209.128892 
L 187.461818 216.291513 
L 203.694545 215.177538 
L 219.927273 218.782246 
L 236.16 221.951988 
L 252.392727 218.073377 
L 268.625455 217.248372 
L 284.858182 217.332171 
L 301.090909 217.489368 
L 317.323636 218.111359 
L 333.556364 203.659634 
L 349.789091 211.633194 
L 366.021818 209.142305 
L 382.254545 219.681865 
L 398.487273 219.444898 
" style="fill:none;stroke:#0e4db3;stroke-linecap:square;stroke-width:3;"/>
   </g>
   <g id="line2d_26">
    <path clip-path="url(#pdc618f43d0)" d="M 73.832727 233.529121 
L 90.065455 229.889346 
L 106.298182 224.58296 
L 122.530909 221.40841 
L 138.763636 226.365929 
L 154.996364 226.616791 
L 171.229091 226.508749 
L 187.461818 230.907786 
L 203.694545 228.653701 
L 219.927273 233.911712 
L 236.16 231.493361 
L 252.392727 231.888504 
L 268.625455 231.763637 
L 284.858182 232.620848 
L 301.090909 232.997694 
L 317.323636 232.867081 
L 333.556364 221.647625 
L 349.789091 224.094804 
L 366.021818 223.568036 
L 382.254545 233.530894 
L 398.487273 233.529121 
" style="fill:none;stroke:#d44e4e;stroke-linecap:square;stroke-width:3;"/>
   </g>
   <g id="line2d_27">
    <path clip-path="url(#pdc618f43d0)" d="M 73.832727 283.011059 
L 90.065455 257.736774 
L 106.298182 236.429916 
L 122.530909 237.789003 
L 138.763636 211.946786 
L 154.996364 210.001709 
L 171.229091 210.37786 
L 187.461818 212.698867 
L 203.694545 206.216362 
L 219.927273 206.204885 
L 236.16 215.449446 
L 252.392727 209.358612 
L 268.625455 217.268373 
L 284.858182 236.252155 
L 301.090909 228.611958 
L 317.323636 256.419749 
L 333.556364 256.860672 
L 349.789091 263.69998 
L 366.021818 277.079122 
L 382.254545 264.808686 
L 398.487273 283.011059 
" style="fill:none;stroke:#0e4db3;stroke-linecap:square;stroke-width:3;"/>
   </g>
   <g id="line2d_28">
    <path clip-path="url(#pdc618f43d0)" d="M 73.832727 284.78606 
L 90.065455 265.523808 
L 106.298182 248.352072 
L 122.530909 243.519698 
L 138.763636 229.679842 
L 154.996364 227.992659 
L 171.229091 228.049989 
L 187.461818 227.965982 
L 203.694545 223.492932 
L 219.927273 223.538785 
L 236.16 231.415968 
L 252.392727 225.848404 
L 268.625455 230.796525 
L 284.858182 248.615397 
L 301.090909 241.128873 
L 317.323636 262.43035 
L 333.556364 264.759418 
L 349.789091 270.847576 
L 366.021818 279.929334 
L 382.254545 270.875408 
L 398.487273 284.78606 
" style="fill:none;stroke:#d44e4e;stroke-linecap:square;stroke-width:3;"/>
   </g>
   <g id="line2d_29">
    <path clip-path="url(#pdc618f43d0)" d="M 73.832727 186.816813 
L 90.065455 186.2225 
L 106.298182 180.168105 
L 122.530909 189.803513 
L 138.763636 195.566437 
L 154.996364 215.922082 
L 171.229091 219.505425 
L 187.461818 216.221282 
L 203.694545 184.704079 
L 219.927273 163.13055 
L 236.16 164.804134 
L 252.392727 162.736467 
L 268.625455 184.593025 
L 284.858182 197.996421 
L 301.090909 179.751337 
L 317.323636 173.20826 
L 333.556364 171.535699 
L 349.789091 168.458568 
L 366.021818 160.818616 
L 382.254545 167.944812 
L 398.487273 186.816813 
" style="fill:none;stroke:#0e4db3;stroke-linecap:square;stroke-width:3;"/>
   </g>
   <g id="line2d_30">
    <path clip-path="url(#pdc618f43d0)" d="M 73.832727 200.87545 
L 90.065455 200.859226 
L 106.298182 195.963724 
L 122.530909 202.318314 
L 138.763636 208.821235 
L 154.996364 224.349754 
L 171.229091 227.049894 
L 187.461818 222.92919 
L 203.694545 198.011458 
L 219.927273 182.387034 
L 236.16 183.530015 
L 252.392727 181.930473 
L 268.625455 198.998333 
L 284.858182 209.809823 
L 301.090909 194.989795 
L 317.323636 189.989723 
L 333.556364 188.868642 
L 349.789091 186.526151 
L 366.021818 179.801352 
L 382.254545 185.867053 
L 398.487273 200.87545 
" style="fill:none;stroke:#d44e4e;stroke-linecap:square;stroke-width:3;"/>
   </g>
   <g id="line2d_31">
    <path clip-path="url(#pdc618f43d0)" d="M 73.832727 183.659963 
L 90.065455 182.999893 
L 106.298182 193.638378 
L 122.530909 196.61148 
L 138.763636 217.736179 
L 154.996364 232.214425 
L 171.229091 217.425688 
L 187.461818 198.455689 
L 203.694545 190.624608 
L 219.927273 210.50611 
L 236.16 208.130638 
L 252.392727 208.211232 
L 268.625455 219.563734 
L 284.858182 228.077801 
L 301.090909 214.389536 
L 317.323636 211.888766 
L 333.556364 198.87874 
L 349.789091 198.340347 
L 366.021818 190.856367 
L 382.254545 184.075819 
L 398.487273 183.659963 
" style="fill:none;stroke:#0e4db3;stroke-linecap:square;stroke-width:3;"/>
   </g>
   <g id="line2d_32">
    <path clip-path="url(#pdc618f43d0)" d="M 73.832727 199.671534 
L 90.065455 196.879924 
L 106.298182 207.746711 
L 122.530909 203.925919 
L 138.763636 226.750501 
L 154.996364 237.983474 
L 171.229091 225.73419 
L 187.461818 210.013838 
L 203.694545 203.973686 
L 219.927273 220.61161 
L 236.16 218.71959 
L 252.392727 218.363779 
L 268.625455 227.945604 
L 284.858182 233.966571 
L 301.090909 224.384034 
L 317.323636 220.916337 
L 333.556364 211.736859 
L 349.789091 209.492819 
L 366.021818 204.302709 
L 382.254545 196.83706 
L 398.487273 199.671534 
" style="fill:none;stroke:#d44e4e;stroke-linecap:square;stroke-width:3;"/>
   </g>
   <g id="line2d_33">
    <path clip-path="url(#pdc618f43d0)" d="M 73.832727 135.162393 
L 90.065455 134.948283 
L 106.298182 131.580223 
L 122.530909 133.61062 
L 138.763636 133.400722 
L 154.996364 133.509002 
L 171.229091 131.470816 
L 187.461818 132.990943 
L 203.694545 126.006394 
L 219.927273 129.127212 
L 236.16 129.732468 
L 252.392727 129.601488 
L 268.625455 132.12843 
L 284.858182 134.060355 
L 301.090909 132.408135 
L 317.323636 133.216433 
L 333.556364 132.643255 
L 349.789091 134.336959 
L 366.021818 131.897405 
L 382.254545 133.414624 
L 398.487273 135.162393 
" style="fill:none;stroke:#0e4db3;stroke-linecap:square;stroke-width:3;"/>
   </g>
   <g id="line2d_34">
    <path clip-path="url(#pdc618f43d0)" d="M 73.832727 159.322346 
L 90.065455 158.278676 
L 106.298182 156.099777 
L 122.530909 157.438864 
L 138.763636 157.405407 
L 154.996364 157.465764 
L 171.229091 155.885236 
L 187.461818 157.341861 
L 203.694545 151.617483 
L 219.927273 154.457795 
L 236.16 154.767796 
L 252.392727 154.701891 
L 268.625455 154.726224 
L 284.858182 157.180436 
L 301.090909 155.807965 
L 317.323636 156.88033 
L 333.556364 156.722406 
L 349.789091 158.205812 
L 366.021818 156.257671 
L 382.254545 157.753198 
L 398.487273 159.322346 
" style="fill:none;stroke:#d44e4e;stroke-linecap:square;stroke-width:3;"/>
   </g>
   <g id="line2d_35">
    <path clip-path="url(#pdc618f43d0)" d="M 73.832727 212.599727 
L 90.065455 199.317971 
L 106.298182 199.202696 
L 122.530909 207.288333 
L 138.763636 208.404838 
L 154.996364 205.240362 
L 171.229091 205.062327 
L 187.461818 204.608541 
L 203.694545 215.068413 
L 219.927273 214.790125 
L 236.16 217.208817 
L 252.392727 232.347857 
L 268.625455 248.515675 
L 284.858182 254.618427 
L 301.090909 254.785731 
L 317.323636 252.361493 
L 333.556364 249.729305 
L 349.789091 245.644253 
L 366.021818 228.865275 
L 382.254545 212.713756 
L 398.487273 212.599727 
" style="fill:none;stroke:#0e4db3;stroke-linecap:square;stroke-width:3;"/>
   </g>
   <g id="line2d_36">
    <path clip-path="url(#pdc618f43d0)" d="M 73.832727 222.87189 
L 90.065455 212.224362 
L 106.298182 212.64179 
L 122.530909 215.475128 
L 138.763636 219.721242 
L 154.996364 216.958964 
L 171.229091 216.633369 
L 187.461818 215.951073 
L 203.694545 224.345555 
L 219.927273 224.363111 
L 236.16 226.570916 
L 252.392727 238.539953 
L 268.625455 251.514122 
L 284.858182 256.007271 
L 301.090909 256.074818 
L 317.323636 253.991624 
L 333.556364 252.139333 
L 349.789091 248.657578 
L 366.021818 234.969392 
L 382.254545 221.755289 
L 398.487273 222.87189 
" style="fill:none;stroke:#d44e4e;stroke-linecap:square;stroke-width:3;"/>
   </g>
   <g id="line2d_37">
    <path clip-path="url(#pdc618f43d0)" d="M 73.832727 91.370153 
L 90.065455 91.343417 
L 106.298182 90.974958 
L 122.530909 95.277385 
L 138.763636 93.967541 
L 154.996364 94.666877 
L 171.229091 94.950113 
L 187.461818 96.309141 
L 203.694545 91.662677 
L 219.927273 94.576788 
L 236.16 94.746818 
L 252.392727 93.968209 
L 268.625455 94.251059 
L 284.858182 99.399039 
L 301.090909 95.313409 
L 317.323636 95.085337 
L 333.556364 93.942838 
L 349.789091 94.055643 
L 366.021818 91.078119 
L 382.254545 91.339827 
L 398.487273 91.370153 
" style="fill:none;stroke:#0e4db3;stroke-linecap:square;stroke-width:3;"/>
   </g>
   <g id="line2d_38">
    <path clip-path="url(#pdc618f43d0)" d="M 73.832727 127.657279 
L 90.065455 127.652664 
L 106.298182 127.258701 
L 122.530909 130.310127 
L 138.763636 128.783531 
L 154.996364 130.146328 
L 171.229091 129.753477 
L 187.461818 131.750698 
L 203.694545 127.469103 
L 219.927273 130.400899 
L 236.16 130.711998 
L 252.392727 129.704782 
L 268.625455 128.062637 
L 284.858182 130.782029 
L 301.090909 129.364217 
L 317.323636 129.369588 
L 333.556364 128.897686 
L 349.789091 129.428342 
L 366.021818 126.871607 
L 382.254545 127.427352 
L 398.487273 127.657279 
" style="fill:none;stroke:#d44e4e;stroke-linecap:square;stroke-width:3;"/>
   </g>
   <g id="line2d_39">
    <path clip-path="url(#pdc618f43d0)" d="M 73.832727 285.408 
L 90.065455 285.408 
L 106.298182 285.408 
L 122.530909 285.408 
L 138.763636 285.408 
L 154.996364 285.408 
L 171.229091 285.408 
L 187.461818 285.408 
L 203.694545 285.408 
L 219.927273 285.408 
L 236.16 285.408 
L 252.392727 285.408 
L 268.625455 282.587945 
L 284.858182 284.601146 
L 301.090909 285.408 
L 317.323636 285.408 
L 333.556364 285.408 
L 349.789091 285.408 
L 366.021818 285.408 
L 382.254545 285.408 
L 398.487273 285.408 
" style="fill:none;stroke:#0e4db3;stroke-linecap:square;stroke-width:3;"/>
   </g>
   <g id="line2d_40">
    <path clip-path="url(#pdc618f43d0)" d="M 73.832727 285.408 
L 90.065455 285.408 
L 106.298182 285.408 
L 122.530909 285.408 
L 138.763636 285.408 
L 154.996364 285.408 
L 171.229091 285.408 
L 187.461818 285.408 
L 203.694545 285.408 
L 219.927273 285.408 
L 236.16 285.408 
L 252.392727 285.408 
L 268.625455 285.408 
L 284.858182 285.408 
L 301.090909 285.408 
L 317.323636 285.408 
L 333.556364 285.408 
L 349.789091 285.408 
L 366.021818 285.408 
L 382.254545 285.408 
L 398.487273 285.408 
" style="fill:none;stroke:#d44e4e;stroke-linecap:square;stroke-width:3;"/>
   </g>
   <g id="line2d_41">
    <path clip-path="url(#pdc618f43d0)" d="M 73.832727 209.672634 
L 90.065455 154.14898 
L 106.298182 167.432405 
L 122.530909 182.455105 
L 138.763636 185.318051 
L 154.996364 225.198178 
L 171.229091 238.41592 
L 187.461818 238.112046 
L 203.694545 197.4292 
L 219.927273 160.146253 
L 236.16 162.234603 
L 252.392727 158.868293 
L 268.625455 179.940514 
L 284.858182 203.265225 
L 301.090909 181.136255 
L 317.323636 171.188894 
L 333.556364 168.93044 
L 349.789091 177.307429 
L 366.021818 147.091019 
L 382.254545 173.878672 
L 398.487273 209.672634 
" style="fill:none;stroke:#0e4db3;stroke-linecap:square;stroke-width:3;"/>
   </g>
   <g id="line2d_42">
    <path clip-path="url(#pdc618f43d0)" d="M 73.832727 225.743778 
L 90.065455 180.789332 
L 106.298182 189.015593 
L 122.530909 203.014467 
L 138.763636 206.834785 
L 154.996364 239.024959 
L 171.229091 249.617565 
L 187.461818 245.365832 
L 203.694545 213.421764 
L 219.927273 186.248991 
L 236.16 187.804949 
L 252.392727 185.101269 
L 268.625455 201.442619 
L 284.858182 220.306609 
L 301.090909 202.353143 
L 317.323636 194.47405 
L 333.556364 192.916193 
L 349.789091 197.710403 
L 366.021818 174.796013 
L 382.254545 196.22929 
L 398.487273 225.743778 
" style="fill:none;stroke:#d44e4e;stroke-linecap:square;stroke-width:3;"/>
   </g>
   <g id="line2d_43">
    <path clip-path="url(#pdc618f43d0)" d="M 73.832727 252.855809 
L 90.065455 226.95522 
L 106.298182 235.762108 
L 122.530909 235.056266 
L 138.763636 241.124807 
L 154.996364 244.061107 
L 171.229091 251.266769 
L 187.461818 258.464768 
L 203.694545 255.294951 
L 219.927273 241.960873 
L 236.16 243.019462 
L 252.392727 242.655966 
L 268.625455 247.183327 
L 284.858182 235.28324 
L 301.090909 244.849575 
L 317.323636 258.490554 
L 333.556364 258.60455 
L 349.789091 251.601333 
L 366.021818 246.767435 
L 382.254545 246.095087 
L 398.487273 252.855809 
" style="fill:none;stroke:#0e4db3;stroke-linecap:square;stroke-width:3;"/>
   </g>
   <g id="line2d_44">
    <path clip-path="url(#pdc618f43d0)" d="M 73.832727 261.124827 
L 90.065455 236.159944 
L 106.298182 243.409212 
L 122.530909 245.926888 
L 138.763636 251.460591 
L 154.996364 254.165924 
L 171.229091 258.95779 
L 187.461818 265.215146 
L 203.694545 261.977955 
L 219.927273 252.165164 
L 236.16 252.946852 
L 252.392727 252.6625 
L 268.625455 255.951379 
L 284.858182 246.44579 
L 301.090909 254.46959 
L 317.323636 264.603542 
L 333.556364 264.970031 
L 349.789091 259.427511 
L 366.021818 255.295596 
L 382.254545 255.032565 
L 398.487273 261.124827 
" style="fill:none;stroke:#d44e4e;stroke-linecap:square;stroke-width:3;"/>
   </g>
   <g id="line2d_45">
    <path clip-path="url(#pdc618f43d0)" d="M 73.832727 248.693791 
L 90.065455 231.156549 
L 106.298182 208.519846 
L 122.530909 200.298169 
L 138.763636 188.665206 
L 154.996364 184.059632 
L 171.229091 196.080379 
L 187.461818 212.378346 
L 203.694545 215.480915 
L 219.927273 195.25852 
L 236.16 195.136695 
L 252.392727 204.751242 
L 268.625455 200.151566 
L 284.858182 215.910531 
L 301.090909 222.370069 
L 317.323636 262.377324 
L 333.556364 260.400103 
L 349.789091 262.11826 
L 366.021818 244.228545 
L 382.254545 248.881801 
L 398.487273 248.693791 
" style="fill:none;stroke:#0e4db3;stroke-linecap:square;stroke-width:3;"/>
   </g>
   <g id="line2d_46">
    <path clip-path="url(#pdc618f43d0)" d="M 73.832727 255.691849 
L 90.065455 241.998017 
L 106.298182 212.863668 
L 122.530909 214.848463 
L 138.763636 208.967052 
L 154.996364 205.129242 
L 171.229091 214.426369 
L 187.461818 224.751228 
L 203.694545 228.839255 
L 219.927273 213.420666 
L 236.16 213.415043 
L 252.392727 220.487589 
L 268.625455 216.635535 
L 284.858182 228.446078 
L 301.090909 232.8975 
L 317.323636 267.638323 
L 333.556364 265.485268 
L 349.789091 264.996098 
L 366.021818 249.51453 
L 382.254545 254.6158 
L 398.487273 255.691849 
" style="fill:none;stroke:#d44e4e;stroke-linecap:square;stroke-width:3;"/>
   </g>
   <g id="line2d_47">
    <path clip-path="url(#pdc618f43d0)" d="M 73.832727 213.121896 
L 90.065455 212.57236 
L 106.298182 212.359488 
L 122.530909 219.393258 
L 138.763636 212.511537 
L 154.996364 228.725519 
L 171.229091 230.277538 
L 187.461818 230.596954 
L 203.694545 229.510004 
L 219.927273 228.896351 
L 236.16 228.399464 
L 252.392727 220.343322 
L 268.625455 216.187358 
L 284.858182 222.729812 
L 301.090909 212.138738 
L 317.323636 212.396046 
L 333.556364 212.4448 
L 349.789091 214.154268 
L 366.021818 207.268489 
L 382.254545 212.657784 
L 398.487273 213.121896 
" style="fill:none;stroke:#0e4db3;stroke-linecap:square;stroke-width:3;"/>
   </g>
   <g id="line2d_48">
    <path clip-path="url(#pdc618f43d0)" d="M 73.832727 223.888305 
L 90.065455 219.745701 
L 106.298182 219.48785 
L 122.530909 222.067983 
L 138.763636 223.794402 
L 154.996364 236.347104 
L 171.229091 237.272123 
L 187.461818 237.520656 
L 203.694545 237.393626 
L 219.927273 236.977292 
L 236.16 237.0348 
L 252.392727 228.955817 
L 268.625455 226.228191 
L 284.858182 230.993848 
L 301.090909 222.985503 
L 317.323636 223.007877 
L 333.556364 223.016965 
L 349.789091 224.81914 
L 366.021818 218.514247 
L 382.254545 223.171142 
L 398.487273 223.888305 
" style="fill:none;stroke:#d44e4e;stroke-linecap:square;stroke-width:3;"/>
   </g>
   <g id="line2d_49">
    <path clip-path="url(#pdc618f43d0)" d="M 73.832727 285.408 
L 90.065455 285.408 
L 106.298182 285.408 
L 122.530909 285.408 
L 138.763636 285.408 
L 154.996364 285.408 
L 171.229091 285.408 
L 187.461818 285.408 
L 203.694545 285.408 
L 219.927273 285.408 
L 236.16 285.408 
L 252.392727 285.408 
L 268.625455 285.408 
L 284.858182 285.408 
L 301.090909 285.408 
L 317.323636 285.408 
L 333.556364 285.408 
L 349.789091 285.408 
L 366.021818 285.408 
L 382.254545 285.408 
L 398.487273 285.408 
" style="fill:none;stroke:#0e4db3;stroke-linecap:square;stroke-width:3;"/>
   </g>
   <g id="line2d_50">
    <path clip-path="url(#pdc618f43d0)" d="M 73.832727 285.408 
L 90.065455 285.408 
L 106.298182 285.408 
L 122.530909 285.408 
L 138.763636 285.408 
L 154.996364 285.408 
L 171.229091 285.408 
L 187.461818 285.408 
L 203.694545 285.408 
L 219.927273 285.408 
L 236.16 285.408 
L 252.392727 285.408 
L 268.625455 285.408 
L 284.858182 285.408 
L 301.090909 285.408 
L 317.323636 285.408 
L 333.556364 285.408 
L 349.789091 285.408 
L 366.021818 285.408 
L 382.254545 285.408 
L 398.487273 285.408 
" style="fill:none;stroke:#d44e4e;stroke-linecap:square;stroke-width:3;"/>
   </g>
   <g id="line2d_51">
    <path clip-path="url(#pdc618f43d0)" d="M 73.832727 189.338993 
L 90.065455 101.560075 
L 106.298182 103.96623 
L 122.530909 96.950198 
L 138.763636 63.648 
L 154.996364 89.053108 
L 171.229091 146.267216 
L 187.461818 232.620125 
L 203.694545 191.664999 
L 219.927273 155.666822 
L 236.16 150.444227 
L 252.392727 113.324679 
L 268.625455 83.679815 
L 284.858182 66.124809 
L 301.090909 95.608351 
L 317.323636 154.727321 
L 333.556364 251.355089 
L 349.789091 285.408 
L 366.021818 256.448019 
L 382.254545 184.230441 
L 398.487273 189.338993 
" style="fill:none;stroke:#0e4db3;stroke-linecap:square;stroke-width:3;"/>
   </g>
   <g id="line2d_52">
    <path clip-path="url(#pdc618f43d0)" d="M 73.832727 285.408 
L 90.065455 212.754654 
L 106.298182 219.390446 
L 122.530909 196.425404 
L 138.763636 252.068646 
L 154.996364 278.634156 
L 171.229091 285.408 
L 187.461818 285.408 
L 203.694545 285.408 
L 219.927273 285.408 
L 236.16 283.298276 
L 252.392727 252.659558 
L 268.625455 233.778329 
L 284.858182 237.601736 
L 301.090909 255.488374 
L 317.323636 285.408 
L 333.556364 285.408 
L 349.789091 285.408 
L 366.021818 285.408 
L 382.254545 285.408 
L 398.487273 285.408 
" style="fill:none;stroke:#d44e4e;stroke-linecap:square;stroke-width:3;"/>
   </g>
   <g id="patch_3">
    <path d="M 57.6 307.584 
L 57.6 41.472 
" style="fill:none;stroke:#000000;stroke-linecap:square;stroke-linejoin:miter;stroke-width:2.5;"/>
   </g>
   <g id="patch_4">
    <path d="M 414.72 307.584 
L 414.72 41.472 
" style="fill:none;stroke:#000000;stroke-linecap:square;stroke-linejoin:miter;stroke-width:2.5;"/>
   </g>
   <g id="patch_5">
    <path d="M 57.6 307.584 
L 414.72 307.584 
" style="fill:none;stroke:#000000;stroke-linecap:square;stroke-linejoin:miter;stroke-width:2.5;"/>
   </g>
   <g id="patch_6">
    <path d="M 57.6 41.472 
L 414.72 41.472 
" style="fill:none;stroke:#000000;stroke-linecap:square;stroke-linejoin:miter;stroke-width:2.5;"/>
   </g>
  </g>
 </g>
 <defs>
  <clipPath id="pdc618f43d0">
   <rect height="266.112" width="357.12" x="57.6" y="41.472"/>
  </clipPath>
 </defs>
</svg>
