<?xml version="1.0" encoding="utf-8" standalone="no"?>
<!DOCTYPE svg PUBLIC "-//W3C//DTD SVG 1.1//EN"
  "http://www.w3.org/Graphics/SVG/1.1/DTD/svg11.dtd">
<!-- Created with matplotlib (https://matplotlib.org/) -->
<svg height="345.6pt" version="1.1" viewBox="0 0 460.8 345.6" width="460.8pt" xmlns="http://www.w3.org/2000/svg" xmlns:xlink="http://www.w3.org/1999/xlink">
 <defs>
  <style type="text/css">
*{stroke-linecap:butt;stroke-linejoin:round;}
  </style>
 </defs>
 <g id="figure_1">
  <g id="patch_1">
   <path d="M 0 345.6 
L 460.8 345.6 
L 460.8 0 
L 0 0 
z
" style="fill:#ffffff;"/>
  </g>
  <g id="axes_1">
   <g id="patch_2">
    <path d="M 57.6 307.584 
L 414.72 307.584 
L 414.72 41.472 
L 57.6 41.472 
z
" style="fill:#ffffff;"/>
   </g>
   <g id="matplotlib.axis_1">
    <g id="xtick_1">
     <g id="line2d_1">
      <defs>
       <path d="M 0 0 
L 0 12 
" id="mfcb9867e6c" style="stroke:#000000;stroke-width:2.5;"/>
      </defs>
      <g>
       <use style="stroke:#000000;stroke-width:2.5;" x="73.832727" xlink:href="#mfcb9867e6c" y="307.584"/>
      </g>
     </g>
     <g id="text_1">
      <!-- 0 -->
      <defs>
       <path d="M 31.78125 66.40625 
Q 24.171875 66.40625 20.328125 58.90625 
Q 16.5 51.421875 16.5 36.375 
Q 16.5 21.390625 20.328125 13.890625 
Q 24.171875 6.390625 31.78125 6.390625 
Q 39.453125 6.390625 43.28125 13.890625 
Q 47.125 21.390625 47.125 36.375 
Q 47.125 51.421875 43.28125 58.90625 
Q 39.453125 66.40625 31.78125 66.40625 
z
M 31.78125 74.21875 
Q 44.046875 74.21875 50.515625 64.515625 
Q 56.984375 54.828125 56.984375 36.375 
Q 56.984375 17.96875 50.515625 8.265625 
Q 44.046875 -1.421875 31.78125 -1.421875 
Q 19.53125 -1.421875 13.0625 8.265625 
Q 6.59375 17.96875 6.59375 36.375 
Q 6.59375 54.828125 13.0625 64.515625 
Q 19.53125 74.21875 31.78125 74.21875 
z
" id="DejaVuSans-48"/>
      </defs>
      <g transform="translate(66.833977 339.800562)scale(0.22 -0.22)">
       <use xlink:href="#DejaVuSans-48"/>
      </g>
     </g>
    </g>
    <g id="xtick_2">
     <g id="line2d_2">
      <g>
       <use style="stroke:#000000;stroke-width:2.5;" x="164.014545" xlink:href="#mfcb9867e6c" y="307.584"/>
      </g>
     </g>
     <g id="text_2">
      <!-- 50 -->
      <defs>
       <path d="M 10.796875 72.90625 
L 49.515625 72.90625 
L 49.515625 64.59375 
L 19.828125 64.59375 
L 19.828125 46.734375 
Q 21.96875 47.46875 24.109375 47.828125 
Q 26.265625 48.1875 28.421875 48.1875 
Q 40.625 48.1875 47.75 41.5 
Q 54.890625 34.8125 54.890625 23.390625 
Q 54.890625 11.625 47.5625 5.09375 
Q 40.234375 -1.421875 26.90625 -1.421875 
Q 22.3125 -1.421875 17.546875 -0.640625 
Q 12.796875 0.140625 7.71875 1.703125 
L 7.71875 11.625 
Q 12.109375 9.234375 16.796875 8.0625 
Q 21.484375 6.890625 26.703125 6.890625 
Q 35.15625 6.890625 40.078125 11.328125 
Q 45.015625 15.765625 45.015625 23.390625 
Q 45.015625 31 40.078125 35.4375 
Q 35.15625 39.890625 26.703125 39.890625 
Q 22.75 39.890625 18.8125 39.015625 
Q 14.890625 38.140625 10.796875 36.28125 
z
" id="DejaVuSans-53"/>
      </defs>
      <g transform="translate(150.017045 339.800562)scale(0.22 -0.22)">
       <use xlink:href="#DejaVuSans-53"/>
       <use x="63.623047" xlink:href="#DejaVuSans-48"/>
      </g>
     </g>
    </g>
    <g id="xtick_3">
     <g id="line2d_3">
      <g>
       <use style="stroke:#000000;stroke-width:2.5;" x="254.196364" xlink:href="#mfcb9867e6c" y="307.584"/>
      </g>
     </g>
     <g id="text_3">
      <!-- 100 -->
      <defs>
       <path d="M 12.40625 8.296875 
L 28.515625 8.296875 
L 28.515625 63.921875 
L 10.984375 60.40625 
L 10.984375 69.390625 
L 28.421875 72.90625 
L 38.28125 72.90625 
L 38.28125 8.296875 
L 54.390625 8.296875 
L 54.390625 0 
L 12.40625 0 
z
" id="DejaVuSans-49"/>
      </defs>
      <g transform="translate(233.200114 339.800562)scale(0.22 -0.22)">
       <use xlink:href="#DejaVuSans-49"/>
       <use x="63.623047" xlink:href="#DejaVuSans-48"/>
       <use x="127.246094" xlink:href="#DejaVuSans-48"/>
      </g>
     </g>
    </g>
    <g id="xtick_4">
     <g id="line2d_4">
      <g>
       <use style="stroke:#000000;stroke-width:2.5;" x="344.378182" xlink:href="#mfcb9867e6c" y="307.584"/>
      </g>
     </g>
     <g id="text_4">
      <!-- 150 -->
      <g transform="translate(323.381932 339.800562)scale(0.22 -0.22)">
       <use xlink:href="#DejaVuSans-49"/>
       <use x="63.623047" xlink:href="#DejaVuSans-53"/>
       <use x="127.246094" xlink:href="#DejaVuSans-48"/>
      </g>
     </g>
    </g>
    <g id="text_5">
     <!-- Degrees -->
     <defs>
      <path d="M 19.671875 64.796875 
L 19.671875 8.109375 
L 31.59375 8.109375 
Q 46.6875 8.109375 53.6875 14.9375 
Q 60.6875 21.78125 60.6875 36.53125 
Q 60.6875 51.171875 53.6875 57.984375 
Q 46.6875 64.796875 31.59375 64.796875 
z
M 9.8125 72.90625 
L 30.078125 72.90625 
Q 51.265625 72.90625 61.171875 64.09375 
Q 71.09375 55.28125 71.09375 36.53125 
Q 71.09375 17.671875 61.125 8.828125 
Q 51.171875 0 30.078125 0 
L 9.8125 0 
z
" id="DejaVuSans-68"/>
      <path d="M 56.203125 29.59375 
L 56.203125 25.203125 
L 14.890625 25.203125 
Q 15.484375 15.921875 20.484375 11.0625 
Q 25.484375 6.203125 34.421875 6.203125 
Q 39.59375 6.203125 44.453125 7.46875 
Q 49.3125 8.734375 54.109375 11.28125 
L 54.109375 2.78125 
Q 49.265625 0.734375 44.1875 -0.34375 
Q 39.109375 -1.421875 33.890625 -1.421875 
Q 20.796875 -1.421875 13.15625 6.1875 
Q 5.515625 13.8125 5.515625 26.8125 
Q 5.515625 40.234375 12.765625 48.109375 
Q 20.015625 56 32.328125 56 
Q 43.359375 56 49.78125 48.890625 
Q 56.203125 41.796875 56.203125 29.59375 
z
M 47.21875 32.234375 
Q 47.125 39.59375 43.09375 43.984375 
Q 39.0625 48.390625 32.421875 48.390625 
Q 24.90625 48.390625 20.390625 44.140625 
Q 15.875 39.890625 15.1875 32.171875 
z
" id="DejaVuSans-101"/>
      <path d="M 45.40625 27.984375 
Q 45.40625 37.75 41.375 43.109375 
Q 37.359375 48.484375 30.078125 48.484375 
Q 22.859375 48.484375 18.828125 43.109375 
Q 14.796875 37.75 14.796875 27.984375 
Q 14.796875 18.265625 18.828125 12.890625 
Q 22.859375 7.515625 30.078125 7.515625 
Q 37.359375 7.515625 41.375 12.890625 
Q 45.40625 18.265625 45.40625 27.984375 
z
M 54.390625 6.78125 
Q 54.390625 -7.171875 48.1875 -13.984375 
Q 42 -20.796875 29.203125 -20.796875 
Q 24.46875 -20.796875 20.265625 -20.09375 
Q 16.0625 -19.390625 12.109375 -17.921875 
L 12.109375 -9.1875 
Q 16.0625 -11.328125 19.921875 -12.34375 
Q 23.78125 -13.375 27.78125 -13.375 
Q 36.625 -13.375 41.015625 -8.765625 
Q 45.40625 -4.15625 45.40625 5.171875 
L 45.40625 9.625 
Q 42.625 4.78125 38.28125 2.390625 
Q 33.9375 0 27.875 0 
Q 17.828125 0 11.671875 7.65625 
Q 5.515625 15.328125 5.515625 27.984375 
Q 5.515625 40.671875 11.671875 48.328125 
Q 17.828125 56 27.875 56 
Q 33.9375 56 38.28125 53.609375 
Q 42.625 51.21875 45.40625 46.390625 
L 45.40625 54.6875 
L 54.390625 54.6875 
z
" id="DejaVuSans-103"/>
      <path d="M 41.109375 46.296875 
Q 39.59375 47.171875 37.8125 47.578125 
Q 36.03125 48 33.890625 48 
Q 26.265625 48 22.1875 43.046875 
Q 18.109375 38.09375 18.109375 28.8125 
L 18.109375 0 
L 9.078125 0 
L 9.078125 54.6875 
L 18.109375 54.6875 
L 18.109375 46.1875 
Q 20.953125 51.171875 25.484375 53.578125 
Q 30.03125 56 36.53125 56 
Q 37.453125 56 38.578125 55.875 
Q 39.703125 55.765625 41.0625 55.515625 
z
" id="DejaVuSans-114"/>
      <path d="M 44.28125 53.078125 
L 44.28125 44.578125 
Q 40.484375 46.53125 36.375 47.5 
Q 32.28125 48.484375 27.875 48.484375 
Q 21.1875 48.484375 17.84375 46.4375 
Q 14.5 44.390625 14.5 40.28125 
Q 14.5 37.15625 16.890625 35.375 
Q 19.28125 33.59375 26.515625 31.984375 
L 29.59375 31.296875 
Q 39.15625 29.25 43.1875 25.515625 
Q 47.21875 21.78125 47.21875 15.09375 
Q 47.21875 7.46875 41.1875 3.015625 
Q 35.15625 -1.421875 24.609375 -1.421875 
Q 20.21875 -1.421875 15.453125 -0.5625 
Q 10.6875 0.296875 5.421875 2 
L 5.421875 11.28125 
Q 10.40625 8.6875 15.234375 7.390625 
Q 20.0625 6.109375 24.8125 6.109375 
Q 31.15625 6.109375 34.5625 8.28125 
Q 37.984375 10.453125 37.984375 14.40625 
Q 37.984375 18.0625 35.515625 20.015625 
Q 33.0625 21.96875 24.703125 23.78125 
L 21.578125 24.515625 
Q 13.234375 26.265625 9.515625 29.90625 
Q 5.8125 33.546875 5.8125 39.890625 
Q 5.8125 47.609375 11.28125 51.796875 
Q 16.75 56 26.8125 56 
Q 31.78125 56 36.171875 55.265625 
Q 40.578125 54.546875 44.28125 53.078125 
z
" id="DejaVuSans-115"/>
     </defs>
     <g transform="translate(185.97 366.612125)scale(0.24 -0.24)">
      <use xlink:href="#DejaVuSans-68"/>
      <use x="77.001953" xlink:href="#DejaVuSans-101"/>
      <use x="138.525391" xlink:href="#DejaVuSans-103"/>
      <use x="202.001953" xlink:href="#DejaVuSans-114"/>
      <use x="243.083984" xlink:href="#DejaVuSans-101"/>
      <use x="304.607422" xlink:href="#DejaVuSans-101"/>
      <use x="366.130859" xlink:href="#DejaVuSans-115"/>
     </g>
    </g>
   </g>
   <g id="matplotlib.axis_2">
    <g id="ytick_1">
     <g id="line2d_5">
      <defs>
       <path d="M 0 0 
L -12 0 
" id="m0f97f95912" style="stroke:#000000;stroke-width:2.5;"/>
      </defs>
      <g>
       <use style="stroke:#000000;stroke-width:2.5;" x="57.6" xlink:href="#m0f97f95912" y="285.408"/>
      </g>
     </g>
     <g id="text_6">
      <!-- 0 -->
      <g transform="translate(28.1025 293.766281)scale(0.22 -0.22)">
       <use xlink:href="#DejaVuSans-48"/>
      </g>
     </g>
    </g>
    <g id="ytick_2">
     <g id="line2d_6">
      <g>
       <use style="stroke:#000000;stroke-width:2.5;" x="57.6" xlink:href="#m0f97f95912" y="233.37357"/>
      </g>
     </g>
     <g id="text_7">
      <!-- 1 -->
      <g transform="translate(28.1025 241.731852)scale(0.22 -0.22)">
       <use xlink:href="#DejaVuSans-49"/>
      </g>
     </g>
    </g>
    <g id="ytick_3">
     <g id="line2d_7">
      <g>
       <use style="stroke:#000000;stroke-width:2.5;" x="57.6" xlink:href="#m0f97f95912" y="181.339141"/>
      </g>
     </g>
     <g id="text_8">
      <!-- 2 -->
      <defs>
       <path d="M 19.1875 8.296875 
L 53.609375 8.296875 
L 53.609375 0 
L 7.328125 0 
L 7.328125 8.296875 
Q 12.9375 14.109375 22.625 23.890625 
Q 32.328125 33.6875 34.8125 36.53125 
Q 39.546875 41.84375 41.421875 45.53125 
Q 43.3125 49.21875 43.3125 52.78125 
Q 43.3125 58.59375 39.234375 62.25 
Q 35.15625 65.921875 28.609375 65.921875 
Q 23.96875 65.921875 18.8125 64.3125 
Q 13.671875 62.703125 7.8125 59.421875 
L 7.8125 69.390625 
Q 13.765625 71.78125 18.9375 73 
Q 24.125 74.21875 28.421875 74.21875 
Q 39.75 74.21875 46.484375 68.546875 
Q 53.21875 62.890625 53.21875 53.421875 
Q 53.21875 48.921875 51.53125 44.890625 
Q 49.859375 40.875 45.40625 35.40625 
Q 44.1875 33.984375 37.640625 27.21875 
Q 31.109375 20.453125 19.1875 8.296875 
z
" id="DejaVuSans-50"/>
      </defs>
      <g transform="translate(28.1025 189.697422)scale(0.22 -0.22)">
       <use xlink:href="#DejaVuSans-50"/>
      </g>
     </g>
    </g>
    <g id="ytick_4">
     <g id="line2d_8">
      <g>
       <use style="stroke:#000000;stroke-width:2.5;" x="57.6" xlink:href="#m0f97f95912" y="129.304711"/>
      </g>
     </g>
     <g id="text_9">
      <!-- 3 -->
      <defs>
       <path d="M 40.578125 39.3125 
Q 47.65625 37.796875 51.625 33 
Q 55.609375 28.21875 55.609375 21.1875 
Q 55.609375 10.40625 48.1875 4.484375 
Q 40.765625 -1.421875 27.09375 -1.421875 
Q 22.515625 -1.421875 17.65625 -0.515625 
Q 12.796875 0.390625 7.625 2.203125 
L 7.625 11.71875 
Q 11.71875 9.328125 16.59375 8.109375 
Q 21.484375 6.890625 26.8125 6.890625 
Q 36.078125 6.890625 40.9375 10.546875 
Q 45.796875 14.203125 45.796875 21.1875 
Q 45.796875 27.640625 41.28125 31.265625 
Q 36.765625 34.90625 28.71875 34.90625 
L 20.21875 34.90625 
L 20.21875 43.015625 
L 29.109375 43.015625 
Q 36.375 43.015625 40.234375 45.921875 
Q 44.09375 48.828125 44.09375 54.296875 
Q 44.09375 59.90625 40.109375 62.90625 
Q 36.140625 65.921875 28.71875 65.921875 
Q 24.65625 65.921875 20.015625 65.03125 
Q 15.375 64.15625 9.8125 62.3125 
L 9.8125 71.09375 
Q 15.4375 72.65625 20.34375 73.4375 
Q 25.25 74.21875 29.59375 74.21875 
Q 40.828125 74.21875 47.359375 69.109375 
Q 53.90625 64.015625 53.90625 55.328125 
Q 53.90625 49.265625 50.4375 45.09375 
Q 46.96875 40.921875 40.578125 39.3125 
z
" id="DejaVuSans-51"/>
      </defs>
      <g transform="translate(28.1025 137.662992)scale(0.22 -0.22)">
       <use xlink:href="#DejaVuSans-51"/>
      </g>
     </g>
    </g>
    <g id="ytick_5">
     <g id="line2d_9">
      <g>
       <use style="stroke:#000000;stroke-width:2.5;" x="57.6" xlink:href="#m0f97f95912" y="77.270281"/>
      </g>
     </g>
     <g id="text_10">
      <!-- 4 -->
      <defs>
       <path d="M 37.796875 64.3125 
L 12.890625 25.390625 
L 37.796875 25.390625 
z
M 35.203125 72.90625 
L 47.609375 72.90625 
L 47.609375 25.390625 
L 58.015625 25.390625 
L 58.015625 17.1875 
L 47.609375 17.1875 
L 47.609375 0 
L 37.796875 0 
L 37.796875 17.1875 
L 4.890625 17.1875 
L 4.890625 26.703125 
z
" id="DejaVuSans-52"/>
      </defs>
      <g transform="translate(28.1025 85.628563)scale(0.22 -0.22)">
       <use xlink:href="#DejaVuSans-52"/>
      </g>
     </g>
    </g>
    <g id="text_11">
     <!-- Activation -->
     <defs>
      <path d="M 34.1875 63.1875 
L 20.796875 26.90625 
L 47.609375 26.90625 
z
M 28.609375 72.90625 
L 39.796875 72.90625 
L 67.578125 0 
L 57.328125 0 
L 50.6875 18.703125 
L 17.828125 18.703125 
L 11.1875 0 
L 0.78125 0 
z
" id="DejaVuSans-65"/>
      <path d="M 48.78125 52.59375 
L 48.78125 44.1875 
Q 44.96875 46.296875 41.140625 47.34375 
Q 37.3125 48.390625 33.40625 48.390625 
Q 24.65625 48.390625 19.8125 42.84375 
Q 14.984375 37.3125 14.984375 27.296875 
Q 14.984375 17.28125 19.8125 11.734375 
Q 24.65625 6.203125 33.40625 6.203125 
Q 37.3125 6.203125 41.140625 7.25 
Q 44.96875 8.296875 48.78125 10.40625 
L 48.78125 2.09375 
Q 45.015625 0.34375 40.984375 -0.53125 
Q 36.96875 -1.421875 32.421875 -1.421875 
Q 20.0625 -1.421875 12.78125 6.34375 
Q 5.515625 14.109375 5.515625 27.296875 
Q 5.515625 40.671875 12.859375 48.328125 
Q 20.21875 56 33.015625 56 
Q 37.15625 56 41.109375 55.140625 
Q 45.0625 54.296875 48.78125 52.59375 
z
" id="DejaVuSans-99"/>
      <path d="M 18.3125 70.21875 
L 18.3125 54.6875 
L 36.8125 54.6875 
L 36.8125 47.703125 
L 18.3125 47.703125 
L 18.3125 18.015625 
Q 18.3125 11.328125 20.140625 9.421875 
Q 21.96875 7.515625 27.59375 7.515625 
L 36.8125 7.515625 
L 36.8125 0 
L 27.59375 0 
Q 17.1875 0 13.234375 3.875 
Q 9.28125 7.765625 9.28125 18.015625 
L 9.28125 47.703125 
L 2.6875 47.703125 
L 2.6875 54.6875 
L 9.28125 54.6875 
L 9.28125 70.21875 
z
" id="DejaVuSans-116"/>
      <path d="M 9.421875 54.6875 
L 18.40625 54.6875 
L 18.40625 0 
L 9.421875 0 
z
M 9.421875 75.984375 
L 18.40625 75.984375 
L 18.40625 64.59375 
L 9.421875 64.59375 
z
" id="DejaVuSans-105"/>
      <path d="M 2.984375 54.6875 
L 12.5 54.6875 
L 29.59375 8.796875 
L 46.6875 54.6875 
L 56.203125 54.6875 
L 35.6875 0 
L 23.484375 0 
z
" id="DejaVuSans-118"/>
      <path d="M 34.28125 27.484375 
Q 23.390625 27.484375 19.1875 25 
Q 14.984375 22.515625 14.984375 16.5 
Q 14.984375 11.71875 18.140625 8.90625 
Q 21.296875 6.109375 26.703125 6.109375 
Q 34.1875 6.109375 38.703125 11.40625 
Q 43.21875 16.703125 43.21875 25.484375 
L 43.21875 27.484375 
z
M 52.203125 31.203125 
L 52.203125 0 
L 43.21875 0 
L 43.21875 8.296875 
Q 40.140625 3.328125 35.546875 0.953125 
Q 30.953125 -1.421875 24.3125 -1.421875 
Q 15.921875 -1.421875 10.953125 3.296875 
Q 6 8.015625 6 15.921875 
Q 6 25.140625 12.171875 29.828125 
Q 18.359375 34.515625 30.609375 34.515625 
L 43.21875 34.515625 
L 43.21875 35.40625 
Q 43.21875 41.609375 39.140625 45 
Q 35.0625 48.390625 27.6875 48.390625 
Q 23 48.390625 18.546875 47.265625 
Q 14.109375 46.140625 10.015625 43.890625 
L 10.015625 52.203125 
Q 14.9375 54.109375 19.578125 55.046875 
Q 24.21875 56 28.609375 56 
Q 40.484375 56 46.34375 49.84375 
Q 52.203125 43.703125 52.203125 31.203125 
z
" id="DejaVuSans-97"/>
      <path d="M 30.609375 48.390625 
Q 23.390625 48.390625 19.1875 42.75 
Q 14.984375 37.109375 14.984375 27.296875 
Q 14.984375 17.484375 19.15625 11.84375 
Q 23.34375 6.203125 30.609375 6.203125 
Q 37.796875 6.203125 41.984375 11.859375 
Q 46.1875 17.53125 46.1875 27.296875 
Q 46.1875 37.015625 41.984375 42.703125 
Q 37.796875 48.390625 30.609375 48.390625 
z
M 30.609375 56 
Q 42.328125 56 49.015625 48.375 
Q 55.71875 40.765625 55.71875 27.296875 
Q 55.71875 13.875 49.015625 6.21875 
Q 42.328125 -1.421875 30.609375 -1.421875 
Q 18.84375 -1.421875 12.171875 6.21875 
Q 5.515625 13.875 5.515625 27.296875 
Q 5.515625 40.765625 12.171875 48.375 
Q 18.84375 56 30.609375 56 
z
" id="DejaVuSans-111"/>
      <path d="M 54.890625 33.015625 
L 54.890625 0 
L 45.90625 0 
L 45.90625 32.71875 
Q 45.90625 40.484375 42.875 44.328125 
Q 39.84375 48.1875 33.796875 48.1875 
Q 26.515625 48.1875 22.3125 43.546875 
Q 18.109375 38.921875 18.109375 30.90625 
L 18.109375 0 
L 9.078125 0 
L 9.078125 54.6875 
L 18.109375 54.6875 
L 18.109375 46.1875 
Q 21.34375 51.125 25.703125 53.5625 
Q 30.078125 56 35.796875 56 
Q 45.21875 56 50.046875 50.171875 
Q 54.890625 44.34375 54.890625 33.015625 
z
" id="DejaVuSans-110"/>
     </defs>
     <g transform="translate(19.11125 234.813)rotate(-90)scale(0.24 -0.24)">
      <use xlink:href="#DejaVuSans-65"/>
      <use x="68.392578" xlink:href="#DejaVuSans-99"/>
      <use x="123.373047" xlink:href="#DejaVuSans-116"/>
      <use x="162.582031" xlink:href="#DejaVuSans-105"/>
      <use x="190.365234" xlink:href="#DejaVuSans-118"/>
      <use x="249.544922" xlink:href="#DejaVuSans-97"/>
      <use x="310.824219" xlink:href="#DejaVuSans-116"/>
      <use x="350.033203" xlink:href="#DejaVuSans-105"/>
      <use x="377.816406" xlink:href="#DejaVuSans-111"/>
      <use x="438.998047" xlink:href="#DejaVuSans-110"/>
     </g>
    </g>
   </g>
   <g id="line2d_10">
    <path clip-path="url(#p2a1a5b1e15)" d="M 73.832727 272.166984 
L 90.065455 249.622035 
L 106.298182 241.805983 
L 122.530909 231.711784 
L 138.763636 219.903783 
L 154.996364 218.236067 
L 171.229091 220.664313 
L 187.461818 203.042593 
L 203.694545 197.185441 
L 219.927273 198.266715 
L 236.16 206.021181 
L 252.392727 205.768012 
L 268.625455 206.974785 
L 284.858182 236.157927 
L 301.090909 231.578395 
L 317.323636 254.253375 
L 333.556364 259.993182 
L 349.789091 265.974727 
L 366.021818 262.644441 
L 382.254545 266.848821 
L 398.487273 272.166984 
" style="fill:none;stroke:#0e4db3;stroke-linecap:square;stroke-width:3;"/>
   </g>
   <g id="line2d_11">
    <path clip-path="url(#p2a1a5b1e15)" d="M 73.832727 274.872412 
L 90.065455 256.408606 
L 106.298182 249.473002 
L 122.530909 242.010629 
L 138.763636 232.894203 
L 154.996364 231.911849 
L 171.229091 233.02054 
L 187.461818 217.392101 
L 203.694545 214.486237 
L 219.927273 213.657456 
L 236.16 217.649351 
L 252.392727 220.201458 
L 268.625455 220.745423 
L 284.858182 245.951582 
L 301.090909 241.407984 
L 317.323636 259.716039 
L 333.556364 264.122995 
L 349.789091 268.118758 
L 366.021818 266.409648 
L 382.254545 269.555114 
L 398.487273 274.872412 
" style="fill:none;stroke:#d44e4e;stroke-linecap:square;stroke-width:3;"/>
   </g>
   <g id="line2d_12">
    <path clip-path="url(#p2a1a5b1e15)" d="M 73.832727 195.396977 
L 90.065455 194.712955 
L 106.298182 200.780382 
L 122.530909 212.442607 
L 138.763636 214.519913 
L 154.996364 217.066537 
L 171.229091 216.904502 
L 187.461818 203.780619 
L 203.694545 199.433224 
L 219.927273 214.937907 
L 236.16 214.927598 
L 252.392727 212.606018 
L 268.625455 199.701906 
L 284.858182 209.029003 
L 301.090909 197.361048 
L 317.323636 201.421362 
L 333.556364 200.966751 
L 349.789091 185.952786 
L 366.021818 190.218072 
L 382.254545 186.181602 
L 398.487273 195.396977 
" style="fill:none;stroke:#0e4db3;stroke-linecap:square;stroke-width:3;"/>
   </g>
   <g id="line2d_13">
    <path clip-path="url(#p2a1a5b1e15)" d="M 73.832727 214.157584 
L 90.065455 205.979255 
L 106.298182 216.107952 
L 122.530909 227.473617 
L 138.763636 228.841097 
L 154.996364 231.114604 
L 171.229091 231.11175 
L 187.461818 220.98278 
L 203.694545 217.904802 
L 219.927273 229.769039 
L 236.16 229.726735 
L 252.392727 226.860316 
L 268.625455 217.403012 
L 284.858182 223.327944 
L 301.090909 215.860775 
L 317.323636 218.94206 
L 333.556364 218.445994 
L 349.789091 206.823631 
L 366.021818 208.963847 
L 382.254545 206.772233 
L 398.487273 214.157584 
" style="fill:none;stroke:#d44e4e;stroke-linecap:square;stroke-width:3;"/>
   </g>
   <g id="line2d_14">
    <path clip-path="url(#p2a1a5b1e15)" d="M 73.832727 194.171441 
L 90.065455 189.764044 
L 106.298182 189.729109 
L 122.530909 189.753301 
L 138.763636 180.107153 
L 154.996364 180.584771 
L 171.229091 179.722084 
L 187.461818 186.185293 
L 203.694545 178.369957 
L 219.927273 181.896746 
L 236.16 187.821399 
L 252.392727 187.924027 
L 268.625455 188.987964 
L 284.858182 195.435771 
L 301.090909 196.618172 
L 317.323636 197.12967 
L 333.556364 196.891705 
L 349.789091 197.640771 
L 366.021818 195.587291 
L 382.254545 194.504467 
L 398.487273 194.171441 
" style="fill:none;stroke:#0e4db3;stroke-linecap:square;stroke-width:3;"/>
   </g>
   <g id="line2d_15">
    <path clip-path="url(#p2a1a5b1e15)" d="M 73.832727 210.139934 
L 90.065455 206.966529 
L 106.298182 206.700582 
L 122.530909 206.412193 
L 138.763636 200.414276 
L 154.996364 200.315413 
L 171.229091 198.890369 
L 187.461818 203.787101 
L 203.694545 196.804503 
L 219.927273 200.16143 
L 236.16 204.987552 
L 252.392727 204.875868 
L 268.625455 205.84019 
L 284.858182 209.27873 
L 301.090909 210.149393 
L 317.323636 211.326993 
L 333.556364 211.924577 
L 349.789091 212.491579 
L 366.021818 210.805812 
L 382.254545 210.14631 
L 398.487273 210.139934 
" style="fill:none;stroke:#d44e4e;stroke-linecap:square;stroke-width:3;"/>
   </g>
   <g id="line2d_16">
    <path clip-path="url(#p2a1a5b1e15)" d="M 73.832727 182.133613 
L 90.065455 182.010794 
L 106.298182 182.416246 
L 122.530909 192.095375 
L 138.763636 193.083139 
L 154.996364 195.553106 
L 171.229091 193.394907 
L 187.461818 190.810625 
L 203.694545 183.994633 
L 219.927273 186.402968 
L 236.16 185.430501 
L 252.392727 181.098924 
L 268.625455 179.576922 
L 284.858182 179.660513 
L 301.090909 174.852912 
L 317.323636 174.107512 
L 333.556364 162.590921 
L 349.789091 173.176443 
L 366.021818 172.614205 
L 382.254545 177.68016 
L 398.487273 182.133613 
" style="fill:none;stroke:#0e4db3;stroke-linecap:square;stroke-width:3;"/>
   </g>
   <g id="line2d_17">
    <path clip-path="url(#p2a1a5b1e15)" d="M 73.832727 203.887651 
L 90.065455 203.883619 
L 106.298182 204.162431 
L 122.530909 211.370427 
L 138.763636 211.841816 
L 154.996364 213.034663 
L 171.229091 212.261337 
L 187.461818 208.979845 
L 203.694545 205.663083 
L 219.927273 206.959879 
L 236.16 207.149777 
L 252.392727 202.429043 
L 268.625455 200.298801 
L 284.858182 199.705076 
L 301.090909 197.030031 
L 317.323636 197.028133 
L 333.556364 189.37405 
L 349.789091 196.414664 
L 366.021818 195.563589 
L 382.254545 200.02489 
L 398.487273 203.887651 
" style="fill:none;stroke:#d44e4e;stroke-linecap:square;stroke-width:3;"/>
   </g>
   <g id="line2d_18">
    <path clip-path="url(#p2a1a5b1e15)" d="M 73.832727 252.273763 
L 90.065455 251.767193 
L 106.298182 252.222641 
L 122.530909 251.120565 
L 138.763636 238.383351 
L 154.996364 236.732469 
L 171.229091 226.439474 
L 187.461818 229.610311 
L 203.694545 214.010399 
L 219.927273 201.752223 
L 236.16 201.945421 
L 252.392727 188.843478 
L 268.625455 177.299433 
L 284.858182 183.464799 
L 301.090909 167.486853 
L 317.323636 176.771831 
L 333.556364 179.405297 
L 349.789091 222.276835 
L 366.021818 226.239515 
L 382.254545 225.801782 
L 398.487273 252.273763 
" style="fill:none;stroke:#0e4db3;stroke-linecap:square;stroke-width:3;"/>
   </g>
   <g id="line2d_19">
    <path clip-path="url(#p2a1a5b1e15)" d="M 73.832727 255.113013 
L 90.065455 254.372742 
L 106.298182 254.772351 
L 122.530909 254.291536 
L 138.763636 244.316847 
L 154.996364 243.067351 
L 171.229091 234.056296 
L 187.461818 236.484313 
L 203.694545 224.244224 
L 219.927273 215.281857 
L 236.16 215.306631 
L 252.392727 204.362477 
L 268.625455 195.222351 
L 284.858182 201.186089 
L 301.090909 187.978291 
L 317.323636 194.512183 
L 333.556364 197.070512 
L 349.789091 230.576842 
L 366.021818 233.886498 
L 382.254545 233.853545 
L 398.487273 255.113013 
" style="fill:none;stroke:#d44e4e;stroke-linecap:square;stroke-width:3;"/>
   </g>
   <g id="line2d_20">
    <path clip-path="url(#p2a1a5b1e15)" d="M 73.832727 285.408 
L 90.065455 285.408 
L 106.298182 285.408 
L 122.530909 285.408 
L 138.763636 285.408 
L 154.996364 285.408 
L 171.229091 285.408 
L 187.461818 285.408 
L 203.694545 285.408 
L 219.927273 285.408 
L 236.16 285.408 
L 252.392727 285.408 
L 268.625455 285.408 
L 284.858182 285.408 
L 301.090909 285.408 
L 317.323636 285.408 
L 333.556364 285.408 
L 349.789091 285.408 
L 366.021818 285.408 
L 382.254545 285.408 
L 398.487273 285.408 
" style="fill:none;stroke:#0e4db3;stroke-linecap:square;stroke-width:3;"/>
   </g>
   <g id="line2d_21">
    <path clip-path="url(#p2a1a5b1e15)" d="M 73.832727 285.408 
L 90.065455 285.408 
L 106.298182 285.408 
L 122.530909 285.408 
L 138.763636 285.408 
L 154.996364 285.408 
L 171.229091 285.408 
L 187.461818 285.408 
L 203.694545 285.408 
L 219.927273 285.408 
L 236.16 285.408 
L 252.392727 285.408 
L 268.625455 285.408 
L 284.858182 285.408 
L 301.090909 285.408 
L 317.323636 285.408 
L 333.556364 285.408 
L 349.789091 285.408 
L 366.021818 285.408 
L 382.254545 285.408 
L 398.487273 285.408 
" style="fill:none;stroke:#d44e4e;stroke-linecap:square;stroke-width:3;"/>
   </g>
   <g id="line2d_22">
    <path clip-path="url(#p2a1a5b1e15)" d="M 73.832727 285.408 
L 90.065455 284.942845 
L 106.298182 285.222703 
L 122.530909 285.052514 
L 138.763636 285.252065 
L 154.996364 285.408 
L 171.229091 285.408 
L 187.461818 285.408 
L 203.694545 285.408 
L 219.927273 285.408 
L 236.16 285.408 
L 252.392727 285.408 
L 268.625455 284.326294 
L 284.858182 285.408 
L 301.090909 285.408 
L 317.323636 285.408 
L 333.556364 285.408 
L 349.789091 285.408 
L 366.021818 285.408 
L 382.254545 285.408 
L 398.487273 285.408 
" style="fill:none;stroke:#0e4db3;stroke-linecap:square;stroke-width:3;"/>
   </g>
   <g id="line2d_23">
    <path clip-path="url(#p2a1a5b1e15)" d="M 73.832727 285.408 
L 90.065455 285.408 
L 106.298182 285.408 
L 122.530909 285.408 
L 138.763636 285.408 
L 154.996364 285.408 
L 171.229091 285.408 
L 187.461818 285.408 
L 203.694545 285.408 
L 219.927273 285.408 
L 236.16 285.408 
L 252.392727 285.408 
L 268.625455 285.408 
L 284.858182 285.408 
L 301.090909 285.408 
L 317.323636 285.408 
L 333.556364 285.408 
L 349.789091 285.408 
L 366.021818 285.408 
L 382.254545 285.408 
L 398.487273 285.408 
" style="fill:none;stroke:#d44e4e;stroke-linecap:square;stroke-width:3;"/>
   </g>
   <g id="line2d_24">
    <path clip-path="url(#p2a1a5b1e15)" d="M 73.832727 258.689953 
L 90.065455 250.262239 
L 106.298182 237.914107 
L 122.530909 236.724852 
L 138.763636 223.964352 
L 154.996364 221.375554 
L 171.229091 212.817428 
L 187.461818 213.888628 
L 203.694545 201.581839 
L 219.927273 202.207919 
L 236.16 231.422315 
L 252.392727 203.688734 
L 268.625455 217.410945 
L 284.858182 234.407118 
L 301.090909 231.079302 
L 317.323636 243.046496 
L 333.556364 244.52308 
L 349.789091 246.949097 
L 366.021818 247.770394 
L 382.254545 255.820743 
L 398.487273 258.689953 
" style="fill:none;stroke:#0e4db3;stroke-linecap:square;stroke-width:3;"/>
   </g>
   <g id="line2d_25">
    <path clip-path="url(#p2a1a5b1e15)" d="M 73.832727 259.201265 
L 90.065455 252.752246 
L 106.298182 242.747792 
L 122.530909 240.770713 
L 138.763636 231.272929 
L 154.996364 229.546482 
L 171.229091 222.52052 
L 187.461818 222.818883 
L 203.694545 213.595246 
L 219.927273 213.636824 
L 236.16 237.195194 
L 252.392727 215.002902 
L 268.625455 225.853261 
L 284.858182 240.146839 
L 301.090909 236.863889 
L 317.323636 246.400567 
L 333.556364 247.448763 
L 349.789091 248.427563 
L 366.021818 249.37261 
L 382.254545 256.396392 
L 398.487273 259.201265 
" style="fill:none;stroke:#d44e4e;stroke-linecap:square;stroke-width:3;"/>
   </g>
   <g id="line2d_26">
    <path clip-path="url(#p2a1a5b1e15)" d="M 73.832727 230.252413 
L 90.065455 226.433569 
L 106.298182 220.688554 
L 122.530909 218.367527 
L 138.763636 221.197975 
L 154.996364 221.352776 
L 171.229091 221.626601 
L 187.461818 227.615685 
L 203.694545 226.684225 
L 219.927273 229.698331 
L 236.16 232.348738 
L 252.392727 229.105605 
L 268.625455 228.415771 
L 284.858182 228.48584 
L 301.090909 228.617281 
L 317.323636 229.137364 
L 333.556364 217.053436 
L 349.789091 223.720593 
L 366.021818 221.637816 
L 382.254545 230.450555 
L 398.487273 230.252413 
" style="fill:none;stroke:#0e4db3;stroke-linecap:square;stroke-width:3;"/>
   </g>
   <g id="line2d_27">
    <path clip-path="url(#p2a1a5b1e15)" d="M 73.832727 242.029051 
L 90.065455 238.985624 
L 106.298182 234.548646 
L 122.530909 231.89422 
L 138.763636 236.03949 
L 154.996364 236.24925 
L 171.229091 236.15891 
L 187.461818 239.837201 
L 203.694545 237.95243 
L 219.927273 242.348958 
L 236.16 240.326834 
L 252.392727 240.657236 
L 268.625455 240.552827 
L 284.858182 241.269592 
L 301.090909 241.584694 
L 317.323636 241.475481 
L 333.556364 232.094241 
L 349.789091 234.14047 
L 366.021818 233.700009 
L 382.254545 242.030534 
L 398.487273 242.029051 
" style="fill:none;stroke:#d44e4e;stroke-linecap:square;stroke-width:3;"/>
   </g>
   <g id="line2d_28">
    <path clip-path="url(#p2a1a5b1e15)" d="M 73.832727 283.403778 
L 90.065455 262.270479 
L 106.298182 244.454575 
L 122.530909 245.590987 
L 138.763636 223.982806 
L 154.996364 222.356413 
L 171.229091 222.670936 
L 187.461818 224.611665 
L 203.694545 219.191265 
L 219.927273 219.181669 
L 236.16 226.911583 
L 252.392727 221.818683 
L 268.625455 228.432494 
L 284.858182 244.305939 
L 301.090909 237.917525 
L 317.323636 261.169237 
L 333.556364 261.537918 
L 349.789091 267.256662 
L 366.021818 278.443741 
L 382.254545 268.183715 
L 398.487273 283.403778 
" style="fill:none;stroke:#0e4db3;stroke-linecap:square;stroke-width:3;"/>
   </g>
   <g id="line2d_29">
    <path clip-path="url(#p2a1a5b1e15)" d="M 73.832727 284.88796 
L 90.065455 268.781671 
L 106.298182 254.423383 
L 122.530909 250.382754 
L 138.763636 238.810445 
L 154.996364 237.399694 
L 171.229091 237.44763 
L 187.461818 237.377388 
L 203.694545 233.63721 
L 219.927273 233.67555 
L 236.16 240.262121 
L 252.392727 235.606757 
L 268.625455 239.744169 
L 284.858182 254.643564 
L 301.090909 248.383646 
L 317.323636 266.19505 
L 333.556364 268.14252 
L 349.789091 273.233183 
L 366.021818 280.826969 
L 382.254545 273.256455 
L 398.487273 284.88796 
" style="fill:none;stroke:#d44e4e;stroke-linecap:square;stroke-width:3;"/>
   </g>
   <g id="line2d_30">
    <path clip-path="url(#p2a1a5b1e15)" d="M 73.832727 202.970174 
L 90.065455 202.473234 
L 106.298182 197.410802 
L 122.530909 205.467527 
L 138.763636 210.286244 
L 154.996364 227.306782 
L 171.229091 230.303023 
L 187.461818 227.556961 
L 203.694545 201.203594 
L 219.927273 183.164711 
L 236.16 184.564092 
L 252.392727 182.835196 
L 268.625455 201.110735 
L 284.858182 212.318094 
L 301.090909 197.062318 
L 317.323636 191.591271 
L 333.556364 190.192745 
L 349.789091 187.619777 
L 366.021818 181.231568 
L 382.254545 187.190195 
L 398.487273 202.970174 
" style="fill:none;stroke:#0e4db3;stroke-linecap:square;stroke-width:3;"/>
   </g>
   <g id="line2d_31">
    <path clip-path="url(#p2a1a5b1e15)" d="M 73.832727 214.725418 
L 90.065455 214.711852 
L 106.298182 210.618438 
L 122.530909 215.93188 
L 138.763636 221.369351 
L 154.996364 234.353649 
L 171.229091 236.611393 
L 187.461818 233.165832 
L 203.694545 212.330668 
L 219.927273 199.266177 
L 236.16 200.22189 
L 252.392727 198.884421 
L 268.625455 213.155851 
L 284.858182 222.195967 
L 301.090909 209.804079 
L 317.323636 205.623228 
L 333.556364 204.685827 
L 349.789091 202.727134 
L 366.021818 197.104139 
L 382.254545 202.176024 
L 398.487273 214.725418 
" style="fill:none;stroke:#d44e4e;stroke-linecap:square;stroke-width:3;"/>
   </g>
   <g id="line2d_32">
    <path clip-path="url(#p2a1a5b1e15)" d="M 73.832727 200.330548 
L 90.065455 199.778625 
L 106.298182 208.674081 
L 122.530909 211.160065 
L 138.763636 228.823654 
L 154.996364 240.929758 
L 171.229091 228.564034 
L 187.461818 212.702115 
L 203.694545 206.154092 
L 219.927273 222.778173 
L 236.16 220.791902 
L 252.392727 220.859291 
L 268.625455 230.351779 
L 284.858182 237.470885 
L 301.090909 226.025332 
L 317.323636 223.934292 
L 333.556364 213.055853 
L 349.789091 212.605671 
L 366.021818 206.34788 
L 382.254545 200.678269 
L 398.487273 200.330548 
" style="fill:none;stroke:#0e4db3;stroke-linecap:square;stroke-width:3;"/>
   </g>
   <g id="line2d_33">
    <path clip-path="url(#p2a1a5b1e15)" d="M 73.832727 213.718753 
L 90.065455 211.384526 
L 106.298182 220.470879 
L 122.530909 217.276092 
L 138.763636 236.361053 
L 154.996364 245.753595 
L 171.229091 235.511256 
L 187.461818 222.366555 
L 203.694545 217.316033 
L 219.927273 231.227969 
L 236.16 229.645941 
L 252.392727 229.348427 
L 268.625455 237.360348 
L 284.858182 242.394829 
L 301.090909 234.382313 
L 317.323636 231.48277 
L 333.556364 223.807274 
L 349.789091 221.930901 
L 366.021818 217.591148 
L 382.254545 211.348685 
L 398.487273 213.718753 
" style="fill:none;stroke:#d44e4e;stroke-linecap:square;stroke-width:3;"/>
   </g>
   <g id="line2d_34">
    <path clip-path="url(#p2a1a5b1e15)" d="M 73.832727 159.778909 
L 90.065455 159.599878 
L 106.298182 156.783647 
L 122.530909 158.48138 
L 138.763636 158.305873 
L 154.996364 158.396412 
L 171.229091 156.692166 
L 187.461818 157.963232 
L 203.694545 152.123045 
L 219.927273 154.732543 
L 236.16 155.238632 
L 252.392727 155.129112 
L 268.625455 157.242036 
L 284.858182 158.85743 
L 301.090909 157.475913 
L 317.323636 158.151778 
L 333.556364 157.672511 
L 349.789091 159.088715 
L 366.021818 157.048862 
L 382.254545 158.317497 
L 398.487273 159.778909 
" style="fill:none;stroke:#0e4db3;stroke-linecap:square;stroke-width:3;"/>
   </g>
   <g id="line2d_35">
    <path clip-path="url(#p2a1a5b1e15)" d="M 73.832727 179.980451 
L 90.065455 179.107777 
L 106.298182 177.285873 
L 122.530909 178.405562 
L 138.763636 178.377586 
L 154.996364 178.428054 
L 171.229091 177.106483 
L 187.461818 178.324452 
L 203.694545 173.537966 
L 219.927273 175.912916 
L 236.16 176.172127 
L 252.392727 176.117019 
L 268.625455 176.137365 
L 284.858182 178.189475 
L 301.090909 177.041872 
L 317.323636 177.938539 
L 333.556364 177.80649 
L 349.789091 179.046852 
L 366.021818 177.417897 
L 382.254545 178.668395 
L 398.487273 179.980451 
" style="fill:none;stroke:#d44e4e;stroke-linecap:square;stroke-width:3;"/>
   </g>
   <g id="line2d_36">
    <path clip-path="url(#p2a1a5b1e15)" d="M 73.832727 224.528768 
L 90.065455 213.423119 
L 106.298182 213.326731 
L 122.530909 220.087603 
L 138.763636 221.021177 
L 154.996364 218.375175 
L 171.229091 218.226309 
L 187.461818 217.846873 
L 203.694545 226.592979 
L 219.927273 226.360287 
L 236.16 228.382696 
L 252.392727 241.041328 
L 268.625455 254.560181 
L 284.858182 259.663047 
L 301.090909 259.80294 
L 317.323636 257.775893 
L 333.556364 255.574968 
L 349.789091 252.159218 
L 366.021818 238.129339 
L 382.254545 224.624114 
L 398.487273 224.528768 
" style="fill:none;stroke:#0e4db3;stroke-linecap:square;stroke-width:3;"/>
   </g>
   <g id="line2d_37">
    <path clip-path="url(#p2a1a5b1e15)" d="M 73.832727 233.11792 
L 90.065455 224.214903 
L 106.298182 224.563939 
L 122.530909 226.933058 
L 138.763636 230.483481 
L 154.996364 228.17378 
L 171.229091 227.901531 
L 187.461818 227.331023 
L 203.694545 234.350138 
L 219.927273 234.364817 
L 236.16 236.210891 
L 252.392727 246.2189 
L 268.625455 257.067357 
L 284.858182 260.824341 
L 301.090909 260.88082 
L 317.323636 259.138941 
L 333.556364 257.590132 
L 349.789091 254.678835 
L 366.021818 243.233346 
L 382.254545 232.184265 
L 398.487273 233.11792 
" style="fill:none;stroke:#d44e4e;stroke-linecap:square;stroke-width:3;"/>
   </g>
   <g id="line2d_38">
    <path clip-path="url(#p2a1a5b1e15)" d="M 73.832727 123.161669 
L 90.065455 123.139314 
L 106.298182 122.831224 
L 122.530909 126.428733 
L 138.763636 125.333496 
L 154.996364 125.918252 
L 171.229091 126.155082 
L 187.461818 127.291445 
L 203.694545 123.406265 
L 219.927273 125.842923 
L 236.16 125.985095 
L 252.392727 125.334055 
L 268.625455 125.570562 
L 284.858182 129.875088 
L 301.090909 126.458855 
L 317.323636 126.26815 
L 333.556364 125.312841 
L 349.789091 125.407163 
L 366.021818 122.917482 
L 382.254545 123.136311 
L 398.487273 123.161669 
" style="fill:none;stroke:#0e4db3;stroke-linecap:square;stroke-width:3;"/>
   </g>
   <g id="line2d_39">
    <path clip-path="url(#p2a1a5b1e15)" d="M 73.832727 153.503446 
L 90.065455 153.499587 
L 106.298182 153.170172 
L 122.530909 155.721646 
L 138.763636 154.445171 
L 154.996364 155.584684 
L 171.229091 155.256199 
L 187.461818 156.926192 
L 203.694545 153.346101 
L 219.927273 155.797546 
L 236.16 156.057675 
L 252.392727 155.215483 
L 268.625455 153.842389 
L 284.858182 156.116231 
L 301.090909 154.930716 
L 317.323636 154.935207 
L 333.556364 154.540622 
L 349.789091 154.984334 
L 366.021818 152.8465 
L 382.254545 153.31119 
L 398.487273 153.503446 
" style="fill:none;stroke:#d44e4e;stroke-linecap:square;stroke-width:3;"/>
   </g>
   <g id="line2d_40">
    <path clip-path="url(#p2a1a5b1e15)" d="M 73.832727 285.408 
L 90.065455 285.408 
L 106.298182 285.408 
L 122.530909 285.408 
L 138.763636 285.408 
L 154.996364 285.408 
L 171.229091 285.408 
L 187.461818 285.408 
L 203.694545 285.408 
L 219.927273 285.408 
L 236.16 285.408 
L 252.392727 285.408 
L 268.625455 283.049988 
L 284.858182 284.733342 
L 301.090909 285.408 
L 317.323636 285.408 
L 333.556364 285.408 
L 349.789091 285.408 
L 366.021818 285.408 
L 382.254545 285.408 
L 398.487273 285.408 
" style="fill:none;stroke:#0e4db3;stroke-linecap:square;stroke-width:3;"/>
   </g>
   <g id="line2d_41">
    <path clip-path="url(#p2a1a5b1e15)" d="M 73.832727 285.408 
L 90.065455 285.408 
L 106.298182 285.408 
L 122.530909 285.408 
L 138.763636 285.408 
L 154.996364 285.408 
L 171.229091 285.408 
L 187.461818 285.408 
L 203.694545 285.408 
L 219.927273 285.408 
L 236.16 285.408 
L 252.392727 285.408 
L 268.625455 285.408 
L 284.858182 285.408 
L 301.090909 285.408 
L 317.323636 285.408 
L 333.556364 285.408 
L 349.789091 285.408 
L 366.021818 285.408 
L 382.254545 285.408 
L 398.487273 285.408 
" style="fill:none;stroke:#d44e4e;stroke-linecap:square;stroke-width:3;"/>
   </g>
   <g id="line2d_42">
    <path clip-path="url(#p2a1a5b1e15)" d="M 73.832727 222.081255 
L 90.065455 175.654698 
L 106.298182 186.761743 
L 122.530909 199.323096 
L 138.763636 201.716972 
L 154.996364 235.063066 
L 171.229091 246.115189 
L 187.461818 245.861102 
L 203.694545 211.843807 
L 219.927273 180.669367 
L 236.16 182.415557 
L 252.392727 179.600791 
L 268.625455 197.2205 
L 284.858182 216.723648 
L 301.090909 198.220329 
L 317.323636 189.902762 
L 333.556364 188.014337 
L 349.789091 195.018824 
L 366.021818 169.753126 
L 382.254545 192.151841 
L 398.487273 222.081255 
" style="fill:none;stroke:#0e4db3;stroke-linecap:square;stroke-width:3;"/>
   </g>
   <g id="line2d_43">
    <path clip-path="url(#p2a1a5b1e15)" d="M 73.832727 235.519274 
L 90.065455 197.930246 
L 106.298182 204.808702 
L 122.530909 216.513975 
L 138.763636 219.708364 
L 154.996364 246.624442 
L 171.229091 255.481535 
L 187.461818 251.926414 
L 203.694545 225.216121 
L 219.927273 202.495384 
L 236.16 203.796411 
L 252.392727 201.535708 
L 268.625455 215.199661 
L 284.858182 230.97294 
L 301.090909 215.961003 
L 317.323636 209.372835 
L 333.556364 208.07022 
L 349.789091 212.078938 
L 366.021818 192.918884 
L 382.254545 210.840493 
L 398.487273 235.519274 
" style="fill:none;stroke:#d44e4e;stroke-linecap:square;stroke-width:3;"/>
   </g>
   <g id="line2d_44">
    <path clip-path="url(#p2a1a5b1e15)" d="M 73.832727 258.18922 
L 90.065455 236.532231 
L 106.298182 243.896182 
L 122.530909 243.305986 
L 138.763636 248.380247 
L 154.996364 250.835457 
L 171.229091 256.860531 
L 187.461818 262.879196 
L 203.694545 260.228728 
L 219.927273 249.07933 
L 236.16 249.964477 
L 252.392727 249.660537 
L 268.625455 253.446127 
L 284.858182 243.495773 
L 301.090909 251.494742 
L 317.323636 262.900758 
L 333.556364 262.996076 
L 349.789091 257.140279 
L 366.021818 253.098376 
L 382.254545 252.536186 
L 398.487273 258.18922 
" style="fill:none;stroke:#0e4db3;stroke-linecap:square;stroke-width:3;"/>
   </g>
   <g id="line2d_45">
    <path clip-path="url(#p2a1a5b1e15)" d="M 73.832727 265.103426 
L 90.065455 244.228835 
L 106.298182 250.29037 
L 122.530909 252.395546 
L 138.763636 257.022596 
L 154.996364 259.284683 
L 171.229091 263.291441 
L 187.461818 268.52358 
L 203.694545 265.816776 
L 219.927273 257.611731 
L 236.16 258.265346 
L 252.392727 258.027583 
L 268.625455 260.777606 
L 284.858182 252.829429 
L 301.090909 259.538596 
L 317.323636 268.012182 
L 333.556364 268.318626 
L 349.789091 263.684202 
L 366.021818 260.229268 
L 382.254545 260.009332 
L 398.487273 265.103426 
" style="fill:none;stroke:#d44e4e;stroke-linecap:square;stroke-width:3;"/>
   </g>
   <g id="line2d_46">
    <path clip-path="url(#p2a1a5b1e15)" d="M 73.832727 254.709115 
L 90.065455 240.045206 
L 106.298182 221.117342 
L 122.530909 214.24272 
L 138.763636 204.515722 
L 154.996364 200.664734 
L 171.229091 210.71598 
L 187.461818 224.343658 
L 203.694545 226.937896 
L 219.927273 210.028776 
L 236.16 209.926911 
L 252.392727 217.966193 
L 268.625455 214.120136 
L 284.858182 227.297124 
L 301.090909 232.698319 
L 317.323636 266.150712 
L 333.556364 264.497443 
L 349.789091 265.934093 
L 366.021818 250.975462 
L 382.254545 254.86632 
L 398.487273 254.709115 
" style="fill:none;stroke:#0e4db3;stroke-linecap:square;stroke-width:3;"/>
   </g>
   <g id="line2d_47">
    <path clip-path="url(#p2a1a5b1e15)" d="M 73.832727 260.560597 
L 90.065455 249.110388 
L 106.298182 224.749464 
L 122.530909 226.409067 
L 138.763636 221.491277 
L 154.996364 218.28226 
L 171.229091 226.056129 
L 187.461818 234.689345 
L 203.694545 238.107582 
L 219.927273 225.215203 
L 236.16 225.210501 
L 252.392727 231.124268 
L 268.625455 227.903342 
L 284.858182 237.778823 
L 301.090909 241.500917 
L 317.323636 270.549739 
L 333.556364 268.749445 
L 349.789091 268.340421 
L 366.021818 255.395382 
L 382.254545 259.660851 
L 398.487273 260.560597 
" style="fill:none;stroke:#d44e4e;stroke-linecap:square;stroke-width:3;"/>
   </g>
   <g id="line2d_48">
    <path clip-path="url(#p2a1a5b1e15)" d="M 73.832727 224.965384 
L 90.065455 224.505885 
L 106.298182 224.32789 
L 122.530909 230.209234 
L 138.763636 224.455027 
L 154.996364 238.012481 
L 171.229091 239.310214 
L 187.461818 239.577296 
L 203.694545 238.668434 
L 219.927273 238.155323 
L 236.16 237.739847 
L 252.392727 231.003638 
L 268.625455 227.528595 
L 284.858182 232.999121 
L 301.090909 224.143308 
L 317.323636 224.358459 
L 333.556364 224.399225 
L 349.789091 225.82861 
L 366.021818 220.07101 
L 382.254545 224.577312 
L 398.487273 224.965384 
" style="fill:none;stroke:#0e4db3;stroke-linecap:square;stroke-width:3;"/>
   </g>
   <g id="line2d_49">
    <path clip-path="url(#p2a1a5b1e15)" d="M 73.832727 233.967804 
L 90.065455 230.503932 
L 106.298182 230.288328 
L 122.530909 232.445727 
L 138.763636 233.889287 
L 154.996364 244.385331 
L 171.229091 245.158794 
L 187.461818 245.366606 
L 203.694545 245.260389 
L 219.927273 244.912268 
L 236.16 244.960354 
L 252.392727 238.205046 
L 268.625455 235.924319 
L 284.858182 239.909162 
L 301.090909 233.212919 
L 317.323636 233.231627 
L 333.556364 233.239226 
L 349.789091 234.74613 
L 366.021818 229.474242 
L 382.254545 233.368143 
L 398.487273 233.967804 
" style="fill:none;stroke:#d44e4e;stroke-linecap:square;stroke-width:3;"/>
   </g>
   <g id="line2d_50">
    <path clip-path="url(#p2a1a5b1e15)" d="M 73.832727 285.408 
L 90.065455 285.408 
L 106.298182 285.408 
L 122.530909 285.408 
L 138.763636 285.408 
L 154.996364 285.408 
L 171.229091 285.408 
L 187.461818 285.408 
L 203.694545 285.408 
L 219.927273 285.408 
L 236.16 285.408 
L 252.392727 285.408 
L 268.625455 285.408 
L 284.858182 285.408 
L 301.090909 285.408 
L 317.323636 285.408 
L 333.556364 285.408 
L 349.789091 285.408 
L 366.021818 285.408 
L 382.254545 285.408 
L 398.487273 285.408 
" style="fill:none;stroke:#0e4db3;stroke-linecap:square;stroke-width:3;"/>
   </g>
   <g id="line2d_51">
    <path clip-path="url(#p2a1a5b1e15)" d="M 73.832727 285.408 
L 90.065455 285.408 
L 106.298182 285.408 
L 122.530909 285.408 
L 138.763636 285.408 
L 154.996364 285.408 
L 171.229091 285.408 
L 187.461818 285.408 
L 203.694545 285.408 
L 219.927273 285.408 
L 236.16 285.408 
L 252.392727 285.408 
L 268.625455 285.408 
L 284.858182 285.408 
L 301.090909 285.408 
L 317.323636 285.408 
L 333.556364 285.408 
L 349.789091 285.408 
L 366.021818 285.408 
L 382.254545 285.408 
L 398.487273 285.408 
" style="fill:none;stroke:#d44e4e;stroke-linecap:square;stroke-width:3;"/>
   </g>
   <g id="line2d_52">
    <path clip-path="url(#p2a1a5b1e15)" d="M 73.832727 205.079115 
L 90.065455 131.682056 
L 106.298182 133.693982 
L 122.530909 127.82747 
L 138.763636 99.981564 
L 154.996364 121.224253 
L 171.229091 169.064297 
L 187.461818 241.268987 
L 203.694545 207.024024 
L 219.927273 176.923854 
L 236.16 172.556939 
L 252.392727 141.519125 
L 268.625455 116.73133 
L 284.858182 102.052568 
L 301.090909 126.705473 
L 317.323636 176.138283 
L 333.556364 256.93438 
L 349.789091 285.408 
L 366.021818 261.192876 
L 382.254545 200.807558 
L 398.487273 205.079115 
" style="fill:none;stroke:#0e4db3;stroke-linecap:square;stroke-width:3;"/>
   </g>
   <g id="line2d_53">
    <path clip-path="url(#p2a1a5b1e15)" d="M 73.832727 285.408 
L 90.065455 224.658311 
L 106.298182 230.206883 
L 122.530909 211.004475 
L 138.763636 257.531027 
L 154.996364 279.743995 
L 171.229091 285.408 
L 187.461818 285.408 
L 203.694545 285.408 
L 219.927273 285.408 
L 236.16 283.643937 
L 252.392727 258.025123 
L 268.625455 242.237428 
L 284.858182 245.434402 
L 301.090909 260.39046 
L 317.323636 285.408 
L 333.556364 285.408 
L 349.789091 285.408 
L 366.021818 285.408 
L 382.254545 285.408 
L 398.487273 285.408 
" style="fill:none;stroke:#d44e4e;stroke-linecap:square;stroke-width:3;"/>
   </g>
   <g id="line2d_54">
    <path clip-path="url(#p2a1a5b1e15)" d="M 73.832727 285.408 
L 90.065455 285.408 
L 106.298182 285.408 
L 122.530909 285.408 
L 138.763636 285.408 
L 154.996364 285.408 
L 171.229091 285.408 
L 187.461818 285.408 
L 203.694545 285.408 
L 219.927273 285.408 
L 236.16 285.408 
L 252.392727 285.408 
L 268.625455 285.408 
L 284.858182 285.408 
L 301.090909 285.408 
L 317.323636 285.408 
L 333.556364 285.408 
L 349.789091 285.408 
L 366.021818 285.408 
L 382.254545 285.408 
L 398.487273 285.408 
" style="fill:none;stroke:#0e4db3;stroke-linecap:square;stroke-width:3;"/>
   </g>
   <g id="line2d_55">
    <path clip-path="url(#p2a1a5b1e15)" d="M 73.832727 285.408 
L 90.065455 285.408 
L 106.298182 285.408 
L 122.530909 285.408 
L 138.763636 285.408 
L 154.996364 285.408 
L 171.229091 285.408 
L 187.461818 285.408 
L 203.694545 285.408 
L 219.927273 285.408 
L 236.16 285.408 
L 252.392727 285.408 
L 268.625455 285.408 
L 284.858182 285.408 
L 301.090909 285.408 
L 317.323636 285.408 
L 333.556364 285.408 
L 349.789091 285.408 
L 366.021818 285.408 
L 382.254545 285.408 
L 398.487273 285.408 
" style="fill:none;stroke:#d44e4e;stroke-linecap:square;stroke-width:3;"/>
   </g>
   <g id="line2d_56">
    <path clip-path="url(#p2a1a5b1e15)" d="M 73.832727 285.408 
L 90.065455 285.408 
L 106.298182 285.408 
L 122.530909 285.408 
L 138.763636 285.408 
L 154.996364 285.408 
L 171.229091 285.408 
L 187.461818 285.408 
L 203.694545 285.408 
L 219.927273 285.408 
L 236.16 285.408 
L 252.392727 285.408 
L 268.625455 285.408 
L 284.858182 285.408 
L 301.090909 285.408 
L 317.323636 285.408 
L 333.556364 285.408 
L 349.789091 285.408 
L 366.021818 285.408 
L 382.254545 285.408 
L 398.487273 285.408 
" style="fill:none;stroke:#0e4db3;stroke-linecap:square;stroke-width:3;"/>
   </g>
   <g id="line2d_57">
    <path clip-path="url(#p2a1a5b1e15)" d="M 73.832727 285.408 
L 90.065455 285.408 
L 106.298182 285.408 
L 122.530909 285.408 
L 138.763636 285.408 
L 154.996364 285.408 
L 171.229091 285.408 
L 187.461818 285.408 
L 203.694545 285.408 
L 219.927273 285.408 
L 236.16 285.408 
L 252.392727 285.408 
L 268.625455 285.408 
L 284.858182 285.408 
L 301.090909 285.408 
L 317.323636 285.408 
L 333.556364 285.408 
L 349.789091 285.408 
L 366.021818 285.408 
L 382.254545 285.408 
L 398.487273 285.408 
" style="fill:none;stroke:#d44e4e;stroke-linecap:square;stroke-width:3;"/>
   </g>
   <g id="line2d_58">
    <path clip-path="url(#p2a1a5b1e15)" d="M 73.832727 11.24556 
L 90.065455 95.933904 
L 106.298182 177.517356 
L 122.530909 189.474601 
L 138.763636 184.8328 
L 154.996364 187.743638 
L 171.229091 182.284954 
L 187.461818 196.493386 
L 203.694545 210.09075 
L 219.927273 158.693423 
L 236.16 145.733149 
L 252.392727 130.416497 
L 268.625455 167.650351 
L 284.858182 127.950127 
L 301.090909 70.776994 
L 317.323636 -0.929019 
L 317.34395 -1 
M 390.119342 -1 
L 398.487273 11.24556 
" style="fill:none;stroke:#0e4db3;stroke-linecap:square;stroke-width:3;"/>
   </g>
   <g id="line2d_59">
    <path clip-path="url(#p2a1a5b1e15)" d="M 73.832727 285.408 
L 90.065455 285.408 
L 106.298182 285.408 
L 122.530909 285.408 
L 138.763636 285.408 
L 154.996364 285.408 
L 171.229091 285.408 
L 187.461818 285.408 
L 203.694545 285.408 
L 219.927273 285.408 
L 236.16 285.408 
L 252.392727 285.408 
L 268.625455 285.408 
L 284.858182 285.408 
L 301.090909 285.408 
L 317.323636 210.391173 
L 333.556364 246.569387 
L 349.789091 213.074753 
L 366.021818 206.505597 
L 382.254545 237.467009 
L 398.487273 285.408 
" style="fill:none;stroke:#d44e4e;stroke-linecap:square;stroke-width:3;"/>
   </g>
   <g id="line2d_60">
    <path clip-path="url(#p2a1a5b1e15)" d="M 73.832727 285.408 
L 90.065455 285.408 
L 106.298182 285.408 
L 122.530909 285.408 
L 138.763636 285.408 
L 154.996364 285.408 
L 171.229091 285.408 
L 187.461818 285.408 
L 203.694545 285.408 
L 219.927273 285.408 
L 236.16 285.408 
L 252.392727 285.408 
L 268.625455 285.408 
L 284.858182 285.408 
L 301.090909 285.408 
L 317.323636 285.408 
L 333.556364 285.408 
L 349.789091 285.408 
L 366.021818 285.408 
L 382.254545 285.408 
L 398.487273 285.408 
" style="fill:none;stroke:#0e4db3;stroke-linecap:square;stroke-width:3;"/>
   </g>
   <g id="line2d_61">
    <path clip-path="url(#p2a1a5b1e15)" d="M 73.832727 285.408 
L 90.065455 285.408 
L 106.298182 285.408 
L 122.530909 285.408 
L 138.763636 285.408 
L 154.996364 285.408 
L 171.229091 285.408 
L 187.461818 285.408 
L 203.694545 285.408 
L 219.927273 285.408 
L 236.16 285.408 
L 252.392727 285.408 
L 268.625455 285.408 
L 284.858182 285.408 
L 301.090909 285.408 
L 317.323636 285.408 
L 333.556364 285.408 
L 349.789091 285.408 
L 366.021818 285.408 
L 382.254545 285.408 
L 398.487273 285.408 
" style="fill:none;stroke:#d44e4e;stroke-linecap:square;stroke-width:3;"/>
   </g>
   <g id="line2d_62">
    <path clip-path="url(#p2a1a5b1e15)" d="M 73.832727 285.408 
L 90.065455 285.408 
L 106.298182 285.408 
L 122.530909 285.408 
L 138.763636 285.408 
L 154.996364 285.408 
L 171.229091 285.408 
L 187.461818 285.408 
L 203.694545 285.408 
L 219.927273 285.408 
L 236.16 285.408 
L 252.392727 285.408 
L 268.625455 285.408 
L 284.858182 285.408 
L 301.090909 285.408 
L 317.323636 285.408 
L 333.556364 285.408 
L 349.789091 285.408 
L 366.021818 285.408 
L 382.254545 285.408 
L 398.487273 285.408 
" style="fill:none;stroke:#0e4db3;stroke-linecap:square;stroke-width:3;"/>
   </g>
   <g id="line2d_63">
    <path clip-path="url(#p2a1a5b1e15)" d="M 73.832727 285.408 
L 90.065455 285.408 
L 106.298182 285.408 
L 122.530909 285.408 
L 138.763636 285.408 
L 154.996364 285.408 
L 171.229091 285.408 
L 187.461818 285.408 
L 203.694545 285.408 
L 219.927273 285.408 
L 236.16 285.408 
L 252.392727 285.408 
L 268.625455 285.408 
L 284.858182 285.408 
L 301.090909 285.408 
L 317.323636 285.408 
L 333.556364 285.408 
L 349.789091 285.408 
L 366.021818 285.408 
L 382.254545 285.408 
L 398.487273 285.408 
" style="fill:none;stroke:#d44e4e;stroke-linecap:square;stroke-width:3;"/>
   </g>
   <g id="line2d_64">
    <path clip-path="url(#p2a1a5b1e15)" d="M 73.832727 250.845751 
L 90.065455 250.964067 
L 106.298182 257.773536 
L 122.530909 266.963063 
L 138.763636 266.864855 
L 154.996364 268.431162 
L 171.229091 257.201137 
L 187.461818 230.518596 
L 203.694545 174.814839 
L 219.927273 135.275831 
L 236.16 184.697897 
L 252.392727 112.180918 
L 268.625455 121.368013 
L 284.858182 124.640437 
L 301.090909 125.344104 
L 317.323636 148.745581 
L 333.556364 163.47213 
L 349.789091 189.753146 
L 366.021818 203.479972 
L 382.254545 227.009777 
L 398.487273 250.845751 
" style="fill:none;stroke:#0e4db3;stroke-linecap:square;stroke-width:3;"/>
   </g>
   <g id="line2d_65">
    <path clip-path="url(#p2a1a5b1e15)" d="M 73.832727 283.725875 
L 90.065455 272.978173 
L 106.298182 282.877012 
L 122.530909 277.484263 
L 138.763636 276.954823 
L 154.996364 277.705473 
L 171.229091 283.833449 
L 187.461818 284.195279 
L 203.694545 283.997451 
L 219.927273 236.142692 
L 236.16 283.099438 
L 252.392727 215.719583 
L 268.625455 229.264854 
L 284.858182 244.795866 
L 301.090909 252.777759 
L 317.323636 243.283829 
L 333.556364 256.356991 
L 349.789091 246.937804 
L 366.021818 256.900918 
L 382.254545 263.001062 
L 398.487273 283.725875 
" style="fill:none;stroke:#d44e4e;stroke-linecap:square;stroke-width:3;"/>
   </g>
   <g id="line2d_66">
    <path clip-path="url(#p2a1a5b1e15)" d="M 73.832727 285.408 
L 90.065455 285.408 
L 106.298182 285.408 
L 122.530909 285.408 
L 138.763636 285.408 
L 154.996364 285.408 
L 171.229091 285.408 
L 187.461818 285.408 
L 203.694545 285.408 
L 219.927273 285.408 
L 236.16 285.408 
L 252.392727 285.408 
L 268.625455 285.408 
L 284.858182 285.408 
L 301.090909 285.408 
L 317.323636 285.408 
L 333.556364 285.408 
L 349.789091 285.408 
L 366.021818 285.408 
L 382.254545 285.408 
L 398.487273 285.408 
" style="fill:none;stroke:#0e4db3;stroke-linecap:square;stroke-width:3;"/>
   </g>
   <g id="line2d_67">
    <path clip-path="url(#p2a1a5b1e15)" d="M 73.832727 285.408 
L 90.065455 285.408 
L 106.298182 285.408 
L 122.530909 285.408 
L 138.763636 285.408 
L 154.996364 285.408 
L 171.229091 285.408 
L 187.461818 285.408 
L 203.694545 285.408 
L 219.927273 285.408 
L 236.16 285.408 
L 252.392727 285.408 
L 268.625455 285.408 
L 284.858182 285.408 
L 301.090909 285.408 
L 317.323636 285.408 
L 333.556364 285.408 
L 349.789091 285.408 
L 366.021818 285.408 
L 382.254545 285.408 
L 398.487273 285.408 
" style="fill:none;stroke:#d44e4e;stroke-linecap:square;stroke-width:3;"/>
   </g>
   <g id="line2d_68">
    <path clip-path="url(#p2a1a5b1e15)" d="M 73.832727 285.408 
L 90.065455 285.408 
L 106.298182 285.408 
L 122.530909 285.408 
L 138.763636 285.408 
L 154.996364 285.408 
L 171.229091 285.408 
L 187.461818 285.408 
L 203.694545 285.408 
L 219.927273 285.408 
L 236.16 285.408 
L 252.392727 285.408 
L 268.625455 285.408 
L 284.858182 285.408 
L 301.090909 285.408 
L 317.323636 285.408 
L 333.556364 285.408 
L 349.789091 285.408 
L 366.021818 285.408 
L 382.254545 285.408 
L 398.487273 285.408 
" style="fill:none;stroke:#0e4db3;stroke-linecap:square;stroke-width:3;"/>
   </g>
   <g id="line2d_69">
    <path clip-path="url(#p2a1a5b1e15)" d="M 73.832727 285.408 
L 90.065455 285.408 
L 106.298182 285.408 
L 122.530909 285.408 
L 138.763636 285.408 
L 154.996364 285.408 
L 171.229091 285.408 
L 187.461818 285.408 
L 203.694545 285.408 
L 219.927273 285.408 
L 236.16 285.408 
L 252.392727 285.408 
L 268.625455 285.408 
L 284.858182 285.408 
L 301.090909 285.408 
L 317.323636 285.408 
L 333.556364 285.408 
L 349.789091 285.408 
L 366.021818 285.408 
L 382.254545 285.408 
L 398.487273 285.408 
" style="fill:none;stroke:#d44e4e;stroke-linecap:square;stroke-width:3;"/>
   </g>
   <g id="line2d_70">
    <path clip-path="url(#p2a1a5b1e15)" d="M 73.832727 285.408 
L 90.065455 285.408 
L 106.298182 285.408 
L 122.530909 285.408 
L 138.763636 285.408 
L 154.996364 285.408 
L 171.229091 285.408 
L 187.461818 285.408 
L 203.694545 285.408 
L 219.927273 285.408 
L 236.16 285.408 
L 252.392727 285.408 
L 268.625455 285.408 
L 284.858182 285.408 
L 301.090909 285.408 
L 317.323636 285.408 
L 333.556364 285.408 
L 349.789091 285.408 
L 366.021818 285.408 
L 382.254545 285.408 
L 398.487273 285.408 
" style="fill:none;stroke:#0e4db3;stroke-linecap:square;stroke-width:3;"/>
   </g>
   <g id="line2d_71">
    <path clip-path="url(#p2a1a5b1e15)" d="M 73.832727 285.408 
L 90.065455 285.408 
L 106.298182 285.408 
L 122.530909 285.408 
L 138.763636 285.408 
L 154.996364 285.408 
L 171.229091 285.408 
L 187.461818 285.408 
L 203.694545 285.408 
L 219.927273 285.408 
L 236.16 285.408 
L 252.392727 285.408 
L 268.625455 285.408 
L 284.858182 285.408 
L 301.090909 285.408 
L 317.323636 285.408 
L 333.556364 285.408 
L 349.789091 285.408 
L 366.021818 285.408 
L 382.254545 285.408 
L 398.487273 285.408 
" style="fill:none;stroke:#d44e4e;stroke-linecap:square;stroke-width:3;"/>
   </g>
   <g id="line2d_72">
    <path clip-path="url(#p2a1a5b1e15)" d="M 73.832727 285.408 
L 90.065455 285.408 
L 106.298182 285.408 
L 122.530909 285.408 
L 138.763636 285.408 
L 154.996364 285.408 
L 171.229091 285.408 
L 187.461818 285.408 
L 203.694545 285.408 
L 219.927273 285.408 
L 236.16 285.408 
L 252.392727 285.408 
L 268.625455 285.408 
L 284.858182 285.408 
L 301.090909 285.408 
L 317.323636 285.408 
L 333.556364 285.408 
L 349.789091 285.408 
L 366.021818 285.408 
L 382.254545 285.408 
L 398.487273 285.408 
" style="fill:none;stroke:#0e4db3;stroke-linecap:square;stroke-width:3;"/>
   </g>
   <g id="line2d_73">
    <path clip-path="url(#p2a1a5b1e15)" d="M 73.832727 285.408 
L 90.065455 285.408 
L 106.298182 285.408 
L 122.530909 285.408 
L 138.763636 285.408 
L 154.996364 285.408 
L 171.229091 285.408 
L 187.461818 285.408 
L 203.694545 285.408 
L 219.927273 285.408 
L 236.16 285.408 
L 252.392727 285.408 
L 268.625455 285.408 
L 284.858182 285.408 
L 301.090909 285.408 
L 317.323636 285.408 
L 333.556364 285.408 
L 349.789091 285.408 
L 366.021818 285.408 
L 382.254545 285.408 
L 398.487273 285.408 
" style="fill:none;stroke:#d44e4e;stroke-linecap:square;stroke-width:3;"/>
   </g>
   <g id="line2d_74">
    <path clip-path="url(#p2a1a5b1e15)" d="M 73.832727 185.7299 
L 90.065455 155.590379 
L 106.298182 103.000658 
L 122.530909 111.151197 
L 138.763636 63.648 
L 154.996364 67.032251 
L 171.229091 100.171835 
L 187.461818 168.647928 
L 203.694545 136.481406 
L 219.927273 135.930469 
L 236.16 172.987029 
L 252.392727 150.795122 
L 268.625455 159.974452 
L 284.858182 189.757407 
L 301.090909 192.312591 
L 317.323636 226.381098 
L 333.556364 212.425182 
L 349.789091 201.614548 
L 366.021818 180.130873 
L 382.254545 179.995995 
L 398.487273 185.7299 
" style="fill:none;stroke:#0e4db3;stroke-linecap:square;stroke-width:3;"/>
   </g>
   <g id="line2d_75">
    <path clip-path="url(#p2a1a5b1e15)" d="M 73.832727 285.408 
L 90.065455 285.408 
L 106.298182 285.408 
L 122.530909 285.408 
L 138.763636 285.408 
L 154.996364 285.408 
L 171.229091 285.408 
L 187.461818 285.408 
L 203.694545 285.408 
L 219.927273 285.408 
L 236.16 285.408 
L 252.392727 285.408 
L 268.625455 285.408 
L 284.858182 285.408 
L 301.090909 285.408 
L 317.323636 285.408 
L 333.556364 285.408 
L 349.789091 285.408 
L 366.021818 285.408 
L 382.254545 285.408 
L 398.487273 285.408 
" style="fill:none;stroke:#d44e4e;stroke-linecap:square;stroke-width:3;"/>
   </g>
   <g id="patch_3">
    <path d="M 57.6 307.584 
L 57.6 41.472 
" style="fill:none;stroke:#000000;stroke-linecap:square;stroke-linejoin:miter;stroke-width:2.5;"/>
   </g>
   <g id="patch_4">
    <path d="M 414.72 307.584 
L 414.72 41.472 
" style="fill:none;stroke:#000000;stroke-linecap:square;stroke-linejoin:miter;stroke-width:2.5;"/>
   </g>
   <g id="patch_5">
    <path d="M 57.6 307.584 
L 414.72 307.584 
" style="fill:none;stroke:#000000;stroke-linecap:square;stroke-linejoin:miter;stroke-width:2.5;"/>
   </g>
   <g id="patch_6">
    <path d="M 57.6 41.472 
L 414.72 41.472 
" style="fill:none;stroke:#000000;stroke-linecap:square;stroke-linejoin:miter;stroke-width:2.5;"/>
   </g>
  </g>
 </g>
 <defs>
  <clipPath id="p2a1a5b1e15">
   <rect height="266.112" width="357.12" x="57.6" y="41.472"/>
  </clipPath>
 </defs>
</svg>
