<?xml version="1.0" encoding="utf-8" standalone="no"?>
<!DOCTYPE svg PUBLIC "-//W3C//DTD SVG 1.1//EN"
  "http://www.w3.org/Graphics/SVG/1.1/DTD/svg11.dtd">
<!-- Created with matplotlib (https://matplotlib.org/) -->
<svg height="345.6pt" version="1.1" viewBox="0 0 460.8 345.6" width="460.8pt" xmlns="http://www.w3.org/2000/svg" xmlns:xlink="http://www.w3.org/1999/xlink">
 <defs>
  <style type="text/css">
*{stroke-linecap:butt;stroke-linejoin:round;}
  </style>
 </defs>
 <g id="figure_1">
  <g id="patch_1">
   <path d="M 0 345.6 
L 460.8 345.6 
L 460.8 0 
L 0 0 
z
" style="fill:#ffffff;"/>
  </g>
  <g id="axes_1">
   <g id="patch_2">
    <path d="M 57.6 307.584 
L 414.72 307.584 
L 414.72 41.472 
L 57.6 41.472 
z
" style="fill:#ffffff;"/>
   </g>
   <g id="matplotlib.axis_1">
    <g id="xtick_1">
     <g id="line2d_1">
      <defs>
       <path d="M 0 0 
L 0 12 
" id="m06d9584db5" style="stroke:#000000;stroke-width:2.5;"/>
      </defs>
      <g>
       <use style="stroke:#000000;stroke-width:2.5;" x="73.832727" xlink:href="#m06d9584db5" y="307.584"/>
      </g>
     </g>
     <g id="text_1">
      <!-- 0 -->
      <defs>
       <path d="M 31.78125 66.40625 
Q 24.171875 66.40625 20.328125 58.90625 
Q 16.5 51.421875 16.5 36.375 
Q 16.5 21.390625 20.328125 13.890625 
Q 24.171875 6.390625 31.78125 6.390625 
Q 39.453125 6.390625 43.28125 13.890625 
Q 47.125 21.390625 47.125 36.375 
Q 47.125 51.421875 43.28125 58.90625 
Q 39.453125 66.40625 31.78125 66.40625 
z
M 31.78125 74.21875 
Q 44.046875 74.21875 50.515625 64.515625 
Q 56.984375 54.828125 56.984375 36.375 
Q 56.984375 17.96875 50.515625 8.265625 
Q 44.046875 -1.421875 31.78125 -1.421875 
Q 19.53125 -1.421875 13.0625 8.265625 
Q 6.59375 17.96875 6.59375 36.375 
Q 6.59375 54.828125 13.0625 64.515625 
Q 19.53125 74.21875 31.78125 74.21875 
z
" id="DejaVuSans-48"/>
      </defs>
      <g transform="translate(57.735602 361.532094)scale(0.506 -0.506)">
       <use xlink:href="#DejaVuSans-48"/>
      </g>
     </g>
    </g>
    <g id="xtick_2">
     <g id="line2d_2">
      <g>
       <use style="stroke:#000000;stroke-width:2.5;" x="254.196364" xlink:href="#m06d9584db5" y="307.584"/>
      </g>
     </g>
     <g id="text_2">
      <!-- 100 -->
      <defs>
       <path d="M 12.40625 8.296875 
L 28.515625 8.296875 
L 28.515625 63.921875 
L 10.984375 60.40625 
L 10.984375 69.390625 
L 28.421875 72.90625 
L 38.28125 72.90625 
L 38.28125 8.296875 
L 54.390625 8.296875 
L 54.390625 0 
L 12.40625 0 
z
" id="DejaVuSans-49"/>
      </defs>
      <g transform="translate(205.904989 361.532094)scale(0.506 -0.506)">
       <use xlink:href="#DejaVuSans-49"/>
       <use x="63.623047" xlink:href="#DejaVuSans-48"/>
       <use x="127.246094" xlink:href="#DejaVuSans-48"/>
      </g>
     </g>
    </g>
    <g id="text_3">
     <!-- Degrees -->
     <defs>
      <path d="M 19.671875 64.796875 
L 19.671875 8.109375 
L 31.59375 8.109375 
Q 46.6875 8.109375 53.6875 14.9375 
Q 60.6875 21.78125 60.6875 36.53125 
Q 60.6875 51.171875 53.6875 57.984375 
Q 46.6875 64.796875 31.59375 64.796875 
z
M 9.8125 72.90625 
L 30.078125 72.90625 
Q 51.265625 72.90625 61.171875 64.09375 
Q 71.09375 55.28125 71.09375 36.53125 
Q 71.09375 17.671875 61.125 8.828125 
Q 51.171875 0 30.078125 0 
L 9.8125 0 
z
" id="DejaVuSans-68"/>
      <path d="M 56.203125 29.59375 
L 56.203125 25.203125 
L 14.890625 25.203125 
Q 15.484375 15.921875 20.484375 11.0625 
Q 25.484375 6.203125 34.421875 6.203125 
Q 39.59375 6.203125 44.453125 7.46875 
Q 49.3125 8.734375 54.109375 11.28125 
L 54.109375 2.78125 
Q 49.265625 0.734375 44.1875 -0.34375 
Q 39.109375 -1.421875 33.890625 -1.421875 
Q 20.796875 -1.421875 13.15625 6.1875 
Q 5.515625 13.8125 5.515625 26.8125 
Q 5.515625 40.234375 12.765625 48.109375 
Q 20.015625 56 32.328125 56 
Q 43.359375 56 49.78125 48.890625 
Q 56.203125 41.796875 56.203125 29.59375 
z
M 47.21875 32.234375 
Q 47.125 39.59375 43.09375 43.984375 
Q 39.0625 48.390625 32.421875 48.390625 
Q 24.90625 48.390625 20.390625 44.140625 
Q 15.875 39.890625 15.1875 32.171875 
z
" id="DejaVuSans-101"/>
      <path d="M 45.40625 27.984375 
Q 45.40625 37.75 41.375 43.109375 
Q 37.359375 48.484375 30.078125 48.484375 
Q 22.859375 48.484375 18.828125 43.109375 
Q 14.796875 37.75 14.796875 27.984375 
Q 14.796875 18.265625 18.828125 12.890625 
Q 22.859375 7.515625 30.078125 7.515625 
Q 37.359375 7.515625 41.375 12.890625 
Q 45.40625 18.265625 45.40625 27.984375 
z
M 54.390625 6.78125 
Q 54.390625 -7.171875 48.1875 -13.984375 
Q 42 -20.796875 29.203125 -20.796875 
Q 24.46875 -20.796875 20.265625 -20.09375 
Q 16.0625 -19.390625 12.109375 -17.921875 
L 12.109375 -9.1875 
Q 16.0625 -11.328125 19.921875 -12.34375 
Q 23.78125 -13.375 27.78125 -13.375 
Q 36.625 -13.375 41.015625 -8.765625 
Q 45.40625 -4.15625 45.40625 5.171875 
L 45.40625 9.625 
Q 42.625 4.78125 38.28125 2.390625 
Q 33.9375 0 27.875 0 
Q 17.828125 0 11.671875 7.65625 
Q 5.515625 15.328125 5.515625 27.984375 
Q 5.515625 40.671875 11.671875 48.328125 
Q 17.828125 56 27.875 56 
Q 33.9375 56 38.28125 53.609375 
Q 42.625 51.21875 45.40625 46.390625 
L 45.40625 54.6875 
L 54.390625 54.6875 
z
" id="DejaVuSans-103"/>
      <path d="M 41.109375 46.296875 
Q 39.59375 47.171875 37.8125 47.578125 
Q 36.03125 48 33.890625 48 
Q 26.265625 48 22.1875 43.046875 
Q 18.109375 38.09375 18.109375 28.8125 
L 18.109375 0 
L 9.078125 0 
L 9.078125 54.6875 
L 18.109375 54.6875 
L 18.109375 46.1875 
Q 20.953125 51.171875 25.484375 53.578125 
Q 30.03125 56 36.53125 56 
Q 37.453125 56 38.578125 55.875 
Q 39.703125 55.765625 41.0625 55.515625 
z
" id="DejaVuSans-114"/>
      <path d="M 44.28125 53.078125 
L 44.28125 44.578125 
Q 40.484375 46.53125 36.375 47.5 
Q 32.28125 48.484375 27.875 48.484375 
Q 21.1875 48.484375 17.84375 46.4375 
Q 14.5 44.390625 14.5 40.28125 
Q 14.5 37.15625 16.890625 35.375 
Q 19.28125 33.59375 26.515625 31.984375 
L 29.59375 31.296875 
Q 39.15625 29.25 43.1875 25.515625 
Q 47.21875 21.78125 47.21875 15.09375 
Q 47.21875 7.46875 41.1875 3.015625 
Q 35.15625 -1.421875 24.609375 -1.421875 
Q 20.21875 -1.421875 15.453125 -0.5625 
Q 10.6875 0.296875 5.421875 2 
L 5.421875 11.28125 
Q 10.40625 8.6875 15.234375 7.390625 
Q 20.0625 6.109375 24.8125 6.109375 
Q 31.15625 6.109375 34.5625 8.28125 
Q 37.984375 10.453125 37.984375 14.40625 
Q 37.984375 18.0625 35.515625 20.015625 
Q 33.0625 21.96875 24.703125 23.78125 
L 21.578125 24.515625 
Q 13.234375 26.265625 9.515625 29.90625 
Q 5.8125 33.546875 5.8125 39.890625 
Q 5.8125 47.609375 11.28125 51.796875 
Q 16.75 56 26.8125 56 
Q 31.78125 56 36.171875 55.265625 
Q 40.578125 54.546875 44.28125 53.078125 
z
" id="DejaVuSans-115"/>
     </defs>
     <g transform="translate(120.723 417.998687)scale(0.552 -0.552)">
      <use xlink:href="#DejaVuSans-68"/>
      <use x="77.001953" xlink:href="#DejaVuSans-101"/>
      <use x="138.525391" xlink:href="#DejaVuSans-103"/>
      <use x="202.001953" xlink:href="#DejaVuSans-114"/>
      <use x="243.083984" xlink:href="#DejaVuSans-101"/>
      <use x="304.607422" xlink:href="#DejaVuSans-101"/>
      <use x="366.130859" xlink:href="#DejaVuSans-115"/>
     </g>
    </g>
   </g>
   <g id="matplotlib.axis_2">
    <g id="ytick_1">
     <g id="line2d_3">
      <defs>
       <path d="M 0 0 
L -12 0 
" id="med063cc772" style="stroke:#000000;stroke-width:2.5;"/>
      </defs>
      <g>
       <use style="stroke:#000000;stroke-width:2.5;" x="57.6" xlink:href="#med063cc772" y="285.408"/>
      </g>
     </g>
     <g id="text_4">
      <!-- 0.0 -->
      <defs>
       <path d="M 10.6875 12.40625 
L 21 12.40625 
L 21 0 
L 10.6875 0 
z
" id="DejaVuSans-46"/>
      </defs>
      <g transform="translate(-38.369812 304.632047)scale(0.506 -0.506)">
       <use xlink:href="#DejaVuSans-48"/>
       <use x="63.623047" xlink:href="#DejaVuSans-46"/>
       <use x="95.410156" xlink:href="#DejaVuSans-48"/>
      </g>
     </g>
    </g>
    <g id="ytick_2">
     <g id="line2d_4">
      <g>
       <use style="stroke:#000000;stroke-width:2.5;" x="57.6" xlink:href="#med063cc772" y="154.702078"/>
      </g>
     </g>
     <g id="text_5">
      <!-- 2.5 -->
      <defs>
       <path d="M 19.1875 8.296875 
L 53.609375 8.296875 
L 53.609375 0 
L 7.328125 0 
L 7.328125 8.296875 
Q 12.9375 14.109375 22.625 23.890625 
Q 32.328125 33.6875 34.8125 36.53125 
Q 39.546875 41.84375 41.421875 45.53125 
Q 43.3125 49.21875 43.3125 52.78125 
Q 43.3125 58.59375 39.234375 62.25 
Q 35.15625 65.921875 28.609375 65.921875 
Q 23.96875 65.921875 18.8125 64.3125 
Q 13.671875 62.703125 7.8125 59.421875 
L 7.8125 69.390625 
Q 13.765625 71.78125 18.9375 73 
Q 24.125 74.21875 28.421875 74.21875 
Q 39.75 74.21875 46.484375 68.546875 
Q 53.21875 62.890625 53.21875 53.421875 
Q 53.21875 48.921875 51.53125 44.890625 
Q 49.859375 40.875 45.40625 35.40625 
Q 44.1875 33.984375 37.640625 27.21875 
Q 31.109375 20.453125 19.1875 8.296875 
z
" id="DejaVuSans-50"/>
       <path d="M 10.796875 72.90625 
L 49.515625 72.90625 
L 49.515625 64.59375 
L 19.828125 64.59375 
L 19.828125 46.734375 
Q 21.96875 47.46875 24.109375 47.828125 
Q 26.265625 48.1875 28.421875 48.1875 
Q 40.625 48.1875 47.75 41.5 
Q 54.890625 34.8125 54.890625 23.390625 
Q 54.890625 11.625 47.5625 5.09375 
Q 40.234375 -1.421875 26.90625 -1.421875 
Q 22.3125 -1.421875 17.546875 -0.640625 
Q 12.796875 0.140625 7.71875 1.703125 
L 7.71875 11.625 
Q 12.109375 9.234375 16.796875 8.0625 
Q 21.484375 6.890625 26.703125 6.890625 
Q 35.15625 6.890625 40.078125 11.328125 
Q 45.015625 15.765625 45.015625 23.390625 
Q 45.015625 31 40.078125 35.4375 
Q 35.15625 39.890625 26.703125 39.890625 
Q 22.75 39.890625 18.8125 39.015625 
Q 14.890625 38.140625 10.796875 36.28125 
z
" id="DejaVuSans-53"/>
      </defs>
      <g transform="translate(-38.369812 173.926125)scale(0.506 -0.506)">
       <use xlink:href="#DejaVuSans-50"/>
       <use x="63.623047" xlink:href="#DejaVuSans-46"/>
       <use x="95.410156" xlink:href="#DejaVuSans-53"/>
      </g>
     </g>
    </g>
    <g id="text_6">
     <!-- Activation -->
     <defs>
      <path d="M 34.1875 63.1875 
L 20.796875 26.90625 
L 47.609375 26.90625 
z
M 28.609375 72.90625 
L 39.796875 72.90625 
L 67.578125 0 
L 57.328125 0 
L 50.6875 18.703125 
L 17.828125 18.703125 
L 11.1875 0 
L 0.78125 0 
z
" id="DejaVuSans-65"/>
      <path d="M 48.78125 52.59375 
L 48.78125 44.1875 
Q 44.96875 46.296875 41.140625 47.34375 
Q 37.3125 48.390625 33.40625 48.390625 
Q 24.65625 48.390625 19.8125 42.84375 
Q 14.984375 37.3125 14.984375 27.296875 
Q 14.984375 17.28125 19.8125 11.734375 
Q 24.65625 6.203125 33.40625 6.203125 
Q 37.3125 6.203125 41.140625 7.25 
Q 44.96875 8.296875 48.78125 10.40625 
L 48.78125 2.09375 
Q 45.015625 0.34375 40.984375 -0.53125 
Q 36.96875 -1.421875 32.421875 -1.421875 
Q 20.0625 -1.421875 12.78125 6.34375 
Q 5.515625 14.109375 5.515625 27.296875 
Q 5.515625 40.671875 12.859375 48.328125 
Q 20.21875 56 33.015625 56 
Q 37.15625 56 41.109375 55.140625 
Q 45.0625 54.296875 48.78125 52.59375 
z
" id="DejaVuSans-99"/>
      <path d="M 18.3125 70.21875 
L 18.3125 54.6875 
L 36.8125 54.6875 
L 36.8125 47.703125 
L 18.3125 47.703125 
L 18.3125 18.015625 
Q 18.3125 11.328125 20.140625 9.421875 
Q 21.96875 7.515625 27.59375 7.515625 
L 36.8125 7.515625 
L 36.8125 0 
L 27.59375 0 
Q 17.1875 0 13.234375 3.875 
Q 9.28125 7.765625 9.28125 18.015625 
L 9.28125 47.703125 
L 2.6875 47.703125 
L 2.6875 54.6875 
L 9.28125 54.6875 
L 9.28125 70.21875 
z
" id="DejaVuSans-116"/>
      <path d="M 9.421875 54.6875 
L 18.40625 54.6875 
L 18.40625 0 
L 9.421875 0 
z
M 9.421875 75.984375 
L 18.40625 75.984375 
L 18.40625 64.59375 
L 9.421875 64.59375 
z
" id="DejaVuSans-105"/>
      <path d="M 2.984375 54.6875 
L 12.5 54.6875 
L 29.59375 8.796875 
L 46.6875 54.6875 
L 56.203125 54.6875 
L 35.6875 0 
L 23.484375 0 
z
" id="DejaVuSans-118"/>
      <path d="M 34.28125 27.484375 
Q 23.390625 27.484375 19.1875 25 
Q 14.984375 22.515625 14.984375 16.5 
Q 14.984375 11.71875 18.140625 8.90625 
Q 21.296875 6.109375 26.703125 6.109375 
Q 34.1875 6.109375 38.703125 11.40625 
Q 43.21875 16.703125 43.21875 25.484375 
L 43.21875 27.484375 
z
M 52.203125 31.203125 
L 52.203125 0 
L 43.21875 0 
L 43.21875 8.296875 
Q 40.140625 3.328125 35.546875 0.953125 
Q 30.953125 -1.421875 24.3125 -1.421875 
Q 15.921875 -1.421875 10.953125 3.296875 
Q 6 8.015625 6 15.921875 
Q 6 25.140625 12.171875 29.828125 
Q 18.359375 34.515625 30.609375 34.515625 
L 43.21875 34.515625 
L 43.21875 35.40625 
Q 43.21875 41.609375 39.140625 45 
Q 35.0625 48.390625 27.6875 48.390625 
Q 23 48.390625 18.546875 47.265625 
Q 14.109375 46.140625 10.015625 43.890625 
L 10.015625 52.203125 
Q 14.9375 54.109375 19.578125 55.046875 
Q 24.21875 56 28.609375 56 
Q 40.484375 56 46.34375 49.84375 
Q 52.203125 43.703125 52.203125 31.203125 
z
" id="DejaVuSans-97"/>
      <path d="M 30.609375 48.390625 
Q 23.390625 48.390625 19.1875 42.75 
Q 14.984375 37.109375 14.984375 27.296875 
Q 14.984375 17.484375 19.15625 11.84375 
Q 23.34375 6.203125 30.609375 6.203125 
Q 37.796875 6.203125 41.984375 11.859375 
Q 46.1875 17.53125 46.1875 27.296875 
Q 46.1875 37.015625 41.984375 42.703125 
Q 37.796875 48.390625 30.609375 48.390625 
z
M 30.609375 56 
Q 42.328125 56 49.015625 48.375 
Q 55.71875 40.765625 55.71875 27.296875 
Q 55.71875 13.875 49.015625 6.21875 
Q 42.328125 -1.421875 30.609375 -1.421875 
Q 18.84375 -1.421875 12.171875 6.21875 
Q 5.515625 13.875 5.515625 27.296875 
Q 5.515625 40.765625 12.171875 48.375 
Q 18.84375 56 30.609375 56 
z
" id="DejaVuSans-111"/>
      <path d="M 54.890625 33.015625 
L 54.890625 0 
L 45.90625 0 
L 45.90625 32.71875 
Q 45.90625 40.484375 42.875 44.328125 
Q 39.84375 48.1875 33.796875 48.1875 
Q 26.515625 48.1875 22.3125 43.546875 
Q 18.109375 38.921875 18.109375 30.90625 
L 18.109375 0 
L 9.078125 0 
L 9.078125 54.6875 
L 18.109375 54.6875 
L 18.109375 46.1875 
Q 21.34375 51.125 25.703125 53.5625 
Q 30.078125 56 35.796875 56 
Q 45.21875 56 50.046875 50.171875 
Q 54.890625 44.34375 54.890625 33.015625 
z
" id="DejaVuSans-110"/>
     </defs>
     <g transform="translate(-53.849687 313.1835)rotate(-90)scale(0.552 -0.552)">
      <use xlink:href="#DejaVuSans-65"/>
      <use x="68.392578" xlink:href="#DejaVuSans-99"/>
      <use x="123.373047" xlink:href="#DejaVuSans-116"/>
      <use x="162.582031" xlink:href="#DejaVuSans-105"/>
      <use x="190.365234" xlink:href="#DejaVuSans-118"/>
      <use x="249.544922" xlink:href="#DejaVuSans-97"/>
      <use x="310.824219" xlink:href="#DejaVuSans-116"/>
      <use x="350.033203" xlink:href="#DejaVuSans-105"/>
      <use x="377.816406" xlink:href="#DejaVuSans-111"/>
      <use x="438.998047" xlink:href="#DejaVuSans-110"/>
     </g>
    </g>
   </g>
   <g id="line2d_5">
    <path clip-path="url(#p6abedd1011)" d="M 73.832727 272.103892 
L 90.065455 249.451519 
L 106.298182 241.598223 
L 122.530909 231.455926 
L 138.763636 219.591662 
L 154.996364 217.915999 
L 171.229091 220.355815 
L 187.461818 202.65013 
L 203.694545 196.765069 
L 219.927273 197.851495 
L 236.16 205.64291 
L 252.392727 205.388535 
L 268.625455 206.601058 
L 284.858182 235.923255 
L 301.090909 231.321902 
L 317.323636 254.104926 
L 333.556364 259.872083 
L 349.789091 265.88213 
L 366.021818 262.535975 
L 382.254545 266.760389 
L 398.487273 272.103892 
" style="fill:none;stroke:#0e4db3;stroke-linecap:square;stroke-width:3;"/>
   </g>
   <g id="line2d_6">
    <path clip-path="url(#p6abedd1011)" d="M 73.832727 274.822211 
L 90.065455 256.270427 
L 106.298182 249.301775 
L 122.530909 241.803844 
L 138.763636 232.64398 
L 154.996364 231.656945 
L 171.229091 232.770918 
L 187.461818 217.068011 
L 203.694545 214.148301 
L 219.927273 213.315571 
L 236.16 217.326487 
L 252.392727 219.890755 
L 268.625455 220.437312 
L 284.858182 245.763576 
L 301.090909 241.198328 
L 317.323636 259.593619 
L 333.556364 264.021574 
L 349.789091 268.036376 
L 366.021818 266.319123 
L 382.254545 269.479576 
L 398.487273 274.822211 
" style="fill:none;stroke:#d44e4e;stroke-linecap:square;stroke-width:3;"/>
   </g>
   <g id="line2d_7">
    <path clip-path="url(#p6abedd1011)" d="M 73.832727 194.968083 
L 90.065455 194.280802 
L 106.298182 200.37714 
L 122.530909 212.094933 
L 138.763636 214.182138 
L 154.996364 216.740896 
L 171.229091 216.57809 
L 187.461818 203.391672 
L 203.694545 199.023562 
L 219.927273 214.602124 
L 236.16 214.591765 
L 252.392727 212.259124 
L 268.625455 199.293525 
L 284.858182 208.665065 
L 301.090909 196.941512 
L 317.323636 201.021174 
L 333.556364 200.564397 
L 349.789091 185.478892 
L 366.021818 189.764501 
L 382.254545 185.708798 
L 398.487273 194.968083 
" style="fill:none;stroke:#0e4db3;stroke-linecap:square;stroke-width:3;"/>
   </g>
   <g id="line2d_8">
    <path clip-path="url(#p6abedd1011)" d="M 73.832727 213.818082 
L 90.065455 205.600785 
L 106.298182 215.777744 
L 122.530909 227.197566 
L 138.763636 228.571561 
L 154.996364 230.855901 
L 171.229091 230.853034 
L 187.461818 220.6758 
L 203.694545 217.583156 
L 219.927273 229.503925 
L 236.16 229.461419 
L 252.392727 226.581342 
L 268.625455 217.078974 
L 284.858182 223.032138 
L 301.090909 215.529389 
L 317.323636 218.625356 
L 333.556364 218.126927 
L 349.789091 206.449183 
L 366.021818 208.599598 
L 382.254545 206.397541 
L 398.487273 213.818082 
" style="fill:none;stroke:#d44e4e;stroke-linecap:square;stroke-width:3;"/>
   </g>
   <g id="line2d_9">
    <path clip-path="url(#p6abedd1011)" d="M 73.832727 193.736707 
L 90.065455 189.30831 
L 106.298182 189.273208 
L 122.530909 189.297515 
L 138.763636 179.605404 
L 154.996364 180.085298 
L 171.229091 179.2185 
L 187.461818 185.712506 
L 203.694545 177.859931 
L 219.927273 181.403524 
L 236.16 187.356408 
L 252.392727 187.459525 
L 268.625455 188.528531 
L 284.858182 195.007061 
L 301.090909 196.195097 
L 317.323636 196.709032 
L 333.556364 196.469933 
L 349.789091 197.222569 
L 366.021818 195.159304 
L 382.254545 194.07132 
L 398.487273 193.736707 
" style="fill:none;stroke:#0e4db3;stroke-linecap:square;stroke-width:3;"/>
   </g>
   <g id="line2d_10">
    <path clip-path="url(#p6abedd1011)" d="M 73.832727 209.781288 
L 90.065455 206.592763 
L 106.298182 206.325548 
L 122.530909 206.035785 
L 138.763636 200.009289 
L 154.996364 199.909955 
L 171.229091 198.478121 
L 187.461818 203.398185 
L 203.694545 196.382316 
L 219.927273 199.755238 
L 236.16 204.604357 
L 252.392727 204.49214 
L 268.625455 205.461057 
L 284.858182 208.915981 
L 301.090909 209.790793 
L 317.323636 210.974004 
L 333.556364 211.574435 
L 349.789091 212.144139 
L 366.021818 210.45034 
L 382.254545 209.787696 
L 398.487273 209.781288 
" style="fill:none;stroke:#d44e4e;stroke-linecap:square;stroke-width:3;"/>
   </g>
   <g id="line2d_11">
    <path clip-path="url(#p6abedd1011)" d="M 73.832727 181.64152 
L 90.065455 181.518116 
L 106.298182 181.9255 
L 122.530909 191.650749 
L 138.763636 192.64322 
L 154.996364 195.124956 
L 171.229091 192.956473 
L 187.461818 190.359877 
L 203.694545 183.511408 
L 219.927273 185.931218 
L 236.16 184.954118 
L 252.392727 180.601901 
L 268.625455 179.072646 
L 284.858182 179.156636 
L 301.090909 174.326128 
L 317.323636 173.577176 
L 333.556364 162.00571 
L 349.789091 172.641671 
L 366.021818 172.076753 
L 382.254545 177.166847 
L 398.487273 181.64152 
" style="fill:none;stroke:#0e4db3;stroke-linecap:square;stroke-width:3;"/>
   </g>
   <g id="line2d_12">
    <path clip-path="url(#p6abedd1011)" d="M 73.832727 203.499214 
L 90.065455 203.495163 
L 106.298182 203.775304 
L 122.530909 211.017644 
L 138.763636 211.49128 
L 154.996364 212.689811 
L 171.229091 211.9128 
L 187.461818 208.615672 
L 203.694545 205.283106 
L 219.927273 206.586081 
L 236.16 206.776884 
L 252.392727 202.033657 
L 268.625455 199.893264 
L 284.858182 199.29671 
L 301.090909 196.608919 
L 317.323636 196.607012 
L 333.556364 188.916457 
L 349.789091 195.990619 
L 366.021818 195.135489 
L 382.254545 199.618047 
L 398.487273 203.499214 
" style="fill:none;stroke:#d44e4e;stroke-linecap:square;stroke-width:3;"/>
   </g>
   <g id="line2d_13">
    <path clip-path="url(#p6abedd1011)" d="M 73.832727 252.115881 
L 90.065455 251.606897 
L 106.298182 252.064516 
L 122.530909 250.957189 
L 138.763636 238.159283 
L 154.996364 236.500535 
L 171.229091 226.158495 
L 187.461818 229.34444 
L 203.694545 213.670196 
L 219.927273 201.353611 
L 236.16 201.54773 
L 252.392727 188.383357 
L 268.625455 176.784306 
L 284.858182 182.979049 
L 301.090909 166.924969 
L 317.323636 176.25419 
L 333.556364 178.900204 
L 349.789091 221.976021 
L 366.021818 225.957582 
L 382.254545 225.517764 
L 398.487273 252.115881 
" style="fill:none;stroke:#0e4db3;stroke-linecap:square;stroke-width:3;"/>
   </g>
   <g id="line2d_14">
    <path clip-path="url(#p6abedd1011)" d="M 73.832727 254.96866 
L 90.065455 254.224862 
L 106.298182 254.626375 
L 122.530909 254.143269 
L 138.763636 244.121051 
L 154.996364 242.865602 
L 171.229091 233.81161 
L 187.461818 236.251196 
L 203.694545 223.952785 
L 219.927273 214.947712 
L 236.16 214.972605 
L 252.392727 203.976303 
L 268.625455 194.792625 
L 284.858182 200.784779 
L 301.090909 187.514048 
L 317.323636 194.079073 
L 333.556364 196.649592 
L 349.789091 230.315577 
L 366.021818 233.641003 
L 382.254545 233.607893 
L 398.487273 254.96866 
" style="fill:none;stroke:#d44e4e;stroke-linecap:square;stroke-width:3;"/>
   </g>
   <g id="line2d_15">
    <path clip-path="url(#p6abedd1011)" d="M 73.832727 285.408 
L 90.065455 285.408 
L 106.298182 285.408 
L 122.530909 285.408 
L 138.763636 285.408 
L 154.996364 285.408 
L 171.229091 285.408 
L 187.461818 285.408 
L 203.694545 285.408 
L 219.927273 285.408 
L 236.16 285.408 
L 252.392727 285.408 
L 268.625455 285.408 
L 284.858182 285.408 
L 301.090909 285.408 
L 317.323636 285.408 
L 333.556364 285.408 
L 349.789091 285.408 
L 366.021818 285.408 
L 382.254545 285.408 
L 398.487273 285.408 
" style="fill:none;stroke:#0e4db3;stroke-linecap:square;stroke-width:3;"/>
   </g>
   <g id="line2d_16">
    <path clip-path="url(#p6abedd1011)" d="M 73.832727 285.408 
L 90.065455 285.408 
L 106.298182 285.408 
L 122.530909 285.408 
L 138.763636 285.408 
L 154.996364 285.408 
L 171.229091 285.408 
L 187.461818 285.408 
L 203.694545 285.408 
L 219.927273 285.408 
L 236.16 285.408 
L 252.392727 285.408 
L 268.625455 285.408 
L 284.858182 285.408 
L 301.090909 285.408 
L 317.323636 285.408 
L 333.556364 285.408 
L 349.789091 285.408 
L 366.021818 285.408 
L 382.254545 285.408 
L 398.487273 285.408 
" style="fill:none;stroke:#d44e4e;stroke-linecap:square;stroke-width:3;"/>
   </g>
   <g id="line2d_17">
    <path clip-path="url(#p6abedd1011)" d="M 73.832727 285.408 
L 90.065455 284.940629 
L 106.298182 285.22182 
L 122.530909 285.05082 
L 138.763636 285.251322 
L 154.996364 285.408 
L 171.229091 285.408 
L 187.461818 285.408 
L 203.694545 285.408 
L 219.927273 285.408 
L 236.16 285.408 
L 252.392727 285.408 
L 268.625455 284.32114 
L 284.858182 285.408 
L 301.090909 285.408 
L 317.323636 285.408 
L 333.556364 285.408 
L 349.789091 285.408 
L 366.021818 285.408 
L 382.254545 285.408 
L 398.487273 285.408 
" style="fill:none;stroke:#0e4db3;stroke-linecap:square;stroke-width:3;"/>
   </g>
   <g id="line2d_18">
    <path clip-path="url(#p6abedd1011)" d="M 73.832727 285.408 
L 90.065455 285.408 
L 106.298182 285.408 
L 122.530909 285.408 
L 138.763636 285.408 
L 154.996364 285.408 
L 171.229091 285.408 
L 187.461818 285.408 
L 203.694545 285.408 
L 219.927273 285.408 
L 236.16 285.408 
L 252.392727 285.408 
L 268.625455 285.408 
L 284.858182 285.408 
L 301.090909 285.408 
L 317.323636 285.408 
L 333.556364 285.408 
L 349.789091 285.408 
L 366.021818 285.408 
L 382.254545 285.408 
L 398.487273 285.408 
" style="fill:none;stroke:#d44e4e;stroke-linecap:square;stroke-width:3;"/>
   </g>
   <g id="line2d_19">
    <path clip-path="url(#p6abedd1011)" d="M 73.832727 258.562644 
L 90.065455 250.094773 
L 106.298182 237.687804 
L 122.530909 236.492882 
L 138.763636 223.671579 
L 154.996364 221.070445 
L 171.229091 212.471541 
L 187.461818 213.547845 
L 203.694545 201.182416 
L 219.927273 201.811479 
L 236.16 231.165079 
L 252.392727 203.299349 
L 268.625455 217.086946 
L 284.858182 234.164104 
L 301.090909 230.820431 
L 317.323636 242.844648 
L 333.556364 244.328268 
L 349.789091 246.765844 
L 366.021818 247.591054 
L 382.254545 255.679762 
L 398.487273 258.562644 
" style="fill:none;stroke:#0e4db3;stroke-linecap:square;stroke-width:3;"/>
   </g>
   <g id="line2d_20">
    <path clip-path="url(#p6abedd1011)" d="M 73.832727 259.076393 
L 90.065455 252.596644 
L 106.298182 242.54452 
L 122.530909 240.558021 
L 138.763636 231.01498 
L 154.996364 229.280307 
L 171.229091 222.220867 
L 187.461818 222.520652 
L 203.694545 213.253065 
L 219.927273 213.294842 
L 236.16 236.965464 
L 252.392727 214.667428 
L 268.625455 225.569488 
L 284.858182 239.931174 
L 301.090909 236.632581 
L 317.323636 246.2147 
L 333.556364 247.267891 
L 349.789091 248.251355 
L 366.021818 249.200905 
L 382.254545 256.258155 
L 398.487273 259.076393 
" style="fill:none;stroke:#d44e4e;stroke-linecap:square;stroke-width:3;"/>
   </g>
   <g id="line2d_21">
    <path clip-path="url(#p6abedd1011)" d="M 73.832727 229.989602 
L 90.065455 226.152561 
L 106.298182 220.380172 
L 122.530909 218.048085 
L 138.763636 220.89202 
L 154.996364 221.047559 
L 171.229091 221.322689 
L 187.461818 227.34031 
L 203.694545 226.404412 
L 219.927273 229.43288 
L 236.16 232.095915 
L 252.392727 228.837329 
L 268.625455 228.144208 
L 284.858182 228.214611 
L 301.090909 228.346678 
L 317.323636 228.86924 
L 333.556364 216.727733 
L 349.789091 223.426658 
L 366.021818 221.333957 
L 382.254545 230.188688 
L 398.487273 229.989602 
" style="fill:none;stroke:#0e4db3;stroke-linecap:square;stroke-width:3;"/>
   </g>
   <g id="line2d_22">
    <path clip-path="url(#p6abedd1011)" d="M 73.832727 241.822355 
L 90.065455 238.764426 
L 106.298182 234.306306 
L 122.530909 231.639232 
L 138.763636 235.804254 
L 154.996364 236.015014 
L 171.229091 235.924243 
L 187.461818 239.62006 
L 203.694545 237.726308 
L 219.927273 242.143786 
L 236.16 240.112026 
L 252.392727 240.444003 
L 268.625455 240.339097 
L 284.858182 241.059276 
L 301.090909 241.37588 
L 317.323636 241.266147 
L 333.556364 231.840206 
L 349.789091 233.896186 
L 366.021818 233.453625 
L 382.254545 241.823844 
L 398.487273 241.822355 
" style="fill:none;stroke:#d44e4e;stroke-linecap:square;stroke-width:3;"/>
   </g>
   <g id="line2d_23">
    <path clip-path="url(#p6abedd1011)" d="M 73.832727 283.394228 
L 90.065455 262.160231 
L 106.298182 244.259435 
L 122.530909 245.401262 
L 138.763636 223.69012 
L 154.996364 222.055979 
L 171.229091 222.372 
L 187.461818 224.321976 
L 203.694545 218.875748 
L 219.927273 218.866106 
L 236.16 226.632853 
L 252.392727 221.515686 
L 268.625455 228.161011 
L 284.858182 244.110091 
L 301.090909 237.691238 
L 317.323636 261.053742 
L 333.556364 261.42418 
L 349.789091 267.170172 
L 366.021818 278.410557 
L 382.254545 268.101643 
L 398.487273 283.394228 
" style="fill:none;stroke:#0e4db3;stroke-linecap:square;stroke-width:3;"/>
   </g>
   <g id="line2d_24">
    <path clip-path="url(#p6abedd1011)" d="M 73.832727 284.885482 
L 90.065455 268.702448 
L 106.298182 254.275744 
L 122.530909 250.215862 
L 138.763636 238.588412 
L 154.996364 237.170939 
L 171.229091 237.219104 
L 187.461818 237.148526 
L 203.694545 233.390527 
L 219.927273 233.42905 
L 236.16 240.047005 
L 252.392727 235.369459 
L 268.625455 239.526585 
L 284.858182 254.496975 
L 301.090909 248.207229 
L 317.323636 266.103502 
L 333.556364 268.060251 
L 349.789091 273.175171 
L 366.021818 280.805141 
L 382.254545 273.198554 
L 398.487273 284.885482 
" style="fill:none;stroke:#d44e4e;stroke-linecap:square;stroke-width:3;"/>
   </g>
   <g id="line2d_25">
    <path clip-path="url(#p6abedd1011)" d="M 73.832727 202.577365 
L 90.065455 202.078057 
L 106.298182 196.991504 
L 122.530909 205.086618 
L 138.763636 209.928295 
L 154.996364 227.029935 
L 171.229091 230.040453 
L 187.461818 227.281306 
L 203.694545 200.802368 
L 219.927273 182.677531 
L 236.16 184.083581 
L 252.392727 182.346446 
L 268.625455 200.709066 
L 284.858182 211.969828 
L 301.090909 196.641359 
L 317.323636 191.144243 
L 333.556364 189.739054 
L 349.789091 187.153825 
L 366.021818 180.735178 
L 382.254545 186.722197 
L 398.487273 202.577365 
" style="fill:none;stroke:#0e4db3;stroke-linecap:square;stroke-width:3;"/>
   </g>
   <g id="line2d_26">
    <path clip-path="url(#p6abedd1011)" d="M 73.832727 214.388622 
L 90.065455 214.374991 
L 106.298182 210.262073 
L 122.530909 215.600833 
L 138.763636 221.064213 
L 154.996364 234.110379 
L 171.229091 236.378882 
L 187.461818 232.916903 
L 203.694545 211.982461 
L 219.927273 198.85572 
L 236.16 199.815987 
L 252.392727 198.472144 
L 268.625455 212.811576 
L 284.858182 221.894768 
L 301.090909 209.443834 
L 317.323636 205.243062 
L 333.556364 204.301193 
L 349.789091 202.333168 
L 366.021818 196.683379 
L 382.254545 201.779431 
L 398.487273 214.388622 
" style="fill:none;stroke:#d44e4e;stroke-linecap:square;stroke-width:3;"/>
   </g>
   <g id="line2d_27">
    <path clip-path="url(#p6abedd1011)" d="M 73.832727 199.925162 
L 90.065455 199.370609 
L 106.298182 208.308451 
L 122.530909 210.80628 
L 138.763636 228.554035 
L 154.996364 240.717823 
L 171.229091 228.293178 
L 187.461818 212.355678 
L 203.694545 205.776455 
L 219.927273 222.479748 
L 236.16 220.484013 
L 252.392727 220.551723 
L 268.625455 230.089441 
L 284.858182 237.24247 
L 301.090909 225.742379 
L 317.323636 223.641376 
L 333.556364 212.711101 
L 349.789091 212.258775 
L 366.021818 205.971166 
L 382.254545 200.27454 
L 398.487273 199.925162 
" style="fill:none;stroke:#0e4db3;stroke-linecap:square;stroke-width:3;"/>
   </g>
   <g id="line2d_28">
    <path clip-path="url(#p6abedd1011)" d="M 73.832727 213.377161 
L 90.065455 211.031811 
L 106.298182 220.16146 
L 122.530909 216.95145 
L 138.763636 236.127349 
L 154.996364 245.564645 
L 171.229091 235.273503 
L 187.461818 222.066169 
L 203.694545 216.991582 
L 219.927273 230.969807 
L 236.16 229.38024 
L 252.392727 229.081308 
L 268.625455 237.131406 
L 284.858182 242.189876 
L 301.090909 234.13918 
L 317.323636 231.225821 
L 333.556364 223.513752 
L 349.789091 221.628438 
L 366.021818 217.268007 
L 382.254545 210.995799 
L 398.487273 213.377161 
" style="fill:none;stroke:#d44e4e;stroke-linecap:square;stroke-width:3;"/>
   </g>
   <g id="line2d_29">
    <path clip-path="url(#p6abedd1011)" d="M 73.832727 159.180298 
L 90.065455 159.000414 
L 106.298182 156.170764 
L 122.530909 157.876587 
L 138.763636 157.700243 
L 154.996364 157.791213 
L 171.229091 156.078847 
L 187.461818 157.35597 
L 203.694545 151.487955 
L 219.927273 154.109887 
L 236.16 154.618387 
L 252.392727 154.508346 
L 268.625455 156.631337 
L 284.858182 158.254429 
L 301.090909 156.866329 
L 317.323636 157.545414 
L 333.556364 157.063863 
L 349.789091 158.486815 
L 366.021818 156.437243 
L 382.254545 157.711923 
L 398.487273 159.180298 
" style="fill:none;stroke:#0e4db3;stroke-linecap:square;stroke-width:3;"/>
   </g>
   <g id="line2d_30">
    <path clip-path="url(#p6abedd1011)" d="M 73.832727 179.478098 
L 90.065455 178.601267 
L 106.298182 176.770681 
L 122.530909 177.895705 
L 138.763636 177.867597 
L 154.996364 177.918305 
L 171.229091 176.590436 
L 187.461818 177.814209 
L 203.694545 173.004916 
L 219.927273 175.391182 
L 236.16 175.651628 
L 252.392727 175.596258 
L 268.625455 175.616701 
L 284.858182 177.678588 
L 301.090909 176.525518 
L 317.323636 177.426457 
L 333.556364 177.293779 
L 349.789091 178.540051 
L 366.021818 176.903335 
L 382.254545 178.159791 
L 398.487273 179.478098 
" style="fill:none;stroke:#d44e4e;stroke-linecap:square;stroke-width:3;"/>
   </g>
   <g id="line2d_31">
    <path clip-path="url(#p6abedd1011)" d="M 73.832727 224.238684 
L 90.065455 213.080118 
L 106.298182 212.98327 
L 122.530909 219.776357 
L 138.763636 220.71438 
L 154.996364 218.05577 
L 171.229091 217.906195 
L 187.461818 217.52495 
L 203.694545 226.312731 
L 219.927273 226.07893 
L 236.16 228.110976 
L 252.392727 240.829925 
L 268.625455 254.413194 
L 284.858182 259.540374 
L 301.090909 259.680934 
L 317.323636 257.644229 
L 333.556364 255.432816 
L 349.789091 252.000791 
L 366.021818 237.90406 
L 382.254545 224.334484 
L 398.487273 224.238684 
" style="fill:none;stroke:#0e4db3;stroke-linecap:square;stroke-width:3;"/>
   </g>
   <g id="line2d_32">
    <path clip-path="url(#p6abedd1011)" d="M 73.832727 232.868763 
L 90.065455 223.923324 
L 106.298182 224.274023 
L 122.530909 226.654431 
L 138.763636 230.22177 
L 154.996364 227.901064 
L 171.229091 227.627518 
L 187.461818 227.054292 
L 203.694545 234.106852 
L 219.927273 234.121601 
L 236.16 235.976472 
L 252.392727 246.032167 
L 268.625455 256.932316 
L 284.858182 260.707202 
L 301.090909 260.763951 
L 317.323636 259.013771 
L 333.556364 257.457583 
L 349.789091 254.532413 
L 366.021818 243.032388 
L 382.254545 231.930659 
L 398.487273 232.868763 
" style="fill:none;stroke:#d44e4e;stroke-linecap:square;stroke-width:3;"/>
   </g>
   <g id="line2d_33">
    <path clip-path="url(#p6abedd1011)" d="M 73.832727 122.388581 
L 90.065455 122.366119 
L 106.298182 122.056561 
L 122.530909 125.671212 
L 138.763636 124.570757 
L 154.996364 125.158298 
L 171.229091 125.396257 
L 187.461818 126.538034 
L 203.694545 122.634342 
L 219.927273 125.08261 
L 236.16 125.22546 
L 252.392727 124.571317 
L 268.625455 124.808952 
L 284.858182 129.133988 
L 301.090909 125.701477 
L 317.323636 125.509864 
L 333.556364 124.550002 
L 349.789091 124.644774 
L 366.021818 122.14323 
L 382.254545 122.363102 
L 398.487273 122.388581 
" style="fill:none;stroke:#0e4db3;stroke-linecap:square;stroke-width:3;"/>
   </g>
   <g id="line2d_34">
    <path clip-path="url(#p6abedd1011)" d="M 73.832727 152.874933 
L 90.065455 152.871056 
L 106.298182 152.540071 
L 122.530909 155.103703 
L 138.763636 153.821145 
L 154.996364 154.966089 
L 171.229091 154.636038 
L 187.461818 156.313988 
L 203.694545 152.716838 
L 219.927273 155.179965 
L 236.16 155.441332 
L 252.392727 154.595128 
L 268.625455 153.215492 
L 284.858182 155.500168 
L 301.090909 154.309004 
L 317.323636 154.313516 
L 333.556364 153.917052 
L 349.789091 154.362878 
L 366.021818 152.214857 
L 382.254545 152.681761 
L 398.487273 152.874933 
" style="fill:none;stroke:#d44e4e;stroke-linecap:square;stroke-width:3;"/>
   </g>
   <g id="line2d_35">
    <path clip-path="url(#p6abedd1011)" d="M 73.832727 285.408 
L 90.065455 285.408 
L 106.298182 285.408 
L 122.530909 285.408 
L 138.763636 285.408 
L 154.996364 285.408 
L 171.229091 285.408 
L 187.461818 285.408 
L 203.694545 285.408 
L 219.927273 285.408 
L 236.16 285.408 
L 252.392727 285.408 
L 268.625455 283.038752 
L 284.858182 284.730127 
L 301.090909 285.408 
L 317.323636 285.408 
L 333.556364 285.408 
L 349.789091 285.408 
L 366.021818 285.408 
L 382.254545 285.408 
L 398.487273 285.408 
" style="fill:none;stroke:#0e4db3;stroke-linecap:square;stroke-width:3;"/>
   </g>
   <g id="line2d_36">
    <path clip-path="url(#p6abedd1011)" d="M 73.832727 285.408 
L 90.065455 285.408 
L 106.298182 285.408 
L 122.530909 285.408 
L 138.763636 285.408 
L 154.996364 285.408 
L 171.229091 285.408 
L 187.461818 285.408 
L 203.694545 285.408 
L 219.927273 285.408 
L 236.16 285.408 
L 252.392727 285.408 
L 268.625455 285.408 
L 284.858182 285.408 
L 301.090909 285.408 
L 317.323636 285.408 
L 333.556364 285.408 
L 349.789091 285.408 
L 366.021818 285.408 
L 382.254545 285.408 
L 398.487273 285.408 
" style="fill:none;stroke:#d44e4e;stroke-linecap:square;stroke-width:3;"/>
   </g>
   <g id="line2d_37">
    <path clip-path="url(#p6abedd1011)" d="M 73.832727 221.779509 
L 90.065455 175.131734 
L 106.298182 186.291703 
L 122.530909 198.91291 
L 138.763636 201.318192 
L 154.996364 234.823177 
L 171.229091 245.927962 
L 187.461818 245.672665 
L 203.694545 211.493281 
L 219.927273 180.170297 
L 236.16 181.924808 
L 252.392727 179.096629 
L 268.625455 196.800295 
L 284.858182 216.396374 
L 301.090909 197.804888 
L 317.323636 189.447688 
L 333.556364 187.550265 
L 349.789091 194.588129 
L 366.021818 169.202042 
L 382.254545 191.707484 
L 398.487273 221.779509 
" style="fill:none;stroke:#0e4db3;stroke-linecap:square;stroke-width:3;"/>
   </g>
   <g id="line2d_38">
    <path clip-path="url(#p6abedd1011)" d="M 73.832727 235.281559 
L 90.065455 197.513423 
L 106.298182 204.424654 
L 122.530909 216.185701 
L 138.763636 219.395312 
L 154.996364 246.439642 
L 171.229091 255.338939 
L 187.461818 251.766877 
L 203.694545 224.929312 
L 219.927273 202.100314 
L 236.16 203.40754 
L 252.392727 201.136064 
L 268.625455 214.865125 
L 284.858182 230.713562 
L 301.090909 215.630095 
L 317.323636 209.010535 
L 333.556364 207.701713 
L 349.789091 211.729532 
L 366.021818 192.478182 
L 382.254545 210.485186 
L 398.487273 235.281559 
" style="fill:none;stroke:#d44e4e;stroke-linecap:square;stroke-width:3;"/>
   </g>
   <g id="line2d_39">
    <path clip-path="url(#p6abedd1011)" d="M 73.832727 258.059525 
L 90.065455 236.299342 
L 106.298182 243.698382 
L 122.530909 243.105374 
L 138.763636 248.203813 
L 154.996364 250.670723 
L 171.229091 256.724505 
L 187.461818 262.771849 
L 203.694545 260.108751 
L 219.927273 248.906227 
L 236.16 249.795592 
L 252.392727 249.490204 
L 268.625455 253.293832 
L 284.858182 243.296065 
L 301.090909 251.333149 
L 317.323636 262.793513 
L 333.556364 262.889285 
L 349.789091 257.005586 
L 366.021818 252.944423 
L 382.254545 252.379555 
L 398.487273 258.059525 
" style="fill:none;stroke:#0e4db3;stroke-linecap:square;stroke-width:3;"/>
   </g>
   <g id="line2d_40">
    <path clip-path="url(#p6abedd1011)" d="M 73.832727 265.006677 
L 90.065455 244.032621 
L 106.298182 250.123038 
L 122.530909 252.238245 
L 138.763636 256.887342 
L 154.996364 259.160208 
L 171.229091 263.186057 
L 187.461818 268.443127 
L 203.694545 265.723426 
L 219.927273 257.479285 
L 236.16 258.136014 
L 252.392727 257.897117 
L 268.625455 260.660244 
L 284.858182 252.674196 
L 301.090909 259.415331 
L 317.323636 267.929293 
L 333.556364 268.237196 
L 349.789091 263.58069 
L 366.021818 260.109294 
L 382.254545 259.888309 
L 398.487273 265.006677 
" style="fill:none;stroke:#d44e4e;stroke-linecap:square;stroke-width:3;"/>
   </g>
   <g id="line2d_41">
    <path clip-path="url(#p6abedd1011)" d="M 73.832727 254.562837 
L 90.065455 239.829056 
L 106.298182 220.811003 
L 122.530909 213.903624 
L 138.763636 204.130278 
L 154.996364 200.26094 
L 171.229091 210.36008 
L 187.461818 224.052692 
L 203.694545 226.659292 
L 219.927273 209.669601 
L 236.16 209.56725 
L 252.392727 217.644839 
L 268.625455 213.780456 
L 284.858182 227.020231 
L 301.090909 232.447163 
L 317.323636 266.058953 
L 333.556364 264.397806 
L 349.789091 265.841302 
L 366.021818 250.811394 
L 382.254545 254.720792 
L 398.487273 254.562837 
" style="fill:none;stroke:#0e4db3;stroke-linecap:square;stroke-width:3;"/>
   </g>
   <g id="line2d_42">
    <path clip-path="url(#p6abedd1011)" d="M 73.832727 260.442202 
L 90.065455 248.937433 
L 106.298182 224.460432 
L 122.530909 226.127943 
L 138.763636 221.186719 
L 154.996364 217.962412 
L 171.229091 225.773323 
L 187.461818 234.447675 
L 203.694545 237.8822 
L 219.927273 224.92839 
L 236.16 224.923666 
L 252.392727 230.865611 
L 268.625455 227.629338 
L 284.858182 237.551875 
L 301.090909 241.291704 
L 317.323636 270.478941 
L 333.556364 268.670068 
L 349.789091 268.259096 
L 366.021818 255.252375 
L 382.254545 259.538168 
L 398.487273 260.442202 
" style="fill:none;stroke:#d44e4e;stroke-linecap:square;stroke-width:3;"/>
   </g>
   <g id="line2d_43">
    <path clip-path="url(#p6abedd1011)" d="M 73.832727 224.67738 
L 90.065455 224.215692 
L 106.298182 224.036849 
L 122.530909 229.946217 
L 138.763636 224.164592 
L 154.996364 237.786645 
L 171.229091 239.090562 
L 187.461818 239.358917 
L 203.694545 238.445725 
L 219.927273 237.930169 
L 236.16 237.512713 
L 252.392727 230.744407 
L 268.625455 227.252805 
L 284.858182 232.749397 
L 301.090909 223.851388 
L 317.323636 224.067563 
L 333.556364 224.108524 
L 349.789091 225.54472 
L 366.021818 219.759685 
L 382.254545 224.28746 
L 398.487273 224.67738 
" style="fill:none;stroke:#0e4db3;stroke-linecap:square;stroke-width:3;"/>
   </g>
   <g id="line2d_44">
    <path clip-path="url(#p6abedd1011)" d="M 73.832727 233.722696 
L 90.065455 230.242319 
L 106.298182 230.025688 
L 122.530909 232.193367 
L 138.763636 233.643805 
L 154.996364 244.189862 
L 171.229091 244.96701 
L 187.461818 245.175813 
L 203.694545 245.06909 
L 219.927273 244.71931 
L 236.16 244.767625 
L 252.392727 237.980129 
L 268.625455 235.688534 
L 284.858182 239.692364 
L 301.090909 232.964215 
L 317.323636 232.983012 
L 333.556364 232.990647 
L 349.789091 234.504731 
L 366.021818 229.207723 
L 382.254545 233.120178 
L 398.487273 233.722696 
" style="fill:none;stroke:#d44e4e;stroke-linecap:square;stroke-width:3;"/>
   </g>
   <g id="line2d_45">
    <path clip-path="url(#p6abedd1011)" d="M 73.832727 285.408 
L 90.065455 285.408 
L 106.298182 285.408 
L 122.530909 285.408 
L 138.763636 285.408 
L 154.996364 285.408 
L 171.229091 285.408 
L 187.461818 285.408 
L 203.694545 285.408 
L 219.927273 285.408 
L 236.16 285.408 
L 252.392727 285.408 
L 268.625455 285.408 
L 284.858182 285.408 
L 301.090909 285.408 
L 317.323636 285.408 
L 333.556364 285.408 
L 349.789091 285.408 
L 366.021818 285.408 
L 382.254545 285.408 
L 398.487273 285.408 
" style="fill:none;stroke:#0e4db3;stroke-linecap:square;stroke-width:3;"/>
   </g>
   <g id="line2d_46">
    <path clip-path="url(#p6abedd1011)" d="M 73.832727 285.408 
L 90.065455 285.408 
L 106.298182 285.408 
L 122.530909 285.408 
L 138.763636 285.408 
L 154.996364 285.408 
L 171.229091 285.408 
L 187.461818 285.408 
L 203.694545 285.408 
L 219.927273 285.408 
L 236.16 285.408 
L 252.392727 285.408 
L 268.625455 285.408 
L 284.858182 285.408 
L 301.090909 285.408 
L 317.323636 285.408 
L 333.556364 285.408 
L 349.789091 285.408 
L 366.021818 285.408 
L 382.254545 285.408 
L 398.487273 285.408 
" style="fill:none;stroke:#d44e4e;stroke-linecap:square;stroke-width:3;"/>
   </g>
   <g id="line2d_47">
    <path clip-path="url(#p6abedd1011)" d="M 73.832727 204.696355 
L 90.065455 130.949566 
L 106.298182 132.971079 
L 122.530909 127.076613 
L 138.763636 99.098025 
L 154.996364 120.441933 
L 171.229091 168.50993 
L 187.461818 241.058669 
L 203.694545 206.650532 
L 219.927273 176.406938 
L 236.16 172.019214 
L 252.392727 140.833508 
L 268.625455 115.927602 
L 284.858182 101.178897 
L 301.090909 125.949271 
L 317.323636 175.617623 
L 333.556364 256.798706 
L 349.789091 285.408 
L 366.021818 261.077493 
L 382.254545 200.404445 
L 398.487273 204.696355 
" style="fill:none;stroke:#0e4db3;stroke-linecap:square;stroke-width:3;"/>
   </g>
   <g id="line2d_48">
    <path clip-path="url(#p6abedd1011)" d="M 73.832727 285.408 
L 90.065455 224.368844 
L 106.298182 229.943855 
L 122.530909 210.649949 
L 138.763636 257.398196 
L 154.996364 279.717007 
L 171.229091 285.408 
L 187.461818 285.408 
L 203.694545 285.408 
L 219.927273 285.408 
L 236.16 283.635531 
L 252.392727 257.894646 
L 268.625455 242.031725 
L 284.858182 245.243931 
L 301.090909 260.271254 
L 317.323636 285.408 
L 333.556364 285.408 
L 349.789091 285.408 
L 366.021818 285.408 
L 382.254545 285.408 
L 398.487273 285.408 
" style="fill:none;stroke:#d44e4e;stroke-linecap:square;stroke-width:3;"/>
   </g>
   <g id="line2d_49">
    <path clip-path="url(#p6abedd1011)" d="M 73.832727 285.408 
L 90.065455 285.408 
L 106.298182 285.408 
L 122.530909 285.408 
L 138.763636 285.408 
L 154.996364 285.408 
L 171.229091 285.408 
L 187.461818 285.408 
L 203.694545 285.408 
L 219.927273 285.408 
L 236.16 285.408 
L 252.392727 285.408 
L 268.625455 285.408 
L 284.858182 285.408 
L 301.090909 285.408 
L 317.323636 285.408 
L 333.556364 285.408 
L 349.789091 285.408 
L 366.021818 285.408 
L 382.254545 285.408 
L 398.487273 285.408 
" style="fill:none;stroke:#0e4db3;stroke-linecap:square;stroke-width:3;"/>
   </g>
   <g id="line2d_50">
    <path clip-path="url(#p6abedd1011)" d="M 73.832727 285.408 
L 90.065455 285.408 
L 106.298182 285.408 
L 122.530909 285.408 
L 138.763636 285.408 
L 154.996364 285.408 
L 171.229091 285.408 
L 187.461818 285.408 
L 203.694545 285.408 
L 219.927273 285.408 
L 236.16 285.408 
L 252.392727 285.408 
L 268.625455 285.408 
L 284.858182 285.408 
L 301.090909 285.408 
L 317.323636 285.408 
L 333.556364 285.408 
L 349.789091 285.408 
L 366.021818 285.408 
L 382.254545 285.408 
L 398.487273 285.408 
" style="fill:none;stroke:#d44e4e;stroke-linecap:square;stroke-width:3;"/>
   </g>
   <g id="line2d_51">
    <path clip-path="url(#p6abedd1011)" d="M 73.832727 285.408 
L 90.065455 285.408 
L 106.298182 285.408 
L 122.530909 285.408 
L 138.763636 285.408 
L 154.996364 285.408 
L 171.229091 285.408 
L 187.461818 285.408 
L 203.694545 285.408 
L 219.927273 285.408 
L 236.16 285.408 
L 252.392727 285.408 
L 268.625455 285.408 
L 284.858182 285.408 
L 301.090909 285.408 
L 317.323636 285.408 
L 333.556364 285.408 
L 349.789091 285.408 
L 366.021818 285.408 
L 382.254545 285.408 
L 398.487273 285.408 
" style="fill:none;stroke:#0e4db3;stroke-linecap:square;stroke-width:3;"/>
   </g>
   <g id="line2d_52">
    <path clip-path="url(#p6abedd1011)" d="M 73.832727 285.408 
L 90.065455 285.408 
L 106.298182 285.408 
L 122.530909 285.408 
L 138.763636 285.408 
L 154.996364 285.408 
L 171.229091 285.408 
L 187.461818 285.408 
L 203.694545 285.408 
L 219.927273 285.408 
L 236.16 285.408 
L 252.392727 285.408 
L 268.625455 285.408 
L 284.858182 285.408 
L 301.090909 285.408 
L 317.323636 285.408 
L 333.556364 285.408 
L 349.789091 285.408 
L 366.021818 285.408 
L 382.254545 285.408 
L 398.487273 285.408 
" style="fill:none;stroke:#d44e4e;stroke-linecap:square;stroke-width:3;"/>
   </g>
   <g id="line2d_53">
    <path clip-path="url(#p6abedd1011)" d="M 73.832727 9.939201 
L 90.065455 95.031078 
L 106.298182 177.003267 
L 122.530909 189.017487 
L 138.763636 184.353568 
L 154.996364 187.278277 
L 171.229091 181.793582 
L 187.461818 196.069716 
L 203.694545 209.731871 
L 219.927273 158.08964 
L 236.16 145.067612 
L 252.392727 129.677977 
L 268.625455 167.089247 
L 284.858182 127.199856 
L 301.090909 69.754298 
L 317.032229 -1 
M 391.047484 -1 
L 398.487273 9.939201 
" style="fill:none;stroke:#0e4db3;stroke-linecap:square;stroke-width:3;"/>
   </g>
   <g id="line2d_54">
    <path clip-path="url(#p6abedd1011)" d="M 73.832727 285.408 
L 90.065455 285.408 
L 106.298182 285.408 
L 122.530909 285.408 
L 138.763636 285.408 
L 154.996364 285.408 
L 171.229091 285.408 
L 187.461818 285.408 
L 203.694545 285.408 
L 219.927273 285.408 
L 236.16 285.408 
L 252.392727 285.408 
L 268.625455 285.408 
L 284.858182 285.408 
L 301.090909 285.408 
L 317.323636 210.033725 
L 333.556364 246.384325 
L 349.789091 212.730092 
L 366.021818 206.129635 
L 382.254545 237.238574 
L 398.487273 285.408 
" style="fill:none;stroke:#d44e4e;stroke-linecap:square;stroke-width:3;"/>
   </g>
   <g id="line2d_55">
    <path clip-path="url(#p6abedd1011)" d="M 73.832727 285.408 
L 90.065455 285.408 
L 106.298182 285.408 
L 122.530909 285.408 
L 138.763636 285.408 
L 154.996364 285.408 
L 171.229091 285.408 
L 187.461818 285.408 
L 203.694545 285.408 
L 219.927273 285.408 
L 236.16 285.408 
L 252.392727 285.408 
L 268.625455 285.408 
L 284.858182 285.408 
L 301.090909 285.408 
L 317.323636 285.408 
L 333.556364 285.408 
L 349.789091 285.408 
L 366.021818 285.408 
L 382.254545 285.408 
L 398.487273 285.408 
" style="fill:none;stroke:#0e4db3;stroke-linecap:square;stroke-width:3;"/>
   </g>
   <g id="line2d_56">
    <path clip-path="url(#p6abedd1011)" d="M 73.832727 285.408 
L 90.065455 285.408 
L 106.298182 285.408 
L 122.530909 285.408 
L 138.763636 285.408 
L 154.996364 285.408 
L 171.229091 285.408 
L 187.461818 285.408 
L 203.694545 285.408 
L 219.927273 285.408 
L 236.16 285.408 
L 252.392727 285.408 
L 268.625455 285.408 
L 284.858182 285.408 
L 301.090909 285.408 
L 317.323636 285.408 
L 333.556364 285.408 
L 349.789091 285.408 
L 366.021818 285.408 
L 382.254545 285.408 
L 398.487273 285.408 
" style="fill:none;stroke:#d44e4e;stroke-linecap:square;stroke-width:3;"/>
   </g>
   <g id="line2d_57">
    <path clip-path="url(#p6abedd1011)" d="M 73.832727 285.408 
L 90.065455 285.408 
L 106.298182 285.408 
L 122.530909 285.408 
L 138.763636 285.408 
L 154.996364 285.408 
L 171.229091 285.408 
L 187.461818 285.408 
L 203.694545 285.408 
L 219.927273 285.408 
L 236.16 285.408 
L 252.392727 285.408 
L 268.625455 285.408 
L 284.858182 285.408 
L 301.090909 285.408 
L 317.323636 285.408 
L 333.556364 285.408 
L 349.789091 285.408 
L 366.021818 285.408 
L 382.254545 285.408 
L 398.487273 285.408 
" style="fill:none;stroke:#0e4db3;stroke-linecap:square;stroke-width:3;"/>
   </g>
   <g id="line2d_58">
    <path clip-path="url(#p6abedd1011)" d="M 73.832727 285.408 
L 90.065455 285.408 
L 106.298182 285.408 
L 122.530909 285.408 
L 138.763636 285.408 
L 154.996364 285.408 
L 171.229091 285.408 
L 187.461818 285.408 
L 203.694545 285.408 
L 219.927273 285.408 
L 236.16 285.408 
L 252.392727 285.408 
L 268.625455 285.408 
L 284.858182 285.408 
L 301.090909 285.408 
L 317.323636 285.408 
L 333.556364 285.408 
L 349.789091 285.408 
L 366.021818 285.408 
L 382.254545 285.408 
L 398.487273 285.408 
" style="fill:none;stroke:#d44e4e;stroke-linecap:square;stroke-width:3;"/>
   </g>
   <g id="line2d_59">
    <path clip-path="url(#p6abedd1011)" d="M 73.832727 250.681065 
L 90.065455 250.799945 
L 106.298182 257.64186 
L 122.530909 266.875175 
L 138.763636 266.776498 
L 154.996364 268.350269 
L 171.229091 257.066734 
L 187.461818 230.257053 
L 203.694545 174.287873 
L 219.927273 134.560465 
L 236.16 184.218023 
L 252.392727 111.355507 
L 268.625455 120.586378 
L 284.858182 123.874394 
L 301.090909 124.581414 
L 317.323636 148.094397 
L 333.556364 162.891117 
L 349.789091 189.297359 
L 366.021818 203.089593 
L 382.254545 226.731515 
L 398.487273 250.681065 
" style="fill:none;stroke:#0e4db3;stroke-linecap:square;stroke-width:3;"/>
   </g>
   <g id="line2d_60">
    <path clip-path="url(#p6abedd1011)" d="M 73.832727 283.717859 
L 90.065455 272.918946 
L 106.298182 282.864952 
L 122.530909 277.446507 
L 138.763636 276.914545 
L 154.996364 277.668771 
L 171.229091 283.825946 
L 187.461818 284.1895 
L 203.694545 283.99073 
L 219.927273 235.907948 
L 236.16 283.088438 
L 252.392727 215.387524 
L 268.625455 228.997337 
L 284.858182 244.602353 
L 301.090909 252.622279 
L 317.323636 243.083111 
L 333.556364 256.218566 
L 349.789091 246.754497 
L 366.021818 256.765085 
L 382.254545 262.894295 
L 398.487273 283.717859 
" style="fill:none;stroke:#d44e4e;stroke-linecap:square;stroke-width:3;"/>
   </g>
   <g id="line2d_61">
    <path clip-path="url(#p6abedd1011)" d="M 73.832727 285.408 
L 90.065455 285.408 
L 106.298182 285.408 
L 122.530909 285.408 
L 138.763636 285.408 
L 154.996364 285.408 
L 171.229091 285.408 
L 187.461818 285.408 
L 203.694545 285.408 
L 219.927273 285.408 
L 236.16 285.408 
L 252.392727 285.408 
L 268.625455 285.408 
L 284.858182 285.408 
L 301.090909 285.408 
L 317.323636 285.408 
L 333.556364 285.408 
L 349.789091 285.408 
L 366.021818 285.408 
L 382.254545 285.408 
L 398.487273 285.408 
" style="fill:none;stroke:#0e4db3;stroke-linecap:square;stroke-width:3;"/>
   </g>
   <g id="line2d_62">
    <path clip-path="url(#p6abedd1011)" d="M 73.832727 285.408 
L 90.065455 285.408 
L 106.298182 285.408 
L 122.530909 285.408 
L 138.763636 285.408 
L 154.996364 285.408 
L 171.229091 285.408 
L 187.461818 285.408 
L 203.694545 285.408 
L 219.927273 285.408 
L 236.16 285.408 
L 252.392727 285.408 
L 268.625455 285.408 
L 284.858182 285.408 
L 301.090909 285.408 
L 317.323636 285.408 
L 333.556364 285.408 
L 349.789091 285.408 
L 366.021818 285.408 
L 382.254545 285.408 
L 398.487273 285.408 
" style="fill:none;stroke:#d44e4e;stroke-linecap:square;stroke-width:3;"/>
   </g>
   <g id="line2d_63">
    <path clip-path="url(#p6abedd1011)" d="M 73.832727 285.408 
L 90.065455 285.408 
L 106.298182 285.408 
L 122.530909 285.408 
L 138.763636 285.408 
L 154.996364 285.408 
L 171.229091 285.408 
L 187.461818 285.408 
L 203.694545 285.408 
L 219.927273 285.408 
L 236.16 285.408 
L 252.392727 285.408 
L 268.625455 285.408 
L 284.858182 285.408 
L 301.090909 285.408 
L 317.323636 285.408 
L 333.556364 285.408 
L 349.789091 285.408 
L 366.021818 285.408 
L 382.254545 285.408 
L 398.487273 285.408 
" style="fill:none;stroke:#0e4db3;stroke-linecap:square;stroke-width:3;"/>
   </g>
   <g id="line2d_64">
    <path clip-path="url(#p6abedd1011)" d="M 73.832727 285.408 
L 90.065455 285.408 
L 106.298182 285.408 
L 122.530909 285.408 
L 138.763636 285.408 
L 154.996364 285.408 
L 171.229091 285.408 
L 187.461818 285.408 
L 203.694545 285.408 
L 219.927273 285.408 
L 236.16 285.408 
L 252.392727 285.408 
L 268.625455 285.408 
L 284.858182 285.408 
L 301.090909 285.408 
L 317.323636 285.408 
L 333.556364 285.408 
L 349.789091 285.408 
L 366.021818 285.408 
L 382.254545 285.408 
L 398.487273 285.408 
" style="fill:none;stroke:#d44e4e;stroke-linecap:square;stroke-width:3;"/>
   </g>
   <g id="line2d_65">
    <path clip-path="url(#p6abedd1011)" d="M 73.832727 285.408 
L 90.065455 285.408 
L 106.298182 285.408 
L 122.530909 285.408 
L 138.763636 285.408 
L 154.996364 285.408 
L 171.229091 285.408 
L 187.461818 285.408 
L 203.694545 285.408 
L 219.927273 285.408 
L 236.16 285.408 
L 252.392727 285.408 
L 268.625455 285.408 
L 284.858182 285.408 
L 301.090909 285.408 
L 317.323636 285.408 
L 333.556364 285.408 
L 349.789091 285.408 
L 366.021818 285.408 
L 382.254545 285.408 
L 398.487273 285.408 
" style="fill:none;stroke:#0e4db3;stroke-linecap:square;stroke-width:3;"/>
   </g>
   <g id="line2d_66">
    <path clip-path="url(#p6abedd1011)" d="M 73.832727 285.408 
L 90.065455 285.408 
L 106.298182 285.408 
L 122.530909 285.408 
L 138.763636 285.408 
L 154.996364 285.408 
L 171.229091 285.408 
L 187.461818 285.408 
L 203.694545 285.408 
L 219.927273 285.408 
L 236.16 285.408 
L 252.392727 285.408 
L 268.625455 285.408 
L 284.858182 285.408 
L 301.090909 285.408 
L 317.323636 285.408 
L 333.556364 285.408 
L 349.789091 285.408 
L 366.021818 285.408 
L 382.254545 285.408 
L 398.487273 285.408 
" style="fill:none;stroke:#d44e4e;stroke-linecap:square;stroke-width:3;"/>
   </g>
   <g id="line2d_67">
    <path clip-path="url(#p6abedd1011)" d="M 73.832727 285.408 
L 90.065455 285.408 
L 106.298182 285.408 
L 122.530909 285.408 
L 138.763636 285.408 
L 154.996364 285.408 
L 171.229091 285.408 
L 187.461818 285.408 
L 203.694545 285.408 
L 219.927273 285.408 
L 236.16 285.408 
L 252.392727 285.408 
L 268.625455 285.408 
L 284.858182 285.408 
L 301.090909 285.408 
L 317.323636 285.408 
L 333.556364 285.408 
L 349.789091 285.408 
L 366.021818 285.408 
L 382.254545 285.408 
L 398.487273 285.408 
" style="fill:none;stroke:#0e4db3;stroke-linecap:square;stroke-width:3;"/>
   </g>
   <g id="line2d_68">
    <path clip-path="url(#p6abedd1011)" d="M 73.832727 285.408 
L 90.065455 285.408 
L 106.298182 285.408 
L 122.530909 285.408 
L 138.763636 285.408 
L 154.996364 285.408 
L 171.229091 285.408 
L 187.461818 285.408 
L 203.694545 285.408 
L 219.927273 285.408 
L 236.16 285.408 
L 252.392727 285.408 
L 268.625455 285.408 
L 284.858182 285.408 
L 301.090909 285.408 
L 317.323636 285.408 
L 333.556364 285.408 
L 349.789091 285.408 
L 366.021818 285.408 
L 382.254545 285.408 
L 398.487273 285.408 
" style="fill:none;stroke:#d44e4e;stroke-linecap:square;stroke-width:3;"/>
   </g>
   <g id="line2d_69">
    <path clip-path="url(#p6abedd1011)" d="M 73.832727 185.254944 
L 90.065455 154.97181 
L 106.298182 102.131504 
L 122.530909 110.32088 
L 138.763636 62.591334 
L 154.996364 65.991711 
L 171.229091 99.289202 
L 187.461818 168.091577 
L 203.694545 135.771785 
L 219.927273 135.218223 
L 236.16 172.451354 
L 252.392727 150.153704 
L 268.625455 159.376773 
L 284.858182 189.301641 
L 301.090909 191.869 
L 317.323636 226.09984 
L 333.556364 212.077426 
L 349.789091 201.21528 
L 366.021818 179.629238 
L 382.254545 179.493717 
L 398.487273 185.254944 
" style="fill:none;stroke:#0e4db3;stroke-linecap:square;stroke-width:3;"/>
   </g>
   <g id="line2d_70">
    <path clip-path="url(#p6abedd1011)" d="M 73.832727 285.408 
L 90.065455 285.408 
L 106.298182 285.408 
L 122.530909 285.408 
L 138.763636 285.408 
L 154.996364 285.408 
L 171.229091 285.408 
L 187.461818 285.408 
L 203.694545 285.408 
L 219.927273 285.408 
L 236.16 285.408 
L 252.392727 285.408 
L 268.625455 285.408 
L 284.858182 285.408 
L 301.090909 285.408 
L 317.323636 285.408 
L 333.556364 285.408 
L 349.789091 285.408 
L 366.021818 285.408 
L 382.254545 285.408 
L 398.487273 285.408 
" style="fill:none;stroke:#d44e4e;stroke-linecap:square;stroke-width:3;"/>
   </g>
   <g id="line2d_71">
    <path clip-path="url(#p6abedd1011)" d="M 73.832727 285.408 
L 90.065455 285.408 
L 106.298182 285.408 
L 122.530909 285.408 
L 138.763636 285.408 
L 154.996364 285.408 
L 171.229091 285.408 
L 187.461818 285.408 
L 203.694545 285.408 
L 219.927273 285.408 
L 236.16 285.408 
L 252.392727 285.408 
L 268.625455 285.408 
L 284.858182 285.408 
L 301.090909 285.408 
L 317.323636 285.408 
L 333.556364 285.408 
L 349.789091 285.408 
L 366.021818 285.408 
L 382.254545 285.408 
L 398.487273 285.408 
" style="fill:none;stroke:#0e4db3;stroke-linecap:square;stroke-width:3;"/>
   </g>
   <g id="line2d_72">
    <path clip-path="url(#p6abedd1011)" d="M 73.832727 285.408 
L 90.065455 285.408 
L 106.298182 285.408 
L 122.530909 285.408 
L 138.763636 285.408 
L 154.996364 285.408 
L 171.229091 285.408 
L 187.461818 285.408 
L 203.694545 285.408 
L 219.927273 285.408 
L 236.16 285.408 
L 252.392727 285.408 
L 268.625455 285.408 
L 284.858182 285.408 
L 301.090909 285.408 
L 317.323636 285.408 
L 333.556364 285.408 
L 349.789091 285.408 
L 366.021818 285.408 
L 382.254545 285.408 
L 398.487273 285.408 
" style="fill:none;stroke:#d44e4e;stroke-linecap:square;stroke-width:3;"/>
   </g>
   <g id="line2d_73">
    <path clip-path="url(#p6abedd1011)" d="M 73.832727 285.408 
L 90.065455 285.408 
L 106.298182 285.408 
L 122.530909 285.408 
L 138.763636 285.408 
L 154.996364 285.408 
L 171.229091 285.408 
L 187.461818 285.408 
L 203.694545 285.408 
L 219.927273 285.408 
L 236.16 285.408 
L 252.392727 285.408 
L 268.625455 285.408 
L 284.858182 285.408 
L 301.090909 285.408 
L 317.323636 285.408 
L 333.556364 285.408 
L 349.789091 285.408 
L 366.021818 285.408 
L 382.254545 285.408 
L 398.487273 285.408 
" style="fill:none;stroke:#0e4db3;stroke-linecap:square;stroke-width:3;"/>
   </g>
   <g id="line2d_74">
    <path clip-path="url(#p6abedd1011)" d="M 73.832727 285.408 
L 90.065455 285.408 
L 106.298182 285.408 
L 122.530909 285.408 
L 138.763636 285.408 
L 154.996364 285.408 
L 171.229091 285.408 
L 187.461818 285.408 
L 203.694545 285.408 
L 219.927273 285.408 
L 236.16 285.408 
L 252.392727 285.408 
L 268.625455 285.408 
L 284.858182 285.408 
L 301.090909 285.408 
L 317.323636 285.408 
L 333.556364 285.408 
L 349.789091 285.408 
L 366.021818 285.408 
L 382.254545 285.408 
L 398.487273 285.408 
" style="fill:none;stroke:#d44e4e;stroke-linecap:square;stroke-width:3;"/>
   </g>
   <g id="line2d_75">
    <path clip-path="url(#p6abedd1011)" d="M 73.832727 285.408 
L 90.065455 285.408 
L 106.298182 285.408 
L 122.530909 285.408 
L 138.763636 285.408 
L 154.996364 285.408 
L 171.229091 285.408 
L 187.461818 285.408 
L 203.694545 285.408 
L 219.927273 285.408 
L 236.16 285.408 
L 252.392727 285.408 
L 268.625455 285.408 
L 284.858182 285.408 
L 301.090909 285.408 
L 317.323636 285.408 
L 333.556364 285.408 
L 349.789091 285.408 
L 366.021818 285.408 
L 382.254545 285.408 
L 398.487273 285.408 
" style="fill:none;stroke:#0e4db3;stroke-linecap:square;stroke-width:3;"/>
   </g>
   <g id="line2d_76">
    <path clip-path="url(#p6abedd1011)" d="M 73.832727 285.408 
L 90.065455 285.408 
L 106.298182 285.408 
L 122.530909 285.408 
L 138.763636 285.408 
L 154.996364 285.408 
L 171.229091 285.408 
L 187.461818 285.408 
L 203.694545 285.408 
L 219.927273 285.408 
L 236.16 285.408 
L 252.392727 285.408 
L 268.625455 285.408 
L 284.858182 285.408 
L 301.090909 285.408 
L 317.323636 285.408 
L 333.556364 285.408 
L 349.789091 285.408 
L 366.021818 285.408 
L 382.254545 285.408 
L 398.487273 285.408 
" style="fill:none;stroke:#d44e4e;stroke-linecap:square;stroke-width:3;"/>
   </g>
   <g id="line2d_77">
    <path clip-path="url(#p6abedd1011)" d="M 73.832727 209.507175 
L 90.065455 171.340228 
L 106.298182 228.416221 
L 122.530909 225.626908 
L 138.763636 202.88266 
L 154.996364 198.947943 
L 171.229091 176.87095 
L 187.461818 118.600366 
L 203.694545 79.723763 
L 219.927273 54.435677 
L 236.16 85.597661 
L 252.392727 10.1003 
L 263.527634 -1 
M 270.224182 -1 
L 284.858182 45.518028 
L 301.090909 48.270369 
L 317.323636 128.300984 
L 333.556364 165.797365 
L 349.789091 134.766538 
L 366.021818 138.34499 
L 382.254545 149.792466 
L 398.487273 209.507175 
" style="fill:none;stroke:#0e4db3;stroke-linecap:square;stroke-width:3;"/>
   </g>
   <g id="line2d_78">
    <path clip-path="url(#p6abedd1011)" d="M 73.832727 285.408 
L 90.065455 285.408 
L 106.298182 285.408 
L 122.530909 285.408 
L 138.763636 285.408 
L 154.996364 285.408 
L 171.229091 285.408 
L 187.461818 285.408 
L 203.694545 285.408 
L 219.927273 285.408 
L 236.16 285.408 
L 252.392727 285.408 
L 268.625455 285.408 
L 284.858182 285.408 
L 301.090909 285.408 
L 317.323636 285.408 
L 333.556364 285.408 
L 349.789091 285.408 
L 366.021818 285.408 
L 382.254545 285.408 
L 398.487273 285.408 
" style="fill:none;stroke:#d44e4e;stroke-linecap:square;stroke-width:3;"/>
   </g>
   <g id="line2d_79">
    <path clip-path="url(#p6abedd1011)" d="M 73.832727 285.408 
L 90.065455 285.408 
L 106.298182 285.408 
L 122.530909 285.408 
L 138.763636 285.408 
L 154.996364 285.408 
L 171.229091 285.408 
L 187.461818 285.408 
L 203.694545 285.408 
L 219.927273 285.408 
L 236.16 285.408 
L 252.392727 285.408 
L 268.625455 285.408 
L 284.858182 285.408 
L 301.090909 285.408 
L 317.323636 285.408 
L 333.556364 285.408 
L 349.789091 285.408 
L 366.021818 285.408 
L 382.254545 285.408 
L 398.487273 285.408 
" style="fill:none;stroke:#0e4db3;stroke-linecap:square;stroke-width:3;"/>
   </g>
   <g id="line2d_80">
    <path clip-path="url(#p6abedd1011)" d="M 73.832727 285.408 
L 90.065455 285.408 
L 106.298182 285.408 
L 122.530909 285.408 
L 138.763636 285.408 
L 154.996364 285.408 
L 171.229091 285.408 
L 187.461818 285.408 
L 203.694545 285.408 
L 219.927273 285.408 
L 236.16 285.408 
L 252.392727 285.408 
L 268.625455 285.408 
L 284.858182 285.408 
L 301.090909 285.408 
L 317.323636 285.408 
L 333.556364 285.408 
L 349.789091 285.408 
L 366.021818 285.408 
L 382.254545 285.408 
L 398.487273 285.408 
" style="fill:none;stroke:#d44e4e;stroke-linecap:square;stroke-width:3;"/>
   </g>
   <g id="line2d_81">
    <path clip-path="url(#p6abedd1011)" d="M 73.832727 92.187729 
L 90.065455 63.648 
L 106.298182 67.136729 
L 122.530909 93.371352 
L 138.763636 126.070568 
L 154.996364 138.254843 
L 171.229091 121.010191 
L 187.461818 145.446625 
L 203.694545 197.978876 
L 219.927273 228.709949 
L 236.16 236.441566 
L 252.392727 193.057304 
L 268.625455 211.094118 
L 284.858182 207.992368 
L 301.090909 129.969112 
L 317.323636 151.264157 
L 333.556364 137.554903 
L 349.789091 153.301987 
L 366.021818 129.726105 
L 382.254545 118.414187 
L 398.487273 92.187729 
" style="fill:none;stroke:#0e4db3;stroke-linecap:square;stroke-width:3;"/>
   </g>
   <g id="line2d_82">
    <path clip-path="url(#p6abedd1011)" d="M 73.832727 285.408 
L 90.065455 254.003544 
L 106.298182 233.219151 
L 122.530909 254.378628 
L 138.763636 285.408 
L 154.996364 285.408 
L 171.229091 249.067578 
L 187.461818 277.716285 
L 203.694545 285.408 
L 219.927273 285.408 
L 236.16 285.408 
L 252.392727 285.408 
L 268.625455 285.408 
L 284.858182 285.408 
L 301.090909 283.556524 
L 317.323636 285.408 
L 333.556364 285.408 
L 349.789091 243.629384 
L 366.021818 226.197354 
L 382.254545 245.418084 
L 398.487273 285.408 
" style="fill:none;stroke:#d44e4e;stroke-linecap:square;stroke-width:3;"/>
   </g>
   <g id="patch_3">
    <path d="M 57.6 307.584 
L 57.6 41.472 
" style="fill:none;stroke:#000000;stroke-linecap:square;stroke-linejoin:miter;stroke-width:2.5;"/>
   </g>
   <g id="patch_4">
    <path d="M 414.72 307.584 
L 414.72 41.472 
" style="fill:none;stroke:#000000;stroke-linecap:square;stroke-linejoin:miter;stroke-width:2.5;"/>
   </g>
   <g id="patch_5">
    <path d="M 57.6 307.584 
L 414.72 307.584 
" style="fill:none;stroke:#000000;stroke-linecap:square;stroke-linejoin:miter;stroke-width:2.5;"/>
   </g>
   <g id="patch_6">
    <path d="M 57.6 41.472 
L 414.72 41.472 
" style="fill:none;stroke:#000000;stroke-linecap:square;stroke-linejoin:miter;stroke-width:2.5;"/>
   </g>
  </g>
 </g>
 <defs>
  <clipPath id="p6abedd1011">
   <rect height="266.112" width="357.12" x="57.6" y="41.472"/>
  </clipPath>
 </defs>
</svg>
