<?xml version="1.0" encoding="utf-8" standalone="no"?>
<!DOCTYPE svg PUBLIC "-//W3C//DTD SVG 1.1//EN"
  "http://www.w3.org/Graphics/SVG/1.1/DTD/svg11.dtd">
<!-- Created with matplotlib (https://matplotlib.org/) -->
<svg height="345.6pt" version="1.1" viewBox="0 0 460.8 345.6" width="460.8pt" xmlns="http://www.w3.org/2000/svg" xmlns:xlink="http://www.w3.org/1999/xlink">
 <defs>
  <style type="text/css">
*{stroke-linecap:butt;stroke-linejoin:round;}
  </style>
 </defs>
 <g id="figure_1">
  <g id="patch_1">
   <path d="M 0 345.6 
L 460.8 345.6 
L 460.8 0 
L 0 0 
z
" style="fill:#ffffff;"/>
  </g>
  <g id="axes_1">
   <g id="patch_2">
    <path d="M 57.6 307.584 
L 414.72 307.584 
L 414.72 41.472 
L 57.6 41.472 
z
" style="fill:#ffffff;"/>
   </g>
   <g id="matplotlib.axis_1">
    <g id="xtick_1">
     <g id="line2d_1">
      <defs>
       <path d="M 0 0 
L 0 12 
" id="m33874d4c8c" style="stroke:#000000;stroke-width:2.5;"/>
      </defs>
      <g>
       <use style="stroke:#000000;stroke-width:2.5;" x="73.832727" xlink:href="#m33874d4c8c" y="307.584"/>
      </g>
     </g>
     <g id="text_1">
      <!-- 0 -->
      <defs>
       <path d="M 31.78125 66.40625 
Q 24.171875 66.40625 20.328125 58.90625 
Q 16.5 51.421875 16.5 36.375 
Q 16.5 21.390625 20.328125 13.890625 
Q 24.171875 6.390625 31.78125 6.390625 
Q 39.453125 6.390625 43.28125 13.890625 
Q 47.125 21.390625 47.125 36.375 
Q 47.125 51.421875 43.28125 58.90625 
Q 39.453125 66.40625 31.78125 66.40625 
z
M 31.78125 74.21875 
Q 44.046875 74.21875 50.515625 64.515625 
Q 56.984375 54.828125 56.984375 36.375 
Q 56.984375 17.96875 50.515625 8.265625 
Q 44.046875 -1.421875 31.78125 -1.421875 
Q 19.53125 -1.421875 13.0625 8.265625 
Q 6.59375 17.96875 6.59375 36.375 
Q 6.59375 54.828125 13.0625 64.515625 
Q 19.53125 74.21875 31.78125 74.21875 
z
" id="DejaVuSans-48"/>
      </defs>
      <g transform="translate(66.833977 339.800562)scale(0.22 -0.22)">
       <use xlink:href="#DejaVuSans-48"/>
      </g>
     </g>
    </g>
    <g id="xtick_2">
     <g id="line2d_2">
      <g>
       <use style="stroke:#000000;stroke-width:2.5;" x="164.014545" xlink:href="#m33874d4c8c" y="307.584"/>
      </g>
     </g>
     <g id="text_2">
      <!-- 50 -->
      <defs>
       <path d="M 10.796875 72.90625 
L 49.515625 72.90625 
L 49.515625 64.59375 
L 19.828125 64.59375 
L 19.828125 46.734375 
Q 21.96875 47.46875 24.109375 47.828125 
Q 26.265625 48.1875 28.421875 48.1875 
Q 40.625 48.1875 47.75 41.5 
Q 54.890625 34.8125 54.890625 23.390625 
Q 54.890625 11.625 47.5625 5.09375 
Q 40.234375 -1.421875 26.90625 -1.421875 
Q 22.3125 -1.421875 17.546875 -0.640625 
Q 12.796875 0.140625 7.71875 1.703125 
L 7.71875 11.625 
Q 12.109375 9.234375 16.796875 8.0625 
Q 21.484375 6.890625 26.703125 6.890625 
Q 35.15625 6.890625 40.078125 11.328125 
Q 45.015625 15.765625 45.015625 23.390625 
Q 45.015625 31 40.078125 35.4375 
Q 35.15625 39.890625 26.703125 39.890625 
Q 22.75 39.890625 18.8125 39.015625 
Q 14.890625 38.140625 10.796875 36.28125 
z
" id="DejaVuSans-53"/>
      </defs>
      <g transform="translate(150.017045 339.800562)scale(0.22 -0.22)">
       <use xlink:href="#DejaVuSans-53"/>
       <use x="63.623047" xlink:href="#DejaVuSans-48"/>
      </g>
     </g>
    </g>
    <g id="xtick_3">
     <g id="line2d_3">
      <g>
       <use style="stroke:#000000;stroke-width:2.5;" x="254.196364" xlink:href="#m33874d4c8c" y="307.584"/>
      </g>
     </g>
     <g id="text_3">
      <!-- 100 -->
      <defs>
       <path d="M 12.40625 8.296875 
L 28.515625 8.296875 
L 28.515625 63.921875 
L 10.984375 60.40625 
L 10.984375 69.390625 
L 28.421875 72.90625 
L 38.28125 72.90625 
L 38.28125 8.296875 
L 54.390625 8.296875 
L 54.390625 0 
L 12.40625 0 
z
" id="DejaVuSans-49"/>
      </defs>
      <g transform="translate(233.200114 339.800562)scale(0.22 -0.22)">
       <use xlink:href="#DejaVuSans-49"/>
       <use x="63.623047" xlink:href="#DejaVuSans-48"/>
       <use x="127.246094" xlink:href="#DejaVuSans-48"/>
      </g>
     </g>
    </g>
    <g id="xtick_4">
     <g id="line2d_4">
      <g>
       <use style="stroke:#000000;stroke-width:2.5;" x="344.378182" xlink:href="#m33874d4c8c" y="307.584"/>
      </g>
     </g>
     <g id="text_4">
      <!-- 150 -->
      <g transform="translate(323.381932 339.800562)scale(0.22 -0.22)">
       <use xlink:href="#DejaVuSans-49"/>
       <use x="63.623047" xlink:href="#DejaVuSans-53"/>
       <use x="127.246094" xlink:href="#DejaVuSans-48"/>
      </g>
     </g>
    </g>
    <g id="text_5">
     <!-- Degrees -->
     <defs>
      <path d="M 19.671875 64.796875 
L 19.671875 8.109375 
L 31.59375 8.109375 
Q 46.6875 8.109375 53.6875 14.9375 
Q 60.6875 21.78125 60.6875 36.53125 
Q 60.6875 51.171875 53.6875 57.984375 
Q 46.6875 64.796875 31.59375 64.796875 
z
M 9.8125 72.90625 
L 30.078125 72.90625 
Q 51.265625 72.90625 61.171875 64.09375 
Q 71.09375 55.28125 71.09375 36.53125 
Q 71.09375 17.671875 61.125 8.828125 
Q 51.171875 0 30.078125 0 
L 9.8125 0 
z
" id="DejaVuSans-68"/>
      <path d="M 56.203125 29.59375 
L 56.203125 25.203125 
L 14.890625 25.203125 
Q 15.484375 15.921875 20.484375 11.0625 
Q 25.484375 6.203125 34.421875 6.203125 
Q 39.59375 6.203125 44.453125 7.46875 
Q 49.3125 8.734375 54.109375 11.28125 
L 54.109375 2.78125 
Q 49.265625 0.734375 44.1875 -0.34375 
Q 39.109375 -1.421875 33.890625 -1.421875 
Q 20.796875 -1.421875 13.15625 6.1875 
Q 5.515625 13.8125 5.515625 26.8125 
Q 5.515625 40.234375 12.765625 48.109375 
Q 20.015625 56 32.328125 56 
Q 43.359375 56 49.78125 48.890625 
Q 56.203125 41.796875 56.203125 29.59375 
z
M 47.21875 32.234375 
Q 47.125 39.59375 43.09375 43.984375 
Q 39.0625 48.390625 32.421875 48.390625 
Q 24.90625 48.390625 20.390625 44.140625 
Q 15.875 39.890625 15.1875 32.171875 
z
" id="DejaVuSans-101"/>
      <path d="M 45.40625 27.984375 
Q 45.40625 37.75 41.375 43.109375 
Q 37.359375 48.484375 30.078125 48.484375 
Q 22.859375 48.484375 18.828125 43.109375 
Q 14.796875 37.75 14.796875 27.984375 
Q 14.796875 18.265625 18.828125 12.890625 
Q 22.859375 7.515625 30.078125 7.515625 
Q 37.359375 7.515625 41.375 12.890625 
Q 45.40625 18.265625 45.40625 27.984375 
z
M 54.390625 6.78125 
Q 54.390625 -7.171875 48.1875 -13.984375 
Q 42 -20.796875 29.203125 -20.796875 
Q 24.46875 -20.796875 20.265625 -20.09375 
Q 16.0625 -19.390625 12.109375 -17.921875 
L 12.109375 -9.1875 
Q 16.0625 -11.328125 19.921875 -12.34375 
Q 23.78125 -13.375 27.78125 -13.375 
Q 36.625 -13.375 41.015625 -8.765625 
Q 45.40625 -4.15625 45.40625 5.171875 
L 45.40625 9.625 
Q 42.625 4.78125 38.28125 2.390625 
Q 33.9375 0 27.875 0 
Q 17.828125 0 11.671875 7.65625 
Q 5.515625 15.328125 5.515625 27.984375 
Q 5.515625 40.671875 11.671875 48.328125 
Q 17.828125 56 27.875 56 
Q 33.9375 56 38.28125 53.609375 
Q 42.625 51.21875 45.40625 46.390625 
L 45.40625 54.6875 
L 54.390625 54.6875 
z
" id="DejaVuSans-103"/>
      <path d="M 41.109375 46.296875 
Q 39.59375 47.171875 37.8125 47.578125 
Q 36.03125 48 33.890625 48 
Q 26.265625 48 22.1875 43.046875 
Q 18.109375 38.09375 18.109375 28.8125 
L 18.109375 0 
L 9.078125 0 
L 9.078125 54.6875 
L 18.109375 54.6875 
L 18.109375 46.1875 
Q 20.953125 51.171875 25.484375 53.578125 
Q 30.03125 56 36.53125 56 
Q 37.453125 56 38.578125 55.875 
Q 39.703125 55.765625 41.0625 55.515625 
z
" id="DejaVuSans-114"/>
      <path d="M 44.28125 53.078125 
L 44.28125 44.578125 
Q 40.484375 46.53125 36.375 47.5 
Q 32.28125 48.484375 27.875 48.484375 
Q 21.1875 48.484375 17.84375 46.4375 
Q 14.5 44.390625 14.5 40.28125 
Q 14.5 37.15625 16.890625 35.375 
Q 19.28125 33.59375 26.515625 31.984375 
L 29.59375 31.296875 
Q 39.15625 29.25 43.1875 25.515625 
Q 47.21875 21.78125 47.21875 15.09375 
Q 47.21875 7.46875 41.1875 3.015625 
Q 35.15625 -1.421875 24.609375 -1.421875 
Q 20.21875 -1.421875 15.453125 -0.5625 
Q 10.6875 0.296875 5.421875 2 
L 5.421875 11.28125 
Q 10.40625 8.6875 15.234375 7.390625 
Q 20.0625 6.109375 24.8125 6.109375 
Q 31.15625 6.109375 34.5625 8.28125 
Q 37.984375 10.453125 37.984375 14.40625 
Q 37.984375 18.0625 35.515625 20.015625 
Q 33.0625 21.96875 24.703125 23.78125 
L 21.578125 24.515625 
Q 13.234375 26.265625 9.515625 29.90625 
Q 5.8125 33.546875 5.8125 39.890625 
Q 5.8125 47.609375 11.28125 51.796875 
Q 16.75 56 26.8125 56 
Q 31.78125 56 36.171875 55.265625 
Q 40.578125 54.546875 44.28125 53.078125 
z
" id="DejaVuSans-115"/>
     </defs>
     <g transform="translate(185.97 366.612125)scale(0.24 -0.24)">
      <use xlink:href="#DejaVuSans-68"/>
      <use x="77.001953" xlink:href="#DejaVuSans-101"/>
      <use x="138.525391" xlink:href="#DejaVuSans-103"/>
      <use x="202.001953" xlink:href="#DejaVuSans-114"/>
      <use x="243.083984" xlink:href="#DejaVuSans-101"/>
      <use x="304.607422" xlink:href="#DejaVuSans-101"/>
      <use x="366.130859" xlink:href="#DejaVuSans-115"/>
     </g>
    </g>
   </g>
   <g id="matplotlib.axis_2">
    <g id="ytick_1">
     <g id="line2d_5">
      <defs>
       <path d="M 0 0 
L -12 0 
" id="mafd8842c04" style="stroke:#000000;stroke-width:2.5;"/>
      </defs>
      <g>
       <use style="stroke:#000000;stroke-width:2.5;" x="57.6" xlink:href="#mafd8842c04" y="285.408"/>
      </g>
     </g>
     <g id="text_6">
      <!-- 0 -->
      <g transform="translate(28.1025 293.766281)scale(0.22 -0.22)">
       <use xlink:href="#DejaVuSans-48"/>
      </g>
     </g>
    </g>
    <g id="ytick_2">
     <g id="line2d_6">
      <g>
       <use style="stroke:#000000;stroke-width:2.5;" x="57.6" xlink:href="#mafd8842c04" y="239.828552"/>
      </g>
     </g>
     <g id="text_7">
      <!-- 1 -->
      <g transform="translate(28.1025 248.186833)scale(0.22 -0.22)">
       <use xlink:href="#DejaVuSans-49"/>
      </g>
     </g>
    </g>
    <g id="ytick_3">
     <g id="line2d_7">
      <g>
       <use style="stroke:#000000;stroke-width:2.5;" x="57.6" xlink:href="#mafd8842c04" y="194.249104"/>
      </g>
     </g>
     <g id="text_8">
      <!-- 2 -->
      <defs>
       <path d="M 19.1875 8.296875 
L 53.609375 8.296875 
L 53.609375 0 
L 7.328125 0 
L 7.328125 8.296875 
Q 12.9375 14.109375 22.625 23.890625 
Q 32.328125 33.6875 34.8125 36.53125 
Q 39.546875 41.84375 41.421875 45.53125 
Q 43.3125 49.21875 43.3125 52.78125 
Q 43.3125 58.59375 39.234375 62.25 
Q 35.15625 65.921875 28.609375 65.921875 
Q 23.96875 65.921875 18.8125 64.3125 
Q 13.671875 62.703125 7.8125 59.421875 
L 7.8125 69.390625 
Q 13.765625 71.78125 18.9375 73 
Q 24.125 74.21875 28.421875 74.21875 
Q 39.75 74.21875 46.484375 68.546875 
Q 53.21875 62.890625 53.21875 53.421875 
Q 53.21875 48.921875 51.53125 44.890625 
Q 49.859375 40.875 45.40625 35.40625 
Q 44.1875 33.984375 37.640625 27.21875 
Q 31.109375 20.453125 19.1875 8.296875 
z
" id="DejaVuSans-50"/>
      </defs>
      <g transform="translate(28.1025 202.607385)scale(0.22 -0.22)">
       <use xlink:href="#DejaVuSans-50"/>
      </g>
     </g>
    </g>
    <g id="ytick_4">
     <g id="line2d_8">
      <g>
       <use style="stroke:#000000;stroke-width:2.5;" x="57.6" xlink:href="#mafd8842c04" y="148.669656"/>
      </g>
     </g>
     <g id="text_9">
      <!-- 3 -->
      <defs>
       <path d="M 40.578125 39.3125 
Q 47.65625 37.796875 51.625 33 
Q 55.609375 28.21875 55.609375 21.1875 
Q 55.609375 10.40625 48.1875 4.484375 
Q 40.765625 -1.421875 27.09375 -1.421875 
Q 22.515625 -1.421875 17.65625 -0.515625 
Q 12.796875 0.390625 7.625 2.203125 
L 7.625 11.71875 
Q 11.71875 9.328125 16.59375 8.109375 
Q 21.484375 6.890625 26.8125 6.890625 
Q 36.078125 6.890625 40.9375 10.546875 
Q 45.796875 14.203125 45.796875 21.1875 
Q 45.796875 27.640625 41.28125 31.265625 
Q 36.765625 34.90625 28.71875 34.90625 
L 20.21875 34.90625 
L 20.21875 43.015625 
L 29.109375 43.015625 
Q 36.375 43.015625 40.234375 45.921875 
Q 44.09375 48.828125 44.09375 54.296875 
Q 44.09375 59.90625 40.109375 62.90625 
Q 36.140625 65.921875 28.71875 65.921875 
Q 24.65625 65.921875 20.015625 65.03125 
Q 15.375 64.15625 9.8125 62.3125 
L 9.8125 71.09375 
Q 15.4375 72.65625 20.34375 73.4375 
Q 25.25 74.21875 29.59375 74.21875 
Q 40.828125 74.21875 47.359375 69.109375 
Q 53.90625 64.015625 53.90625 55.328125 
Q 53.90625 49.265625 50.4375 45.09375 
Q 46.96875 40.921875 40.578125 39.3125 
z
" id="DejaVuSans-51"/>
      </defs>
      <g transform="translate(28.1025 157.027937)scale(0.22 -0.22)">
       <use xlink:href="#DejaVuSans-51"/>
      </g>
     </g>
    </g>
    <g id="ytick_5">
     <g id="line2d_9">
      <g>
       <use style="stroke:#000000;stroke-width:2.5;" x="57.6" xlink:href="#mafd8842c04" y="103.090208"/>
      </g>
     </g>
     <g id="text_10">
      <!-- 4 -->
      <defs>
       <path d="M 37.796875 64.3125 
L 12.890625 25.390625 
L 37.796875 25.390625 
z
M 35.203125 72.90625 
L 47.609375 72.90625 
L 47.609375 25.390625 
L 58.015625 25.390625 
L 58.015625 17.1875 
L 47.609375 17.1875 
L 47.609375 0 
L 37.796875 0 
L 37.796875 17.1875 
L 4.890625 17.1875 
L 4.890625 26.703125 
z
" id="DejaVuSans-52"/>
      </defs>
      <g transform="translate(28.1025 111.448489)scale(0.22 -0.22)">
       <use xlink:href="#DejaVuSans-52"/>
      </g>
     </g>
    </g>
    <g id="ytick_6">
     <g id="line2d_10">
      <g>
       <use style="stroke:#000000;stroke-width:2.5;" x="57.6" xlink:href="#mafd8842c04" y="57.51076"/>
      </g>
     </g>
     <g id="text_11">
      <!-- 5 -->
      <g transform="translate(28.1025 65.869042)scale(0.22 -0.22)">
       <use xlink:href="#DejaVuSans-53"/>
      </g>
     </g>
    </g>
    <g id="text_12">
     <!-- Activation -->
     <defs>
      <path d="M 34.1875 63.1875 
L 20.796875 26.90625 
L 47.609375 26.90625 
z
M 28.609375 72.90625 
L 39.796875 72.90625 
L 67.578125 0 
L 57.328125 0 
L 50.6875 18.703125 
L 17.828125 18.703125 
L 11.1875 0 
L 0.78125 0 
z
" id="DejaVuSans-65"/>
      <path d="M 48.78125 52.59375 
L 48.78125 44.1875 
Q 44.96875 46.296875 41.140625 47.34375 
Q 37.3125 48.390625 33.40625 48.390625 
Q 24.65625 48.390625 19.8125 42.84375 
Q 14.984375 37.3125 14.984375 27.296875 
Q 14.984375 17.28125 19.8125 11.734375 
Q 24.65625 6.203125 33.40625 6.203125 
Q 37.3125 6.203125 41.140625 7.25 
Q 44.96875 8.296875 48.78125 10.40625 
L 48.78125 2.09375 
Q 45.015625 0.34375 40.984375 -0.53125 
Q 36.96875 -1.421875 32.421875 -1.421875 
Q 20.0625 -1.421875 12.78125 6.34375 
Q 5.515625 14.109375 5.515625 27.296875 
Q 5.515625 40.671875 12.859375 48.328125 
Q 20.21875 56 33.015625 56 
Q 37.15625 56 41.109375 55.140625 
Q 45.0625 54.296875 48.78125 52.59375 
z
" id="DejaVuSans-99"/>
      <path d="M 18.3125 70.21875 
L 18.3125 54.6875 
L 36.8125 54.6875 
L 36.8125 47.703125 
L 18.3125 47.703125 
L 18.3125 18.015625 
Q 18.3125 11.328125 20.140625 9.421875 
Q 21.96875 7.515625 27.59375 7.515625 
L 36.8125 7.515625 
L 36.8125 0 
L 27.59375 0 
Q 17.1875 0 13.234375 3.875 
Q 9.28125 7.765625 9.28125 18.015625 
L 9.28125 47.703125 
L 2.6875 47.703125 
L 2.6875 54.6875 
L 9.28125 54.6875 
L 9.28125 70.21875 
z
" id="DejaVuSans-116"/>
      <path d="M 9.421875 54.6875 
L 18.40625 54.6875 
L 18.40625 0 
L 9.421875 0 
z
M 9.421875 75.984375 
L 18.40625 75.984375 
L 18.40625 64.59375 
L 9.421875 64.59375 
z
" id="DejaVuSans-105"/>
      <path d="M 2.984375 54.6875 
L 12.5 54.6875 
L 29.59375 8.796875 
L 46.6875 54.6875 
L 56.203125 54.6875 
L 35.6875 0 
L 23.484375 0 
z
" id="DejaVuSans-118"/>
      <path d="M 34.28125 27.484375 
Q 23.390625 27.484375 19.1875 25 
Q 14.984375 22.515625 14.984375 16.5 
Q 14.984375 11.71875 18.140625 8.90625 
Q 21.296875 6.109375 26.703125 6.109375 
Q 34.1875 6.109375 38.703125 11.40625 
Q 43.21875 16.703125 43.21875 25.484375 
L 43.21875 27.484375 
z
M 52.203125 31.203125 
L 52.203125 0 
L 43.21875 0 
L 43.21875 8.296875 
Q 40.140625 3.328125 35.546875 0.953125 
Q 30.953125 -1.421875 24.3125 -1.421875 
Q 15.921875 -1.421875 10.953125 3.296875 
Q 6 8.015625 6 15.921875 
Q 6 25.140625 12.171875 29.828125 
Q 18.359375 34.515625 30.609375 34.515625 
L 43.21875 34.515625 
L 43.21875 35.40625 
Q 43.21875 41.609375 39.140625 45 
Q 35.0625 48.390625 27.6875 48.390625 
Q 23 48.390625 18.546875 47.265625 
Q 14.109375 46.140625 10.015625 43.890625 
L 10.015625 52.203125 
Q 14.9375 54.109375 19.578125 55.046875 
Q 24.21875 56 28.609375 56 
Q 40.484375 56 46.34375 49.84375 
Q 52.203125 43.703125 52.203125 31.203125 
z
" id="DejaVuSans-97"/>
      <path d="M 30.609375 48.390625 
Q 23.390625 48.390625 19.1875 42.75 
Q 14.984375 37.109375 14.984375 27.296875 
Q 14.984375 17.484375 19.15625 11.84375 
Q 23.34375 6.203125 30.609375 6.203125 
Q 37.796875 6.203125 41.984375 11.859375 
Q 46.1875 17.53125 46.1875 27.296875 
Q 46.1875 37.015625 41.984375 42.703125 
Q 37.796875 48.390625 30.609375 48.390625 
z
M 30.609375 56 
Q 42.328125 56 49.015625 48.375 
Q 55.71875 40.765625 55.71875 27.296875 
Q 55.71875 13.875 49.015625 6.21875 
Q 42.328125 -1.421875 30.609375 -1.421875 
Q 18.84375 -1.421875 12.171875 6.21875 
Q 5.515625 13.875 5.515625 27.296875 
Q 5.515625 40.765625 12.171875 48.375 
Q 18.84375 56 30.609375 56 
z
" id="DejaVuSans-111"/>
      <path d="M 54.890625 33.015625 
L 54.890625 0 
L 45.90625 0 
L 45.90625 32.71875 
Q 45.90625 40.484375 42.875 44.328125 
Q 39.84375 48.1875 33.796875 48.1875 
Q 26.515625 48.1875 22.3125 43.546875 
Q 18.109375 38.921875 18.109375 30.90625 
L 18.109375 0 
L 9.078125 0 
L 9.078125 54.6875 
L 18.109375 54.6875 
L 18.109375 46.1875 
Q 21.34375 51.125 25.703125 53.5625 
Q 30.078125 56 35.796875 56 
Q 45.21875 56 50.046875 50.171875 
Q 54.890625 44.34375 54.890625 33.015625 
z
" id="DejaVuSans-110"/>
     </defs>
     <g transform="translate(19.11125 234.813)rotate(-90)scale(0.24 -0.24)">
      <use xlink:href="#DejaVuSans-65"/>
      <use x="68.392578" xlink:href="#DejaVuSans-99"/>
      <use x="123.373047" xlink:href="#DejaVuSans-116"/>
      <use x="162.582031" xlink:href="#DejaVuSans-105"/>
      <use x="190.365234" xlink:href="#DejaVuSans-118"/>
      <use x="249.544922" xlink:href="#DejaVuSans-97"/>
      <use x="310.824219" xlink:href="#DejaVuSans-116"/>
      <use x="350.033203" xlink:href="#DejaVuSans-105"/>
      <use x="377.816406" xlink:href="#DejaVuSans-111"/>
      <use x="438.998047" xlink:href="#DejaVuSans-110"/>
     </g>
    </g>
   </g>
   <g id="line2d_11">
    <path clip-path="url(#p16308c29cb)" d="M 73.832727 273.80956 
L 90.065455 254.06136 
L 106.298182 247.214906 
L 122.530909 238.372914 
L 138.763636 228.029721 
L 154.996364 226.568888 
L 171.229091 228.695905 
L 187.461818 213.260197 
L 203.694545 208.129637 
L 219.927273 209.076777 
L 236.16 215.869285 
L 252.392727 215.647522 
L 268.625455 216.704592 
L 284.858182 242.267503 
L 301.090909 238.256072 
L 317.323636 258.118172 
L 333.556364 263.145944 
L 349.789091 268.385466 
L 366.021818 265.468309 
L 382.254545 269.151127 
L 398.487273 273.80956 
" style="fill:none;stroke:#0e4db3;stroke-linecap:square;stroke-width:3;"/>
   </g>
   <g id="line2d_12">
    <path clip-path="url(#p16308c29cb)" d="M 73.832727 276.179374 
L 90.065455 260.006042 
L 106.298182 253.930815 
L 122.530909 247.394165 
L 138.763636 239.408652 
L 154.996364 238.54816 
L 171.229091 239.519316 
L 187.461818 225.829618 
L 203.694545 223.284232 
L 219.927273 222.558263 
L 236.16 226.054955 
L 252.392727 228.290469 
L 268.625455 228.766953 
L 284.858182 250.846235 
L 301.090909 246.866279 
L 317.323636 262.903181 
L 333.556364 266.763445 
L 349.789091 270.263525 
L 366.021818 268.766434 
L 382.254545 271.521698 
L 398.487273 276.179374 
" style="fill:none;stroke:#d44e4e;stroke-linecap:square;stroke-width:3;"/>
   </g>
   <g id="line2d_13">
    <path clip-path="url(#p16308c29cb)" d="M 73.832727 206.563036 
L 90.065455 205.963868 
L 106.298182 211.278619 
L 122.530909 221.494119 
L 138.763636 223.313731 
L 154.996364 225.544441 
L 171.229091 225.402507 
L 187.461818 213.906669 
L 203.694545 210.098578 
L 219.927273 223.679872 
L 236.16 223.670842 
L 252.392727 221.637259 
L 268.625455 210.33393 
L 284.858182 218.503981 
L 301.090909 208.283459 
L 317.323636 211.840083 
L 333.556364 211.441868 
L 349.789091 198.290417 
L 366.021818 202.026585 
L 382.254545 198.490848 
L 398.487273 206.563036 
" style="fill:none;stroke:#0e4db3;stroke-linecap:square;stroke-width:3;"/>
   </g>
   <g id="line2d_14">
    <path clip-path="url(#p16308c29cb)" d="M 73.832727 222.99635 
L 90.065455 215.83256 
L 106.298182 224.70477 
L 122.530909 234.660501 
L 138.763636 235.858342 
L 154.996364 237.849815 
L 171.229091 237.847316 
L 187.461818 228.974866 
L 203.694545 226.278718 
L 219.927273 236.671171 
L 236.16 236.634114 
L 252.392727 234.123281 
L 268.625455 225.839175 
L 284.858182 231.029107 
L 301.090909 224.488256 
L 317.323636 227.187301 
L 333.556364 226.752774 
L 349.789091 216.572189 
L 366.021818 218.446907 
L 382.254545 216.527167 
L 398.487273 222.99635 
" style="fill:none;stroke:#d44e4e;stroke-linecap:square;stroke-width:3;"/>
   </g>
   <g id="line2d_15">
    <path clip-path="url(#p16308c29cb)" d="M 73.832727 205.48953 
L 90.065455 201.628881 
L 106.298182 201.598279 
L 122.530909 201.61947 
L 138.763636 193.169947 
L 154.996364 193.588315 
L 171.229091 192.832647 
L 187.461818 198.494081 
L 203.694545 191.648254 
L 219.927273 194.737537 
L 236.16 199.927224 
L 252.392727 200.017122 
L 268.625455 200.949074 
L 284.858182 206.597017 
L 301.090909 207.632739 
L 317.323636 208.080785 
L 333.556364 207.87234 
L 349.789091 208.528483 
L 366.021818 206.729741 
L 382.254545 205.781243 
L 398.487273 205.48953 
" style="fill:none;stroke:#0e4db3;stroke-linecap:square;stroke-width:3;"/>
   </g>
   <g id="line2d_16">
    <path clip-path="url(#p16308c29cb)" d="M 73.832727 219.477097 
L 90.065455 216.69736 
L 106.298182 216.464405 
L 122.530909 216.211791 
L 138.763636 210.957928 
L 154.996364 210.871329 
L 171.229091 209.623066 
L 187.461818 213.912347 
L 203.694545 207.795956 
L 219.927273 210.736448 
L 236.16 214.96388 
L 252.392727 214.86605 
L 268.625455 215.710746 
L 284.858182 218.722728 
L 301.090909 219.485384 
L 317.323636 220.5169 
L 333.556364 221.040352 
L 349.789091 221.537016 
L 366.021818 220.060372 
L 382.254545 219.482683 
L 398.487273 219.477097 
" style="fill:none;stroke:#d44e4e;stroke-linecap:square;stroke-width:3;"/>
   </g>
   <g id="line2d_17">
    <path clip-path="url(#p16308c29cb)" d="M 73.832727 194.945021 
L 90.065455 194.837437 
L 106.298182 195.192592 
L 122.530909 203.671005 
L 138.763636 204.536234 
L 154.996364 206.699797 
L 171.229091 204.809327 
L 187.461818 202.54563 
L 203.694545 196.575177 
L 219.927273 198.684753 
L 236.16 197.832922 
L 252.392727 194.038687 
L 268.625455 192.705492 
L 284.858182 192.778714 
L 301.090909 188.567506 
L 317.323636 187.914574 
L 333.556364 177.826641 
L 349.789091 187.099007 
L 366.021818 186.606515 
L 382.254545 191.044028 
L 398.487273 194.945021 
" style="fill:none;stroke:#0e4db3;stroke-linecap:square;stroke-width:3;"/>
   </g>
   <g id="line2d_18">
    <path clip-path="url(#p16308c29cb)" d="M 73.832727 214.000424 
L 90.065455 213.996892 
L 106.298182 214.241117 
L 122.530909 220.554945 
L 138.763636 220.967858 
L 154.996364 222.01273 
L 171.229091 221.335336 
L 187.461818 218.46092 
L 203.694545 215.555609 
L 219.927273 216.691535 
L 236.16 216.857876 
L 252.392727 212.72276 
L 268.625455 210.856778 
L 284.858182 210.336706 
L 301.090909 207.993507 
L 317.323636 207.991844 
L 333.556364 201.287266 
L 349.789091 207.454477 
L 366.021818 206.70898 
L 382.254545 210.616846 
L 398.487273 214.000424 
" style="fill:none;stroke:#d44e4e;stroke-linecap:square;stroke-width:3;"/>
   </g>
   <g id="line2d_19">
    <path clip-path="url(#p16308c29cb)" d="M 73.832727 256.384135 
L 90.065455 255.940406 
L 106.298182 256.339355 
L 122.530909 255.373995 
L 138.763636 244.216859 
L 154.996364 242.770773 
L 171.229091 233.754645 
L 187.461818 236.532133 
L 203.694545 222.867424 
L 219.927273 212.1299 
L 236.16 212.299132 
L 252.392727 200.822512 
L 268.625455 190.710531 
L 284.858182 196.11107 
L 301.090909 182.115222 
L 317.323636 190.248379 
L 333.556364 192.555158 
L 349.789091 230.108391 
L 366.021818 233.579491 
L 382.254545 233.19606 
L 398.487273 256.384135 
" style="fill:none;stroke:#0e4db3;stroke-linecap:square;stroke-width:3;"/>
   </g>
   <g id="line2d_20">
    <path clip-path="url(#p16308c29cb)" d="M 73.832727 258.87117 
L 90.065455 258.222732 
L 106.298182 258.572768 
L 122.530909 258.151599 
L 138.763636 249.414292 
L 154.996364 248.319799 
L 171.229091 240.426584 
L 187.461818 242.5534 
L 203.694545 231.831721 
L 219.927273 223.981154 
L 236.16 224.002855 
L 252.392727 214.416347 
L 268.625455 206.410072 
L 284.858182 211.633996 
L 301.090909 200.064654 
L 317.323636 205.788003 
L 333.556364 208.028966 
L 349.789091 237.378764 
L 366.021818 240.27785 
L 382.254545 240.248985 
L 398.487273 258.87117 
" style="fill:none;stroke:#d44e4e;stroke-linecap:square;stroke-width:3;"/>
   </g>
   <g id="line2d_21">
    <path clip-path="url(#p16308c29cb)" d="M 73.832727 285.408 
L 90.065455 285.408 
L 106.298182 285.408 
L 122.530909 285.408 
L 138.763636 285.408 
L 154.996364 285.408 
L 171.229091 285.408 
L 187.461818 285.408 
L 203.694545 285.408 
L 219.927273 285.408 
L 236.16 285.408 
L 252.392727 285.408 
L 268.625455 285.408 
L 284.858182 285.408 
L 301.090909 285.408 
L 317.323636 285.408 
L 333.556364 285.408 
L 349.789091 285.408 
L 366.021818 285.408 
L 382.254545 285.408 
L 398.487273 285.408 
" style="fill:none;stroke:#0e4db3;stroke-linecap:square;stroke-width:3;"/>
   </g>
   <g id="line2d_22">
    <path clip-path="url(#p16308c29cb)" d="M 73.832727 285.408 
L 90.065455 285.408 
L 106.298182 285.408 
L 122.530909 285.408 
L 138.763636 285.408 
L 154.996364 285.408 
L 171.229091 285.408 
L 187.461818 285.408 
L 203.694545 285.408 
L 219.927273 285.408 
L 236.16 285.408 
L 252.392727 285.408 
L 268.625455 285.408 
L 284.858182 285.408 
L 301.090909 285.408 
L 317.323636 285.408 
L 333.556364 285.408 
L 349.789091 285.408 
L 366.021818 285.408 
L 382.254545 285.408 
L 398.487273 285.408 
" style="fill:none;stroke:#d44e4e;stroke-linecap:square;stroke-width:3;"/>
   </g>
   <g id="line2d_23">
    <path clip-path="url(#p16308c29cb)" d="M 73.832727 285.408 
L 90.065455 285.000548 
L 106.298182 285.245689 
L 122.530909 285.096613 
L 138.763636 285.271409 
L 154.996364 285.408 
L 171.229091 285.408 
L 187.461818 285.408 
L 203.694545 285.408 
L 219.927273 285.408 
L 236.16 285.408 
L 252.392727 285.408 
L 268.625455 284.460482 
L 284.858182 285.408 
L 301.090909 285.408 
L 317.323636 285.408 
L 333.556364 285.408 
L 349.789091 285.408 
L 366.021818 285.408 
L 382.254545 285.408 
L 398.487273 285.408 
" style="fill:none;stroke:#0e4db3;stroke-linecap:square;stroke-width:3;"/>
   </g>
   <g id="line2d_24">
    <path clip-path="url(#p16308c29cb)" d="M 73.832727 285.408 
L 90.065455 285.408 
L 106.298182 285.408 
L 122.530909 285.408 
L 138.763636 285.408 
L 154.996364 285.408 
L 171.229091 285.408 
L 187.461818 285.408 
L 203.694545 285.408 
L 219.927273 285.408 
L 236.16 285.408 
L 252.392727 285.408 
L 268.625455 285.408 
L 284.858182 285.408 
L 301.090909 285.408 
L 317.323636 285.408 
L 333.556364 285.408 
L 349.789091 285.408 
L 366.021818 285.408 
L 382.254545 285.408 
L 398.487273 285.408 
" style="fill:none;stroke:#d44e4e;stroke-linecap:square;stroke-width:3;"/>
   </g>
   <g id="line2d_25">
    <path clip-path="url(#p16308c29cb)" d="M 73.832727 262.004384 
L 90.065455 254.622146 
L 106.298182 243.805826 
L 122.530909 242.7641 
L 138.763636 231.586567 
L 154.996364 229.318915 
L 171.229091 221.822443 
L 187.461818 222.760759 
L 203.694545 211.980653 
L 219.927273 212.529066 
L 236.16 238.119354 
L 252.392727 213.826183 
L 268.625455 225.846125 
L 284.858182 240.733886 
L 301.090909 237.818893 
L 317.323636 248.301531 
L 333.556364 249.594942 
L 349.789091 251.720005 
L 366.021818 252.439419 
L 382.254545 259.491105 
L 398.487273 262.004384 
" style="fill:none;stroke:#0e4db3;stroke-linecap:square;stroke-width:3;"/>
   </g>
   <g id="line2d_26">
    <path clip-path="url(#p16308c29cb)" d="M 73.832727 262.452266 
L 90.065455 256.803262 
L 106.298182 248.039881 
L 122.530909 246.308064 
L 138.763636 237.988499 
L 154.996364 236.476222 
L 171.229091 230.321845 
L 187.461818 230.583196 
L 203.694545 222.503771 
L 219.927273 222.540191 
L 236.16 243.176095 
L 252.392727 223.736804 
L 268.625455 233.241153 
L 284.858182 245.761582 
L 301.090909 242.885889 
L 317.323636 251.239522 
L 333.556364 252.157687 
L 349.789091 253.015065 
L 366.021818 253.842877 
L 382.254545 259.995344 
L 398.487273 262.452266 
" style="fill:none;stroke:#d44e4e;stroke-linecap:square;stroke-width:3;"/>
   </g>
   <g id="line2d_27">
    <path clip-path="url(#p16308c29cb)" d="M 73.832727 237.094581 
L 90.065455 233.749472 
L 106.298182 228.717139 
L 122.530909 226.68404 
L 138.763636 229.163365 
L 154.996364 229.298963 
L 171.229091 229.538819 
L 187.461818 234.784944 
L 203.694545 233.969035 
L 219.927273 236.609234 
L 236.16 238.930852 
L 252.392727 236.090037 
L 268.625455 235.485778 
L 284.858182 235.547155 
L 301.090909 235.66229 
L 317.323636 236.117856 
L 333.556364 225.532965 
L 349.789091 231.373047 
L 366.021818 229.548643 
L 382.254545 237.268143 
L 398.487273 237.094581 
" style="fill:none;stroke:#0e4db3;stroke-linecap:square;stroke-width:3;"/>
   </g>
   <g id="line2d_28">
    <path clip-path="url(#p16308c29cb)" d="M 73.832727 247.410302 
L 90.065455 244.744418 
L 106.298182 240.857857 
L 122.530909 238.532718 
L 138.763636 242.163759 
L 154.996364 242.347498 
L 171.229091 242.268365 
L 187.461818 245.490356 
L 203.694545 243.839394 
L 219.927273 247.690524 
L 236.16 245.919248 
L 252.392727 246.208663 
L 268.625455 246.117207 
L 284.858182 246.745055 
L 301.090909 247.021069 
L 317.323636 246.925404 
L 333.556364 238.707927 
L 349.789091 240.500317 
L 366.021818 240.114495 
L 382.254545 247.411601 
L 398.487273 247.410302 
" style="fill:none;stroke:#d44e4e;stroke-linecap:square;stroke-width:3;"/>
   </g>
   <g id="line2d_29">
    <path clip-path="url(#p16308c29cb)" d="M 73.832727 283.652406 
L 90.065455 265.140737 
L 106.298182 249.534934 
L 122.530909 250.530372 
L 138.763636 231.602732 
L 154.996364 230.178097 
L 171.229091 230.453602 
L 187.461818 232.153579 
L 203.694545 227.405592 
L 219.927273 227.397186 
L 236.16 234.168188 
L 252.392727 229.707073 
L 268.625455 235.500427 
L 284.858182 249.404737 
L 301.090909 243.80882 
L 317.323636 264.176108 
L 333.556364 264.499053 
L 349.789091 269.508374 
L 366.021818 279.307672 
L 382.254545 270.320424 
L 398.487273 283.652406 
" style="fill:none;stroke:#0e4db3;stroke-linecap:square;stroke-width:3;"/>
   </g>
   <g id="line2d_30">
    <path clip-path="url(#p16308c29cb)" d="M 73.832727 284.952472 
L 90.065455 270.844202 
L 106.298182 258.267091 
L 122.530909 254.72771 
L 138.763636 244.590971 
L 154.996364 243.355226 
L 171.229091 243.397216 
L 187.461818 243.335687 
L 203.694545 240.059486 
L 219.927273 240.093071 
L 236.16 245.862564 
L 252.392727 241.784708 
L 268.625455 245.408864 
L 284.858182 258.459958 
L 301.090909 252.976596 
L 317.323636 268.578457 
L 333.556364 270.284339 
L 349.789091 274.743495 
L 366.021818 281.395256 
L 382.254545 274.76388 
L 398.487273 284.952472 
" style="fill:none;stroke:#d44e4e;stroke-linecap:square;stroke-width:3;"/>
   </g>
   <g id="line2d_31">
    <path clip-path="url(#p16308c29cb)" d="M 73.832727 213.196761 
L 90.065455 212.761468 
L 106.298182 208.327042 
L 122.530909 215.384313 
L 138.763636 219.605257 
L 154.996364 234.514362 
L 171.229091 237.138913 
L 187.461818 234.733505 
L 203.694545 211.649329 
L 219.927273 195.848208 
L 236.16 197.073994 
L 252.392727 195.55957 
L 268.625455 211.56799 
L 284.858182 221.385052 
L 301.090909 208.021788 
L 317.323636 203.229436 
L 333.556364 202.0044 
L 349.789091 199.750614 
L 366.021818 194.154876 
L 382.254545 199.374323 
L 398.487273 213.196761 
" style="fill:none;stroke:#0e4db3;stroke-linecap:square;stroke-width:3;"/>
   </g>
   <g id="line2d_32">
    <path clip-path="url(#p16308c29cb)" d="M 73.832727 223.493742 
L 90.065455 223.481859 
L 106.298182 219.896243 
L 122.530909 224.550541 
L 138.763636 229.313481 
L 154.996364 240.687049 
L 171.229091 242.664716 
L 187.461818 239.646584 
L 203.694545 221.396066 
L 219.927273 209.952254 
L 236.16 210.789408 
L 252.392727 209.617855 
L 268.625455 222.118884 
L 284.858182 230.037554 
L 301.090909 219.182906 
L 317.323636 215.520699 
L 333.556364 214.699584 
L 349.789091 212.983872 
L 366.021818 208.05842 
L 382.254545 212.501127 
L 398.487273 223.493742 
" style="fill:none;stroke:#d44e4e;stroke-linecap:square;stroke-width:3;"/>
   </g>
   <g id="line2d_33">
    <path clip-path="url(#p16308c29cb)" d="M 73.832727 210.884587 
L 90.065455 210.401131 
L 106.298182 218.193087 
L 122.530909 220.370679 
L 138.763636 235.843063 
L 154.996364 246.447379 
L 171.229091 235.615649 
L 187.461818 221.721435 
L 203.694545 215.985708 
L 219.927273 230.547536 
L 236.16 228.807667 
L 252.392727 228.866696 
L 268.625455 237.18162 
L 284.858182 243.417586 
L 301.090909 233.391878 
L 317.323636 231.560236 
L 333.556364 222.03129 
L 349.789091 221.636955 
L 366.021818 216.155456 
L 382.254545 211.189172 
L 398.487273 210.884587 
" style="fill:none;stroke:#0e4db3;stroke-linecap:square;stroke-width:3;"/>
   </g>
   <g id="line2d_34">
    <path clip-path="url(#p16308c29cb)" d="M 73.832727 222.611957 
L 90.065455 220.567295 
L 106.298182 228.526467 
L 122.530909 225.728 
L 138.763636 242.445431 
L 154.996364 250.672808 
L 171.229091 241.701053 
L 187.461818 230.186981 
L 203.694545 225.762987 
L 219.927273 237.949117 
L 236.16 236.563343 
L 252.392727 236.302736 
L 268.625455 243.320762 
L 284.858182 247.730705 
L 301.090909 240.712158 
L 317.323636 238.172309 
L 333.556364 231.448975 
L 349.789091 229.80537 
L 366.021818 226.003973 
L 382.254545 220.535901 
L 398.487273 222.611957 
" style="fill:none;stroke:#d44e4e;stroke-linecap:square;stroke-width:3;"/>
   </g>
   <g id="line2d_35">
    <path clip-path="url(#p16308c29cb)" d="M 73.832727 175.363465 
L 90.065455 175.206643 
L 106.298182 172.739772 
L 122.530909 174.226898 
L 138.763636 174.073162 
L 154.996364 174.15247 
L 171.229091 172.659639 
L 187.461818 173.773027 
L 203.694545 168.657327 
L 219.927273 170.943111 
L 236.16 171.386419 
L 252.392727 171.290485 
L 268.625455 173.141296 
L 284.858182 174.556298 
L 301.090909 173.346161 
L 317.323636 173.938183 
L 333.556364 173.51837 
L 349.789091 174.758891 
L 366.021818 172.972087 
L 382.254545 174.083345 
L 398.487273 175.363465 
" style="fill:none;stroke:#0e4db3;stroke-linecap:square;stroke-width:3;"/>
   </g>
   <g id="line2d_36">
    <path clip-path="url(#p16308c29cb)" d="M 73.832727 193.058963 
L 90.065455 192.294546 
L 106.298182 190.698653 
L 122.530909 191.679442 
L 138.763636 191.654937 
L 154.996364 191.699144 
L 171.229091 190.541516 
L 187.461818 191.608394 
L 203.694545 187.415682 
L 219.927273 189.496014 
L 236.16 189.723069 
L 252.392727 189.674798 
L 268.625455 189.69262 
L 284.858182 191.490161 
L 301.090909 190.484921 
L 317.323636 191.270354 
L 333.556364 191.154686 
L 349.789091 192.241178 
L 366.021818 190.814299 
L 382.254545 191.90967 
L 398.487273 193.058963 
" style="fill:none;stroke:#d44e4e;stroke-linecap:square;stroke-width:3;"/>
   </g>
   <g id="line2d_37">
    <path clip-path="url(#p16308c29cb)" d="M 73.832727 232.080966 
L 90.065455 222.352997 
L 106.298182 222.268566 
L 122.530909 228.190737 
L 138.763636 229.008499 
L 154.996364 226.690739 
L 171.229091 226.560341 
L 187.461818 226.227974 
L 203.694545 233.889108 
L 219.927273 233.685281 
L 236.16 235.456807 
L 252.392727 246.545108 
L 268.625455 258.386918 
L 284.858182 262.856763 
L 301.090909 262.979302 
L 317.323636 261.203715 
L 333.556364 259.275819 
L 349.789091 256.283801 
L 366.021818 243.994357 
L 382.254545 232.164484 
L 398.487273 232.080966 
" style="fill:none;stroke:#0e4db3;stroke-linecap:square;stroke-width:3;"/>
   </g>
   <g id="line2d_38">
    <path clip-path="url(#p16308c29cb)" d="M 73.832727 239.604616 
L 90.065455 231.806037 
L 106.298182 232.111774 
L 122.530909 234.186999 
L 138.763636 237.296984 
L 154.996364 235.273807 
L 171.229091 235.03533 
L 187.461818 234.535596 
L 203.694545 240.683974 
L 219.927273 240.696832 
L 236.16 242.313897 
L 252.392727 251.080391 
L 268.625455 260.583074 
L 284.858182 263.873996 
L 301.090909 263.923469 
L 317.323636 262.397673 
L 333.556364 261.040998 
L 349.789091 258.490853 
L 366.021818 248.465202 
L 382.254545 238.786783 
L 398.487273 239.604616 
" style="fill:none;stroke:#d44e4e;stroke-linecap:square;stroke-width:3;"/>
   </g>
   <g id="line2d_39">
    <path clip-path="url(#p16308c29cb)" d="M 73.832727 143.288672 
L 90.065455 143.26909 
L 106.298182 142.999219 
L 122.530909 146.150449 
L 138.763636 145.191079 
L 154.996364 145.703295 
L 171.229091 145.910745 
L 187.461818 146.90614 
L 203.694545 143.502925 
L 219.927273 145.63731 
L 236.16 145.761846 
L 252.392727 145.191568 
L 268.625455 145.398736 
L 284.858182 149.169277 
L 301.090909 146.176835 
L 317.323636 146.009787 
L 333.556364 145.172986 
L 349.789091 145.255607 
L 366.021818 143.074777 
L 382.254545 143.26646 
L 398.487273 143.288672 
" style="fill:none;stroke:#0e4db3;stroke-linecap:square;stroke-width:3;"/>
   </g>
   <g id="line2d_40">
    <path clip-path="url(#p16308c29cb)" d="M 73.832727 169.866486 
L 90.065455 169.863107 
L 106.298182 169.574556 
L 122.530909 171.809514 
L 138.763636 170.691388 
L 154.996364 171.689543 
L 171.229091 171.401807 
L 187.461818 172.864634 
L 203.694545 169.72866 
L 219.927273 171.875999 
L 236.16 172.103858 
L 252.392727 171.366141 
L 268.625455 170.163383 
L 284.858182 172.15515 
L 301.090909 171.116701 
L 317.323636 171.120634 
L 333.556364 170.774999 
L 349.789091 171.163668 
L 366.021818 169.291036 
L 382.254545 169.698081 
L 398.487273 169.866486 
" style="fill:none;stroke:#d44e4e;stroke-linecap:square;stroke-width:3;"/>
   </g>
   <g id="line2d_41">
    <path clip-path="url(#p16308c29cb)" d="M 73.832727 285.408 
L 90.065455 285.408 
L 106.298182 285.408 
L 122.530909 285.408 
L 138.763636 285.408 
L 154.996364 285.408 
L 171.229091 285.408 
L 187.461818 285.408 
L 203.694545 285.408 
L 219.927273 285.408 
L 236.16 285.408 
L 252.392727 285.408 
L 268.625455 283.342504 
L 284.858182 284.817035 
L 301.090909 285.408 
L 317.323636 285.408 
L 333.556364 285.408 
L 349.789091 285.408 
L 366.021818 285.408 
L 382.254545 285.408 
L 398.487273 285.408 
" style="fill:none;stroke:#0e4db3;stroke-linecap:square;stroke-width:3;"/>
   </g>
   <g id="line2d_42">
    <path clip-path="url(#p16308c29cb)" d="M 73.832727 285.408 
L 90.065455 285.408 
L 106.298182 285.408 
L 122.530909 285.408 
L 138.763636 285.408 
L 154.996364 285.408 
L 171.229091 285.408 
L 187.461818 285.408 
L 203.694545 285.408 
L 219.927273 285.408 
L 236.16 285.408 
L 252.392727 285.408 
L 268.625455 285.408 
L 284.858182 285.408 
L 301.090909 285.408 
L 317.323636 285.408 
L 333.556364 285.408 
L 349.789091 285.408 
L 366.021818 285.408 
L 382.254545 285.408 
L 398.487273 285.408 
" style="fill:none;stroke:#d44e4e;stroke-linecap:square;stroke-width:3;"/>
   </g>
   <g id="line2d_43">
    <path clip-path="url(#p16308c29cb)" d="M 73.832727 229.937073 
L 90.065455 189.269829 
L 106.298182 198.999021 
L 122.530909 210.002112 
L 138.763636 212.099022 
L 154.996364 241.308462 
L 171.229091 250.989546 
L 187.461818 250.766979 
L 203.694545 220.969602 
L 219.927273 193.662417 
L 236.16 195.191989 
L 252.392727 192.7264 
L 268.625455 208.160347 
L 284.858182 225.244088 
L 301.090909 209.036145 
L 317.323636 201.75039 
L 333.556364 200.096228 
L 349.789091 206.231794 
L 366.021818 184.10036 
L 382.254545 203.720466 
L 398.487273 229.937073 
" style="fill:none;stroke:#0e4db3;stroke-linecap:square;stroke-width:3;"/>
   </g>
   <g id="line2d_44">
    <path clip-path="url(#p16308c29cb)" d="M 73.832727 241.708076 
L 90.065455 208.782048 
L 106.298182 214.807216 
L 122.530909 225.060425 
L 138.763636 227.858544 
L 154.996364 251.435625 
L 171.229091 259.193977 
L 187.461818 256.079876 
L 203.694545 232.683052 
L 219.927273 212.780871 
L 236.16 213.920503 
L 252.392727 211.940244 
L 268.625455 223.909155 
L 284.858182 237.725725 
L 301.090909 224.576051 
L 317.323636 218.805159 
L 333.556364 217.664136 
L 349.789091 221.175564 
L 366.021818 204.392355 
L 382.254545 220.090751 
L 398.487273 241.708076 
" style="fill:none;stroke:#d44e4e;stroke-linecap:square;stroke-width:3;"/>
   </g>
   <g id="line2d_45">
    <path clip-path="url(#p16308c29cb)" d="M 73.832727 261.565768 
L 90.065455 242.595374 
L 106.298182 249.045811 
L 122.530909 248.52883 
L 138.763636 252.973618 
L 154.996364 255.124255 
L 171.229091 260.401905 
L 187.461818 265.673942 
L 203.694545 263.35227 
L 219.927273 253.585979 
L 236.16 254.361322 
L 252.392727 254.095086 
L 268.625455 257.411066 
L 284.858182 248.695074 
L 301.090909 255.701754 
L 317.323636 265.692829 
L 333.556364 265.776323 
L 349.789091 260.64695 
L 366.021818 257.106453 
L 382.254545 256.614005 
L 398.487273 261.565768 
" style="fill:none;stroke:#0e4db3;stroke-linecap:square;stroke-width:3;"/>
   </g>
   <g id="line2d_46">
    <path clip-path="url(#p16308c29cb)" d="M 73.832727 267.622252 
L 90.065455 249.337198 
L 106.298182 254.646787 
L 122.530909 256.490811 
L 138.763636 260.543866 
L 154.996364 262.525336 
L 171.229091 266.035047 
L 187.461818 270.618128 
L 203.694545 268.247109 
L 219.927273 261.059917 
L 236.16 261.63245 
L 252.392727 261.424182 
L 268.625455 263.833058 
L 284.858182 256.87087 
L 301.090909 262.747751 
L 317.323636 270.170171 
L 333.556364 270.438599 
L 349.789091 266.379085 
L 366.021818 263.352743 
L 382.254545 263.16009 
L 398.487273 267.622252 
" style="fill:none;stroke:#d44e4e;stroke-linecap:square;stroke-width:3;"/>
   </g>
   <g id="line2d_47">
    <path clip-path="url(#p16308c29cb)" d="M 73.832727 258.517377 
L 90.065455 245.672557 
L 106.298182 229.092735 
L 122.530909 223.070924 
L 138.763636 214.550581 
L 154.996364 211.177316 
L 171.229091 219.981684 
L 187.461818 231.91882 
L 203.694545 234.191237 
L 219.927273 219.379729 
L 236.16 219.2905 
L 252.392727 226.332493 
L 268.625455 222.963548 
L 284.858182 234.505902 
L 301.090909 239.237067 
L 317.323636 268.53962 
L 333.556364 267.091442 
L 349.789091 268.349873 
L 366.021818 255.246892 
L 382.254545 258.65508 
L 398.487273 258.517377 
" style="fill:none;stroke:#0e4db3;stroke-linecap:square;stroke-width:3;"/>
   </g>
   <g id="line2d_48">
    <path clip-path="url(#p16308c29cb)" d="M 73.832727 263.64297 
L 90.065455 253.613184 
L 106.298182 232.274284 
L 122.530909 233.72801 
L 138.763636 229.420282 
L 154.996364 226.609351 
L 171.229091 233.418855 
L 187.461818 240.981102 
L 203.694545 243.975299 
L 219.927273 232.682247 
L 236.16 232.678129 
L 252.392727 237.85828 
L 268.625455 235.036917 
L 284.858182 243.687324 
L 301.090909 246.947684 
L 317.323636 272.392938 
L 333.556364 270.815974 
L 349.789091 270.457691 
L 366.021818 259.118511 
L 382.254545 262.854839 
L 398.487273 263.64297 
" style="fill:none;stroke:#d44e4e;stroke-linecap:square;stroke-width:3;"/>
   </g>
   <g id="line2d_49">
    <path clip-path="url(#p16308c29cb)" d="M 73.832727 232.463419 
L 90.065455 232.060922 
L 106.298182 231.905008 
L 122.530909 237.056759 
L 138.763636 232.016373 
L 154.996364 243.891996 
L 171.229091 245.028742 
L 187.461818 245.262692 
L 203.694545 244.466577 
L 219.927273 244.017118 
L 236.16 243.653183 
L 252.392727 237.752615 
L 268.625455 234.708658 
L 284.858182 239.500554 
L 301.090909 231.743323 
L 317.323636 231.931784 
L 333.556364 231.967493 
L 349.789091 233.21956 
L 366.021818 228.176202 
L 382.254545 232.123489 
L 398.487273 232.463419 
" style="fill:none;stroke:#0e4db3;stroke-linecap:square;stroke-width:3;"/>
   </g>
   <g id="line2d_50">
    <path clip-path="url(#p16308c29cb)" d="M 73.832727 240.34907 
L 90.065455 237.314898 
L 106.298182 237.126041 
L 122.530909 239.01581 
L 138.763636 240.280293 
L 154.996364 249.47428 
L 171.229091 250.151793 
L 187.461818 250.333826 
L 203.694545 250.240786 
L 219.927273 249.93585 
L 236.16 249.97797 
L 252.392727 244.060673 
L 268.625455 242.062875 
L 284.858182 245.55339 
L 301.090909 239.68783 
L 317.323636 239.704217 
L 333.556364 239.710873 
L 349.789091 241.030843 
L 366.021818 236.412944 
L 382.254545 239.823798 
L 398.487273 240.34907 
" style="fill:none;stroke:#d44e4e;stroke-linecap:square;stroke-width:3;"/>
   </g>
   <g id="line2d_51">
    <path clip-path="url(#p16308c29cb)" d="M 73.832727 285.408 
L 90.065455 285.408 
L 106.298182 285.408 
L 122.530909 285.408 
L 138.763636 285.408 
L 154.996364 285.408 
L 171.229091 285.408 
L 187.461818 285.408 
L 203.694545 285.408 
L 219.927273 285.408 
L 236.16 285.408 
L 252.392727 285.408 
L 268.625455 285.408 
L 284.858182 285.408 
L 301.090909 285.408 
L 317.323636 285.408 
L 333.556364 285.408 
L 349.789091 285.408 
L 366.021818 285.408 
L 382.254545 285.408 
L 398.487273 285.408 
" style="fill:none;stroke:#0e4db3;stroke-linecap:square;stroke-width:3;"/>
   </g>
   <g id="line2d_52">
    <path clip-path="url(#p16308c29cb)" d="M 73.832727 285.408 
L 90.065455 285.408 
L 106.298182 285.408 
L 122.530909 285.408 
L 138.763636 285.408 
L 154.996364 285.408 
L 171.229091 285.408 
L 187.461818 285.408 
L 203.694545 285.408 
L 219.927273 285.408 
L 236.16 285.408 
L 252.392727 285.408 
L 268.625455 285.408 
L 284.858182 285.408 
L 301.090909 285.408 
L 317.323636 285.408 
L 333.556364 285.408 
L 349.789091 285.408 
L 366.021818 285.408 
L 382.254545 285.408 
L 398.487273 285.408 
" style="fill:none;stroke:#d44e4e;stroke-linecap:square;stroke-width:3;"/>
   </g>
   <g id="line2d_53">
    <path clip-path="url(#p16308c29cb)" d="M 73.832727 215.044084 
L 90.065455 150.752086 
L 106.298182 152.514429 
L 122.530909 147.37567 
L 138.763636 122.984108 
L 154.996364 141.591596 
L 171.229091 183.496981 
L 187.461818 246.744525 
L 203.694545 216.747723 
L 219.927273 190.381543 
L 236.16 186.556353 
L 252.392727 159.368846 
L 268.625455 137.65603 
L 284.858182 124.7982 
L 301.090909 146.392859 
L 317.323636 189.693424 
L 333.556364 260.466594 
L 349.789091 285.408 
L 366.021818 264.196813 
L 382.254545 211.302423 
L 398.487273 215.044084 
" style="fill:none;stroke:#0e4db3;stroke-linecap:square;stroke-width:3;"/>
   </g>
   <g id="line2d_54">
    <path clip-path="url(#p16308c29cb)" d="M 73.832727 285.408 
L 90.065455 232.194439 
L 106.298182 237.054699 
L 122.530909 220.234391 
L 138.763636 260.989225 
L 154.996364 280.446627 
L 171.229091 285.408 
L 187.461818 285.408 
L 203.694545 285.408 
L 219.927273 285.408 
L 236.16 283.862772 
L 252.392727 261.422027 
L 268.625455 247.59283 
L 284.858182 250.393212 
L 301.090909 263.493939 
L 317.323636 285.408 
L 333.556364 285.408 
L 349.789091 285.408 
L 366.021818 285.408 
L 382.254545 285.408 
L 398.487273 285.408 
" style="fill:none;stroke:#d44e4e;stroke-linecap:square;stroke-width:3;"/>
   </g>
   <g id="line2d_55">
    <path clip-path="url(#p16308c29cb)" d="M 73.832727 285.408 
L 90.065455 285.408 
L 106.298182 285.408 
L 122.530909 285.408 
L 138.763636 285.408 
L 154.996364 285.408 
L 171.229091 285.408 
L 187.461818 285.408 
L 203.694545 285.408 
L 219.927273 285.408 
L 236.16 285.408 
L 252.392727 285.408 
L 268.625455 285.408 
L 284.858182 285.408 
L 301.090909 285.408 
L 317.323636 285.408 
L 333.556364 285.408 
L 349.789091 285.408 
L 366.021818 285.408 
L 382.254545 285.408 
L 398.487273 285.408 
" style="fill:none;stroke:#0e4db3;stroke-linecap:square;stroke-width:3;"/>
   </g>
   <g id="line2d_56">
    <path clip-path="url(#p16308c29cb)" d="M 73.832727 285.408 
L 90.065455 285.408 
L 106.298182 285.408 
L 122.530909 285.408 
L 138.763636 285.408 
L 154.996364 285.408 
L 171.229091 285.408 
L 187.461818 285.408 
L 203.694545 285.408 
L 219.927273 285.408 
L 236.16 285.408 
L 252.392727 285.408 
L 268.625455 285.408 
L 284.858182 285.408 
L 301.090909 285.408 
L 317.323636 285.408 
L 333.556364 285.408 
L 349.789091 285.408 
L 366.021818 285.408 
L 382.254545 285.408 
L 398.487273 285.408 
" style="fill:none;stroke:#d44e4e;stroke-linecap:square;stroke-width:3;"/>
   </g>
   <g id="line2d_57">
    <path clip-path="url(#p16308c29cb)" d="M 73.832727 285.408 
L 90.065455 285.408 
L 106.298182 285.408 
L 122.530909 285.408 
L 138.763636 285.408 
L 154.996364 285.408 
L 171.229091 285.408 
L 187.461818 285.408 
L 203.694545 285.408 
L 219.927273 285.408 
L 236.16 285.408 
L 252.392727 285.408 
L 268.625455 285.408 
L 284.858182 285.408 
L 301.090909 285.408 
L 317.323636 285.408 
L 333.556364 285.408 
L 349.789091 285.408 
L 366.021818 285.408 
L 382.254545 285.408 
L 398.487273 285.408 
" style="fill:none;stroke:#0e4db3;stroke-linecap:square;stroke-width:3;"/>
   </g>
   <g id="line2d_58">
    <path clip-path="url(#p16308c29cb)" d="M 73.832727 285.408 
L 90.065455 285.408 
L 106.298182 285.408 
L 122.530909 285.408 
L 138.763636 285.408 
L 154.996364 285.408 
L 171.229091 285.408 
L 187.461818 285.408 
L 203.694545 285.408 
L 219.927273 285.408 
L 236.16 285.408 
L 252.392727 285.408 
L 268.625455 285.408 
L 284.858182 285.408 
L 301.090909 285.408 
L 317.323636 285.408 
L 333.556364 285.408 
L 349.789091 285.408 
L 366.021818 285.408 
L 382.254545 285.408 
L 398.487273 285.408 
" style="fill:none;stroke:#d44e4e;stroke-linecap:square;stroke-width:3;"/>
   </g>
   <g id="line2d_59">
    <path clip-path="url(#p16308c29cb)" d="M 73.832727 45.255994 
L 90.065455 119.438569 
L 106.298182 190.90142 
L 122.530909 201.375343 
L 138.763636 197.309367 
L 154.996364 199.85911 
L 171.229091 195.077587 
L 187.461818 207.523433 
L 203.694545 219.434015 
L 219.927273 174.412636 
L 236.16 163.060112 
L 252.392727 149.643523 
L 268.625455 182.258438 
L 284.858182 147.483112 
L 301.090909 97.402427 
L 317.323636 34.591697 
L 328.952146 -1 
M 354.327088 -1 
L 366.021818 8.048603 
L 382.254545 24.447995 
L 398.487273 45.255994 
" style="fill:none;stroke:#0e4db3;stroke-linecap:square;stroke-width:3;"/>
   </g>
   <g id="line2d_60">
    <path clip-path="url(#p16308c29cb)" d="M 73.832727 285.408 
L 90.065455 285.408 
L 106.298182 285.408 
L 122.530909 285.408 
L 138.763636 285.408 
L 154.996364 285.408 
L 171.229091 285.408 
L 187.461818 285.408 
L 203.694545 285.408 
L 219.927273 285.408 
L 236.16 285.408 
L 252.392727 285.408 
L 268.625455 285.408 
L 284.858182 285.408 
L 301.090909 285.408 
L 317.323636 219.69717 
L 333.556364 251.3874 
L 349.789091 222.047846 
L 366.021818 216.293608 
L 382.254545 243.414191 
L 398.487273 285.408 
" style="fill:none;stroke:#d44e4e;stroke-linecap:square;stroke-width:3;"/>
   </g>
   <g id="line2d_61">
    <path clip-path="url(#p16308c29cb)" d="M 73.832727 285.408 
L 90.065455 285.408 
L 106.298182 285.408 
L 122.530909 285.408 
L 138.763636 285.408 
L 154.996364 285.408 
L 171.229091 285.408 
L 187.461818 285.408 
L 203.694545 285.408 
L 219.927273 285.408 
L 236.16 285.408 
L 252.392727 285.408 
L 268.625455 285.408 
L 284.858182 285.408 
L 301.090909 285.408 
L 317.323636 285.408 
L 333.556364 285.408 
L 349.789091 285.408 
L 366.021818 285.408 
L 382.254545 285.408 
L 398.487273 285.408 
" style="fill:none;stroke:#0e4db3;stroke-linecap:square;stroke-width:3;"/>
   </g>
   <g id="line2d_62">
    <path clip-path="url(#p16308c29cb)" d="M 73.832727 285.408 
L 90.065455 285.408 
L 106.298182 285.408 
L 122.530909 285.408 
L 138.763636 285.408 
L 154.996364 285.408 
L 171.229091 285.408 
L 187.461818 285.408 
L 203.694545 285.408 
L 219.927273 285.408 
L 236.16 285.408 
L 252.392727 285.408 
L 268.625455 285.408 
L 284.858182 285.408 
L 301.090909 285.408 
L 317.323636 285.408 
L 333.556364 285.408 
L 349.789091 285.408 
L 366.021818 285.408 
L 382.254545 285.408 
L 398.487273 285.408 
" style="fill:none;stroke:#d44e4e;stroke-linecap:square;stroke-width:3;"/>
   </g>
   <g id="line2d_63">
    <path clip-path="url(#p16308c29cb)" d="M 73.832727 285.408 
L 90.065455 285.408 
L 106.298182 285.408 
L 122.530909 285.408 
L 138.763636 285.408 
L 154.996364 285.408 
L 171.229091 285.408 
L 187.461818 285.408 
L 203.694545 285.408 
L 219.927273 285.408 
L 236.16 285.408 
L 252.392727 285.408 
L 268.625455 285.408 
L 284.858182 285.408 
L 301.090909 285.408 
L 317.323636 285.408 
L 333.556364 285.408 
L 349.789091 285.408 
L 366.021818 285.408 
L 382.254545 285.408 
L 398.487273 285.408 
" style="fill:none;stroke:#0e4db3;stroke-linecap:square;stroke-width:3;"/>
   </g>
   <g id="line2d_64">
    <path clip-path="url(#p16308c29cb)" d="M 73.832727 285.408 
L 90.065455 285.408 
L 106.298182 285.408 
L 122.530909 285.408 
L 138.763636 285.408 
L 154.996364 285.408 
L 171.229091 285.408 
L 187.461818 285.408 
L 203.694545 285.408 
L 219.927273 285.408 
L 236.16 285.408 
L 252.392727 285.408 
L 268.625455 285.408 
L 284.858182 285.408 
L 301.090909 285.408 
L 317.323636 285.408 
L 333.556364 285.408 
L 349.789091 285.408 
L 366.021818 285.408 
L 382.254545 285.408 
L 398.487273 285.408 
" style="fill:none;stroke:#d44e4e;stroke-linecap:square;stroke-width:3;"/>
   </g>
   <g id="line2d_65">
    <path clip-path="url(#p16308c29cb)" d="M 73.832727 255.133272 
L 90.065455 255.23691 
L 106.298182 261.20165 
L 122.530909 269.251197 
L 138.763636 269.165171 
L 154.996364 270.537175 
L 171.229091 260.700258 
L 187.461818 237.327743 
L 203.694545 188.534156 
L 219.927273 153.900046 
L 236.16 197.1912 
L 252.392727 133.670106 
L 268.625455 141.717523 
L 284.858182 144.583995 
L 301.090909 145.200371 
L 317.323636 165.698845 
L 333.556364 178.598534 
L 349.789091 201.619334 
L 366.021818 213.643318 
L 382.254545 234.254201 
L 398.487273 255.133272 
" style="fill:none;stroke:#0e4db3;stroke-linecap:square;stroke-width:3;"/>
   </g>
   <g id="line2d_66">
    <path clip-path="url(#p16308c29cb)" d="M 73.832727 283.934546 
L 90.065455 274.52012 
L 106.298182 283.190986 
L 122.530909 278.467219 
L 138.763636 278.003458 
L 154.996364 278.660988 
L 171.229091 284.028775 
L 187.461818 284.345719 
L 203.694545 284.172433 
L 219.927273 242.254159 
L 236.16 283.38582 
L 252.392727 224.364579 
L 268.625455 236.229531 
L 284.858182 249.833888 
L 301.090909 256.825609 
L 317.323636 248.509422 
L 333.556364 259.96083 
L 349.789091 251.710114 
L 366.021818 260.437283 
L 382.254545 265.78069 
L 398.487273 283.934546 
" style="fill:none;stroke:#d44e4e;stroke-linecap:square;stroke-width:3;"/>
   </g>
   <g id="line2d_67">
    <path clip-path="url(#p16308c29cb)" d="M 73.832727 285.408 
L 90.065455 285.408 
L 106.298182 285.408 
L 122.530909 285.408 
L 138.763636 285.408 
L 154.996364 285.408 
L 171.229091 285.408 
L 187.461818 285.408 
L 203.694545 285.408 
L 219.927273 285.408 
L 236.16 285.408 
L 252.392727 285.408 
L 268.625455 285.408 
L 284.858182 285.408 
L 301.090909 285.408 
L 317.323636 285.408 
L 333.556364 285.408 
L 349.789091 285.408 
L 366.021818 285.408 
L 382.254545 285.408 
L 398.487273 285.408 
" style="fill:none;stroke:#0e4db3;stroke-linecap:square;stroke-width:3;"/>
   </g>
   <g id="line2d_68">
    <path clip-path="url(#p16308c29cb)" d="M 73.832727 285.408 
L 90.065455 285.408 
L 106.298182 285.408 
L 122.530909 285.408 
L 138.763636 285.408 
L 154.996364 285.408 
L 171.229091 285.408 
L 187.461818 285.408 
L 203.694545 285.408 
L 219.927273 285.408 
L 236.16 285.408 
L 252.392727 285.408 
L 268.625455 285.408 
L 284.858182 285.408 
L 301.090909 285.408 
L 317.323636 285.408 
L 333.556364 285.408 
L 349.789091 285.408 
L 366.021818 285.408 
L 382.254545 285.408 
L 398.487273 285.408 
" style="fill:none;stroke:#d44e4e;stroke-linecap:square;stroke-width:3;"/>
   </g>
   <g id="line2d_69">
    <path clip-path="url(#p16308c29cb)" d="M 73.832727 285.408 
L 90.065455 285.408 
L 106.298182 285.408 
L 122.530909 285.408 
L 138.763636 285.408 
L 154.996364 285.408 
L 171.229091 285.408 
L 187.461818 285.408 
L 203.694545 285.408 
L 219.927273 285.408 
L 236.16 285.408 
L 252.392727 285.408 
L 268.625455 285.408 
L 284.858182 285.408 
L 301.090909 285.408 
L 317.323636 285.408 
L 333.556364 285.408 
L 349.789091 285.408 
L 366.021818 285.408 
L 382.254545 285.408 
L 398.487273 285.408 
" style="fill:none;stroke:#0e4db3;stroke-linecap:square;stroke-width:3;"/>
   </g>
   <g id="line2d_70">
    <path clip-path="url(#p16308c29cb)" d="M 73.832727 285.408 
L 90.065455 285.408 
L 106.298182 285.408 
L 122.530909 285.408 
L 138.763636 285.408 
L 154.996364 285.408 
L 171.229091 285.408 
L 187.461818 285.408 
L 203.694545 285.408 
L 219.927273 285.408 
L 236.16 285.408 
L 252.392727 285.408 
L 268.625455 285.408 
L 284.858182 285.408 
L 301.090909 285.408 
L 317.323636 285.408 
L 333.556364 285.408 
L 349.789091 285.408 
L 366.021818 285.408 
L 382.254545 285.408 
L 398.487273 285.408 
" style="fill:none;stroke:#d44e4e;stroke-linecap:square;stroke-width:3;"/>
   </g>
   <g id="line2d_71">
    <path clip-path="url(#p16308c29cb)" d="M 73.832727 285.408 
L 90.065455 285.408 
L 106.298182 285.408 
L 122.530909 285.408 
L 138.763636 285.408 
L 154.996364 285.408 
L 171.229091 285.408 
L 187.461818 285.408 
L 203.694545 285.408 
L 219.927273 285.408 
L 236.16 285.408 
L 252.392727 285.408 
L 268.625455 285.408 
L 284.858182 285.408 
L 301.090909 285.408 
L 317.323636 285.408 
L 333.556364 285.408 
L 349.789091 285.408 
L 366.021818 285.408 
L 382.254545 285.408 
L 398.487273 285.408 
" style="fill:none;stroke:#0e4db3;stroke-linecap:square;stroke-width:3;"/>
   </g>
   <g id="line2d_72">
    <path clip-path="url(#p16308c29cb)" d="M 73.832727 285.408 
L 90.065455 285.408 
L 106.298182 285.408 
L 122.530909 285.408 
L 138.763636 285.408 
L 154.996364 285.408 
L 171.229091 285.408 
L 187.461818 285.408 
L 203.694545 285.408 
L 219.927273 285.408 
L 236.16 285.408 
L 252.392727 285.408 
L 268.625455 285.408 
L 284.858182 285.408 
L 301.090909 285.408 
L 317.323636 285.408 
L 333.556364 285.408 
L 349.789091 285.408 
L 366.021818 285.408 
L 382.254545 285.408 
L 398.487273 285.408 
" style="fill:none;stroke:#d44e4e;stroke-linecap:square;stroke-width:3;"/>
   </g>
   <g id="line2d_73">
    <path clip-path="url(#p16308c29cb)" d="M 73.832727 285.408 
L 90.065455 285.408 
L 106.298182 285.408 
L 122.530909 285.408 
L 138.763636 285.408 
L 154.996364 285.408 
L 171.229091 285.408 
L 187.461818 285.408 
L 203.694545 285.408 
L 219.927273 285.408 
L 236.16 285.408 
L 252.392727 285.408 
L 268.625455 285.408 
L 284.858182 285.408 
L 301.090909 285.408 
L 317.323636 285.408 
L 333.556364 285.408 
L 349.789091 285.408 
L 366.021818 285.408 
L 382.254545 285.408 
L 398.487273 285.408 
" style="fill:none;stroke:#0e4db3;stroke-linecap:square;stroke-width:3;"/>
   </g>
   <g id="line2d_74">
    <path clip-path="url(#p16308c29cb)" d="M 73.832727 285.408 
L 90.065455 285.408 
L 106.298182 285.408 
L 122.530909 285.408 
L 138.763636 285.408 
L 154.996364 285.408 
L 171.229091 285.408 
L 187.461818 285.408 
L 203.694545 285.408 
L 219.927273 285.408 
L 236.16 285.408 
L 252.392727 285.408 
L 268.625455 285.408 
L 284.858182 285.408 
L 301.090909 285.408 
L 317.323636 285.408 
L 333.556364 285.408 
L 349.789091 285.408 
L 366.021818 285.408 
L 382.254545 285.408 
L 398.487273 285.408 
" style="fill:none;stroke:#d44e4e;stroke-linecap:square;stroke-width:3;"/>
   </g>
   <g id="line2d_75">
    <path clip-path="url(#p16308c29cb)" d="M 73.832727 198.095181 
L 90.065455 171.694531 
L 106.298182 125.628677 
L 122.530909 132.768124 
L 138.763636 91.1578 
L 154.996364 94.122227 
L 171.229091 123.150775 
L 187.461818 183.132263 
L 203.694545 154.956067 
L 219.927273 154.473475 
L 236.16 186.93309 
L 252.392727 167.494136 
L 268.625455 175.53475 
L 284.858182 201.623067 
L 301.090909 203.861275 
L 317.323636 233.703511 
L 333.556364 221.478856 
L 349.789091 212.009304 
L 366.021818 193.190725 
L 382.254545 193.072579 
L 398.487273 198.095181 
" style="fill:none;stroke:#0e4db3;stroke-linecap:square;stroke-width:3;"/>
   </g>
   <g id="line2d_76">
    <path clip-path="url(#p16308c29cb)" d="M 73.832727 285.408 
L 90.065455 285.408 
L 106.298182 285.408 
L 122.530909 285.408 
L 138.763636 285.408 
L 154.996364 285.408 
L 171.229091 285.408 
L 187.461818 285.408 
L 203.694545 285.408 
L 219.927273 285.408 
L 236.16 285.408 
L 252.392727 285.408 
L 268.625455 285.408 
L 284.858182 285.408 
L 301.090909 285.408 
L 317.323636 285.408 
L 333.556364 285.408 
L 349.789091 285.408 
L 366.021818 285.408 
L 382.254545 285.408 
L 398.487273 285.408 
" style="fill:none;stroke:#d44e4e;stroke-linecap:square;stroke-width:3;"/>
   </g>
   <g id="line2d_77">
    <path clip-path="url(#p16308c29cb)" d="M 73.832727 285.408 
L 90.065455 285.408 
L 106.298182 285.408 
L 122.530909 285.408 
L 138.763636 285.408 
L 154.996364 285.408 
L 171.229091 285.408 
L 187.461818 285.408 
L 203.694545 285.408 
L 219.927273 285.408 
L 236.16 285.408 
L 252.392727 285.408 
L 268.625455 285.408 
L 284.858182 285.408 
L 301.090909 285.408 
L 317.323636 285.408 
L 333.556364 285.408 
L 349.789091 285.408 
L 366.021818 285.408 
L 382.254545 285.408 
L 398.487273 285.408 
" style="fill:none;stroke:#0e4db3;stroke-linecap:square;stroke-width:3;"/>
   </g>
   <g id="line2d_78">
    <path clip-path="url(#p16308c29cb)" d="M 73.832727 285.408 
L 90.065455 285.408 
L 106.298182 285.408 
L 122.530909 285.408 
L 138.763636 285.408 
L 154.996364 285.408 
L 171.229091 285.408 
L 187.461818 285.408 
L 203.694545 285.408 
L 219.927273 285.408 
L 236.16 285.408 
L 252.392727 285.408 
L 268.625455 285.408 
L 284.858182 285.408 
L 301.090909 285.408 
L 317.323636 285.408 
L 333.556364 285.408 
L 349.789091 285.408 
L 366.021818 285.408 
L 382.254545 285.408 
L 398.487273 285.408 
" style="fill:none;stroke:#d44e4e;stroke-linecap:square;stroke-width:3;"/>
   </g>
   <g id="line2d_79">
    <path clip-path="url(#p16308c29cb)" d="M 73.832727 285.408 
L 90.065455 285.408 
L 106.298182 285.408 
L 122.530909 285.408 
L 138.763636 285.408 
L 154.996364 285.408 
L 171.229091 285.408 
L 187.461818 285.408 
L 203.694545 285.408 
L 219.927273 285.408 
L 236.16 285.408 
L 252.392727 285.408 
L 268.625455 285.408 
L 284.858182 285.408 
L 301.090909 285.408 
L 317.323636 285.408 
L 333.556364 285.408 
L 349.789091 285.408 
L 366.021818 285.408 
L 382.254545 285.408 
L 398.487273 285.408 
" style="fill:none;stroke:#0e4db3;stroke-linecap:square;stroke-width:3;"/>
   </g>
   <g id="line2d_80">
    <path clip-path="url(#p16308c29cb)" d="M 73.832727 285.408 
L 90.065455 285.408 
L 106.298182 285.408 
L 122.530909 285.408 
L 138.763636 285.408 
L 154.996364 285.408 
L 171.229091 285.408 
L 187.461818 285.408 
L 203.694545 285.408 
L 219.927273 285.408 
L 236.16 285.408 
L 252.392727 285.408 
L 268.625455 285.408 
L 284.858182 285.408 
L 301.090909 285.408 
L 317.323636 285.408 
L 333.556364 285.408 
L 349.789091 285.408 
L 366.021818 285.408 
L 382.254545 285.408 
L 398.487273 285.408 
" style="fill:none;stroke:#d44e4e;stroke-linecap:square;stroke-width:3;"/>
   </g>
   <g id="line2d_81">
    <path clip-path="url(#p16308c29cb)" d="M 73.832727 285.408 
L 90.065455 285.408 
L 106.298182 285.408 
L 122.530909 285.408 
L 138.763636 285.408 
L 154.996364 285.408 
L 171.229091 285.408 
L 187.461818 285.408 
L 203.694545 285.408 
L 219.927273 285.408 
L 236.16 285.408 
L 252.392727 285.408 
L 268.625455 285.408 
L 284.858182 285.408 
L 301.090909 285.408 
L 317.323636 285.408 
L 333.556364 285.408 
L 349.789091 285.408 
L 366.021818 285.408 
L 382.254545 285.408 
L 398.487273 285.408 
" style="fill:none;stroke:#0e4db3;stroke-linecap:square;stroke-width:3;"/>
   </g>
   <g id="line2d_82">
    <path clip-path="url(#p16308c29cb)" d="M 73.832727 285.408 
L 90.065455 285.408 
L 106.298182 285.408 
L 122.530909 285.408 
L 138.763636 285.408 
L 154.996364 285.408 
L 171.229091 285.408 
L 187.461818 285.408 
L 203.694545 285.408 
L 219.927273 285.408 
L 236.16 285.408 
L 252.392727 285.408 
L 268.625455 285.408 
L 284.858182 285.408 
L 301.090909 285.408 
L 317.323636 285.408 
L 333.556364 285.408 
L 349.789091 285.408 
L 366.021818 285.408 
L 382.254545 285.408 
L 398.487273 285.408 
" style="fill:none;stroke:#d44e4e;stroke-linecap:square;stroke-width:3;"/>
   </g>
   <g id="line2d_83">
    <path clip-path="url(#p16308c29cb)" d="M 73.832727 219.238127 
L 90.065455 185.964417 
L 106.298182 235.722917 
L 122.530909 233.291212 
L 138.763636 213.462916 
L 154.996364 210.032653 
L 171.229091 190.786067 
L 187.461818 139.986129 
L 203.694545 106.093746 
L 219.927273 84.047747 
L 236.16 111.214574 
L 252.392727 45.396439 
L 268.625455 31.288829 
L 284.858182 76.273396 
L 301.090909 78.67287 
L 317.323636 148.443069 
L 333.556364 181.132183 
L 349.789091 154.079699 
L 366.021818 157.199372 
L 382.254545 167.179211 
L 398.487273 219.238127 
" style="fill:none;stroke:#0e4db3;stroke-linecap:square;stroke-width:3;"/>
   </g>
   <g id="line2d_84">
    <path clip-path="url(#p16308c29cb)" d="M 73.832727 285.408 
L 90.065455 285.408 
L 106.298182 285.408 
L 122.530909 285.408 
L 138.763636 285.408 
L 154.996364 285.408 
L 171.229091 285.408 
L 187.461818 285.408 
L 203.694545 285.408 
L 219.927273 285.408 
L 236.16 285.408 
L 252.392727 285.408 
L 268.625455 285.408 
L 284.858182 285.408 
L 301.090909 285.408 
L 317.323636 285.408 
L 333.556364 285.408 
L 349.789091 285.408 
L 366.021818 285.408 
L 382.254545 285.408 
L 398.487273 285.408 
" style="fill:none;stroke:#d44e4e;stroke-linecap:square;stroke-width:3;"/>
   </g>
   <g id="line2d_85">
    <path clip-path="url(#p16308c29cb)" d="M 73.832727 285.408 
L 90.065455 285.408 
L 106.298182 285.408 
L 122.530909 285.408 
L 138.763636 285.408 
L 154.996364 285.408 
L 171.229091 285.408 
L 187.461818 285.408 
L 203.694545 285.408 
L 219.927273 285.408 
L 236.16 285.408 
L 252.392727 285.408 
L 268.625455 285.408 
L 284.858182 285.408 
L 301.090909 285.408 
L 317.323636 285.408 
L 333.556364 285.408 
L 349.789091 285.408 
L 366.021818 285.408 
L 382.254545 285.408 
L 398.487273 285.408 
" style="fill:none;stroke:#0e4db3;stroke-linecap:square;stroke-width:3;"/>
   </g>
   <g id="line2d_86">
    <path clip-path="url(#p16308c29cb)" d="M 73.832727 285.408 
L 90.065455 285.408 
L 106.298182 285.408 
L 122.530909 285.408 
L 138.763636 285.408 
L 154.996364 285.408 
L 171.229091 285.408 
L 187.461818 285.408 
L 203.694545 285.408 
L 219.927273 285.408 
L 236.16 285.408 
L 252.392727 285.408 
L 268.625455 285.408 
L 284.858182 285.408 
L 301.090909 285.408 
L 317.323636 285.408 
L 333.556364 285.408 
L 349.789091 285.408 
L 366.021818 285.408 
L 382.254545 285.408 
L 398.487273 285.408 
" style="fill:none;stroke:#d44e4e;stroke-linecap:square;stroke-width:3;"/>
   </g>
   <g id="line2d_87">
    <path clip-path="url(#p16308c29cb)" d="M 73.832727 116.959755 
L 90.065455 92.078994 
L 106.298182 95.120447 
L 122.530909 117.99163 
L 138.763636 146.498606 
L 154.996364 157.120782 
L 171.229091 142.087 
L 187.461818 163.390533 
L 203.694545 209.187826 
L 219.927273 235.978987 
L 236.16 242.719364 
L 252.392727 204.89723 
L 268.625455 220.621614 
L 284.858182 217.917527 
L 301.090909 149.897332 
L 317.323636 168.462222 
L 333.556364 156.510579 
L 349.789091 170.238789 
L 366.021818 149.68548 
L 382.254545 139.82382 
L 398.487273 116.959755 
" style="fill:none;stroke:#0e4db3;stroke-linecap:square;stroke-width:3;"/>
   </g>
   <g id="line2d_88">
    <path clip-path="url(#p16308c29cb)" d="M 73.832727 285.408 
L 90.065455 258.029788 
L 106.298182 239.910082 
L 122.530909 258.356784 
L 138.763636 285.408 
L 154.996364 285.408 
L 171.229091 253.726644 
L 187.461818 278.70241 
L 203.694545 285.408 
L 219.927273 285.408 
L 236.16 285.408 
L 252.392727 285.408 
L 268.625455 285.408 
L 284.858182 285.408 
L 301.090909 283.793895 
L 317.323636 285.408 
L 333.556364 285.408 
L 349.789091 248.98566 
L 366.021818 233.788523 
L 382.254545 250.545037 
L 398.487273 285.408 
" style="fill:none;stroke:#d44e4e;stroke-linecap:square;stroke-width:3;"/>
   </g>
   <g id="line2d_89">
    <path clip-path="url(#p16308c29cb)" d="M 73.832727 153.602866 
L 90.065455 161.339085 
L 106.298182 161.046883 
L 122.530909 157.284286 
L 138.763636 169.395294 
L 154.996364 209.488451 
L 171.229091 227.254258 
L 187.461818 239.843079 
L 203.694545 201.978048 
L 219.927273 116.566663 
L 236.16 78.689475 
L 252.392727 63.648 
L 268.625455 84.385819 
L 284.858182 107.02547 
L 301.090909 99.945476 
L 317.323636 93.271668 
L 333.556364 116.562371 
L 349.789091 110.447322 
L 366.021818 141.817249 
L 382.254545 149.123722 
L 398.487273 153.602866 
" style="fill:none;stroke:#0e4db3;stroke-linecap:square;stroke-width:3;"/>
   </g>
   <g id="line2d_90">
    <path clip-path="url(#p16308c29cb)" d="M 73.832727 182.563431 
L 90.065455 186.172129 
L 106.298182 183.008923 
L 122.530909 186.41267 
L 138.763636 187.542184 
L 154.996364 225.90234 
L 171.229091 245.797364 
L 187.461818 243.221315 
L 203.694545 216.421686 
L 219.927273 161.475999 
L 236.16 130.586587 
L 252.392727 118.560919 
L 268.625455 128.794969 
L 284.858182 148.531319 
L 301.090909 139.389814 
L 317.323636 131.147139 
L 333.556364 148.881073 
L 349.789091 145.064012 
L 366.021818 164.973614 
L 382.254545 148.370858 
L 398.487273 182.563431 
" style="fill:none;stroke:#d44e4e;stroke-linecap:square;stroke-width:3;"/>
   </g>
   <g id="patch_3">
    <path d="M 57.6 307.584 
L 57.6 41.472 
" style="fill:none;stroke:#000000;stroke-linecap:square;stroke-linejoin:miter;stroke-width:2.5;"/>
   </g>
   <g id="patch_4">
    <path d="M 414.72 307.584 
L 414.72 41.472 
" style="fill:none;stroke:#000000;stroke-linecap:square;stroke-linejoin:miter;stroke-width:2.5;"/>
   </g>
   <g id="patch_5">
    <path d="M 57.6 307.584 
L 414.72 307.584 
" style="fill:none;stroke:#000000;stroke-linecap:square;stroke-linejoin:miter;stroke-width:2.5;"/>
   </g>
   <g id="patch_6">
    <path d="M 57.6 41.472 
L 414.72 41.472 
" style="fill:none;stroke:#000000;stroke-linecap:square;stroke-linejoin:miter;stroke-width:2.5;"/>
   </g>
  </g>
 </g>
 <defs>
  <clipPath id="p16308c29cb">
   <rect height="266.112" width="357.12" x="57.6" y="41.472"/>
  </clipPath>
 </defs>
</svg>
