<?xml version="1.0" encoding="utf-8" standalone="no"?>
<!DOCTYPE svg PUBLIC "-//W3C//DTD SVG 1.1//EN"
  "http://www.w3.org/Graphics/SVG/1.1/DTD/svg11.dtd">
<!-- Created with matplotlib (https://matplotlib.org/) -->
<svg height="345.6pt" version="1.1" viewBox="0 0 460.8 345.6" width="460.8pt" xmlns="http://www.w3.org/2000/svg" xmlns:xlink="http://www.w3.org/1999/xlink">
 <defs>
  <style type="text/css">
*{stroke-linecap:butt;stroke-linejoin:round;}
  </style>
 </defs>
 <g id="figure_1">
  <g id="patch_1">
   <path d="M 0 345.6 
L 460.8 345.6 
L 460.8 0 
L 0 0 
z
" style="fill:#ffffff;"/>
  </g>
  <g id="axes_1">
   <g id="patch_2">
    <path d="M 57.6 307.584 
L 414.72 307.584 
L 414.72 41.472 
L 57.6 41.472 
z
" style="fill:#ffffff;"/>
   </g>
   <g id="matplotlib.axis_1">
    <g id="xtick_1">
     <g id="line2d_1">
      <defs>
       <path d="M 0 0 
L 0 12 
" id="m61be94d566" style="stroke:#000000;stroke-width:2.5;"/>
      </defs>
      <g>
       <use style="stroke:#000000;stroke-width:2.5;" x="73.832727" xlink:href="#m61be94d566" y="307.584"/>
      </g>
     </g>
     <g id="text_1">
      <!-- 0 -->
      <defs>
       <path d="M 31.78125 66.40625 
Q 24.171875 66.40625 20.328125 58.90625 
Q 16.5 51.421875 16.5 36.375 
Q 16.5 21.390625 20.328125 13.890625 
Q 24.171875 6.390625 31.78125 6.390625 
Q 39.453125 6.390625 43.28125 13.890625 
Q 47.125 21.390625 47.125 36.375 
Q 47.125 51.421875 43.28125 58.90625 
Q 39.453125 66.40625 31.78125 66.40625 
z
M 31.78125 74.21875 
Q 44.046875 74.21875 50.515625 64.515625 
Q 56.984375 54.828125 56.984375 36.375 
Q 56.984375 17.96875 50.515625 8.265625 
Q 44.046875 -1.421875 31.78125 -1.421875 
Q 19.53125 -1.421875 13.0625 8.265625 
Q 6.59375 17.96875 6.59375 36.375 
Q 6.59375 54.828125 13.0625 64.515625 
Q 19.53125 74.21875 31.78125 74.21875 
z
" id="DejaVuSans-48"/>
      </defs>
      <g transform="translate(57.735602 361.532094)scale(0.506 -0.506)">
       <use xlink:href="#DejaVuSans-48"/>
      </g>
     </g>
    </g>
    <g id="xtick_2">
     <g id="line2d_2">
      <g>
       <use style="stroke:#000000;stroke-width:2.5;" x="254.196364" xlink:href="#m61be94d566" y="307.584"/>
      </g>
     </g>
     <g id="text_2">
      <!-- 100 -->
      <defs>
       <path d="M 12.40625 8.296875 
L 28.515625 8.296875 
L 28.515625 63.921875 
L 10.984375 60.40625 
L 10.984375 69.390625 
L 28.421875 72.90625 
L 38.28125 72.90625 
L 38.28125 8.296875 
L 54.390625 8.296875 
L 54.390625 0 
L 12.40625 0 
z
" id="DejaVuSans-49"/>
      </defs>
      <g transform="translate(205.904989 361.532094)scale(0.506 -0.506)">
       <use xlink:href="#DejaVuSans-49"/>
       <use x="63.623047" xlink:href="#DejaVuSans-48"/>
       <use x="127.246094" xlink:href="#DejaVuSans-48"/>
      </g>
     </g>
    </g>
    <g id="text_3">
     <!-- Degrees -->
     <defs>
      <path d="M 19.671875 64.796875 
L 19.671875 8.109375 
L 31.59375 8.109375 
Q 46.6875 8.109375 53.6875 14.9375 
Q 60.6875 21.78125 60.6875 36.53125 
Q 60.6875 51.171875 53.6875 57.984375 
Q 46.6875 64.796875 31.59375 64.796875 
z
M 9.8125 72.90625 
L 30.078125 72.90625 
Q 51.265625 72.90625 61.171875 64.09375 
Q 71.09375 55.28125 71.09375 36.53125 
Q 71.09375 17.671875 61.125 8.828125 
Q 51.171875 0 30.078125 0 
L 9.8125 0 
z
" id="DejaVuSans-68"/>
      <path d="M 56.203125 29.59375 
L 56.203125 25.203125 
L 14.890625 25.203125 
Q 15.484375 15.921875 20.484375 11.0625 
Q 25.484375 6.203125 34.421875 6.203125 
Q 39.59375 6.203125 44.453125 7.46875 
Q 49.3125 8.734375 54.109375 11.28125 
L 54.109375 2.78125 
Q 49.265625 0.734375 44.1875 -0.34375 
Q 39.109375 -1.421875 33.890625 -1.421875 
Q 20.796875 -1.421875 13.15625 6.1875 
Q 5.515625 13.8125 5.515625 26.8125 
Q 5.515625 40.234375 12.765625 48.109375 
Q 20.015625 56 32.328125 56 
Q 43.359375 56 49.78125 48.890625 
Q 56.203125 41.796875 56.203125 29.59375 
z
M 47.21875 32.234375 
Q 47.125 39.59375 43.09375 43.984375 
Q 39.0625 48.390625 32.421875 48.390625 
Q 24.90625 48.390625 20.390625 44.140625 
Q 15.875 39.890625 15.1875 32.171875 
z
" id="DejaVuSans-101"/>
      <path d="M 45.40625 27.984375 
Q 45.40625 37.75 41.375 43.109375 
Q 37.359375 48.484375 30.078125 48.484375 
Q 22.859375 48.484375 18.828125 43.109375 
Q 14.796875 37.75 14.796875 27.984375 
Q 14.796875 18.265625 18.828125 12.890625 
Q 22.859375 7.515625 30.078125 7.515625 
Q 37.359375 7.515625 41.375 12.890625 
Q 45.40625 18.265625 45.40625 27.984375 
z
M 54.390625 6.78125 
Q 54.390625 -7.171875 48.1875 -13.984375 
Q 42 -20.796875 29.203125 -20.796875 
Q 24.46875 -20.796875 20.265625 -20.09375 
Q 16.0625 -19.390625 12.109375 -17.921875 
L 12.109375 -9.1875 
Q 16.0625 -11.328125 19.921875 -12.34375 
Q 23.78125 -13.375 27.78125 -13.375 
Q 36.625 -13.375 41.015625 -8.765625 
Q 45.40625 -4.15625 45.40625 5.171875 
L 45.40625 9.625 
Q 42.625 4.78125 38.28125 2.390625 
Q 33.9375 0 27.875 0 
Q 17.828125 0 11.671875 7.65625 
Q 5.515625 15.328125 5.515625 27.984375 
Q 5.515625 40.671875 11.671875 48.328125 
Q 17.828125 56 27.875 56 
Q 33.9375 56 38.28125 53.609375 
Q 42.625 51.21875 45.40625 46.390625 
L 45.40625 54.6875 
L 54.390625 54.6875 
z
" id="DejaVuSans-103"/>
      <path d="M 41.109375 46.296875 
Q 39.59375 47.171875 37.8125 47.578125 
Q 36.03125 48 33.890625 48 
Q 26.265625 48 22.1875 43.046875 
Q 18.109375 38.09375 18.109375 28.8125 
L 18.109375 0 
L 9.078125 0 
L 9.078125 54.6875 
L 18.109375 54.6875 
L 18.109375 46.1875 
Q 20.953125 51.171875 25.484375 53.578125 
Q 30.03125 56 36.53125 56 
Q 37.453125 56 38.578125 55.875 
Q 39.703125 55.765625 41.0625 55.515625 
z
" id="DejaVuSans-114"/>
      <path d="M 44.28125 53.078125 
L 44.28125 44.578125 
Q 40.484375 46.53125 36.375 47.5 
Q 32.28125 48.484375 27.875 48.484375 
Q 21.1875 48.484375 17.84375 46.4375 
Q 14.5 44.390625 14.5 40.28125 
Q 14.5 37.15625 16.890625 35.375 
Q 19.28125 33.59375 26.515625 31.984375 
L 29.59375 31.296875 
Q 39.15625 29.25 43.1875 25.515625 
Q 47.21875 21.78125 47.21875 15.09375 
Q 47.21875 7.46875 41.1875 3.015625 
Q 35.15625 -1.421875 24.609375 -1.421875 
Q 20.21875 -1.421875 15.453125 -0.5625 
Q 10.6875 0.296875 5.421875 2 
L 5.421875 11.28125 
Q 10.40625 8.6875 15.234375 7.390625 
Q 20.0625 6.109375 24.8125 6.109375 
Q 31.15625 6.109375 34.5625 8.28125 
Q 37.984375 10.453125 37.984375 14.40625 
Q 37.984375 18.0625 35.515625 20.015625 
Q 33.0625 21.96875 24.703125 23.78125 
L 21.578125 24.515625 
Q 13.234375 26.265625 9.515625 29.90625 
Q 5.8125 33.546875 5.8125 39.890625 
Q 5.8125 47.609375 11.28125 51.796875 
Q 16.75 56 26.8125 56 
Q 31.78125 56 36.171875 55.265625 
Q 40.578125 54.546875 44.28125 53.078125 
z
" id="DejaVuSans-115"/>
     </defs>
     <g transform="translate(120.723 417.998687)scale(0.552 -0.552)">
      <use xlink:href="#DejaVuSans-68"/>
      <use x="77.001953" xlink:href="#DejaVuSans-101"/>
      <use x="138.525391" xlink:href="#DejaVuSans-103"/>
      <use x="202.001953" xlink:href="#DejaVuSans-114"/>
      <use x="243.083984" xlink:href="#DejaVuSans-101"/>
      <use x="304.607422" xlink:href="#DejaVuSans-101"/>
      <use x="366.130859" xlink:href="#DejaVuSans-115"/>
     </g>
    </g>
   </g>
   <g id="matplotlib.axis_2">
    <g id="ytick_1">
     <g id="line2d_3">
      <defs>
       <path d="M 0 0 
L -12 0 
" id="mc3e888c109" style="stroke:#000000;stroke-width:2.5;"/>
      </defs>
      <g>
       <use style="stroke:#000000;stroke-width:2.5;" x="57.6" xlink:href="#mc3e888c109" y="285.408"/>
      </g>
     </g>
     <g id="text_4">
      <!-- 0 -->
      <g transform="translate(9.90575 304.632047)scale(0.506 -0.506)">
       <use xlink:href="#DejaVuSans-48"/>
      </g>
     </g>
    </g>
    <g id="ytick_2">
     <g id="line2d_4">
      <g>
       <use style="stroke:#000000;stroke-width:2.5;" x="57.6" xlink:href="#mc3e888c109" y="81.593209"/>
      </g>
     </g>
     <g id="text_5">
      <!-- 5 -->
      <defs>
       <path d="M 10.796875 72.90625 
L 49.515625 72.90625 
L 49.515625 64.59375 
L 19.828125 64.59375 
L 19.828125 46.734375 
Q 21.96875 47.46875 24.109375 47.828125 
Q 26.265625 48.1875 28.421875 48.1875 
Q 40.625 48.1875 47.75 41.5 
Q 54.890625 34.8125 54.890625 23.390625 
Q 54.890625 11.625 47.5625 5.09375 
Q 40.234375 -1.421875 26.90625 -1.421875 
Q 22.3125 -1.421875 17.546875 -0.640625 
Q 12.796875 0.140625 7.71875 1.703125 
L 7.71875 11.625 
Q 12.109375 9.234375 16.796875 8.0625 
Q 21.484375 6.890625 26.703125 6.890625 
Q 35.15625 6.890625 40.078125 11.328125 
Q 45.015625 15.765625 45.015625 23.390625 
Q 45.015625 31 40.078125 35.4375 
Q 35.15625 39.890625 26.703125 39.890625 
Q 22.75 39.890625 18.8125 39.015625 
Q 14.890625 38.140625 10.796875 36.28125 
z
" id="DejaVuSans-53"/>
      </defs>
      <g transform="translate(9.90575 100.817256)scale(0.506 -0.506)">
       <use xlink:href="#DejaVuSans-53"/>
      </g>
     </g>
    </g>
    <g id="text_6">
     <!-- Activation -->
     <defs>
      <path d="M 34.1875 63.1875 
L 20.796875 26.90625 
L 47.609375 26.90625 
z
M 28.609375 72.90625 
L 39.796875 72.90625 
L 67.578125 0 
L 57.328125 0 
L 50.6875 18.703125 
L 17.828125 18.703125 
L 11.1875 0 
L 0.78125 0 
z
" id="DejaVuSans-65"/>
      <path d="M 48.78125 52.59375 
L 48.78125 44.1875 
Q 44.96875 46.296875 41.140625 47.34375 
Q 37.3125 48.390625 33.40625 48.390625 
Q 24.65625 48.390625 19.8125 42.84375 
Q 14.984375 37.3125 14.984375 27.296875 
Q 14.984375 17.28125 19.8125 11.734375 
Q 24.65625 6.203125 33.40625 6.203125 
Q 37.3125 6.203125 41.140625 7.25 
Q 44.96875 8.296875 48.78125 10.40625 
L 48.78125 2.09375 
Q 45.015625 0.34375 40.984375 -0.53125 
Q 36.96875 -1.421875 32.421875 -1.421875 
Q 20.0625 -1.421875 12.78125 6.34375 
Q 5.515625 14.109375 5.515625 27.296875 
Q 5.515625 40.671875 12.859375 48.328125 
Q 20.21875 56 33.015625 56 
Q 37.15625 56 41.109375 55.140625 
Q 45.0625 54.296875 48.78125 52.59375 
z
" id="DejaVuSans-99"/>
      <path d="M 18.3125 70.21875 
L 18.3125 54.6875 
L 36.8125 54.6875 
L 36.8125 47.703125 
L 18.3125 47.703125 
L 18.3125 18.015625 
Q 18.3125 11.328125 20.140625 9.421875 
Q 21.96875 7.515625 27.59375 7.515625 
L 36.8125 7.515625 
L 36.8125 0 
L 27.59375 0 
Q 17.1875 0 13.234375 3.875 
Q 9.28125 7.765625 9.28125 18.015625 
L 9.28125 47.703125 
L 2.6875 47.703125 
L 2.6875 54.6875 
L 9.28125 54.6875 
L 9.28125 70.21875 
z
" id="DejaVuSans-116"/>
      <path d="M 9.421875 54.6875 
L 18.40625 54.6875 
L 18.40625 0 
L 9.421875 0 
z
M 9.421875 75.984375 
L 18.40625 75.984375 
L 18.40625 64.59375 
L 9.421875 64.59375 
z
" id="DejaVuSans-105"/>
      <path d="M 2.984375 54.6875 
L 12.5 54.6875 
L 29.59375 8.796875 
L 46.6875 54.6875 
L 56.203125 54.6875 
L 35.6875 0 
L 23.484375 0 
z
" id="DejaVuSans-118"/>
      <path d="M 34.28125 27.484375 
Q 23.390625 27.484375 19.1875 25 
Q 14.984375 22.515625 14.984375 16.5 
Q 14.984375 11.71875 18.140625 8.90625 
Q 21.296875 6.109375 26.703125 6.109375 
Q 34.1875 6.109375 38.703125 11.40625 
Q 43.21875 16.703125 43.21875 25.484375 
L 43.21875 27.484375 
z
M 52.203125 31.203125 
L 52.203125 0 
L 43.21875 0 
L 43.21875 8.296875 
Q 40.140625 3.328125 35.546875 0.953125 
Q 30.953125 -1.421875 24.3125 -1.421875 
Q 15.921875 -1.421875 10.953125 3.296875 
Q 6 8.015625 6 15.921875 
Q 6 25.140625 12.171875 29.828125 
Q 18.359375 34.515625 30.609375 34.515625 
L 43.21875 34.515625 
L 43.21875 35.40625 
Q 43.21875 41.609375 39.140625 45 
Q 35.0625 48.390625 27.6875 48.390625 
Q 23 48.390625 18.546875 47.265625 
Q 14.109375 46.140625 10.015625 43.890625 
L 10.015625 52.203125 
Q 14.9375 54.109375 19.578125 55.046875 
Q 24.21875 56 28.609375 56 
Q 40.484375 56 46.34375 49.84375 
Q 52.203125 43.703125 52.203125 31.203125 
z
" id="DejaVuSans-97"/>
      <path d="M 30.609375 48.390625 
Q 23.390625 48.390625 19.1875 42.75 
Q 14.984375 37.109375 14.984375 27.296875 
Q 14.984375 17.484375 19.15625 11.84375 
Q 23.34375 6.203125 30.609375 6.203125 
Q 37.796875 6.203125 41.984375 11.859375 
Q 46.1875 17.53125 46.1875 27.296875 
Q 46.1875 37.015625 41.984375 42.703125 
Q 37.796875 48.390625 30.609375 48.390625 
z
M 30.609375 56 
Q 42.328125 56 49.015625 48.375 
Q 55.71875 40.765625 55.71875 27.296875 
Q 55.71875 13.875 49.015625 6.21875 
Q 42.328125 -1.421875 30.609375 -1.421875 
Q 18.84375 -1.421875 12.171875 6.21875 
Q 5.515625 13.875 5.515625 27.296875 
Q 5.515625 40.765625 12.171875 48.375 
Q 18.84375 56 30.609375 56 
z
" id="DejaVuSans-111"/>
      <path d="M 54.890625 33.015625 
L 54.890625 0 
L 45.90625 0 
L 45.90625 32.71875 
Q 45.90625 40.484375 42.875 44.328125 
Q 39.84375 48.1875 33.796875 48.1875 
Q 26.515625 48.1875 22.3125 43.546875 
Q 18.109375 38.921875 18.109375 30.90625 
L 18.109375 0 
L 9.078125 0 
L 9.078125 54.6875 
L 18.109375 54.6875 
L 18.109375 46.1875 
Q 21.34375 51.125 25.703125 53.5625 
Q 30.078125 56 35.796875 56 
Q 45.21875 56 50.046875 50.171875 
Q 54.890625 44.34375 54.890625 33.015625 
z
" id="DejaVuSans-110"/>
     </defs>
     <g transform="translate(-5.574125 313.1835)rotate(-90)scale(0.552 -0.552)">
      <use xlink:href="#DejaVuSans-65"/>
      <use x="68.392578" xlink:href="#DejaVuSans-99"/>
      <use x="123.373047" xlink:href="#DejaVuSans-116"/>
      <use x="162.582031" xlink:href="#DejaVuSans-105"/>
      <use x="190.365234" xlink:href="#DejaVuSans-118"/>
      <use x="249.544922" xlink:href="#DejaVuSans-97"/>
      <use x="310.824219" xlink:href="#DejaVuSans-116"/>
      <use x="350.033203" xlink:href="#DejaVuSans-105"/>
      <use x="377.816406" xlink:href="#DejaVuSans-111"/>
      <use x="438.998047" xlink:href="#DejaVuSans-110"/>
     </g>
    </g>
   </g>
   <g id="line2d_5">
    <path clip-path="url(#p0704f7205a)" d="M 73.832727 275.035195 
L 90.065455 257.373835 
L 106.298182 251.250862 
L 122.530909 243.343224 
L 138.763636 234.093021 
L 154.996364 232.786558 
L 171.229091 234.688808 
L 187.461818 220.884229 
L 203.694545 216.295827 
L 219.927273 217.14288 
L 236.16 223.217608 
L 252.392727 223.019279 
L 268.625455 223.964646 
L 284.858182 246.826263 
L 301.090909 243.238729 
L 317.323636 261.001954 
L 333.556364 265.498429 
L 349.789091 270.184278 
L 366.021818 267.575384 
L 382.254545 270.86903 
L 398.487273 275.035195 
" style="fill:none;stroke:#0e4db3;stroke-linecap:square;stroke-width:3;"/>
   </g>
   <g id="line2d_6">
    <path clip-path="url(#p0704f7205a)" d="M 73.832727 277.154585 
L 90.065455 262.690328 
L 106.298182 257.257085 
L 122.530909 251.411178 
L 138.763636 244.269513 
L 154.996364 243.499952 
L 171.229091 244.368483 
L 187.461818 232.125408 
L 203.694545 229.849 
L 219.927273 229.199746 
L 236.16 232.326934 
L 252.392727 234.326215 
L 268.625455 234.752349 
L 284.858182 254.498459 
L 301.090909 250.939075 
L 317.323636 265.281319 
L 333.556364 268.73366 
L 349.789091 271.863878 
L 366.021818 270.524989 
L 382.254545 272.989097 
L 398.487273 277.154585 
" style="fill:none;stroke:#d44e4e;stroke-linecap:square;stroke-width:3;"/>
   </g>
   <g id="line2d_7">
    <path clip-path="url(#p0704f7205a)" d="M 73.832727 214.894773 
L 90.065455 214.358921 
L 106.298182 219.112048 
L 122.530909 228.248052 
L 138.763636 229.875381 
L 154.996364 231.870367 
L 171.229091 231.743432 
L 187.461818 221.462386 
L 203.694545 218.056705 
L 219.927273 230.202832 
L 236.16 230.194755 
L 252.392727 228.376066 
L 268.625455 218.267187 
L 284.858182 225.573889 
L 301.090909 216.433395 
L 317.323636 219.614182 
L 333.556364 219.258047 
L 349.789091 207.496341 
L 366.021818 210.837699 
L 382.254545 207.675592 
L 398.487273 214.894773 
" style="fill:none;stroke:#0e4db3;stroke-linecap:square;stroke-width:3;"/>
   </g>
   <g id="line2d_8">
    <path clip-path="url(#p0704f7205a)" d="M 73.832727 229.591539 
L 90.065455 223.184764 
L 106.298182 231.119426 
L 122.530909 240.023111 
L 138.763636 241.094373 
L 154.996364 242.875403 
L 171.229091 242.873167 
L 187.461818 234.938291 
L 203.694545 232.527051 
L 219.927273 241.821308 
L 236.16 241.788168 
L 252.392727 239.54266 
L 268.625455 232.133956 
L 284.858182 236.775455 
L 301.090909 230.925792 
L 317.323636 233.339622 
L 333.556364 232.951012 
L 349.789091 223.846234 
L 366.021818 225.522847 
L 382.254545 223.80597 
L 398.487273 229.591539 
" style="fill:none;stroke:#d44e4e;stroke-linecap:square;stroke-width:3;"/>
   </g>
   <g id="line2d_9">
    <path clip-path="url(#p0704f7205a)" d="M 73.832727 213.934707 
L 90.065455 210.482021 
L 106.298182 210.454654 
L 122.530909 210.473605 
L 138.763636 202.916964 
L 154.996364 203.291122 
L 171.229091 202.615307 
L 187.461818 207.678483 
L 203.694545 201.556071 
L 219.927273 204.318903 
L 236.16 208.960183 
L 252.392727 209.040581 
L 268.625455 209.874052 
L 284.858182 214.925163 
L 301.090909 215.851437 
L 317.323636 216.252137 
L 333.556364 216.065719 
L 349.789091 216.652526 
L 366.021818 215.043862 
L 382.254545 214.195594 
L 398.487273 213.934707 
" style="fill:none;stroke:#0e4db3;stroke-linecap:square;stroke-width:3;"/>
   </g>
   <g id="line2d_10">
    <path clip-path="url(#p0704f7205a)" d="M 73.832727 226.444174 
L 90.065455 223.958178 
L 106.298182 223.74984 
L 122.530909 223.52392 
L 138.763636 218.825246 
L 154.996364 218.747798 
L 171.229091 217.631442 
L 187.461818 221.467464 
L 203.694545 215.997407 
L 219.927273 218.62717 
L 236.16 222.407879 
L 252.392727 222.320387 
L 268.625455 223.075823 
L 284.858182 225.76952 
L 301.090909 226.451585 
L 317.323636 227.374098 
L 333.556364 227.842236 
L 349.789091 228.286417 
L 366.021818 226.965813 
L 382.254545 226.44917 
L 398.487273 226.444174 
" style="fill:none;stroke:#d44e4e;stroke-linecap:square;stroke-width:3;"/>
   </g>
   <g id="line2d_11">
    <path clip-path="url(#p0704f7205a)" d="M 73.832727 204.504461 
L 90.065455 204.408246 
L 106.298182 204.725871 
L 122.530909 212.308349 
L 138.763636 213.082148 
L 154.996364 215.017082 
L 171.229091 213.326382 
L 187.461818 211.301896 
L 203.694545 205.962355 
L 219.927273 207.849007 
L 236.16 207.087191 
L 252.392727 203.693901 
L 268.625455 202.501589 
L 284.858182 202.567073 
L 301.090909 198.800874 
L 317.323636 198.216939 
L 333.556364 189.195022 
L 349.789091 197.487554 
L 366.021818 197.047105 
L 382.254545 201.015695 
L 398.487273 204.504461 
" style="fill:none;stroke:#0e4db3;stroke-linecap:square;stroke-width:3;"/>
   </g>
   <g id="line2d_12">
    <path clip-path="url(#p0704f7205a)" d="M 73.832727 221.546234 
L 90.065455 221.543075 
L 106.298182 221.761492 
L 122.530909 227.408123 
L 138.763636 227.777402 
L 154.996364 228.71186 
L 171.229091 228.106048 
L 187.461818 225.535379 
L 203.694545 222.937079 
L 219.927273 223.952969 
L 236.16 224.101733 
L 252.392727 220.403583 
L 268.625455 218.734785 
L 284.858182 218.26967 
L 301.090909 216.174082 
L 317.323636 216.172595 
L 333.556364 210.176506 
L 349.789091 215.692013 
L 366.021818 215.025294 
L 382.254545 218.520207 
L 398.487273 221.546234 
" style="fill:none;stroke:#d44e4e;stroke-linecap:square;stroke-width:3;"/>
   </g>
   <g id="line2d_13">
    <path clip-path="url(#p0704f7205a)" d="M 73.832727 259.451157 
L 90.065455 259.054318 
L 106.298182 259.411109 
L 122.530909 258.54776 
L 138.763636 248.569626 
L 154.996364 247.276351 
L 171.229091 239.212979 
L 187.461818 241.696963 
L 203.694545 229.476236 
L 219.927273 219.873373 
L 236.16 220.024721 
L 252.392727 209.760864 
L 268.625455 200.71744 
L 284.858182 205.547291 
L 301.090909 193.030418 
L 317.323636 200.304125 
L 333.556364 202.367141 
L 349.789091 235.952033 
L 366.021818 239.056334 
L 382.254545 238.713421 
L 398.487273 259.451157 
" style="fill:none;stroke:#0e4db3;stroke-linecap:square;stroke-width:3;"/>
   </g>
   <g id="line2d_14">
    <path clip-path="url(#p0704f7205a)" d="M 73.832727 261.675381 
L 90.065455 261.095464 
L 106.298182 261.408512 
L 122.530909 261.031849 
L 138.763636 253.217833 
L 154.996364 252.238998 
L 171.229091 245.179878 
L 187.461818 247.081949 
L 203.694545 237.493255 
L 219.927273 230.472276 
L 236.16 230.491684 
L 252.392727 221.918205 
L 268.625455 214.757973 
L 284.858182 219.429872 
L 301.090909 209.08309 
L 317.323636 214.201639 
L 333.556364 216.205794 
L 349.789091 242.454128 
L 366.021818 245.046862 
L 382.254545 245.021046 
L 398.487273 261.675381 
" style="fill:none;stroke:#d44e4e;stroke-linecap:square;stroke-width:3;"/>
   </g>
   <g id="line2d_15">
    <path clip-path="url(#p0704f7205a)" d="M 73.832727 285.408 
L 90.065455 285.408 
L 106.298182 285.408 
L 122.530909 285.408 
L 138.763636 285.408 
L 154.996364 285.408 
L 171.229091 285.408 
L 187.461818 285.408 
L 203.694545 285.408 
L 219.927273 285.408 
L 236.16 285.408 
L 252.392727 285.408 
L 268.625455 285.408 
L 284.858182 285.408 
L 301.090909 285.408 
L 317.323636 285.408 
L 333.556364 285.408 
L 349.789091 285.408 
L 366.021818 285.408 
L 382.254545 285.408 
L 398.487273 285.408 
" style="fill:none;stroke:#0e4db3;stroke-linecap:square;stroke-width:3;"/>
   </g>
   <g id="line2d_16">
    <path clip-path="url(#p0704f7205a)" d="M 73.832727 285.408 
L 90.065455 285.408 
L 106.298182 285.408 
L 122.530909 285.408 
L 138.763636 285.408 
L 154.996364 285.408 
L 171.229091 285.408 
L 187.461818 285.408 
L 203.694545 285.408 
L 219.927273 285.408 
L 236.16 285.408 
L 252.392727 285.408 
L 268.625455 285.408 
L 284.858182 285.408 
L 301.090909 285.408 
L 317.323636 285.408 
L 333.556364 285.408 
L 349.789091 285.408 
L 366.021818 285.408 
L 382.254545 285.408 
L 398.487273 285.408 
" style="fill:none;stroke:#d44e4e;stroke-linecap:square;stroke-width:3;"/>
   </g>
   <g id="line2d_17">
    <path clip-path="url(#p0704f7205a)" d="M 73.832727 285.408 
L 90.065455 285.043605 
L 106.298182 285.262841 
L 122.530909 285.129518 
L 138.763636 285.285843 
L 154.996364 285.408 
L 171.229091 285.408 
L 187.461818 285.408 
L 203.694545 285.408 
L 219.927273 285.408 
L 236.16 285.408 
L 252.392727 285.408 
L 268.625455 284.560609 
L 284.858182 285.408 
L 301.090909 285.408 
L 317.323636 285.408 
L 333.556364 285.408 
L 349.789091 285.408 
L 366.021818 285.408 
L 382.254545 285.408 
L 398.487273 285.408 
" style="fill:none;stroke:#0e4db3;stroke-linecap:square;stroke-width:3;"/>
   </g>
   <g id="line2d_18">
    <path clip-path="url(#p0704f7205a)" d="M 73.832727 285.408 
L 90.065455 285.408 
L 106.298182 285.408 
L 122.530909 285.408 
L 138.763636 285.408 
L 154.996364 285.408 
L 171.229091 285.408 
L 187.461818 285.408 
L 203.694545 285.408 
L 219.927273 285.408 
L 236.16 285.408 
L 252.392727 285.408 
L 268.625455 285.408 
L 284.858182 285.408 
L 301.090909 285.408 
L 317.323636 285.408 
L 333.556364 285.408 
L 349.789091 285.408 
L 366.021818 285.408 
L 382.254545 285.408 
L 398.487273 285.408 
" style="fill:none;stroke:#d44e4e;stroke-linecap:square;stroke-width:3;"/>
   </g>
   <g id="line2d_19">
    <path clip-path="url(#p0704f7205a)" d="M 73.832727 264.4775 
L 90.065455 257.875361 
L 106.298182 248.202028 
L 122.530909 247.270383 
L 138.763636 237.274007 
L 154.996364 235.245983 
L 171.229091 228.541682 
L 187.461818 229.380843 
L 203.694545 219.739897 
L 219.927273 220.230358 
L 236.16 243.116459 
L 252.392727 221.390405 
L 268.625455 232.140171 
L 284.858182 245.454707 
L 301.090909 242.847748 
L 317.323636 252.222661 
L 333.556364 253.379394 
L 349.789091 255.279897 
L 366.021818 255.923288 
L 382.254545 262.229805 
L 398.487273 264.4775 
" style="fill:none;stroke:#0e4db3;stroke-linecap:square;stroke-width:3;"/>
   </g>
   <g id="line2d_20">
    <path clip-path="url(#p0704f7205a)" d="M 73.832727 264.878054 
L 90.065455 259.825993 
L 106.298182 251.98866 
L 122.530909 250.439848 
L 138.763636 242.999432 
L 154.996364 241.646961 
L 171.229091 236.142932 
L 187.461818 236.376665 
L 203.694545 229.151012 
L 219.927273 229.183584 
L 236.16 247.638842 
L 252.392727 230.253748 
L 268.625455 238.753749 
L 284.858182 249.951114 
L 301.090909 247.379303 
L 317.323636 254.850187 
L 333.556364 255.671327 
L 349.789091 256.438104 
L 366.021818 257.178439 
L 382.254545 262.68076 
L 398.487273 264.878054 
" style="fill:none;stroke:#d44e4e;stroke-linecap:square;stroke-width:3;"/>
   </g>
   <g id="line2d_21">
    <path clip-path="url(#p0704f7205a)" d="M 73.832727 242.199976 
L 90.065455 239.208353 
L 106.298182 234.707799 
L 122.530909 232.889542 
L 138.763636 235.10687 
L 154.996364 235.22814 
L 171.229091 235.44265 
L 187.461818 240.134404 
L 203.694545 239.404714 
L 219.927273 241.765917 
L 236.16 243.842204 
L 252.392727 241.301584 
L 268.625455 240.761179 
L 284.858182 240.81607 
L 301.090909 240.919039 
L 317.323636 241.326464 
L 333.556364 231.860104 
L 349.789091 237.08305 
L 366.021818 235.451435 
L 382.254545 242.355197 
L 398.487273 242.199976 
" style="fill:none;stroke:#0e4db3;stroke-linecap:square;stroke-width:3;"/>
   </g>
   <g id="line2d_22">
    <path clip-path="url(#p0704f7205a)" d="M 73.832727 251.42561 
L 90.065455 249.041437 
L 106.298182 245.565577 
L 122.530909 243.486142 
L 138.763636 246.733482 
L 154.996364 246.897805 
L 171.229091 246.827033 
L 187.461818 249.708549 
L 203.694545 248.232048 
L 219.927273 251.67622 
L 236.16 250.09212 
L 252.392727 250.350951 
L 268.625455 250.269159 
L 284.858182 250.830661 
L 301.090909 251.077508 
L 317.323636 250.991952 
L 333.556364 243.642835 
L 349.789091 245.245819 
L 366.021818 244.900769 
L 382.254545 251.426772 
L 398.487273 251.42561 
" style="fill:none;stroke:#d44e4e;stroke-linecap:square;stroke-width:3;"/>
   </g>
   <g id="line2d_23">
    <path clip-path="url(#p0704f7205a)" d="M 73.832727 283.837924 
L 90.065455 267.282428 
L 106.298182 253.325727 
L 122.530909 254.215975 
L 138.763636 237.288464 
L 154.996364 236.014373 
L 171.229091 236.260765 
L 187.461818 237.781102 
L 203.694545 233.534845 
L 219.927273 233.527328 
L 236.16 239.582822 
L 252.392727 235.593123 
L 268.625455 240.77428 
L 284.858182 253.209288 
L 301.090909 248.204705 
L 317.323636 266.419733 
L 333.556364 266.708551 
L 349.789091 271.188525 
L 366.021818 279.952308 
L 382.254545 271.914765 
L 398.487273 283.837924 
" style="fill:none;stroke:#0e4db3;stroke-linecap:square;stroke-width:3;"/>
   </g>
   <g id="line2d_24">
    <path clip-path="url(#p0704f7205a)" d="M 73.832727 285.000609 
L 90.065455 272.383194 
L 106.298182 261.135136 
L 122.530909 257.96977 
L 138.763636 248.904205 
L 154.996364 247.799044 
L 171.229091 247.836597 
L 187.461818 247.78157 
L 203.694545 244.851573 
L 219.927273 244.881608 
L 236.16 250.041425 
L 252.392727 246.394486 
L 268.625455 249.635669 
L 284.858182 261.307622 
L 301.090909 256.4037 
L 317.323636 270.356875 
L 333.556364 271.882493 
L 349.789091 275.870439 
L 366.021818 281.819292 
L 382.254545 275.888669 
L 398.487273 285.000609 
" style="fill:none;stroke:#d44e4e;stroke-linecap:square;stroke-width:3;"/>
   </g>
   <g id="line2d_25">
    <path clip-path="url(#p0704f7205a)" d="M 73.832727 220.827496 
L 90.065455 220.438201 
L 106.298182 216.472371 
L 122.530909 222.783884 
L 138.763636 226.558791 
L 154.996364 239.892415 
L 171.229091 242.239623 
L 187.461818 240.088401 
L 203.694545 219.443585 
L 219.927273 205.312207 
L 236.16 206.40846 
L 252.392727 205.05407 
L 268.625455 219.370841 
L 284.858182 228.150511 
L 301.090909 216.199375 
L 317.323636 211.913442 
L 333.556364 210.817859 
L 349.789091 208.802236 
L 366.021818 203.797813 
L 382.254545 208.465708 
L 398.487273 220.827496 
" style="fill:none;stroke:#0e4db3;stroke-linecap:square;stroke-width:3;"/>
   </g>
   <g id="line2d_26">
    <path clip-path="url(#p0704f7205a)" d="M 73.832727 230.036371 
L 90.065455 230.025743 
L 106.298182 226.819027 
L 122.530909 230.981494 
L 138.763636 235.241124 
L 154.996364 245.41282 
L 171.229091 247.181502 
L 187.461818 244.482303 
L 203.694545 228.160361 
L 219.927273 217.925844 
L 236.16 218.674534 
L 252.392727 217.626781 
L 268.625455 228.806797 
L 284.858182 235.888682 
L 301.090909 226.181071 
L 317.323636 222.905858 
L 333.556364 222.171512 
L 349.789091 220.637103 
L 366.021818 216.232136 
L 382.254545 220.205372 
L 398.487273 230.036371 
" style="fill:none;stroke:#d44e4e;stroke-linecap:square;stroke-width:3;"/>
   </g>
   <g id="line2d_27">
    <path clip-path="url(#p0704f7205a)" d="M 73.832727 218.759655 
L 90.065455 218.327287 
L 106.298182 225.295848 
L 122.530909 227.243329 
L 138.763636 241.080709 
L 154.996364 250.564441 
L 171.229091 240.877327 
L 187.461818 228.451347 
L 203.694545 223.321729 
L 219.927273 236.344773 
L 236.16 234.78876 
L 252.392727 234.841551 
L 268.625455 242.277818 
L 284.858182 247.854814 
L 301.090909 238.888546 
L 317.323636 237.250459 
L 333.556364 228.72846 
L 349.789091 228.375794 
L 366.021818 223.473539 
L 382.254545 219.032054 
L 398.487273 218.759655 
" style="fill:none;stroke:#0e4db3;stroke-linecap:square;stroke-width:3;"/>
   </g>
   <g id="line2d_28">
    <path clip-path="url(#p0704f7205a)" d="M 73.832727 229.247766 
L 90.065455 227.419168 
L 106.298182 234.537275 
L 122.530909 232.034529 
L 138.763636 246.985389 
L 154.996364 254.343359 
L 171.229091 246.319671 
L 187.461818 236.022318 
L 203.694545 232.065818 
L 219.927273 242.964212 
L 236.16 241.724875 
L 252.392727 241.491807 
L 268.625455 247.768221 
L 284.858182 251.712155 
L 301.090909 245.435275 
L 317.323636 243.163818 
L 333.556364 237.150955 
L 349.789091 235.681034 
L 366.021818 232.281339 
L 382.254545 227.391091 
L 398.487273 229.247766 
" style="fill:none;stroke:#d44e4e;stroke-linecap:square;stroke-width:3;"/>
   </g>
   <g id="line2d_29">
    <path clip-path="url(#p0704f7205a)" d="M 73.832727 186.992135 
L 90.065455 186.851885 
L 106.298182 184.645694 
L 122.530909 185.975672 
L 138.763636 185.838182 
L 154.996364 185.909109 
L 171.229091 184.574029 
L 187.461818 185.569763 
L 203.694545 180.994651 
L 219.927273 183.038891 
L 236.16 183.435353 
L 252.392727 183.349557 
L 268.625455 185.004788 
L 284.858182 186.270263 
L 301.090909 185.188004 
L 317.323636 185.717467 
L 333.556364 185.342016 
L 349.789091 186.451448 
L 366.021818 184.853459 
L 382.254545 185.847288 
L 398.487273 186.992135 
" style="fill:none;stroke:#0e4db3;stroke-linecap:square;stroke-width:3;"/>
   </g>
   <g id="line2d_30">
    <path clip-path="url(#p0704f7205a)" d="M 73.832727 202.817707 
L 90.065455 202.134068 
L 106.298182 200.706817 
L 122.530909 201.583964 
L 138.763636 201.562048 
L 154.996364 201.601584 
L 171.229091 200.566285 
L 187.461818 201.520423 
L 203.694545 197.770765 
L 219.927273 199.631264 
L 236.16 199.834326 
L 252.392727 199.791155 
L 268.625455 199.807094 
L 284.858182 201.414684 
L 301.090909 200.515671 
L 317.323636 201.218105 
L 333.556364 201.11466 
L 349.789091 202.08634 
L 366.021818 200.810243 
L 382.254545 201.789863 
L 398.487273 202.817707 
" style="fill:none;stroke:#d44e4e;stroke-linecap:square;stroke-width:3;"/>
   </g>
   <g id="line2d_31">
    <path clip-path="url(#p0704f7205a)" d="M 73.832727 237.716162 
L 90.065455 229.01617 
L 106.298182 228.940661 
L 122.530909 234.237022 
L 138.763636 234.96837 
L 154.996364 232.895533 
L 171.229091 232.778914 
L 187.461818 232.48167 
L 203.694545 239.333233 
L 219.927273 239.150945 
L 236.16 240.735269 
L 252.392727 250.651843 
L 268.625455 261.242301 
L 284.858182 265.239806 
L 301.090909 265.349396 
L 317.323636 263.76144 
L 333.556364 262.037269 
L 349.789091 259.361425 
L 366.021818 248.370636 
L 382.254545 237.790854 
L 398.487273 237.716162 
" style="fill:none;stroke:#0e4db3;stroke-linecap:square;stroke-width:3;"/>
   </g>
   <g id="line2d_32">
    <path clip-path="url(#p0704f7205a)" d="M 73.832727 244.44477 
L 90.065455 237.470285 
L 106.298182 237.743714 
L 122.530909 239.599645 
L 138.763636 242.380991 
L 154.996364 240.571607 
L 171.229091 240.358331 
L 187.461818 239.911405 
L 203.694545 245.410069 
L 219.927273 245.421569 
L 236.16 246.867755 
L 252.392727 254.707872 
L 268.625455 263.206384 
L 284.858182 266.149546 
L 301.090909 266.193791 
L 317.323636 264.82923 
L 333.556364 263.615918 
L 349.789091 261.335253 
L 366.021818 252.369036 
L 382.254545 243.713359 
L 398.487273 244.44477 
" style="fill:none;stroke:#d44e4e;stroke-linecap:square;stroke-width:3;"/>
   </g>
   <g id="line2d_33">
    <path clip-path="url(#p0704f7205a)" d="M 73.832727 158.306762 
L 90.065455 158.289249 
L 106.298182 158.047897 
L 122.530909 160.866129 
L 138.763636 160.008138 
L 154.996364 160.466226 
L 171.229091 160.651755 
L 187.461818 161.541964 
L 203.694545 158.498375 
L 219.927273 160.407215 
L 236.16 160.51859 
L 252.392727 160.008575 
L 268.625455 160.193852 
L 284.858182 163.56595 
L 301.090909 160.889726 
L 317.323636 160.740331 
L 333.556364 159.991956 
L 349.789091 160.065847 
L 366.021818 158.11547 
L 382.254545 158.286898 
L 398.487273 158.306762 
" style="fill:none;stroke:#0e4db3;stroke-linecap:square;stroke-width:3;"/>
   </g>
   <g id="line2d_34">
    <path clip-path="url(#p0704f7205a)" d="M 73.832727 182.076035 
L 90.065455 182.073013 
L 106.298182 181.814954 
L 122.530909 183.813739 
L 138.763636 182.813768 
L 154.996364 183.706445 
L 171.229091 183.449115 
L 187.461818 184.757361 
L 203.694545 181.952774 
L 219.927273 183.873198 
L 236.16 184.076978 
L 252.392727 183.417218 
L 268.625455 182.341559 
L 284.858182 184.12285 
L 301.090909 183.194137 
L 317.323636 183.197655 
L 333.556364 182.888543 
L 349.789091 183.236141 
L 366.021818 181.561394 
L 382.254545 181.925426 
L 398.487273 182.076035 
" style="fill:none;stroke:#d44e4e;stroke-linecap:square;stroke-width:3;"/>
   </g>
   <g id="line2d_35">
    <path clip-path="url(#p0704f7205a)" d="M 73.832727 285.408 
L 90.065455 285.408 
L 106.298182 285.408 
L 122.530909 285.408 
L 138.763636 285.408 
L 154.996364 285.408 
L 171.229091 285.408 
L 187.461818 285.408 
L 203.694545 285.408 
L 219.927273 285.408 
L 236.16 285.408 
L 252.392727 285.408 
L 268.625455 283.56077 
L 284.858182 284.879484 
L 301.090909 285.408 
L 317.323636 285.408 
L 333.556364 285.408 
L 349.789091 285.408 
L 366.021818 285.408 
L 382.254545 285.408 
L 398.487273 285.408 
" style="fill:none;stroke:#0e4db3;stroke-linecap:square;stroke-width:3;"/>
   </g>
   <g id="line2d_36">
    <path clip-path="url(#p0704f7205a)" d="M 73.832727 285.408 
L 90.065455 285.408 
L 106.298182 285.408 
L 122.530909 285.408 
L 138.763636 285.408 
L 154.996364 285.408 
L 171.229091 285.408 
L 187.461818 285.408 
L 203.694545 285.408 
L 219.927273 285.408 
L 236.16 285.408 
L 252.392727 285.408 
L 268.625455 285.408 
L 284.858182 285.408 
L 301.090909 285.408 
L 317.323636 285.408 
L 333.556364 285.408 
L 349.789091 285.408 
L 366.021818 285.408 
L 382.254545 285.408 
L 398.487273 285.408 
" style="fill:none;stroke:#d44e4e;stroke-linecap:square;stroke-width:3;"/>
   </g>
   <g id="line2d_37">
    <path clip-path="url(#p0704f7205a)" d="M 73.832727 235.798819 
L 90.065455 199.42898 
L 106.298182 208.130065 
L 122.530909 217.970433 
L 138.763636 219.845757 
L 154.996364 245.968566 
L 171.229091 254.626626 
L 187.461818 254.427579 
L 203.694545 227.778962 
L 219.927273 203.357393 
L 236.16 204.725332 
L 252.392727 202.520287 
L 268.625455 216.323292 
L 284.858182 231.601753 
L 301.090909 217.106542 
L 317.323636 210.59069 
L 333.556364 209.111328 
L 349.789091 214.598534 
L 366.021818 194.805781 
L 382.254545 212.352584 
L 398.487273 235.798819 
" style="fill:none;stroke:#0e4db3;stroke-linecap:square;stroke-width:3;"/>
   </g>
   <g id="line2d_38">
    <path clip-path="url(#p0704f7205a)" d="M 73.832727 246.325952 
L 90.065455 216.879296 
L 106.298182 222.267771 
L 122.530909 231.437498 
L 138.763636 233.939933 
L 154.996364 255.025567 
L 171.229091 261.964076 
L 187.461818 259.179049 
L 203.694545 238.254623 
L 219.927273 220.455554 
L 236.16 221.474758 
L 252.392727 219.703758 
L 268.625455 230.407885 
L 284.858182 242.764425 
L 301.090909 231.004309 
L 317.323636 225.843241 
L 333.556364 224.822793 
L 349.789091 227.96316 
L 366.021818 212.953473 
L 382.254545 226.992981 
L 398.487273 246.325952 
" style="fill:none;stroke:#d44e4e;stroke-linecap:square;stroke-width:3;"/>
   </g>
   <g id="line2d_39">
    <path clip-path="url(#p0704f7205a)" d="M 73.832727 264.085234 
L 90.065455 247.119487 
L 106.298182 252.888291 
L 122.530909 252.425941 
L 138.763636 256.401037 
L 154.996364 258.324411 
L 171.229091 263.044359 
L 187.461818 267.759288 
L 203.694545 265.682952 
L 219.927273 256.948688 
L 236.16 257.642099 
L 252.392727 257.403997 
L 268.625455 260.369569 
L 284.858182 252.574617 
L 301.090909 258.840884 
L 317.323636 267.776179 
L 333.556364 267.850849 
L 349.789091 263.26351 
L 366.021818 260.097146 
L 382.254545 259.656735 
L 398.487273 264.085234 
" style="fill:none;stroke:#0e4db3;stroke-linecap:square;stroke-width:3;"/>
   </g>
   <g id="line2d_40">
    <path clip-path="url(#p0704f7205a)" d="M 73.832727 269.501715 
L 90.065455 253.148887 
L 106.298182 257.897398 
L 122.530909 259.54656 
L 138.763636 263.171319 
L 154.996364 264.943402 
L 171.229091 268.082233 
L 187.461818 272.181009 
L 203.694545 270.060542 
L 219.927273 263.632838 
L 236.16 264.14487 
L 252.392727 263.958609 
L 268.625455 266.112934 
L 284.858182 259.886457 
L 301.090909 265.142314 
L 317.323636 271.780389 
L 333.556364 272.020451 
L 349.789091 268.389916 
L 366.021818 265.683375 
L 382.254545 265.51108 
L 398.487273 269.501715 
" style="fill:none;stroke:#d44e4e;stroke-linecap:square;stroke-width:3;"/>
   </g>
   <g id="line2d_41">
    <path clip-path="url(#p0704f7205a)" d="M 73.832727 261.358973 
L 90.065455 249.871497 
L 106.298182 235.043704 
L 122.530909 229.658233 
L 138.763636 222.038255 
L 154.996364 219.021451 
L 171.229091 226.89544 
L 187.461818 237.57115 
L 203.694545 239.603436 
L 219.927273 226.357095 
L 236.16 226.277295 
L 252.392727 232.575144 
L 268.625455 229.562203 
L 284.858182 239.884849 
L 301.090909 244.116061 
L 317.323636 270.322142 
L 333.556364 269.026996 
L 349.789091 270.152446 
L 366.021818 258.434088 
L 382.254545 261.482126 
L 398.487273 261.358973 
" style="fill:none;stroke:#0e4db3;stroke-linecap:square;stroke-width:3;"/>
   </g>
   <g id="line2d_42">
    <path clip-path="url(#p0704f7205a)" d="M 73.832727 265.942933 
L 90.065455 256.973019 
L 106.298182 237.889052 
L 122.530909 239.189159 
L 138.763636 235.336639 
L 154.996364 232.822746 
L 171.229091 238.912673 
L 187.461818 245.675799 
L 203.694545 248.353592 
L 219.927273 238.253904 
L 236.16 238.250221 
L 252.392727 242.882973 
L 268.625455 240.35975 
L 284.858182 248.096048 
L 301.090909 251.011878 
L 317.323636 273.768271 
L 333.556364 272.357948 
L 349.789091 272.037526 
L 366.021818 261.896585 
L 382.254545 265.238086 
L 398.487273 265.942933 
" style="fill:none;stroke:#d44e4e;stroke-linecap:square;stroke-width:3;"/>
   </g>
   <g id="line2d_43">
    <path clip-path="url(#p0704f7205a)" d="M 73.832727 238.0582 
L 90.065455 237.698236 
L 106.298182 237.558798 
L 122.530909 242.16615 
L 138.763636 237.658394 
L 154.996364 248.279092 
L 171.229091 249.295715 
L 187.461818 249.504943 
L 203.694545 248.792955 
L 219.927273 248.390992 
L 236.16 248.065515 
L 252.392727 242.788474 
L 268.625455 240.066179 
L 284.858182 244.351704 
L 301.090909 237.414199 
L 317.323636 237.582744 
L 333.556364 237.61468 
L 349.789091 238.734438 
L 366.021818 234.224024 
L 382.254545 237.754191 
L 398.487273 238.0582 
" style="fill:none;stroke:#0e4db3;stroke-linecap:square;stroke-width:3;"/>
   </g>
   <g id="line2d_44">
    <path clip-path="url(#p0704f7205a)" d="M 73.832727 245.110555 
L 90.065455 242.397012 
L 106.298182 242.228112 
L 122.530909 243.918184 
L 138.763636 245.049046 
L 154.996364 253.271483 
L 171.229091 253.877401 
L 187.461818 254.040198 
L 203.694545 253.95699 
L 219.927273 253.684277 
L 236.16 253.721947 
L 252.392727 248.429944 
L 268.625455 246.643259 
L 284.858182 249.764922 
L 301.090909 244.51919 
L 317.323636 244.533846 
L 333.556364 244.539799 
L 349.789091 245.720284 
L 366.021818 241.590369 
L 382.254545 244.64079 
L 398.487273 245.110555 
" style="fill:none;stroke:#d44e4e;stroke-linecap:square;stroke-width:3;"/>
   </g>
   <g id="line2d_45">
    <path clip-path="url(#p0704f7205a)" d="M 73.832727 285.408 
L 90.065455 285.408 
L 106.298182 285.408 
L 122.530909 285.408 
L 138.763636 285.408 
L 154.996364 285.408 
L 171.229091 285.408 
L 187.461818 285.408 
L 203.694545 285.408 
L 219.927273 285.408 
L 236.16 285.408 
L 252.392727 285.408 
L 268.625455 285.408 
L 284.858182 285.408 
L 301.090909 285.408 
L 317.323636 285.408 
L 333.556364 285.408 
L 349.789091 285.408 
L 366.021818 285.408 
L 382.254545 285.408 
L 398.487273 285.408 
" style="fill:none;stroke:#0e4db3;stroke-linecap:square;stroke-width:3;"/>
   </g>
   <g id="line2d_46">
    <path clip-path="url(#p0704f7205a)" d="M 73.832727 285.408 
L 90.065455 285.408 
L 106.298182 285.408 
L 122.530909 285.408 
L 138.763636 285.408 
L 154.996364 285.408 
L 171.229091 285.408 
L 187.461818 285.408 
L 203.694545 285.408 
L 219.927273 285.408 
L 236.16 285.408 
L 252.392727 285.408 
L 268.625455 285.408 
L 284.858182 285.408 
L 301.090909 285.408 
L 317.323636 285.408 
L 333.556364 285.408 
L 349.789091 285.408 
L 366.021818 285.408 
L 382.254545 285.408 
L 398.487273 285.408 
" style="fill:none;stroke:#d44e4e;stroke-linecap:square;stroke-width:3;"/>
   </g>
   <g id="line2d_47">
    <path clip-path="url(#p0704f7205a)" d="M 73.832727 222.479608 
L 90.065455 164.9815 
L 106.298182 166.557612 
L 122.530909 161.961877 
L 138.763636 140.147831 
L 154.996364 156.789021 
L 171.229091 194.266163 
L 187.461818 250.830188 
L 203.694545 224.00322 
L 219.927273 200.423217 
L 236.16 197.002244 
L 252.392727 172.687706 
L 268.625455 153.269335 
L 284.858182 141.770223 
L 301.090909 161.082923 
L 317.323636 199.807813 
L 333.556364 263.102212 
L 349.789091 285.408 
L 366.021818 266.43825 
L 382.254545 219.133337 
L 398.487273 222.479608 
" style="fill:none;stroke:#0e4db3;stroke-linecap:square;stroke-width:3;"/>
   </g>
   <g id="line2d_48">
    <path clip-path="url(#p0704f7205a)" d="M 73.832727 285.408 
L 90.065455 237.817644 
L 106.298182 242.164309 
L 122.530909 227.121442 
L 138.763636 263.569616 
L 154.996364 280.970907 
L 171.229091 285.408 
L 187.461818 285.408 
L 203.694545 285.408 
L 219.927273 285.408 
L 236.16 284.02606 
L 252.392727 263.956683 
L 268.625455 251.58885 
L 284.858182 254.093308 
L 301.090909 265.809651 
L 317.323636 285.408 
L 333.556364 285.408 
L 349.789091 285.408 
L 366.021818 285.408 
L 382.254545 285.408 
L 398.487273 285.408 
" style="fill:none;stroke:#d44e4e;stroke-linecap:square;stroke-width:3;"/>
   </g>
   <g id="line2d_49">
    <path clip-path="url(#p0704f7205a)" d="M 73.832727 285.408 
L 90.065455 285.408 
L 106.298182 285.408 
L 122.530909 285.408 
L 138.763636 285.408 
L 154.996364 285.408 
L 171.229091 285.408 
L 187.461818 285.408 
L 203.694545 285.408 
L 219.927273 285.408 
L 236.16 285.408 
L 252.392727 285.408 
L 268.625455 285.408 
L 284.858182 285.408 
L 301.090909 285.408 
L 317.323636 285.408 
L 333.556364 285.408 
L 349.789091 285.408 
L 366.021818 285.408 
L 382.254545 285.408 
L 398.487273 285.408 
" style="fill:none;stroke:#0e4db3;stroke-linecap:square;stroke-width:3;"/>
   </g>
   <g id="line2d_50">
    <path clip-path="url(#p0704f7205a)" d="M 73.832727 285.408 
L 90.065455 285.408 
L 106.298182 285.408 
L 122.530909 285.408 
L 138.763636 285.408 
L 154.996364 285.408 
L 171.229091 285.408 
L 187.461818 285.408 
L 203.694545 285.408 
L 219.927273 285.408 
L 236.16 285.408 
L 252.392727 285.408 
L 268.625455 285.408 
L 284.858182 285.408 
L 301.090909 285.408 
L 317.323636 285.408 
L 333.556364 285.408 
L 349.789091 285.408 
L 366.021818 285.408 
L 382.254545 285.408 
L 398.487273 285.408 
" style="fill:none;stroke:#d44e4e;stroke-linecap:square;stroke-width:3;"/>
   </g>
   <g id="line2d_51">
    <path clip-path="url(#p0704f7205a)" d="M 73.832727 285.408 
L 90.065455 285.408 
L 106.298182 285.408 
L 122.530909 285.408 
L 138.763636 285.408 
L 154.996364 285.408 
L 171.229091 285.408 
L 187.461818 285.408 
L 203.694545 285.408 
L 219.927273 285.408 
L 236.16 285.408 
L 252.392727 285.408 
L 268.625455 285.408 
L 284.858182 285.408 
L 301.090909 285.408 
L 317.323636 285.408 
L 333.556364 285.408 
L 349.789091 285.408 
L 366.021818 285.408 
L 382.254545 285.408 
L 398.487273 285.408 
" style="fill:none;stroke:#0e4db3;stroke-linecap:square;stroke-width:3;"/>
   </g>
   <g id="line2d_52">
    <path clip-path="url(#p0704f7205a)" d="M 73.832727 285.408 
L 90.065455 285.408 
L 106.298182 285.408 
L 122.530909 285.408 
L 138.763636 285.408 
L 154.996364 285.408 
L 171.229091 285.408 
L 187.461818 285.408 
L 203.694545 285.408 
L 219.927273 285.408 
L 236.16 285.408 
L 252.392727 285.408 
L 268.625455 285.408 
L 284.858182 285.408 
L 301.090909 285.408 
L 317.323636 285.408 
L 333.556364 285.408 
L 349.789091 285.408 
L 366.021818 285.408 
L 382.254545 285.408 
L 398.487273 285.408 
" style="fill:none;stroke:#d44e4e;stroke-linecap:square;stroke-width:3;"/>
   </g>
   <g id="line2d_53">
    <path clip-path="url(#p0704f7205a)" d="M 73.832727 70.633433 
L 90.065455 136.976957 
L 106.298182 200.888157 
L 122.530909 210.255276 
L 138.763636 206.618961 
L 154.996364 208.899267 
L 171.229091 204.623019 
L 187.461818 215.753682 
L 203.694545 226.405645 
L 219.927273 186.141783 
L 236.16 175.988907 
L 252.392727 163.990081 
L 268.625455 193.1585 
L 284.858182 162.057966 
L 301.090909 117.269427 
L 317.323636 61.096058 
L 333.556364 16.662328 
L 349.789091 26.125258 
L 366.021818 37.357836 
L 382.254545 52.024265 
L 398.487273 70.633433 
" style="fill:none;stroke:#0e4db3;stroke-linecap:square;stroke-width:3;"/>
   </g>
   <g id="line2d_54">
    <path clip-path="url(#p0704f7205a)" d="M 73.832727 285.408 
L 90.065455 285.408 
L 106.298182 285.408 
L 122.530909 285.408 
L 138.763636 285.408 
L 154.996364 285.408 
L 171.229091 285.408 
L 187.461818 285.408 
L 203.694545 285.408 
L 219.927273 285.408 
L 236.16 285.408 
L 252.392727 285.408 
L 268.625455 285.408 
L 284.858182 285.408 
L 301.090909 285.408 
L 317.323636 226.640991 
L 333.556364 254.982438 
L 349.789091 228.743266 
L 366.021818 223.597092 
L 382.254545 247.851777 
L 398.487273 285.408 
" style="fill:none;stroke:#d44e4e;stroke-linecap:square;stroke-width:3;"/>
   </g>
   <g id="line2d_55">
    <path clip-path="url(#p0704f7205a)" d="M 73.832727 285.408 
L 90.065455 285.408 
L 106.298182 285.408 
L 122.530909 285.408 
L 138.763636 285.408 
L 154.996364 285.408 
L 171.229091 285.408 
L 187.461818 285.408 
L 203.694545 285.408 
L 219.927273 285.408 
L 236.16 285.408 
L 252.392727 285.408 
L 268.625455 285.408 
L 284.858182 285.408 
L 301.090909 285.408 
L 317.323636 285.408 
L 333.556364 285.408 
L 349.789091 285.408 
L 366.021818 285.408 
L 382.254545 285.408 
L 398.487273 285.408 
" style="fill:none;stroke:#0e4db3;stroke-linecap:square;stroke-width:3;"/>
   </g>
   <g id="line2d_56">
    <path clip-path="url(#p0704f7205a)" d="M 73.832727 285.408 
L 90.065455 285.408 
L 106.298182 285.408 
L 122.530909 285.408 
L 138.763636 285.408 
L 154.996364 285.408 
L 171.229091 285.408 
L 187.461818 285.408 
L 203.694545 285.408 
L 219.927273 285.408 
L 236.16 285.408 
L 252.392727 285.408 
L 268.625455 285.408 
L 284.858182 285.408 
L 301.090909 285.408 
L 317.323636 285.408 
L 333.556364 285.408 
L 349.789091 285.408 
L 366.021818 285.408 
L 382.254545 285.408 
L 398.487273 285.408 
" style="fill:none;stroke:#d44e4e;stroke-linecap:square;stroke-width:3;"/>
   </g>
   <g id="line2d_57">
    <path clip-path="url(#p0704f7205a)" d="M 73.832727 285.408 
L 90.065455 285.408 
L 106.298182 285.408 
L 122.530909 285.408 
L 138.763636 285.408 
L 154.996364 285.408 
L 171.229091 285.408 
L 187.461818 285.408 
L 203.694545 285.408 
L 219.927273 285.408 
L 236.16 285.408 
L 252.392727 285.408 
L 268.625455 285.408 
L 284.858182 285.408 
L 301.090909 285.408 
L 317.323636 285.408 
L 333.556364 285.408 
L 349.789091 285.408 
L 366.021818 285.408 
L 382.254545 285.408 
L 398.487273 285.408 
" style="fill:none;stroke:#0e4db3;stroke-linecap:square;stroke-width:3;"/>
   </g>
   <g id="line2d_58">
    <path clip-path="url(#p0704f7205a)" d="M 73.832727 285.408 
L 90.065455 285.408 
L 106.298182 285.408 
L 122.530909 285.408 
L 138.763636 285.408 
L 154.996364 285.408 
L 171.229091 285.408 
L 187.461818 285.408 
L 203.694545 285.408 
L 219.927273 285.408 
L 236.16 285.408 
L 252.392727 285.408 
L 268.625455 285.408 
L 284.858182 285.408 
L 301.090909 285.408 
L 317.323636 285.408 
L 333.556364 285.408 
L 349.789091 285.408 
L 366.021818 285.408 
L 382.254545 285.408 
L 398.487273 285.408 
" style="fill:none;stroke:#d44e4e;stroke-linecap:square;stroke-width:3;"/>
   </g>
   <g id="line2d_59">
    <path clip-path="url(#p0704f7205a)" d="M 73.832727 258.332475 
L 90.065455 258.425162 
L 106.298182 263.759593 
L 122.530909 270.958525 
L 138.763636 270.88159 
L 154.996364 272.10861 
L 171.229091 263.311185 
L 187.461818 242.408499 
L 203.694545 198.771047 
L 219.927273 167.796807 
L 236.16 206.513281 
L 252.392727 149.704613 
L 268.625455 156.901641 
L 284.858182 159.465206 
L 301.090909 160.016447 
L 317.323636 178.348798 
L 333.556364 189.885347 
L 349.789091 210.473483 
L 366.021818 221.226865 
L 382.254545 239.659745 
L 398.487273 258.332475 
" style="fill:none;stroke:#0e4db3;stroke-linecap:square;stroke-width:3;"/>
   </g>
   <g id="line2d_60">
    <path clip-path="url(#p0704f7205a)" d="M 73.832727 284.090249 
L 90.065455 275.670668 
L 106.298182 283.425263 
L 122.530909 279.200668 
L 138.763636 278.785913 
L 154.996364 279.373961 
L 171.229091 284.174521 
L 187.461818 284.457973 
L 203.694545 284.302998 
L 219.927273 246.814329 
L 236.16 283.599509 
L 252.392727 230.815184 
L 268.625455 241.426338 
L 284.858182 253.59309 
L 301.090909 259.845979 
L 317.323636 252.408583 
L 333.556364 262.649894 
L 349.789091 255.27105 
L 366.021818 263.075998 
L 382.254545 267.854755 
L 398.487273 284.090249 
" style="fill:none;stroke:#d44e4e;stroke-linecap:square;stroke-width:3;"/>
   </g>
   <g id="line2d_61">
    <path clip-path="url(#p0704f7205a)" d="M 73.832727 285.408 
L 90.065455 285.408 
L 106.298182 285.408 
L 122.530909 285.408 
L 138.763636 285.408 
L 154.996364 285.408 
L 171.229091 285.408 
L 187.461818 285.408 
L 203.694545 285.408 
L 219.927273 285.408 
L 236.16 285.408 
L 252.392727 285.408 
L 268.625455 285.408 
L 284.858182 285.408 
L 301.090909 285.408 
L 317.323636 285.408 
L 333.556364 285.408 
L 349.789091 285.408 
L 366.021818 285.408 
L 382.254545 285.408 
L 398.487273 285.408 
" style="fill:none;stroke:#0e4db3;stroke-linecap:square;stroke-width:3;"/>
   </g>
   <g id="line2d_62">
    <path clip-path="url(#p0704f7205a)" d="M 73.832727 285.408 
L 90.065455 285.408 
L 106.298182 285.408 
L 122.530909 285.408 
L 138.763636 285.408 
L 154.996364 285.408 
L 171.229091 285.408 
L 187.461818 285.408 
L 203.694545 285.408 
L 219.927273 285.408 
L 236.16 285.408 
L 252.392727 285.408 
L 268.625455 285.408 
L 284.858182 285.408 
L 301.090909 285.408 
L 317.323636 285.408 
L 333.556364 285.408 
L 349.789091 285.408 
L 366.021818 285.408 
L 382.254545 285.408 
L 398.487273 285.408 
" style="fill:none;stroke:#d44e4e;stroke-linecap:square;stroke-width:3;"/>
   </g>
   <g id="line2d_63">
    <path clip-path="url(#p0704f7205a)" d="M 73.832727 285.408 
L 90.065455 285.408 
L 106.298182 285.408 
L 122.530909 285.408 
L 138.763636 285.408 
L 154.996364 285.408 
L 171.229091 285.408 
L 187.461818 285.408 
L 203.694545 285.408 
L 219.927273 285.408 
L 236.16 285.408 
L 252.392727 285.408 
L 268.625455 285.408 
L 284.858182 285.408 
L 301.090909 285.408 
L 317.323636 285.408 
L 333.556364 285.408 
L 349.789091 285.408 
L 366.021818 285.408 
L 382.254545 285.408 
L 398.487273 285.408 
" style="fill:none;stroke:#0e4db3;stroke-linecap:square;stroke-width:3;"/>
   </g>
   <g id="line2d_64">
    <path clip-path="url(#p0704f7205a)" d="M 73.832727 285.408 
L 90.065455 285.408 
L 106.298182 285.408 
L 122.530909 285.408 
L 138.763636 285.408 
L 154.996364 285.408 
L 171.229091 285.408 
L 187.461818 285.408 
L 203.694545 285.408 
L 219.927273 285.408 
L 236.16 285.408 
L 252.392727 285.408 
L 268.625455 285.408 
L 284.858182 285.408 
L 301.090909 285.408 
L 317.323636 285.408 
L 333.556364 285.408 
L 349.789091 285.408 
L 366.021818 285.408 
L 382.254545 285.408 
L 398.487273 285.408 
" style="fill:none;stroke:#d44e4e;stroke-linecap:square;stroke-width:3;"/>
   </g>
   <g id="line2d_65">
    <path clip-path="url(#p0704f7205a)" d="M 73.832727 285.408 
L 90.065455 285.408 
L 106.298182 285.408 
L 122.530909 285.408 
L 138.763636 285.408 
L 154.996364 285.408 
L 171.229091 285.408 
L 187.461818 285.408 
L 203.694545 285.408 
L 219.927273 285.408 
L 236.16 285.408 
L 252.392727 285.408 
L 268.625455 285.408 
L 284.858182 285.408 
L 301.090909 285.408 
L 317.323636 285.408 
L 333.556364 285.408 
L 349.789091 285.408 
L 366.021818 285.408 
L 382.254545 285.408 
L 398.487273 285.408 
" style="fill:none;stroke:#0e4db3;stroke-linecap:square;stroke-width:3;"/>
   </g>
   <g id="line2d_66">
    <path clip-path="url(#p0704f7205a)" d="M 73.832727 285.408 
L 90.065455 285.408 
L 106.298182 285.408 
L 122.530909 285.408 
L 138.763636 285.408 
L 154.996364 285.408 
L 171.229091 285.408 
L 187.461818 285.408 
L 203.694545 285.408 
L 219.927273 285.408 
L 236.16 285.408 
L 252.392727 285.408 
L 268.625455 285.408 
L 284.858182 285.408 
L 301.090909 285.408 
L 317.323636 285.408 
L 333.556364 285.408 
L 349.789091 285.408 
L 366.021818 285.408 
L 382.254545 285.408 
L 398.487273 285.408 
" style="fill:none;stroke:#d44e4e;stroke-linecap:square;stroke-width:3;"/>
   </g>
   <g id="line2d_67">
    <path clip-path="url(#p0704f7205a)" d="M 73.832727 285.408 
L 90.065455 285.408 
L 106.298182 285.408 
L 122.530909 285.408 
L 138.763636 285.408 
L 154.996364 285.408 
L 171.229091 285.408 
L 187.461818 285.408 
L 203.694545 285.408 
L 219.927273 285.408 
L 236.16 285.408 
L 252.392727 285.408 
L 268.625455 285.408 
L 284.858182 285.408 
L 301.090909 285.408 
L 317.323636 285.408 
L 333.556364 285.408 
L 349.789091 285.408 
L 366.021818 285.408 
L 382.254545 285.408 
L 398.487273 285.408 
" style="fill:none;stroke:#0e4db3;stroke-linecap:square;stroke-width:3;"/>
   </g>
   <g id="line2d_68">
    <path clip-path="url(#p0704f7205a)" d="M 73.832727 285.408 
L 90.065455 285.408 
L 106.298182 285.408 
L 122.530909 285.408 
L 138.763636 285.408 
L 154.996364 285.408 
L 171.229091 285.408 
L 187.461818 285.408 
L 203.694545 285.408 
L 219.927273 285.408 
L 236.16 285.408 
L 252.392727 285.408 
L 268.625455 285.408 
L 284.858182 285.408 
L 301.090909 285.408 
L 317.323636 285.408 
L 333.556364 285.408 
L 349.789091 285.408 
L 366.021818 285.408 
L 382.254545 285.408 
L 398.487273 285.408 
" style="fill:none;stroke:#d44e4e;stroke-linecap:square;stroke-width:3;"/>
   </g>
   <g id="line2d_69">
    <path clip-path="url(#p0704f7205a)" d="M 73.832727 207.321736 
L 90.065455 183.710906 
L 106.298182 142.512941 
L 122.530909 148.897946 
L 138.763636 111.684685 
L 154.996364 114.335854 
L 171.229091 140.296886 
L 187.461818 193.939986 
L 203.694545 168.741236 
L 219.927273 168.309641 
L 236.16 197.33917 
L 252.392727 179.954377 
L 268.625455 187.14532 
L 284.858182 210.476822 
L 301.090909 212.478513 
L 317.323636 239.167248 
L 333.556364 228.234402 
L 349.789091 219.76552 
L 366.021818 202.935546 
L 382.254545 202.829885 
L 398.487273 207.321736 
" style="fill:none;stroke:#0e4db3;stroke-linecap:square;stroke-width:3;"/>
   </g>
   <g id="line2d_70">
    <path clip-path="url(#p0704f7205a)" d="M 73.832727 285.408 
L 90.065455 285.408 
L 106.298182 285.408 
L 122.530909 285.408 
L 138.763636 285.408 
L 154.996364 285.408 
L 171.229091 285.408 
L 187.461818 285.408 
L 203.694545 285.408 
L 219.927273 285.408 
L 236.16 285.408 
L 252.392727 285.408 
L 268.625455 285.408 
L 284.858182 285.408 
L 301.090909 285.408 
L 317.323636 285.408 
L 333.556364 285.408 
L 349.789091 285.408 
L 366.021818 285.408 
L 382.254545 285.408 
L 398.487273 285.408 
" style="fill:none;stroke:#d44e4e;stroke-linecap:square;stroke-width:3;"/>
   </g>
   <g id="line2d_71">
    <path clip-path="url(#p0704f7205a)" d="M 73.832727 285.408 
L 90.065455 285.408 
L 106.298182 285.408 
L 122.530909 285.408 
L 138.763636 285.408 
L 154.996364 285.408 
L 171.229091 285.408 
L 187.461818 285.408 
L 203.694545 285.408 
L 219.927273 285.408 
L 236.16 285.408 
L 252.392727 285.408 
L 268.625455 285.408 
L 284.858182 285.408 
L 301.090909 285.408 
L 317.323636 285.408 
L 333.556364 285.408 
L 349.789091 285.408 
L 366.021818 285.408 
L 382.254545 285.408 
L 398.487273 285.408 
" style="fill:none;stroke:#0e4db3;stroke-linecap:square;stroke-width:3;"/>
   </g>
   <g id="line2d_72">
    <path clip-path="url(#p0704f7205a)" d="M 73.832727 285.408 
L 90.065455 285.408 
L 106.298182 285.408 
L 122.530909 285.408 
L 138.763636 285.408 
L 154.996364 285.408 
L 171.229091 285.408 
L 187.461818 285.408 
L 203.694545 285.408 
L 219.927273 285.408 
L 236.16 285.408 
L 252.392727 285.408 
L 268.625455 285.408 
L 284.858182 285.408 
L 301.090909 285.408 
L 317.323636 285.408 
L 333.556364 285.408 
L 349.789091 285.408 
L 366.021818 285.408 
L 382.254545 285.408 
L 398.487273 285.408 
" style="fill:none;stroke:#d44e4e;stroke-linecap:square;stroke-width:3;"/>
   </g>
   <g id="line2d_73">
    <path clip-path="url(#p0704f7205a)" d="M 73.832727 285.408 
L 90.065455 285.408 
L 106.298182 285.408 
L 122.530909 285.408 
L 138.763636 285.408 
L 154.996364 285.408 
L 171.229091 285.408 
L 187.461818 285.408 
L 203.694545 285.408 
L 219.927273 285.408 
L 236.16 285.408 
L 252.392727 285.408 
L 268.625455 285.408 
L 284.858182 285.408 
L 301.090909 285.408 
L 317.323636 285.408 
L 333.556364 285.408 
L 349.789091 285.408 
L 366.021818 285.408 
L 382.254545 285.408 
L 398.487273 285.408 
" style="fill:none;stroke:#0e4db3;stroke-linecap:square;stroke-width:3;"/>
   </g>
   <g id="line2d_74">
    <path clip-path="url(#p0704f7205a)" d="M 73.832727 285.408 
L 90.065455 285.408 
L 106.298182 285.408 
L 122.530909 285.408 
L 138.763636 285.408 
L 154.996364 285.408 
L 171.229091 285.408 
L 187.461818 285.408 
L 203.694545 285.408 
L 219.927273 285.408 
L 236.16 285.408 
L 252.392727 285.408 
L 268.625455 285.408 
L 284.858182 285.408 
L 301.090909 285.408 
L 317.323636 285.408 
L 333.556364 285.408 
L 349.789091 285.408 
L 366.021818 285.408 
L 382.254545 285.408 
L 398.487273 285.408 
" style="fill:none;stroke:#d44e4e;stroke-linecap:square;stroke-width:3;"/>
   </g>
   <g id="line2d_75">
    <path clip-path="url(#p0704f7205a)" d="M 73.832727 285.408 
L 90.065455 285.408 
L 106.298182 285.408 
L 122.530909 285.408 
L 138.763636 285.408 
L 154.996364 285.408 
L 171.229091 285.408 
L 187.461818 285.408 
L 203.694545 285.408 
L 219.927273 285.408 
L 236.16 285.408 
L 252.392727 285.408 
L 268.625455 285.408 
L 284.858182 285.408 
L 301.090909 285.408 
L 317.323636 285.408 
L 333.556364 285.408 
L 349.789091 285.408 
L 366.021818 285.408 
L 382.254545 285.408 
L 398.487273 285.408 
" style="fill:none;stroke:#0e4db3;stroke-linecap:square;stroke-width:3;"/>
   </g>
   <g id="line2d_76">
    <path clip-path="url(#p0704f7205a)" d="M 73.832727 285.408 
L 90.065455 285.408 
L 106.298182 285.408 
L 122.530909 285.408 
L 138.763636 285.408 
L 154.996364 285.408 
L 171.229091 285.408 
L 187.461818 285.408 
L 203.694545 285.408 
L 219.927273 285.408 
L 236.16 285.408 
L 252.392727 285.408 
L 268.625455 285.408 
L 284.858182 285.408 
L 301.090909 285.408 
L 317.323636 285.408 
L 333.556364 285.408 
L 349.789091 285.408 
L 366.021818 285.408 
L 382.254545 285.408 
L 398.487273 285.408 
" style="fill:none;stroke:#d44e4e;stroke-linecap:square;stroke-width:3;"/>
   </g>
   <g id="line2d_77">
    <path clip-path="url(#p0704f7205a)" d="M 73.832727 226.230456 
L 90.065455 196.472859 
L 106.298182 240.973259 
L 122.530909 238.798518 
L 138.763636 221.065525 
L 154.996364 217.997747 
L 171.229091 200.784994 
L 187.461818 155.353207 
L 203.694545 125.042313 
L 219.927273 105.325969 
L 236.16 129.622012 
L 252.392727 70.759037 
L 268.625455 58.142212 
L 284.858182 98.373152 
L 301.090909 100.519068 
L 317.323636 162.916482 
L 333.556364 192.151259 
L 349.789091 167.957476 
L 366.021818 170.747485 
L 382.254545 179.672731 
L 398.487273 226.230456 
" style="fill:none;stroke:#0e4db3;stroke-linecap:square;stroke-width:3;"/>
   </g>
   <g id="line2d_78">
    <path clip-path="url(#p0704f7205a)" d="M 73.832727 285.408 
L 90.065455 285.408 
L 106.298182 285.408 
L 122.530909 285.408 
L 138.763636 285.408 
L 154.996364 285.408 
L 171.229091 285.408 
L 187.461818 285.408 
L 203.694545 285.408 
L 219.927273 285.408 
L 236.16 285.408 
L 252.392727 285.408 
L 268.625455 285.408 
L 284.858182 285.408 
L 301.090909 285.408 
L 317.323636 285.408 
L 333.556364 285.408 
L 349.789091 285.408 
L 366.021818 285.408 
L 382.254545 285.408 
L 398.487273 285.408 
" style="fill:none;stroke:#d44e4e;stroke-linecap:square;stroke-width:3;"/>
   </g>
   <g id="line2d_79">
    <path clip-path="url(#p0704f7205a)" d="M 73.832727 285.408 
L 90.065455 285.408 
L 106.298182 285.408 
L 122.530909 285.408 
L 138.763636 285.408 
L 154.996364 285.408 
L 171.229091 285.408 
L 187.461818 285.408 
L 203.694545 285.408 
L 219.927273 285.408 
L 236.16 285.408 
L 252.392727 285.408 
L 268.625455 285.408 
L 284.858182 285.408 
L 301.090909 285.408 
L 317.323636 285.408 
L 333.556364 285.408 
L 349.789091 285.408 
L 366.021818 285.408 
L 382.254545 285.408 
L 398.487273 285.408 
" style="fill:none;stroke:#0e4db3;stroke-linecap:square;stroke-width:3;"/>
   </g>
   <g id="line2d_80">
    <path clip-path="url(#p0704f7205a)" d="M 73.832727 285.408 
L 90.065455 285.408 
L 106.298182 285.408 
L 122.530909 285.408 
L 138.763636 285.408 
L 154.996364 285.408 
L 171.229091 285.408 
L 187.461818 285.408 
L 203.694545 285.408 
L 219.927273 285.408 
L 236.16 285.408 
L 252.392727 285.408 
L 268.625455 285.408 
L 284.858182 285.408 
L 301.090909 285.408 
L 317.323636 285.408 
L 333.556364 285.408 
L 349.789091 285.408 
L 366.021818 285.408 
L 382.254545 285.408 
L 398.487273 285.408 
" style="fill:none;stroke:#d44e4e;stroke-linecap:square;stroke-width:3;"/>
   </g>
   <g id="line2d_81">
    <path clip-path="url(#p0704f7205a)" d="M 73.832727 134.760085 
L 90.065455 112.508535 
L 106.298182 115.228589 
L 122.530909 135.682919 
L 138.763636 161.177495 
L 154.996364 170.6772 
L 171.229091 157.232075 
L 187.461818 176.284412 
L 203.694545 217.242195 
L 219.927273 241.20227 
L 236.16 247.230374 
L 252.392727 213.404997 
L 268.625455 227.467747 
L 284.858182 225.049408 
L 301.090909 164.21707 
L 317.323636 180.820163 
L 333.556364 170.131479 
L 349.789091 182.408996 
L 366.021818 164.027605 
L 382.254545 155.20805 
L 398.487273 134.760085 
" style="fill:none;stroke:#0e4db3;stroke-linecap:square;stroke-width:3;"/>
   </g>
   <g id="line2d_82">
    <path clip-path="url(#p0704f7205a)" d="M 73.832727 285.408 
L 90.065455 260.92291 
L 106.298182 244.717956 
L 122.530909 261.215351 
L 138.763636 285.408 
L 154.996364 285.408 
L 171.229091 257.074489 
L 187.461818 279.411006 
L 203.694545 285.408 
L 219.927273 285.408 
L 236.16 285.408 
L 252.392727 285.408 
L 268.625455 285.408 
L 284.858182 285.408 
L 301.090909 283.964461 
L 317.323636 285.408 
L 333.556364 285.408 
L 349.789091 252.834496 
L 366.021818 239.243277 
L 382.254545 254.22909 
L 398.487273 285.408 
" style="fill:none;stroke:#d44e4e;stroke-linecap:square;stroke-width:3;"/>
   </g>
   <g id="line2d_83">
    <path clip-path="url(#p0704f7205a)" d="M 73.832727 167.531031 
L 90.065455 174.449745 
L 106.298182 174.188421 
L 122.530909 170.823427 
L 138.763636 181.654635 
L 154.996364 217.511052 
L 171.229091 233.399503 
L 187.461818 244.658033 
L 203.694545 210.794291 
L 219.927273 134.408533 
L 236.16 100.533918 
L 252.392727 87.081912 
L 268.625455 105.628316 
L 284.858182 125.875581 
L 301.090909 119.543746 
L 317.323636 113.575175 
L 333.556364 134.404694 
L 349.789091 128.935837 
L 366.021818 156.990829 
L 382.254545 163.525209 
L 398.487273 167.531031 
" style="fill:none;stroke:#0e4db3;stroke-linecap:square;stroke-width:3;"/>
   </g>
   <g id="line2d_84">
    <path clip-path="url(#p0704f7205a)" d="M 73.832727 193.431263 
L 90.065455 196.658622 
L 106.298182 193.829679 
L 122.530909 196.873744 
L 138.763636 197.8839 
L 154.996364 232.190446 
L 171.229091 249.983115 
L 187.461818 247.679283 
L 203.694545 223.711636 
L 219.927273 174.572191 
L 236.16 146.946938 
L 252.392727 136.19205 
L 268.625455 145.344644 
L 284.858182 162.995407 
L 301.090909 154.819906 
L 317.323636 147.448255 
L 333.556364 163.308202 
L 349.789091 159.894498 
L 366.021818 177.700205 
L 382.254545 162.851901 
L 398.487273 193.431263 
" style="fill:none;stroke:#d44e4e;stroke-linecap:square;stroke-width:3;"/>
   </g>
   <g id="line2d_85">
    <path clip-path="url(#p0704f7205a)" d="M 73.832727 285.408 
L 90.065455 285.408 
L 106.298182 285.408 
L 122.530909 285.408 
L 138.763636 285.408 
L 154.996364 285.408 
L 171.229091 285.408 
L 187.461818 285.408 
L 203.694545 285.408 
L 219.927273 285.408 
L 236.16 285.408 
L 252.392727 285.408 
L 268.625455 285.408 
L 284.858182 285.408 
L 301.090909 285.408 
L 317.323636 285.408 
L 333.556364 285.408 
L 349.789091 285.408 
L 366.021818 285.408 
L 382.254545 285.408 
L 398.487273 285.408 
" style="fill:none;stroke:#0e4db3;stroke-linecap:square;stroke-width:3;"/>
   </g>
   <g id="line2d_86">
    <path clip-path="url(#p0704f7205a)" d="M 73.832727 285.408 
L 90.065455 285.408 
L 106.298182 285.408 
L 122.530909 285.408 
L 138.763636 285.408 
L 154.996364 285.408 
L 171.229091 285.408 
L 187.461818 285.408 
L 203.694545 285.408 
L 219.927273 285.408 
L 236.16 285.408 
L 252.392727 285.408 
L 268.625455 285.408 
L 284.858182 285.408 
L 301.090909 285.408 
L 317.323636 285.408 
L 333.556364 285.408 
L 349.789091 285.408 
L 366.021818 285.408 
L 382.254545 285.408 
L 398.487273 285.408 
" style="fill:none;stroke:#d44e4e;stroke-linecap:square;stroke-width:3;"/>
   </g>
   <g id="line2d_87">
    <path clip-path="url(#p0704f7205a)" d="M 73.832727 285.408 
L 90.065455 285.408 
L 106.298182 285.408 
L 122.530909 285.408 
L 138.763636 285.408 
L 154.996364 285.408 
L 171.229091 285.408 
L 187.461818 285.408 
L 203.694545 285.408 
L 219.927273 285.408 
L 236.16 285.408 
L 252.392727 285.408 
L 268.625455 285.408 
L 284.858182 285.408 
L 301.090909 285.408 
L 317.323636 285.408 
L 333.556364 285.408 
L 349.789091 285.408 
L 366.021818 285.408 
L 382.254545 285.408 
L 398.487273 285.408 
" style="fill:none;stroke:#0e4db3;stroke-linecap:square;stroke-width:3;"/>
   </g>
   <g id="line2d_88">
    <path clip-path="url(#p0704f7205a)" d="M 73.832727 285.408 
L 90.065455 285.408 
L 106.298182 285.408 
L 122.530909 285.408 
L 138.763636 285.408 
L 154.996364 285.408 
L 171.229091 285.408 
L 187.461818 285.408 
L 203.694545 285.408 
L 219.927273 285.408 
L 236.16 285.408 
L 252.392727 285.408 
L 268.625455 285.408 
L 284.858182 285.408 
L 301.090909 285.408 
L 317.323636 285.408 
L 333.556364 285.408 
L 349.789091 285.408 
L 366.021818 285.408 
L 382.254545 285.408 
L 398.487273 285.408 
" style="fill:none;stroke:#d44e4e;stroke-linecap:square;stroke-width:3;"/>
   </g>
   <g id="line2d_89">
    <path clip-path="url(#p0704f7205a)" d="M 73.832727 285.408 
L 90.065455 285.408 
L 106.298182 285.408 
L 122.530909 268.528714 
L 138.763636 253.880582 
L 154.996364 249.683735 
L 171.229091 262.981645 
L 187.461818 239.917902 
L 203.694545 194.71809 
L 219.927273 171.793455 
L 236.16 275.246161 
L 252.392727 113.758897 
L 268.625455 63.648 
L 284.858182 71.97171 
L 301.090909 75.322583 
L 317.323636 138.360912 
L 333.556364 199.479993 
L 349.789091 265.448065 
L 366.021818 285.408 
L 382.254545 285.408 
L 398.487273 285.408 
" style="fill:none;stroke:#0e4db3;stroke-linecap:square;stroke-width:3;"/>
   </g>
   <g id="line2d_90">
    <path clip-path="url(#p0704f7205a)" d="M 73.832727 285.408 
L 90.065455 285.408 
L 106.298182 285.408 
L 122.530909 285.408 
L 138.763636 285.408 
L 154.996364 285.408 
L 171.229091 285.408 
L 187.461818 285.408 
L 203.694545 274.181056 
L 219.927273 265.134971 
L 236.16 285.408 
L 252.392727 226.409848 
L 268.625455 215.711159 
L 284.858182 195.333475 
L 301.090909 204.685777 
L 317.323636 235.596496 
L 333.556364 257.567814 
L 349.789091 285.408 
L 366.021818 285.408 
L 382.254545 285.408 
L 398.487273 285.408 
" style="fill:none;stroke:#d44e4e;stroke-linecap:square;stroke-width:3;"/>
   </g>
   <g id="patch_3">
    <path d="M 57.6 307.584 
L 57.6 41.472 
" style="fill:none;stroke:#000000;stroke-linecap:square;stroke-linejoin:miter;stroke-width:2.5;"/>
   </g>
   <g id="patch_4">
    <path d="M 414.72 307.584 
L 414.72 41.472 
" style="fill:none;stroke:#000000;stroke-linecap:square;stroke-linejoin:miter;stroke-width:2.5;"/>
   </g>
   <g id="patch_5">
    <path d="M 57.6 307.584 
L 414.72 307.584 
" style="fill:none;stroke:#000000;stroke-linecap:square;stroke-linejoin:miter;stroke-width:2.5;"/>
   </g>
   <g id="patch_6">
    <path d="M 57.6 41.472 
L 414.72 41.472 
" style="fill:none;stroke:#000000;stroke-linecap:square;stroke-linejoin:miter;stroke-width:2.5;"/>
   </g>
  </g>
 </g>
 <defs>
  <clipPath id="p0704f7205a">
   <rect height="266.112" width="357.12" x="57.6" y="41.472"/>
  </clipPath>
 </defs>
</svg>
