<?xml version="1.0" encoding="utf-8" standalone="no"?>
<!DOCTYPE svg PUBLIC "-//W3C//DTD SVG 1.1//EN"
  "http://www.w3.org/Graphics/SVG/1.1/DTD/svg11.dtd">
<!-- Created with matplotlib (https://matplotlib.org/) -->
<svg height="345.6pt" version="1.1" viewBox="0 0 460.8 345.6" width="460.8pt" xmlns="http://www.w3.org/2000/svg" xmlns:xlink="http://www.w3.org/1999/xlink">
 <defs>
  <style type="text/css">
*{stroke-linecap:butt;stroke-linejoin:round;}
  </style>
 </defs>
 <g id="figure_1">
  <g id="patch_1">
   <path d="M 0 345.6 
L 460.8 345.6 
L 460.8 0 
L 0 0 
z
" style="fill:#ffffff;"/>
  </g>
  <g id="axes_1">
   <g id="patch_2">
    <path d="M 57.6 307.584 
L 414.72 307.584 
L 414.72 41.472 
L 57.6 41.472 
z
" style="fill:#ffffff;"/>
   </g>
   <g id="matplotlib.axis_1">
    <g id="xtick_1">
     <g id="line2d_1">
      <defs>
       <path d="M 0 0 
L 0 12 
" id="m8286c14e64" style="stroke:#000000;stroke-width:2.5;"/>
      </defs>
      <g>
       <use style="stroke:#000000;stroke-width:2.5;" x="73.832727" xlink:href="#m8286c14e64" y="307.584"/>
      </g>
     </g>
     <g id="text_1">
      <!-- 0 -->
      <defs>
       <path d="M 31.78125 66.40625 
Q 24.171875 66.40625 20.328125 58.90625 
Q 16.5 51.421875 16.5 36.375 
Q 16.5 21.390625 20.328125 13.890625 
Q 24.171875 6.390625 31.78125 6.390625 
Q 39.453125 6.390625 43.28125 13.890625 
Q 47.125 21.390625 47.125 36.375 
Q 47.125 51.421875 43.28125 58.90625 
Q 39.453125 66.40625 31.78125 66.40625 
z
M 31.78125 74.21875 
Q 44.046875 74.21875 50.515625 64.515625 
Q 56.984375 54.828125 56.984375 36.375 
Q 56.984375 17.96875 50.515625 8.265625 
Q 44.046875 -1.421875 31.78125 -1.421875 
Q 19.53125 -1.421875 13.0625 8.265625 
Q 6.59375 17.96875 6.59375 36.375 
Q 6.59375 54.828125 13.0625 64.515625 
Q 19.53125 74.21875 31.78125 74.21875 
z
" id="DejaVuSans-48"/>
      </defs>
      <g transform="translate(66.833977 339.800562)scale(0.22 -0.22)">
       <use xlink:href="#DejaVuSans-48"/>
      </g>
     </g>
    </g>
    <g id="xtick_2">
     <g id="line2d_2">
      <g>
       <use style="stroke:#000000;stroke-width:2.5;" x="164.014545" xlink:href="#m8286c14e64" y="307.584"/>
      </g>
     </g>
     <g id="text_2">
      <!-- 50 -->
      <defs>
       <path d="M 10.796875 72.90625 
L 49.515625 72.90625 
L 49.515625 64.59375 
L 19.828125 64.59375 
L 19.828125 46.734375 
Q 21.96875 47.46875 24.109375 47.828125 
Q 26.265625 48.1875 28.421875 48.1875 
Q 40.625 48.1875 47.75 41.5 
Q 54.890625 34.8125 54.890625 23.390625 
Q 54.890625 11.625 47.5625 5.09375 
Q 40.234375 -1.421875 26.90625 -1.421875 
Q 22.3125 -1.421875 17.546875 -0.640625 
Q 12.796875 0.140625 7.71875 1.703125 
L 7.71875 11.625 
Q 12.109375 9.234375 16.796875 8.0625 
Q 21.484375 6.890625 26.703125 6.890625 
Q 35.15625 6.890625 40.078125 11.328125 
Q 45.015625 15.765625 45.015625 23.390625 
Q 45.015625 31 40.078125 35.4375 
Q 35.15625 39.890625 26.703125 39.890625 
Q 22.75 39.890625 18.8125 39.015625 
Q 14.890625 38.140625 10.796875 36.28125 
z
" id="DejaVuSans-53"/>
      </defs>
      <g transform="translate(150.017045 339.800562)scale(0.22 -0.22)">
       <use xlink:href="#DejaVuSans-53"/>
       <use x="63.623047" xlink:href="#DejaVuSans-48"/>
      </g>
     </g>
    </g>
    <g id="xtick_3">
     <g id="line2d_3">
      <g>
       <use style="stroke:#000000;stroke-width:2.5;" x="254.196364" xlink:href="#m8286c14e64" y="307.584"/>
      </g>
     </g>
     <g id="text_3">
      <!-- 100 -->
      <defs>
       <path d="M 12.40625 8.296875 
L 28.515625 8.296875 
L 28.515625 63.921875 
L 10.984375 60.40625 
L 10.984375 69.390625 
L 28.421875 72.90625 
L 38.28125 72.90625 
L 38.28125 8.296875 
L 54.390625 8.296875 
L 54.390625 0 
L 12.40625 0 
z
" id="DejaVuSans-49"/>
      </defs>
      <g transform="translate(233.200114 339.800562)scale(0.22 -0.22)">
       <use xlink:href="#DejaVuSans-49"/>
       <use x="63.623047" xlink:href="#DejaVuSans-48"/>
       <use x="127.246094" xlink:href="#DejaVuSans-48"/>
      </g>
     </g>
    </g>
    <g id="xtick_4">
     <g id="line2d_4">
      <g>
       <use style="stroke:#000000;stroke-width:2.5;" x="344.378182" xlink:href="#m8286c14e64" y="307.584"/>
      </g>
     </g>
     <g id="text_4">
      <!-- 150 -->
      <g transform="translate(323.381932 339.800562)scale(0.22 -0.22)">
       <use xlink:href="#DejaVuSans-49"/>
       <use x="63.623047" xlink:href="#DejaVuSans-53"/>
       <use x="127.246094" xlink:href="#DejaVuSans-48"/>
      </g>
     </g>
    </g>
    <g id="text_5">
     <!-- Degrees -->
     <defs>
      <path d="M 19.671875 64.796875 
L 19.671875 8.109375 
L 31.59375 8.109375 
Q 46.6875 8.109375 53.6875 14.9375 
Q 60.6875 21.78125 60.6875 36.53125 
Q 60.6875 51.171875 53.6875 57.984375 
Q 46.6875 64.796875 31.59375 64.796875 
z
M 9.8125 72.90625 
L 30.078125 72.90625 
Q 51.265625 72.90625 61.171875 64.09375 
Q 71.09375 55.28125 71.09375 36.53125 
Q 71.09375 17.671875 61.125 8.828125 
Q 51.171875 0 30.078125 0 
L 9.8125 0 
z
" id="DejaVuSans-68"/>
      <path d="M 56.203125 29.59375 
L 56.203125 25.203125 
L 14.890625 25.203125 
Q 15.484375 15.921875 20.484375 11.0625 
Q 25.484375 6.203125 34.421875 6.203125 
Q 39.59375 6.203125 44.453125 7.46875 
Q 49.3125 8.734375 54.109375 11.28125 
L 54.109375 2.78125 
Q 49.265625 0.734375 44.1875 -0.34375 
Q 39.109375 -1.421875 33.890625 -1.421875 
Q 20.796875 -1.421875 13.15625 6.1875 
Q 5.515625 13.8125 5.515625 26.8125 
Q 5.515625 40.234375 12.765625 48.109375 
Q 20.015625 56 32.328125 56 
Q 43.359375 56 49.78125 48.890625 
Q 56.203125 41.796875 56.203125 29.59375 
z
M 47.21875 32.234375 
Q 47.125 39.59375 43.09375 43.984375 
Q 39.0625 48.390625 32.421875 48.390625 
Q 24.90625 48.390625 20.390625 44.140625 
Q 15.875 39.890625 15.1875 32.171875 
z
" id="DejaVuSans-101"/>
      <path d="M 45.40625 27.984375 
Q 45.40625 37.75 41.375 43.109375 
Q 37.359375 48.484375 30.078125 48.484375 
Q 22.859375 48.484375 18.828125 43.109375 
Q 14.796875 37.75 14.796875 27.984375 
Q 14.796875 18.265625 18.828125 12.890625 
Q 22.859375 7.515625 30.078125 7.515625 
Q 37.359375 7.515625 41.375 12.890625 
Q 45.40625 18.265625 45.40625 27.984375 
z
M 54.390625 6.78125 
Q 54.390625 -7.171875 48.1875 -13.984375 
Q 42 -20.796875 29.203125 -20.796875 
Q 24.46875 -20.796875 20.265625 -20.09375 
Q 16.0625 -19.390625 12.109375 -17.921875 
L 12.109375 -9.1875 
Q 16.0625 -11.328125 19.921875 -12.34375 
Q 23.78125 -13.375 27.78125 -13.375 
Q 36.625 -13.375 41.015625 -8.765625 
Q 45.40625 -4.15625 45.40625 5.171875 
L 45.40625 9.625 
Q 42.625 4.78125 38.28125 2.390625 
Q 33.9375 0 27.875 0 
Q 17.828125 0 11.671875 7.65625 
Q 5.515625 15.328125 5.515625 27.984375 
Q 5.515625 40.671875 11.671875 48.328125 
Q 17.828125 56 27.875 56 
Q 33.9375 56 38.28125 53.609375 
Q 42.625 51.21875 45.40625 46.390625 
L 45.40625 54.6875 
L 54.390625 54.6875 
z
" id="DejaVuSans-103"/>
      <path d="M 41.109375 46.296875 
Q 39.59375 47.171875 37.8125 47.578125 
Q 36.03125 48 33.890625 48 
Q 26.265625 48 22.1875 43.046875 
Q 18.109375 38.09375 18.109375 28.8125 
L 18.109375 0 
L 9.078125 0 
L 9.078125 54.6875 
L 18.109375 54.6875 
L 18.109375 46.1875 
Q 20.953125 51.171875 25.484375 53.578125 
Q 30.03125 56 36.53125 56 
Q 37.453125 56 38.578125 55.875 
Q 39.703125 55.765625 41.0625 55.515625 
z
" id="DejaVuSans-114"/>
      <path d="M 44.28125 53.078125 
L 44.28125 44.578125 
Q 40.484375 46.53125 36.375 47.5 
Q 32.28125 48.484375 27.875 48.484375 
Q 21.1875 48.484375 17.84375 46.4375 
Q 14.5 44.390625 14.5 40.28125 
Q 14.5 37.15625 16.890625 35.375 
Q 19.28125 33.59375 26.515625 31.984375 
L 29.59375 31.296875 
Q 39.15625 29.25 43.1875 25.515625 
Q 47.21875 21.78125 47.21875 15.09375 
Q 47.21875 7.46875 41.1875 3.015625 
Q 35.15625 -1.421875 24.609375 -1.421875 
Q 20.21875 -1.421875 15.453125 -0.5625 
Q 10.6875 0.296875 5.421875 2 
L 5.421875 11.28125 
Q 10.40625 8.6875 15.234375 7.390625 
Q 20.0625 6.109375 24.8125 6.109375 
Q 31.15625 6.109375 34.5625 8.28125 
Q 37.984375 10.453125 37.984375 14.40625 
Q 37.984375 18.0625 35.515625 20.015625 
Q 33.0625 21.96875 24.703125 23.78125 
L 21.578125 24.515625 
Q 13.234375 26.265625 9.515625 29.90625 
Q 5.8125 33.546875 5.8125 39.890625 
Q 5.8125 47.609375 11.28125 51.796875 
Q 16.75 56 26.8125 56 
Q 31.78125 56 36.171875 55.265625 
Q 40.578125 54.546875 44.28125 53.078125 
z
" id="DejaVuSans-115"/>
     </defs>
     <g transform="translate(185.97 366.612125)scale(0.24 -0.24)">
      <use xlink:href="#DejaVuSans-68"/>
      <use x="77.001953" xlink:href="#DejaVuSans-101"/>
      <use x="138.525391" xlink:href="#DejaVuSans-103"/>
      <use x="202.001953" xlink:href="#DejaVuSans-114"/>
      <use x="243.083984" xlink:href="#DejaVuSans-101"/>
      <use x="304.607422" xlink:href="#DejaVuSans-101"/>
      <use x="366.130859" xlink:href="#DejaVuSans-115"/>
     </g>
    </g>
   </g>
   <g id="matplotlib.axis_2">
    <g id="ytick_1">
     <g id="line2d_5">
      <defs>
       <path d="M 0 0 
L -12 0 
" id="m475ce59fa6" style="stroke:#000000;stroke-width:2.5;"/>
      </defs>
      <g>
       <use style="stroke:#000000;stroke-width:2.5;" x="57.6" xlink:href="#m475ce59fa6" y="285.408"/>
      </g>
     </g>
     <g id="text_6">
      <!-- 0 -->
      <g transform="translate(28.1025 293.766281)scale(0.22 -0.22)">
       <use xlink:href="#DejaVuSans-48"/>
      </g>
     </g>
    </g>
    <g id="ytick_2">
     <g id="line2d_6">
      <g>
       <use style="stroke:#000000;stroke-width:2.5;" x="57.6" xlink:href="#m475ce59fa6" y="216.519333"/>
      </g>
     </g>
     <g id="text_7">
      <!-- 2 -->
      <defs>
       <path d="M 19.1875 8.296875 
L 53.609375 8.296875 
L 53.609375 0 
L 7.328125 0 
L 7.328125 8.296875 
Q 12.9375 14.109375 22.625 23.890625 
Q 32.328125 33.6875 34.8125 36.53125 
Q 39.546875 41.84375 41.421875 45.53125 
Q 43.3125 49.21875 43.3125 52.78125 
Q 43.3125 58.59375 39.234375 62.25 
Q 35.15625 65.921875 28.609375 65.921875 
Q 23.96875 65.921875 18.8125 64.3125 
Q 13.671875 62.703125 7.8125 59.421875 
L 7.8125 69.390625 
Q 13.765625 71.78125 18.9375 73 
Q 24.125 74.21875 28.421875 74.21875 
Q 39.75 74.21875 46.484375 68.546875 
Q 53.21875 62.890625 53.21875 53.421875 
Q 53.21875 48.921875 51.53125 44.890625 
Q 49.859375 40.875 45.40625 35.40625 
Q 44.1875 33.984375 37.640625 27.21875 
Q 31.109375 20.453125 19.1875 8.296875 
z
" id="DejaVuSans-50"/>
      </defs>
      <g transform="translate(28.1025 224.877614)scale(0.22 -0.22)">
       <use xlink:href="#DejaVuSans-50"/>
      </g>
     </g>
    </g>
    <g id="ytick_3">
     <g id="line2d_7">
      <g>
       <use style="stroke:#000000;stroke-width:2.5;" x="57.6" xlink:href="#m475ce59fa6" y="147.630666"/>
      </g>
     </g>
     <g id="text_8">
      <!-- 4 -->
      <defs>
       <path d="M 37.796875 64.3125 
L 12.890625 25.390625 
L 37.796875 25.390625 
z
M 35.203125 72.90625 
L 47.609375 72.90625 
L 47.609375 25.390625 
L 58.015625 25.390625 
L 58.015625 17.1875 
L 47.609375 17.1875 
L 47.609375 0 
L 37.796875 0 
L 37.796875 17.1875 
L 4.890625 17.1875 
L 4.890625 26.703125 
z
" id="DejaVuSans-52"/>
      </defs>
      <g transform="translate(28.1025 155.988948)scale(0.22 -0.22)">
       <use xlink:href="#DejaVuSans-52"/>
      </g>
     </g>
    </g>
    <g id="ytick_4">
     <g id="line2d_8">
      <g>
       <use style="stroke:#000000;stroke-width:2.5;" x="57.6" xlink:href="#m475ce59fa6" y="78.742"/>
      </g>
     </g>
     <g id="text_9">
      <!-- 6 -->
      <defs>
       <path d="M 33.015625 40.375 
Q 26.375 40.375 22.484375 35.828125 
Q 18.609375 31.296875 18.609375 23.390625 
Q 18.609375 15.53125 22.484375 10.953125 
Q 26.375 6.390625 33.015625 6.390625 
Q 39.65625 6.390625 43.53125 10.953125 
Q 47.40625 15.53125 47.40625 23.390625 
Q 47.40625 31.296875 43.53125 35.828125 
Q 39.65625 40.375 33.015625 40.375 
z
M 52.59375 71.296875 
L 52.59375 62.3125 
Q 48.875 64.0625 45.09375 64.984375 
Q 41.3125 65.921875 37.59375 65.921875 
Q 27.828125 65.921875 22.671875 59.328125 
Q 17.53125 52.734375 16.796875 39.40625 
Q 19.671875 43.65625 24.015625 45.921875 
Q 28.375 48.1875 33.59375 48.1875 
Q 44.578125 48.1875 50.953125 41.515625 
Q 57.328125 34.859375 57.328125 23.390625 
Q 57.328125 12.15625 50.6875 5.359375 
Q 44.046875 -1.421875 33.015625 -1.421875 
Q 20.359375 -1.421875 13.671875 8.265625 
Q 6.984375 17.96875 6.984375 36.375 
Q 6.984375 53.65625 15.1875 63.9375 
Q 23.390625 74.21875 37.203125 74.21875 
Q 40.921875 74.21875 44.703125 73.484375 
Q 48.484375 72.75 52.59375 71.296875 
z
" id="DejaVuSans-54"/>
      </defs>
      <g transform="translate(28.1025 87.100281)scale(0.22 -0.22)">
       <use xlink:href="#DejaVuSans-54"/>
      </g>
     </g>
    </g>
    <g id="text_10">
     <!-- Activation -->
     <defs>
      <path d="M 34.1875 63.1875 
L 20.796875 26.90625 
L 47.609375 26.90625 
z
M 28.609375 72.90625 
L 39.796875 72.90625 
L 67.578125 0 
L 57.328125 0 
L 50.6875 18.703125 
L 17.828125 18.703125 
L 11.1875 0 
L 0.78125 0 
z
" id="DejaVuSans-65"/>
      <path d="M 48.78125 52.59375 
L 48.78125 44.1875 
Q 44.96875 46.296875 41.140625 47.34375 
Q 37.3125 48.390625 33.40625 48.390625 
Q 24.65625 48.390625 19.8125 42.84375 
Q 14.984375 37.3125 14.984375 27.296875 
Q 14.984375 17.28125 19.8125 11.734375 
Q 24.65625 6.203125 33.40625 6.203125 
Q 37.3125 6.203125 41.140625 7.25 
Q 44.96875 8.296875 48.78125 10.40625 
L 48.78125 2.09375 
Q 45.015625 0.34375 40.984375 -0.53125 
Q 36.96875 -1.421875 32.421875 -1.421875 
Q 20.0625 -1.421875 12.78125 6.34375 
Q 5.515625 14.109375 5.515625 27.296875 
Q 5.515625 40.671875 12.859375 48.328125 
Q 20.21875 56 33.015625 56 
Q 37.15625 56 41.109375 55.140625 
Q 45.0625 54.296875 48.78125 52.59375 
z
" id="DejaVuSans-99"/>
      <path d="M 18.3125 70.21875 
L 18.3125 54.6875 
L 36.8125 54.6875 
L 36.8125 47.703125 
L 18.3125 47.703125 
L 18.3125 18.015625 
Q 18.3125 11.328125 20.140625 9.421875 
Q 21.96875 7.515625 27.59375 7.515625 
L 36.8125 7.515625 
L 36.8125 0 
L 27.59375 0 
Q 17.1875 0 13.234375 3.875 
Q 9.28125 7.765625 9.28125 18.015625 
L 9.28125 47.703125 
L 2.6875 47.703125 
L 2.6875 54.6875 
L 9.28125 54.6875 
L 9.28125 70.21875 
z
" id="DejaVuSans-116"/>
      <path d="M 9.421875 54.6875 
L 18.40625 54.6875 
L 18.40625 0 
L 9.421875 0 
z
M 9.421875 75.984375 
L 18.40625 75.984375 
L 18.40625 64.59375 
L 9.421875 64.59375 
z
" id="DejaVuSans-105"/>
      <path d="M 2.984375 54.6875 
L 12.5 54.6875 
L 29.59375 8.796875 
L 46.6875 54.6875 
L 56.203125 54.6875 
L 35.6875 0 
L 23.484375 0 
z
" id="DejaVuSans-118"/>
      <path d="M 34.28125 27.484375 
Q 23.390625 27.484375 19.1875 25 
Q 14.984375 22.515625 14.984375 16.5 
Q 14.984375 11.71875 18.140625 8.90625 
Q 21.296875 6.109375 26.703125 6.109375 
Q 34.1875 6.109375 38.703125 11.40625 
Q 43.21875 16.703125 43.21875 25.484375 
L 43.21875 27.484375 
z
M 52.203125 31.203125 
L 52.203125 0 
L 43.21875 0 
L 43.21875 8.296875 
Q 40.140625 3.328125 35.546875 0.953125 
Q 30.953125 -1.421875 24.3125 -1.421875 
Q 15.921875 -1.421875 10.953125 3.296875 
Q 6 8.015625 6 15.921875 
Q 6 25.140625 12.171875 29.828125 
Q 18.359375 34.515625 30.609375 34.515625 
L 43.21875 34.515625 
L 43.21875 35.40625 
Q 43.21875 41.609375 39.140625 45 
Q 35.0625 48.390625 27.6875 48.390625 
Q 23 48.390625 18.546875 47.265625 
Q 14.109375 46.140625 10.015625 43.890625 
L 10.015625 52.203125 
Q 14.9375 54.109375 19.578125 55.046875 
Q 24.21875 56 28.609375 56 
Q 40.484375 56 46.34375 49.84375 
Q 52.203125 43.703125 52.203125 31.203125 
z
" id="DejaVuSans-97"/>
      <path d="M 30.609375 48.390625 
Q 23.390625 48.390625 19.1875 42.75 
Q 14.984375 37.109375 14.984375 27.296875 
Q 14.984375 17.484375 19.15625 11.84375 
Q 23.34375 6.203125 30.609375 6.203125 
Q 37.796875 6.203125 41.984375 11.859375 
Q 46.1875 17.53125 46.1875 27.296875 
Q 46.1875 37.015625 41.984375 42.703125 
Q 37.796875 48.390625 30.609375 48.390625 
z
M 30.609375 56 
Q 42.328125 56 49.015625 48.375 
Q 55.71875 40.765625 55.71875 27.296875 
Q 55.71875 13.875 49.015625 6.21875 
Q 42.328125 -1.421875 30.609375 -1.421875 
Q 18.84375 -1.421875 12.171875 6.21875 
Q 5.515625 13.875 5.515625 27.296875 
Q 5.515625 40.765625 12.171875 48.375 
Q 18.84375 56 30.609375 56 
z
" id="DejaVuSans-111"/>
      <path d="M 54.890625 33.015625 
L 54.890625 0 
L 45.90625 0 
L 45.90625 32.71875 
Q 45.90625 40.484375 42.875 44.328125 
Q 39.84375 48.1875 33.796875 48.1875 
Q 26.515625 48.1875 22.3125 43.546875 
Q 18.109375 38.921875 18.109375 30.90625 
L 18.109375 0 
L 9.078125 0 
L 9.078125 54.6875 
L 18.109375 54.6875 
L 18.109375 46.1875 
Q 21.34375 51.125 25.703125 53.5625 
Q 30.078125 56 35.796875 56 
Q 45.21875 56 50.046875 50.171875 
Q 54.890625 44.34375 54.890625 33.015625 
z
" id="DejaVuSans-110"/>
     </defs>
     <g transform="translate(19.11125 234.813)rotate(-90)scale(0.24 -0.24)">
      <use xlink:href="#DejaVuSans-65"/>
      <use x="68.392578" xlink:href="#DejaVuSans-99"/>
      <use x="123.373047" xlink:href="#DejaVuSans-116"/>
      <use x="162.582031" xlink:href="#DejaVuSans-105"/>
      <use x="190.365234" xlink:href="#DejaVuSans-118"/>
      <use x="249.544922" xlink:href="#DejaVuSans-97"/>
      <use x="310.824219" xlink:href="#DejaVuSans-116"/>
      <use x="350.033203" xlink:href="#DejaVuSans-105"/>
      <use x="377.816406" xlink:href="#DejaVuSans-111"/>
      <use x="438.998047" xlink:href="#DejaVuSans-110"/>
     </g>
    </g>
   </g>
   <g id="line2d_9">
    <path clip-path="url(#pf896a6cdf0)" d="M 73.832727 276.643073 
L 90.065455 261.719383 
L 106.298182 256.545525 
L 122.530909 249.863642 
L 138.763636 242.047304 
L 154.996364 240.943354 
L 171.229091 242.550739 
L 187.461818 230.885993 
L 203.694545 227.008835 
L 219.927273 227.724587 
L 236.16 232.857678 
L 252.392727 232.690092 
L 268.625455 233.488918 
L 284.858182 252.806779 
L 301.090909 249.775345 
L 317.323636 264.78511 
L 333.556364 268.584592 
L 349.789091 272.544092 
L 366.021818 270.3396 
L 382.254545 273.122701 
L 398.487273 276.643073 
" style="fill:none;stroke:#0e4db3;stroke-linecap:square;stroke-width:3;"/>
   </g>
   <g id="line2d_10">
    <path clip-path="url(#pf896a6cdf0)" d="M 73.832727 278.433939 
L 90.065455 266.211772 
L 106.298182 261.62073 
L 122.530909 256.680991 
L 138.763636 250.646348 
L 154.996364 249.996076 
L 171.229091 250.729977 
L 187.461818 240.384689 
L 203.694545 238.461144 
L 219.927273 237.91253 
L 236.16 240.554976 
L 252.392727 242.244351 
L 268.625455 242.60443 
L 284.858182 259.289716 
L 301.090909 256.282068 
L 317.323636 268.401136 
L 333.556364 271.318332 
L 349.789091 273.963339 
L 366.021818 272.831989 
L 382.254545 274.914138 
L 398.487273 278.433939 
" style="fill:none;stroke:#d44e4e;stroke-linecap:square;stroke-width:3;"/>
   </g>
   <g id="line2d_11">
    <path clip-path="url(#pf896a6cdf0)" d="M 73.832727 225.824957 
L 90.065455 225.372166 
L 106.298182 229.388517 
L 122.530909 237.108358 
L 138.763636 238.483436 
L 154.996364 240.169181 
L 171.229091 240.061922 
L 187.461818 231.374531 
L 203.694545 228.496761 
L 219.927273 238.760129 
L 236.16 238.753305 
L 252.392727 237.216528 
L 268.625455 228.674616 
L 284.858182 234.848714 
L 301.090909 227.125078 
L 317.323636 229.812815 
L 333.556364 229.511884 
L 349.789091 219.573349 
L 366.021818 222.396766 
L 382.254545 219.724814 
L 398.487273 225.824957 
" style="fill:none;stroke:#0e4db3;stroke-linecap:square;stroke-width:3;"/>
   </g>
   <g id="line2d_12">
    <path clip-path="url(#pf896a6cdf0)" d="M 73.832727 238.243592 
L 90.065455 232.829924 
L 106.298182 239.534643 
L 122.530909 247.058177 
L 138.763636 247.963383 
L 154.996364 249.468337 
L 171.229091 249.466449 
L 187.461818 242.761549 
L 203.694545 240.724073 
L 219.927273 248.577637 
L 236.16 248.549634 
L 252.392727 246.6522 
L 268.625455 240.391911 
L 284.858182 244.313937 
L 301.090909 239.371024 
L 317.323636 241.410689 
L 333.556364 241.082317 
L 349.789091 233.388861 
L 366.021818 234.805583 
L 382.254545 233.354838 
L 398.487273 238.243592 
" style="fill:none;stroke:#d44e4e;stroke-linecap:square;stroke-width:3;"/>
   </g>
   <g id="line2d_13">
    <path clip-path="url(#pf896a6cdf0)" d="M 73.832727 225.013709 
L 90.065455 222.096221 
L 106.298182 222.073096 
L 122.530909 222.08911 
L 138.763636 215.703816 
L 154.996364 216.019976 
L 171.229091 215.448918 
L 187.461818 219.727257 
L 203.694545 214.553874 
L 219.927273 216.888441 
L 236.16 220.810282 
L 252.392727 220.878217 
L 268.625455 221.582493 
L 284.858182 225.850636 
L 301.090909 226.63333 
L 317.323636 226.971917 
L 333.556364 226.814396 
L 349.789091 227.310242 
L 366.021818 225.950935 
L 382.254545 225.234157 
L 398.487273 225.013709 
" style="fill:none;stroke:#0e4db3;stroke-linecap:square;stroke-width:3;"/>
   </g>
   <g id="line2d_14">
    <path clip-path="url(#pf896a6cdf0)" d="M 73.832727 235.584097 
L 90.065455 233.483453 
L 106.298182 233.307409 
L 122.530909 233.116509 
L 138.763636 229.146171 
L 154.996364 229.080729 
L 171.229091 228.137417 
L 187.461818 231.378822 
L 203.694545 226.756672 
L 219.927273 228.978799 
L 236.16 232.173464 
L 252.392727 232.099534 
L 268.625455 232.73787 
L 284.858182 235.014021 
L 301.090909 235.590359 
L 317.323636 236.369874 
L 333.556364 236.765446 
L 349.789091 237.140775 
L 366.021818 236.024877 
L 382.254545 235.588318 
L 398.487273 235.584097 
" style="fill:none;stroke:#d44e4e;stroke-linecap:square;stroke-width:3;"/>
   </g>
   <g id="line2d_15">
    <path clip-path="url(#pf896a6cdf0)" d="M 73.832727 217.045236 
L 90.065455 216.963936 
L 106.298182 217.232326 
L 122.530909 223.639452 
L 138.763636 224.293305 
L 154.996364 225.928307 
L 171.229091 224.499681 
L 187.461818 222.789008 
L 203.694545 218.277144 
L 219.927273 219.871348 
L 236.16 219.22762 
L 252.392727 216.360321 
L 268.625455 215.352827 
L 284.858182 215.408161 
L 301.090909 212.225757 
L 317.323636 211.732337 
L 333.556364 204.108898 
L 349.789091 211.116013 
L 366.021818 210.743838 
L 382.254545 214.097261 
L 398.487273 217.045236 
" style="fill:none;stroke:#0e4db3;stroke-linecap:square;stroke-width:3;"/>
   </g>
   <g id="line2d_16">
    <path clip-path="url(#pf896a6cdf0)" d="M 73.832727 231.445382 
L 90.065455 231.442713 
L 106.298182 231.627273 
L 122.530909 236.398625 
L 138.763636 236.710663 
L 154.996364 237.500271 
L 171.229091 236.988366 
L 187.461818 234.816173 
L 203.694545 232.620633 
L 219.927273 233.479051 
L 236.16 233.604755 
L 252.392727 230.479852 
L 268.625455 229.069732 
L 284.858182 228.676714 
L 301.090909 226.905961 
L 317.323636 226.904705 
L 333.556364 221.838064 
L 349.789091 226.498617 
L 366.021818 225.935246 
L 382.254545 228.888416 
L 398.487273 231.445382 
" style="fill:none;stroke:#d44e4e;stroke-linecap:square;stroke-width:3;"/>
   </g>
   <g id="line2d_17">
    <path clip-path="url(#pf896a6cdf0)" d="M 73.832727 263.474701 
L 90.065455 263.139375 
L 106.298182 263.440861 
L 122.530909 262.711339 
L 138.763636 254.279905 
L 154.996364 253.187099 
L 171.229091 246.373623 
L 187.461818 248.472567 
L 203.694545 238.146162 
L 219.927273 230.031829 
L 236.16 230.159717 
L 252.392727 221.48685 
L 268.625455 213.845237 
L 284.858182 217.926419 
L 301.090909 207.349773 
L 317.323636 213.49599 
L 333.556364 215.23922 
L 349.789091 243.618152 
L 366.021818 246.241259 
L 382.254545 245.951501 
L 398.487273 263.474701 
" style="fill:none;stroke:#0e4db3;stroke-linecap:square;stroke-width:3;"/>
   </g>
   <g id="line2d_18">
    <path clip-path="url(#pf896a6cdf0)" d="M 73.832727 265.35415 
L 90.065455 264.864126 
L 106.298182 265.128648 
L 122.530909 264.810371 
L 138.763636 258.207598 
L 154.996364 257.380491 
L 171.229091 251.415599 
L 187.461818 253.022831 
L 203.694545 244.920471 
L 219.927273 238.987807 
L 236.16 239.004207 
L 252.392727 231.759694 
L 268.625455 225.709362 
L 284.858182 229.657075 
L 301.090909 220.914137 
L 317.323636 225.239265 
L 333.556364 226.932758 
L 349.789091 249.112364 
L 366.021818 251.303201 
L 382.254545 251.281387 
L 398.487273 265.35415 
" style="fill:none;stroke:#d44e4e;stroke-linecap:square;stroke-width:3;"/>
   </g>
   <g id="line2d_19">
    <path clip-path="url(#pf896a6cdf0)" d="M 73.832727 285.408 
L 90.065455 285.408 
L 106.298182 285.408 
L 122.530909 285.408 
L 138.763636 285.408 
L 154.996364 285.408 
L 171.229091 285.408 
L 187.461818 285.408 
L 203.694545 285.408 
L 219.927273 285.408 
L 236.16 285.408 
L 252.392727 285.408 
L 268.625455 285.408 
L 284.858182 285.408 
L 301.090909 285.408 
L 317.323636 285.408 
L 333.556364 285.408 
L 349.789091 285.408 
L 366.021818 285.408 
L 382.254545 285.408 
L 398.487273 285.408 
" style="fill:none;stroke:#0e4db3;stroke-linecap:square;stroke-width:3;"/>
   </g>
   <g id="line2d_20">
    <path clip-path="url(#pf896a6cdf0)" d="M 73.832727 285.408 
L 90.065455 285.408 
L 106.298182 285.408 
L 122.530909 285.408 
L 138.763636 285.408 
L 154.996364 285.408 
L 171.229091 285.408 
L 187.461818 285.408 
L 203.694545 285.408 
L 219.927273 285.408 
L 236.16 285.408 
L 252.392727 285.408 
L 268.625455 285.408 
L 284.858182 285.408 
L 301.090909 285.408 
L 317.323636 285.408 
L 333.556364 285.408 
L 349.789091 285.408 
L 366.021818 285.408 
L 382.254545 285.408 
L 398.487273 285.408 
" style="fill:none;stroke:#d44e4e;stroke-linecap:square;stroke-width:3;"/>
   </g>
   <g id="line2d_21">
    <path clip-path="url(#pf896a6cdf0)" d="M 73.832727 285.408 
L 90.065455 285.100089 
L 106.298182 285.285342 
L 122.530909 285.172685 
L 138.763636 285.304779 
L 154.996364 285.408 
L 171.229091 285.408 
L 187.461818 285.408 
L 203.694545 285.408 
L 219.927273 285.408 
L 236.16 285.408 
L 252.392727 285.408 
L 268.625455 284.691962 
L 284.858182 285.408 
L 301.090909 285.408 
L 317.323636 285.408 
L 333.556364 285.408 
L 349.789091 285.408 
L 366.021818 285.408 
L 382.254545 285.408 
L 398.487273 285.408 
" style="fill:none;stroke:#0e4db3;stroke-linecap:square;stroke-width:3;"/>
   </g>
   <g id="line2d_22">
    <path clip-path="url(#pf896a6cdf0)" d="M 73.832727 285.408 
L 90.065455 285.408 
L 106.298182 285.408 
L 122.530909 285.408 
L 138.763636 285.408 
L 154.996364 285.408 
L 171.229091 285.408 
L 187.461818 285.408 
L 203.694545 285.408 
L 219.927273 285.408 
L 236.16 285.408 
L 252.392727 285.408 
L 268.625455 285.408 
L 284.858182 285.408 
L 301.090909 285.408 
L 317.323636 285.408 
L 333.556364 285.408 
L 349.789091 285.408 
L 366.021818 285.408 
L 382.254545 285.408 
L 398.487273 285.408 
" style="fill:none;stroke:#d44e4e;stroke-linecap:square;stroke-width:3;"/>
   </g>
   <g id="line2d_23">
    <path clip-path="url(#pf896a6cdf0)" d="M 73.832727 267.721916 
L 90.065455 262.143167 
L 106.298182 253.969288 
L 122.530909 253.182057 
L 138.763636 244.735209 
L 154.996364 243.021547 
L 171.229091 237.356472 
L 187.461818 238.065556 
L 203.694545 229.919043 
L 219.927273 230.333478 
L 236.16 249.672028 
L 252.392727 231.313708 
L 268.625455 240.397163 
L 284.858182 251.647826 
L 301.090909 249.44497 
L 317.323636 257.366687 
L 333.556364 258.344115 
L 349.789091 259.950023 
L 366.021818 260.493683 
L 382.254545 265.822634 
L 398.487273 267.721916 
" style="fill:none;stroke:#0e4db3;stroke-linecap:square;stroke-width:3;"/>
   </g>
   <g id="line2d_24">
    <path clip-path="url(#pf896a6cdf0)" d="M 73.832727 268.06038 
L 90.065455 263.791434 
L 106.298182 257.168958 
L 122.530909 255.860226 
L 138.763636 249.573141 
L 154.996364 248.430315 
L 171.229091 243.77946 
L 187.461818 243.976963 
L 203.694545 237.87135 
L 219.927273 237.898873 
L 236.16 253.493401 
L 252.392727 238.803152 
L 268.625455 245.985577 
L 284.858182 255.44725 
L 301.090909 253.274093 
L 317.323636 259.586922 
L 333.556364 260.280779 
L 349.789091 260.928698 
L 366.021818 261.554275 
L 382.254545 266.203687 
L 398.487273 268.06038 
" style="fill:none;stroke:#d44e4e;stroke-linecap:square;stroke-width:3;"/>
   </g>
   <g id="line2d_25">
    <path clip-path="url(#pf896a6cdf0)" d="M 73.832727 248.897608 
L 90.065455 246.369714 
L 106.298182 242.566785 
L 122.530909 241.030375 
L 138.763636 242.903998 
L 154.996364 243.006469 
L 171.229091 243.187728 
L 187.461818 247.152218 
L 203.694545 246.535636 
L 219.927273 248.530832 
L 236.16 250.285276 
L 252.392727 248.138475 
L 268.625455 247.681837 
L 284.858182 247.72822 
L 301.090909 247.815228 
L 317.323636 248.159498 
L 333.556364 240.160509 
L 349.789091 244.573852 
L 366.021818 243.195152 
L 382.254545 249.028769 
L 398.487273 248.897608 
" style="fill:none;stroke:#0e4db3;stroke-linecap:square;stroke-width:3;"/>
   </g>
   <g id="line2d_26">
    <path clip-path="url(#pf896a6cdf0)" d="M 73.832727 256.693186 
L 90.065455 254.678581 
L 106.298182 251.741511 
L 122.530909 249.984406 
L 138.763636 252.72838 
L 154.996364 252.867231 
L 171.229091 252.80743 
L 187.461818 255.242285 
L 203.694545 253.994655 
L 219.927273 256.904949 
L 236.16 255.566398 
L 252.392727 255.785109 
L 268.625455 255.715995 
L 284.858182 256.19046 
L 301.090909 256.399043 
L 317.323636 256.326749 
L 333.556364 250.116811 
L 349.789091 251.471318 
L 366.021818 251.179753 
L 382.254545 256.694167 
L 398.487273 256.693186 
" style="fill:none;stroke:#d44e4e;stroke-linecap:square;stroke-width:3;"/>
   </g>
   <g id="line2d_27">
    <path clip-path="url(#pf896a6cdf0)" d="M 73.832727 284.0813 
L 90.065455 270.092054 
L 106.298182 258.298768 
L 122.530909 259.051019 
L 138.763636 244.747424 
L 154.996364 243.670829 
L 171.229091 243.879028 
L 187.461818 245.163699 
L 203.694545 241.57565 
L 219.927273 241.569298 
L 236.16 246.686137 
L 252.392727 243.314877 
L 268.625455 247.692907 
L 284.858182 258.200378 
L 301.090909 253.97155 
L 317.323636 269.363085 
L 333.556364 269.607134 
L 349.789091 273.392672 
L 366.021818 280.79799 
L 382.254545 274.006337 
L 398.487273 284.0813 
" style="fill:none;stroke:#0e4db3;stroke-linecap:square;stroke-width:3;"/>
   </g>
   <g id="line2d_28">
    <path clip-path="url(#pf896a6cdf0)" d="M 73.832727 285.063758 
L 90.065455 274.402156 
L 106.298182 264.897648 
L 122.530909 262.222942 
L 138.763636 254.562621 
L 154.996364 253.62877 
L 171.229091 253.660502 
L 187.461818 253.614005 
L 203.694545 251.138183 
L 219.927273 251.163563 
L 236.16 255.523562 
L 252.392727 252.441931 
L 268.625455 255.180702 
L 284.858182 265.043398 
L 301.090909 260.899627 
L 317.323636 272.689935 
L 333.556364 273.979068 
L 349.789091 277.348846 
L 366.021818 282.375574 
L 382.254545 277.364251 
L 398.487273 285.063758 
" style="fill:none;stroke:#d44e4e;stroke-linecap:square;stroke-width:3;"/>
   </g>
   <g id="line2d_29">
    <path clip-path="url(#pf896a6cdf0)" d="M 73.832727 230.838055 
L 90.065455 230.509104 
L 106.298182 227.158013 
L 122.530909 232.491185 
L 138.763636 235.680947 
L 154.996364 246.947739 
L 171.229091 248.93111 
L 187.461818 247.113346 
L 203.694545 229.668662 
L 219.927273 217.727774 
L 236.16 218.654099 
L 252.392727 217.509651 
L 268.625455 229.607194 
L 284.858182 237.025936 
L 301.090909 226.927334 
L 317.323636 223.305759 
L 333.556364 222.380001 
L 349.789091 220.676818 
L 366.021818 216.448125 
L 382.254545 220.392455 
L 398.487273 230.838055 
" style="fill:none;stroke:#0e4db3;stroke-linecap:square;stroke-width:3;"/>
   </g>
   <g id="line2d_30">
    <path clip-path="url(#pf896a6cdf0)" d="M 73.832727 238.619471 
L 90.065455 238.610491 
L 106.298182 235.900845 
L 122.530909 239.418092 
L 138.763636 243.01744 
L 154.996364 251.612432 
L 171.229091 253.106952 
L 187.461818 250.826154 
L 203.694545 237.034259 
L 219.927273 228.386184 
L 236.16 229.018821 
L 252.392727 228.133479 
L 268.625455 237.580492 
L 284.858182 243.564621 
L 301.090909 235.361777 
L 317.323636 232.594252 
L 333.556364 231.973736 
L 349.789091 230.677174 
L 366.021818 226.955017 
L 382.254545 230.312365 
L 398.487273 238.619471 
" style="fill:none;stroke:#d44e4e;stroke-linecap:square;stroke-width:3;"/>
   </g>
   <g id="line2d_31">
    <path clip-path="url(#pf896a6cdf0)" d="M 73.832727 229.090747 
L 90.065455 228.7254 
L 106.298182 234.613772 
L 122.530909 236.259376 
L 138.763636 247.951837 
L 154.996364 255.965506 
L 171.229091 247.779981 
L 187.461818 237.28014 
L 203.694545 232.945659 
L 219.927273 243.950014 
L 236.16 242.635197 
L 252.392727 242.679805 
L 268.625455 248.963383 
L 284.858182 253.675896 
L 301.090909 246.09948 
L 317.323636 244.71531 
L 333.556364 237.514298 
L 349.789091 237.216299 
L 366.021818 233.073937 
L 382.254545 229.320922 
L 398.487273 229.090747 
" style="fill:none;stroke:#0e4db3;stroke-linecap:square;stroke-width:3;"/>
   </g>
   <g id="line2d_32">
    <path clip-path="url(#pf896a6cdf0)" d="M 73.832727 237.953107 
L 90.065455 236.407958 
L 106.298182 242.422695 
L 122.530909 240.307897 
L 138.763636 252.941239 
L 154.996364 259.158658 
L 171.229091 252.378714 
L 187.461818 243.677543 
L 203.694545 240.334336 
L 219.927273 249.54338 
L 236.16 248.496152 
L 252.392727 248.299212 
L 268.625455 253.602725 
L 284.858182 256.935314 
L 301.090909 251.631406 
L 317.323636 249.712046 
L 333.556364 244.63123 
L 349.789091 243.38916 
L 366.021818 240.516449 
L 382.254545 236.384233 
L 398.487273 237.953107 
" style="fill:none;stroke:#d44e4e;stroke-linecap:square;stroke-width:3;"/>
   </g>
   <g id="line2d_33">
    <path clip-path="url(#pf896a6cdf0)" d="M 73.832727 202.247479 
L 90.065455 202.128969 
L 106.298182 200.264757 
L 122.530909 201.388576 
L 138.763636 201.272398 
L 154.996364 201.332331 
L 171.229091 200.204201 
L 187.461818 201.045587 
L 203.694545 197.179659 
L 219.927273 198.907023 
L 236.16 199.24203 
L 252.392727 199.169533 
L 268.625455 200.568189 
L 284.858182 201.637503 
L 301.090909 200.723004 
L 317.323636 201.170395 
L 333.556364 200.853143 
L 349.789091 201.790603 
L 366.021818 200.440317 
L 382.254545 201.280093 
L 398.487273 202.247479 
" style="fill:none;stroke:#0e4db3;stroke-linecap:square;stroke-width:3;"/>
   </g>
   <g id="line2d_34">
    <path clip-path="url(#pf896a6cdf0)" d="M 73.832727 215.619945 
L 90.065455 215.042276 
L 106.298182 213.836262 
L 122.530909 214.577443 
L 138.763636 214.558924 
L 154.996364 214.592331 
L 171.229091 213.717514 
L 187.461818 214.523751 
L 203.694545 211.355324 
L 219.927273 212.927429 
L 236.16 213.099014 
L 252.392727 213.062536 
L 268.625455 213.076004 
L 284.858182 214.434403 
L 301.090909 213.674745 
L 317.323636 214.268296 
L 333.556364 214.180885 
L 349.789091 215.001946 
L 366.021818 213.923655 
L 382.254545 214.751426 
L 398.487273 215.619945 
" style="fill:none;stroke:#d44e4e;stroke-linecap:square;stroke-width:3;"/>
   </g>
   <g id="line2d_35">
    <path clip-path="url(#pf896a6cdf0)" d="M 73.832727 245.108825 
L 90.065455 237.757411 
L 106.298182 237.693606 
L 122.530909 242.168984 
L 138.763636 242.786966 
L 154.996364 241.035438 
L 171.229091 240.936896 
L 187.461818 240.685726 
L 203.694545 246.475236 
L 219.927273 246.321204 
L 236.16 247.659944 
L 252.392727 256.03936 
L 268.625455 264.988202 
L 284.858182 268.366058 
L 301.090909 268.45866 
L 317.323636 267.116851 
L 333.556364 265.659943 
L 349.789091 263.398878 
L 366.021818 254.111761 
L 382.254545 245.17194 
L 398.487273 245.108825 
" style="fill:none;stroke:#0e4db3;stroke-linecap:square;stroke-width:3;"/>
   </g>
   <g id="line2d_36">
    <path clip-path="url(#pf896a6cdf0)" d="M 73.832727 250.794438 
L 90.065455 244.901062 
L 106.298182 245.132107 
L 122.530909 246.700352 
L 138.763636 249.050564 
L 154.996364 247.521651 
L 171.229091 247.341435 
L 187.461818 246.963786 
L 203.694545 251.610108 
L 219.927273 251.619825 
L 236.16 252.841839 
L 252.392727 259.466668 
L 268.625455 266.647834 
L 284.858182 269.134779 
L 301.090909 269.172166 
L 317.323636 268.019124 
L 333.556364 266.993886 
L 349.789091 265.066745 
L 366.021818 257.490372 
L 382.254545 250.176403 
L 398.487273 250.794438 
" style="fill:none;stroke:#d44e4e;stroke-linecap:square;stroke-width:3;"/>
   </g>
   <g id="line2d_37">
    <path clip-path="url(#pf896a6cdf0)" d="M 73.832727 178.008596 
L 90.065455 177.993798 
L 106.298182 177.789857 
L 122.530909 180.171238 
L 138.763636 179.446243 
L 154.996364 179.833324 
L 171.229091 179.990094 
L 187.461818 180.742313 
L 203.694545 178.170508 
L 219.927273 179.78346 
L 236.16 179.877571 
L 252.392727 179.446613 
L 268.625455 179.60317 
L 284.858182 182.452562 
L 301.090909 180.191177 
L 317.323636 180.06494 
L 333.556364 179.43257 
L 349.789091 179.495007 
L 366.021818 177.846956 
L 382.254545 177.991811 
L 398.487273 178.008596 
" style="fill:none;stroke:#0e4db3;stroke-linecap:square;stroke-width:3;"/>
   </g>
   <g id="line2d_38">
    <path clip-path="url(#pf896a6cdf0)" d="M 73.832727 198.093419 
L 90.065455 198.090865 
L 106.298182 197.872807 
L 122.530909 199.561763 
L 138.763636 198.716796 
L 154.996364 199.4711 
L 171.229091 199.253658 
L 187.461818 200.359115 
L 203.694545 197.989264 
L 219.927273 199.612005 
L 236.16 199.784197 
L 252.392727 199.226706 
L 268.625455 198.317783 
L 284.858182 199.822959 
L 301.090909 199.038204 
L 317.323636 199.041177 
L 333.556364 198.77998 
L 349.789091 199.073697 
L 366.021818 197.658551 
L 382.254545 197.966155 
L 398.487273 198.093419 
" style="fill:none;stroke:#d44e4e;stroke-linecap:square;stroke-width:3;"/>
   </g>
   <g id="line2d_39">
    <path clip-path="url(#pf896a6cdf0)" d="M 73.832727 285.408 
L 90.065455 285.408 
L 106.298182 285.408 
L 122.530909 285.408 
L 138.763636 285.408 
L 154.996364 285.408 
L 171.229091 285.408 
L 187.461818 285.408 
L 203.694545 285.408 
L 219.927273 285.408 
L 236.16 285.408 
L 252.392727 285.408 
L 268.625455 283.847107 
L 284.858182 284.961408 
L 301.090909 285.408 
L 317.323636 285.408 
L 333.556364 285.408 
L 349.789091 285.408 
L 366.021818 285.408 
L 382.254545 285.408 
L 398.487273 285.408 
" style="fill:none;stroke:#0e4db3;stroke-linecap:square;stroke-width:3;"/>
   </g>
   <g id="line2d_40">
    <path clip-path="url(#pf896a6cdf0)" d="M 73.832727 285.408 
L 90.065455 285.408 
L 106.298182 285.408 
L 122.530909 285.408 
L 138.763636 285.408 
L 154.996364 285.408 
L 171.229091 285.408 
L 187.461818 285.408 
L 203.694545 285.408 
L 219.927273 285.408 
L 236.16 285.408 
L 252.392727 285.408 
L 268.625455 285.408 
L 284.858182 285.408 
L 301.090909 285.408 
L 317.323636 285.408 
L 333.556364 285.408 
L 349.789091 285.408 
L 366.021818 285.408 
L 382.254545 285.408 
L 398.487273 285.408 
" style="fill:none;stroke:#d44e4e;stroke-linecap:square;stroke-width:3;"/>
   </g>
   <g id="line2d_41">
    <path clip-path="url(#pf896a6cdf0)" d="M 73.832727 243.488688 
L 90.065455 212.756501 
L 106.298182 220.108839 
L 122.530909 228.423862 
L 138.763636 230.008494 
L 154.996364 252.082033 
L 171.229091 259.398016 
L 187.461818 259.229822 
L 203.694545 236.711981 
L 219.927273 216.075975 
L 236.16 217.23187 
L 252.392727 215.368628 
L 268.625455 227.032043 
L 284.858182 239.942205 
L 301.090909 227.693882 
L 317.323636 222.188046 
L 333.556364 220.937997 
L 349.789091 225.574637 
L 366.021818 208.849939 
L 382.254545 223.67683 
L 398.487273 243.488688 
" style="fill:none;stroke:#0e4db3;stroke-linecap:square;stroke-width:3;"/>
   </g>
   <g id="line2d_42">
    <path clip-path="url(#pf896a6cdf0)" d="M 73.832727 252.384021 
L 90.065455 227.501861 
L 106.298182 232.055073 
L 122.530909 239.803411 
L 138.763636 241.917946 
L 154.996364 259.735117 
L 171.229091 265.598095 
L 187.461818 263.244772 
L 203.694545 245.563821 
L 219.927273 230.523767 
L 236.16 231.384985 
L 252.392727 229.888506 
L 268.625455 238.933397 
L 284.858182 249.374563 
L 301.090909 239.43737 
L 317.323636 235.076314 
L 333.556364 234.214045 
L 349.789091 236.867626 
L 366.021818 224.184576 
L 382.254545 236.047834 
L 398.487273 252.384021 
" style="fill:none;stroke:#d44e4e;stroke-linecap:square;stroke-width:3;"/>
   </g>
   <g id="line2d_43">
    <path clip-path="url(#pf896a6cdf0)" d="M 73.832727 267.390454 
L 90.065455 253.054551 
L 106.298182 257.929138 
L 122.530909 257.538456 
L 138.763636 260.897377 
L 154.996364 262.522611 
L 171.229091 266.510924 
L 187.461818 270.494997 
L 203.694545 268.740512 
L 219.927273 261.360137 
L 236.16 261.946063 
L 252.392727 261.744869 
L 268.625455 264.250751 
L 284.858182 257.664086 
L 301.090909 262.959026 
L 317.323636 270.509269 
L 333.556364 270.572366 
L 349.789091 266.696105 
L 366.021818 264.020555 
L 382.254545 263.648413 
L 398.487273 267.390454 
" style="fill:none;stroke:#0e4db3;stroke-linecap:square;stroke-width:3;"/>
   </g>
   <g id="line2d_44">
    <path clip-path="url(#pf896a6cdf0)" d="M 73.832727 271.967332 
L 90.065455 258.149339 
L 106.298182 262.161788 
L 122.530909 263.555316 
L 138.763636 266.618204 
L 154.996364 268.115599 
L 171.229091 270.767883 
L 187.461818 274.231312 
L 203.694545 272.439536 
L 219.927273 267.008184 
L 236.16 267.440846 
L 252.392727 267.283458 
L 268.625455 269.103843 
L 284.858182 263.842526 
L 301.090909 268.283677 
L 317.323636 273.892791 
L 333.556364 274.095642 
L 349.789091 271.027872 
L 366.021818 268.740869 
L 382.254545 268.595282 
L 398.487273 271.967332 
" style="fill:none;stroke:#d44e4e;stroke-linecap:square;stroke-width:3;"/>
   </g>
   <g id="line2d_45">
    <path clip-path="url(#pf896a6cdf0)" d="M 73.832727 265.086789 
L 90.065455 255.379974 
L 106.298182 242.850623 
L 122.530909 238.299948 
L 138.763636 231.861135 
L 154.996364 229.311963 
L 171.229091 235.965413 
L 187.461818 244.986292 
L 203.694545 246.703555 
L 219.927273 235.510516 
L 236.16 235.443086 
L 252.392727 240.764711 
L 268.625455 238.218803 
L 284.858182 246.941346 
L 301.090909 250.516682 
L 317.323636 272.660586 
L 333.556364 271.566199 
L 349.789091 272.517194 
L 366.021818 262.615287 
L 382.254545 265.190851 
L 398.487273 265.086789 
" style="fill:none;stroke:#0e4db3;stroke-linecap:square;stroke-width:3;"/>
   </g>
   <g id="line2d_46">
    <path clip-path="url(#pf896a6cdf0)" d="M 73.832727 268.960194 
L 90.065455 261.380696 
L 106.298182 245.254916 
L 122.530909 246.353495 
L 138.763636 243.09815 
L 154.996364 240.973933 
L 171.229091 246.119867 
L 187.461818 251.834647 
L 203.694545 254.097358 
L 219.927273 245.563213 
L 236.16 245.5601 
L 252.392727 249.474735 
L 268.625455 247.342634 
L 284.858182 253.879736 
L 301.090909 256.343586 
L 317.323636 275.572534 
L 333.556364 274.380824 
L 349.789091 274.110069 
L 366.021818 265.541065 
L 382.254545 268.364604 
L 398.487273 268.960194 
" style="fill:none;stroke:#d44e4e;stroke-linecap:square;stroke-width:3;"/>
   </g>
   <g id="line2d_47">
    <path clip-path="url(#pf896a6cdf0)" d="M 73.832727 245.397844 
L 90.065455 245.093678 
L 106.298182 244.975854 
L 122.530909 248.869026 
L 138.763636 245.060012 
L 154.996364 254.034406 
L 171.229091 254.893444 
L 187.461818 255.07024 
L 203.694545 254.468616 
L 219.927273 254.128961 
L 236.16 253.853935 
L 252.392727 249.394884 
L 268.625455 247.094569 
L 284.858182 250.715799 
L 301.090909 244.853669 
L 317.323636 244.996089 
L 333.556364 245.023074 
L 349.789091 245.969259 
L 366.021818 242.158 
L 382.254545 245.14096 
L 398.487273 245.397844 
" style="fill:none;stroke:#0e4db3;stroke-linecap:square;stroke-width:3;"/>
   </g>
   <g id="line2d_48">
    <path clip-path="url(#pf896a6cdf0)" d="M 73.832727 251.357021 
L 90.065455 249.064102 
L 106.298182 248.921382 
L 122.530909 250.349478 
L 138.763636 251.305046 
L 154.996364 258.252932 
L 171.229091 258.764927 
L 187.461818 258.902489 
L 203.694545 258.832179 
L 219.927273 258.601739 
L 236.16 258.63357 
L 252.392727 254.161875 
L 268.625455 252.652142 
L 284.858182 255.289919 
L 301.090909 250.857323 
L 317.323636 250.869707 
L 333.556364 250.874737 
L 349.789091 251.872236 
L 366.021818 248.382496 
L 382.254545 250.960074 
L 398.487273 251.357021 
" style="fill:none;stroke:#d44e4e;stroke-linecap:square;stroke-width:3;"/>
   </g>
   <g id="line2d_49">
    <path clip-path="url(#pf896a6cdf0)" d="M 73.832727 285.408 
L 90.065455 285.408 
L 106.298182 285.408 
L 122.530909 285.408 
L 138.763636 285.408 
L 154.996364 285.408 
L 171.229091 285.408 
L 187.461818 285.408 
L 203.694545 285.408 
L 219.927273 285.408 
L 236.16 285.408 
L 252.392727 285.408 
L 268.625455 285.408 
L 284.858182 285.408 
L 301.090909 285.408 
L 317.323636 285.408 
L 333.556364 285.408 
L 349.789091 285.408 
L 366.021818 285.408 
L 382.254545 285.408 
L 398.487273 285.408 
" style="fill:none;stroke:#0e4db3;stroke-linecap:square;stroke-width:3;"/>
   </g>
   <g id="line2d_50">
    <path clip-path="url(#pf896a6cdf0)" d="M 73.832727 285.408 
L 90.065455 285.408 
L 106.298182 285.408 
L 122.530909 285.408 
L 138.763636 285.408 
L 154.996364 285.408 
L 171.229091 285.408 
L 187.461818 285.408 
L 203.694545 285.408 
L 219.927273 285.408 
L 236.16 285.408 
L 252.392727 285.408 
L 268.625455 285.408 
L 284.858182 285.408 
L 301.090909 285.408 
L 317.323636 285.408 
L 333.556364 285.408 
L 349.789091 285.408 
L 366.021818 285.408 
L 382.254545 285.408 
L 398.487273 285.408 
" style="fill:none;stroke:#d44e4e;stroke-linecap:square;stroke-width:3;"/>
   </g>
   <g id="line2d_51">
    <path clip-path="url(#pf896a6cdf0)" d="M 73.832727 232.234074 
L 90.065455 183.64869 
L 106.298182 184.98049 
L 122.530909 181.097136 
L 138.763636 162.664462 
L 154.996364 176.726118 
L 171.229091 208.393967 
L 187.461818 256.190059 
L 203.694545 233.521512 
L 219.927273 213.596622 
L 236.16 210.705931 
L 252.392727 190.160365 
L 268.625455 173.752016 
L 284.858182 164.035369 
L 301.090909 180.354427 
L 317.323636 213.076611 
L 333.556364 266.559809 
L 349.789091 285.408 
L 366.021818 269.378732 
L 382.254545 229.406505 
L 398.487273 232.234074 
" style="fill:none;stroke:#0e4db3;stroke-linecap:square;stroke-width:3;"/>
   </g>
   <g id="line2d_52">
    <path clip-path="url(#pf896a6cdf0)" d="M 73.832727 285.408 
L 90.065455 245.194577 
L 106.298182 248.867469 
L 122.530909 236.156383 
L 138.763636 266.954761 
L 154.996364 281.658697 
L 171.229091 285.408 
L 187.461818 285.408 
L 203.694545 285.408 
L 219.927273 285.408 
L 236.16 284.240273 
L 252.392727 267.28183 
L 268.625455 256.831122 
L 284.858182 258.947367 
L 301.090909 268.847571 
L 317.323636 285.408 
L 333.556364 285.408 
L 349.789091 285.408 
L 366.021818 285.408 
L 382.254545 285.408 
L 398.487273 285.408 
" style="fill:none;stroke:#d44e4e;stroke-linecap:square;stroke-width:3;"/>
   </g>
   <g id="line2d_53">
    <path clip-path="url(#pf896a6cdf0)" d="M 73.832727 285.408 
L 90.065455 285.408 
L 106.298182 285.408 
L 122.530909 285.408 
L 138.763636 285.408 
L 154.996364 285.408 
L 171.229091 285.408 
L 187.461818 285.408 
L 203.694545 285.408 
L 219.927273 285.408 
L 236.16 285.408 
L 252.392727 285.408 
L 268.625455 285.408 
L 284.858182 285.408 
L 301.090909 285.408 
L 317.323636 285.408 
L 333.556364 285.408 
L 349.789091 285.408 
L 366.021818 285.408 
L 382.254545 285.408 
L 398.487273 285.408 
" style="fill:none;stroke:#0e4db3;stroke-linecap:square;stroke-width:3;"/>
   </g>
   <g id="line2d_54">
    <path clip-path="url(#pf896a6cdf0)" d="M 73.832727 285.408 
L 90.065455 285.408 
L 106.298182 285.408 
L 122.530909 285.408 
L 138.763636 285.408 
L 154.996364 285.408 
L 171.229091 285.408 
L 187.461818 285.408 
L 203.694545 285.408 
L 219.927273 285.408 
L 236.16 285.408 
L 252.392727 285.408 
L 268.625455 285.408 
L 284.858182 285.408 
L 301.090909 285.408 
L 317.323636 285.408 
L 333.556364 285.408 
L 349.789091 285.408 
L 366.021818 285.408 
L 382.254545 285.408 
L 398.487273 285.408 
" style="fill:none;stroke:#d44e4e;stroke-linecap:square;stroke-width:3;"/>
   </g>
   <g id="line2d_55">
    <path clip-path="url(#pf896a6cdf0)" d="M 73.832727 285.408 
L 90.065455 285.408 
L 106.298182 285.408 
L 122.530909 285.408 
L 138.763636 285.408 
L 154.996364 285.408 
L 171.229091 285.408 
L 187.461818 285.408 
L 203.694545 285.408 
L 219.927273 285.408 
L 236.16 285.408 
L 252.392727 285.408 
L 268.625455 285.408 
L 284.858182 285.408 
L 301.090909 285.408 
L 317.323636 285.408 
L 333.556364 285.408 
L 349.789091 285.408 
L 366.021818 285.408 
L 382.254545 285.408 
L 398.487273 285.408 
" style="fill:none;stroke:#0e4db3;stroke-linecap:square;stroke-width:3;"/>
   </g>
   <g id="line2d_56">
    <path clip-path="url(#pf896a6cdf0)" d="M 73.832727 285.408 
L 90.065455 285.408 
L 106.298182 285.408 
L 122.530909 285.408 
L 138.763636 285.408 
L 154.996364 285.408 
L 171.229091 285.408 
L 187.461818 285.408 
L 203.694545 285.408 
L 219.927273 285.408 
L 236.16 285.408 
L 252.392727 285.408 
L 268.625455 285.408 
L 284.858182 285.408 
L 301.090909 285.408 
L 317.323636 285.408 
L 333.556364 285.408 
L 349.789091 285.408 
L 366.021818 285.408 
L 382.254545 285.408 
L 398.487273 285.408 
" style="fill:none;stroke:#d44e4e;stroke-linecap:square;stroke-width:3;"/>
   </g>
   <g id="line2d_57">
    <path clip-path="url(#pf896a6cdf0)" d="M 73.832727 103.925421 
L 90.065455 159.985103 
L 106.298182 213.989492 
L 122.530909 221.904623 
L 138.763636 218.83197 
L 154.996364 220.758808 
L 171.229091 217.145417 
L 187.461818 226.550728 
L 203.694545 235.55154 
L 219.927273 201.528938 
L 236.16 192.94985 
L 252.392727 182.81095 
L 268.625455 207.458001 
L 284.858182 181.178329 
L 301.090909 143.332417 
L 317.323636 95.866425 
L 333.556364 58.320322 
L 349.789091 66.316413 
L 366.021818 75.807841 
L 382.254545 88.200842 
L 398.487273 103.925421 
" style="fill:none;stroke:#0e4db3;stroke-linecap:square;stroke-width:3;"/>
   </g>
   <g id="line2d_58">
    <path clip-path="url(#pf896a6cdf0)" d="M 73.832727 285.408 
L 90.065455 285.408 
L 106.298182 285.408 
L 122.530909 285.408 
L 138.763636 285.408 
L 154.996364 285.408 
L 171.229091 285.408 
L 187.461818 285.408 
L 203.694545 285.408 
L 219.927273 285.408 
L 236.16 285.408 
L 252.392727 285.408 
L 268.625455 285.408 
L 284.858182 285.408 
L 301.090909 285.408 
L 317.323636 235.750406 
L 333.556364 259.698674 
L 349.789091 237.526809 
L 366.021818 233.178338 
L 382.254545 253.673329 
L 398.487273 285.408 
" style="fill:none;stroke:#d44e4e;stroke-linecap:square;stroke-width:3;"/>
   </g>
   <g id="line2d_59">
    <path clip-path="url(#pf896a6cdf0)" d="M 73.832727 285.408 
L 90.065455 285.408 
L 106.298182 285.408 
L 122.530909 285.408 
L 138.763636 285.408 
L 154.996364 285.408 
L 171.229091 285.408 
L 187.461818 285.408 
L 203.694545 285.408 
L 219.927273 285.408 
L 236.16 285.408 
L 252.392727 285.408 
L 268.625455 285.408 
L 284.858182 285.408 
L 301.090909 285.408 
L 317.323636 285.408 
L 333.556364 285.408 
L 349.789091 285.408 
L 366.021818 285.408 
L 382.254545 285.408 
L 398.487273 285.408 
" style="fill:none;stroke:#0e4db3;stroke-linecap:square;stroke-width:3;"/>
   </g>
   <g id="line2d_60">
    <path clip-path="url(#pf896a6cdf0)" d="M 73.832727 285.408 
L 90.065455 285.408 
L 106.298182 285.408 
L 122.530909 285.408 
L 138.763636 285.408 
L 154.996364 285.408 
L 171.229091 285.408 
L 187.461818 285.408 
L 203.694545 285.408 
L 219.927273 285.408 
L 236.16 285.408 
L 252.392727 285.408 
L 268.625455 285.408 
L 284.858182 285.408 
L 301.090909 285.408 
L 317.323636 285.408 
L 333.556364 285.408 
L 349.789091 285.408 
L 366.021818 285.408 
L 382.254545 285.408 
L 398.487273 285.408 
" style="fill:none;stroke:#d44e4e;stroke-linecap:square;stroke-width:3;"/>
   </g>
   <g id="line2d_61">
    <path clip-path="url(#pf896a6cdf0)" d="M 73.832727 285.408 
L 90.065455 285.408 
L 106.298182 285.408 
L 122.530909 285.408 
L 138.763636 285.408 
L 154.996364 285.408 
L 171.229091 285.408 
L 187.461818 285.408 
L 203.694545 285.408 
L 219.927273 285.408 
L 236.16 285.408 
L 252.392727 285.408 
L 268.625455 285.408 
L 284.858182 285.408 
L 301.090909 285.408 
L 317.323636 285.408 
L 333.556364 285.408 
L 349.789091 285.408 
L 366.021818 285.408 
L 382.254545 285.408 
L 398.487273 285.408 
" style="fill:none;stroke:#0e4db3;stroke-linecap:square;stroke-width:3;"/>
   </g>
   <g id="line2d_62">
    <path clip-path="url(#pf896a6cdf0)" d="M 73.832727 285.408 
L 90.065455 285.408 
L 106.298182 285.408 
L 122.530909 285.408 
L 138.763636 285.408 
L 154.996364 285.408 
L 171.229091 285.408 
L 187.461818 285.408 
L 203.694545 285.408 
L 219.927273 285.408 
L 236.16 285.408 
L 252.392727 285.408 
L 268.625455 285.408 
L 284.858182 285.408 
L 301.090909 285.408 
L 317.323636 285.408 
L 333.556364 285.408 
L 349.789091 285.408 
L 366.021818 285.408 
L 382.254545 285.408 
L 398.487273 285.408 
" style="fill:none;stroke:#d44e4e;stroke-linecap:square;stroke-width:3;"/>
   </g>
   <g id="line2d_63">
    <path clip-path="url(#pf896a6cdf0)" d="M 73.832727 262.529425 
L 90.065455 262.607744 
L 106.298182 267.115291 
L 122.530909 273.198324 
L 138.763636 273.133314 
L 154.996364 274.170135 
L 171.229091 266.73639 
L 187.461818 249.073808 
L 203.694545 212.200553 
L 219.927273 186.027599 
L 236.16 218.742671 
L 252.392727 170.739858 
L 268.625455 176.821281 
L 284.858182 178.987471 
L 301.090909 179.453265 
L 317.323636 194.943937 
L 333.556364 204.692217 
L 349.789091 222.089007 
L 366.021818 231.175517 
L 382.254545 246.751136 
L 398.487273 262.529425 
" style="fill:none;stroke:#0e4db3;stroke-linecap:square;stroke-width:3;"/>
   </g>
   <g id="line2d_64">
    <path clip-path="url(#pf896a6cdf0)" d="M 73.832727 284.294513 
L 90.065455 277.180042 
L 106.298182 283.732605 
L 122.530909 280.16286 
L 138.763636 279.812396 
L 154.996364 280.309291 
L 171.229091 284.365722 
L 187.461818 284.605236 
L 203.694545 284.474283 
L 219.927273 252.796695 
L 236.16 283.879841 
L 252.392727 239.277561 
L 268.625455 248.243891 
L 284.858182 258.524687 
L 301.090909 263.808322 
L 317.323636 257.523789 
L 333.556364 266.177605 
L 349.789091 259.942548 
L 366.021818 266.537659 
L 382.254545 270.575666 
L 398.487273 284.294513 
" style="fill:none;stroke:#d44e4e;stroke-linecap:square;stroke-width:3;"/>
   </g>
   <g id="line2d_65">
    <path clip-path="url(#pf896a6cdf0)" d="M 73.832727 285.408 
L 90.065455 285.408 
L 106.298182 285.408 
L 122.530909 285.408 
L 138.763636 285.408 
L 154.996364 285.408 
L 171.229091 285.408 
L 187.461818 285.408 
L 203.694545 285.408 
L 219.927273 285.408 
L 236.16 285.408 
L 252.392727 285.408 
L 268.625455 285.408 
L 284.858182 285.408 
L 301.090909 285.408 
L 317.323636 285.408 
L 333.556364 285.408 
L 349.789091 285.408 
L 366.021818 285.408 
L 382.254545 285.408 
L 398.487273 285.408 
" style="fill:none;stroke:#0e4db3;stroke-linecap:square;stroke-width:3;"/>
   </g>
   <g id="line2d_66">
    <path clip-path="url(#pf896a6cdf0)" d="M 73.832727 285.408 
L 90.065455 285.408 
L 106.298182 285.408 
L 122.530909 285.408 
L 138.763636 285.408 
L 154.996364 285.408 
L 171.229091 285.408 
L 187.461818 285.408 
L 203.694545 285.408 
L 219.927273 285.408 
L 236.16 285.408 
L 252.392727 285.408 
L 268.625455 285.408 
L 284.858182 285.408 
L 301.090909 285.408 
L 317.323636 285.408 
L 333.556364 285.408 
L 349.789091 285.408 
L 366.021818 285.408 
L 382.254545 285.408 
L 398.487273 285.408 
" style="fill:none;stroke:#d44e4e;stroke-linecap:square;stroke-width:3;"/>
   </g>
   <g id="line2d_67">
    <path clip-path="url(#pf896a6cdf0)" d="M 73.832727 285.408 
L 90.065455 285.408 
L 106.298182 285.408 
L 122.530909 285.408 
L 138.763636 285.408 
L 154.996364 285.408 
L 171.229091 285.408 
L 187.461818 285.408 
L 203.694545 285.408 
L 219.927273 285.408 
L 236.16 285.408 
L 252.392727 285.408 
L 268.625455 285.408 
L 284.858182 285.408 
L 301.090909 285.408 
L 317.323636 285.408 
L 333.556364 285.408 
L 349.789091 285.408 
L 366.021818 285.408 
L 382.254545 285.408 
L 398.487273 285.408 
" style="fill:none;stroke:#0e4db3;stroke-linecap:square;stroke-width:3;"/>
   </g>
   <g id="line2d_68">
    <path clip-path="url(#pf896a6cdf0)" d="M 73.832727 285.408 
L 90.065455 285.408 
L 106.298182 285.408 
L 122.530909 285.408 
L 138.763636 285.408 
L 154.996364 285.408 
L 171.229091 285.408 
L 187.461818 285.408 
L 203.694545 285.408 
L 219.927273 285.408 
L 236.16 285.408 
L 252.392727 285.408 
L 268.625455 285.408 
L 284.858182 285.408 
L 301.090909 285.408 
L 317.323636 285.408 
L 333.556364 285.408 
L 349.789091 285.408 
L 366.021818 285.408 
L 382.254545 285.408 
L 398.487273 285.408 
" style="fill:none;stroke:#d44e4e;stroke-linecap:square;stroke-width:3;"/>
   </g>
   <g id="line2d_69">
    <path clip-path="url(#pf896a6cdf0)" d="M 73.832727 285.408 
L 90.065455 285.408 
L 106.298182 285.408 
L 122.530909 285.408 
L 138.763636 285.408 
L 154.996364 285.408 
L 171.229091 285.408 
L 187.461818 285.408 
L 203.694545 285.408 
L 219.927273 285.408 
L 236.16 285.408 
L 252.392727 285.408 
L 268.625455 285.408 
L 284.858182 285.408 
L 301.090909 285.408 
L 317.323636 285.408 
L 333.556364 285.408 
L 349.789091 285.408 
L 366.021818 285.408 
L 382.254545 285.408 
L 398.487273 285.408 
" style="fill:none;stroke:#0e4db3;stroke-linecap:square;stroke-width:3;"/>
   </g>
   <g id="line2d_70">
    <path clip-path="url(#pf896a6cdf0)" d="M 73.832727 285.408 
L 90.065455 285.408 
L 106.298182 285.408 
L 122.530909 285.408 
L 138.763636 285.408 
L 154.996364 285.408 
L 171.229091 285.408 
L 187.461818 285.408 
L 203.694545 285.408 
L 219.927273 285.408 
L 236.16 285.408 
L 252.392727 285.408 
L 268.625455 285.408 
L 284.858182 285.408 
L 301.090909 285.408 
L 317.323636 285.408 
L 333.556364 285.408 
L 349.789091 285.408 
L 366.021818 285.408 
L 382.254545 285.408 
L 398.487273 285.408 
" style="fill:none;stroke:#d44e4e;stroke-linecap:square;stroke-width:3;"/>
   </g>
   <g id="line2d_71">
    <path clip-path="url(#pf896a6cdf0)" d="M 73.832727 285.408 
L 90.065455 285.408 
L 106.298182 285.408 
L 122.530909 285.408 
L 138.763636 285.408 
L 154.996364 285.408 
L 171.229091 285.408 
L 187.461818 285.408 
L 203.694545 285.408 
L 219.927273 285.408 
L 236.16 285.408 
L 252.392727 285.408 
L 268.625455 285.408 
L 284.858182 285.408 
L 301.090909 285.408 
L 317.323636 285.408 
L 333.556364 285.408 
L 349.789091 285.408 
L 366.021818 285.408 
L 382.254545 285.408 
L 398.487273 285.408 
" style="fill:none;stroke:#0e4db3;stroke-linecap:square;stroke-width:3;"/>
   </g>
   <g id="line2d_72">
    <path clip-path="url(#pf896a6cdf0)" d="M 73.832727 285.408 
L 90.065455 285.408 
L 106.298182 285.408 
L 122.530909 285.408 
L 138.763636 285.408 
L 154.996364 285.408 
L 171.229091 285.408 
L 187.461818 285.408 
L 203.694545 285.408 
L 219.927273 285.408 
L 236.16 285.408 
L 252.392727 285.408 
L 268.625455 285.408 
L 284.858182 285.408 
L 301.090909 285.408 
L 317.323636 285.408 
L 333.556364 285.408 
L 349.789091 285.408 
L 366.021818 285.408 
L 382.254545 285.408 
L 398.487273 285.408 
" style="fill:none;stroke:#d44e4e;stroke-linecap:square;stroke-width:3;"/>
   </g>
   <g id="line2d_73">
    <path clip-path="url(#pf896a6cdf0)" d="M 73.832727 219.425809 
L 90.065455 199.47487 
L 106.298182 164.662959 
L 122.530909 170.058231 
L 138.763636 138.61336 
L 154.996364 140.853574 
L 171.229091 162.790413 
L 187.461818 208.11835 
L 203.694545 186.825633 
L 219.927273 186.460939 
L 236.16 210.99063 
L 252.392727 196.300636 
L 268.625455 202.376919 
L 284.858182 222.091828 
L 301.090909 223.783239 
L 317.323636 246.33498 
L 333.556364 237.096824 
L 349.789091 229.940695 
L 366.021818 215.719517 
L 382.254545 215.630234 
L 398.487273 219.425809 
" style="fill:none;stroke:#0e4db3;stroke-linecap:square;stroke-width:3;"/>
   </g>
   <g id="line2d_74">
    <path clip-path="url(#pf896a6cdf0)" d="M 73.832727 285.408 
L 90.065455 285.408 
L 106.298182 285.408 
L 122.530909 285.408 
L 138.763636 285.408 
L 154.996364 285.408 
L 171.229091 285.408 
L 187.461818 285.408 
L 203.694545 285.408 
L 219.927273 285.408 
L 236.16 285.408 
L 252.392727 285.408 
L 268.625455 285.408 
L 284.858182 285.408 
L 301.090909 285.408 
L 317.323636 285.408 
L 333.556364 285.408 
L 349.789091 285.408 
L 366.021818 285.408 
L 382.254545 285.408 
L 398.487273 285.408 
" style="fill:none;stroke:#d44e4e;stroke-linecap:square;stroke-width:3;"/>
   </g>
   <g id="line2d_75">
    <path clip-path="url(#pf896a6cdf0)" d="M 73.832727 285.408 
L 90.065455 285.408 
L 106.298182 285.408 
L 122.530909 285.408 
L 138.763636 285.408 
L 154.996364 285.408 
L 171.229091 285.408 
L 187.461818 285.408 
L 203.694545 285.408 
L 219.927273 285.408 
L 236.16 285.408 
L 252.392727 285.408 
L 268.625455 285.408 
L 284.858182 285.408 
L 301.090909 285.408 
L 317.323636 285.408 
L 333.556364 285.408 
L 349.789091 285.408 
L 366.021818 285.408 
L 382.254545 285.408 
L 398.487273 285.408 
" style="fill:none;stroke:#0e4db3;stroke-linecap:square;stroke-width:3;"/>
   </g>
   <g id="line2d_76">
    <path clip-path="url(#pf896a6cdf0)" d="M 73.832727 285.408 
L 90.065455 285.408 
L 106.298182 285.408 
L 122.530909 285.408 
L 138.763636 285.408 
L 154.996364 285.408 
L 171.229091 285.408 
L 187.461818 285.408 
L 203.694545 285.408 
L 219.927273 285.408 
L 236.16 285.408 
L 252.392727 285.408 
L 268.625455 285.408 
L 284.858182 285.408 
L 301.090909 285.408 
L 317.323636 285.408 
L 333.556364 285.408 
L 349.789091 285.408 
L 366.021818 285.408 
L 382.254545 285.408 
L 398.487273 285.408 
" style="fill:none;stroke:#d44e4e;stroke-linecap:square;stroke-width:3;"/>
   </g>
   <g id="line2d_77">
    <path clip-path="url(#pf896a6cdf0)" d="M 73.832727 285.408 
L 90.065455 285.408 
L 106.298182 285.408 
L 122.530909 285.408 
L 138.763636 285.408 
L 154.996364 285.408 
L 171.229091 285.408 
L 187.461818 285.408 
L 203.694545 285.408 
L 219.927273 285.408 
L 236.16 285.408 
L 252.392727 285.408 
L 268.625455 285.408 
L 284.858182 285.408 
L 301.090909 285.408 
L 317.323636 285.408 
L 333.556364 285.408 
L 349.789091 285.408 
L 366.021818 285.408 
L 382.254545 285.408 
L 398.487273 285.408 
" style="fill:none;stroke:#0e4db3;stroke-linecap:square;stroke-width:3;"/>
   </g>
   <g id="line2d_78">
    <path clip-path="url(#pf896a6cdf0)" d="M 73.832727 285.408 
L 90.065455 285.408 
L 106.298182 285.408 
L 122.530909 285.408 
L 138.763636 285.408 
L 154.996364 285.408 
L 171.229091 285.408 
L 187.461818 285.408 
L 203.694545 285.408 
L 219.927273 285.408 
L 236.16 285.408 
L 252.392727 285.408 
L 268.625455 285.408 
L 284.858182 285.408 
L 301.090909 285.408 
L 317.323636 285.408 
L 333.556364 285.408 
L 349.789091 285.408 
L 366.021818 285.408 
L 382.254545 285.408 
L 398.487273 285.408 
" style="fill:none;stroke:#d44e4e;stroke-linecap:square;stroke-width:3;"/>
   </g>
   <g id="line2d_79">
    <path clip-path="url(#pf896a6cdf0)" d="M 73.832727 285.408 
L 90.065455 285.408 
L 106.298182 285.408 
L 122.530909 285.408 
L 138.763636 285.408 
L 154.996364 285.408 
L 171.229091 285.408 
L 187.461818 285.408 
L 203.694545 285.408 
L 219.927273 285.408 
L 236.16 285.408 
L 252.392727 285.408 
L 268.625455 285.408 
L 284.858182 285.408 
L 301.090909 285.408 
L 317.323636 285.408 
L 333.556364 285.408 
L 349.789091 285.408 
L 366.021818 285.408 
L 382.254545 285.408 
L 398.487273 285.408 
" style="fill:none;stroke:#0e4db3;stroke-linecap:square;stroke-width:3;"/>
   </g>
   <g id="line2d_80">
    <path clip-path="url(#pf896a6cdf0)" d="M 73.832727 285.408 
L 90.065455 285.408 
L 106.298182 285.408 
L 122.530909 285.408 
L 138.763636 285.408 
L 154.996364 285.408 
L 171.229091 285.408 
L 187.461818 285.408 
L 203.694545 285.408 
L 219.927273 285.408 
L 236.16 285.408 
L 252.392727 285.408 
L 268.625455 285.408 
L 284.858182 285.408 
L 301.090909 285.408 
L 317.323636 285.408 
L 333.556364 285.408 
L 349.789091 285.408 
L 366.021818 285.408 
L 382.254545 285.408 
L 398.487273 285.408 
" style="fill:none;stroke:#d44e4e;stroke-linecap:square;stroke-width:3;"/>
   </g>
   <g id="line2d_81">
    <path clip-path="url(#pf896a6cdf0)" d="M 73.832727 235.403507 
L 90.065455 210.258605 
L 106.298182 247.861043 
L 122.530909 246.023406 
L 138.763636 231.039187 
L 154.996364 228.446942 
L 171.229091 213.90232 
L 187.461818 175.512869 
L 203.694545 149.900436 
L 219.927273 133.240302 
L 236.16 153.77024 
L 252.392727 104.031555 
L 268.625455 93.370451 
L 284.858182 127.365234 
L 301.090909 129.178514 
L 317.323636 181.903768 
L 333.556364 206.606892 
L 349.789091 186.163362 
L 366.021818 188.520895 
L 382.254545 196.062648 
L 398.487273 235.403507 
" style="fill:none;stroke:#0e4db3;stroke-linecap:square;stroke-width:3;"/>
   </g>
   <g id="line2d_82">
    <path clip-path="url(#pf896a6cdf0)" d="M 73.832727 285.408 
L 90.065455 285.408 
L 106.298182 285.408 
L 122.530909 285.408 
L 138.763636 285.408 
L 154.996364 285.408 
L 171.229091 285.408 
L 187.461818 285.408 
L 203.694545 285.408 
L 219.927273 285.408 
L 236.16 285.408 
L 252.392727 285.408 
L 268.625455 285.408 
L 284.858182 285.408 
L 301.090909 285.408 
L 317.323636 285.408 
L 333.556364 285.408 
L 349.789091 285.408 
L 366.021818 285.408 
L 382.254545 285.408 
L 398.487273 285.408 
" style="fill:none;stroke:#d44e4e;stroke-linecap:square;stroke-width:3;"/>
   </g>
   <g id="line2d_83">
    <path clip-path="url(#pf896a6cdf0)" d="M 73.832727 285.408 
L 90.065455 285.408 
L 106.298182 285.408 
L 122.530909 285.408 
L 138.763636 285.408 
L 154.996364 285.408 
L 171.229091 285.408 
L 187.461818 285.408 
L 203.694545 285.408 
L 219.927273 285.408 
L 236.16 285.408 
L 252.392727 285.408 
L 268.625455 285.408 
L 284.858182 285.408 
L 301.090909 285.408 
L 317.323636 285.408 
L 333.556364 285.408 
L 349.789091 285.408 
L 366.021818 285.408 
L 382.254545 285.408 
L 398.487273 285.408 
" style="fill:none;stroke:#0e4db3;stroke-linecap:square;stroke-width:3;"/>
   </g>
   <g id="line2d_84">
    <path clip-path="url(#pf896a6cdf0)" d="M 73.832727 285.408 
L 90.065455 285.408 
L 106.298182 285.408 
L 122.530909 285.408 
L 138.763636 285.408 
L 154.996364 285.408 
L 171.229091 285.408 
L 187.461818 285.408 
L 203.694545 285.408 
L 219.927273 285.408 
L 236.16 285.408 
L 252.392727 285.408 
L 268.625455 285.408 
L 284.858182 285.408 
L 301.090909 285.408 
L 317.323636 285.408 
L 333.556364 285.408 
L 349.789091 285.408 
L 366.021818 285.408 
L 382.254545 285.408 
L 398.487273 285.408 
" style="fill:none;stroke:#d44e4e;stroke-linecap:square;stroke-width:3;"/>
   </g>
   <g id="line2d_85">
    <path clip-path="url(#pf896a6cdf0)" d="M 73.832727 158.111866 
L 90.065455 139.309505 
L 106.298182 141.607927 
L 122.530909 158.891652 
L 138.763636 180.43434 
L 154.996364 188.461505 
L 171.229091 177.100495 
L 187.461818 193.199549 
L 203.694545 227.808508 
L 219.927273 248.054555 
L 236.16 253.148249 
L 252.392727 224.566109 
L 268.625455 236.449007 
L 284.858182 234.405532 
L 301.090909 183.002753 
L 317.323636 197.032217 
L 333.556364 188.000375 
L 349.789091 198.374767 
L 366.021818 182.842657 
L 382.254545 175.390212 
L 398.487273 158.111866 
" style="fill:none;stroke:#0e4db3;stroke-linecap:square;stroke-width:3;"/>
   </g>
   <g id="line2d_86">
    <path clip-path="url(#pf896a6cdf0)" d="M 73.832727 285.408 
L 90.065455 264.718319 
L 106.298182 251.025278 
L 122.530909 264.965429 
L 138.763636 285.408 
L 154.996364 285.408 
L 171.229091 261.466437 
L 187.461818 280.340594 
L 203.694545 285.408 
L 219.927273 285.408 
L 236.16 285.408 
L 252.392727 285.408 
L 268.625455 285.408 
L 284.858182 285.408 
L 301.090909 284.188223 
L 317.323636 285.408 
L 333.556364 285.408 
L 349.789091 257.883682 
L 366.021818 246.399224 
L 382.254545 259.062101 
L 398.487273 285.408 
" style="fill:none;stroke:#d44e4e;stroke-linecap:square;stroke-width:3;"/>
   </g>
   <g id="line2d_87">
    <path clip-path="url(#pf896a6cdf0)" d="M 73.832727 185.803021 
L 90.065455 191.649272 
L 106.298182 191.428455 
L 122.530909 188.585065 
L 138.763636 197.737339 
L 154.996364 228.035689 
L 171.229091 241.461288 
L 187.461818 250.974644 
L 203.694545 222.360086 
L 219.927273 157.814807 
L 236.16 129.191062 
L 252.392727 117.824238 
L 268.625455 133.495782 
L 284.858182 150.604539 
L 301.090909 145.254196 
L 317.323636 140.210807 
L 333.556364 157.811563 
L 349.789091 153.190428 
L 366.021818 176.896644 
L 382.254545 182.418137 
L 398.487273 185.803021 
" style="fill:none;stroke:#0e4db3;stroke-linecap:square;stroke-width:3;"/>
   </g>
   <g id="line2d_88">
    <path clip-path="url(#pf896a6cdf0)" d="M 73.832727 207.688484 
L 90.065455 210.415573 
L 106.298182 208.025142 
L 122.530909 210.597349 
L 138.763636 211.450922 
L 154.996364 240.439645 
L 171.229091 255.474291 
L 187.461818 253.527574 
L 203.694545 233.275127 
L 219.927273 191.752737 
L 236.16 168.409647 
L 252.392727 159.321863 
L 268.625455 167.055723 
L 284.858182 181.970459 
L 301.090909 175.062234 
L 317.323636 168.833255 
L 333.556364 182.234768 
L 349.789091 179.350219 
L 366.021818 194.395881 
L 382.254545 181.849198 
L 398.487273 207.688484 
" style="fill:none;stroke:#d44e4e;stroke-linecap:square;stroke-width:3;"/>
   </g>
   <g id="line2d_89">
    <path clip-path="url(#pf896a6cdf0)" d="M 73.832727 285.408 
L 90.065455 285.408 
L 106.298182 285.408 
L 122.530909 285.408 
L 138.763636 285.408 
L 154.996364 285.408 
L 171.229091 285.408 
L 187.461818 285.408 
L 203.694545 285.408 
L 219.927273 285.408 
L 236.16 285.408 
L 252.392727 285.408 
L 268.625455 285.408 
L 284.858182 285.408 
L 301.090909 285.408 
L 317.323636 285.408 
L 333.556364 285.408 
L 349.789091 285.408 
L 366.021818 285.408 
L 382.254545 285.408 
L 398.487273 285.408 
" style="fill:none;stroke:#0e4db3;stroke-linecap:square;stroke-width:3;"/>
   </g>
   <g id="line2d_90">
    <path clip-path="url(#pf896a6cdf0)" d="M 73.832727 285.408 
L 90.065455 285.408 
L 106.298182 285.408 
L 122.530909 285.408 
L 138.763636 285.408 
L 154.996364 285.408 
L 171.229091 285.408 
L 187.461818 285.408 
L 203.694545 285.408 
L 219.927273 285.408 
L 236.16 285.408 
L 252.392727 285.408 
L 268.625455 285.408 
L 284.858182 285.408 
L 301.090909 285.408 
L 317.323636 285.408 
L 333.556364 285.408 
L 349.789091 285.408 
L 366.021818 285.408 
L 382.254545 285.408 
L 398.487273 285.408 
" style="fill:none;stroke:#d44e4e;stroke-linecap:square;stroke-width:3;"/>
   </g>
   <g id="line2d_91">
    <path clip-path="url(#pf896a6cdf0)" d="M 73.832727 285.408 
L 90.065455 285.408 
L 106.298182 285.408 
L 122.530909 285.408 
L 138.763636 285.408 
L 154.996364 285.408 
L 171.229091 285.408 
L 187.461818 285.408 
L 203.694545 285.408 
L 219.927273 285.408 
L 236.16 285.408 
L 252.392727 285.408 
L 268.625455 285.408 
L 284.858182 285.408 
L 301.090909 285.408 
L 317.323636 285.408 
L 333.556364 285.408 
L 349.789091 285.408 
L 366.021818 285.408 
L 382.254545 285.408 
L 398.487273 285.408 
" style="fill:none;stroke:#0e4db3;stroke-linecap:square;stroke-width:3;"/>
   </g>
   <g id="line2d_92">
    <path clip-path="url(#pf896a6cdf0)" d="M 73.832727 285.408 
L 90.065455 285.408 
L 106.298182 285.408 
L 122.530909 285.408 
L 138.763636 285.408 
L 154.996364 285.408 
L 171.229091 285.408 
L 187.461818 285.408 
L 203.694545 285.408 
L 219.927273 285.408 
L 236.16 285.408 
L 252.392727 285.408 
L 268.625455 285.408 
L 284.858182 285.408 
L 301.090909 285.408 
L 317.323636 285.408 
L 333.556364 285.408 
L 349.789091 285.408 
L 366.021818 285.408 
L 382.254545 285.408 
L 398.487273 285.408 
" style="fill:none;stroke:#d44e4e;stroke-linecap:square;stroke-width:3;"/>
   </g>
   <g id="line2d_93">
    <path clip-path="url(#pf896a6cdf0)" d="M 73.832727 285.408 
L 90.065455 285.408 
L 106.298182 285.408 
L 122.530909 271.145155 
L 138.763636 258.767615 
L 154.996364 255.221317 
L 171.229091 266.457931 
L 187.461818 246.969276 
L 203.694545 208.775841 
L 219.927273 189.40473 
L 236.16 276.821338 
L 252.392727 140.36605 
L 268.625455 98.022793 
L 284.858182 105.056253 
L 301.090909 107.88771 
L 317.323636 161.154532 
L 333.556364 212.799607 
L 349.789091 268.542034 
L 366.021818 285.408 
L 382.254545 285.408 
L 398.487273 285.408 
" style="fill:none;stroke:#0e4db3;stroke-linecap:square;stroke-width:3;"/>
   </g>
   <g id="line2d_94">
    <path clip-path="url(#pf896a6cdf0)" d="M 73.832727 285.408 
L 90.065455 285.408 
L 106.298182 285.408 
L 122.530909 285.408 
L 138.763636 285.408 
L 154.996364 285.408 
L 171.229091 285.408 
L 187.461818 285.408 
L 203.694545 275.921333 
L 219.927273 268.277473 
L 236.16 285.408 
L 252.392727 235.555092 
L 268.625455 226.514795 
L 284.858182 209.295835 
L 301.090909 217.198447 
L 317.323636 243.317727 
L 333.556364 261.883293 
L 349.789091 285.408 
L 366.021818 285.408 
L 382.254545 285.408 
L 398.487273 285.408 
" style="fill:none;stroke:#d44e4e;stroke-linecap:square;stroke-width:3;"/>
   </g>
   <g id="line2d_95">
    <path clip-path="url(#pf896a6cdf0)" d="M 73.832727 141.334807 
L 90.065455 108.426675 
L 106.298182 92.995878 
L 122.530909 78.766997 
L 138.763636 63.648 
L 154.996364 83.75722 
L 171.229091 103.577487 
L 187.461818 168.90411 
L 203.694545 176.506476 
L 219.927273 188.267821 
L 236.16 174.669578 
L 252.392727 163.05298 
L 268.625455 170.038982 
L 284.858182 149.284704 
L 301.090909 170.787924 
L 317.323636 181.174954 
L 333.556364 211.04552 
L 349.789091 200.792841 
L 366.021818 189.667667 
L 382.254545 165.698793 
L 398.487273 141.334807 
" style="fill:none;stroke:#0e4db3;stroke-linecap:square;stroke-width:3;"/>
   </g>
   <g id="line2d_96">
    <path clip-path="url(#pf896a6cdf0)" d="M 73.832727 285.408 
L 90.065455 260.222731 
L 106.298182 264.325412 
L 122.530909 234.642781 
L 138.763636 274.056467 
L 154.996364 283.585152 
L 171.229091 283.61428 
L 187.461818 285.408 
L 203.694545 285.408 
L 219.927273 285.408 
L 236.16 285.408 
L 252.392727 285.408 
L 268.625455 285.408 
L 284.858182 285.408 
L 301.090909 285.408 
L 317.323636 285.408 
L 333.556364 285.408 
L 349.789091 285.408 
L 366.021818 285.408 
L 382.254545 285.408 
L 398.487273 285.408 
" style="fill:none;stroke:#d44e4e;stroke-linecap:square;stroke-width:3;"/>
   </g>
   <g id="patch_3">
    <path d="M 57.6 307.584 
L 57.6 41.472 
" style="fill:none;stroke:#000000;stroke-linecap:square;stroke-linejoin:miter;stroke-width:2.5;"/>
   </g>
   <g id="patch_4">
    <path d="M 414.72 307.584 
L 414.72 41.472 
" style="fill:none;stroke:#000000;stroke-linecap:square;stroke-linejoin:miter;stroke-width:2.5;"/>
   </g>
   <g id="patch_5">
    <path d="M 57.6 307.584 
L 414.72 307.584 
" style="fill:none;stroke:#000000;stroke-linecap:square;stroke-linejoin:miter;stroke-width:2.5;"/>
   </g>
   <g id="patch_6">
    <path d="M 57.6 41.472 
L 414.72 41.472 
" style="fill:none;stroke:#000000;stroke-linecap:square;stroke-linejoin:miter;stroke-width:2.5;"/>
   </g>
  </g>
 </g>
 <defs>
  <clipPath id="pf896a6cdf0">
   <rect height="266.112" width="357.12" x="57.6" y="41.472"/>
  </clipPath>
 </defs>
</svg>
