<?xml version="1.0" encoding="utf-8" standalone="no"?>
<!DOCTYPE svg PUBLIC "-//W3C//DTD SVG 1.1//EN"
  "http://www.w3.org/Graphics/SVG/1.1/DTD/svg11.dtd">
<!-- Created with matplotlib (https://matplotlib.org/) -->
<svg height="345.6pt" version="1.1" viewBox="0 0 460.8 345.6" width="460.8pt" xmlns="http://www.w3.org/2000/svg" xmlns:xlink="http://www.w3.org/1999/xlink">
 <defs>
  <style type="text/css">
*{stroke-linecap:butt;stroke-linejoin:round;}
  </style>
 </defs>
 <g id="figure_1">
  <g id="patch_1">
   <path d="M 0 345.6 
L 460.8 345.6 
L 460.8 0 
L 0 0 
z
" style="fill:#ffffff;"/>
  </g>
  <g id="axes_1">
   <g id="patch_2">
    <path d="M 57.6 307.584 
L 414.72 307.584 
L 414.72 41.472 
L 57.6 41.472 
z
" style="fill:#ffffff;"/>
   </g>
   <g id="matplotlib.axis_1">
    <g id="xtick_1">
     <g id="line2d_1">
      <defs>
       <path d="M 0 0 
L 0 12 
" id="mcd4c7bfc5e" style="stroke:#000000;stroke-width:2.5;"/>
      </defs>
      <g>
       <use style="stroke:#000000;stroke-width:2.5;" x="73.832727" xlink:href="#mcd4c7bfc5e" y="307.584"/>
      </g>
     </g>
     <g id="text_1">
      <!-- 0 -->
      <defs>
       <path d="M 31.78125 66.40625 
Q 24.171875 66.40625 20.328125 58.90625 
Q 16.5 51.421875 16.5 36.375 
Q 16.5 21.390625 20.328125 13.890625 
Q 24.171875 6.390625 31.78125 6.390625 
Q 39.453125 6.390625 43.28125 13.890625 
Q 47.125 21.390625 47.125 36.375 
Q 47.125 51.421875 43.28125 58.90625 
Q 39.453125 66.40625 31.78125 66.40625 
z
M 31.78125 74.21875 
Q 44.046875 74.21875 50.515625 64.515625 
Q 56.984375 54.828125 56.984375 36.375 
Q 56.984375 17.96875 50.515625 8.265625 
Q 44.046875 -1.421875 31.78125 -1.421875 
Q 19.53125 -1.421875 13.0625 8.265625 
Q 6.59375 17.96875 6.59375 36.375 
Q 6.59375 54.828125 13.0625 64.515625 
Q 19.53125 74.21875 31.78125 74.21875 
z
" id="DejaVuSans-48"/>
      </defs>
      <g transform="translate(66.833977 339.800562)scale(0.22 -0.22)">
       <use xlink:href="#DejaVuSans-48"/>
      </g>
     </g>
    </g>
    <g id="xtick_2">
     <g id="line2d_2">
      <g>
       <use style="stroke:#000000;stroke-width:2.5;" x="164.014545" xlink:href="#mcd4c7bfc5e" y="307.584"/>
      </g>
     </g>
     <g id="text_2">
      <!-- 50 -->
      <defs>
       <path d="M 10.796875 72.90625 
L 49.515625 72.90625 
L 49.515625 64.59375 
L 19.828125 64.59375 
L 19.828125 46.734375 
Q 21.96875 47.46875 24.109375 47.828125 
Q 26.265625 48.1875 28.421875 48.1875 
Q 40.625 48.1875 47.75 41.5 
Q 54.890625 34.8125 54.890625 23.390625 
Q 54.890625 11.625 47.5625 5.09375 
Q 40.234375 -1.421875 26.90625 -1.421875 
Q 22.3125 -1.421875 17.546875 -0.640625 
Q 12.796875 0.140625 7.71875 1.703125 
L 7.71875 11.625 
Q 12.109375 9.234375 16.796875 8.0625 
Q 21.484375 6.890625 26.703125 6.890625 
Q 35.15625 6.890625 40.078125 11.328125 
Q 45.015625 15.765625 45.015625 23.390625 
Q 45.015625 31 40.078125 35.4375 
Q 35.15625 39.890625 26.703125 39.890625 
Q 22.75 39.890625 18.8125 39.015625 
Q 14.890625 38.140625 10.796875 36.28125 
z
" id="DejaVuSans-53"/>
      </defs>
      <g transform="translate(150.017045 339.800562)scale(0.22 -0.22)">
       <use xlink:href="#DejaVuSans-53"/>
       <use x="63.623047" xlink:href="#DejaVuSans-48"/>
      </g>
     </g>
    </g>
    <g id="xtick_3">
     <g id="line2d_3">
      <g>
       <use style="stroke:#000000;stroke-width:2.5;" x="254.196364" xlink:href="#mcd4c7bfc5e" y="307.584"/>
      </g>
     </g>
     <g id="text_3">
      <!-- 100 -->
      <defs>
       <path d="M 12.40625 8.296875 
L 28.515625 8.296875 
L 28.515625 63.921875 
L 10.984375 60.40625 
L 10.984375 69.390625 
L 28.421875 72.90625 
L 38.28125 72.90625 
L 38.28125 8.296875 
L 54.390625 8.296875 
L 54.390625 0 
L 12.40625 0 
z
" id="DejaVuSans-49"/>
      </defs>
      <g transform="translate(233.200114 339.800562)scale(0.22 -0.22)">
       <use xlink:href="#DejaVuSans-49"/>
       <use x="63.623047" xlink:href="#DejaVuSans-48"/>
       <use x="127.246094" xlink:href="#DejaVuSans-48"/>
      </g>
     </g>
    </g>
    <g id="xtick_4">
     <g id="line2d_4">
      <g>
       <use style="stroke:#000000;stroke-width:2.5;" x="344.378182" xlink:href="#mcd4c7bfc5e" y="307.584"/>
      </g>
     </g>
     <g id="text_4">
      <!-- 150 -->
      <g transform="translate(323.381932 339.800562)scale(0.22 -0.22)">
       <use xlink:href="#DejaVuSans-49"/>
       <use x="63.623047" xlink:href="#DejaVuSans-53"/>
       <use x="127.246094" xlink:href="#DejaVuSans-48"/>
      </g>
     </g>
    </g>
    <g id="text_5">
     <!-- Degrees -->
     <defs>
      <path d="M 19.671875 64.796875 
L 19.671875 8.109375 
L 31.59375 8.109375 
Q 46.6875 8.109375 53.6875 14.9375 
Q 60.6875 21.78125 60.6875 36.53125 
Q 60.6875 51.171875 53.6875 57.984375 
Q 46.6875 64.796875 31.59375 64.796875 
z
M 9.8125 72.90625 
L 30.078125 72.90625 
Q 51.265625 72.90625 61.171875 64.09375 
Q 71.09375 55.28125 71.09375 36.53125 
Q 71.09375 17.671875 61.125 8.828125 
Q 51.171875 0 30.078125 0 
L 9.8125 0 
z
" id="DejaVuSans-68"/>
      <path d="M 56.203125 29.59375 
L 56.203125 25.203125 
L 14.890625 25.203125 
Q 15.484375 15.921875 20.484375 11.0625 
Q 25.484375 6.203125 34.421875 6.203125 
Q 39.59375 6.203125 44.453125 7.46875 
Q 49.3125 8.734375 54.109375 11.28125 
L 54.109375 2.78125 
Q 49.265625 0.734375 44.1875 -0.34375 
Q 39.109375 -1.421875 33.890625 -1.421875 
Q 20.796875 -1.421875 13.15625 6.1875 
Q 5.515625 13.8125 5.515625 26.8125 
Q 5.515625 40.234375 12.765625 48.109375 
Q 20.015625 56 32.328125 56 
Q 43.359375 56 49.78125 48.890625 
Q 56.203125 41.796875 56.203125 29.59375 
z
M 47.21875 32.234375 
Q 47.125 39.59375 43.09375 43.984375 
Q 39.0625 48.390625 32.421875 48.390625 
Q 24.90625 48.390625 20.390625 44.140625 
Q 15.875 39.890625 15.1875 32.171875 
z
" id="DejaVuSans-101"/>
      <path d="M 45.40625 27.984375 
Q 45.40625 37.75 41.375 43.109375 
Q 37.359375 48.484375 30.078125 48.484375 
Q 22.859375 48.484375 18.828125 43.109375 
Q 14.796875 37.75 14.796875 27.984375 
Q 14.796875 18.265625 18.828125 12.890625 
Q 22.859375 7.515625 30.078125 7.515625 
Q 37.359375 7.515625 41.375 12.890625 
Q 45.40625 18.265625 45.40625 27.984375 
z
M 54.390625 6.78125 
Q 54.390625 -7.171875 48.1875 -13.984375 
Q 42 -20.796875 29.203125 -20.796875 
Q 24.46875 -20.796875 20.265625 -20.09375 
Q 16.0625 -19.390625 12.109375 -17.921875 
L 12.109375 -9.1875 
Q 16.0625 -11.328125 19.921875 -12.34375 
Q 23.78125 -13.375 27.78125 -13.375 
Q 36.625 -13.375 41.015625 -8.765625 
Q 45.40625 -4.15625 45.40625 5.171875 
L 45.40625 9.625 
Q 42.625 4.78125 38.28125 2.390625 
Q 33.9375 0 27.875 0 
Q 17.828125 0 11.671875 7.65625 
Q 5.515625 15.328125 5.515625 27.984375 
Q 5.515625 40.671875 11.671875 48.328125 
Q 17.828125 56 27.875 56 
Q 33.9375 56 38.28125 53.609375 
Q 42.625 51.21875 45.40625 46.390625 
L 45.40625 54.6875 
L 54.390625 54.6875 
z
" id="DejaVuSans-103"/>
      <path d="M 41.109375 46.296875 
Q 39.59375 47.171875 37.8125 47.578125 
Q 36.03125 48 33.890625 48 
Q 26.265625 48 22.1875 43.046875 
Q 18.109375 38.09375 18.109375 28.8125 
L 18.109375 0 
L 9.078125 0 
L 9.078125 54.6875 
L 18.109375 54.6875 
L 18.109375 46.1875 
Q 20.953125 51.171875 25.484375 53.578125 
Q 30.03125 56 36.53125 56 
Q 37.453125 56 38.578125 55.875 
Q 39.703125 55.765625 41.0625 55.515625 
z
" id="DejaVuSans-114"/>
      <path d="M 44.28125 53.078125 
L 44.28125 44.578125 
Q 40.484375 46.53125 36.375 47.5 
Q 32.28125 48.484375 27.875 48.484375 
Q 21.1875 48.484375 17.84375 46.4375 
Q 14.5 44.390625 14.5 40.28125 
Q 14.5 37.15625 16.890625 35.375 
Q 19.28125 33.59375 26.515625 31.984375 
L 29.59375 31.296875 
Q 39.15625 29.25 43.1875 25.515625 
Q 47.21875 21.78125 47.21875 15.09375 
Q 47.21875 7.46875 41.1875 3.015625 
Q 35.15625 -1.421875 24.609375 -1.421875 
Q 20.21875 -1.421875 15.453125 -0.5625 
Q 10.6875 0.296875 5.421875 2 
L 5.421875 11.28125 
Q 10.40625 8.6875 15.234375 7.390625 
Q 20.0625 6.109375 24.8125 6.109375 
Q 31.15625 6.109375 34.5625 8.28125 
Q 37.984375 10.453125 37.984375 14.40625 
Q 37.984375 18.0625 35.515625 20.015625 
Q 33.0625 21.96875 24.703125 23.78125 
L 21.578125 24.515625 
Q 13.234375 26.265625 9.515625 29.90625 
Q 5.8125 33.546875 5.8125 39.890625 
Q 5.8125 47.609375 11.28125 51.796875 
Q 16.75 56 26.8125 56 
Q 31.78125 56 36.171875 55.265625 
Q 40.578125 54.546875 44.28125 53.078125 
z
" id="DejaVuSans-115"/>
     </defs>
     <g transform="translate(185.97 366.612125)scale(0.24 -0.24)">
      <use xlink:href="#DejaVuSans-68"/>
      <use x="77.001953" xlink:href="#DejaVuSans-101"/>
      <use x="138.525391" xlink:href="#DejaVuSans-103"/>
      <use x="202.001953" xlink:href="#DejaVuSans-114"/>
      <use x="243.083984" xlink:href="#DejaVuSans-101"/>
      <use x="304.607422" xlink:href="#DejaVuSans-101"/>
      <use x="366.130859" xlink:href="#DejaVuSans-115"/>
     </g>
    </g>
   </g>
   <g id="matplotlib.axis_2">
    <g id="ytick_1">
     <g id="line2d_5">
      <defs>
       <path d="M 0 0 
L -12 0 
" id="m307001a8b9" style="stroke:#000000;stroke-width:2.5;"/>
      </defs>
      <g>
       <use style="stroke:#000000;stroke-width:2.5;" x="57.6" xlink:href="#m307001a8b9" y="285.408"/>
      </g>
     </g>
     <g id="text_6">
      <!-- 0 -->
      <g transform="translate(28.1025 293.766281)scale(0.22 -0.22)">
       <use xlink:href="#DejaVuSans-48"/>
      </g>
     </g>
    </g>
    <g id="ytick_2">
     <g id="line2d_6">
      <g>
       <use style="stroke:#000000;stroke-width:2.5;" x="57.6" xlink:href="#m307001a8b9" y="219.953722"/>
      </g>
     </g>
     <g id="text_7">
      <!-- 2 -->
      <defs>
       <path d="M 19.1875 8.296875 
L 53.609375 8.296875 
L 53.609375 0 
L 7.328125 0 
L 7.328125 8.296875 
Q 12.9375 14.109375 22.625 23.890625 
Q 32.328125 33.6875 34.8125 36.53125 
Q 39.546875 41.84375 41.421875 45.53125 
Q 43.3125 49.21875 43.3125 52.78125 
Q 43.3125 58.59375 39.234375 62.25 
Q 35.15625 65.921875 28.609375 65.921875 
Q 23.96875 65.921875 18.8125 64.3125 
Q 13.671875 62.703125 7.8125 59.421875 
L 7.8125 69.390625 
Q 13.765625 71.78125 18.9375 73 
Q 24.125 74.21875 28.421875 74.21875 
Q 39.75 74.21875 46.484375 68.546875 
Q 53.21875 62.890625 53.21875 53.421875 
Q 53.21875 48.921875 51.53125 44.890625 
Q 49.859375 40.875 45.40625 35.40625 
Q 44.1875 33.984375 37.640625 27.21875 
Q 31.109375 20.453125 19.1875 8.296875 
z
" id="DejaVuSans-50"/>
      </defs>
      <g transform="translate(28.1025 228.312003)scale(0.22 -0.22)">
       <use xlink:href="#DejaVuSans-50"/>
      </g>
     </g>
    </g>
    <g id="ytick_3">
     <g id="line2d_7">
      <g>
       <use style="stroke:#000000;stroke-width:2.5;" x="57.6" xlink:href="#m307001a8b9" y="154.499444"/>
      </g>
     </g>
     <g id="text_8">
      <!-- 4 -->
      <defs>
       <path d="M 37.796875 64.3125 
L 12.890625 25.390625 
L 37.796875 25.390625 
z
M 35.203125 72.90625 
L 47.609375 72.90625 
L 47.609375 25.390625 
L 58.015625 25.390625 
L 58.015625 17.1875 
L 47.609375 17.1875 
L 47.609375 0 
L 37.796875 0 
L 37.796875 17.1875 
L 4.890625 17.1875 
L 4.890625 26.703125 
z
" id="DejaVuSans-52"/>
      </defs>
      <g transform="translate(28.1025 162.857725)scale(0.22 -0.22)">
       <use xlink:href="#DejaVuSans-52"/>
      </g>
     </g>
    </g>
    <g id="ytick_4">
     <g id="line2d_8">
      <g>
       <use style="stroke:#000000;stroke-width:2.5;" x="57.6" xlink:href="#m307001a8b9" y="89.045166"/>
      </g>
     </g>
     <g id="text_9">
      <!-- 6 -->
      <defs>
       <path d="M 33.015625 40.375 
Q 26.375 40.375 22.484375 35.828125 
Q 18.609375 31.296875 18.609375 23.390625 
Q 18.609375 15.53125 22.484375 10.953125 
Q 26.375 6.390625 33.015625 6.390625 
Q 39.65625 6.390625 43.53125 10.953125 
Q 47.40625 15.53125 47.40625 23.390625 
Q 47.40625 31.296875 43.53125 35.828125 
Q 39.65625 40.375 33.015625 40.375 
z
M 52.59375 71.296875 
L 52.59375 62.3125 
Q 48.875 64.0625 45.09375 64.984375 
Q 41.3125 65.921875 37.59375 65.921875 
Q 27.828125 65.921875 22.671875 59.328125 
Q 17.53125 52.734375 16.796875 39.40625 
Q 19.671875 43.65625 24.015625 45.921875 
Q 28.375 48.1875 33.59375 48.1875 
Q 44.578125 48.1875 50.953125 41.515625 
Q 57.328125 34.859375 57.328125 23.390625 
Q 57.328125 12.15625 50.6875 5.359375 
Q 44.046875 -1.421875 33.015625 -1.421875 
Q 20.359375 -1.421875 13.671875 8.265625 
Q 6.984375 17.96875 6.984375 36.375 
Q 6.984375 53.65625 15.1875 63.9375 
Q 23.390625 74.21875 37.203125 74.21875 
Q 40.921875 74.21875 44.703125 73.484375 
Q 48.484375 72.75 52.59375 71.296875 
z
" id="DejaVuSans-54"/>
      </defs>
      <g transform="translate(28.1025 97.403447)scale(0.22 -0.22)">
       <use xlink:href="#DejaVuSans-54"/>
      </g>
     </g>
    </g>
    <g id="text_10">
     <!-- Activation -->
     <defs>
      <path d="M 34.1875 63.1875 
L 20.796875 26.90625 
L 47.609375 26.90625 
z
M 28.609375 72.90625 
L 39.796875 72.90625 
L 67.578125 0 
L 57.328125 0 
L 50.6875 18.703125 
L 17.828125 18.703125 
L 11.1875 0 
L 0.78125 0 
z
" id="DejaVuSans-65"/>
      <path d="M 48.78125 52.59375 
L 48.78125 44.1875 
Q 44.96875 46.296875 41.140625 47.34375 
Q 37.3125 48.390625 33.40625 48.390625 
Q 24.65625 48.390625 19.8125 42.84375 
Q 14.984375 37.3125 14.984375 27.296875 
Q 14.984375 17.28125 19.8125 11.734375 
Q 24.65625 6.203125 33.40625 6.203125 
Q 37.3125 6.203125 41.140625 7.25 
Q 44.96875 8.296875 48.78125 10.40625 
L 48.78125 2.09375 
Q 45.015625 0.34375 40.984375 -0.53125 
Q 36.96875 -1.421875 32.421875 -1.421875 
Q 20.0625 -1.421875 12.78125 6.34375 
Q 5.515625 14.109375 5.515625 27.296875 
Q 5.515625 40.671875 12.859375 48.328125 
Q 20.21875 56 33.015625 56 
Q 37.15625 56 41.109375 55.140625 
Q 45.0625 54.296875 48.78125 52.59375 
z
" id="DejaVuSans-99"/>
      <path d="M 18.3125 70.21875 
L 18.3125 54.6875 
L 36.8125 54.6875 
L 36.8125 47.703125 
L 18.3125 47.703125 
L 18.3125 18.015625 
Q 18.3125 11.328125 20.140625 9.421875 
Q 21.96875 7.515625 27.59375 7.515625 
L 36.8125 7.515625 
L 36.8125 0 
L 27.59375 0 
Q 17.1875 0 13.234375 3.875 
Q 9.28125 7.765625 9.28125 18.015625 
L 9.28125 47.703125 
L 2.6875 47.703125 
L 2.6875 54.6875 
L 9.28125 54.6875 
L 9.28125 70.21875 
z
" id="DejaVuSans-116"/>
      <path d="M 9.421875 54.6875 
L 18.40625 54.6875 
L 18.40625 0 
L 9.421875 0 
z
M 9.421875 75.984375 
L 18.40625 75.984375 
L 18.40625 64.59375 
L 9.421875 64.59375 
z
" id="DejaVuSans-105"/>
      <path d="M 2.984375 54.6875 
L 12.5 54.6875 
L 29.59375 8.796875 
L 46.6875 54.6875 
L 56.203125 54.6875 
L 35.6875 0 
L 23.484375 0 
z
" id="DejaVuSans-118"/>
      <path d="M 34.28125 27.484375 
Q 23.390625 27.484375 19.1875 25 
Q 14.984375 22.515625 14.984375 16.5 
Q 14.984375 11.71875 18.140625 8.90625 
Q 21.296875 6.109375 26.703125 6.109375 
Q 34.1875 6.109375 38.703125 11.40625 
Q 43.21875 16.703125 43.21875 25.484375 
L 43.21875 27.484375 
z
M 52.203125 31.203125 
L 52.203125 0 
L 43.21875 0 
L 43.21875 8.296875 
Q 40.140625 3.328125 35.546875 0.953125 
Q 30.953125 -1.421875 24.3125 -1.421875 
Q 15.921875 -1.421875 10.953125 3.296875 
Q 6 8.015625 6 15.921875 
Q 6 25.140625 12.171875 29.828125 
Q 18.359375 34.515625 30.609375 34.515625 
L 43.21875 34.515625 
L 43.21875 35.40625 
Q 43.21875 41.609375 39.140625 45 
Q 35.0625 48.390625 27.6875 48.390625 
Q 23 48.390625 18.546875 47.265625 
Q 14.109375 46.140625 10.015625 43.890625 
L 10.015625 52.203125 
Q 14.9375 54.109375 19.578125 55.046875 
Q 24.21875 56 28.609375 56 
Q 40.484375 56 46.34375 49.84375 
Q 52.203125 43.703125 52.203125 31.203125 
z
" id="DejaVuSans-97"/>
      <path d="M 30.609375 48.390625 
Q 23.390625 48.390625 19.1875 42.75 
Q 14.984375 37.109375 14.984375 27.296875 
Q 14.984375 17.484375 19.15625 11.84375 
Q 23.34375 6.203125 30.609375 6.203125 
Q 37.796875 6.203125 41.984375 11.859375 
Q 46.1875 17.53125 46.1875 27.296875 
Q 46.1875 37.015625 41.984375 42.703125 
Q 37.796875 48.390625 30.609375 48.390625 
z
M 30.609375 56 
Q 42.328125 56 49.015625 48.375 
Q 55.71875 40.765625 55.71875 27.296875 
Q 55.71875 13.875 49.015625 6.21875 
Q 42.328125 -1.421875 30.609375 -1.421875 
Q 18.84375 -1.421875 12.171875 6.21875 
Q 5.515625 13.875 5.515625 27.296875 
Q 5.515625 40.765625 12.171875 48.375 
Q 18.84375 56 30.609375 56 
z
" id="DejaVuSans-111"/>
      <path d="M 54.890625 33.015625 
L 54.890625 0 
L 45.90625 0 
L 45.90625 32.71875 
Q 45.90625 40.484375 42.875 44.328125 
Q 39.84375 48.1875 33.796875 48.1875 
Q 26.515625 48.1875 22.3125 43.546875 
Q 18.109375 38.921875 18.109375 30.90625 
L 18.109375 0 
L 9.078125 0 
L 9.078125 54.6875 
L 18.109375 54.6875 
L 18.109375 46.1875 
Q 21.34375 51.125 25.703125 53.5625 
Q 30.078125 56 35.796875 56 
Q 45.21875 56 50.046875 50.171875 
Q 54.890625 44.34375 54.890625 33.015625 
z
" id="DejaVuSans-110"/>
     </defs>
     <g transform="translate(19.11125 234.813)rotate(-90)scale(0.24 -0.24)">
      <use xlink:href="#DejaVuSans-65"/>
      <use x="68.392578" xlink:href="#DejaVuSans-99"/>
      <use x="123.373047" xlink:href="#DejaVuSans-116"/>
      <use x="162.582031" xlink:href="#DejaVuSans-105"/>
      <use x="190.365234" xlink:href="#DejaVuSans-118"/>
      <use x="249.544922" xlink:href="#DejaVuSans-97"/>
      <use x="310.824219" xlink:href="#DejaVuSans-116"/>
      <use x="350.033203" xlink:href="#DejaVuSans-105"/>
      <use x="377.816406" xlink:href="#DejaVuSans-111"/>
      <use x="438.998047" xlink:href="#DejaVuSans-110"/>
     </g>
    </g>
   </g>
   <g id="line2d_9">
    <path clip-path="url(#p1e2050a51b)" d="M 73.832727 277.080041 
L 90.065455 262.900359 
L 106.298182 257.98444 
L 122.530909 251.635678 
L 138.763636 244.209016 
L 154.996364 243.160103 
L 171.229091 244.687353 
L 187.461818 233.604144 
L 203.694545 229.920278 
L 219.927273 230.600347 
L 236.16 235.477531 
L 252.392727 235.3183 
L 268.625455 236.077302 
L 284.858182 254.432087 
L 301.090909 251.551782 
L 317.323636 265.813248 
L 333.556364 269.423309 
L 349.789091 273.185412 
L 366.021818 271.090823 
L 382.254545 273.735175 
L 398.487273 277.080041 
" style="fill:none;stroke:#0e4db3;stroke-linecap:square;stroke-width:3;"/>
   </g>
   <g id="line2d_10">
    <path clip-path="url(#p1e2050a51b)" d="M 73.832727 278.781625 
L 90.065455 267.168784 
L 106.298182 262.806625 
L 122.530909 258.113153 
L 138.763636 252.379362 
L 154.996364 251.761509 
L 171.229091 252.458822 
L 187.461818 242.62929 
L 203.694545 240.801642 
L 219.927273 240.280379 
L 236.16 242.791088 
L 252.392727 244.39624 
L 268.625455 244.738367 
L 284.858182 260.591822 
L 301.090909 257.734118 
L 317.323636 269.248999 
L 333.556364 272.020761 
L 349.789091 274.533903 
L 366.021818 273.458956 
L 382.254545 275.437301 
L 398.487273 278.781625 
" style="fill:none;stroke:#d44e4e;stroke-linecap:square;stroke-width:3;"/>
   </g>
   <g id="line2d_11">
    <path clip-path="url(#p1e2050a51b)" d="M 73.832727 228.795421 
L 90.065455 228.365204 
L 106.298182 232.181323 
L 122.530909 239.516297 
L 138.763636 240.822822 
L 154.996364 242.424526 
L 171.229091 242.322614 
L 187.461818 234.068326 
L 203.694545 231.334025 
L 219.927273 241.085721 
L 236.16 241.079237 
L 252.392727 239.619075 
L 268.625455 231.503013 
L 284.858182 237.369306 
L 301.090909 230.030726 
L 317.323636 232.584468 
L 333.556364 232.298539 
L 349.789091 222.855482 
L 366.021818 225.53814 
L 382.254545 222.999396 
L 398.487273 228.795421 
" style="fill:none;stroke:#0e4db3;stroke-linecap:square;stroke-width:3;"/>
   </g>
   <g id="line2d_12">
    <path clip-path="url(#p1e2050a51b)" d="M 73.832727 240.594935 
L 90.065455 235.451162 
L 106.298182 241.821622 
L 122.530909 248.970076 
L 138.763636 249.830155 
L 154.996364 251.26008 
L 171.229091 251.258286 
L 187.461818 244.887654 
L 203.694545 242.951754 
L 219.927273 250.413785 
L 236.16 250.387178 
L 252.392727 248.584339 
L 268.625455 242.636152 
L 284.858182 246.362648 
L 301.090909 241.66616 
L 317.323636 243.604139 
L 333.556364 243.292138 
L 349.789091 235.982233 
L 366.021818 237.328326 
L 382.254545 235.949906 
L 398.487273 240.594935 
" style="fill:none;stroke:#d44e4e;stroke-linecap:square;stroke-width:3;"/>
   </g>
   <g id="line2d_13">
    <path clip-path="url(#p1e2050a51b)" d="M 73.832727 228.024618 
L 90.065455 225.252579 
L 106.298182 225.230606 
L 122.530909 225.245822 
L 138.763636 219.178861 
L 154.996364 219.47926 
L 171.229091 218.936671 
L 187.461818 223.001717 
L 203.694545 218.086249 
L 219.927273 220.304429 
L 236.16 224.030749 
L 252.392727 224.095297 
L 268.625455 224.764462 
L 284.858182 228.81982 
L 301.090909 229.563493 
L 317.323636 229.885201 
L 333.556364 229.735532 
L 349.789091 230.206659 
L 366.021818 228.915119 
L 382.254545 228.234075 
L 398.487273 228.024618 
" style="fill:none;stroke:#0e4db3;stroke-linecap:square;stroke-width:3;"/>
   </g>
   <g id="line2d_14">
    <path clip-path="url(#p1e2050a51b)" d="M 73.832727 238.068027 
L 90.065455 236.072109 
L 106.298182 235.904842 
L 122.530909 235.723459 
L 138.763636 231.951059 
L 154.996364 231.888879 
L 171.229091 230.992596 
L 187.461818 234.072403 
L 203.694545 229.680687 
L 219.927273 231.792031 
L 236.16 234.827429 
L 252.392727 234.757185 
L 268.625455 235.363697 
L 284.858182 237.526372 
L 301.090909 238.073977 
L 317.323636 238.81463 
L 333.556364 239.190482 
L 349.789091 239.547099 
L 366.021818 238.486833 
L 382.254545 238.072038 
L 398.487273 238.068027 
" style="fill:none;stroke:#d44e4e;stroke-linecap:square;stroke-width:3;"/>
   </g>
   <g id="line2d_15">
    <path clip-path="url(#p1e2050a51b)" d="M 73.832727 220.453407 
L 90.065455 220.376159 
L 106.298182 220.631169 
L 122.530909 226.718873 
L 138.763636 227.340129 
L 154.996364 228.893619 
L 171.229091 227.536216 
L 187.461818 225.910827 
L 203.694545 221.623898 
L 219.927273 223.138624 
L 236.16 222.52699 
L 252.392727 219.802637 
L 268.625455 218.845371 
L 284.858182 218.897946 
L 301.090909 215.874198 
L 317.323636 215.405377 
L 333.556364 208.161999 
L 349.789091 214.81978 
L 366.021818 214.466159 
L 382.254545 217.6524 
L 398.487273 220.453407 
" style="fill:none;stroke:#0e4db3;stroke-linecap:square;stroke-width:3;"/>
   </g>
   <g id="line2d_16">
    <path clip-path="url(#p1e2050a51b)" d="M 73.832727 234.135644 
L 90.065455 234.133108 
L 106.298182 234.308467 
L 122.530909 238.841948 
L 138.763636 239.138429 
L 154.996364 239.888672 
L 171.229091 239.402287 
L 187.461818 237.338388 
L 203.694545 235.252305 
L 219.927273 236.067927 
L 236.16 236.187364 
L 252.392727 233.218251 
L 268.625455 231.878431 
L 284.858182 231.505007 
L 301.090909 229.822533 
L 317.323636 229.821339 
L 333.556364 225.007291 
L 349.789091 229.435497 
L 366.021818 228.900212 
L 382.254545 231.706154 
L 398.487273 234.135644 
" style="fill:none;stroke:#d44e4e;stroke-linecap:square;stroke-width:3;"/>
   </g>
   <g id="line2d_17">
    <path clip-path="url(#p1e2050a51b)" d="M 73.832727 264.568168 
L 90.065455 264.24956 
L 106.298182 264.536014 
L 122.530909 263.842862 
L 138.763636 255.831771 
L 154.996364 254.793446 
L 171.229091 248.31965 
L 187.461818 250.313953 
L 203.694545 240.502363 
L 219.927273 232.792563 
L 236.16 232.914076 
L 252.392727 224.673587 
L 268.625455 217.412941 
L 284.858182 221.290658 
L 301.090909 211.241303 
L 317.323636 217.081105 
L 333.556364 218.737428 
L 349.789091 245.701551 
L 366.021818 248.193885 
L 382.254545 247.918572 
L 398.487273 264.568168 
" style="fill:none;stroke:#0e4db3;stroke-linecap:square;stroke-width:3;"/>
   </g>
   <g id="line2d_18">
    <path clip-path="url(#p1e2050a51b)" d="M 73.832727 266.353919 
L 90.065455 265.888324 
L 106.298182 266.139659 
L 122.530909 265.837249 
L 138.763636 259.563652 
L 154.996364 258.77778 
L 171.229091 253.110262 
L 187.461818 254.637367 
L 203.694545 246.938944 
L 219.927273 241.302048 
L 236.16 241.31763 
L 252.392727 234.434287 
L 268.625455 228.685589 
L 284.858182 232.436492 
L 301.090909 224.129426 
L 317.323636 228.238928 
L 333.556364 229.847994 
L 349.789091 250.921854 
L 366.021818 253.003468 
L 382.254545 252.982742 
L 398.487273 266.353919 
" style="fill:none;stroke:#d44e4e;stroke-linecap:square;stroke-width:3;"/>
   </g>
   <g id="line2d_19">
    <path clip-path="url(#p1e2050a51b)" d="M 73.832727 285.408 
L 90.065455 285.408 
L 106.298182 285.408 
L 122.530909 285.408 
L 138.763636 285.408 
L 154.996364 285.408 
L 171.229091 285.408 
L 187.461818 285.408 
L 203.694545 285.408 
L 219.927273 285.408 
L 236.16 285.408 
L 252.392727 285.408 
L 268.625455 285.408 
L 284.858182 285.408 
L 301.090909 285.408 
L 317.323636 285.408 
L 333.556364 285.408 
L 349.789091 285.408 
L 366.021818 285.408 
L 382.254545 285.408 
L 398.487273 285.408 
" style="fill:none;stroke:#0e4db3;stroke-linecap:square;stroke-width:3;"/>
   </g>
   <g id="line2d_20">
    <path clip-path="url(#p1e2050a51b)" d="M 73.832727 285.408 
L 90.065455 285.408 
L 106.298182 285.408 
L 122.530909 285.408 
L 138.763636 285.408 
L 154.996364 285.408 
L 171.229091 285.408 
L 187.461818 285.408 
L 203.694545 285.408 
L 219.927273 285.408 
L 236.16 285.408 
L 252.392727 285.408 
L 268.625455 285.408 
L 284.858182 285.408 
L 301.090909 285.408 
L 317.323636 285.408 
L 333.556364 285.408 
L 349.789091 285.408 
L 366.021818 285.408 
L 382.254545 285.408 
L 398.487273 285.408 
" style="fill:none;stroke:#d44e4e;stroke-linecap:square;stroke-width:3;"/>
   </g>
   <g id="line2d_21">
    <path clip-path="url(#p1e2050a51b)" d="M 73.832727 285.408 
L 90.065455 285.11544 
L 106.298182 285.291457 
L 122.530909 285.184416 
L 138.763636 285.309925 
L 154.996364 285.408 
L 171.229091 285.408 
L 187.461818 285.408 
L 203.694545 285.408 
L 219.927273 285.408 
L 236.16 285.408 
L 252.392727 285.408 
L 268.625455 284.727659 
L 284.858182 285.408 
L 301.090909 285.408 
L 317.323636 285.408 
L 333.556364 285.408 
L 349.789091 285.408 
L 366.021818 285.408 
L 382.254545 285.408 
L 398.487273 285.408 
" style="fill:none;stroke:#0e4db3;stroke-linecap:square;stroke-width:3;"/>
   </g>
   <g id="line2d_22">
    <path clip-path="url(#p1e2050a51b)" d="M 73.832727 285.408 
L 90.065455 285.408 
L 106.298182 285.408 
L 122.530909 285.408 
L 138.763636 285.408 
L 154.996364 285.408 
L 171.229091 285.408 
L 187.461818 285.408 
L 203.694545 285.408 
L 219.927273 285.408 
L 236.16 285.408 
L 252.392727 285.408 
L 268.625455 285.408 
L 284.858182 285.408 
L 301.090909 285.408 
L 317.323636 285.408 
L 333.556364 285.408 
L 349.789091 285.408 
L 366.021818 285.408 
L 382.254545 285.408 
L 398.487273 285.408 
" style="fill:none;stroke:#d44e4e;stroke-linecap:square;stroke-width:3;"/>
   </g>
   <g id="line2d_23">
    <path clip-path="url(#p1e2050a51b)" d="M 73.832727 268.603641 
L 90.065455 263.303017 
L 106.298182 255.536639 
L 122.530909 254.788655 
L 138.763636 246.762918 
L 154.996364 245.134689 
L 171.229091 239.752042 
L 187.461818 240.425775 
L 203.694545 232.6854 
L 219.927273 233.079174 
L 236.16 251.453616 
L 252.392727 234.010535 
L 268.625455 242.641142 
L 284.858182 253.330913 
L 301.090909 251.237877 
L 317.323636 258.764664 
L 333.556364 259.693363 
L 349.789091 261.21921 
L 366.021818 261.735767 
L 382.254545 266.799046 
L 398.487273 268.603641 
" style="fill:none;stroke:#0e4db3;stroke-linecap:square;stroke-width:3;"/>
   </g>
   <g id="line2d_24">
    <path clip-path="url(#p1e2050a51b)" d="M 73.832727 268.925232 
L 90.065455 264.86911 
L 106.298182 258.576793 
L 122.530909 257.333306 
L 138.763636 251.359659 
L 154.996364 250.273808 
L 171.229091 245.854817 
L 187.461818 246.042473 
L 203.694545 240.241252 
L 219.927273 240.267403 
L 236.16 255.084477 
L 252.392727 241.126599 
L 268.625455 247.95095 
L 284.858182 256.940919 
L 301.090909 254.876103 
L 317.323636 260.874211 
L 333.556364 261.533476 
L 349.789091 262.149094 
L 366.021818 262.743483 
L 382.254545 267.161102 
L 398.487273 268.925232 
" style="fill:none;stroke:#d44e4e;stroke-linecap:square;stroke-width:3;"/>
   </g>
   <g id="line2d_25">
    <path clip-path="url(#p1e2050a51b)" d="M 73.832727 250.717804 
L 90.065455 248.315936 
L 106.298182 244.702599 
L 122.530909 243.242785 
L 138.763636 245.023 
L 154.996364 245.120363 
L 171.229091 245.292585 
L 187.461818 249.059429 
L 203.694545 248.473587 
L 219.927273 250.369313 
L 236.16 252.036291 
L 252.392727 249.996517 
L 268.625455 249.562645 
L 284.858182 249.606715 
L 301.090909 249.689385 
L 317.323636 250.016492 
L 333.556364 242.416286 
L 349.789091 246.609605 
L 366.021818 245.299639 
L 382.254545 250.842426 
L 398.487273 250.717804 
" style="fill:none;stroke:#0e4db3;stroke-linecap:square;stroke-width:3;"/>
   </g>
   <g id="line2d_26">
    <path clip-path="url(#p1e2050a51b)" d="M 73.832727 258.12474 
L 90.065455 256.210571 
L 106.298182 253.419926 
L 122.530909 251.750421 
L 138.763636 254.357596 
L 154.996364 254.489525 
L 171.229091 254.432705 
L 187.461818 256.746172 
L 203.694545 255.560742 
L 219.927273 258.325946 
L 236.16 257.054127 
L 252.392727 257.261934 
L 268.625455 257.196266 
L 284.858182 257.647076 
L 301.090909 257.845261 
L 317.323636 257.776571 
L 333.556364 251.876225 
L 349.789091 253.163204 
L 366.021818 252.886175 
L 382.254545 258.125672 
L 398.487273 258.12474 
" style="fill:none;stroke:#d44e4e;stroke-linecap:square;stroke-width:3;"/>
   </g>
   <g id="line2d_27">
    <path clip-path="url(#p1e2050a51b)" d="M 73.832727 284.147441 
L 90.065455 270.855618 
L 106.298182 259.650277 
L 122.530909 260.365025 
L 138.763636 246.774524 
L 154.996364 245.751602 
L 171.229091 245.949422 
L 187.461818 247.170046 
L 203.694545 243.760877 
L 219.927273 243.754841 
L 236.16 248.616584 
L 252.392727 245.413396 
L 268.625455 249.573163 
L 284.858182 259.556792 
L 301.090909 255.538789 
L 317.323636 270.162991 
L 333.556364 270.394873 
L 349.789091 273.991686 
L 366.021818 281.027818 
L 382.254545 274.574758 
L 398.487273 284.147441 
" style="fill:none;stroke:#0e4db3;stroke-linecap:square;stroke-width:3;"/>
   </g>
   <g id="line2d_28">
    <path clip-path="url(#p1e2050a51b)" d="M 73.832727 285.08092 
L 90.065455 274.950843 
L 106.298182 265.920175 
L 122.530909 263.378815 
L 138.763636 256.100392 
L 154.996364 255.213098 
L 171.229091 255.243248 
L 187.461818 255.199068 
L 203.694545 252.846677 
L 219.927273 252.870792 
L 236.16 257.013426 
L 252.392727 254.085428 
L 268.625455 256.687659 
L 284.858182 266.058658 
L 301.090909 262.121472 
L 317.323636 273.323984 
L 333.556364 274.548848 
L 349.789091 277.750629 
L 366.021818 282.526753 
L 382.254545 277.765266 
L 398.487273 285.08092 
" style="fill:none;stroke:#d44e4e;stroke-linecap:square;stroke-width:3;"/>
   </g>
   <g id="line2d_29">
    <path clip-path="url(#p1e2050a51b)" d="M 73.832727 233.558595 
L 90.065455 233.246044 
L 106.298182 230.062019 
L 122.530909 235.12931 
L 138.763636 238.160049 
L 154.996364 248.865145 
L 171.229091 250.749635 
L 187.461818 249.022495 
L 203.694545 232.447502 
L 219.927273 221.101917 
L 236.16 221.982061 
L 252.392727 220.894668 
L 268.625455 232.389098 
L 284.858182 239.437985 
L 301.090909 229.84284 
L 317.323636 226.401816 
L 333.556364 225.522211 
L 349.789091 223.903938 
L 366.021818 219.886064 
L 382.254545 223.633752 
L 398.487273 233.558595 
" style="fill:none;stroke:#0e4db3;stroke-linecap:square;stroke-width:3;"/>
   </g>
   <g id="line2d_30">
    <path clip-path="url(#p1e2050a51b)" d="M 73.832727 240.952075 
L 90.065455 240.943543 
L 106.298182 238.368984 
L 122.530909 241.710882 
L 138.763636 245.130787 
L 154.996364 253.297283 
L 171.229091 254.717295 
L 187.461818 252.550204 
L 203.694545 239.445893 
L 219.927273 231.228961 
L 236.16 231.830058 
L 252.392727 230.988854 
L 268.625455 239.964894 
L 284.858182 245.650689 
L 301.090909 237.856791 
L 317.323636 235.227238 
L 333.556364 234.637658 
L 349.789091 233.405735 
L 366.021818 229.869143 
L 382.254545 233.059113 
L 398.487273 240.952075 
" style="fill:none;stroke:#d44e4e;stroke-linecap:square;stroke-width:3;"/>
   </g>
   <g id="line2d_31">
    <path clip-path="url(#p1e2050a51b)" d="M 73.832727 231.898398 
L 90.065455 231.551265 
L 106.298182 237.146077 
L 122.530909 238.70964 
L 138.763636 249.819184 
L 154.996364 257.433337 
L 171.229091 249.655896 
L 187.461818 239.679515 
L 203.694545 235.561126 
L 219.927273 246.016869 
L 236.16 244.7676 
L 252.392727 244.809985 
L 268.625455 250.7803 
L 284.858182 255.257874 
L 301.090909 248.059174 
L 317.323636 246.744012 
L 333.556364 239.901999 
L 349.789091 239.618857 
L 366.021818 235.683009 
L 382.254545 232.117098 
L 398.487273 231.898398 
" style="fill:none;stroke:#0e4db3;stroke-linecap:square;stroke-width:3;"/>
   </g>
   <g id="line2d_32">
    <path clip-path="url(#p1e2050a51b)" d="M 73.832727 240.318932 
L 90.065455 238.850816 
L 106.298182 244.565692 
L 122.530909 242.556326 
L 138.763636 254.559843 
L 154.996364 260.467298 
L 171.229091 254.025362 
L 187.461818 245.757981 
L 203.694545 242.581447 
L 219.927273 251.331382 
L 236.16 250.336362 
L 252.392727 250.149241 
L 268.625455 255.188351 
L 284.858182 258.354796 
L 301.090909 253.315311 
L 317.323636 251.491639 
L 333.556364 246.664123 
L 349.789091 245.483975 
L 366.021818 242.754481 
L 382.254545 238.828274 
L 398.487273 240.318932 
" style="fill:none;stroke:#d44e4e;stroke-linecap:square;stroke-width:3;"/>
   </g>
   <g id="line2d_33">
    <path clip-path="url(#p1e2050a51b)" d="M 73.832727 206.393379 
L 90.065455 206.280777 
L 106.298182 204.509505 
L 122.530909 205.577296 
L 138.763636 205.466911 
L 154.996364 205.523855 
L 171.229091 204.451967 
L 187.461818 205.251406 
L 203.694545 201.578211 
L 219.927273 203.219459 
L 236.16 203.537765 
L 252.392727 203.468882 
L 268.625455 204.797809 
L 284.858182 205.813814 
L 301.090909 204.944906 
L 317.323636 205.369993 
L 333.556364 205.068557 
L 349.789091 205.95928 
L 366.021818 204.676312 
L 382.254545 205.474222 
L 398.487273 206.393379 
" style="fill:none;stroke:#0e4db3;stroke-linecap:square;stroke-width:3;"/>
   </g>
   <g id="line2d_34">
    <path clip-path="url(#p1e2050a51b)" d="M 73.832727 219.099172 
L 90.065455 218.550302 
L 106.298182 217.404413 
L 122.530909 218.108643 
L 138.763636 218.091048 
L 154.996364 218.122789 
L 171.229091 217.291585 
L 187.461818 218.057628 
L 203.694545 215.04716 
L 219.927273 216.540889 
L 236.16 216.70392 
L 252.392727 216.66926 
L 268.625455 216.682057 
L 284.858182 217.972734 
L 301.090909 217.250948 
L 317.323636 217.814908 
L 333.556364 217.731855 
L 349.789091 218.511983 
L 366.021818 217.48745 
L 382.254545 218.273952 
L 398.487273 219.099172 
" style="fill:none;stroke:#d44e4e;stroke-linecap:square;stroke-width:3;"/>
   </g>
   <g id="line2d_35">
    <path clip-path="url(#p1e2050a51b)" d="M 73.832727 247.117908 
L 90.065455 240.132992 
L 106.298182 240.072369 
L 122.530909 244.32463 
L 138.763636 244.911803 
L 154.996364 243.247596 
L 171.229091 243.153967 
L 187.461818 242.915319 
L 203.694545 248.416197 
L 219.927273 248.269845 
L 236.16 249.541843 
L 252.392727 257.50351 
L 268.625455 266.006214 
L 284.858182 269.21567 
L 301.090909 269.303656 
L 317.323636 268.028742 
L 333.556364 266.644466 
L 349.789091 264.496125 
L 366.021818 255.672009 
L 382.254545 247.177876 
L 398.487273 247.117908 
" style="fill:none;stroke:#0e4db3;stroke-linecap:square;stroke-width:3;"/>
   </g>
   <g id="line2d_36">
    <path clip-path="url(#p1e2050a51b)" d="M 73.832727 252.52007 
L 90.065455 246.920502 
L 106.298182 247.140029 
L 122.530909 248.63009 
L 138.763636 250.863134 
L 154.996364 249.410444 
L 171.229091 249.239213 
L 187.461818 248.880391 
L 203.694545 253.295075 
L 219.927273 253.304307 
L 236.16 254.465399 
L 252.392727 260.759952 
L 268.625455 267.583107 
L 284.858182 269.946067 
L 301.090909 269.98159 
L 317.323636 268.886033 
L 333.556364 267.911907 
L 349.789091 266.080842 
L 366.021818 258.882183 
L 382.254545 251.932846 
L 398.487273 252.52007 
" style="fill:none;stroke:#d44e4e;stroke-linecap:square;stroke-width:3;"/>
   </g>
   <g id="line2d_37">
    <path clip-path="url(#p1e2050a51b)" d="M 73.832727 183.362907 
L 90.065455 183.348846 
L 106.298182 183.155073 
L 122.530909 185.417732 
L 138.763636 184.728881 
L 154.996364 185.096664 
L 171.229091 185.245619 
L 187.461818 185.960336 
L 203.694545 183.516746 
L 219.927273 185.049286 
L 236.16 185.138705 
L 252.392727 184.729232 
L 268.625455 184.877984 
L 284.858182 187.585322 
L 301.090909 185.436677 
L 317.323636 185.316733 
L 333.556364 184.715889 
L 349.789091 184.775214 
L 366.021818 183.209325 
L 382.254545 183.346958 
L 398.487273 183.362907 
" style="fill:none;stroke:#0e4db3;stroke-linecap:square;stroke-width:3;"/>
   </g>
   <g id="line2d_38">
    <path clip-path="url(#p1e2050a51b)" d="M 73.832727 202.446416 
L 90.065455 202.44399 
L 106.298182 202.236803 
L 122.530909 203.841557 
L 138.763636 203.038716 
L 154.996364 203.755415 
L 171.229091 203.548813 
L 187.461818 204.599158 
L 203.694545 202.347454 
L 219.927273 203.889295 
L 236.16 204.052903 
L 252.392727 203.523205 
L 268.625455 202.659595 
L 284.858182 204.089732 
L 301.090909 203.3441 
L 317.323636 203.346925 
L 333.556364 203.09875 
L 349.789091 203.377824 
L 366.021818 202.033229 
L 382.254545 202.325497 
L 398.487273 202.446416 
" style="fill:none;stroke:#d44e4e;stroke-linecap:square;stroke-width:3;"/>
   </g>
   <g id="line2d_39">
    <path clip-path="url(#p1e2050a51b)" d="M 73.832727 285.408 
L 90.065455 285.408 
L 106.298182 285.408 
L 122.530909 285.408 
L 138.763636 285.408 
L 154.996364 285.408 
L 171.229091 285.408 
L 187.461818 285.408 
L 203.694545 285.408 
L 219.927273 285.408 
L 236.16 285.408 
L 252.392727 285.408 
L 268.625455 283.924924 
L 284.858182 284.983673 
L 301.090909 285.408 
L 317.323636 285.408 
L 333.556364 285.408 
L 349.789091 285.408 
L 366.021818 285.408 
L 382.254545 285.408 
L 398.487273 285.408 
" style="fill:none;stroke:#0e4db3;stroke-linecap:square;stroke-width:3;"/>
   </g>
   <g id="line2d_40">
    <path clip-path="url(#p1e2050a51b)" d="M 73.832727 285.408 
L 90.065455 285.408 
L 106.298182 285.408 
L 122.530909 285.408 
L 138.763636 285.408 
L 154.996364 285.408 
L 171.229091 285.408 
L 187.461818 285.408 
L 203.694545 285.408 
L 219.927273 285.408 
L 236.16 285.408 
L 252.392727 285.408 
L 268.625455 285.408 
L 284.858182 285.408 
L 301.090909 285.408 
L 317.323636 285.408 
L 333.556364 285.408 
L 349.789091 285.408 
L 366.021818 285.408 
L 382.254545 285.408 
L 398.487273 285.408 
" style="fill:none;stroke:#d44e4e;stroke-linecap:square;stroke-width:3;"/>
   </g>
   <g id="line2d_41">
    <path clip-path="url(#p1e2050a51b)" d="M 73.832727 245.578541 
L 90.065455 216.378483 
L 106.298182 223.364276 
L 122.530909 231.26476 
L 138.763636 232.770392 
L 154.996364 253.743472 
L 171.229091 260.694723 
L 187.461818 260.534914 
L 203.694545 239.139682 
L 219.927273 219.532467 
L 236.16 220.630736 
L 252.392727 218.860384 
L 268.625455 229.942329 
L 284.858182 242.208865 
L 301.090909 230.571173 
L 317.323636 225.339825 
L 333.556364 224.152097 
L 349.789091 228.557581 
L 366.021818 212.666679 
L 382.254545 226.754387 
L 398.487273 245.578541 
" style="fill:none;stroke:#0e4db3;stroke-linecap:square;stroke-width:3;"/>
   </g>
   <g id="line2d_42">
    <path clip-path="url(#p1e2050a51b)" d="M 73.832727 254.030405 
L 90.065455 230.388725 
L 106.298182 234.71494 
L 122.530909 242.076991 
L 138.763636 244.086107 
L 154.996364 261.015018 
L 171.229091 266.585701 
L 187.461818 264.349702 
L 203.694545 247.55022 
L 219.927273 233.259976 
L 236.16 234.078259 
L 252.392727 232.656386 
L 268.625455 241.250351 
L 284.858182 251.17098 
L 301.090909 241.729199 
L 317.323636 237.58556 
L 333.556364 236.766278 
L 349.789091 239.287567 
L 366.021818 227.23682 
L 382.254545 238.508645 
L 398.487273 254.030405 
" style="fill:none;stroke:#d44e4e;stroke-linecap:square;stroke-width:3;"/>
   </g>
   <g id="line2d_43">
    <path clip-path="url(#p1e2050a51b)" d="M 73.832727 268.288704 
L 90.065455 254.667506 
L 106.298182 259.299074 
L 122.530909 258.92787 
L 138.763636 262.119335 
L 154.996364 263.663543 
L 171.229091 267.453023 
L 187.461818 271.238472 
L 203.694545 269.571456 
L 219.927273 262.559024 
L 236.16 263.115739 
L 252.392727 262.924575 
L 268.625455 265.305528 
L 284.858182 259.047237 
L 301.090909 264.078201 
L 317.323636 271.252034 
L 333.556364 271.311984 
L 349.789091 267.628971 
L 366.021818 265.086809 
L 382.254545 264.733219 
L 398.487273 268.288704 
" style="fill:none;stroke:#0e4db3;stroke-linecap:square;stroke-width:3;"/>
   </g>
   <g id="line2d_44">
    <path clip-path="url(#p1e2050a51b)" d="M 73.832727 272.637405 
L 90.065455 259.508298 
L 106.298182 263.32071 
L 122.530909 264.644763 
L 138.763636 267.554954 
L 154.996364 268.977697 
L 171.229091 271.497754 
L 187.461818 274.788517 
L 203.694545 273.086068 
L 219.927273 267.925492 
L 236.16 268.336584 
L 252.392727 268.187042 
L 268.625455 269.916673 
L 284.858182 264.917655 
L 301.090909 269.137396 
L 317.323636 274.466872 
L 333.556364 274.65961 
L 349.789091 271.744782 
L 366.021818 269.571795 
L 382.254545 269.433466 
L 398.487273 272.637405 
" style="fill:none;stroke:#d44e4e;stroke-linecap:square;stroke-width:3;"/>
   </g>
   <g id="line2d_45">
    <path clip-path="url(#p1e2050a51b)" d="M 73.832727 266.099886 
L 90.065455 256.876997 
L 106.298182 244.972286 
L 122.530909 240.648481 
L 138.763636 234.530671 
L 154.996364 232.108585 
L 171.229091 238.430333 
L 187.461818 247.001483 
L 203.694545 248.633133 
L 219.927273 237.998115 
L 236.16 237.934046 
L 252.392727 242.990366 
L 268.625455 240.571382 
L 284.858182 248.85907 
L 301.090909 252.256161 
L 317.323636 273.296098 
L 333.556364 272.256271 
L 349.789091 273.159855 
L 366.021818 263.751599 
L 382.254545 266.198761 
L 398.487273 266.099886 
" style="fill:none;stroke:#0e4db3;stroke-linecap:square;stroke-width:3;"/>
   </g>
   <g id="line2d_46">
    <path clip-path="url(#p1e2050a51b)" d="M 73.832727 269.780186 
L 90.065455 262.578558 
L 106.298182 247.256715 
L 122.530909 248.300525 
L 138.763636 245.207473 
L 154.996364 243.189157 
L 171.229091 248.078545 
L 187.461818 253.50842 
L 203.694545 255.658325 
L 219.927273 247.549642 
L 236.16 247.546685 
L 252.392727 251.266159 
L 268.625455 249.240352 
L 284.858182 255.451552 
L 301.090909 257.792569 
L 317.323636 276.062873 
L 333.556364 274.930575 
L 349.789091 274.673319 
L 366.021818 266.531515 
L 382.254545 269.214289 
L 398.487273 269.780186 
" style="fill:none;stroke:#d44e4e;stroke-linecap:square;stroke-width:3;"/>
   </g>
   <g id="line2d_47">
    <path clip-path="url(#p1e2050a51b)" d="M 73.832727 247.392518 
L 90.065455 247.103516 
L 106.298182 246.991566 
L 122.530909 250.690647 
L 138.763636 247.071528 
L 154.996364 255.598511 
L 171.229091 256.414723 
L 187.461818 256.582704 
L 203.694545 256.011074 
L 219.927273 255.688352 
L 236.16 255.427038 
L 252.392727 251.190288 
L 268.625455 249.004654 
L 284.858182 252.44535 
L 301.090909 246.875472 
L 317.323636 247.010792 
L 333.556364 247.036432 
L 349.789091 247.935446 
L 366.021818 244.314194 
L 382.254545 247.14844 
L 398.487273 247.392518 
" style="fill:none;stroke:#0e4db3;stroke-linecap:square;stroke-width:3;"/>
   </g>
   <g id="line2d_48">
    <path clip-path="url(#p1e2050a51b)" d="M 73.832727 253.054605 
L 90.065455 250.875997 
L 106.298182 250.740393 
L 122.530909 252.097293 
L 138.763636 253.005222 
L 154.996364 259.606725 
L 171.229091 260.093196 
L 187.461818 260.2239 
L 203.694545 260.157095 
L 219.927273 259.938144 
L 236.16 259.968387 
L 252.392727 255.719626 
L 268.625455 254.285159 
L 284.858182 256.791432 
L 301.090909 252.579819 
L 317.323636 252.591586 
L 333.556364 252.596365 
L 349.789091 253.544135 
L 366.021818 250.228372 
L 382.254545 252.677447 
L 398.487273 253.054605 
" style="fill:none;stroke:#d44e4e;stroke-linecap:square;stroke-width:3;"/>
   </g>
   <g id="line2d_49">
    <path clip-path="url(#p1e2050a51b)" d="M 73.832727 285.408 
L 90.065455 285.408 
L 106.298182 285.408 
L 122.530909 285.408 
L 138.763636 285.408 
L 154.996364 285.408 
L 171.229091 285.408 
L 187.461818 285.408 
L 203.694545 285.408 
L 219.927273 285.408 
L 236.16 285.408 
L 252.392727 285.408 
L 268.625455 285.408 
L 284.858182 285.408 
L 301.090909 285.408 
L 317.323636 285.408 
L 333.556364 285.408 
L 349.789091 285.408 
L 366.021818 285.408 
L 382.254545 285.408 
L 398.487273 285.408 
" style="fill:none;stroke:#0e4db3;stroke-linecap:square;stroke-width:3;"/>
   </g>
   <g id="line2d_50">
    <path clip-path="url(#p1e2050a51b)" d="M 73.832727 285.408 
L 90.065455 285.408 
L 106.298182 285.408 
L 122.530909 285.408 
L 138.763636 285.408 
L 154.996364 285.408 
L 171.229091 285.408 
L 187.461818 285.408 
L 203.694545 285.408 
L 219.927273 285.408 
L 236.16 285.408 
L 252.392727 285.408 
L 268.625455 285.408 
L 284.858182 285.408 
L 301.090909 285.408 
L 317.323636 285.408 
L 333.556364 285.408 
L 349.789091 285.408 
L 366.021818 285.408 
L 382.254545 285.408 
L 398.487273 285.408 
" style="fill:none;stroke:#d44e4e;stroke-linecap:square;stroke-width:3;"/>
   </g>
   <g id="line2d_51">
    <path clip-path="url(#p1e2050a51b)" d="M 73.832727 234.885017 
L 90.065455 188.721818 
L 106.298182 189.987222 
L 122.530909 186.297469 
L 138.763636 168.783742 
L 154.996364 182.144366 
L 171.229091 212.233439 
L 187.461818 257.646696 
L 203.694545 236.108271 
L 219.927273 217.17672 
L 236.16 214.430142 
L 252.392727 194.908858 
L 268.625455 179.318534 
L 284.858182 170.086303 
L 301.090909 185.591788 
L 317.323636 216.682634 
L 333.556364 267.499471 
L 349.789091 285.408 
L 366.021818 270.177858 
L 382.254545 232.198414 
L 398.487273 234.885017 
" style="fill:none;stroke:#0e4db3;stroke-linecap:square;stroke-width:3;"/>
   </g>
   <g id="line2d_52">
    <path clip-path="url(#p1e2050a51b)" d="M 73.832727 285.408 
L 90.065455 247.199384 
L 106.298182 250.689168 
L 122.530909 238.611782 
L 138.763636 267.874733 
L 154.996364 281.845615 
L 171.229091 285.408 
L 187.461818 285.408 
L 203.694545 285.408 
L 219.927273 285.408 
L 236.16 284.29849 
L 252.392727 268.185495 
L 268.625455 258.255799 
L 284.858182 260.26654 
L 301.090909 269.673178 
L 317.323636 285.408 
L 333.556364 285.408 
L 349.789091 285.408 
L 366.021818 285.408 
L 382.254545 285.408 
L 398.487273 285.408 
" style="fill:none;stroke:#d44e4e;stroke-linecap:square;stroke-width:3;"/>
   </g>
   <g id="line2d_53">
    <path clip-path="url(#p1e2050a51b)" d="M 73.832727 285.408 
L 90.065455 285.408 
L 106.298182 285.408 
L 122.530909 285.408 
L 138.763636 285.408 
L 154.996364 285.408 
L 171.229091 285.408 
L 187.461818 285.408 
L 203.694545 285.408 
L 219.927273 285.408 
L 236.16 285.408 
L 252.392727 285.408 
L 268.625455 285.408 
L 284.858182 285.408 
L 301.090909 285.408 
L 317.323636 285.408 
L 333.556364 285.408 
L 349.789091 285.408 
L 366.021818 285.408 
L 382.254545 285.408 
L 398.487273 285.408 
" style="fill:none;stroke:#0e4db3;stroke-linecap:square;stroke-width:3;"/>
   </g>
   <g id="line2d_54">
    <path clip-path="url(#p1e2050a51b)" d="M 73.832727 285.408 
L 90.065455 285.408 
L 106.298182 285.408 
L 122.530909 285.408 
L 138.763636 285.408 
L 154.996364 285.408 
L 171.229091 285.408 
L 187.461818 285.408 
L 203.694545 285.408 
L 219.927273 285.408 
L 236.16 285.408 
L 252.392727 285.408 
L 268.625455 285.408 
L 284.858182 285.408 
L 301.090909 285.408 
L 317.323636 285.408 
L 333.556364 285.408 
L 349.789091 285.408 
L 366.021818 285.408 
L 382.254545 285.408 
L 398.487273 285.408 
" style="fill:none;stroke:#d44e4e;stroke-linecap:square;stroke-width:3;"/>
   </g>
   <g id="line2d_55">
    <path clip-path="url(#p1e2050a51b)" d="M 73.832727 285.408 
L 90.065455 285.408 
L 106.298182 285.408 
L 122.530909 285.408 
L 138.763636 285.408 
L 154.996364 285.408 
L 171.229091 285.408 
L 187.461818 285.408 
L 203.694545 285.408 
L 219.927273 285.408 
L 236.16 285.408 
L 252.392727 285.408 
L 268.625455 285.408 
L 284.858182 285.408 
L 301.090909 285.408 
L 317.323636 285.408 
L 333.556364 285.408 
L 349.789091 285.408 
L 366.021818 285.408 
L 382.254545 285.408 
L 398.487273 285.408 
" style="fill:none;stroke:#0e4db3;stroke-linecap:square;stroke-width:3;"/>
   </g>
   <g id="line2d_56">
    <path clip-path="url(#p1e2050a51b)" d="M 73.832727 285.408 
L 90.065455 285.408 
L 106.298182 285.408 
L 122.530909 285.408 
L 138.763636 285.408 
L 154.996364 285.408 
L 171.229091 285.408 
L 187.461818 285.408 
L 203.694545 285.408 
L 219.927273 285.408 
L 236.16 285.408 
L 252.392727 285.408 
L 268.625455 285.408 
L 284.858182 285.408 
L 301.090909 285.408 
L 317.323636 285.408 
L 333.556364 285.408 
L 349.789091 285.408 
L 366.021818 285.408 
L 382.254545 285.408 
L 398.487273 285.408 
" style="fill:none;stroke:#d44e4e;stroke-linecap:square;stroke-width:3;"/>
   </g>
   <g id="line2d_57">
    <path clip-path="url(#p1e2050a51b)" d="M 73.832727 112.973088 
L 90.065455 166.23796 
L 106.298182 217.550004 
L 122.530909 225.070533 
L 138.763636 222.151064 
L 154.996364 223.981841 
L 171.229091 220.548592 
L 187.461818 229.485009 
L 203.694545 238.037093 
L 219.927273 205.710661 
L 236.16 197.559276 
L 252.392727 187.925843 
L 268.625455 211.344135 
L 284.858182 186.374615 
L 301.090909 150.41548 
L 317.323636 105.315867 
L 333.556364 69.641595 
L 349.789091 77.239047 
L 366.021818 86.257287 
L 382.254545 98.032445 
L 398.487273 112.973088 
" style="fill:none;stroke:#0e4db3;stroke-linecap:square;stroke-width:3;"/>
   </g>
   <g id="line2d_58">
    <path clip-path="url(#p1e2050a51b)" d="M 73.832727 285.408 
L 90.065455 285.408 
L 106.298182 285.408 
L 122.530909 285.408 
L 138.763636 285.408 
L 154.996364 285.408 
L 171.229091 285.408 
L 187.461818 285.408 
L 203.694545 285.408 
L 219.927273 285.408 
L 236.16 285.408 
L 252.392727 285.408 
L 268.625455 285.408 
L 284.858182 285.408 
L 301.090909 285.408 
L 317.323636 238.226045 
L 333.556364 260.980391 
L 349.789091 239.913887 
L 366.021818 235.782206 
L 382.254545 255.255436 
L 398.487273 285.408 
" style="fill:none;stroke:#d44e4e;stroke-linecap:square;stroke-width:3;"/>
   </g>
   <g id="line2d_59">
    <path clip-path="url(#p1e2050a51b)" d="M 73.832727 285.408 
L 90.065455 285.408 
L 106.298182 285.408 
L 122.530909 285.408 
L 138.763636 285.408 
L 154.996364 285.408 
L 171.229091 285.408 
L 187.461818 285.408 
L 203.694545 285.408 
L 219.927273 285.408 
L 236.16 285.408 
L 252.392727 285.408 
L 268.625455 285.408 
L 284.858182 285.408 
L 301.090909 285.408 
L 317.323636 285.408 
L 333.556364 285.408 
L 349.789091 285.408 
L 366.021818 285.408 
L 382.254545 285.408 
L 398.487273 285.408 
" style="fill:none;stroke:#0e4db3;stroke-linecap:square;stroke-width:3;"/>
   </g>
   <g id="line2d_60">
    <path clip-path="url(#p1e2050a51b)" d="M 73.832727 285.408 
L 90.065455 285.408 
L 106.298182 285.408 
L 122.530909 285.408 
L 138.763636 285.408 
L 154.996364 285.408 
L 171.229091 285.408 
L 187.461818 285.408 
L 203.694545 285.408 
L 219.927273 285.408 
L 236.16 285.408 
L 252.392727 285.408 
L 268.625455 285.408 
L 284.858182 285.408 
L 301.090909 285.408 
L 317.323636 285.408 
L 333.556364 285.408 
L 349.789091 285.408 
L 366.021818 285.408 
L 382.254545 285.408 
L 398.487273 285.408 
" style="fill:none;stroke:#d44e4e;stroke-linecap:square;stroke-width:3;"/>
   </g>
   <g id="line2d_61">
    <path clip-path="url(#p1e2050a51b)" d="M 73.832727 285.408 
L 90.065455 285.408 
L 106.298182 285.408 
L 122.530909 285.408 
L 138.763636 285.408 
L 154.996364 285.408 
L 171.229091 285.408 
L 187.461818 285.408 
L 203.694545 285.408 
L 219.927273 285.408 
L 236.16 285.408 
L 252.392727 285.408 
L 268.625455 285.408 
L 284.858182 285.408 
L 301.090909 285.408 
L 317.323636 285.408 
L 333.556364 285.408 
L 349.789091 285.408 
L 366.021818 285.408 
L 382.254545 285.408 
L 398.487273 285.408 
" style="fill:none;stroke:#0e4db3;stroke-linecap:square;stroke-width:3;"/>
   </g>
   <g id="line2d_62">
    <path clip-path="url(#p1e2050a51b)" d="M 73.832727 285.408 
L 90.065455 285.408 
L 106.298182 285.408 
L 122.530909 285.408 
L 138.763636 285.408 
L 154.996364 285.408 
L 171.229091 285.408 
L 187.461818 285.408 
L 203.694545 285.408 
L 219.927273 285.408 
L 236.16 285.408 
L 252.392727 285.408 
L 268.625455 285.408 
L 284.858182 285.408 
L 301.090909 285.408 
L 317.323636 285.408 
L 333.556364 285.408 
L 349.789091 285.408 
L 366.021818 285.408 
L 382.254545 285.408 
L 398.487273 285.408 
" style="fill:none;stroke:#d44e4e;stroke-linecap:square;stroke-width:3;"/>
   </g>
   <g id="line2d_63">
    <path clip-path="url(#p1e2050a51b)" d="M 73.832727 263.670018 
L 90.065455 263.744432 
L 106.298182 268.027259 
L 122.530909 273.807027 
L 138.763636 273.745259 
L 154.996364 274.73039 
L 171.229091 267.667248 
L 187.461818 250.88522 
L 203.694545 215.850251 
L 219.927273 190.982128 
L 236.16 222.066217 
L 252.392727 176.456545 
L 268.625455 182.234784 
L 284.858182 184.29298 
L 301.090909 184.735552 
L 317.323636 199.453949 
L 333.556364 208.716237 
L 349.789091 225.245724 
L 366.021818 233.879234 
L 382.254545 248.678343 
L 398.487273 263.670018 
" style="fill:none;stroke:#0e4db3;stroke-linecap:square;stroke-width:3;"/>
   </g>
   <g id="line2d_64">
    <path clip-path="url(#p1e2050a51b)" d="M 73.832727 284.350025 
L 90.065455 277.59024 
L 106.298182 283.816131 
L 122.530909 280.424353 
L 138.763636 280.091361 
L 154.996364 280.563483 
L 171.229091 284.417683 
L 187.461818 284.645257 
L 203.694545 284.520833 
L 219.927273 254.422505 
L 236.16 283.956026 
L 252.392727 241.577357 
L 268.625455 250.096677 
L 284.858182 259.864932 
L 301.090909 264.885157 
L 317.323636 258.913934 
L 333.556364 267.136321 
L 349.789091 261.212108 
L 366.021818 267.478425 
L 382.254545 271.31512 
L 398.487273 284.350025 
" style="fill:none;stroke:#d44e4e;stroke-linecap:square;stroke-width:3;"/>
   </g>
   <g id="line2d_65">
    <path clip-path="url(#p1e2050a51b)" d="M 73.832727 285.408 
L 90.065455 285.408 
L 106.298182 285.408 
L 122.530909 285.408 
L 138.763636 285.408 
L 154.996364 285.408 
L 171.229091 285.408 
L 187.461818 285.408 
L 203.694545 285.408 
L 219.927273 285.408 
L 236.16 285.408 
L 252.392727 285.408 
L 268.625455 285.408 
L 284.858182 285.408 
L 301.090909 285.408 
L 317.323636 285.408 
L 333.556364 285.408 
L 349.789091 285.408 
L 366.021818 285.408 
L 382.254545 285.408 
L 398.487273 285.408 
" style="fill:none;stroke:#0e4db3;stroke-linecap:square;stroke-width:3;"/>
   </g>
   <g id="line2d_66">
    <path clip-path="url(#p1e2050a51b)" d="M 73.832727 285.408 
L 90.065455 285.408 
L 106.298182 285.408 
L 122.530909 285.408 
L 138.763636 285.408 
L 154.996364 285.408 
L 171.229091 285.408 
L 187.461818 285.408 
L 203.694545 285.408 
L 219.927273 285.408 
L 236.16 285.408 
L 252.392727 285.408 
L 268.625455 285.408 
L 284.858182 285.408 
L 301.090909 285.408 
L 317.323636 285.408 
L 333.556364 285.408 
L 349.789091 285.408 
L 366.021818 285.408 
L 382.254545 285.408 
L 398.487273 285.408 
" style="fill:none;stroke:#d44e4e;stroke-linecap:square;stroke-width:3;"/>
   </g>
   <g id="line2d_67">
    <path clip-path="url(#p1e2050a51b)" d="M 73.832727 285.408 
L 90.065455 285.408 
L 106.298182 285.408 
L 122.530909 285.408 
L 138.763636 285.408 
L 154.996364 285.408 
L 171.229091 285.408 
L 187.461818 285.408 
L 203.694545 285.408 
L 219.927273 285.408 
L 236.16 285.408 
L 252.392727 285.408 
L 268.625455 285.408 
L 284.858182 285.408 
L 301.090909 285.408 
L 317.323636 285.408 
L 333.556364 285.408 
L 349.789091 285.408 
L 366.021818 285.408 
L 382.254545 285.408 
L 398.487273 285.408 
" style="fill:none;stroke:#0e4db3;stroke-linecap:square;stroke-width:3;"/>
   </g>
   <g id="line2d_68">
    <path clip-path="url(#p1e2050a51b)" d="M 73.832727 285.408 
L 90.065455 285.408 
L 106.298182 285.408 
L 122.530909 285.408 
L 138.763636 285.408 
L 154.996364 285.408 
L 171.229091 285.408 
L 187.461818 285.408 
L 203.694545 285.408 
L 219.927273 285.408 
L 236.16 285.408 
L 252.392727 285.408 
L 268.625455 285.408 
L 284.858182 285.408 
L 301.090909 285.408 
L 317.323636 285.408 
L 333.556364 285.408 
L 349.789091 285.408 
L 366.021818 285.408 
L 382.254545 285.408 
L 398.487273 285.408 
" style="fill:none;stroke:#d44e4e;stroke-linecap:square;stroke-width:3;"/>
   </g>
   <g id="line2d_69">
    <path clip-path="url(#p1e2050a51b)" d="M 73.832727 285.408 
L 90.065455 285.408 
L 106.298182 285.408 
L 122.530909 285.408 
L 138.763636 285.408 
L 154.996364 285.408 
L 171.229091 285.408 
L 187.461818 285.408 
L 203.694545 285.408 
L 219.927273 285.408 
L 236.16 285.408 
L 252.392727 285.408 
L 268.625455 285.408 
L 284.858182 285.408 
L 301.090909 285.408 
L 317.323636 285.408 
L 333.556364 285.408 
L 349.789091 285.408 
L 366.021818 285.408 
L 382.254545 285.408 
L 398.487273 285.408 
" style="fill:none;stroke:#0e4db3;stroke-linecap:square;stroke-width:3;"/>
   </g>
   <g id="line2d_70">
    <path clip-path="url(#p1e2050a51b)" d="M 73.832727 285.408 
L 90.065455 285.408 
L 106.298182 285.408 
L 122.530909 285.408 
L 138.763636 285.408 
L 154.996364 285.408 
L 171.229091 285.408 
L 187.461818 285.408 
L 203.694545 285.408 
L 219.927273 285.408 
L 236.16 285.408 
L 252.392727 285.408 
L 268.625455 285.408 
L 284.858182 285.408 
L 301.090909 285.408 
L 317.323636 285.408 
L 333.556364 285.408 
L 349.789091 285.408 
L 366.021818 285.408 
L 382.254545 285.408 
L 398.487273 285.408 
" style="fill:none;stroke:#d44e4e;stroke-linecap:square;stroke-width:3;"/>
   </g>
   <g id="line2d_71">
    <path clip-path="url(#p1e2050a51b)" d="M 73.832727 285.408 
L 90.065455 285.408 
L 106.298182 285.408 
L 122.530909 285.408 
L 138.763636 285.408 
L 154.996364 285.408 
L 171.229091 285.408 
L 187.461818 285.408 
L 203.694545 285.408 
L 219.927273 285.408 
L 236.16 285.408 
L 252.392727 285.408 
L 268.625455 285.408 
L 284.858182 285.408 
L 301.090909 285.408 
L 317.323636 285.408 
L 333.556364 285.408 
L 349.789091 285.408 
L 366.021818 285.408 
L 382.254545 285.408 
L 398.487273 285.408 
" style="fill:none;stroke:#0e4db3;stroke-linecap:square;stroke-width:3;"/>
   </g>
   <g id="line2d_72">
    <path clip-path="url(#p1e2050a51b)" d="M 73.832727 285.408 
L 90.065455 285.408 
L 106.298182 285.408 
L 122.530909 285.408 
L 138.763636 285.408 
L 154.996364 285.408 
L 171.229091 285.408 
L 187.461818 285.408 
L 203.694545 285.408 
L 219.927273 285.408 
L 236.16 285.408 
L 252.392727 285.408 
L 268.625455 285.408 
L 284.858182 285.408 
L 301.090909 285.408 
L 317.323636 285.408 
L 333.556364 285.408 
L 349.789091 285.408 
L 366.021818 285.408 
L 382.254545 285.408 
L 398.487273 285.408 
" style="fill:none;stroke:#d44e4e;stroke-linecap:square;stroke-width:3;"/>
   </g>
   <g id="line2d_73">
    <path clip-path="url(#p1e2050a51b)" d="M 73.832727 222.715297 
L 90.065455 203.758996 
L 106.298182 170.682606 
L 122.530909 175.808901 
L 138.763636 145.931688 
L 154.996364 148.060218 
L 171.229091 168.903413 
L 187.461818 211.971563 
L 203.694545 191.740377 
L 219.927273 191.393864 
L 236.16 214.700648 
L 252.392727 200.743012 
L 268.625455 206.516366 
L 284.858182 225.248404 
L 301.090909 226.855492 
L 317.323636 248.282934 
L 333.556364 239.505338 
L 349.789091 232.705972 
L 366.021818 219.19378 
L 382.254545 219.108949 
L 398.487273 222.715297 
" style="fill:none;stroke:#0e4db3;stroke-linecap:square;stroke-width:3;"/>
   </g>
   <g id="line2d_74">
    <path clip-path="url(#p1e2050a51b)" d="M 73.832727 285.408 
L 90.065455 285.408 
L 106.298182 285.408 
L 122.530909 285.408 
L 138.763636 285.408 
L 154.996364 285.408 
L 171.229091 285.408 
L 187.461818 285.408 
L 203.694545 285.408 
L 219.927273 285.408 
L 236.16 285.408 
L 252.392727 285.408 
L 268.625455 285.408 
L 284.858182 285.408 
L 301.090909 285.408 
L 317.323636 285.408 
L 333.556364 285.408 
L 349.789091 285.408 
L 366.021818 285.408 
L 382.254545 285.408 
L 398.487273 285.408 
" style="fill:none;stroke:#d44e4e;stroke-linecap:square;stroke-width:3;"/>
   </g>
   <g id="line2d_75">
    <path clip-path="url(#p1e2050a51b)" d="M 73.832727 285.408 
L 90.065455 285.408 
L 106.298182 285.408 
L 122.530909 285.408 
L 138.763636 285.408 
L 154.996364 285.408 
L 171.229091 285.408 
L 187.461818 285.408 
L 203.694545 285.408 
L 219.927273 285.408 
L 236.16 285.408 
L 252.392727 285.408 
L 268.625455 285.408 
L 284.858182 285.408 
L 301.090909 285.408 
L 317.323636 285.408 
L 333.556364 285.408 
L 349.789091 285.408 
L 366.021818 285.408 
L 382.254545 285.408 
L 398.487273 285.408 
" style="fill:none;stroke:#0e4db3;stroke-linecap:square;stroke-width:3;"/>
   </g>
   <g id="line2d_76">
    <path clip-path="url(#p1e2050a51b)" d="M 73.832727 285.408 
L 90.065455 285.408 
L 106.298182 285.408 
L 122.530909 285.408 
L 138.763636 285.408 
L 154.996364 285.408 
L 171.229091 285.408 
L 187.461818 285.408 
L 203.694545 285.408 
L 219.927273 285.408 
L 236.16 285.408 
L 252.392727 285.408 
L 268.625455 285.408 
L 284.858182 285.408 
L 301.090909 285.408 
L 317.323636 285.408 
L 333.556364 285.408 
L 349.789091 285.408 
L 366.021818 285.408 
L 382.254545 285.408 
L 398.487273 285.408 
" style="fill:none;stroke:#d44e4e;stroke-linecap:square;stroke-width:3;"/>
   </g>
   <g id="line2d_77">
    <path clip-path="url(#p1e2050a51b)" d="M 73.832727 285.408 
L 90.065455 285.408 
L 106.298182 285.408 
L 122.530909 285.408 
L 138.763636 285.408 
L 154.996364 285.408 
L 171.229091 285.408 
L 187.461818 285.408 
L 203.694545 285.408 
L 219.927273 285.408 
L 236.16 285.408 
L 252.392727 285.408 
L 268.625455 285.408 
L 284.858182 285.408 
L 301.090909 285.408 
L 317.323636 285.408 
L 333.556364 285.408 
L 349.789091 285.408 
L 366.021818 285.408 
L 382.254545 285.408 
L 398.487273 285.408 
" style="fill:none;stroke:#0e4db3;stroke-linecap:square;stroke-width:3;"/>
   </g>
   <g id="line2d_78">
    <path clip-path="url(#p1e2050a51b)" d="M 73.832727 285.408 
L 90.065455 285.408 
L 106.298182 285.408 
L 122.530909 285.408 
L 138.763636 285.408 
L 154.996364 285.408 
L 171.229091 285.408 
L 187.461818 285.408 
L 203.694545 285.408 
L 219.927273 285.408 
L 236.16 285.408 
L 252.392727 285.408 
L 268.625455 285.408 
L 284.858182 285.408 
L 301.090909 285.408 
L 317.323636 285.408 
L 333.556364 285.408 
L 349.789091 285.408 
L 366.021818 285.408 
L 382.254545 285.408 
L 398.487273 285.408 
" style="fill:none;stroke:#d44e4e;stroke-linecap:square;stroke-width:3;"/>
   </g>
   <g id="line2d_79">
    <path clip-path="url(#p1e2050a51b)" d="M 73.832727 285.408 
L 90.065455 285.408 
L 106.298182 285.408 
L 122.530909 285.408 
L 138.763636 285.408 
L 154.996364 285.408 
L 171.229091 285.408 
L 187.461818 285.408 
L 203.694545 285.408 
L 219.927273 285.408 
L 236.16 285.408 
L 252.392727 285.408 
L 268.625455 285.408 
L 284.858182 285.408 
L 301.090909 285.408 
L 317.323636 285.408 
L 333.556364 285.408 
L 349.789091 285.408 
L 366.021818 285.408 
L 382.254545 285.408 
L 398.487273 285.408 
" style="fill:none;stroke:#0e4db3;stroke-linecap:square;stroke-width:3;"/>
   </g>
   <g id="line2d_80">
    <path clip-path="url(#p1e2050a51b)" d="M 73.832727 285.408 
L 90.065455 285.408 
L 106.298182 285.408 
L 122.530909 285.408 
L 138.763636 285.408 
L 154.996364 285.408 
L 171.229091 285.408 
L 187.461818 285.408 
L 203.694545 285.408 
L 219.927273 285.408 
L 236.16 285.408 
L 252.392727 285.408 
L 268.625455 285.408 
L 284.858182 285.408 
L 301.090909 285.408 
L 317.323636 285.408 
L 333.556364 285.408 
L 349.789091 285.408 
L 366.021818 285.408 
L 382.254545 285.408 
L 398.487273 285.408 
" style="fill:none;stroke:#d44e4e;stroke-linecap:square;stroke-width:3;"/>
   </g>
   <g id="line2d_81">
    <path clip-path="url(#p1e2050a51b)" d="M 73.832727 237.896441 
L 90.065455 214.005118 
L 106.298182 249.732917 
L 122.530909 247.986893 
L 138.763636 233.7497 
L 154.996364 231.28669 
L 171.229091 217.467178 
L 187.461818 180.991602 
L 203.694545 156.656056 
L 219.927273 140.826499 
L 236.16 160.332934 
L 252.392727 113.073931 
L 268.625455 102.944328 
L 284.858182 135.244328 
L 301.090909 136.967208 
L 317.323636 187.063888 
L 333.556364 210.535458 
L 349.789091 191.111124 
L 366.021818 193.351124 
L 382.254545 200.516888 
L 398.487273 237.896441 
" style="fill:none;stroke:#0e4db3;stroke-linecap:square;stroke-width:3;"/>
   </g>
   <g id="line2d_82">
    <path clip-path="url(#p1e2050a51b)" d="M 73.832727 285.408 
L 90.065455 285.408 
L 106.298182 285.408 
L 122.530909 285.408 
L 138.763636 285.408 
L 154.996364 285.408 
L 171.229091 285.408 
L 187.461818 285.408 
L 203.694545 285.408 
L 219.927273 285.408 
L 236.16 285.408 
L 252.392727 285.408 
L 268.625455 285.408 
L 284.858182 285.408 
L 301.090909 285.408 
L 317.323636 285.408 
L 333.556364 285.408 
L 349.789091 285.408 
L 366.021818 285.408 
L 382.254545 285.408 
L 398.487273 285.408 
" style="fill:none;stroke:#d44e4e;stroke-linecap:square;stroke-width:3;"/>
   </g>
   <g id="line2d_83">
    <path clip-path="url(#p1e2050a51b)" d="M 73.832727 285.408 
L 90.065455 285.408 
L 106.298182 285.408 
L 122.530909 285.408 
L 138.763636 285.408 
L 154.996364 285.408 
L 171.229091 285.408 
L 187.461818 285.408 
L 203.694545 285.408 
L 219.927273 285.408 
L 236.16 285.408 
L 252.392727 285.408 
L 268.625455 285.408 
L 284.858182 285.408 
L 301.090909 285.408 
L 317.323636 285.408 
L 333.556364 285.408 
L 349.789091 285.408 
L 366.021818 285.408 
L 382.254545 285.408 
L 398.487273 285.408 
" style="fill:none;stroke:#0e4db3;stroke-linecap:square;stroke-width:3;"/>
   </g>
   <g id="line2d_84">
    <path clip-path="url(#p1e2050a51b)" d="M 73.832727 285.408 
L 90.065455 285.408 
L 106.298182 285.408 
L 122.530909 285.408 
L 138.763636 285.408 
L 154.996364 285.408 
L 171.229091 285.408 
L 187.461818 285.408 
L 203.694545 285.408 
L 219.927273 285.408 
L 236.16 285.408 
L 252.392727 285.408 
L 268.625455 285.408 
L 284.858182 285.408 
L 301.090909 285.408 
L 317.323636 285.408 
L 333.556364 285.408 
L 349.789091 285.408 
L 366.021818 285.408 
L 382.254545 285.408 
L 398.487273 285.408 
" style="fill:none;stroke:#d44e4e;stroke-linecap:square;stroke-width:3;"/>
   </g>
   <g id="line2d_85">
    <path clip-path="url(#p1e2050a51b)" d="M 73.832727 164.458112 
L 90.065455 146.593128 
L 106.298182 148.776964 
L 122.530909 165.199023 
L 138.763636 185.667717 
L 154.996364 193.294694 
L 171.229091 182.500078 
L 187.461818 197.796527 
L 203.694545 230.680084 
L 219.927273 249.916781 
L 236.16 254.756533 
L 252.392727 227.599332 
L 268.625455 238.889818 
L 284.858182 236.948219 
L 301.090909 188.108084 
L 317.323636 201.438121 
L 333.556364 192.856554 
L 349.789091 202.713739 
L 366.021818 187.955969 
L 382.254545 180.87506 
L 398.487273 164.458112 
" style="fill:none;stroke:#0e4db3;stroke-linecap:square;stroke-width:3;"/>
   </g>
   <g id="line2d_86">
    <path clip-path="url(#p1e2050a51b)" d="M 73.832727 285.408 
L 90.065455 265.749786 
L 106.298182 252.739401 
L 122.530909 265.984577 
L 138.763636 285.408 
L 154.996364 285.408 
L 171.229091 262.660025 
L 187.461818 280.593225 
L 203.694545 285.408 
L 219.927273 285.408 
L 236.16 285.408 
L 252.392727 285.408 
L 268.625455 285.408 
L 284.858182 285.408 
L 301.090909 284.249034 
L 317.323636 285.408 
L 333.556364 285.408 
L 349.789091 259.255884 
L 366.021818 248.343975 
L 382.254545 260.375555 
L 398.487273 285.408 
" style="fill:none;stroke:#d44e4e;stroke-linecap:square;stroke-width:3;"/>
   </g>
   <g id="line2d_87">
    <path clip-path="url(#p1e2050a51b)" d="M 73.832727 190.768746 
L 90.065455 196.323538 
L 106.298182 196.113729 
L 122.530909 193.412094 
L 138.763636 202.108089 
L 154.996364 230.895939 
L 171.229091 243.652216 
L 187.461818 252.691291 
L 203.694545 225.503289 
L 219.927273 164.175863 
L 236.16 136.979131 
L 252.392727 126.17899 
L 268.625455 141.069243 
L 284.858182 157.325057 
L 301.090909 152.241451 
L 317.323636 147.449496 
L 333.556364 164.17278 
L 349.789091 159.782028 
L 366.021818 182.30639 
L 382.254545 187.552613 
L 398.487273 190.768746 
" style="fill:none;stroke:#0e4db3;stroke-linecap:square;stroke-width:3;"/>
   </g>
   <g id="line2d_88">
    <path clip-path="url(#p1e2050a51b)" d="M 73.832727 211.563128 
L 90.065455 214.15426 
L 106.298182 211.883002 
L 122.530909 214.326974 
L 138.763636 215.137992 
L 154.996364 242.681506 
L 171.229091 256.966612 
L 187.461818 255.116946 
L 203.694545 235.874169 
L 219.927273 196.421844 
L 236.16 174.242505 
L 252.392727 165.607786 
L 268.625455 172.95608 
L 284.858182 187.127254 
L 301.090909 180.563433 
L 317.323636 174.644995 
L 333.556364 187.378386 
L 349.789091 184.637643 
L 366.021818 198.933217 
L 382.254545 187.012038 
L 398.487273 211.563128 
" style="fill:none;stroke:#d44e4e;stroke-linecap:square;stroke-width:3;"/>
   </g>
   <g id="line2d_89">
    <path clip-path="url(#p1e2050a51b)" d="M 73.832727 285.408 
L 90.065455 285.408 
L 106.298182 285.408 
L 122.530909 285.408 
L 138.763636 285.408 
L 154.996364 285.408 
L 171.229091 285.408 
L 187.461818 285.408 
L 203.694545 285.408 
L 219.927273 285.408 
L 236.16 285.408 
L 252.392727 285.408 
L 268.625455 285.408 
L 284.858182 285.408 
L 301.090909 285.408 
L 317.323636 285.408 
L 333.556364 285.408 
L 349.789091 285.408 
L 366.021818 285.408 
L 382.254545 285.408 
L 398.487273 285.408 
" style="fill:none;stroke:#0e4db3;stroke-linecap:square;stroke-width:3;"/>
   </g>
   <g id="line2d_90">
    <path clip-path="url(#p1e2050a51b)" d="M 73.832727 285.408 
L 90.065455 285.408 
L 106.298182 285.408 
L 122.530909 285.408 
L 138.763636 285.408 
L 154.996364 285.408 
L 171.229091 285.408 
L 187.461818 285.408 
L 203.694545 285.408 
L 219.927273 285.408 
L 236.16 285.408 
L 252.392727 285.408 
L 268.625455 285.408 
L 284.858182 285.408 
L 301.090909 285.408 
L 317.323636 285.408 
L 333.556364 285.408 
L 349.789091 285.408 
L 366.021818 285.408 
L 382.254545 285.408 
L 398.487273 285.408 
" style="fill:none;stroke:#d44e4e;stroke-linecap:square;stroke-width:3;"/>
   </g>
   <g id="line2d_91">
    <path clip-path="url(#p1e2050a51b)" d="M 73.832727 285.408 
L 90.065455 285.408 
L 106.298182 285.408 
L 122.530909 285.408 
L 138.763636 285.408 
L 154.996364 285.408 
L 171.229091 285.408 
L 187.461818 285.408 
L 203.694545 285.408 
L 219.927273 285.408 
L 236.16 285.408 
L 252.392727 285.408 
L 268.625455 285.408 
L 284.858182 285.408 
L 301.090909 285.408 
L 317.323636 285.408 
L 333.556364 285.408 
L 349.789091 285.408 
L 366.021818 285.408 
L 382.254545 285.408 
L 398.487273 285.408 
" style="fill:none;stroke:#0e4db3;stroke-linecap:square;stroke-width:3;"/>
   </g>
   <g id="line2d_92">
    <path clip-path="url(#p1e2050a51b)" d="M 73.832727 285.408 
L 90.065455 285.408 
L 106.298182 285.408 
L 122.530909 285.408 
L 138.763636 285.408 
L 154.996364 285.408 
L 171.229091 285.408 
L 187.461818 285.408 
L 203.694545 285.408 
L 219.927273 285.408 
L 236.16 285.408 
L 252.392727 285.408 
L 268.625455 285.408 
L 284.858182 285.408 
L 301.090909 285.408 
L 317.323636 285.408 
L 333.556364 285.408 
L 349.789091 285.408 
L 366.021818 285.408 
L 382.254545 285.408 
L 398.487273 285.408 
" style="fill:none;stroke:#d44e4e;stroke-linecap:square;stroke-width:3;"/>
   </g>
   <g id="line2d_93">
    <path clip-path="url(#p1e2050a51b)" d="M 73.832727 285.408 
L 90.065455 285.408 
L 106.298182 285.408 
L 122.530909 271.856218 
L 138.763636 260.09575 
L 154.996364 256.72625 
L 171.229091 267.402672 
L 187.461818 248.885607 
L 203.694545 212.596275 
L 219.927273 194.190896 
L 236.16 277.249419 
L 252.392727 147.596999 
L 268.625455 107.364731 
L 284.858182 114.047543 
L 301.090909 116.737841 
L 317.323636 167.349088 
L 333.556364 216.419439 
L 349.789091 269.382873 
L 366.021818 285.408 
L 382.254545 285.408 
L 398.487273 285.408 
" style="fill:none;stroke:#0e4db3;stroke-linecap:square;stroke-width:3;"/>
   </g>
   <g id="line2d_94">
    <path clip-path="url(#p1e2050a51b)" d="M 73.832727 285.408 
L 90.065455 285.408 
L 106.298182 285.408 
L 122.530909 285.408 
L 138.763636 285.408 
L 154.996364 285.408 
L 171.229091 285.408 
L 187.461818 285.408 
L 203.694545 276.394283 
L 219.927273 269.131501 
L 236.16 285.408 
L 252.392727 238.040468 
L 268.625455 229.450868 
L 284.858182 213.090346 
L 301.090909 220.598979 
L 317.323636 245.416103 
L 333.556364 263.056099 
L 349.789091 285.408 
L 366.021818 285.408 
L 382.254545 285.408 
L 398.487273 285.408 
" style="fill:none;stroke:#d44e4e;stroke-linecap:square;stroke-width:3;"/>
   </g>
   <g id="line2d_95">
    <path clip-path="url(#p1e2050a51b)" d="M 73.832727 148.517459 
L 90.065455 117.249936 
L 106.298182 102.588428 
L 122.530909 89.068917 
L 138.763636 74.703665 
L 154.996364 93.810357 
L 171.229091 112.642501 
L 187.461818 174.712317 
L 203.694545 181.935673 
L 219.927273 193.110666 
L 236.16 180.190352 
L 252.392727 169.152891 
L 268.625455 175.790611 
L 284.858182 156.071021 
L 301.090909 176.502215 
L 317.323636 186.371408 
L 333.556364 214.752801 
L 349.789091 205.011261 
L 366.021818 194.440724 
L 382.254545 171.666799 
L 398.487273 148.517459 
" style="fill:none;stroke:#0e4db3;stroke-linecap:square;stroke-width:3;"/>
   </g>
   <g id="line2d_96">
    <path clip-path="url(#p1e2050a51b)" d="M 73.832727 285.408 
L 90.065455 261.478322 
L 106.298182 265.376467 
L 122.530909 237.17364 
L 138.763636 274.622388 
L 154.996364 283.676029 
L 171.229091 283.703704 
L 187.461818 285.408 
L 203.694545 285.408 
L 219.927273 285.408 
L 236.16 285.408 
L 252.392727 285.408 
L 268.625455 285.408 
L 284.858182 285.408 
L 301.090909 285.408 
L 317.323636 285.408 
L 333.556364 285.408 
L 349.789091 285.408 
L 366.021818 285.408 
L 382.254545 285.408 
L 398.487273 285.408 
" style="fill:none;stroke:#d44e4e;stroke-linecap:square;stroke-width:3;"/>
   </g>
   <g id="line2d_97">
    <path clip-path="url(#p1e2050a51b)" d="M 73.832727 285.408 
L 90.065455 285.408 
L 106.298182 285.408 
L 122.530909 285.408 
L 138.763636 285.408 
L 154.996364 285.408 
L 171.229091 285.408 
L 187.461818 285.408 
L 203.694545 285.408 
L 219.927273 285.408 
L 236.16 285.408 
L 252.392727 285.408 
L 268.625455 285.408 
L 284.858182 285.408 
L 301.090909 285.408 
L 317.323636 285.408 
L 333.556364 285.408 
L 349.789091 285.408 
L 366.021818 285.408 
L 382.254545 285.408 
L 398.487273 285.408 
" style="fill:none;stroke:#0e4db3;stroke-linecap:square;stroke-width:3;"/>
   </g>
   <g id="line2d_98">
    <path clip-path="url(#p1e2050a51b)" d="M 73.832727 285.408 
L 90.065455 285.408 
L 106.298182 285.408 
L 122.530909 285.408 
L 138.763636 285.408 
L 154.996364 285.408 
L 171.229091 285.408 
L 187.461818 285.408 
L 203.694545 285.408 
L 219.927273 285.408 
L 236.16 285.408 
L 252.392727 285.408 
L 268.625455 285.408 
L 284.858182 285.408 
L 301.090909 285.408 
L 317.323636 285.408 
L 333.556364 285.408 
L 349.789091 285.408 
L 366.021818 285.408 
L 382.254545 285.408 
L 398.487273 285.408 
" style="fill:none;stroke:#d44e4e;stroke-linecap:square;stroke-width:3;"/>
   </g>
   <g id="line2d_99">
    <path clip-path="url(#p1e2050a51b)" d="M 73.832727 75.256475 
L 90.065455 109.501282 
L 106.298182 147.181081 
L 122.530909 196.202361 
L 138.763636 230.800804 
L 154.996364 259.191369 
L 171.229091 228.058002 
L 187.461818 191.284548 
L 203.694545 154.984245 
L 219.927273 103.141878 
L 236.16 94.217458 
L 252.392727 93.023433 
L 268.625455 112.483621 
L 284.858182 144.342063 
L 301.090909 110.377563 
L 317.323636 130.393713 
L 333.556364 100.624193 
L 349.789091 111.675255 
L 366.021818 90.574194 
L 382.254545 63.648 
L 398.487273 75.256475 
" style="fill:none;stroke:#0e4db3;stroke-linecap:square;stroke-width:3;"/>
   </g>
   <g id="line2d_100">
    <path clip-path="url(#p1e2050a51b)" d="M 73.832727 218.068833 
L 90.065455 213.626473 
L 106.298182 240.090635 
L 122.530909 285.408 
L 138.763636 285.408 
L 154.996364 285.408 
L 171.229091 285.408 
L 187.461818 285.408 
L 203.694545 285.408 
L 219.927273 266.846729 
L 236.16 257.399232 
L 252.392727 225.792576 
L 268.625455 239.443564 
L 284.858182 250.639457 
L 301.090909 206.58574 
L 317.323636 203.152901 
L 333.556364 211.226961 
L 349.789091 185.836615 
L 366.021818 167.957399 
L 382.254545 166.790926 
L 398.487273 218.068833 
" style="fill:none;stroke:#d44e4e;stroke-linecap:square;stroke-width:3;"/>
   </g>
   <g id="patch_3">
    <path d="M 57.6 307.584 
L 57.6 41.472 
" style="fill:none;stroke:#000000;stroke-linecap:square;stroke-linejoin:miter;stroke-width:2.5;"/>
   </g>
   <g id="patch_4">
    <path d="M 414.72 307.584 
L 414.72 41.472 
" style="fill:none;stroke:#000000;stroke-linecap:square;stroke-linejoin:miter;stroke-width:2.5;"/>
   </g>
   <g id="patch_5">
    <path d="M 57.6 307.584 
L 414.72 307.584 
" style="fill:none;stroke:#000000;stroke-linecap:square;stroke-linejoin:miter;stroke-width:2.5;"/>
   </g>
   <g id="patch_6">
    <path d="M 57.6 41.472 
L 414.72 41.472 
" style="fill:none;stroke:#000000;stroke-linecap:square;stroke-linejoin:miter;stroke-width:2.5;"/>
   </g>
  </g>
 </g>
 <defs>
  <clipPath id="p1e2050a51b">
   <rect height="266.112" width="357.12" x="57.6" y="41.472"/>
  </clipPath>
 </defs>
</svg>
