<?xml version="1.0" encoding="utf-8" standalone="no"?>
<!DOCTYPE svg PUBLIC "-//W3C//DTD SVG 1.1//EN"
  "http://www.w3.org/Graphics/SVG/1.1/DTD/svg11.dtd">
<!-- Created with matplotlib (https://matplotlib.org/) -->
<svg height="345.6pt" version="1.1" viewBox="0 0 460.8 345.6" width="460.8pt" xmlns="http://www.w3.org/2000/svg" xmlns:xlink="http://www.w3.org/1999/xlink">
 <defs>
  <style type="text/css">
*{stroke-linecap:butt;stroke-linejoin:round;}
  </style>
 </defs>
 <g id="figure_1">
  <g id="patch_1">
   <path d="M 0 345.6 
L 460.8 345.6 
L 460.8 0 
L 0 0 
z
" style="fill:#ffffff;"/>
  </g>
  <g id="axes_1">
   <g id="patch_2">
    <path d="M 57.6 307.584 
L 414.72 307.584 
L 414.72 41.472 
L 57.6 41.472 
z
" style="fill:#ffffff;"/>
   </g>
   <g id="matplotlib.axis_1">
    <g id="xtick_1">
     <g id="line2d_1">
      <defs>
       <path d="M 0 0 
L 0 12 
" id="me6088d5805" style="stroke:#000000;stroke-width:2.5;"/>
      </defs>
      <g>
       <use style="stroke:#000000;stroke-width:2.5;" x="73.832727" xlink:href="#me6088d5805" y="307.584"/>
      </g>
     </g>
     <g id="text_1">
      <!-- 0 -->
      <defs>
       <path d="M 31.78125 66.40625 
Q 24.171875 66.40625 20.328125 58.90625 
Q 16.5 51.421875 16.5 36.375 
Q 16.5 21.390625 20.328125 13.890625 
Q 24.171875 6.390625 31.78125 6.390625 
Q 39.453125 6.390625 43.28125 13.890625 
Q 47.125 21.390625 47.125 36.375 
Q 47.125 51.421875 43.28125 58.90625 
Q 39.453125 66.40625 31.78125 66.40625 
z
M 31.78125 74.21875 
Q 44.046875 74.21875 50.515625 64.515625 
Q 56.984375 54.828125 56.984375 36.375 
Q 56.984375 17.96875 50.515625 8.265625 
Q 44.046875 -1.421875 31.78125 -1.421875 
Q 19.53125 -1.421875 13.0625 8.265625 
Q 6.59375 17.96875 6.59375 36.375 
Q 6.59375 54.828125 13.0625 64.515625 
Q 19.53125 74.21875 31.78125 74.21875 
z
" id="DejaVuSans-48"/>
      </defs>
      <g transform="translate(66.833977 339.800562)scale(0.22 -0.22)">
       <use xlink:href="#DejaVuSans-48"/>
      </g>
     </g>
    </g>
    <g id="xtick_2">
     <g id="line2d_2">
      <g>
       <use style="stroke:#000000;stroke-width:2.5;" x="164.014545" xlink:href="#me6088d5805" y="307.584"/>
      </g>
     </g>
     <g id="text_2">
      <!-- 50 -->
      <defs>
       <path d="M 10.796875 72.90625 
L 49.515625 72.90625 
L 49.515625 64.59375 
L 19.828125 64.59375 
L 19.828125 46.734375 
Q 21.96875 47.46875 24.109375 47.828125 
Q 26.265625 48.1875 28.421875 48.1875 
Q 40.625 48.1875 47.75 41.5 
Q 54.890625 34.8125 54.890625 23.390625 
Q 54.890625 11.625 47.5625 5.09375 
Q 40.234375 -1.421875 26.90625 -1.421875 
Q 22.3125 -1.421875 17.546875 -0.640625 
Q 12.796875 0.140625 7.71875 1.703125 
L 7.71875 11.625 
Q 12.109375 9.234375 16.796875 8.0625 
Q 21.484375 6.890625 26.703125 6.890625 
Q 35.15625 6.890625 40.078125 11.328125 
Q 45.015625 15.765625 45.015625 23.390625 
Q 45.015625 31 40.078125 35.4375 
Q 35.15625 39.890625 26.703125 39.890625 
Q 22.75 39.890625 18.8125 39.015625 
Q 14.890625 38.140625 10.796875 36.28125 
z
" id="DejaVuSans-53"/>
      </defs>
      <g transform="translate(150.017045 339.800562)scale(0.22 -0.22)">
       <use xlink:href="#DejaVuSans-53"/>
       <use x="63.623047" xlink:href="#DejaVuSans-48"/>
      </g>
     </g>
    </g>
    <g id="xtick_3">
     <g id="line2d_3">
      <g>
       <use style="stroke:#000000;stroke-width:2.5;" x="254.196364" xlink:href="#me6088d5805" y="307.584"/>
      </g>
     </g>
     <g id="text_3">
      <!-- 100 -->
      <defs>
       <path d="M 12.40625 8.296875 
L 28.515625 8.296875 
L 28.515625 63.921875 
L 10.984375 60.40625 
L 10.984375 69.390625 
L 28.421875 72.90625 
L 38.28125 72.90625 
L 38.28125 8.296875 
L 54.390625 8.296875 
L 54.390625 0 
L 12.40625 0 
z
" id="DejaVuSans-49"/>
      </defs>
      <g transform="translate(233.200114 339.800562)scale(0.22 -0.22)">
       <use xlink:href="#DejaVuSans-49"/>
       <use x="63.623047" xlink:href="#DejaVuSans-48"/>
       <use x="127.246094" xlink:href="#DejaVuSans-48"/>
      </g>
     </g>
    </g>
    <g id="xtick_4">
     <g id="line2d_4">
      <g>
       <use style="stroke:#000000;stroke-width:2.5;" x="344.378182" xlink:href="#me6088d5805" y="307.584"/>
      </g>
     </g>
     <g id="text_4">
      <!-- 150 -->
      <g transform="translate(323.381932 339.800562)scale(0.22 -0.22)">
       <use xlink:href="#DejaVuSans-49"/>
       <use x="63.623047" xlink:href="#DejaVuSans-53"/>
       <use x="127.246094" xlink:href="#DejaVuSans-48"/>
      </g>
     </g>
    </g>
    <g id="text_5">
     <!-- Degrees -->
     <defs>
      <path d="M 19.671875 64.796875 
L 19.671875 8.109375 
L 31.59375 8.109375 
Q 46.6875 8.109375 53.6875 14.9375 
Q 60.6875 21.78125 60.6875 36.53125 
Q 60.6875 51.171875 53.6875 57.984375 
Q 46.6875 64.796875 31.59375 64.796875 
z
M 9.8125 72.90625 
L 30.078125 72.90625 
Q 51.265625 72.90625 61.171875 64.09375 
Q 71.09375 55.28125 71.09375 36.53125 
Q 71.09375 17.671875 61.125 8.828125 
Q 51.171875 0 30.078125 0 
L 9.8125 0 
z
" id="DejaVuSans-68"/>
      <path d="M 56.203125 29.59375 
L 56.203125 25.203125 
L 14.890625 25.203125 
Q 15.484375 15.921875 20.484375 11.0625 
Q 25.484375 6.203125 34.421875 6.203125 
Q 39.59375 6.203125 44.453125 7.46875 
Q 49.3125 8.734375 54.109375 11.28125 
L 54.109375 2.78125 
Q 49.265625 0.734375 44.1875 -0.34375 
Q 39.109375 -1.421875 33.890625 -1.421875 
Q 20.796875 -1.421875 13.15625 6.1875 
Q 5.515625 13.8125 5.515625 26.8125 
Q 5.515625 40.234375 12.765625 48.109375 
Q 20.015625 56 32.328125 56 
Q 43.359375 56 49.78125 48.890625 
Q 56.203125 41.796875 56.203125 29.59375 
z
M 47.21875 32.234375 
Q 47.125 39.59375 43.09375 43.984375 
Q 39.0625 48.390625 32.421875 48.390625 
Q 24.90625 48.390625 20.390625 44.140625 
Q 15.875 39.890625 15.1875 32.171875 
z
" id="DejaVuSans-101"/>
      <path d="M 45.40625 27.984375 
Q 45.40625 37.75 41.375 43.109375 
Q 37.359375 48.484375 30.078125 48.484375 
Q 22.859375 48.484375 18.828125 43.109375 
Q 14.796875 37.75 14.796875 27.984375 
Q 14.796875 18.265625 18.828125 12.890625 
Q 22.859375 7.515625 30.078125 7.515625 
Q 37.359375 7.515625 41.375 12.890625 
Q 45.40625 18.265625 45.40625 27.984375 
z
M 54.390625 6.78125 
Q 54.390625 -7.171875 48.1875 -13.984375 
Q 42 -20.796875 29.203125 -20.796875 
Q 24.46875 -20.796875 20.265625 -20.09375 
Q 16.0625 -19.390625 12.109375 -17.921875 
L 12.109375 -9.1875 
Q 16.0625 -11.328125 19.921875 -12.34375 
Q 23.78125 -13.375 27.78125 -13.375 
Q 36.625 -13.375 41.015625 -8.765625 
Q 45.40625 -4.15625 45.40625 5.171875 
L 45.40625 9.625 
Q 42.625 4.78125 38.28125 2.390625 
Q 33.9375 0 27.875 0 
Q 17.828125 0 11.671875 7.65625 
Q 5.515625 15.328125 5.515625 27.984375 
Q 5.515625 40.671875 11.671875 48.328125 
Q 17.828125 56 27.875 56 
Q 33.9375 56 38.28125 53.609375 
Q 42.625 51.21875 45.40625 46.390625 
L 45.40625 54.6875 
L 54.390625 54.6875 
z
" id="DejaVuSans-103"/>
      <path d="M 41.109375 46.296875 
Q 39.59375 47.171875 37.8125 47.578125 
Q 36.03125 48 33.890625 48 
Q 26.265625 48 22.1875 43.046875 
Q 18.109375 38.09375 18.109375 28.8125 
L 18.109375 0 
L 9.078125 0 
L 9.078125 54.6875 
L 18.109375 54.6875 
L 18.109375 46.1875 
Q 20.953125 51.171875 25.484375 53.578125 
Q 30.03125 56 36.53125 56 
Q 37.453125 56 38.578125 55.875 
Q 39.703125 55.765625 41.0625 55.515625 
z
" id="DejaVuSans-114"/>
      <path d="M 44.28125 53.078125 
L 44.28125 44.578125 
Q 40.484375 46.53125 36.375 47.5 
Q 32.28125 48.484375 27.875 48.484375 
Q 21.1875 48.484375 17.84375 46.4375 
Q 14.5 44.390625 14.5 40.28125 
Q 14.5 37.15625 16.890625 35.375 
Q 19.28125 33.59375 26.515625 31.984375 
L 29.59375 31.296875 
Q 39.15625 29.25 43.1875 25.515625 
Q 47.21875 21.78125 47.21875 15.09375 
Q 47.21875 7.46875 41.1875 3.015625 
Q 35.15625 -1.421875 24.609375 -1.421875 
Q 20.21875 -1.421875 15.453125 -0.5625 
Q 10.6875 0.296875 5.421875 2 
L 5.421875 11.28125 
Q 10.40625 8.6875 15.234375 7.390625 
Q 20.0625 6.109375 24.8125 6.109375 
Q 31.15625 6.109375 34.5625 8.28125 
Q 37.984375 10.453125 37.984375 14.40625 
Q 37.984375 18.0625 35.515625 20.015625 
Q 33.0625 21.96875 24.703125 23.78125 
L 21.578125 24.515625 
Q 13.234375 26.265625 9.515625 29.90625 
Q 5.8125 33.546875 5.8125 39.890625 
Q 5.8125 47.609375 11.28125 51.796875 
Q 16.75 56 26.8125 56 
Q 31.78125 56 36.171875 55.265625 
Q 40.578125 54.546875 44.28125 53.078125 
z
" id="DejaVuSans-115"/>
     </defs>
     <g transform="translate(185.97 366.612125)scale(0.24 -0.24)">
      <use xlink:href="#DejaVuSans-68"/>
      <use x="77.001953" xlink:href="#DejaVuSans-101"/>
      <use x="138.525391" xlink:href="#DejaVuSans-103"/>
      <use x="202.001953" xlink:href="#DejaVuSans-114"/>
      <use x="243.083984" xlink:href="#DejaVuSans-101"/>
      <use x="304.607422" xlink:href="#DejaVuSans-101"/>
      <use x="366.130859" xlink:href="#DejaVuSans-115"/>
     </g>
    </g>
   </g>
   <g id="matplotlib.axis_2">
    <g id="ytick_1">
     <g id="line2d_5">
      <defs>
       <path d="M 0 0 
L -12 0 
" id="mf8e937bcef" style="stroke:#000000;stroke-width:2.5;"/>
      </defs>
      <g>
       <use style="stroke:#000000;stroke-width:2.5;" x="57.6" xlink:href="#mf8e937bcef" y="285.408"/>
      </g>
     </g>
     <g id="text_6">
      <!-- 0 -->
      <g transform="translate(28.1025 293.766281)scale(0.22 -0.22)">
       <use xlink:href="#DejaVuSans-48"/>
      </g>
     </g>
    </g>
    <g id="ytick_2">
     <g id="line2d_6">
      <g>
       <use style="stroke:#000000;stroke-width:2.5;" x="57.6" xlink:href="#mf8e937bcef" y="239.807856"/>
      </g>
     </g>
     <g id="text_7">
      <!-- 1 -->
      <g transform="translate(28.1025 248.166137)scale(0.22 -0.22)">
       <use xlink:href="#DejaVuSans-49"/>
      </g>
     </g>
    </g>
    <g id="ytick_3">
     <g id="line2d_7">
      <g>
       <use style="stroke:#000000;stroke-width:2.5;" x="57.6" xlink:href="#mf8e937bcef" y="194.207711"/>
      </g>
     </g>
     <g id="text_8">
      <!-- 2 -->
      <defs>
       <path d="M 19.1875 8.296875 
L 53.609375 8.296875 
L 53.609375 0 
L 7.328125 0 
L 7.328125 8.296875 
Q 12.9375 14.109375 22.625 23.890625 
Q 32.328125 33.6875 34.8125 36.53125 
Q 39.546875 41.84375 41.421875 45.53125 
Q 43.3125 49.21875 43.3125 52.78125 
Q 43.3125 58.59375 39.234375 62.25 
Q 35.15625 65.921875 28.609375 65.921875 
Q 23.96875 65.921875 18.8125 64.3125 
Q 13.671875 62.703125 7.8125 59.421875 
L 7.8125 69.390625 
Q 13.765625 71.78125 18.9375 73 
Q 24.125 74.21875 28.421875 74.21875 
Q 39.75 74.21875 46.484375 68.546875 
Q 53.21875 62.890625 53.21875 53.421875 
Q 53.21875 48.921875 51.53125 44.890625 
Q 49.859375 40.875 45.40625 35.40625 
Q 44.1875 33.984375 37.640625 27.21875 
Q 31.109375 20.453125 19.1875 8.296875 
z
" id="DejaVuSans-50"/>
      </defs>
      <g transform="translate(28.1025 202.565992)scale(0.22 -0.22)">
       <use xlink:href="#DejaVuSans-50"/>
      </g>
     </g>
    </g>
    <g id="ytick_4">
     <g id="line2d_8">
      <g>
       <use style="stroke:#000000;stroke-width:2.5;" x="57.6" xlink:href="#mf8e937bcef" y="148.607567"/>
      </g>
     </g>
     <g id="text_9">
      <!-- 3 -->
      <defs>
       <path d="M 40.578125 39.3125 
Q 47.65625 37.796875 51.625 33 
Q 55.609375 28.21875 55.609375 21.1875 
Q 55.609375 10.40625 48.1875 4.484375 
Q 40.765625 -1.421875 27.09375 -1.421875 
Q 22.515625 -1.421875 17.65625 -0.515625 
Q 12.796875 0.390625 7.625 2.203125 
L 7.625 11.71875 
Q 11.71875 9.328125 16.59375 8.109375 
Q 21.484375 6.890625 26.8125 6.890625 
Q 36.078125 6.890625 40.9375 10.546875 
Q 45.796875 14.203125 45.796875 21.1875 
Q 45.796875 27.640625 41.28125 31.265625 
Q 36.765625 34.90625 28.71875 34.90625 
L 20.21875 34.90625 
L 20.21875 43.015625 
L 29.109375 43.015625 
Q 36.375 43.015625 40.234375 45.921875 
Q 44.09375 48.828125 44.09375 54.296875 
Q 44.09375 59.90625 40.109375 62.90625 
Q 36.140625 65.921875 28.71875 65.921875 
Q 24.65625 65.921875 20.015625 65.03125 
Q 15.375 64.15625 9.8125 62.3125 
L 9.8125 71.09375 
Q 15.4375 72.65625 20.34375 73.4375 
Q 25.25 74.21875 29.59375 74.21875 
Q 40.828125 74.21875 47.359375 69.109375 
Q 53.90625 64.015625 53.90625 55.328125 
Q 53.90625 49.265625 50.4375 45.09375 
Q 46.96875 40.921875 40.578125 39.3125 
z
" id="DejaVuSans-51"/>
      </defs>
      <g transform="translate(28.1025 156.965848)scale(0.22 -0.22)">
       <use xlink:href="#DejaVuSans-51"/>
      </g>
     </g>
    </g>
    <g id="ytick_5">
     <g id="line2d_9">
      <g>
       <use style="stroke:#000000;stroke-width:2.5;" x="57.6" xlink:href="#mf8e937bcef" y="103.007422"/>
      </g>
     </g>
     <g id="text_10">
      <!-- 4 -->
      <defs>
       <path d="M 37.796875 64.3125 
L 12.890625 25.390625 
L 37.796875 25.390625 
z
M 35.203125 72.90625 
L 47.609375 72.90625 
L 47.609375 25.390625 
L 58.015625 25.390625 
L 58.015625 17.1875 
L 47.609375 17.1875 
L 47.609375 0 
L 37.796875 0 
L 37.796875 17.1875 
L 4.890625 17.1875 
L 4.890625 26.703125 
z
" id="DejaVuSans-52"/>
      </defs>
      <g transform="translate(28.1025 111.365703)scale(0.22 -0.22)">
       <use xlink:href="#DejaVuSans-52"/>
      </g>
     </g>
    </g>
    <g id="ytick_6">
     <g id="line2d_10">
      <g>
       <use style="stroke:#000000;stroke-width:2.5;" x="57.6" xlink:href="#mf8e937bcef" y="57.407278"/>
      </g>
     </g>
     <g id="text_11">
      <!-- 5 -->
      <g transform="translate(28.1025 65.765559)scale(0.22 -0.22)">
       <use xlink:href="#DejaVuSans-53"/>
      </g>
     </g>
    </g>
    <g id="text_12">
     <!-- Activation -->
     <defs>
      <path d="M 34.1875 63.1875 
L 20.796875 26.90625 
L 47.609375 26.90625 
z
M 28.609375 72.90625 
L 39.796875 72.90625 
L 67.578125 0 
L 57.328125 0 
L 50.6875 18.703125 
L 17.828125 18.703125 
L 11.1875 0 
L 0.78125 0 
z
" id="DejaVuSans-65"/>
      <path d="M 48.78125 52.59375 
L 48.78125 44.1875 
Q 44.96875 46.296875 41.140625 47.34375 
Q 37.3125 48.390625 33.40625 48.390625 
Q 24.65625 48.390625 19.8125 42.84375 
Q 14.984375 37.3125 14.984375 27.296875 
Q 14.984375 17.28125 19.8125 11.734375 
Q 24.65625 6.203125 33.40625 6.203125 
Q 37.3125 6.203125 41.140625 7.25 
Q 44.96875 8.296875 48.78125 10.40625 
L 48.78125 2.09375 
Q 45.015625 0.34375 40.984375 -0.53125 
Q 36.96875 -1.421875 32.421875 -1.421875 
Q 20.0625 -1.421875 12.78125 6.34375 
Q 5.515625 14.109375 5.515625 27.296875 
Q 5.515625 40.671875 12.859375 48.328125 
Q 20.21875 56 33.015625 56 
Q 37.15625 56 41.109375 55.140625 
Q 45.0625 54.296875 48.78125 52.59375 
z
" id="DejaVuSans-99"/>
      <path d="M 18.3125 70.21875 
L 18.3125 54.6875 
L 36.8125 54.6875 
L 36.8125 47.703125 
L 18.3125 47.703125 
L 18.3125 18.015625 
Q 18.3125 11.328125 20.140625 9.421875 
Q 21.96875 7.515625 27.59375 7.515625 
L 36.8125 7.515625 
L 36.8125 0 
L 27.59375 0 
Q 17.1875 0 13.234375 3.875 
Q 9.28125 7.765625 9.28125 18.015625 
L 9.28125 47.703125 
L 2.6875 47.703125 
L 2.6875 54.6875 
L 9.28125 54.6875 
L 9.28125 70.21875 
z
" id="DejaVuSans-116"/>
      <path d="M 9.421875 54.6875 
L 18.40625 54.6875 
L 18.40625 0 
L 9.421875 0 
z
M 9.421875 75.984375 
L 18.40625 75.984375 
L 18.40625 64.59375 
L 9.421875 64.59375 
z
" id="DejaVuSans-105"/>
      <path d="M 2.984375 54.6875 
L 12.5 54.6875 
L 29.59375 8.796875 
L 46.6875 54.6875 
L 56.203125 54.6875 
L 35.6875 0 
L 23.484375 0 
z
" id="DejaVuSans-118"/>
      <path d="M 34.28125 27.484375 
Q 23.390625 27.484375 19.1875 25 
Q 14.984375 22.515625 14.984375 16.5 
Q 14.984375 11.71875 18.140625 8.90625 
Q 21.296875 6.109375 26.703125 6.109375 
Q 34.1875 6.109375 38.703125 11.40625 
Q 43.21875 16.703125 43.21875 25.484375 
L 43.21875 27.484375 
z
M 52.203125 31.203125 
L 52.203125 0 
L 43.21875 0 
L 43.21875 8.296875 
Q 40.140625 3.328125 35.546875 0.953125 
Q 30.953125 -1.421875 24.3125 -1.421875 
Q 15.921875 -1.421875 10.953125 3.296875 
Q 6 8.015625 6 15.921875 
Q 6 25.140625 12.171875 29.828125 
Q 18.359375 34.515625 30.609375 34.515625 
L 43.21875 34.515625 
L 43.21875 35.40625 
Q 43.21875 41.609375 39.140625 45 
Q 35.0625 48.390625 27.6875 48.390625 
Q 23 48.390625 18.546875 47.265625 
Q 14.109375 46.140625 10.015625 43.890625 
L 10.015625 52.203125 
Q 14.9375 54.109375 19.578125 55.046875 
Q 24.21875 56 28.609375 56 
Q 40.484375 56 46.34375 49.84375 
Q 52.203125 43.703125 52.203125 31.203125 
z
" id="DejaVuSans-97"/>
      <path d="M 30.609375 48.390625 
Q 23.390625 48.390625 19.1875 42.75 
Q 14.984375 37.109375 14.984375 27.296875 
Q 14.984375 17.484375 19.15625 11.84375 
Q 23.34375 6.203125 30.609375 6.203125 
Q 37.796875 6.203125 41.984375 11.859375 
Q 46.1875 17.53125 46.1875 27.296875 
Q 46.1875 37.015625 41.984375 42.703125 
Q 37.796875 48.390625 30.609375 48.390625 
z
M 30.609375 56 
Q 42.328125 56 49.015625 48.375 
Q 55.71875 40.765625 55.71875 27.296875 
Q 55.71875 13.875 49.015625 6.21875 
Q 42.328125 -1.421875 30.609375 -1.421875 
Q 18.84375 -1.421875 12.171875 6.21875 
Q 5.515625 13.875 5.515625 27.296875 
Q 5.515625 40.765625 12.171875 48.375 
Q 18.84375 56 30.609375 56 
z
" id="DejaVuSans-111"/>
      <path d="M 54.890625 33.015625 
L 54.890625 0 
L 45.90625 0 
L 45.90625 32.71875 
Q 45.90625 40.484375 42.875 44.328125 
Q 39.84375 48.1875 33.796875 48.1875 
Q 26.515625 48.1875 22.3125 43.546875 
Q 18.109375 38.921875 18.109375 30.90625 
L 18.109375 0 
L 9.078125 0 
L 9.078125 54.6875 
L 18.109375 54.6875 
L 18.109375 46.1875 
Q 21.34375 51.125 25.703125 53.5625 
Q 30.078125 56 35.796875 56 
Q 45.21875 56 50.046875 50.171875 
Q 54.890625 44.34375 54.890625 33.015625 
z
" id="DejaVuSans-110"/>
     </defs>
     <g transform="translate(19.11125 234.813)rotate(-90)scale(0.24 -0.24)">
      <use xlink:href="#DejaVuSans-65"/>
      <use x="68.392578" xlink:href="#DejaVuSans-99"/>
      <use x="123.373047" xlink:href="#DejaVuSans-116"/>
      <use x="162.582031" xlink:href="#DejaVuSans-105"/>
      <use x="190.365234" xlink:href="#DejaVuSans-118"/>
      <use x="249.544922" xlink:href="#DejaVuSans-97"/>
      <use x="310.824219" xlink:href="#DejaVuSans-116"/>
      <use x="350.033203" xlink:href="#DejaVuSans-105"/>
      <use x="377.816406" xlink:href="#DejaVuSans-111"/>
      <use x="438.998047" xlink:href="#DejaVuSans-110"/>
     </g>
    </g>
   </g>
   <g id="line2d_11">
    <path clip-path="url(#pda02e6ea99)" d="M 73.832727 273.804293 
L 90.065455 254.047127 
L 106.298182 247.197563 
L 122.530909 238.351556 
L 138.763636 228.003667 
L 154.996364 226.542171 
L 171.229091 228.670153 
L 187.461818 213.227437 
L 203.694545 208.094547 
L 219.927273 209.042117 
L 236.16 215.837709 
L 252.392727 215.615846 
L 268.625455 216.673396 
L 284.858182 242.247914 
L 301.090909 238.234661 
L 317.323636 258.105781 
L 333.556364 263.135836 
L 349.789091 268.377737 
L 366.021818 265.459255 
L 382.254545 269.143745 
L 398.487273 273.804293 
" style="fill:none;stroke:#0e4db3;stroke-linecap:square;stroke-width:3;"/>
   </g>
   <g id="line2d_12">
    <path clip-path="url(#pda02e6ea99)" d="M 73.832727 276.175184 
L 90.065455 259.994508 
L 106.298182 253.916522 
L 122.530909 247.376904 
L 138.763636 239.387765 
L 154.996364 238.526882 
L 171.229091 239.498479 
L 187.461818 225.802565 
L 203.694545 223.256023 
L 219.927273 222.529725 
L 236.16 226.028005 
L 252.392727 228.264533 
L 268.625455 228.741234 
L 284.858182 250.830541 
L 301.090909 246.848778 
L 317.323636 262.892962 
L 333.556364 266.754979 
L 349.789091 270.256648 
L 366.021818 268.758878 
L 382.254545 271.515392 
L 398.487273 276.175184 
" style="fill:none;stroke:#d44e4e;stroke-linecap:square;stroke-width:3;"/>
   </g>
   <g id="line2d_13">
    <path clip-path="url(#pda02e6ea99)" d="M 73.832727 206.527235 
L 90.065455 205.927795 
L 106.298182 211.244958 
L 122.530909 221.465097 
L 138.763636 223.285535 
L 154.996364 225.517258 
L 171.229091 225.37526 
L 187.461818 213.874202 
L 203.694545 210.064382 
L 219.927273 223.651843 
L 236.16 223.642808 
L 252.392727 221.608302 
L 268.625455 210.29984 
L 284.858182 218.473601 
L 301.090909 208.248439 
L 317.323636 211.806678 
L 333.556364 211.408282 
L 349.789091 198.250859 
L 366.021818 201.988724 
L 382.254545 198.451381 
L 398.487273 206.527235 
" style="fill:none;stroke:#0e4db3;stroke-linecap:square;stroke-width:3;"/>
   </g>
   <g id="line2d_14">
    <path clip-path="url(#pda02e6ea99)" d="M 73.832727 222.96801 
L 90.065455 215.800967 
L 106.298182 224.677207 
L 122.530909 234.637458 
L 138.763636 235.835842 
L 154.996364 237.82822 
L 171.229091 237.825719 
L 187.461818 228.949241 
L 203.694545 226.251868 
L 219.927273 236.64904 
L 236.16 236.611967 
L 252.392727 234.099993 
L 268.625455 225.812126 
L 284.858182 231.004415 
L 301.090909 224.460594 
L 317.323636 227.160864 
L 333.556364 226.72614 
L 349.789091 216.540932 
L 366.021818 218.416502 
L 382.254545 216.49589 
L 398.487273 222.96801 
" style="fill:none;stroke:#d44e4e;stroke-linecap:square;stroke-width:3;"/>
   </g>
   <g id="line2d_15">
    <path clip-path="url(#pda02e6ea99)" d="M 73.832727 205.453241 
L 90.065455 201.590839 
L 106.298182 201.560223 
L 122.530909 201.581423 
L 138.763636 193.128064 
L 154.996364 193.546622 
L 171.229091 192.79061 
L 187.461818 198.454615 
L 203.694545 191.60568 
L 219.927273 194.696366 
L 236.16 199.88841 
L 252.392727 199.978348 
L 268.625455 200.910724 
L 284.858182 206.561231 
L 301.090909 207.597423 
L 317.323636 208.045672 
L 333.556364 207.837133 
L 349.789091 208.493574 
L 366.021818 206.694015 
L 382.254545 205.745087 
L 398.487273 205.453241 
" style="fill:none;stroke:#0e4db3;stroke-linecap:square;stroke-width:3;"/>
   </g>
   <g id="line2d_16">
    <path clip-path="url(#pda02e6ea99)" d="M 73.832727 219.44716 
L 90.065455 216.66616 
L 106.298182 216.433099 
L 122.530909 216.18037 
L 138.763636 210.924122 
L 154.996364 210.837484 
L 171.229091 209.588654 
L 187.461818 213.879883 
L 203.694545 207.760714 
L 219.927273 210.702542 
L 236.16 214.931893 
L 252.392727 214.834019 
L 268.625455 215.679099 
L 284.858182 218.692447 
L 301.090909 219.45545 
L 317.323636 220.487434 
L 333.556364 221.011124 
L 349.789091 221.508014 
L 366.021818 220.030699 
L 382.254545 219.452748 
L 398.487273 219.44716 
" style="fill:none;stroke:#d44e4e;stroke-linecap:square;stroke-width:3;"/>
   </g>
   <g id="line2d_17">
    <path clip-path="url(#pda02e6ea99)" d="M 73.832727 194.903944 
L 90.065455 194.796312 
L 106.298182 195.151628 
L 122.530909 203.63389 
L 138.763636 204.499512 
L 154.996364 206.664058 
L 171.229091 204.772729 
L 187.461818 202.508005 
L 203.694545 196.534841 
L 219.927273 198.645374 
L 236.16 197.793157 
L 252.392727 193.997198 
L 268.625455 192.663398 
L 284.858182 192.736653 
L 301.090909 188.523533 
L 317.323636 187.870305 
L 333.556364 177.777791 
L 349.789091 187.054367 
L 366.021818 186.561652 
L 382.254545 191.001179 
L 398.487273 194.903944 
" style="fill:none;stroke:#0e4db3;stroke-linecap:square;stroke-width:3;"/>
   </g>
   <g id="line2d_18">
    <path clip-path="url(#pda02e6ea99)" d="M 73.832727 213.967999 
L 90.065455 213.964466 
L 106.298182 214.208802 
L 122.530909 220.525497 
L 138.763636 220.938597 
L 154.996364 221.983943 
L 171.229091 221.306242 
L 187.461818 218.430521 
L 203.694545 215.523891 
L 219.927273 216.660333 
L 236.16 216.82675 
L 252.392727 212.689755 
L 268.625455 210.822927 
L 284.858182 210.302618 
L 301.090909 207.958355 
L 317.323636 207.956691 
L 333.556364 201.249069 
L 349.789091 207.41908 
L 366.021818 206.673244 
L 382.254545 210.582885 
L 398.487273 213.967999 
" style="fill:none;stroke:#d44e4e;stroke-linecap:square;stroke-width:3;"/>
   </g>
   <g id="line2d_19">
    <path clip-path="url(#pda02e6ea99)" d="M 73.832727 256.370956 
L 90.065455 255.927026 
L 106.298182 256.326156 
L 122.530909 255.360357 
L 138.763636 244.198155 
L 154.996364 242.751412 
L 171.229091 233.731191 
L 187.461818 236.50994 
L 203.694545 222.839025 
L 219.927273 212.096626 
L 236.16 212.265935 
L 252.392727 200.784104 
L 268.625455 190.667531 
L 284.858182 196.070522 
L 301.090909 182.068319 
L 317.323636 190.20517 
L 333.556364 192.512996 
L 349.789091 230.08328 
L 366.021818 233.555957 
L 382.254545 233.172352 
L 398.487273 256.370956 
" style="fill:none;stroke:#0e4db3;stroke-linecap:square;stroke-width:3;"/>
   </g>
   <g id="line2d_20">
    <path clip-path="url(#pda02e6ea99)" d="M 73.832727 258.859121 
L 90.065455 258.210388 
L 106.298182 258.560583 
L 122.530909 258.139223 
L 138.763636 249.397948 
L 154.996364 248.302958 
L 171.229091 240.406159 
L 187.461818 242.533941 
L 203.694545 231.807393 
L 219.927273 223.953262 
L 236.16 223.974973 
L 252.392727 214.384111 
L 268.625455 206.374201 
L 284.858182 211.600497 
L 301.090909 200.025902 
L 317.323636 205.751849 
L 333.556364 207.99383 
L 349.789091 237.356955 
L 366.021818 240.257358 
L 382.254545 240.228479 
L 398.487273 258.859121 
" style="fill:none;stroke:#d44e4e;stroke-linecap:square;stroke-width:3;"/>
   </g>
   <g id="line2d_21">
    <path clip-path="url(#pda02e6ea99)" d="M 73.832727 285.408 
L 90.065455 285.408 
L 106.298182 285.408 
L 122.530909 285.408 
L 138.763636 285.408 
L 154.996364 285.408 
L 171.229091 285.408 
L 187.461818 285.408 
L 203.694545 285.408 
L 219.927273 285.408 
L 236.16 285.408 
L 252.392727 285.408 
L 268.625455 285.408 
L 284.858182 285.408 
L 301.090909 285.408 
L 317.323636 285.408 
L 333.556364 285.408 
L 349.789091 285.408 
L 366.021818 285.408 
L 382.254545 285.408 
L 398.487273 285.408 
" style="fill:none;stroke:#0e4db3;stroke-linecap:square;stroke-width:3;"/>
   </g>
   <g id="line2d_22">
    <path clip-path="url(#pda02e6ea99)" d="M 73.832727 285.408 
L 90.065455 285.408 
L 106.298182 285.408 
L 122.530909 285.408 
L 138.763636 285.408 
L 154.996364 285.408 
L 171.229091 285.408 
L 187.461818 285.408 
L 203.694545 285.408 
L 219.927273 285.408 
L 236.16 285.408 
L 252.392727 285.408 
L 268.625455 285.408 
L 284.858182 285.408 
L 301.090909 285.408 
L 317.323636 285.408 
L 333.556364 285.408 
L 349.789091 285.408 
L 366.021818 285.408 
L 382.254545 285.408 
L 398.487273 285.408 
" style="fill:none;stroke:#d44e4e;stroke-linecap:square;stroke-width:3;"/>
   </g>
   <g id="line2d_23">
    <path clip-path="url(#pda02e6ea99)" d="M 73.832727 285.408 
L 90.065455 285.000363 
L 106.298182 285.245616 
L 122.530909 285.096471 
L 138.763636 285.271347 
L 154.996364 285.408 
L 171.229091 285.408 
L 187.461818 285.408 
L 203.694545 285.408 
L 219.927273 285.408 
L 236.16 285.408 
L 252.392727 285.408 
L 268.625455 284.460052 
L 284.858182 285.408 
L 301.090909 285.408 
L 317.323636 285.408 
L 333.556364 285.408 
L 349.789091 285.408 
L 366.021818 285.408 
L 382.254545 285.408 
L 398.487273 285.408 
" style="fill:none;stroke:#0e4db3;stroke-linecap:square;stroke-width:3;"/>
   </g>
   <g id="line2d_24">
    <path clip-path="url(#pda02e6ea99)" d="M 73.832727 285.408 
L 90.065455 285.408 
L 106.298182 285.408 
L 122.530909 285.408 
L 138.763636 285.408 
L 154.996364 285.408 
L 171.229091 285.408 
L 187.461818 285.408 
L 203.694545 285.408 
L 219.927273 285.408 
L 236.16 285.408 
L 252.392727 285.408 
L 268.625455 285.408 
L 284.858182 285.408 
L 301.090909 285.408 
L 317.323636 285.408 
L 333.556364 285.408 
L 349.789091 285.408 
L 366.021818 285.408 
L 382.254545 285.408 
L 398.487273 285.408 
" style="fill:none;stroke:#d44e4e;stroke-linecap:square;stroke-width:3;"/>
   </g>
   <g id="line2d_25">
    <path clip-path="url(#pda02e6ea99)" d="M 73.832727 261.993757 
L 90.065455 254.608167 
L 106.298182 243.786935 
L 122.530909 242.744737 
L 138.763636 231.562128 
L 154.996364 229.293446 
L 171.229091 221.793571 
L 187.461818 222.732312 
L 203.694545 211.947312 
L 219.927273 212.495974 
L 236.16 238.097882 
L 252.392727 213.793679 
L 268.625455 225.819079 
L 284.858182 240.713601 
L 301.090909 237.797284 
L 317.323636 248.284682 
L 333.556364 249.57868 
L 349.789091 251.704709 
L 366.021818 252.424449 
L 382.254545 259.479337 
L 398.487273 261.993757 
" style="fill:none;stroke:#0e4db3;stroke-linecap:square;stroke-width:3;"/>
   </g>
   <g id="line2d_26">
    <path clip-path="url(#pda02e6ea99)" d="M 73.832727 262.441843 
L 90.065455 256.790273 
L 106.298182 248.022913 
L 122.530909 246.29031 
L 138.763636 237.966967 
L 154.996364 236.454004 
L 171.229091 230.296832 
L 187.461818 230.558302 
L 203.694545 222.475208 
L 219.927273 222.511645 
L 236.16 243.156918 
L 252.392727 223.708801 
L 268.625455 233.217465 
L 284.858182 245.74358 
L 301.090909 242.866581 
L 317.323636 251.224007 
L 333.556364 252.142589 
L 349.789091 253.000356 
L 366.021818 253.828544 
L 382.254545 259.983805 
L 398.487273 262.441843 
" style="fill:none;stroke:#d44e4e;stroke-linecap:square;stroke-width:3;"/>
   </g>
   <g id="line2d_27">
    <path clip-path="url(#pda02e6ea99)" d="M 73.832727 237.072643 
L 90.065455 233.726016 
L 106.298182 228.691397 
L 122.530909 226.657375 
L 138.763636 229.137825 
L 154.996364 229.273485 
L 171.229091 229.51345 
L 187.461818 234.761958 
L 203.694545 233.945677 
L 219.927273 236.587076 
L 236.16 238.909748 
L 252.392727 236.067643 
L 268.625455 235.46311 
L 284.858182 235.524514 
L 301.090909 235.639702 
L 317.323636 236.095475 
L 333.556364 225.505777 
L 349.789091 231.348511 
L 366.021818 229.523279 
L 382.254545 237.246284 
L 398.487273 237.072643 
" style="fill:none;stroke:#0e4db3;stroke-linecap:square;stroke-width:3;"/>
   </g>
   <g id="line2d_28">
    <path clip-path="url(#pda02e6ea99)" d="M 73.832727 247.393049 
L 90.065455 244.725954 
L 106.298182 240.837628 
L 122.530909 238.511433 
L 138.763636 242.144123 
L 154.996364 242.327945 
L 171.229091 242.248776 
L 187.461818 245.47223 
L 203.694545 243.820519 
L 219.927273 247.673397 
L 236.16 245.901318 
L 252.392727 246.190864 
L 268.625455 246.099366 
L 284.858182 246.727499 
L 301.090909 247.003638 
L 317.323636 246.90793 
L 333.556364 238.686721 
L 349.789091 240.479925 
L 366.021818 240.093928 
L 382.254545 247.394348 
L 398.487273 247.393049 
" style="fill:none;stroke:#d44e4e;stroke-linecap:square;stroke-width:3;"/>
   </g>
   <g id="line2d_29">
    <path clip-path="url(#pda02e6ea99)" d="M 73.832727 283.651609 
L 90.065455 265.131535 
L 106.298182 249.518645 
L 122.530909 250.514535 
L 138.763636 231.5783 
L 154.996364 230.153018 
L 171.229091 230.428649 
L 187.461818 232.129398 
L 203.694545 227.379254 
L 219.927273 227.370845 
L 236.16 234.144922 
L 252.392727 229.68178 
L 268.625455 235.477765 
L 284.858182 249.388389 
L 301.090909 243.789931 
L 317.323636 264.166467 
L 333.556364 264.489558 
L 349.789091 269.501154 
L 366.021818 279.304902 
L 382.254545 270.313573 
L 398.487273 283.651609 
" style="fill:none;stroke:#0e4db3;stroke-linecap:square;stroke-width:3;"/>
   </g>
   <g id="line2d_30">
    <path clip-path="url(#pda02e6ea99)" d="M 73.832727 284.952265 
L 90.065455 270.837589 
L 106.298182 258.254767 
L 122.530909 254.713779 
L 138.763636 244.572437 
L 154.996364 243.336131 
L 171.229091 243.37814 
L 187.461818 243.316583 
L 203.694545 240.038895 
L 219.927273 240.072494 
L 236.16 245.844607 
L 252.392727 241.764899 
L 268.625455 245.390701 
L 284.858182 258.447722 
L 301.090909 252.96187 
L 317.323636 268.570815 
L 333.556364 270.277472 
L 349.789091 274.738652 
L 366.021818 281.393434 
L 382.254545 274.759047 
L 398.487273 284.952265 
" style="fill:none;stroke:#d44e4e;stroke-linecap:square;stroke-width:3;"/>
   </g>
   <g id="line2d_31">
    <path clip-path="url(#pda02e6ea99)" d="M 73.832727 213.163972 
L 90.065455 212.728481 
L 106.298182 208.292041 
L 122.530909 215.352517 
L 138.763636 219.575378 
L 154.996364 234.491252 
L 171.229091 237.116995 
L 187.461818 234.710495 
L 203.694545 211.615837 
L 219.927273 195.807542 
L 236.16 197.033883 
L 252.392727 195.518772 
L 268.625455 211.534461 
L 284.858182 221.355981 
L 301.090909 207.986649 
L 317.323636 203.19212 
L 333.556364 201.966529 
L 349.789091 199.711719 
L 366.021818 194.113441 
L 382.254545 199.335257 
L 398.487273 213.163972 
" style="fill:none;stroke:#0e4db3;stroke-linecap:square;stroke-width:3;"/>
   </g>
   <g id="line2d_32">
    <path clip-path="url(#pda02e6ea99)" d="M 73.832727 223.465629 
L 90.065455 223.45374 
L 106.298182 219.866495 
L 122.530909 224.522907 
L 138.763636 229.28801 
L 154.996364 240.666743 
L 171.229091 242.645308 
L 187.461818 239.625805 
L 203.694545 221.367 
L 219.927273 209.917991 
L 236.16 210.755526 
L 252.392727 209.58344 
L 268.625455 222.090146 
L 284.858182 230.012412 
L 301.090909 219.152835 
L 317.323636 215.488965 
L 333.556364 214.667477 
L 349.789091 212.950986 
L 366.021818 208.023298 
L 382.254545 212.468022 
L 398.487273 223.465629 
" style="fill:none;stroke:#d44e4e;stroke-linecap:square;stroke-width:3;"/>
   </g>
   <g id="line2d_33">
    <path clip-path="url(#pda02e6ea99)" d="M 73.832727 210.850748 
L 90.065455 210.367072 
L 106.298182 218.162566 
L 122.530909 220.341147 
L 138.763636 235.820557 
L 154.996364 246.429688 
L 171.229091 235.59304 
L 187.461818 221.692516 
L 203.694545 215.954185 
L 219.927273 230.522626 
L 236.16 228.781966 
L 252.392727 228.841022 
L 268.625455 237.159722 
L 284.858182 243.39852 
L 301.090909 233.368259 
L 317.323636 231.535785 
L 333.556364 222.002513 
L 349.789091 221.607998 
L 366.021818 216.12401 
L 382.254545 211.155471 
L 398.487273 210.850748 
" style="fill:none;stroke:#0e4db3;stroke-linecap:square;stroke-width:3;"/>
   </g>
   <g id="line2d_34">
    <path clip-path="url(#pda02e6ea99)" d="M 73.832727 222.583443 
L 90.065455 220.537853 
L 106.298182 228.500638 
L 122.530909 225.700901 
L 138.763636 242.425923 
L 154.996364 250.657036 
L 171.229091 241.681207 
L 187.461818 230.161906 
L 203.694545 225.735903 
L 219.927273 237.927568 
L 236.16 236.541164 
L 252.392727 236.280439 
L 268.625455 243.301651 
L 284.858182 247.713596 
L 301.090909 240.691862 
L 317.323636 238.150861 
L 333.556364 231.424473 
L 349.789091 229.780122 
L 366.021818 225.976999 
L 382.254545 220.506444 
L 398.487273 222.583443 
" style="fill:none;stroke:#d44e4e;stroke-linecap:square;stroke-width:3;"/>
   </g>
   <g id="line2d_35">
    <path clip-path="url(#pda02e6ea99)" d="M 73.832727 175.313496 
L 90.065455 175.156604 
L 106.298182 172.688612 
L 122.530909 174.176413 
L 138.763636 174.022608 
L 154.996364 174.101951 
L 171.229091 172.608443 
L 187.461818 173.722336 
L 203.694545 168.604314 
L 219.927273 170.891136 
L 236.16 171.334645 
L 252.392727 171.238667 
L 268.625455 173.090319 
L 284.858182 174.505963 
L 301.090909 173.295276 
L 317.323636 173.887568 
L 333.556364 173.467564 
L 349.789091 174.708648 
L 366.021818 172.921032 
L 382.254545 174.032795 
L 398.487273 175.313496 
" style="fill:none;stroke:#0e4db3;stroke-linecap:square;stroke-width:3;"/>
   </g>
   <g id="line2d_36">
    <path clip-path="url(#pda02e6ea99)" d="M 73.832727 193.017029 
L 90.065455 192.252266 
L 106.298182 190.655648 
L 122.530909 191.636882 
L 138.763636 191.612366 
L 154.996364 191.656593 
L 171.229091 190.49844 
L 187.461818 191.565802 
L 203.694545 187.371186 
L 219.927273 189.452463 
L 236.16 189.679621 
L 252.392727 189.631328 
L 268.625455 189.649158 
L 284.858182 191.447515 
L 301.090909 190.441819 
L 317.323636 191.227609 
L 333.556364 191.111888 
L 349.789091 192.198874 
L 366.021818 190.771347 
L 382.254545 191.867215 
L 398.487273 193.017029 
" style="fill:none;stroke:#d44e4e;stroke-linecap:square;stroke-width:3;"/>
   </g>
   <g id="line2d_37">
    <path clip-path="url(#pda02e6ea99)" d="M 73.832727 232.056752 
L 90.065455 222.324365 
L 106.298182 222.239896 
L 122.530909 228.164756 
L 138.763636 228.98289 
L 154.996364 226.664077 
L 171.229091 226.53362 
L 187.461818 226.201102 
L 203.694545 233.865714 
L 219.927273 233.661795 
L 236.16 235.434125 
L 252.392727 246.527461 
L 268.625455 258.374649 
L 284.858182 262.846523 
L 301.090909 262.969117 
L 317.323636 261.192724 
L 333.556364 259.263953 
L 349.789091 256.270576 
L 366.021818 243.975552 
L 382.254545 232.140308 
L 398.487273 232.056752 
" style="fill:none;stroke:#0e4db3;stroke-linecap:square;stroke-width:3;"/>
   </g>
   <g id="line2d_38">
    <path clip-path="url(#pda02e6ea99)" d="M 73.832727 239.583818 
L 90.065455 231.781697 
L 106.298182 232.087574 
L 122.530909 234.163741 
L 138.763636 237.275138 
L 154.996364 235.251042 
L 171.229091 235.012457 
L 187.461818 234.512496 
L 203.694545 240.663666 
L 219.927273 240.67653 
L 236.16 242.294329 
L 252.392727 251.064804 
L 268.625455 260.571802 
L 284.858182 263.864218 
L 301.090909 263.913714 
L 317.323636 262.387225 
L 333.556364 261.029934 
L 349.789091 258.478631 
L 366.021818 248.448427 
L 382.254545 238.765613 
L 398.487273 239.583818 
" style="fill:none;stroke:#d44e4e;stroke-linecap:square;stroke-width:3;"/>
   </g>
   <g id="line2d_39">
    <path clip-path="url(#pda02e6ea99)" d="M 73.832727 143.224139 
L 90.065455 143.204548 
L 106.298182 142.934554 
L 122.530909 146.087216 
L 138.763636 145.12741 
L 154.996364 145.639858 
L 171.229091 145.847403 
L 187.461818 146.843249 
L 203.694545 143.43849 
L 219.927273 145.573844 
L 236.16 145.698436 
L 252.392727 145.127899 
L 268.625455 145.335162 
L 284.858182 149.107414 
L 301.090909 146.113613 
L 317.323636 145.94649 
L 333.556364 145.109308 
L 349.789091 145.191968 
L 366.021818 143.010147 
L 382.254545 143.201917 
L 398.487273 143.224139 
" style="fill:none;stroke:#0e4db3;stroke-linecap:square;stroke-width:3;"/>
   </g>
   <g id="line2d_40">
    <path clip-path="url(#pda02e6ea99)" d="M 73.832727 169.814022 
L 90.065455 169.810641 
L 106.298182 169.521958 
L 122.530909 171.757932 
L 138.763636 170.639298 
L 154.996364 171.637906 
L 171.229091 171.350039 
L 187.461818 172.813531 
L 203.694545 169.676133 
L 219.927273 171.824447 
L 236.16 172.052409 
L 252.392727 171.314358 
L 268.625455 170.111054 
L 284.858182 172.103725 
L 301.090909 171.064804 
L 317.323636 171.068739 
L 333.556364 170.722947 
L 349.789091 171.111792 
L 366.021818 169.23831 
L 382.254545 169.64554 
L 398.487273 169.814022 
" style="fill:none;stroke:#d44e4e;stroke-linecap:square;stroke-width:3;"/>
   </g>
   <g id="line2d_41">
    <path clip-path="url(#pda02e6ea99)" d="M 73.832727 285.408 
L 90.065455 285.408 
L 106.298182 285.408 
L 122.530909 285.408 
L 138.763636 285.408 
L 154.996364 285.408 
L 171.229091 285.408 
L 187.461818 285.408 
L 203.694545 285.408 
L 219.927273 285.408 
L 236.16 285.408 
L 252.392727 285.408 
L 268.625455 283.341566 
L 284.858182 284.816767 
L 301.090909 285.408 
L 317.323636 285.408 
L 333.556364 285.408 
L 349.789091 285.408 
L 366.021818 285.408 
L 382.254545 285.408 
L 398.487273 285.408 
" style="fill:none;stroke:#0e4db3;stroke-linecap:square;stroke-width:3;"/>
   </g>
   <g id="line2d_42">
    <path clip-path="url(#pda02e6ea99)" d="M 73.832727 285.408 
L 90.065455 285.408 
L 106.298182 285.408 
L 122.530909 285.408 
L 138.763636 285.408 
L 154.996364 285.408 
L 171.229091 285.408 
L 187.461818 285.408 
L 203.694545 285.408 
L 219.927273 285.408 
L 236.16 285.408 
L 252.392727 285.408 
L 268.625455 285.408 
L 284.858182 285.408 
L 301.090909 285.408 
L 317.323636 285.408 
L 333.556364 285.408 
L 349.789091 285.408 
L 366.021818 285.408 
L 382.254545 285.408 
L 398.487273 285.408 
" style="fill:none;stroke:#d44e4e;stroke-linecap:square;stroke-width:3;"/>
   </g>
   <g id="line2d_43">
    <path clip-path="url(#pda02e6ea99)" d="M 73.832727 229.911885 
L 90.065455 189.226175 
L 106.298182 198.959785 
L 122.530909 209.967872 
L 138.763636 212.065734 
L 154.996364 241.288437 
L 171.229091 250.973917 
L 187.461818 250.751249 
L 203.694545 220.940342 
L 219.927273 193.620758 
L 236.16 195.151024 
L 252.392727 192.684316 
L 268.625455 208.125271 
L 284.858182 225.216769 
L 301.090909 209.001466 
L 317.323636 201.712403 
L 333.556364 200.05749 
L 349.789091 206.195842 
L 366.021818 184.054358 
L 382.254545 203.683374 
L 398.487273 229.911885 
" style="fill:none;stroke:#0e4db3;stroke-linecap:square;stroke-width:3;"/>
   </g>
   <g id="line2d_44">
    <path clip-path="url(#pda02e6ea99)" d="M 73.832727 241.688233 
L 90.065455 208.747254 
L 106.298182 214.775158 
L 122.530909 225.033023 
L 138.763636 227.832412 
L 154.996364 251.420199 
L 171.229091 259.182074 
L 187.461818 256.066559 
L 203.694545 232.65911 
L 219.927273 212.747893 
L 236.16 213.888042 
L 252.392727 211.906884 
L 268.625455 223.88123 
L 284.858182 237.704073 
L 301.090909 224.548429 
L 317.323636 218.774916 
L 333.556364 217.633375 
L 349.789091 221.146398 
L 366.021818 204.355568 
L 382.254545 220.061092 
L 398.487273 241.688233 
" style="fill:none;stroke:#d44e4e;stroke-linecap:square;stroke-width:3;"/>
   </g>
   <g id="line2d_45">
    <path clip-path="url(#pda02e6ea99)" d="M 73.832727 261.554941 
L 90.065455 242.575934 
L 106.298182 249.0293 
L 122.530909 248.512085 
L 138.763636 252.958891 
L 154.996364 255.110504 
L 171.229091 260.39055 
L 187.461818 265.664982 
L 203.694545 263.342255 
L 219.927273 253.571529 
L 236.16 254.347224 
L 252.392727 254.080868 
L 268.625455 257.398353 
L 284.858182 248.678403 
L 301.090909 255.688265 
L 317.323636 265.683877 
L 333.556364 265.767409 
L 349.789091 260.635707 
L 366.021818 257.093602 
L 382.254545 256.60093 
L 398.487273 261.554941 
" style="fill:none;stroke:#0e4db3;stroke-linecap:square;stroke-width:3;"/>
   </g>
   <g id="line2d_46">
    <path clip-path="url(#pda02e6ea99)" d="M 73.832727 267.614176 
L 90.065455 249.32082 
L 106.298182 254.632819 
L 122.530909 256.477681 
L 138.763636 260.532576 
L 154.996364 262.514946 
L 171.229091 266.02625 
L 187.461818 270.611412 
L 203.694545 268.239317 
L 219.927273 261.048862 
L 236.16 261.621654 
L 252.392727 261.413291 
L 268.625455 263.823262 
L 284.858182 256.857912 
L 301.090909 262.737461 
L 317.323636 270.163251 
L 333.556364 270.431802 
L 349.789091 266.370444 
L 366.021818 263.342728 
L 382.254545 263.149988 
L 398.487273 267.614176 
" style="fill:none;stroke:#d44e4e;stroke-linecap:square;stroke-width:3;"/>
   </g>
   <g id="line2d_47">
    <path clip-path="url(#pda02e6ea99)" d="M 73.832727 258.505166 
L 90.065455 245.654514 
L 106.298182 229.067163 
L 122.530909 223.042619 
L 138.763636 214.518407 
L 154.996364 211.14361 
L 171.229091 219.951976 
L 187.461818 231.894532 
L 203.694545 234.167981 
L 219.927273 219.349747 
L 236.16 219.260478 
L 252.392727 226.305668 
L 268.625455 222.935193 
L 284.858182 234.482788 
L 301.090909 239.216102 
L 317.323636 268.53196 
L 333.556364 267.083125 
L 349.789091 268.342127 
L 366.021818 255.233196 
L 382.254545 258.642933 
L 398.487273 258.505166 
" style="fill:none;stroke:#0e4db3;stroke-linecap:square;stroke-width:3;"/>
   </g>
   <g id="line2d_48">
    <path clip-path="url(#pda02e6ea99)" d="M 73.832727 263.633087 
L 90.065455 253.598747 
L 106.298182 232.250158 
L 122.530909 233.704544 
L 138.763636 229.394859 
L 154.996364 226.582652 
L 171.229091 233.395248 
L 187.461818 240.960929 
L 203.694545 243.956486 
L 219.927273 232.658306 
L 236.16 232.654185 
L 252.392727 237.836689 
L 268.625455 235.014045 
L 284.858182 243.66838 
L 301.090909 246.93022 
L 317.323636 272.387028 
L 333.556364 270.809348 
L 349.789091 270.450902 
L 366.021818 259.106574 
L 382.254545 262.844599 
L 398.487273 263.633087 
" style="fill:none;stroke:#d44e4e;stroke-linecap:square;stroke-width:3;"/>
   </g>
   <g id="line2d_49">
    <path clip-path="url(#pda02e6ea99)" d="M 73.832727 232.439378 
L 90.065455 232.036698 
L 106.298182 231.880713 
L 122.530909 237.034803 
L 138.763636 231.992129 
L 154.996364 243.873144 
L 171.229091 245.010407 
L 187.461818 245.244463 
L 203.694545 244.447986 
L 219.927273 243.998324 
L 236.16 243.634223 
L 252.392727 237.730976 
L 268.625455 234.685637 
L 284.858182 239.479708 
L 301.090909 231.718956 
L 317.323636 231.907502 
L 333.556364 231.943227 
L 349.789091 233.195863 
L 366.021818 228.150215 
L 382.254545 232.099293 
L 398.487273 232.439378 
" style="fill:none;stroke:#0e4db3;stroke-linecap:square;stroke-width:3;"/>
   </g>
   <g id="line2d_50">
    <path clip-path="url(#pda02e6ea99)" d="M 73.832727 240.32861 
L 90.065455 237.29306 
L 106.298182 237.104117 
L 122.530909 238.994745 
L 138.763636 240.259801 
L 154.996364 249.457963 
L 171.229091 250.135784 
L 187.461818 250.3179 
L 203.694545 250.224817 
L 219.927273 249.919743 
L 236.16 249.961882 
L 252.392727 244.041898 
L 268.625455 242.043193 
L 284.858182 245.535293 
L 301.090909 239.66707 
L 317.323636 239.683464 
L 333.556364 239.690124 
L 349.789091 241.010692 
L 366.021818 236.390696 
L 382.254545 239.803099 
L 398.487273 240.32861 
" style="fill:none;stroke:#d44e4e;stroke-linecap:square;stroke-width:3;"/>
   </g>
   <g id="line2d_51">
    <path clip-path="url(#pda02e6ea99)" d="M 73.832727 285.408 
L 90.065455 285.408 
L 106.298182 285.408 
L 122.530909 285.408 
L 138.763636 285.408 
L 154.996364 285.408 
L 171.229091 285.408 
L 187.461818 285.408 
L 203.694545 285.408 
L 219.927273 285.408 
L 236.16 285.408 
L 252.392727 285.408 
L 268.625455 285.408 
L 284.858182 285.408 
L 301.090909 285.408 
L 317.323636 285.408 
L 333.556364 285.408 
L 349.789091 285.408 
L 366.021818 285.408 
L 382.254545 285.408 
L 398.487273 285.408 
" style="fill:none;stroke:#0e4db3;stroke-linecap:square;stroke-width:3;"/>
   </g>
   <g id="line2d_52">
    <path clip-path="url(#pda02e6ea99)" d="M 73.832727 285.408 
L 90.065455 285.408 
L 106.298182 285.408 
L 122.530909 285.408 
L 138.763636 285.408 
L 154.996364 285.408 
L 171.229091 285.408 
L 187.461818 285.408 
L 203.694545 285.408 
L 219.927273 285.408 
L 236.16 285.408 
L 252.392727 285.408 
L 268.625455 285.408 
L 284.858182 285.408 
L 301.090909 285.408 
L 317.323636 285.408 
L 333.556364 285.408 
L 349.789091 285.408 
L 366.021818 285.408 
L 382.254545 285.408 
L 398.487273 285.408 
" style="fill:none;stroke:#d44e4e;stroke-linecap:square;stroke-width:3;"/>
   </g>
   <g id="line2d_53">
    <path clip-path="url(#pda02e6ea99)" d="M 73.832727 215.012133 
L 90.065455 150.690942 
L 106.298182 152.454085 
L 122.530909 147.312993 
L 138.763636 122.910356 
L 154.996364 141.526293 
L 171.229091 183.450706 
L 187.461818 246.726969 
L 203.694545 216.716546 
L 219.927273 190.338394 
L 236.16 186.511467 
L 252.392727 159.311615 
L 268.625455 137.588939 
L 284.858182 124.725271 
L 301.090909 146.329736 
L 317.323636 189.649962 
L 333.556364 260.455268 
L 349.789091 285.408 
L 366.021818 264.187182 
L 382.254545 211.268773 
L 398.487273 215.012133 
" style="fill:none;stroke:#0e4db3;stroke-linecap:square;stroke-width:3;"/>
   </g>
   <g id="line2d_54">
    <path clip-path="url(#pda02e6ea99)" d="M 73.832727 285.408 
L 90.065455 232.170276 
L 106.298182 237.032743 
L 122.530909 220.204797 
L 138.763636 260.978137 
L 154.996364 280.444374 
L 171.229091 285.408 
L 187.461818 285.408 
L 203.694545 285.408 
L 219.927273 285.408 
L 236.16 283.862071 
L 252.392727 261.411136 
L 268.625455 247.575659 
L 284.858182 250.377312 
L 301.090909 263.483989 
L 317.323636 285.408 
L 333.556364 285.408 
L 349.789091 285.408 
L 366.021818 285.408 
L 382.254545 285.408 
L 398.487273 285.408 
" style="fill:none;stroke:#d44e4e;stroke-linecap:square;stroke-width:3;"/>
   </g>
   <g id="line2d_55">
    <path clip-path="url(#pda02e6ea99)" d="M 73.832727 285.408 
L 90.065455 285.408 
L 106.298182 285.408 
L 122.530909 285.408 
L 138.763636 285.408 
L 154.996364 285.408 
L 171.229091 285.408 
L 187.461818 285.408 
L 203.694545 285.408 
L 219.927273 285.408 
L 236.16 285.408 
L 252.392727 285.408 
L 268.625455 285.408 
L 284.858182 285.408 
L 301.090909 285.408 
L 317.323636 285.408 
L 333.556364 285.408 
L 349.789091 285.408 
L 366.021818 285.408 
L 382.254545 285.408 
L 398.487273 285.408 
" style="fill:none;stroke:#0e4db3;stroke-linecap:square;stroke-width:3;"/>
   </g>
   <g id="line2d_56">
    <path clip-path="url(#pda02e6ea99)" d="M 73.832727 285.408 
L 90.065455 285.408 
L 106.298182 285.408 
L 122.530909 285.408 
L 138.763636 285.408 
L 154.996364 285.408 
L 171.229091 285.408 
L 187.461818 285.408 
L 203.694545 285.408 
L 219.927273 285.408 
L 236.16 285.408 
L 252.392727 285.408 
L 268.625455 285.408 
L 284.858182 285.408 
L 301.090909 285.408 
L 317.323636 285.408 
L 333.556364 285.408 
L 349.789091 285.408 
L 366.021818 285.408 
L 382.254545 285.408 
L 398.487273 285.408 
" style="fill:none;stroke:#d44e4e;stroke-linecap:square;stroke-width:3;"/>
   </g>
   <g id="line2d_57">
    <path clip-path="url(#pda02e6ea99)" d="M 73.832727 285.408 
L 90.065455 285.408 
L 106.298182 285.408 
L 122.530909 285.408 
L 138.763636 285.408 
L 154.996364 285.408 
L 171.229091 285.408 
L 187.461818 285.408 
L 203.694545 285.408 
L 219.927273 285.408 
L 236.16 285.408 
L 252.392727 285.408 
L 268.625455 285.408 
L 284.858182 285.408 
L 301.090909 285.408 
L 317.323636 285.408 
L 333.556364 285.408 
L 349.789091 285.408 
L 366.021818 285.408 
L 382.254545 285.408 
L 398.487273 285.408 
" style="fill:none;stroke:#0e4db3;stroke-linecap:square;stroke-width:3;"/>
   </g>
   <g id="line2d_58">
    <path clip-path="url(#pda02e6ea99)" d="M 73.832727 285.408 
L 90.065455 285.408 
L 106.298182 285.408 
L 122.530909 285.408 
L 138.763636 285.408 
L 154.996364 285.408 
L 171.229091 285.408 
L 187.461818 285.408 
L 203.694545 285.408 
L 219.927273 285.408 
L 236.16 285.408 
L 252.392727 285.408 
L 268.625455 285.408 
L 284.858182 285.408 
L 301.090909 285.408 
L 317.323636 285.408 
L 333.556364 285.408 
L 349.789091 285.408 
L 366.021818 285.408 
L 382.254545 285.408 
L 398.487273 285.408 
" style="fill:none;stroke:#d44e4e;stroke-linecap:square;stroke-width:3;"/>
   </g>
   <g id="line2d_59">
    <path clip-path="url(#pda02e6ea99)" d="M 73.832727 45.146947 
L 90.065455 119.363206 
L 106.298182 190.858507 
L 122.530909 201.337186 
L 138.763636 197.269364 
L 154.996364 199.820265 
L 171.229091 195.03657 
L 187.461818 207.488068 
L 203.694545 219.404058 
L 219.927273 174.362236 
L 236.16 163.004557 
L 252.392727 149.581876 
L 268.625455 182.2116 
L 284.858182 147.420483 
L 301.090909 97.317058 
L 317.323636 34.477808 
L 328.909675 -1 
M 354.495094 -1 
L 366.021818 7.922661 
L 382.254545 24.3295 
L 398.487273 45.146947 
" style="fill:none;stroke:#0e4db3;stroke-linecap:square;stroke-width:3;"/>
   </g>
   <g id="line2d_60">
    <path clip-path="url(#pda02e6ea99)" d="M 73.832727 285.408 
L 90.065455 285.408 
L 106.298182 285.408 
L 122.530909 285.408 
L 138.763636 285.408 
L 154.996364 285.408 
L 171.229091 285.408 
L 187.461818 285.408 
L 203.694545 285.408 
L 219.927273 285.408 
L 236.16 285.408 
L 252.392727 285.408 
L 268.625455 285.408 
L 284.858182 285.408 
L 301.090909 285.408 
L 317.323636 219.667333 
L 333.556364 251.371952 
L 349.789091 222.019076 
L 366.021818 216.262225 
L 382.254545 243.395122 
L 398.487273 285.408 
" style="fill:none;stroke:#d44e4e;stroke-linecap:square;stroke-width:3;"/>
   </g>
   <g id="line2d_61">
    <path clip-path="url(#pda02e6ea99)" d="M 73.832727 285.408 
L 90.065455 285.408 
L 106.298182 285.408 
L 122.530909 285.408 
L 138.763636 285.408 
L 154.996364 285.408 
L 171.229091 285.408 
L 187.461818 285.408 
L 203.694545 285.408 
L 219.927273 285.408 
L 236.16 285.408 
L 252.392727 285.408 
L 268.625455 285.408 
L 284.858182 285.408 
L 301.090909 285.408 
L 317.323636 285.408 
L 333.556364 285.408 
L 349.789091 285.408 
L 366.021818 285.408 
L 382.254545 285.408 
L 398.487273 285.408 
" style="fill:none;stroke:#0e4db3;stroke-linecap:square;stroke-width:3;"/>
   </g>
   <g id="line2d_62">
    <path clip-path="url(#pda02e6ea99)" d="M 73.832727 285.408 
L 90.065455 285.408 
L 106.298182 285.408 
L 122.530909 285.408 
L 138.763636 285.408 
L 154.996364 285.408 
L 171.229091 285.408 
L 187.461818 285.408 
L 203.694545 285.408 
L 219.927273 285.408 
L 236.16 285.408 
L 252.392727 285.408 
L 268.625455 285.408 
L 284.858182 285.408 
L 301.090909 285.408 
L 317.323636 285.408 
L 333.556364 285.408 
L 349.789091 285.408 
L 366.021818 285.408 
L 382.254545 285.408 
L 398.487273 285.408 
" style="fill:none;stroke:#d44e4e;stroke-linecap:square;stroke-width:3;"/>
   </g>
   <g id="line2d_63">
    <path clip-path="url(#pda02e6ea99)" d="M 73.832727 285.408 
L 90.065455 285.408 
L 106.298182 285.408 
L 122.530909 285.408 
L 138.763636 285.408 
L 154.996364 285.408 
L 171.229091 285.408 
L 187.461818 285.408 
L 203.694545 285.408 
L 219.927273 285.408 
L 236.16 285.408 
L 252.392727 285.408 
L 268.625455 285.408 
L 284.858182 285.408 
L 301.090909 285.408 
L 317.323636 285.408 
L 333.556364 285.408 
L 349.789091 285.408 
L 366.021818 285.408 
L 382.254545 285.408 
L 398.487273 285.408 
" style="fill:none;stroke:#0e4db3;stroke-linecap:square;stroke-width:3;"/>
   </g>
   <g id="line2d_64">
    <path clip-path="url(#pda02e6ea99)" d="M 73.832727 285.408 
L 90.065455 285.408 
L 106.298182 285.408 
L 122.530909 285.408 
L 138.763636 285.408 
L 154.996364 285.408 
L 171.229091 285.408 
L 187.461818 285.408 
L 203.694545 285.408 
L 219.927273 285.408 
L 236.16 285.408 
L 252.392727 285.408 
L 268.625455 285.408 
L 284.858182 285.408 
L 301.090909 285.408 
L 317.323636 285.408 
L 333.556364 285.408 
L 349.789091 285.408 
L 366.021818 285.408 
L 382.254545 285.408 
L 398.487273 285.408 
" style="fill:none;stroke:#d44e4e;stroke-linecap:square;stroke-width:3;"/>
   </g>
   <g id="line2d_65">
    <path clip-path="url(#pda02e6ea99)" d="M 73.832727 255.119525 
L 90.065455 255.22321 
L 106.298182 261.190659 
L 122.530909 269.243861 
L 138.763636 269.157796 
L 154.996364 270.530422 
L 171.229091 260.689039 
L 187.461818 237.305911 
L 203.694545 188.490168 
L 219.927273 153.840331 
L 236.16 197.151143 
L 252.392727 133.601205 
L 268.625455 141.652277 
L 284.858182 144.52005 
L 301.090909 145.136706 
L 317.323636 165.644488 
L 333.556364 178.550035 
L 349.789091 201.581288 
L 366.021818 213.610732 
L 382.254545 234.230973 
L 398.487273 255.119525 
" style="fill:none;stroke:#0e4db3;stroke-linecap:square;stroke-width:3;"/>
   </g>
   <g id="line2d_66">
    <path clip-path="url(#pda02e6ea99)" d="M 73.832727 283.933877 
L 90.065455 274.515176 
L 106.298182 283.18998 
L 122.530909 278.464068 
L 138.763636 278.000095 
L 154.996364 278.657924 
L 171.229091 284.028149 
L 187.461818 284.345237 
L 203.694545 284.171872 
L 219.927273 242.234564 
L 236.16 283.384902 
L 252.392727 224.336861 
L 268.625455 236.2072 
L 284.858182 249.817734 
L 301.090909 256.812631 
L 317.323636 248.492667 
L 333.556364 259.949275 
L 349.789091 251.694812 
L 366.021818 260.425944 
L 382.254545 265.771778 
L 398.487273 283.933877 
" style="fill:none;stroke:#d44e4e;stroke-linecap:square;stroke-width:3;"/>
   </g>
   <g id="line2d_67">
    <path clip-path="url(#pda02e6ea99)" d="M 73.832727 285.408 
L 90.065455 285.408 
L 106.298182 285.408 
L 122.530909 285.408 
L 138.763636 285.408 
L 154.996364 285.408 
L 171.229091 285.408 
L 187.461818 285.408 
L 203.694545 285.408 
L 219.927273 285.408 
L 236.16 285.408 
L 252.392727 285.408 
L 268.625455 285.408 
L 284.858182 285.408 
L 301.090909 285.408 
L 317.323636 285.408 
L 333.556364 285.408 
L 349.789091 285.408 
L 366.021818 285.408 
L 382.254545 285.408 
L 398.487273 285.408 
" style="fill:none;stroke:#0e4db3;stroke-linecap:square;stroke-width:3;"/>
   </g>
   <g id="line2d_68">
    <path clip-path="url(#pda02e6ea99)" d="M 73.832727 285.408 
L 90.065455 285.408 
L 106.298182 285.408 
L 122.530909 285.408 
L 138.763636 285.408 
L 154.996364 285.408 
L 171.229091 285.408 
L 187.461818 285.408 
L 203.694545 285.408 
L 219.927273 285.408 
L 236.16 285.408 
L 252.392727 285.408 
L 268.625455 285.408 
L 284.858182 285.408 
L 301.090909 285.408 
L 317.323636 285.408 
L 333.556364 285.408 
L 349.789091 285.408 
L 366.021818 285.408 
L 382.254545 285.408 
L 398.487273 285.408 
" style="fill:none;stroke:#d44e4e;stroke-linecap:square;stroke-width:3;"/>
   </g>
   <g id="line2d_69">
    <path clip-path="url(#pda02e6ea99)" d="M 73.832727 285.408 
L 90.065455 285.408 
L 106.298182 285.408 
L 122.530909 285.408 
L 138.763636 285.408 
L 154.996364 285.408 
L 171.229091 285.408 
L 187.461818 285.408 
L 203.694545 285.408 
L 219.927273 285.408 
L 236.16 285.408 
L 252.392727 285.408 
L 268.625455 285.408 
L 284.858182 285.408 
L 301.090909 285.408 
L 317.323636 285.408 
L 333.556364 285.408 
L 349.789091 285.408 
L 366.021818 285.408 
L 382.254545 285.408 
L 398.487273 285.408 
" style="fill:none;stroke:#0e4db3;stroke-linecap:square;stroke-width:3;"/>
   </g>
   <g id="line2d_70">
    <path clip-path="url(#pda02e6ea99)" d="M 73.832727 285.408 
L 90.065455 285.408 
L 106.298182 285.408 
L 122.530909 285.408 
L 138.763636 285.408 
L 154.996364 285.408 
L 171.229091 285.408 
L 187.461818 285.408 
L 203.694545 285.408 
L 219.927273 285.408 
L 236.16 285.408 
L 252.392727 285.408 
L 268.625455 285.408 
L 284.858182 285.408 
L 301.090909 285.408 
L 317.323636 285.408 
L 333.556364 285.408 
L 349.789091 285.408 
L 366.021818 285.408 
L 382.254545 285.408 
L 398.487273 285.408 
" style="fill:none;stroke:#d44e4e;stroke-linecap:square;stroke-width:3;"/>
   </g>
   <g id="line2d_71">
    <path clip-path="url(#pda02e6ea99)" d="M 73.832727 285.408 
L 90.065455 285.408 
L 106.298182 285.408 
L 122.530909 285.408 
L 138.763636 285.408 
L 154.996364 285.408 
L 171.229091 285.408 
L 187.461818 285.408 
L 203.694545 285.408 
L 219.927273 285.408 
L 236.16 285.408 
L 252.392727 285.408 
L 268.625455 285.408 
L 284.858182 285.408 
L 301.090909 285.408 
L 317.323636 285.408 
L 333.556364 285.408 
L 349.789091 285.408 
L 366.021818 285.408 
L 382.254545 285.408 
L 398.487273 285.408 
" style="fill:none;stroke:#0e4db3;stroke-linecap:square;stroke-width:3;"/>
   </g>
   <g id="line2d_72">
    <path clip-path="url(#pda02e6ea99)" d="M 73.832727 285.408 
L 90.065455 285.408 
L 106.298182 285.408 
L 122.530909 285.408 
L 138.763636 285.408 
L 154.996364 285.408 
L 171.229091 285.408 
L 187.461818 285.408 
L 203.694545 285.408 
L 219.927273 285.408 
L 236.16 285.408 
L 252.392727 285.408 
L 268.625455 285.408 
L 284.858182 285.408 
L 301.090909 285.408 
L 317.323636 285.408 
L 333.556364 285.408 
L 349.789091 285.408 
L 366.021818 285.408 
L 382.254545 285.408 
L 398.487273 285.408 
" style="fill:none;stroke:#d44e4e;stroke-linecap:square;stroke-width:3;"/>
   </g>
   <g id="line2d_73">
    <path clip-path="url(#pda02e6ea99)" d="M 73.832727 285.408 
L 90.065455 285.408 
L 106.298182 285.408 
L 122.530909 285.408 
L 138.763636 285.408 
L 154.996364 285.408 
L 171.229091 285.408 
L 187.461818 285.408 
L 203.694545 285.408 
L 219.927273 285.408 
L 236.16 285.408 
L 252.392727 285.408 
L 268.625455 285.408 
L 284.858182 285.408 
L 301.090909 285.408 
L 317.323636 285.408 
L 333.556364 285.408 
L 349.789091 285.408 
L 366.021818 285.408 
L 382.254545 285.408 
L 398.487273 285.408 
" style="fill:none;stroke:#0e4db3;stroke-linecap:square;stroke-width:3;"/>
   </g>
   <g id="line2d_74">
    <path clip-path="url(#pda02e6ea99)" d="M 73.832727 285.408 
L 90.065455 285.408 
L 106.298182 285.408 
L 122.530909 285.408 
L 138.763636 285.408 
L 154.996364 285.408 
L 171.229091 285.408 
L 187.461818 285.408 
L 203.694545 285.408 
L 219.927273 285.408 
L 236.16 285.408 
L 252.392727 285.408 
L 268.625455 285.408 
L 284.858182 285.408 
L 301.090909 285.408 
L 317.323636 285.408 
L 333.556364 285.408 
L 349.789091 285.408 
L 366.021818 285.408 
L 382.254545 285.408 
L 398.487273 285.408 
" style="fill:none;stroke:#d44e4e;stroke-linecap:square;stroke-width:3;"/>
   </g>
   <g id="line2d_75">
    <path clip-path="url(#pda02e6ea99)" d="M 73.832727 198.055534 
L 90.065455 171.642896 
L 106.298182 125.556125 
L 122.530909 132.698814 
L 138.763636 91.069596 
L 154.996364 94.035369 
L 171.229091 123.077098 
L 187.461818 183.085822 
L 203.694545 154.896832 
L 219.927273 154.414021 
L 236.16 186.888375 
L 252.392727 167.440594 
L 268.625455 175.48486 
L 284.858182 201.585022 
L 301.090909 203.824247 
L 317.323636 233.680033 
L 333.556364 221.449828 
L 349.789091 211.975975 
L 366.021818 193.148851 
L 382.254545 193.030652 
L 398.487273 198.055534 
" style="fill:none;stroke:#0e4db3;stroke-linecap:square;stroke-width:3;"/>
   </g>
   <g id="line2d_76">
    <path clip-path="url(#pda02e6ea99)" d="M 73.832727 285.408 
L 90.065455 285.408 
L 106.298182 285.408 
L 122.530909 285.408 
L 138.763636 285.408 
L 154.996364 285.408 
L 171.229091 285.408 
L 187.461818 285.408 
L 203.694545 285.408 
L 219.927273 285.408 
L 236.16 285.408 
L 252.392727 285.408 
L 268.625455 285.408 
L 284.858182 285.408 
L 301.090909 285.408 
L 317.323636 285.408 
L 333.556364 285.408 
L 349.789091 285.408 
L 366.021818 285.408 
L 382.254545 285.408 
L 398.487273 285.408 
" style="fill:none;stroke:#d44e4e;stroke-linecap:square;stroke-width:3;"/>
   </g>
   <g id="line2d_77">
    <path clip-path="url(#pda02e6ea99)" d="M 73.832727 285.408 
L 90.065455 285.408 
L 106.298182 285.408 
L 122.530909 285.408 
L 138.763636 285.408 
L 154.996364 285.408 
L 171.229091 285.408 
L 187.461818 285.408 
L 203.694545 285.408 
L 219.927273 285.408 
L 236.16 285.408 
L 252.392727 285.408 
L 268.625455 285.408 
L 284.858182 285.408 
L 301.090909 285.408 
L 317.323636 285.408 
L 333.556364 285.408 
L 349.789091 285.408 
L 366.021818 285.408 
L 382.254545 285.408 
L 398.487273 285.408 
" style="fill:none;stroke:#0e4db3;stroke-linecap:square;stroke-width:3;"/>
   </g>
   <g id="line2d_78">
    <path clip-path="url(#pda02e6ea99)" d="M 73.832727 285.408 
L 90.065455 285.408 
L 106.298182 285.408 
L 122.530909 285.408 
L 138.763636 285.408 
L 154.996364 285.408 
L 171.229091 285.408 
L 187.461818 285.408 
L 203.694545 285.408 
L 219.927273 285.408 
L 236.16 285.408 
L 252.392727 285.408 
L 268.625455 285.408 
L 284.858182 285.408 
L 301.090909 285.408 
L 317.323636 285.408 
L 333.556364 285.408 
L 349.789091 285.408 
L 366.021818 285.408 
L 382.254545 285.408 
L 398.487273 285.408 
" style="fill:none;stroke:#d44e4e;stroke-linecap:square;stroke-width:3;"/>
   </g>
   <g id="line2d_79">
    <path clip-path="url(#pda02e6ea99)" d="M 73.832727 285.408 
L 90.065455 285.408 
L 106.298182 285.408 
L 122.530909 285.408 
L 138.763636 285.408 
L 154.996364 285.408 
L 171.229091 285.408 
L 187.461818 285.408 
L 203.694545 285.408 
L 219.927273 285.408 
L 236.16 285.408 
L 252.392727 285.408 
L 268.625455 285.408 
L 284.858182 285.408 
L 301.090909 285.408 
L 317.323636 285.408 
L 333.556364 285.408 
L 349.789091 285.408 
L 366.021818 285.408 
L 382.254545 285.408 
L 398.487273 285.408 
" style="fill:none;stroke:#0e4db3;stroke-linecap:square;stroke-width:3;"/>
   </g>
   <g id="line2d_80">
    <path clip-path="url(#pda02e6ea99)" d="M 73.832727 285.408 
L 90.065455 285.408 
L 106.298182 285.408 
L 122.530909 285.408 
L 138.763636 285.408 
L 154.996364 285.408 
L 171.229091 285.408 
L 187.461818 285.408 
L 203.694545 285.408 
L 219.927273 285.408 
L 236.16 285.408 
L 252.392727 285.408 
L 268.625455 285.408 
L 284.858182 285.408 
L 301.090909 285.408 
L 317.323636 285.408 
L 333.556364 285.408 
L 349.789091 285.408 
L 366.021818 285.408 
L 382.254545 285.408 
L 398.487273 285.408 
" style="fill:none;stroke:#d44e4e;stroke-linecap:square;stroke-width:3;"/>
   </g>
   <g id="line2d_81">
    <path clip-path="url(#pda02e6ea99)" d="M 73.832727 285.408 
L 90.065455 285.408 
L 106.298182 285.408 
L 122.530909 285.408 
L 138.763636 285.408 
L 154.996364 285.408 
L 171.229091 285.408 
L 187.461818 285.408 
L 203.694545 285.408 
L 219.927273 285.408 
L 236.16 285.408 
L 252.392727 285.408 
L 268.625455 285.408 
L 284.858182 285.408 
L 301.090909 285.408 
L 317.323636 285.408 
L 333.556364 285.408 
L 349.789091 285.408 
L 366.021818 285.408 
L 382.254545 285.408 
L 398.487273 285.408 
" style="fill:none;stroke:#0e4db3;stroke-linecap:square;stroke-width:3;"/>
   </g>
   <g id="line2d_82">
    <path clip-path="url(#pda02e6ea99)" d="M 73.832727 285.408 
L 90.065455 285.408 
L 106.298182 285.408 
L 122.530909 285.408 
L 138.763636 285.408 
L 154.996364 285.408 
L 171.229091 285.408 
L 187.461818 285.408 
L 203.694545 285.408 
L 219.927273 285.408 
L 236.16 285.408 
L 252.392727 285.408 
L 268.625455 285.408 
L 284.858182 285.408 
L 301.090909 285.408 
L 317.323636 285.408 
L 333.556364 285.408 
L 349.789091 285.408 
L 366.021818 285.408 
L 382.254545 285.408 
L 398.487273 285.408 
" style="fill:none;stroke:#d44e4e;stroke-linecap:square;stroke-width:3;"/>
   </g>
   <g id="line2d_83">
    <path clip-path="url(#pda02e6ea99)" d="M 73.832727 219.208081 
L 90.065455 185.919262 
L 106.298182 235.700357 
L 122.530909 233.267547 
L 138.763636 213.430247 
L 154.996364 209.998427 
L 171.229091 190.743101 
L 187.461818 139.920097 
L 203.694545 106.012324 
L 219.927273 83.956315 
L 236.16 111.135477 
L 252.392727 45.287455 
L 268.625455 31.17344 
L 284.858182 76.178433 
L 301.090909 78.578997 
L 317.323636 148.380876 
L 333.556364 181.084834 
L 349.789091 154.020066 
L 366.021818 157.141155 
L 382.254545 167.125526 
L 398.487273 219.208081 
" style="fill:none;stroke:#0e4db3;stroke-linecap:square;stroke-width:3;"/>
   </g>
   <g id="line2d_84">
    <path clip-path="url(#pda02e6ea99)" d="M 73.832727 285.408 
L 90.065455 285.408 
L 106.298182 285.408 
L 122.530909 285.408 
L 138.763636 285.408 
L 154.996364 285.408 
L 171.229091 285.408 
L 187.461818 285.408 
L 203.694545 285.408 
L 219.927273 285.408 
L 236.16 285.408 
L 252.392727 285.408 
L 268.625455 285.408 
L 284.858182 285.408 
L 301.090909 285.408 
L 317.323636 285.408 
L 333.556364 285.408 
L 349.789091 285.408 
L 366.021818 285.408 
L 382.254545 285.408 
L 398.487273 285.408 
" style="fill:none;stroke:#d44e4e;stroke-linecap:square;stroke-width:3;"/>
   </g>
   <g id="line2d_85">
    <path clip-path="url(#pda02e6ea99)" d="M 73.832727 285.408 
L 90.065455 285.408 
L 106.298182 285.408 
L 122.530909 285.408 
L 138.763636 285.408 
L 154.996364 285.408 
L 171.229091 285.408 
L 187.461818 285.408 
L 203.694545 285.408 
L 219.927273 285.408 
L 236.16 285.408 
L 252.392727 285.408 
L 268.625455 285.408 
L 284.858182 285.408 
L 301.090909 285.408 
L 317.323636 285.408 
L 333.556364 285.408 
L 349.789091 285.408 
L 366.021818 285.408 
L 382.254545 285.408 
L 398.487273 285.408 
" style="fill:none;stroke:#0e4db3;stroke-linecap:square;stroke-width:3;"/>
   </g>
   <g id="line2d_86">
    <path clip-path="url(#pda02e6ea99)" d="M 73.832727 285.408 
L 90.065455 285.408 
L 106.298182 285.408 
L 122.530909 285.408 
L 138.763636 285.408 
L 154.996364 285.408 
L 171.229091 285.408 
L 187.461818 285.408 
L 203.694545 285.408 
L 219.927273 285.408 
L 236.16 285.408 
L 252.392727 285.408 
L 268.625455 285.408 
L 284.858182 285.408 
L 301.090909 285.408 
L 317.323636 285.408 
L 333.556364 285.408 
L 349.789091 285.408 
L 366.021818 285.408 
L 382.254545 285.408 
L 398.487273 285.408 
" style="fill:none;stroke:#d44e4e;stroke-linecap:square;stroke-width:3;"/>
   </g>
   <g id="line2d_87">
    <path clip-path="url(#pda02e6ea99)" d="M 73.832727 116.883267 
L 90.065455 91.991208 
L 106.298182 95.034042 
L 122.530909 117.91561 
L 138.763636 146.435531 
L 154.996364 157.06253 
L 171.229091 142.021922 
L 187.461818 163.335128 
L 203.694545 209.153217 
L 219.927273 235.956543 
L 236.16 242.69998 
L 252.392727 204.860672 
L 268.625455 220.592196 
L 284.858182 217.886881 
L 301.090909 149.8358 
L 317.323636 168.409119 
L 333.556364 156.45205 
L 349.789091 170.186494 
L 366.021818 149.623852 
L 382.254545 139.757714 
L 398.487273 116.883267 
" style="fill:none;stroke:#0e4db3;stroke-linecap:square;stroke-width:3;"/>
   </g>
   <g id="line2d_88">
    <path clip-path="url(#pda02e6ea99)" d="M 73.832727 285.408 
L 90.065455 258.017357 
L 106.298182 239.889422 
L 122.530909 258.344501 
L 138.763636 285.408 
L 154.996364 285.408 
L 171.229091 253.712258 
L 187.461818 278.699365 
L 203.694545 285.408 
L 219.927273 285.408 
L 236.16 285.408 
L 252.392727 285.408 
L 268.625455 285.408 
L 284.858182 285.408 
L 301.090909 283.793162 
L 317.323636 285.408 
L 333.556364 285.408 
L 349.789091 248.969121 
L 366.021818 233.765084 
L 382.254545 250.529207 
L 398.487273 285.408 
" style="fill:none;stroke:#d44e4e;stroke-linecap:square;stroke-width:3;"/>
   </g>
   <g id="line2d_89">
    <path clip-path="url(#pda02e6ea99)" d="M 73.832727 153.543017 
L 90.065455 161.282749 
L 106.298182 160.990414 
L 122.530909 157.226109 
L 138.763636 169.342615 
L 154.996364 209.453978 
L 171.229091 227.227852 
L 187.461818 239.822389 
L 203.694545 201.940164 
L 219.927273 116.489997 
L 236.16 78.595609 
L 252.392727 63.547304 
L 268.625455 84.29454 
L 284.858182 106.944471 
L 301.090909 99.861262 
L 317.323636 93.184424 
L 333.556364 116.485702 
L 349.789091 110.367876 
L 366.021818 141.752048 
L 382.254545 149.061839 
L 398.487273 153.543017 
" style="fill:none;stroke:#0e4db3;stroke-linecap:square;stroke-width:3;"/>
   </g>
   <g id="line2d_90">
    <path clip-path="url(#pda02e6ea99)" d="M 73.832727 182.516732 
L 90.065455 186.127068 
L 106.298182 182.962426 
L 122.530909 186.367718 
L 138.763636 187.497746 
L 154.996364 225.875319 
L 171.229091 245.779378 
L 187.461818 243.202159 
L 203.694545 216.390361 
L 219.927273 161.419724 
L 236.16 130.516287 
L 252.392727 118.485157 
L 268.625455 128.723855 
L 284.858182 148.469167 
L 301.090909 139.323511 
L 317.323636 131.077093 
L 333.556364 148.81908 
L 349.789091 145.000285 
L 366.021818 164.918928 
L 382.254545 148.308632 
L 398.487273 182.516732 
" style="fill:none;stroke:#d44e4e;stroke-linecap:square;stroke-width:3;"/>
   </g>
   <g id="line2d_91">
    <path clip-path="url(#pda02e6ea99)" d="M 73.832727 285.408 
L 90.065455 285.408 
L 106.298182 285.408 
L 122.530909 285.408 
L 138.763636 285.408 
L 154.996364 285.408 
L 171.229091 285.408 
L 187.461818 285.408 
L 203.694545 285.408 
L 219.927273 285.408 
L 236.16 285.408 
L 252.392727 285.408 
L 268.625455 285.408 
L 284.858182 285.408 
L 301.090909 285.408 
L 317.323636 285.408 
L 333.556364 285.408 
L 349.789091 285.408 
L 366.021818 285.408 
L 382.254545 285.408 
L 398.487273 285.408 
" style="fill:none;stroke:#0e4db3;stroke-linecap:square;stroke-width:3;"/>
   </g>
   <g id="line2d_92">
    <path clip-path="url(#pda02e6ea99)" d="M 73.832727 285.408 
L 90.065455 285.408 
L 106.298182 285.408 
L 122.530909 285.408 
L 138.763636 285.408 
L 154.996364 285.408 
L 171.229091 285.408 
L 187.461818 285.408 
L 203.694545 285.408 
L 219.927273 285.408 
L 236.16 285.408 
L 252.392727 285.408 
L 268.625455 285.408 
L 284.858182 285.408 
L 301.090909 285.408 
L 317.323636 285.408 
L 333.556364 285.408 
L 349.789091 285.408 
L 366.021818 285.408 
L 382.254545 285.408 
L 398.487273 285.408 
" style="fill:none;stroke:#d44e4e;stroke-linecap:square;stroke-width:3;"/>
   </g>
   <g id="line2d_93">
    <path clip-path="url(#pda02e6ea99)" d="M 73.832727 285.408 
L 90.065455 285.408 
L 106.298182 285.408 
L 122.530909 285.408 
L 138.763636 285.408 
L 154.996364 285.408 
L 171.229091 285.408 
L 187.461818 285.408 
L 203.694545 285.408 
L 219.927273 285.408 
L 236.16 285.408 
L 252.392727 285.408 
L 268.625455 285.408 
L 284.858182 285.408 
L 301.090909 285.408 
L 317.323636 285.408 
L 333.556364 285.408 
L 349.789091 285.408 
L 366.021818 285.408 
L 382.254545 285.408 
L 398.487273 285.408 
" style="fill:none;stroke:#0e4db3;stroke-linecap:square;stroke-width:3;"/>
   </g>
   <g id="line2d_94">
    <path clip-path="url(#pda02e6ea99)" d="M 73.832727 285.408 
L 90.065455 285.408 
L 106.298182 285.408 
L 122.530909 285.408 
L 138.763636 285.408 
L 154.996364 285.408 
L 171.229091 285.408 
L 187.461818 285.408 
L 203.694545 285.408 
L 219.927273 285.408 
L 236.16 285.408 
L 252.392727 285.408 
L 268.625455 285.408 
L 284.858182 285.408 
L 301.090909 285.408 
L 317.323636 285.408 
L 333.556364 285.408 
L 349.789091 285.408 
L 366.021818 285.408 
L 382.254545 285.408 
L 398.487273 285.408 
" style="fill:none;stroke:#d44e4e;stroke-linecap:square;stroke-width:3;"/>
   </g>
   <g id="line2d_95">
    <path clip-path="url(#pda02e6ea99)" d="M 73.832727 285.408 
L 90.065455 285.408 
L 106.298182 285.408 
L 122.530909 266.525713 
L 138.763636 250.139342 
L 154.996364 245.444471 
L 171.229091 260.320394 
L 187.461818 234.519764 
L 203.694545 183.956261 
L 219.927273 158.311246 
L 236.16 274.040294 
L 252.392727 93.389946 
L 268.625455 37.332579 
L 284.858182 46.644032 
L 301.090909 50.39254 
L 317.323636 120.91139 
L 333.556364 189.283242 
L 349.789091 263.079495 
L 366.021818 285.408 
L 382.254545 285.408 
L 398.487273 285.408 
" style="fill:none;stroke:#0e4db3;stroke-linecap:square;stroke-width:3;"/>
   </g>
   <g id="line2d_96">
    <path clip-path="url(#pda02e6ea99)" d="M 73.832727 285.408 
L 90.065455 285.408 
L 106.298182 285.408 
L 122.530909 285.408 
L 138.763636 285.408 
L 154.996364 285.408 
L 171.229091 285.408 
L 187.461818 285.408 
L 203.694545 272.848797 
L 219.927273 262.729248 
L 236.16 285.408 
L 252.392727 219.40876 
L 268.625455 207.440498 
L 284.858182 184.644671 
L 301.090909 195.106776 
L 317.323636 229.685553 
L 333.556364 254.264125 
L 349.789091 285.408 
L 366.021818 285.408 
L 382.254545 285.408 
L 398.487273 285.408 
" style="fill:none;stroke:#d44e4e;stroke-linecap:square;stroke-width:3;"/>
   </g>
   <g id="line2d_97">
    <path clip-path="url(#pda02e6ea99)" d="M 73.832727 94.672464 
L 90.065455 51.106064 
L 106.298182 30.677549 
L 122.530909 11.840227 
L 132.944315 -1 
M 143.138859 -1 
L 154.996364 18.446681 
L 171.229091 44.686325 
L 187.461818 131.170896 
L 203.694545 141.235512 
L 219.927273 156.806115 
L 236.16 138.803681 
L 252.392727 123.424706 
L 268.625455 132.67333 
L 284.858182 105.197169 
L 301.090909 133.664839 
L 317.323636 147.416015 
L 333.556364 186.961043 
L 349.789091 173.387731 
L 366.021818 158.659343 
L 382.254545 126.927444 
L 398.487273 94.672464 
" style="fill:none;stroke:#0e4db3;stroke-linecap:square;stroke-width:3;"/>
   </g>
   <g id="line2d_98">
    <path clip-path="url(#pda02e6ea99)" d="M 73.832727 285.408 
L 90.065455 252.065741 
L 106.298182 257.497195 
L 122.530909 218.200971 
L 138.763636 270.379938 
L 154.996364 282.994769 
L 171.229091 283.03333 
L 187.461818 285.408 
L 203.694545 285.408 
L 219.927273 285.408 
L 236.16 285.408 
L 252.392727 285.408 
L 268.625455 285.408 
L 284.858182 285.408 
L 301.090909 285.408 
L 317.323636 285.408 
L 333.556364 285.408 
L 349.789091 285.408 
L 366.021818 285.408 
L 382.254545 285.408 
L 398.487273 285.408 
" style="fill:none;stroke:#d44e4e;stroke-linecap:square;stroke-width:3;"/>
   </g>
   <g id="line2d_99">
    <path clip-path="url(#pda02e6ea99)" d="M 73.832727 285.408 
L 90.065455 285.408 
L 106.298182 285.408 
L 122.530909 285.408 
L 138.763636 285.408 
L 154.996364 285.408 
L 171.229091 285.408 
L 187.461818 285.408 
L 203.694545 285.408 
L 219.927273 285.408 
L 236.16 285.408 
L 252.392727 285.408 
L 268.625455 285.408 
L 284.858182 285.408 
L 301.090909 285.408 
L 317.323636 285.408 
L 333.556364 285.408 
L 349.789091 285.408 
L 366.021818 285.408 
L 382.254545 285.408 
L 398.487273 285.408 
" style="fill:none;stroke:#0e4db3;stroke-linecap:square;stroke-width:3;"/>
   </g>
   <g id="line2d_100">
    <path clip-path="url(#pda02e6ea99)" d="M 73.832727 285.408 
L 90.065455 285.408 
L 106.298182 285.408 
L 122.530909 285.408 
L 138.763636 285.408 
L 154.996364 285.408 
L 171.229091 285.408 
L 187.461818 285.408 
L 203.694545 285.408 
L 219.927273 285.408 
L 236.16 285.408 
L 252.392727 285.408 
L 268.625455 285.408 
L 284.858182 285.408 
L 301.090909 285.408 
L 317.323636 285.408 
L 333.556364 285.408 
L 349.789091 285.408 
L 366.021818 285.408 
L 382.254545 285.408 
L 398.487273 285.408 
" style="fill:none;stroke:#d44e4e;stroke-linecap:square;stroke-width:3;"/>
   </g>
   <g id="line2d_101">
    <path clip-path="url(#pda02e6ea99)" d="M 76.011814 -1 
L 90.065455 40.309528 
L 106.298182 92.810429 
L 122.530909 161.113908 
L 138.763636 209.321422 
L 154.996364 248.879229 
L 171.229091 205.499756 
L 187.461818 154.261705 
L 203.694545 103.682916 
L 219.927273 31.448695 
L 236.16 19.013913 
L 252.392727 17.350226 
L 268.625455 44.464951 
L 284.858182 88.854703 
L 301.090909 41.530489 
L 317.323636 69.41986 
L 333.556364 27.940695 
L 349.789091 43.33862 
L 366.021818 13.937595 
L 372.484891 -1 
" style="fill:none;stroke:#0e4db3;stroke-linecap:square;stroke-width:3;"/>
   </g>
   <g id="line2d_102">
    <path clip-path="url(#pda02e6ea99)" d="M 73.832727 191.581414 
L 90.065455 185.391681 
L 106.298182 222.265347 
L 122.530909 285.408 
L 138.763636 285.408 
L 154.996364 285.408 
L 171.229091 285.408 
L 187.461818 285.408 
L 203.694545 285.408 
L 219.927273 259.545775 
L 236.16 246.382166 
L 252.392727 202.343241 
L 268.625455 221.363755 
L 284.858182 236.963478 
L 301.090909 175.581522 
L 317.323636 170.798398 
L 333.556364 182.048337 
L 349.789091 146.670864 
L 366.021818 121.758976 
L 382.254545 120.133678 
L 398.487273 191.581414 
" style="fill:none;stroke:#d44e4e;stroke-linecap:square;stroke-width:3;"/>
   </g>
   <g id="line2d_103">
    <path clip-path="url(#pda02e6ea99)" d="M 73.832727 285.408 
L 90.065455 285.408 
L 106.298182 285.408 
L 122.530909 285.408 
L 138.763636 285.408 
L 154.996364 285.408 
L 171.229091 285.408 
L 187.461818 285.408 
L 203.694545 285.408 
L 219.927273 285.408 
L 236.16 285.408 
L 252.392727 285.408 
L 268.625455 285.408 
L 284.858182 285.408 
L 301.090909 285.408 
L 317.323636 285.408 
L 333.556364 285.408 
L 349.789091 285.408 
L 366.021818 285.408 
L 382.254545 285.408 
L 398.487273 285.408 
" style="fill:none;stroke:#0e4db3;stroke-linecap:square;stroke-width:3;"/>
   </g>
   <g id="line2d_104">
    <path clip-path="url(#pda02e6ea99)" d="M 73.832727 285.408 
L 90.065455 285.408 
L 106.298182 285.408 
L 122.530909 285.408 
L 138.763636 285.408 
L 154.996364 285.408 
L 171.229091 285.408 
L 187.461818 285.408 
L 203.694545 285.408 
L 219.927273 285.408 
L 236.16 285.408 
L 252.392727 285.408 
L 268.625455 285.408 
L 284.858182 285.408 
L 301.090909 285.408 
L 317.323636 285.408 
L 333.556364 285.408 
L 349.789091 285.408 
L 366.021818 285.408 
L 382.254545 285.408 
L 398.487273 285.408 
" style="fill:none;stroke:#d44e4e;stroke-linecap:square;stroke-width:3;"/>
   </g>
   <g id="line2d_105">
    <path clip-path="url(#pda02e6ea99)" d="M 73.832727 121.595092 
L 90.065455 96.190793 
L 106.298182 81.671515 
L 122.530909 79.662558 
L 138.763636 63.648 
L 154.996364 67.925188 
L 171.229091 77.065995 
L 187.461818 104.570805 
L 203.694545 117.12333 
L 219.927273 138.380296 
L 236.16 145.763048 
L 252.392727 153.214152 
L 268.625455 164.848859 
L 284.858182 172.168315 
L 301.090909 159.135512 
L 317.323636 150.958881 
L 333.556364 124.155289 
L 349.789091 140.486046 
L 366.021818 119.198225 
L 382.254545 119.606444 
L 398.487273 121.595092 
" style="fill:none;stroke:#0e4db3;stroke-linecap:square;stroke-width:3;"/>
   </g>
   <g id="line2d_106">
    <path clip-path="url(#pda02e6ea99)" d="M 73.832727 186.32111 
L 90.065455 173.785948 
L 106.298182 172.594809 
L 122.530909 159.235642 
L 138.763636 159.876172 
L 154.996364 170.761955 
L 171.229091 159.719508 
L 187.461818 169.491463 
L 203.694545 186.441876 
L 219.927273 185.124351 
L 236.16 188.01226 
L 252.392727 188.208933 
L 268.625455 186.193865 
L 284.858182 198.150006 
L 301.090909 206.62917 
L 317.323636 196.769777 
L 333.556364 190.739438 
L 349.789091 157.760681 
L 366.021818 142.585066 
L 382.254545 160.489251 
L 398.487273 186.32111 
" style="fill:none;stroke:#d44e4e;stroke-linecap:square;stroke-width:3;"/>
   </g>
   <g id="patch_3">
    <path d="M 57.6 307.584 
L 57.6 41.472 
" style="fill:none;stroke:#000000;stroke-linecap:square;stroke-linejoin:miter;stroke-width:2.5;"/>
   </g>
   <g id="patch_4">
    <path d="M 414.72 307.584 
L 414.72 41.472 
" style="fill:none;stroke:#000000;stroke-linecap:square;stroke-linejoin:miter;stroke-width:2.5;"/>
   </g>
   <g id="patch_5">
    <path d="M 57.6 307.584 
L 414.72 307.584 
" style="fill:none;stroke:#000000;stroke-linecap:square;stroke-linejoin:miter;stroke-width:2.5;"/>
   </g>
   <g id="patch_6">
    <path d="M 57.6 41.472 
L 414.72 41.472 
" style="fill:none;stroke:#000000;stroke-linecap:square;stroke-linejoin:miter;stroke-width:2.5;"/>
   </g>
  </g>
 </g>
 <defs>
  <clipPath id="pda02e6ea99">
   <rect height="266.112" width="357.12" x="57.6" y="41.472"/>
  </clipPath>
 </defs>
</svg>
