<?xml version="1.0" encoding="utf-8" standalone="no"?>
<!DOCTYPE svg PUBLIC "-//W3C//DTD SVG 1.1//EN"
  "http://www.w3.org/Graphics/SVG/1.1/DTD/svg11.dtd">
<!-- Created with matplotlib (https://matplotlib.org/) -->
<svg height="345.6pt" version="1.1" viewBox="0 0 460.8 345.6" width="460.8pt" xmlns="http://www.w3.org/2000/svg" xmlns:xlink="http://www.w3.org/1999/xlink">
 <defs>
  <style type="text/css">
*{stroke-linecap:butt;stroke-linejoin:round;}
  </style>
 </defs>
 <g id="figure_1">
  <g id="patch_1">
   <path d="M 0 345.6 
L 460.8 345.6 
L 460.8 0 
L 0 0 
z
" style="fill:#ffffff;"/>
  </g>
  <g id="axes_1">
   <g id="patch_2">
    <path d="M 57.6 307.584 
L 414.72 307.584 
L 414.72 41.472 
L 57.6 41.472 
z
" style="fill:#ffffff;"/>
   </g>
   <g id="matplotlib.axis_1">
    <g id="xtick_1">
     <g id="line2d_1">
      <defs>
       <path d="M 0 0 
L 0 12 
" id="m5ede6dde4c" style="stroke:#000000;stroke-width:2.5;"/>
      </defs>
      <g>
       <use style="stroke:#000000;stroke-width:2.5;" x="73.832727" xlink:href="#m5ede6dde4c" y="307.584"/>
      </g>
     </g>
     <g id="text_1">
      <!-- 0 -->
      <defs>
       <path d="M 31.78125 66.40625 
Q 24.171875 66.40625 20.328125 58.90625 
Q 16.5 51.421875 16.5 36.375 
Q 16.5 21.390625 20.328125 13.890625 
Q 24.171875 6.390625 31.78125 6.390625 
Q 39.453125 6.390625 43.28125 13.890625 
Q 47.125 21.390625 47.125 36.375 
Q 47.125 51.421875 43.28125 58.90625 
Q 39.453125 66.40625 31.78125 66.40625 
z
M 31.78125 74.21875 
Q 44.046875 74.21875 50.515625 64.515625 
Q 56.984375 54.828125 56.984375 36.375 
Q 56.984375 17.96875 50.515625 8.265625 
Q 44.046875 -1.421875 31.78125 -1.421875 
Q 19.53125 -1.421875 13.0625 8.265625 
Q 6.59375 17.96875 6.59375 36.375 
Q 6.59375 54.828125 13.0625 64.515625 
Q 19.53125 74.21875 31.78125 74.21875 
z
" id="DejaVuSans-48"/>
      </defs>
      <g transform="translate(66.833977 339.800562)scale(0.22 -0.22)">
       <use xlink:href="#DejaVuSans-48"/>
      </g>
     </g>
    </g>
    <g id="xtick_2">
     <g id="line2d_2">
      <g>
       <use style="stroke:#000000;stroke-width:2.5;" x="164.014545" xlink:href="#m5ede6dde4c" y="307.584"/>
      </g>
     </g>
     <g id="text_2">
      <!-- 50 -->
      <defs>
       <path d="M 10.796875 72.90625 
L 49.515625 72.90625 
L 49.515625 64.59375 
L 19.828125 64.59375 
L 19.828125 46.734375 
Q 21.96875 47.46875 24.109375 47.828125 
Q 26.265625 48.1875 28.421875 48.1875 
Q 40.625 48.1875 47.75 41.5 
Q 54.890625 34.8125 54.890625 23.390625 
Q 54.890625 11.625 47.5625 5.09375 
Q 40.234375 -1.421875 26.90625 -1.421875 
Q 22.3125 -1.421875 17.546875 -0.640625 
Q 12.796875 0.140625 7.71875 1.703125 
L 7.71875 11.625 
Q 12.109375 9.234375 16.796875 8.0625 
Q 21.484375 6.890625 26.703125 6.890625 
Q 35.15625 6.890625 40.078125 11.328125 
Q 45.015625 15.765625 45.015625 23.390625 
Q 45.015625 31 40.078125 35.4375 
Q 35.15625 39.890625 26.703125 39.890625 
Q 22.75 39.890625 18.8125 39.015625 
Q 14.890625 38.140625 10.796875 36.28125 
z
" id="DejaVuSans-53"/>
      </defs>
      <g transform="translate(150.017045 339.800562)scale(0.22 -0.22)">
       <use xlink:href="#DejaVuSans-53"/>
       <use x="63.623047" xlink:href="#DejaVuSans-48"/>
      </g>
     </g>
    </g>
    <g id="xtick_3">
     <g id="line2d_3">
      <g>
       <use style="stroke:#000000;stroke-width:2.5;" x="254.196364" xlink:href="#m5ede6dde4c" y="307.584"/>
      </g>
     </g>
     <g id="text_3">
      <!-- 100 -->
      <defs>
       <path d="M 12.40625 8.296875 
L 28.515625 8.296875 
L 28.515625 63.921875 
L 10.984375 60.40625 
L 10.984375 69.390625 
L 28.421875 72.90625 
L 38.28125 72.90625 
L 38.28125 8.296875 
L 54.390625 8.296875 
L 54.390625 0 
L 12.40625 0 
z
" id="DejaVuSans-49"/>
      </defs>
      <g transform="translate(233.200114 339.800562)scale(0.22 -0.22)">
       <use xlink:href="#DejaVuSans-49"/>
       <use x="63.623047" xlink:href="#DejaVuSans-48"/>
       <use x="127.246094" xlink:href="#DejaVuSans-48"/>
      </g>
     </g>
    </g>
    <g id="xtick_4">
     <g id="line2d_4">
      <g>
       <use style="stroke:#000000;stroke-width:2.5;" x="344.378182" xlink:href="#m5ede6dde4c" y="307.584"/>
      </g>
     </g>
     <g id="text_4">
      <!-- 150 -->
      <g transform="translate(323.381932 339.800562)scale(0.22 -0.22)">
       <use xlink:href="#DejaVuSans-49"/>
       <use x="63.623047" xlink:href="#DejaVuSans-53"/>
       <use x="127.246094" xlink:href="#DejaVuSans-48"/>
      </g>
     </g>
    </g>
    <g id="text_5">
     <!-- Degrees -->
     <defs>
      <path d="M 19.671875 64.796875 
L 19.671875 8.109375 
L 31.59375 8.109375 
Q 46.6875 8.109375 53.6875 14.9375 
Q 60.6875 21.78125 60.6875 36.53125 
Q 60.6875 51.171875 53.6875 57.984375 
Q 46.6875 64.796875 31.59375 64.796875 
z
M 9.8125 72.90625 
L 30.078125 72.90625 
Q 51.265625 72.90625 61.171875 64.09375 
Q 71.09375 55.28125 71.09375 36.53125 
Q 71.09375 17.671875 61.125 8.828125 
Q 51.171875 0 30.078125 0 
L 9.8125 0 
z
" id="DejaVuSans-68"/>
      <path d="M 56.203125 29.59375 
L 56.203125 25.203125 
L 14.890625 25.203125 
Q 15.484375 15.921875 20.484375 11.0625 
Q 25.484375 6.203125 34.421875 6.203125 
Q 39.59375 6.203125 44.453125 7.46875 
Q 49.3125 8.734375 54.109375 11.28125 
L 54.109375 2.78125 
Q 49.265625 0.734375 44.1875 -0.34375 
Q 39.109375 -1.421875 33.890625 -1.421875 
Q 20.796875 -1.421875 13.15625 6.1875 
Q 5.515625 13.8125 5.515625 26.8125 
Q 5.515625 40.234375 12.765625 48.109375 
Q 20.015625 56 32.328125 56 
Q 43.359375 56 49.78125 48.890625 
Q 56.203125 41.796875 56.203125 29.59375 
z
M 47.21875 32.234375 
Q 47.125 39.59375 43.09375 43.984375 
Q 39.0625 48.390625 32.421875 48.390625 
Q 24.90625 48.390625 20.390625 44.140625 
Q 15.875 39.890625 15.1875 32.171875 
z
" id="DejaVuSans-101"/>
      <path d="M 45.40625 27.984375 
Q 45.40625 37.75 41.375 43.109375 
Q 37.359375 48.484375 30.078125 48.484375 
Q 22.859375 48.484375 18.828125 43.109375 
Q 14.796875 37.75 14.796875 27.984375 
Q 14.796875 18.265625 18.828125 12.890625 
Q 22.859375 7.515625 30.078125 7.515625 
Q 37.359375 7.515625 41.375 12.890625 
Q 45.40625 18.265625 45.40625 27.984375 
z
M 54.390625 6.78125 
Q 54.390625 -7.171875 48.1875 -13.984375 
Q 42 -20.796875 29.203125 -20.796875 
Q 24.46875 -20.796875 20.265625 -20.09375 
Q 16.0625 -19.390625 12.109375 -17.921875 
L 12.109375 -9.1875 
Q 16.0625 -11.328125 19.921875 -12.34375 
Q 23.78125 -13.375 27.78125 -13.375 
Q 36.625 -13.375 41.015625 -8.765625 
Q 45.40625 -4.15625 45.40625 5.171875 
L 45.40625 9.625 
Q 42.625 4.78125 38.28125 2.390625 
Q 33.9375 0 27.875 0 
Q 17.828125 0 11.671875 7.65625 
Q 5.515625 15.328125 5.515625 27.984375 
Q 5.515625 40.671875 11.671875 48.328125 
Q 17.828125 56 27.875 56 
Q 33.9375 56 38.28125 53.609375 
Q 42.625 51.21875 45.40625 46.390625 
L 45.40625 54.6875 
L 54.390625 54.6875 
z
" id="DejaVuSans-103"/>
      <path d="M 41.109375 46.296875 
Q 39.59375 47.171875 37.8125 47.578125 
Q 36.03125 48 33.890625 48 
Q 26.265625 48 22.1875 43.046875 
Q 18.109375 38.09375 18.109375 28.8125 
L 18.109375 0 
L 9.078125 0 
L 9.078125 54.6875 
L 18.109375 54.6875 
L 18.109375 46.1875 
Q 20.953125 51.171875 25.484375 53.578125 
Q 30.03125 56 36.53125 56 
Q 37.453125 56 38.578125 55.875 
Q 39.703125 55.765625 41.0625 55.515625 
z
" id="DejaVuSans-114"/>
      <path d="M 44.28125 53.078125 
L 44.28125 44.578125 
Q 40.484375 46.53125 36.375 47.5 
Q 32.28125 48.484375 27.875 48.484375 
Q 21.1875 48.484375 17.84375 46.4375 
Q 14.5 44.390625 14.5 40.28125 
Q 14.5 37.15625 16.890625 35.375 
Q 19.28125 33.59375 26.515625 31.984375 
L 29.59375 31.296875 
Q 39.15625 29.25 43.1875 25.515625 
Q 47.21875 21.78125 47.21875 15.09375 
Q 47.21875 7.46875 41.1875 3.015625 
Q 35.15625 -1.421875 24.609375 -1.421875 
Q 20.21875 -1.421875 15.453125 -0.5625 
Q 10.6875 0.296875 5.421875 2 
L 5.421875 11.28125 
Q 10.40625 8.6875 15.234375 7.390625 
Q 20.0625 6.109375 24.8125 6.109375 
Q 31.15625 6.109375 34.5625 8.28125 
Q 37.984375 10.453125 37.984375 14.40625 
Q 37.984375 18.0625 35.515625 20.015625 
Q 33.0625 21.96875 24.703125 23.78125 
L 21.578125 24.515625 
Q 13.234375 26.265625 9.515625 29.90625 
Q 5.8125 33.546875 5.8125 39.890625 
Q 5.8125 47.609375 11.28125 51.796875 
Q 16.75 56 26.8125 56 
Q 31.78125 56 36.171875 55.265625 
Q 40.578125 54.546875 44.28125 53.078125 
z
" id="DejaVuSans-115"/>
     </defs>
     <g transform="translate(185.97 366.612125)scale(0.24 -0.24)">
      <use xlink:href="#DejaVuSans-68"/>
      <use x="77.001953" xlink:href="#DejaVuSans-101"/>
      <use x="138.525391" xlink:href="#DejaVuSans-103"/>
      <use x="202.001953" xlink:href="#DejaVuSans-114"/>
      <use x="243.083984" xlink:href="#DejaVuSans-101"/>
      <use x="304.607422" xlink:href="#DejaVuSans-101"/>
      <use x="366.130859" xlink:href="#DejaVuSans-115"/>
     </g>
    </g>
   </g>
   <g id="matplotlib.axis_2">
    <g id="ytick_1">
     <g id="line2d_5">
      <defs>
       <path d="M 0 0 
L -12 0 
" id="mf78d96f5a4" style="stroke:#000000;stroke-width:2.5;"/>
      </defs>
      <g>
       <use style="stroke:#000000;stroke-width:2.5;" x="57.6" xlink:href="#mf78d96f5a4" y="285.408"/>
      </g>
     </g>
     <g id="text_6">
      <!-- 0 -->
      <g transform="translate(28.1025 293.766281)scale(0.22 -0.22)">
       <use xlink:href="#DejaVuSans-48"/>
      </g>
     </g>
    </g>
    <g id="ytick_2">
     <g id="line2d_6">
      <g>
       <use style="stroke:#000000;stroke-width:2.5;" x="57.6" xlink:href="#mf78d96f5a4" y="236.821105"/>
      </g>
     </g>
     <g id="text_7">
      <!-- 1 -->
      <g transform="translate(28.1025 245.179387)scale(0.22 -0.22)">
       <use xlink:href="#DejaVuSans-49"/>
      </g>
     </g>
    </g>
    <g id="ytick_3">
     <g id="line2d_7">
      <g>
       <use style="stroke:#000000;stroke-width:2.5;" x="57.6" xlink:href="#mf78d96f5a4" y="188.234211"/>
      </g>
     </g>
     <g id="text_8">
      <!-- 2 -->
      <defs>
       <path d="M 19.1875 8.296875 
L 53.609375 8.296875 
L 53.609375 0 
L 7.328125 0 
L 7.328125 8.296875 
Q 12.9375 14.109375 22.625 23.890625 
Q 32.328125 33.6875 34.8125 36.53125 
Q 39.546875 41.84375 41.421875 45.53125 
Q 43.3125 49.21875 43.3125 52.78125 
Q 43.3125 58.59375 39.234375 62.25 
Q 35.15625 65.921875 28.609375 65.921875 
Q 23.96875 65.921875 18.8125 64.3125 
Q 13.671875 62.703125 7.8125 59.421875 
L 7.8125 69.390625 
Q 13.765625 71.78125 18.9375 73 
Q 24.125 74.21875 28.421875 74.21875 
Q 39.75 74.21875 46.484375 68.546875 
Q 53.21875 62.890625 53.21875 53.421875 
Q 53.21875 48.921875 51.53125 44.890625 
Q 49.859375 40.875 45.40625 35.40625 
Q 44.1875 33.984375 37.640625 27.21875 
Q 31.109375 20.453125 19.1875 8.296875 
z
" id="DejaVuSans-50"/>
      </defs>
      <g transform="translate(28.1025 196.592492)scale(0.22 -0.22)">
       <use xlink:href="#DejaVuSans-50"/>
      </g>
     </g>
    </g>
    <g id="ytick_4">
     <g id="line2d_8">
      <g>
       <use style="stroke:#000000;stroke-width:2.5;" x="57.6" xlink:href="#mf78d96f5a4" y="139.647316"/>
      </g>
     </g>
     <g id="text_9">
      <!-- 3 -->
      <defs>
       <path d="M 40.578125 39.3125 
Q 47.65625 37.796875 51.625 33 
Q 55.609375 28.21875 55.609375 21.1875 
Q 55.609375 10.40625 48.1875 4.484375 
Q 40.765625 -1.421875 27.09375 -1.421875 
Q 22.515625 -1.421875 17.65625 -0.515625 
Q 12.796875 0.390625 7.625 2.203125 
L 7.625 11.71875 
Q 11.71875 9.328125 16.59375 8.109375 
Q 21.484375 6.890625 26.8125 6.890625 
Q 36.078125 6.890625 40.9375 10.546875 
Q 45.796875 14.203125 45.796875 21.1875 
Q 45.796875 27.640625 41.28125 31.265625 
Q 36.765625 34.90625 28.71875 34.90625 
L 20.21875 34.90625 
L 20.21875 43.015625 
L 29.109375 43.015625 
Q 36.375 43.015625 40.234375 45.921875 
Q 44.09375 48.828125 44.09375 54.296875 
Q 44.09375 59.90625 40.109375 62.90625 
Q 36.140625 65.921875 28.71875 65.921875 
Q 24.65625 65.921875 20.015625 65.03125 
Q 15.375 64.15625 9.8125 62.3125 
L 9.8125 71.09375 
Q 15.4375 72.65625 20.34375 73.4375 
Q 25.25 74.21875 29.59375 74.21875 
Q 40.828125 74.21875 47.359375 69.109375 
Q 53.90625 64.015625 53.90625 55.328125 
Q 53.90625 49.265625 50.4375 45.09375 
Q 46.96875 40.921875 40.578125 39.3125 
z
" id="DejaVuSans-51"/>
      </defs>
      <g transform="translate(28.1025 148.005597)scale(0.22 -0.22)">
       <use xlink:href="#DejaVuSans-51"/>
      </g>
     </g>
    </g>
    <g id="ytick_5">
     <g id="line2d_9">
      <g>
       <use style="stroke:#000000;stroke-width:2.5;" x="57.6" xlink:href="#mf78d96f5a4" y="91.060421"/>
      </g>
     </g>
     <g id="text_10">
      <!-- 4 -->
      <defs>
       <path d="M 37.796875 64.3125 
L 12.890625 25.390625 
L 37.796875 25.390625 
z
M 35.203125 72.90625 
L 47.609375 72.90625 
L 47.609375 25.390625 
L 58.015625 25.390625 
L 58.015625 17.1875 
L 47.609375 17.1875 
L 47.609375 0 
L 37.796875 0 
L 37.796875 17.1875 
L 4.890625 17.1875 
L 4.890625 26.703125 
z
" id="DejaVuSans-52"/>
      </defs>
      <g transform="translate(28.1025 99.418702)scale(0.22 -0.22)">
       <use xlink:href="#DejaVuSans-52"/>
      </g>
     </g>
    </g>
    <g id="ytick_6">
     <g id="line2d_10">
      <g>
       <use style="stroke:#000000;stroke-width:2.5;" x="57.6" xlink:href="#mf78d96f5a4" y="42.473526"/>
      </g>
     </g>
     <g id="text_11">
      <!-- 5 -->
      <g transform="translate(28.1025 50.831808)scale(0.22 -0.22)">
       <use xlink:href="#DejaVuSans-53"/>
      </g>
     </g>
    </g>
    <g id="text_12">
     <!-- Activation -->
     <defs>
      <path d="M 34.1875 63.1875 
L 20.796875 26.90625 
L 47.609375 26.90625 
z
M 28.609375 72.90625 
L 39.796875 72.90625 
L 67.578125 0 
L 57.328125 0 
L 50.6875 18.703125 
L 17.828125 18.703125 
L 11.1875 0 
L 0.78125 0 
z
" id="DejaVuSans-65"/>
      <path d="M 48.78125 52.59375 
L 48.78125 44.1875 
Q 44.96875 46.296875 41.140625 47.34375 
Q 37.3125 48.390625 33.40625 48.390625 
Q 24.65625 48.390625 19.8125 42.84375 
Q 14.984375 37.3125 14.984375 27.296875 
Q 14.984375 17.28125 19.8125 11.734375 
Q 24.65625 6.203125 33.40625 6.203125 
Q 37.3125 6.203125 41.140625 7.25 
Q 44.96875 8.296875 48.78125 10.40625 
L 48.78125 2.09375 
Q 45.015625 0.34375 40.984375 -0.53125 
Q 36.96875 -1.421875 32.421875 -1.421875 
Q 20.0625 -1.421875 12.78125 6.34375 
Q 5.515625 14.109375 5.515625 27.296875 
Q 5.515625 40.671875 12.859375 48.328125 
Q 20.21875 56 33.015625 56 
Q 37.15625 56 41.109375 55.140625 
Q 45.0625 54.296875 48.78125 52.59375 
z
" id="DejaVuSans-99"/>
      <path d="M 18.3125 70.21875 
L 18.3125 54.6875 
L 36.8125 54.6875 
L 36.8125 47.703125 
L 18.3125 47.703125 
L 18.3125 18.015625 
Q 18.3125 11.328125 20.140625 9.421875 
Q 21.96875 7.515625 27.59375 7.515625 
L 36.8125 7.515625 
L 36.8125 0 
L 27.59375 0 
Q 17.1875 0 13.234375 3.875 
Q 9.28125 7.765625 9.28125 18.015625 
L 9.28125 47.703125 
L 2.6875 47.703125 
L 2.6875 54.6875 
L 9.28125 54.6875 
L 9.28125 70.21875 
z
" id="DejaVuSans-116"/>
      <path d="M 9.421875 54.6875 
L 18.40625 54.6875 
L 18.40625 0 
L 9.421875 0 
z
M 9.421875 75.984375 
L 18.40625 75.984375 
L 18.40625 64.59375 
L 9.421875 64.59375 
z
" id="DejaVuSans-105"/>
      <path d="M 2.984375 54.6875 
L 12.5 54.6875 
L 29.59375 8.796875 
L 46.6875 54.6875 
L 56.203125 54.6875 
L 35.6875 0 
L 23.484375 0 
z
" id="DejaVuSans-118"/>
      <path d="M 34.28125 27.484375 
Q 23.390625 27.484375 19.1875 25 
Q 14.984375 22.515625 14.984375 16.5 
Q 14.984375 11.71875 18.140625 8.90625 
Q 21.296875 6.109375 26.703125 6.109375 
Q 34.1875 6.109375 38.703125 11.40625 
Q 43.21875 16.703125 43.21875 25.484375 
L 43.21875 27.484375 
z
M 52.203125 31.203125 
L 52.203125 0 
L 43.21875 0 
L 43.21875 8.296875 
Q 40.140625 3.328125 35.546875 0.953125 
Q 30.953125 -1.421875 24.3125 -1.421875 
Q 15.921875 -1.421875 10.953125 3.296875 
Q 6 8.015625 6 15.921875 
Q 6 25.140625 12.171875 29.828125 
Q 18.359375 34.515625 30.609375 34.515625 
L 43.21875 34.515625 
L 43.21875 35.40625 
Q 43.21875 41.609375 39.140625 45 
Q 35.0625 48.390625 27.6875 48.390625 
Q 23 48.390625 18.546875 47.265625 
Q 14.109375 46.140625 10.015625 43.890625 
L 10.015625 52.203125 
Q 14.9375 54.109375 19.578125 55.046875 
Q 24.21875 56 28.609375 56 
Q 40.484375 56 46.34375 49.84375 
Q 52.203125 43.703125 52.203125 31.203125 
z
" id="DejaVuSans-97"/>
      <path d="M 30.609375 48.390625 
Q 23.390625 48.390625 19.1875 42.75 
Q 14.984375 37.109375 14.984375 27.296875 
Q 14.984375 17.484375 19.15625 11.84375 
Q 23.34375 6.203125 30.609375 6.203125 
Q 37.796875 6.203125 41.984375 11.859375 
Q 46.1875 17.53125 46.1875 27.296875 
Q 46.1875 37.015625 41.984375 42.703125 
Q 37.796875 48.390625 30.609375 48.390625 
z
M 30.609375 56 
Q 42.328125 56 49.015625 48.375 
Q 55.71875 40.765625 55.71875 27.296875 
Q 55.71875 13.875 49.015625 6.21875 
Q 42.328125 -1.421875 30.609375 -1.421875 
Q 18.84375 -1.421875 12.171875 6.21875 
Q 5.515625 13.875 5.515625 27.296875 
Q 5.515625 40.765625 12.171875 48.375 
Q 18.84375 56 30.609375 56 
z
" id="DejaVuSans-111"/>
      <path d="M 54.890625 33.015625 
L 54.890625 0 
L 45.90625 0 
L 45.90625 32.71875 
Q 45.90625 40.484375 42.875 44.328125 
Q 39.84375 48.1875 33.796875 48.1875 
Q 26.515625 48.1875 22.3125 43.546875 
Q 18.109375 38.921875 18.109375 30.90625 
L 18.109375 0 
L 9.078125 0 
L 9.078125 54.6875 
L 18.109375 54.6875 
L 18.109375 46.1875 
Q 21.34375 51.125 25.703125 53.5625 
Q 30.078125 56 35.796875 56 
Q 45.21875 56 50.046875 50.171875 
Q 54.890625 44.34375 54.890625 33.015625 
z
" id="DejaVuSans-110"/>
     </defs>
     <g transform="translate(19.11125 234.813)rotate(-90)scale(0.24 -0.24)">
      <use xlink:href="#DejaVuSans-65"/>
      <use x="68.392578" xlink:href="#DejaVuSans-99"/>
      <use x="123.373047" xlink:href="#DejaVuSans-116"/>
      <use x="162.582031" xlink:href="#DejaVuSans-105"/>
      <use x="190.365234" xlink:href="#DejaVuSans-118"/>
      <use x="249.544922" xlink:href="#DejaVuSans-97"/>
      <use x="310.824219" xlink:href="#DejaVuSans-116"/>
      <use x="350.033203" xlink:href="#DejaVuSans-105"/>
      <use x="377.816406" xlink:href="#DejaVuSans-111"/>
      <use x="438.998047" xlink:href="#DejaVuSans-110"/>
     </g>
    </g>
   </g>
   <g id="line2d_11">
    <path clip-path="url(#p9d4e1e1036)" d="M 73.832727 273.044266 
L 90.065455 251.99303 
L 106.298182 244.694829 
L 122.530909 235.26942 
L 138.763636 224.243757 
L 154.996364 222.686535 
L 171.229091 224.953898 
L 187.461818 208.499704 
L 203.694545 203.030616 
L 219.927273 204.04025 
L 236.16 211.280945 
L 252.392727 211.04455 
L 268.625455 212.171368 
L 284.858182 239.420985 
L 301.090909 235.144869 
L 317.323636 256.317521 
L 333.556364 261.677038 
L 349.789091 267.262277 
L 366.021818 264.152638 
L 382.254545 268.078458 
L 398.487273 273.044266 
" style="fill:none;stroke:#0e4db3;stroke-linecap:square;stroke-width:3;"/>
   </g>
   <g id="line2d_12">
    <path clip-path="url(#p9d4e1e1036)" d="M 73.832727 275.570446 
L 90.065455 258.329957 
L 106.298182 251.853871 
L 122.530909 244.885916 
L 138.763636 236.373499 
L 154.996364 235.45623 
L 171.229091 236.491465 
L 187.461818 221.898486 
L 203.694545 219.18515 
L 219.927273 218.411279 
L 236.16 222.138692 
L 252.392727 224.52171 
L 268.625455 225.029634 
L 284.858182 248.565762 
L 301.090909 244.323199 
L 317.323636 261.418257 
L 333.556364 265.53323 
L 349.789091 269.264254 
L 366.021818 267.668382 
L 382.254545 270.605445 
L 398.487273 275.570446 
" style="fill:none;stroke:#d44e4e;stroke-linecap:square;stroke-width:3;"/>
   </g>
   <g id="line2d_13">
    <path clip-path="url(#p9d4e1e1036)" d="M 73.832727 201.360647 
L 90.065455 200.721945 
L 106.298182 206.387375 
L 122.530909 217.27692 
L 138.763636 219.216595 
L 154.996364 221.594492 
L 171.229091 221.443193 
L 187.461818 209.188831 
L 203.694545 205.129472 
L 219.927273 219.606895 
L 236.16 219.597269 
L 252.392727 217.429505 
L 268.625455 205.380353 
L 284.858182 214.089485 
L 301.090909 203.194588 
L 317.323636 206.985887 
L 333.556364 206.561396 
L 349.789091 192.54218 
L 366.021818 196.524869 
L 382.254545 192.755835 
L 398.487273 201.360647 
" style="fill:none;stroke:#0e4db3;stroke-linecap:square;stroke-width:3;"/>
   </g>
   <g id="line2d_14">
    <path clip-path="url(#p9d4e1e1036)" d="M 73.832727 218.878272 
L 90.065455 211.241797 
L 106.298182 220.699418 
L 122.530909 231.312053 
L 138.763636 232.58893 
L 154.996364 234.711806 
L 171.229091 234.709142 
L 187.461818 225.251266 
L 203.694545 222.377219 
L 219.927273 233.455392 
L 236.16 233.41589 
L 252.392727 230.739386 
L 268.625455 221.908674 
L 284.858182 227.441051 
L 301.090909 220.468618 
L 317.323636 223.345753 
L 333.556364 222.882554 
L 349.789091 212.030229 
L 366.021818 214.028646 
L 382.254545 211.982236 
L 398.487273 218.878272 
" style="fill:none;stroke:#d44e4e;stroke-linecap:square;stroke-width:3;"/>
   </g>
   <g id="line2d_15">
    <path clip-path="url(#p9d4e1e1036)" d="M 73.832727 200.216308 
L 90.065455 196.100923 
L 106.298182 196.068303 
L 122.530909 196.090891 
L 138.763636 187.083848 
L 154.996364 187.529821 
L 171.229091 186.724292 
L 187.461818 192.759281 
L 203.694545 185.46175 
L 219.927273 188.754872 
L 236.16 194.286988 
L 252.392727 194.382816 
L 268.625455 195.376262 
L 284.858182 201.39687 
L 301.090909 202.500931 
L 317.323636 202.97854 
L 333.556364 202.756341 
L 349.789091 203.455779 
L 366.021818 201.538351 
L 382.254545 200.527269 
L 398.487273 200.216308 
" style="fill:none;stroke:#0e4db3;stroke-linecap:square;stroke-width:3;"/>
   </g>
   <g id="line2d_16">
    <path clip-path="url(#p9d4e1e1036)" d="M 73.832727 215.12681 
L 90.065455 212.163659 
L 106.298182 211.915333 
L 122.530909 211.64605 
L 138.763636 206.045525 
L 154.996364 205.953212 
L 171.229091 204.622585 
L 187.461818 209.194884 
L 203.694545 202.674917 
L 219.927273 205.809431 
L 236.16 210.3158 
L 252.392727 210.211515 
L 268.625455 211.111946 
L 284.858182 214.322665 
L 301.090909 215.135643 
L 317.323636 216.235221 
L 333.556364 216.793212 
L 349.789091 217.322648 
L 366.021818 215.748571 
L 382.254545 215.132765 
L 398.487273 215.12681 
" style="fill:none;stroke:#d44e4e;stroke-linecap:square;stroke-width:3;"/>
   </g>
   <g id="line2d_17">
    <path clip-path="url(#p9d4e1e1036)" d="M 73.832727 188.976045 
L 90.065455 188.861364 
L 106.298182 189.239952 
L 122.530909 198.277792 
L 138.763636 199.200112 
L 154.996364 201.506432 
L 171.229091 199.491224 
L 187.461818 197.078163 
L 203.694545 190.713764 
L 219.927273 192.962535 
L 236.16 192.054498 
L 252.392727 188.009909 
L 268.625455 186.588747 
L 284.858182 186.6668 
L 301.090909 182.177727 
L 317.323636 181.481712 
L 333.556364 170.728152 
L 349.789091 180.612332 
L 366.021818 180.087344 
L 382.254545 184.817655 
L 398.487273 188.976045 
" style="fill:none;stroke:#0e4db3;stroke-linecap:square;stroke-width:3;"/>
   </g>
   <g id="line2d_18">
    <path clip-path="url(#p9d4e1e1036)" d="M 73.832727 209.288772 
L 90.065455 209.285007 
L 106.298182 209.545347 
L 122.530909 216.275777 
L 138.763636 216.715935 
L 154.996364 217.82975 
L 171.229091 217.10766 
L 187.461818 214.043583 
L 203.694545 210.946573 
L 219.927273 212.15745 
L 236.16 212.334767 
L 252.392727 207.926804 
L 268.625455 205.937701 
L 284.858182 205.383313 
L 301.090909 202.885503 
L 317.323636 202.883731 
L 333.556364 195.736768 
L 349.789091 202.310907 
L 366.021818 201.51622 
L 382.254545 205.681937 
L 398.487273 209.288772 
" style="fill:none;stroke:#d44e4e;stroke-linecap:square;stroke-width:3;"/>
   </g>
   <g id="line2d_19">
    <path clip-path="url(#p9d4e1e1036)" d="M 73.832727 254.469068 
L 90.065455 253.99606 
L 106.298182 254.421333 
L 122.530909 253.392275 
L 138.763636 241.498964 
L 154.996364 239.957461 
L 171.229091 230.346427 
L 187.461818 233.30718 
L 203.694545 218.740839 
L 219.927273 207.294827 
L 236.16 207.475225 
L 252.392727 195.241349 
L 268.625455 184.462153 
L 284.858182 190.219034 
L 301.090909 175.299704 
L 317.323636 183.969508 
L 333.556364 186.428494 
L 349.789091 226.459583 
L 366.021818 230.159716 
L 382.254545 229.750985 
L 398.487273 254.469068 
" style="fill:none;stroke:#0e4db3;stroke-linecap:square;stroke-width:3;"/>
   </g>
   <g id="line2d_20">
    <path clip-path="url(#p9d4e1e1036)" d="M 73.832727 257.120204 
L 90.065455 256.428979 
L 106.298182 256.802112 
L 122.530909 256.353153 
L 138.763636 247.039336 
L 154.996364 245.872626 
L 171.229091 237.458597 
L 187.461818 239.725746 
L 203.694545 228.296623 
L 219.927273 219.928056 
L 236.16 219.951189 
L 252.392727 209.732139 
L 268.625455 201.19759 
L 284.858182 206.766202 
L 301.090909 194.433485 
L 317.323636 200.534475 
L 333.556364 202.923302 
L 349.789091 234.209674 
L 366.021818 237.300049 
L 382.254545 237.269279 
L 398.487273 257.120204 
" style="fill:none;stroke:#d44e4e;stroke-linecap:square;stroke-width:3;"/>
   </g>
   <g id="line2d_21">
    <path clip-path="url(#p9d4e1e1036)" d="M 73.832727 285.408 
L 90.065455 285.408 
L 106.298182 285.408 
L 122.530909 285.408 
L 138.763636 285.408 
L 154.996364 285.408 
L 171.229091 285.408 
L 187.461818 285.408 
L 203.694545 285.408 
L 219.927273 285.408 
L 236.16 285.408 
L 252.392727 285.408 
L 268.625455 285.408 
L 284.858182 285.408 
L 301.090909 285.408 
L 317.323636 285.408 
L 333.556364 285.408 
L 349.789091 285.408 
L 366.021818 285.408 
L 382.254545 285.408 
L 398.487273 285.408 
" style="fill:none;stroke:#0e4db3;stroke-linecap:square;stroke-width:3;"/>
   </g>
   <g id="line2d_22">
    <path clip-path="url(#p9d4e1e1036)" d="M 73.832727 285.408 
L 90.065455 285.408 
L 106.298182 285.408 
L 122.530909 285.408 
L 138.763636 285.408 
L 154.996364 285.408 
L 171.229091 285.408 
L 187.461818 285.408 
L 203.694545 285.408 
L 219.927273 285.408 
L 236.16 285.408 
L 252.392727 285.408 
L 268.625455 285.408 
L 284.858182 285.408 
L 301.090909 285.408 
L 317.323636 285.408 
L 333.556364 285.408 
L 349.789091 285.408 
L 366.021818 285.408 
L 382.254545 285.408 
L 398.487273 285.408 
" style="fill:none;stroke:#d44e4e;stroke-linecap:square;stroke-width:3;"/>
   </g>
   <g id="line2d_23">
    <path clip-path="url(#p9d4e1e1036)" d="M 73.832727 285.408 
L 90.065455 284.973664 
L 106.298182 285.23498 
L 122.530909 285.076066 
L 138.763636 285.262397 
L 154.996364 285.408 
L 171.229091 285.408 
L 187.461818 285.408 
L 203.694545 285.408 
L 219.927273 285.408 
L 236.16 285.408 
L 252.392727 285.408 
L 268.625455 284.397963 
L 284.858182 285.408 
L 301.090909 285.408 
L 317.323636 285.408 
L 333.556364 285.408 
L 349.789091 285.408 
L 366.021818 285.408 
L 382.254545 285.408 
L 398.487273 285.408 
" style="fill:none;stroke:#0e4db3;stroke-linecap:square;stroke-width:3;"/>
   </g>
   <g id="line2d_24">
    <path clip-path="url(#p9d4e1e1036)" d="M 73.832727 285.408 
L 90.065455 285.408 
L 106.298182 285.408 
L 122.530909 285.408 
L 138.763636 285.408 
L 154.996364 285.408 
L 171.229091 285.408 
L 187.461818 285.408 
L 203.694545 285.408 
L 219.927273 285.408 
L 236.16 285.408 
L 252.392727 285.408 
L 268.625455 285.408 
L 284.858182 285.408 
L 301.090909 285.408 
L 317.323636 285.408 
L 333.556364 285.408 
L 349.789091 285.408 
L 366.021818 285.408 
L 382.254545 285.408 
L 398.487273 285.408 
" style="fill:none;stroke:#d44e4e;stroke-linecap:square;stroke-width:3;"/>
   </g>
   <g id="line2d_25">
    <path clip-path="url(#p9d4e1e1036)" d="M 73.832727 260.460154 
L 90.065455 252.590818 
L 106.298182 241.06081 
L 122.530909 239.950348 
L 138.763636 228.035293 
L 154.996364 225.618016 
L 171.229091 217.626908 
L 187.461818 218.627136 
L 203.694545 207.135732 
L 219.927273 207.720331 
L 236.16 234.99913 
L 252.392727 209.103034 
L 268.625455 221.916082 
L 284.858182 237.786176 
L 301.090909 234.678844 
L 317.323636 245.853153 
L 333.556364 247.231906 
L 349.789091 249.497187 
L 366.021818 250.264069 
L 382.254545 257.781043 
L 398.487273 260.460154 
" style="fill:none;stroke:#0e4db3;stroke-linecap:square;stroke-width:3;"/>
   </g>
   <g id="line2d_26">
    <path clip-path="url(#p9d4e1e1036)" d="M 73.832727 260.937589 
L 90.065455 254.915849 
L 106.298182 245.574239 
L 122.530909 243.728152 
L 138.763636 234.859641 
L 154.996364 233.24758 
L 171.229091 226.687122 
L 187.461818 226.965718 
L 203.694545 218.353191 
L 219.927273 218.392015 
L 236.16 240.389527 
L 252.392727 219.667584 
L 268.625455 229.799053 
L 284.858182 243.145612 
L 301.090909 240.080173 
L 317.323636 248.984999 
L 333.556364 249.963748 
L 349.789091 250.877698 
L 366.021818 251.760131 
L 382.254545 258.318553 
L 398.487273 260.937589 
" style="fill:none;stroke:#d44e4e;stroke-linecap:square;stroke-width:3;"/>
   </g>
   <g id="line2d_27">
    <path clip-path="url(#p9d4e1e1036)" d="M 73.832727 233.90674 
L 90.065455 230.340913 
L 106.298182 224.976533 
L 122.530909 222.809285 
L 138.763636 225.452202 
L 154.996364 225.596747 
L 171.229091 225.85243 
L 187.461818 231.444707 
L 203.694545 230.574962 
L 219.927273 233.389369 
L 236.16 235.864173 
L 252.392727 232.835913 
L 268.625455 232.191784 
L 284.858182 232.257211 
L 301.090909 232.379943 
L 317.323636 232.865568 
L 333.556364 221.58226 
L 349.789091 227.807685 
L 366.021818 225.862902 
L 382.254545 234.091754 
L 398.487273 233.90674 
" style="fill:none;stroke:#0e4db3;stroke-linecap:square;stroke-width:3;"/>
   </g>
   <g id="line2d_28">
    <path clip-path="url(#p9d4e1e1036)" d="M 73.832727 244.903119 
L 90.065455 242.061333 
L 106.298182 237.918326 
L 122.530909 235.439769 
L 138.763636 239.310395 
L 154.996364 239.506258 
L 171.229091 239.421903 
L 187.461818 242.856489 
L 203.694545 241.096593 
L 219.927273 245.20183 
L 236.16 243.313681 
L 252.392727 243.622193 
L 268.625455 243.524701 
L 284.858182 244.193977 
L 301.090909 244.488202 
L 317.323636 244.386225 
L 333.556364 235.626538 
L 349.789091 237.537195 
L 366.021818 237.125916 
L 382.254545 244.904503 
L 398.487273 244.903119 
" style="fill:none;stroke:#d44e4e;stroke-linecap:square;stroke-width:3;"/>
   </g>
   <g id="line2d_29">
    <path clip-path="url(#p9d4e1e1036)" d="M 73.832727 283.536567 
L 90.065455 263.803452 
L 106.298182 247.167939 
L 122.530909 248.229058 
L 138.763636 228.052525 
L 154.996364 226.533889 
L 171.229091 226.827573 
L 187.461818 228.639719 
L 203.694545 223.578447 
L 219.927273 223.569486 
L 236.16 230.787257 
L 252.392727 226.031785 
L 268.625455 232.207399 
L 284.858182 247.029151 
L 301.090909 241.064001 
L 317.323636 262.775174 
L 333.556364 263.119428 
L 349.789091 268.459276 
L 366.021818 278.905157 
L 382.254545 269.324908 
L 398.487273 283.536567 
" style="fill:none;stroke:#0e4db3;stroke-linecap:square;stroke-width:3;"/>
   </g>
   <g id="line2d_30">
    <path clip-path="url(#p9d4e1e1036)" d="M 73.832727 284.922415 
L 90.065455 269.883246 
L 106.298182 256.476265 
L 122.530909 252.703348 
L 138.763636 241.897761 
L 154.996364 240.580478 
L 171.229091 240.625239 
L 187.461818 240.55965 
L 203.694545 237.067277 
L 219.927273 237.103078 
L 236.16 243.253256 
L 252.392727 238.906333 
L 268.625455 242.76962 
L 284.858182 256.681858 
L 301.090909 250.83669 
L 317.323636 267.468002 
L 333.556364 269.286442 
L 349.789091 274.039824 
L 366.021818 281.130485 
L 382.254545 274.061554 
L 398.487273 284.922415 
" style="fill:none;stroke:#d44e4e;stroke-linecap:square;stroke-width:3;"/>
   </g>
   <g id="line2d_31">
    <path clip-path="url(#p9d4e1e1036)" d="M 73.832727 208.432082 
L 90.065455 207.968067 
L 106.298182 203.241046 
L 122.530909 210.763974 
L 138.763636 215.263427 
L 154.996364 231.156271 
L 171.229091 233.953997 
L 187.461818 231.389875 
L 203.694545 206.782547 
L 219.927273 189.938828 
L 236.16 191.245494 
L 252.392727 189.631145 
L 268.625455 206.69584 
L 284.858182 217.160657 
L 301.090909 202.915651 
L 317.323636 197.807087 
L 333.556364 196.501221 
L 349.789091 194.098724 
L 366.021818 188.133766 
L 382.254545 193.697604 
L 398.487273 208.432082 
" style="fill:none;stroke:#0e4db3;stroke-linecap:square;stroke-width:3;"/>
   </g>
   <g id="line2d_32">
    <path clip-path="url(#p9d4e1e1036)" d="M 73.832727 219.408484 
L 90.065455 219.395817 
L 106.298182 215.573612 
L 122.530909 220.535012 
L 138.763636 225.612224 
L 154.996364 237.736249 
L 171.229091 239.844407 
L 187.461818 236.627131 
L 203.694545 217.172398 
L 219.927273 204.973494 
L 236.16 205.865886 
L 252.392727 204.61703 
L 268.625455 217.942909 
L 284.858182 226.384073 
L 301.090909 214.813208 
L 317.323636 210.909359 
L 333.556364 210.034065 
L 349.789091 208.205145 
L 366.021818 202.9547 
L 382.254545 207.690548 
L 398.487273 219.408484 
" style="fill:none;stroke:#d44e4e;stroke-linecap:square;stroke-width:3;"/>
   </g>
   <g id="line2d_33">
    <path clip-path="url(#p9d4e1e1036)" d="M 73.832727 205.967345 
L 90.065455 205.451989 
L 106.298182 213.758078 
L 122.530909 216.079353 
L 138.763636 232.572643 
L 154.996364 243.876659 
L 171.229091 232.330225 
L 187.461818 217.519235 
L 203.694545 211.405051 
L 219.927273 226.927705 
L 236.16 225.073034 
L 252.392727 225.135958 
L 268.625455 233.999522 
L 284.858182 240.646953 
L 301.090909 229.959723 
L 317.323636 228.007225 
L 333.556364 217.849536 
L 349.789091 217.42918 
L 366.021818 211.585999 
L 382.254545 206.292027 
L 398.487273 205.967345 
" style="fill:none;stroke:#0e4db3;stroke-linecap:square;stroke-width:3;"/>
   </g>
   <g id="line2d_34">
    <path clip-path="url(#p9d4e1e1036)" d="M 73.832727 218.468516 
L 90.065455 216.288942 
L 106.298182 224.77328 
L 122.530909 221.790164 
L 138.763636 239.610653 
L 154.996364 248.380893 
L 171.229091 238.817159 
L 187.461818 226.543359 
L 203.694545 221.827458 
L 219.927273 234.817661 
L 236.16 233.340449 
L 252.392727 233.062647 
L 268.625455 240.54374 
L 284.858182 245.244662 
L 301.090909 237.763013 
L 317.323636 235.055579 
L 333.556364 227.888622 
L 349.789091 226.136569 
L 366.021818 222.084346 
L 382.254545 216.255476 
L 398.487273 218.468516 
" style="fill:none;stroke:#d44e4e;stroke-linecap:square;stroke-width:3;"/>
   </g>
   <g id="line2d_35">
    <path clip-path="url(#p9d4e1e1036)" d="M 73.832727 168.102449 
L 90.065455 167.93528 
L 106.298182 165.305639 
L 122.530909 166.890888 
L 138.763636 166.727009 
L 154.996364 166.811549 
L 171.229091 165.220218 
L 187.461818 166.40707 
L 203.694545 160.953824 
L 219.927273 163.39043 
L 236.16 163.862988 
L 252.392727 163.760724 
L 268.625455 165.733656 
L 284.858182 167.242023 
L 301.090909 165.952038 
L 317.323636 166.583124 
L 333.556364 166.13561 
L 349.789091 167.457984 
L 366.021818 165.553282 
L 382.254545 166.737863 
L 398.487273 168.102449 
" style="fill:none;stroke:#0e4db3;stroke-linecap:square;stroke-width:3;"/>
   </g>
   <g id="line2d_36">
    <path clip-path="url(#p9d4e1e1036)" d="M 73.832727 186.96554 
L 90.065455 186.150686 
L 106.298182 184.449492 
L 122.530909 185.494996 
L 138.763636 185.468874 
L 154.996364 185.515997 
L 171.229091 184.281987 
L 187.461818 185.419259 
L 203.694545 180.949902 
L 219.927273 183.1675 
L 236.16 183.409536 
L 252.392727 183.35808 
L 268.625455 183.377078 
L 284.858182 185.293225 
L 301.090909 184.221657 
L 317.323636 185.058915 
L 333.556364 184.935615 
L 349.789091 186.093797 
L 366.021818 184.572769 
L 382.254545 185.740415 
L 398.487273 186.96554 
" style="fill:none;stroke:#d44e4e;stroke-linecap:square;stroke-width:3;"/>
   </g>
   <g id="line2d_37">
    <path clip-path="url(#p9d4e1e1036)" d="M 73.832727 228.562314 
L 90.065455 218.192469 
L 106.298182 218.102467 
L 122.530909 224.415398 
L 138.763636 225.287118 
L 154.996364 222.816427 
L 171.229091 222.677424 
L 187.461818 222.323127 
L 203.694545 230.489762 
L 219.927273 230.272486 
L 236.16 232.160901 
L 252.392727 243.980837 
L 268.625455 256.603999 
L 284.858182 261.368776 
L 301.090909 261.4994 
L 317.323636 259.606655 
L 333.556364 257.551552 
L 349.789091 254.362112 
L 366.021818 241.261781 
L 382.254545 228.651343 
L 398.487273 228.562314 
" style="fill:none;stroke:#0e4db3;stroke-linecap:square;stroke-width:3;"/>
   </g>
   <g id="line2d_38">
    <path clip-path="url(#p9d4e1e1036)" d="M 73.832727 236.582393 
L 90.065455 228.269244 
L 106.298182 228.595155 
L 122.530909 230.807308 
L 138.763636 234.122498 
L 154.996364 231.965826 
L 171.229091 231.711615 
L 187.461818 231.178906 
L 203.694545 237.73297 
L 219.927273 237.746677 
L 236.16 239.47044 
L 252.392727 248.815369 
L 268.625455 258.945063 
L 284.858182 262.453128 
L 301.090909 262.505866 
L 317.323636 260.879394 
L 333.556364 259.433202 
L 349.789091 256.714792 
L 366.021818 246.027623 
L 382.254545 235.710598 
L 398.487273 236.582393 
" style="fill:none;stroke:#d44e4e;stroke-linecap:square;stroke-width:3;"/>
   </g>
   <g id="line2d_39">
    <path clip-path="url(#p9d4e1e1036)" d="M 73.832727 133.911281 
L 90.065455 133.890406 
L 106.298182 133.602729 
L 122.530909 136.961886 
L 138.763636 135.939214 
L 154.996364 136.485226 
L 171.229091 136.706365 
L 187.461818 137.767438 
L 203.694545 134.139671 
L 219.927273 136.414888 
L 236.16 136.547641 
L 252.392727 135.939735 
L 268.625455 136.160573 
L 284.858182 140.179903 
L 301.090909 136.990012 
L 317.323636 136.811942 
L 333.556364 135.919926 
L 349.789091 136.008 
L 366.021818 133.683272 
L 382.254545 133.887603 
L 398.487273 133.911281 
" style="fill:none;stroke:#0e4db3;stroke-linecap:square;stroke-width:3;"/>
   </g>
   <g id="line2d_40">
    <path clip-path="url(#p9d4e1e1036)" d="M 73.832727 162.242766 
L 90.065455 162.239164 
L 106.298182 161.931573 
L 122.530909 164.314 
L 138.763636 163.122097 
L 154.996364 164.186113 
L 171.229091 163.879391 
L 187.461818 165.438739 
L 203.694545 162.095846 
L 219.927273 164.384871 
L 236.16 164.627765 
L 252.392727 163.841372 
L 268.625455 162.559253 
L 284.858182 164.682442 
L 301.090909 163.575473 
L 317.323636 163.579666 
L 333.556364 163.211225 
L 349.789091 163.625539 
L 366.021818 161.629346 
L 382.254545 162.063249 
L 398.487273 162.242766 
" style="fill:none;stroke:#d44e4e;stroke-linecap:square;stroke-width:3;"/>
   </g>
   <g id="line2d_41">
    <path clip-path="url(#p9d4e1e1036)" d="M 73.832727 285.408 
L 90.065455 285.408 
L 106.298182 285.408 
L 122.530909 285.408 
L 138.763636 285.408 
L 154.996364 285.408 
L 171.229091 285.408 
L 187.461818 285.408 
L 203.694545 285.408 
L 219.927273 285.408 
L 236.16 285.408 
L 252.392727 285.408 
L 268.625455 283.206218 
L 284.858182 284.778042 
L 301.090909 285.408 
L 317.323636 285.408 
L 333.556364 285.408 
L 349.789091 285.408 
L 366.021818 285.408 
L 382.254545 285.408 
L 398.487273 285.408 
" style="fill:none;stroke:#0e4db3;stroke-linecap:square;stroke-width:3;"/>
   </g>
   <g id="line2d_42">
    <path clip-path="url(#p9d4e1e1036)" d="M 73.832727 285.408 
L 90.065455 285.408 
L 106.298182 285.408 
L 122.530909 285.408 
L 138.763636 285.408 
L 154.996364 285.408 
L 171.229091 285.408 
L 187.461818 285.408 
L 203.694545 285.408 
L 219.927273 285.408 
L 236.16 285.408 
L 252.392727 285.408 
L 268.625455 285.408 
L 284.858182 285.408 
L 301.090909 285.408 
L 317.323636 285.408 
L 333.556364 285.408 
L 349.789091 285.408 
L 366.021818 285.408 
L 382.254545 285.408 
L 398.487273 285.408 
" style="fill:none;stroke:#d44e4e;stroke-linecap:square;stroke-width:3;"/>
   </g>
   <g id="line2d_43">
    <path clip-path="url(#p9d4e1e1036)" d="M 73.832727 226.276961 
L 90.065455 182.92639 
L 106.298182 193.297539 
L 122.530909 205.026641 
L 138.763636 207.261911 
L 154.996364 238.398663 
L 171.229091 248.718529 
L 187.461818 248.481277 
L 203.694545 216.717794 
L 219.927273 187.608813 
L 236.16 189.23931 
L 252.392727 186.611035 
L 268.625455 203.063353 
L 284.858182 221.274322 
L 301.090909 203.996938 
L 317.323636 196.23045 
L 333.556364 194.467142 
L 349.789091 201.007549 
L 366.021818 177.415826 
L 382.254545 198.330517 
L 398.487273 226.276961 
" style="fill:none;stroke:#0e4db3;stroke-linecap:square;stroke-width:3;"/>
   </g>
   <g id="line2d_44">
    <path clip-path="url(#p9d4e1e1036)" d="M 73.832727 238.824645 
L 90.065455 203.726074 
L 106.298182 210.148799 
L 122.530909 221.07854 
L 138.763636 224.061286 
L 154.996364 249.194042 
L 171.229091 257.46431 
L 187.461818 254.144733 
L 203.694545 229.204127 
L 219.927273 207.98875 
L 236.16 209.203578 
L 252.392727 207.092657 
L 268.625455 219.851306 
L 284.858182 234.579528 
L 301.090909 220.562206 
L 317.323636 214.410536 
L 333.556364 213.194226 
L 349.789091 216.937346 
L 366.021818 199.046739 
L 382.254545 215.780954 
L 398.487273 238.824645 
" style="fill:none;stroke:#d44e4e;stroke-linecap:square;stroke-width:3;"/>
   </g>
   <g id="line2d_45">
    <path clip-path="url(#p9d4e1e1036)" d="M 73.832727 259.992597 
L 90.065455 239.770489 
L 106.298182 246.646542 
L 122.530909 246.09545 
L 138.763636 250.833516 
L 154.996364 253.126057 
L 171.229091 258.75194 
L 187.461818 264.37184 
L 203.694545 261.896978 
L 219.927273 251.486281 
L 236.16 252.312784 
L 252.392727 252.028981 
L 268.625455 255.563757 
L 284.858182 246.272662 
L 301.090909 253.741661 
L 317.323636 264.391973 
L 333.556364 264.480976 
L 349.789091 259.013154 
L 366.021818 255.239046 
L 382.254545 254.714104 
L 398.487273 259.992597 
" style="fill:none;stroke:#0e4db3;stroke-linecap:square;stroke-width:3;"/>
   </g>
   <g id="line2d_46">
    <path clip-path="url(#p9d4e1e1036)" d="M 73.832727 266.448704 
L 90.065455 246.957156 
L 106.298182 252.617084 
L 122.530909 254.582782 
L 138.763636 258.903268 
L 154.996364 261.01548 
L 171.229091 264.756771 
L 187.461818 269.642255 
L 203.694545 267.11479 
L 219.927273 259.45337 
L 236.16 260.063679 
L 252.392727 259.841669 
L 268.625455 262.40949 
L 284.858182 254.987919 
L 301.090909 261.25257 
L 317.323636 269.16474 
L 333.556364 269.45088 
L 349.789091 265.123509 
L 366.021818 261.897482 
L 382.254545 261.692117 
L 398.487273 266.448704 
" style="fill:none;stroke:#d44e4e;stroke-linecap:square;stroke-width:3;"/>
   </g>
   <g id="line2d_47">
    <path clip-path="url(#p9d4e1e1036)" d="M 73.832727 256.743066 
L 90.065455 243.050712 
L 106.298182 225.376912 
L 122.530909 218.957767 
L 138.763636 209.87523 
L 154.996364 206.279389 
L 171.229091 215.664691 
L 187.461818 228.389469 
L 203.694545 230.811826 
L 219.927273 215.023018 
L 236.16 214.927901 
L 252.392727 222.434542 
L 268.625455 218.843305 
L 284.858182 231.147253 
L 301.090909 236.190593 
L 317.323636 267.426602 
L 333.556364 265.882869 
L 349.789091 267.224335 
L 366.021818 253.256786 
L 382.254545 256.889855 
L 398.487273 256.743066 
" style="fill:none;stroke:#0e4db3;stroke-linecap:square;stroke-width:3;"/>
   </g>
   <g id="line2d_48">
    <path clip-path="url(#p9d4e1e1036)" d="M 73.832727 262.206859 
L 90.065455 251.515282 
L 106.298182 228.768388 
L 122.530909 230.318034 
L 138.763636 225.726071 
L 154.996364 222.729668 
L 171.229091 229.988481 
L 187.461818 238.049703 
L 203.694545 241.241465 
L 219.927273 229.203269 
L 236.16 229.198879 
L 252.392727 234.72083 
L 268.625455 231.713306 
L 284.858182 240.934489 
L 301.090909 244.409975 
L 317.323636 271.534172 
L 333.556364 269.853155 
L 349.789091 269.471232 
L 366.021818 257.383864 
L 382.254545 261.366725 
L 398.487273 262.206859 
" style="fill:none;stroke:#d44e4e;stroke-linecap:square;stroke-width:3;"/>
   </g>
   <g id="line2d_49">
    <path clip-path="url(#p9d4e1e1036)" d="M 73.832727 228.970002 
L 90.065455 228.540947 
L 106.298182 228.374746 
L 122.530909 233.866422 
L 138.763636 228.493459 
L 154.996364 241.152665 
L 171.229091 242.364417 
L 187.461818 242.613804 
L 203.694545 241.765159 
L 219.927273 241.286044 
L 236.16 240.898095 
L 252.392727 234.608193 
L 268.625455 231.363388 
L 284.858182 236.471465 
L 301.090909 228.202393 
L 317.323636 228.403289 
L 333.556364 228.441354 
L 349.789091 229.776035 
L 366.021818 224.399904 
L 382.254545 228.607642 
L 398.487273 228.970002 
" style="fill:none;stroke:#0e4db3;stroke-linecap:square;stroke-width:3;"/>
   </g>
   <g id="line2d_50">
    <path clip-path="url(#p9d4e1e1036)" d="M 73.832727 237.375968 
L 90.065455 234.141594 
L 106.298182 233.940276 
L 122.530909 235.954737 
L 138.763636 237.302653 
L 154.996364 247.103283 
L 171.229091 247.8255 
L 187.461818 248.019544 
L 203.694545 247.920364 
L 219.927273 247.595308 
L 236.16 247.640208 
L 252.392727 241.332472 
L 268.625455 239.202855 
L 284.858182 242.923682 
L 301.090909 236.671098 
L 317.323636 236.688567 
L 333.556364 236.695662 
L 349.789091 238.102726 
L 366.021818 233.180127 
L 382.254545 236.816037 
L 398.487273 237.375968 
" style="fill:none;stroke:#d44e4e;stroke-linecap:square;stroke-width:3;"/>
   </g>
   <g id="line2d_51">
    <path clip-path="url(#p9d4e1e1036)" d="M 73.832727 285.408 
L 90.065455 285.408 
L 106.298182 285.408 
L 122.530909 285.408 
L 138.763636 285.408 
L 154.996364 285.408 
L 171.229091 285.408 
L 187.461818 285.408 
L 203.694545 285.408 
L 219.927273 285.408 
L 236.16 285.408 
L 252.392727 285.408 
L 268.625455 285.408 
L 284.858182 285.408 
L 301.090909 285.408 
L 317.323636 285.408 
L 333.556364 285.408 
L 349.789091 285.408 
L 366.021818 285.408 
L 382.254545 285.408 
L 398.487273 285.408 
" style="fill:none;stroke:#0e4db3;stroke-linecap:square;stroke-width:3;"/>
   </g>
   <g id="line2d_52">
    <path clip-path="url(#p9d4e1e1036)" d="M 73.832727 285.408 
L 90.065455 285.408 
L 106.298182 285.408 
L 122.530909 285.408 
L 138.763636 285.408 
L 154.996364 285.408 
L 171.229091 285.408 
L 187.461818 285.408 
L 203.694545 285.408 
L 219.927273 285.408 
L 236.16 285.408 
L 252.392727 285.408 
L 268.625455 285.408 
L 284.858182 285.408 
L 301.090909 285.408 
L 317.323636 285.408 
L 333.556364 285.408 
L 349.789091 285.408 
L 366.021818 285.408 
L 382.254545 285.408 
L 398.487273 285.408 
" style="fill:none;stroke:#d44e4e;stroke-linecap:square;stroke-width:3;"/>
   </g>
   <g id="line2d_53">
    <path clip-path="url(#p9d4e1e1036)" d="M 73.832727 210.401296 
L 90.065455 141.86715 
L 106.298182 143.745776 
L 122.530909 138.267949 
L 138.763636 112.266971 
L 154.996364 132.102228 
L 171.229091 176.772635 
L 187.461818 244.193412 
L 203.694545 212.217345 
L 219.927273 184.111458 
L 236.16 180.033872 
L 252.392727 151.052465 
L 268.625455 127.906983 
L 284.858182 114.200761 
L 301.090909 137.22029 
L 317.323636 183.377935 
L 333.556364 258.820897 
L 349.789091 285.408 
L 366.021818 262.797246 
L 382.254545 206.41275 
L 398.487273 210.401296 
" style="fill:none;stroke:#0e4db3;stroke-linecap:square;stroke-width:3;"/>
   </g>
   <g id="line2d_54">
    <path clip-path="url(#p9d4e1e1036)" d="M 73.832727 285.408 
L 90.065455 228.683274 
L 106.298182 233.864227 
L 122.530909 215.934072 
L 138.763636 259.378013 
L 154.996364 280.119263 
L 171.229091 285.408 
L 187.461818 285.408 
L 203.694545 285.408 
L 219.927273 285.408 
L 236.16 283.760814 
L 252.392727 259.839372 
L 268.625455 245.09769 
L 284.858182 248.082848 
L 301.090909 262.047994 
L 317.323636 285.408 
L 333.556364 285.408 
L 349.789091 285.408 
L 366.021818 285.408 
L 382.254545 285.408 
L 398.487273 285.408 
" style="fill:none;stroke:#d44e4e;stroke-linecap:square;stroke-width:3;"/>
   </g>
   <g id="line2d_55">
    <path clip-path="url(#p9d4e1e1036)" d="M 73.832727 285.408 
L 90.065455 285.408 
L 106.298182 285.408 
L 122.530909 285.408 
L 138.763636 285.408 
L 154.996364 285.408 
L 171.229091 285.408 
L 187.461818 285.408 
L 203.694545 285.408 
L 219.927273 285.408 
L 236.16 285.408 
L 252.392727 285.408 
L 268.625455 285.408 
L 284.858182 285.408 
L 301.090909 285.408 
L 317.323636 285.408 
L 333.556364 285.408 
L 349.789091 285.408 
L 366.021818 285.408 
L 382.254545 285.408 
L 398.487273 285.408 
" style="fill:none;stroke:#0e4db3;stroke-linecap:square;stroke-width:3;"/>
   </g>
   <g id="line2d_56">
    <path clip-path="url(#p9d4e1e1036)" d="M 73.832727 285.408 
L 90.065455 285.408 
L 106.298182 285.408 
L 122.530909 285.408 
L 138.763636 285.408 
L 154.996364 285.408 
L 171.229091 285.408 
L 187.461818 285.408 
L 203.694545 285.408 
L 219.927273 285.408 
L 236.16 285.408 
L 252.392727 285.408 
L 268.625455 285.408 
L 284.858182 285.408 
L 301.090909 285.408 
L 317.323636 285.408 
L 333.556364 285.408 
L 349.789091 285.408 
L 366.021818 285.408 
L 382.254545 285.408 
L 398.487273 285.408 
" style="fill:none;stroke:#d44e4e;stroke-linecap:square;stroke-width:3;"/>
   </g>
   <g id="line2d_57">
    <path clip-path="url(#p9d4e1e1036)" d="M 73.832727 285.408 
L 90.065455 285.408 
L 106.298182 285.408 
L 122.530909 285.408 
L 138.763636 285.408 
L 154.996364 285.408 
L 171.229091 285.408 
L 187.461818 285.408 
L 203.694545 285.408 
L 219.927273 285.408 
L 236.16 285.408 
L 252.392727 285.408 
L 268.625455 285.408 
L 284.858182 285.408 
L 301.090909 285.408 
L 317.323636 285.408 
L 333.556364 285.408 
L 349.789091 285.408 
L 366.021818 285.408 
L 382.254545 285.408 
L 398.487273 285.408 
" style="fill:none;stroke:#0e4db3;stroke-linecap:square;stroke-width:3;"/>
   </g>
   <g id="line2d_58">
    <path clip-path="url(#p9d4e1e1036)" d="M 73.832727 285.408 
L 90.065455 285.408 
L 106.298182 285.408 
L 122.530909 285.408 
L 138.763636 285.408 
L 154.996364 285.408 
L 171.229091 285.408 
L 187.461818 285.408 
L 203.694545 285.408 
L 219.927273 285.408 
L 236.16 285.408 
L 252.392727 285.408 
L 268.625455 285.408 
L 284.858182 285.408 
L 301.090909 285.408 
L 317.323636 285.408 
L 333.556364 285.408 
L 349.789091 285.408 
L 366.021818 285.408 
L 382.254545 285.408 
L 398.487273 285.408 
" style="fill:none;stroke:#d44e4e;stroke-linecap:square;stroke-width:3;"/>
   </g>
   <g id="line2d_59">
    <path clip-path="url(#p9d4e1e1036)" d="M 73.832727 29.410159 
L 90.065455 108.487488 
L 106.298182 184.665638 
L 122.530909 195.830657 
L 138.763636 191.496398 
L 154.996364 194.214379 
L 171.229091 189.117359 
L 187.461818 202.384413 
L 203.694545 215.080886 
L 219.927273 167.088882 
L 236.16 154.98729 
L 252.392727 140.685441 
L 268.625455 175.45237 
L 284.858182 138.38248 
L 301.090909 84.997346 
L 317.323636 18.042206 
L 323.160003 -1 
M 374.613178 -1 
L 382.254545 7.229197 
L 398.487273 29.410159 
" style="fill:none;stroke:#0e4db3;stroke-linecap:square;stroke-width:3;"/>
   </g>
   <g id="line2d_60">
    <path clip-path="url(#p9d4e1e1036)" d="M 73.832727 285.408 
L 90.065455 285.408 
L 106.298182 285.408 
L 122.530909 285.408 
L 138.763636 285.408 
L 154.996364 285.408 
L 171.229091 285.408 
L 187.461818 285.408 
L 203.694545 285.408 
L 219.927273 285.408 
L 236.16 285.408 
L 252.392727 285.408 
L 268.625455 285.408 
L 284.858182 285.408 
L 301.090909 285.408 
L 317.323636 215.361404 
L 333.556364 249.142635 
L 349.789091 217.867184 
L 366.021818 211.733266 
L 382.254545 240.643333 
L 398.487273 285.408 
" style="fill:none;stroke:#d44e4e;stroke-linecap:square;stroke-width:3;"/>
   </g>
   <g id="line2d_61">
    <path clip-path="url(#p9d4e1e1036)" d="M 73.832727 285.408 
L 90.065455 285.408 
L 106.298182 285.408 
L 122.530909 285.408 
L 138.763636 285.408 
L 154.996364 285.408 
L 171.229091 285.408 
L 187.461818 285.408 
L 203.694545 285.408 
L 219.927273 285.408 
L 236.16 285.408 
L 252.392727 285.408 
L 268.625455 285.408 
L 284.858182 285.408 
L 301.090909 285.408 
L 317.323636 285.408 
L 333.556364 285.408 
L 349.789091 285.408 
L 366.021818 285.408 
L 382.254545 285.408 
L 398.487273 285.408 
" style="fill:none;stroke:#0e4db3;stroke-linecap:square;stroke-width:3;"/>
   </g>
   <g id="line2d_62">
    <path clip-path="url(#p9d4e1e1036)" d="M 73.832727 285.408 
L 90.065455 285.408 
L 106.298182 285.408 
L 122.530909 285.408 
L 138.763636 285.408 
L 154.996364 285.408 
L 171.229091 285.408 
L 187.461818 285.408 
L 203.694545 285.408 
L 219.927273 285.408 
L 236.16 285.408 
L 252.392727 285.408 
L 268.625455 285.408 
L 284.858182 285.408 
L 301.090909 285.408 
L 317.323636 285.408 
L 333.556364 285.408 
L 349.789091 285.408 
L 366.021818 285.408 
L 382.254545 285.408 
L 398.487273 285.408 
" style="fill:none;stroke:#d44e4e;stroke-linecap:square;stroke-width:3;"/>
   </g>
   <g id="line2d_63">
    <path clip-path="url(#p9d4e1e1036)" d="M 73.832727 285.408 
L 90.065455 285.408 
L 106.298182 285.408 
L 122.530909 285.408 
L 138.763636 285.408 
L 154.996364 285.408 
L 171.229091 285.408 
L 187.461818 285.408 
L 203.694545 285.408 
L 219.927273 285.408 
L 236.16 285.408 
L 252.392727 285.408 
L 268.625455 285.408 
L 284.858182 285.408 
L 301.090909 285.408 
L 317.323636 285.408 
L 333.556364 285.408 
L 349.789091 285.408 
L 366.021818 285.408 
L 382.254545 285.408 
L 398.487273 285.408 
" style="fill:none;stroke:#0e4db3;stroke-linecap:square;stroke-width:3;"/>
   </g>
   <g id="line2d_64">
    <path clip-path="url(#p9d4e1e1036)" d="M 73.832727 285.408 
L 90.065455 285.408 
L 106.298182 285.408 
L 122.530909 285.408 
L 138.763636 285.408 
L 154.996364 285.408 
L 171.229091 285.408 
L 187.461818 285.408 
L 203.694545 285.408 
L 219.927273 285.408 
L 236.16 285.408 
L 252.392727 285.408 
L 268.625455 285.408 
L 284.858182 285.408 
L 301.090909 285.408 
L 317.323636 285.408 
L 333.556364 285.408 
L 349.789091 285.408 
L 366.021818 285.408 
L 382.254545 285.408 
L 398.487273 285.408 
" style="fill:none;stroke:#d44e4e;stroke-linecap:square;stroke-width:3;"/>
   </g>
   <g id="line2d_65">
    <path clip-path="url(#p9d4e1e1036)" d="M 73.832727 253.135669 
L 90.065455 253.246146 
L 106.298182 259.604454 
L 122.530909 268.18513 
L 138.763636 268.093429 
L 154.996364 269.55596 
L 171.229091 259.069979 
L 187.461818 234.155287 
L 203.694545 182.142175 
L 219.927273 145.22282 
L 236.16 191.370433 
L 252.392727 123.658057 
L 268.625455 132.236463 
L 284.858182 135.292072 
L 301.090909 135.949118 
L 317.323636 157.800133 
L 333.556364 171.550977 
L 349.789091 196.090747 
L 366.021818 208.908104 
L 382.254545 230.878944 
L 398.487273 253.135669 
" style="fill:none;stroke:#0e4db3;stroke-linecap:square;stroke-width:3;"/>
   </g>
   <g id="line2d_66">
    <path clip-path="url(#p9d4e1e1036)" d="M 73.832727 283.837324 
L 90.065455 273.80171 
L 106.298182 283.044702 
L 122.530909 278.009249 
L 138.763636 277.514887 
L 154.996364 278.215803 
L 171.229091 283.937771 
L 187.461818 284.275627 
L 203.694545 284.090907 
L 219.927273 239.40676 
L 236.16 283.252392 
L 252.392727 220.336781 
L 268.625455 232.984612 
L 284.858182 247.486618 
L 301.090909 254.939671 
L 317.323636 246.074761 
L 333.556364 258.281762 
L 349.789091 249.486642 
L 366.021818 258.789652 
L 382.254545 264.485631 
L 398.487273 283.837324 
" style="fill:none;stroke:#d44e4e;stroke-linecap:square;stroke-width:3;"/>
   </g>
   <g id="line2d_67">
    <path clip-path="url(#p9d4e1e1036)" d="M 73.832727 285.408 
L 90.065455 285.408 
L 106.298182 285.408 
L 122.530909 285.408 
L 138.763636 285.408 
L 154.996364 285.408 
L 171.229091 285.408 
L 187.461818 285.408 
L 203.694545 285.408 
L 219.927273 285.408 
L 236.16 285.408 
L 252.392727 285.408 
L 268.625455 285.408 
L 284.858182 285.408 
L 301.090909 285.408 
L 317.323636 285.408 
L 333.556364 285.408 
L 349.789091 285.408 
L 366.021818 285.408 
L 382.254545 285.408 
L 398.487273 285.408 
" style="fill:none;stroke:#0e4db3;stroke-linecap:square;stroke-width:3;"/>
   </g>
   <g id="line2d_68">
    <path clip-path="url(#p9d4e1e1036)" d="M 73.832727 285.408 
L 90.065455 285.408 
L 106.298182 285.408 
L 122.530909 285.408 
L 138.763636 285.408 
L 154.996364 285.408 
L 171.229091 285.408 
L 187.461818 285.408 
L 203.694545 285.408 
L 219.927273 285.408 
L 236.16 285.408 
L 252.392727 285.408 
L 268.625455 285.408 
L 284.858182 285.408 
L 301.090909 285.408 
L 317.323636 285.408 
L 333.556364 285.408 
L 349.789091 285.408 
L 366.021818 285.408 
L 382.254545 285.408 
L 398.487273 285.408 
" style="fill:none;stroke:#d44e4e;stroke-linecap:square;stroke-width:3;"/>
   </g>
   <g id="line2d_69">
    <path clip-path="url(#p9d4e1e1036)" d="M 73.832727 285.408 
L 90.065455 285.408 
L 106.298182 285.408 
L 122.530909 285.408 
L 138.763636 285.408 
L 154.996364 285.408 
L 171.229091 285.408 
L 187.461818 285.408 
L 203.694545 285.408 
L 219.927273 285.408 
L 236.16 285.408 
L 252.392727 285.408 
L 268.625455 285.408 
L 284.858182 285.408 
L 301.090909 285.408 
L 317.323636 285.408 
L 333.556364 285.408 
L 349.789091 285.408 
L 366.021818 285.408 
L 382.254545 285.408 
L 398.487273 285.408 
" style="fill:none;stroke:#0e4db3;stroke-linecap:square;stroke-width:3;"/>
   </g>
   <g id="line2d_70">
    <path clip-path="url(#p9d4e1e1036)" d="M 73.832727 285.408 
L 90.065455 285.408 
L 106.298182 285.408 
L 122.530909 285.408 
L 138.763636 285.408 
L 154.996364 285.408 
L 171.229091 285.408 
L 187.461818 285.408 
L 203.694545 285.408 
L 219.927273 285.408 
L 236.16 285.408 
L 252.392727 285.408 
L 268.625455 285.408 
L 284.858182 285.408 
L 301.090909 285.408 
L 317.323636 285.408 
L 333.556364 285.408 
L 349.789091 285.408 
L 366.021818 285.408 
L 382.254545 285.408 
L 398.487273 285.408 
" style="fill:none;stroke:#d44e4e;stroke-linecap:square;stroke-width:3;"/>
   </g>
   <g id="line2d_71">
    <path clip-path="url(#p9d4e1e1036)" d="M 73.832727 285.408 
L 90.065455 285.408 
L 106.298182 285.408 
L 122.530909 285.408 
L 138.763636 285.408 
L 154.996364 285.408 
L 171.229091 285.408 
L 187.461818 285.408 
L 203.694545 285.408 
L 219.927273 285.408 
L 236.16 285.408 
L 252.392727 285.408 
L 268.625455 285.408 
L 284.858182 285.408 
L 301.090909 285.408 
L 317.323636 285.408 
L 333.556364 285.408 
L 349.789091 285.408 
L 366.021818 285.408 
L 382.254545 285.408 
L 398.487273 285.408 
" style="fill:none;stroke:#0e4db3;stroke-linecap:square;stroke-width:3;"/>
   </g>
   <g id="line2d_72">
    <path clip-path="url(#p9d4e1e1036)" d="M 73.832727 285.408 
L 90.065455 285.408 
L 106.298182 285.408 
L 122.530909 285.408 
L 138.763636 285.408 
L 154.996364 285.408 
L 171.229091 285.408 
L 187.461818 285.408 
L 203.694545 285.408 
L 219.927273 285.408 
L 236.16 285.408 
L 252.392727 285.408 
L 268.625455 285.408 
L 284.858182 285.408 
L 301.090909 285.408 
L 317.323636 285.408 
L 333.556364 285.408 
L 349.789091 285.408 
L 366.021818 285.408 
L 382.254545 285.408 
L 398.487273 285.408 
" style="fill:none;stroke:#d44e4e;stroke-linecap:square;stroke-width:3;"/>
   </g>
   <g id="line2d_73">
    <path clip-path="url(#p9d4e1e1036)" d="M 73.832727 285.408 
L 90.065455 285.408 
L 106.298182 285.408 
L 122.530909 285.408 
L 138.763636 285.408 
L 154.996364 285.408 
L 171.229091 285.408 
L 187.461818 285.408 
L 203.694545 285.408 
L 219.927273 285.408 
L 236.16 285.408 
L 252.392727 285.408 
L 268.625455 285.408 
L 284.858182 285.408 
L 301.090909 285.408 
L 317.323636 285.408 
L 333.556364 285.408 
L 349.789091 285.408 
L 366.021818 285.408 
L 382.254545 285.408 
L 398.487273 285.408 
" style="fill:none;stroke:#0e4db3;stroke-linecap:square;stroke-width:3;"/>
   </g>
   <g id="line2d_74">
    <path clip-path="url(#p9d4e1e1036)" d="M 73.832727 285.408 
L 90.065455 285.408 
L 106.298182 285.408 
L 122.530909 285.408 
L 138.763636 285.408 
L 154.996364 285.408 
L 171.229091 285.408 
L 187.461818 285.408 
L 203.694545 285.408 
L 219.927273 285.408 
L 236.16 285.408 
L 252.392727 285.408 
L 268.625455 285.408 
L 284.858182 285.408 
L 301.090909 285.408 
L 317.323636 285.408 
L 333.556364 285.408 
L 349.789091 285.408 
L 366.021818 285.408 
L 382.254545 285.408 
L 398.487273 285.408 
" style="fill:none;stroke:#d44e4e;stroke-linecap:square;stroke-width:3;"/>
   </g>
   <g id="line2d_75">
    <path clip-path="url(#p9d4e1e1036)" d="M 73.832727 192.334061 
L 90.065455 164.19143 
L 106.298182 115.086034 
L 122.530909 122.696561 
L 138.763636 78.340682 
L 154.996364 81.50071 
L 171.229091 112.444635 
L 187.461818 176.383852 
L 203.694545 146.34852 
L 219.927273 145.834085 
L 236.16 180.435467 
L 252.392727 159.713882 
L 268.625455 168.285037 
L 284.858182 196.094726 
L 301.090909 198.480617 
L 317.323636 230.291918 
L 333.556364 217.26065 
L 349.789091 207.166273 
L 366.021818 187.105997 
L 382.254545 186.980055 
L 398.487273 192.334061 
" style="fill:none;stroke:#0e4db3;stroke-linecap:square;stroke-width:3;"/>
   </g>
   <g id="line2d_76">
    <path clip-path="url(#p9d4e1e1036)" d="M 73.832727 285.408 
L 90.065455 285.408 
L 106.298182 285.408 
L 122.530909 285.408 
L 138.763636 285.408 
L 154.996364 285.408 
L 171.229091 285.408 
L 187.461818 285.408 
L 203.694545 285.408 
L 219.927273 285.408 
L 236.16 285.408 
L 252.392727 285.408 
L 268.625455 285.408 
L 284.858182 285.408 
L 301.090909 285.408 
L 317.323636 285.408 
L 333.556364 285.408 
L 349.789091 285.408 
L 366.021818 285.408 
L 382.254545 285.408 
L 398.487273 285.408 
" style="fill:none;stroke:#d44e4e;stroke-linecap:square;stroke-width:3;"/>
   </g>
   <g id="line2d_77">
    <path clip-path="url(#p9d4e1e1036)" d="M 73.832727 285.408 
L 90.065455 285.408 
L 106.298182 285.408 
L 122.530909 285.408 
L 138.763636 285.408 
L 154.996364 285.408 
L 171.229091 285.408 
L 187.461818 285.408 
L 203.694545 285.408 
L 219.927273 285.408 
L 236.16 285.408 
L 252.392727 285.408 
L 268.625455 285.408 
L 284.858182 285.408 
L 301.090909 285.408 
L 317.323636 285.408 
L 333.556364 285.408 
L 349.789091 285.408 
L 366.021818 285.408 
L 382.254545 285.408 
L 398.487273 285.408 
" style="fill:none;stroke:#0e4db3;stroke-linecap:square;stroke-width:3;"/>
   </g>
   <g id="line2d_78">
    <path clip-path="url(#p9d4e1e1036)" d="M 73.832727 285.408 
L 90.065455 285.408 
L 106.298182 285.408 
L 122.530909 285.408 
L 138.763636 285.408 
L 154.996364 285.408 
L 171.229091 285.408 
L 187.461818 285.408 
L 203.694545 285.408 
L 219.927273 285.408 
L 236.16 285.408 
L 252.392727 285.408 
L 268.625455 285.408 
L 284.858182 285.408 
L 301.090909 285.408 
L 317.323636 285.408 
L 333.556364 285.408 
L 349.789091 285.408 
L 366.021818 285.408 
L 382.254545 285.408 
L 398.487273 285.408 
" style="fill:none;stroke:#d44e4e;stroke-linecap:square;stroke-width:3;"/>
   </g>
   <g id="line2d_79">
    <path clip-path="url(#p9d4e1e1036)" d="M 73.832727 285.408 
L 90.065455 285.408 
L 106.298182 285.408 
L 122.530909 285.408 
L 138.763636 285.408 
L 154.996364 285.408 
L 171.229091 285.408 
L 187.461818 285.408 
L 203.694545 285.408 
L 219.927273 285.408 
L 236.16 285.408 
L 252.392727 285.408 
L 268.625455 285.408 
L 284.858182 285.408 
L 301.090909 285.408 
L 317.323636 285.408 
L 333.556364 285.408 
L 349.789091 285.408 
L 366.021818 285.408 
L 382.254545 285.408 
L 398.487273 285.408 
" style="fill:none;stroke:#0e4db3;stroke-linecap:square;stroke-width:3;"/>
   </g>
   <g id="line2d_80">
    <path clip-path="url(#p9d4e1e1036)" d="M 73.832727 285.408 
L 90.065455 285.408 
L 106.298182 285.408 
L 122.530909 285.408 
L 138.763636 285.408 
L 154.996364 285.408 
L 171.229091 285.408 
L 187.461818 285.408 
L 203.694545 285.408 
L 219.927273 285.408 
L 236.16 285.408 
L 252.392727 285.408 
L 268.625455 285.408 
L 284.858182 285.408 
L 301.090909 285.408 
L 317.323636 285.408 
L 333.556364 285.408 
L 349.789091 285.408 
L 366.021818 285.408 
L 382.254545 285.408 
L 398.487273 285.408 
" style="fill:none;stroke:#d44e4e;stroke-linecap:square;stroke-width:3;"/>
   </g>
   <g id="line2d_81">
    <path clip-path="url(#p9d4e1e1036)" d="M 73.832727 285.408 
L 90.065455 285.408 
L 106.298182 285.408 
L 122.530909 285.408 
L 138.763636 285.408 
L 154.996364 285.408 
L 171.229091 285.408 
L 187.461818 285.408 
L 203.694545 285.408 
L 219.927273 285.408 
L 236.16 285.408 
L 252.392727 285.408 
L 268.625455 285.408 
L 284.858182 285.408 
L 301.090909 285.408 
L 317.323636 285.408 
L 333.556364 285.408 
L 349.789091 285.408 
L 366.021818 285.408 
L 382.254545 285.408 
L 398.487273 285.408 
" style="fill:none;stroke:#0e4db3;stroke-linecap:square;stroke-width:3;"/>
   </g>
   <g id="line2d_82">
    <path clip-path="url(#p9d4e1e1036)" d="M 73.832727 285.408 
L 90.065455 285.408 
L 106.298182 285.408 
L 122.530909 285.408 
L 138.763636 285.408 
L 154.996364 285.408 
L 171.229091 285.408 
L 187.461818 285.408 
L 203.694545 285.408 
L 219.927273 285.408 
L 236.16 285.408 
L 252.392727 285.408 
L 268.625455 285.408 
L 284.858182 285.408 
L 301.090909 285.408 
L 317.323636 285.408 
L 333.556364 285.408 
L 349.789091 285.408 
L 366.021818 285.408 
L 382.254545 285.408 
L 398.487273 285.408 
" style="fill:none;stroke:#d44e4e;stroke-linecap:square;stroke-width:3;"/>
   </g>
   <g id="line2d_83">
    <path clip-path="url(#p9d4e1e1036)" d="M 73.832727 214.872072 
L 90.065455 179.402879 
L 106.298182 232.44457 
L 122.530909 229.852415 
L 138.763636 208.715798 
L 154.996364 205.059198 
L 171.229091 184.542674 
L 187.461818 130.390828 
L 203.694545 94.26214 
L 219.927273 70.761491 
L 236.16 99.720853 
L 252.392727 29.559871 
L 268.625455 14.521406 
L 284.858182 62.474168 
L 301.090909 65.031966 
L 317.323636 139.405777 
L 333.556364 174.251802 
L 349.789091 145.414327 
L 366.021818 148.739844 
L 382.254545 159.378177 
L 398.487273 214.872072 
" style="fill:none;stroke:#0e4db3;stroke-linecap:square;stroke-width:3;"/>
   </g>
   <g id="line2d_84">
    <path clip-path="url(#p9d4e1e1036)" d="M 73.832727 285.408 
L 90.065455 285.408 
L 106.298182 285.408 
L 122.530909 285.408 
L 138.763636 285.408 
L 154.996364 285.408 
L 171.229091 285.408 
L 187.461818 285.408 
L 203.694545 285.408 
L 219.927273 285.408 
L 236.16 285.408 
L 252.392727 285.408 
L 268.625455 285.408 
L 284.858182 285.408 
L 301.090909 285.408 
L 317.323636 285.408 
L 333.556364 285.408 
L 349.789091 285.408 
L 366.021818 285.408 
L 382.254545 285.408 
L 398.487273 285.408 
" style="fill:none;stroke:#d44e4e;stroke-linecap:square;stroke-width:3;"/>
   </g>
   <g id="line2d_85">
    <path clip-path="url(#p9d4e1e1036)" d="M 73.832727 285.408 
L 90.065455 285.408 
L 106.298182 285.408 
L 122.530909 285.408 
L 138.763636 285.408 
L 154.996364 285.408 
L 171.229091 285.408 
L 187.461818 285.408 
L 203.694545 285.408 
L 219.927273 285.408 
L 236.16 285.408 
L 252.392727 285.408 
L 268.625455 285.408 
L 284.858182 285.408 
L 301.090909 285.408 
L 317.323636 285.408 
L 333.556364 285.408 
L 349.789091 285.408 
L 366.021818 285.408 
L 382.254545 285.408 
L 398.487273 285.408 
" style="fill:none;stroke:#0e4db3;stroke-linecap:square;stroke-width:3;"/>
   </g>
   <g id="line2d_86">
    <path clip-path="url(#p9d4e1e1036)" d="M 73.832727 285.408 
L 90.065455 285.408 
L 106.298182 285.408 
L 122.530909 285.408 
L 138.763636 285.408 
L 154.996364 285.408 
L 171.229091 285.408 
L 187.461818 285.408 
L 203.694545 285.408 
L 219.927273 285.408 
L 236.16 285.408 
L 252.392727 285.408 
L 268.625455 285.408 
L 284.858182 285.408 
L 301.090909 285.408 
L 317.323636 285.408 
L 333.556364 285.408 
L 349.789091 285.408 
L 366.021818 285.408 
L 382.254545 285.408 
L 398.487273 285.408 
" style="fill:none;stroke:#d44e4e;stroke-linecap:square;stroke-width:3;"/>
   </g>
   <g id="line2d_87">
    <path clip-path="url(#p9d4e1e1036)" d="M 73.832727 105.845115 
L 90.065455 79.32266 
L 106.298182 82.564795 
L 122.530909 106.945076 
L 138.763636 137.333014 
L 154.996364 148.656068 
L 171.229091 132.63032 
L 187.461818 155.339514 
L 203.694545 204.158627 
L 219.927273 232.717536 
L 236.16 239.90266 
L 252.392727 199.584927 
L 268.625455 216.346845 
L 284.858182 213.464336 
L 301.090909 140.955997 
L 317.323636 160.745845 
L 333.556364 148.005602 
L 349.789091 162.639635 
L 366.021818 140.730167 
L 382.254545 130.217809 
L 398.487273 105.845115 
" style="fill:none;stroke:#0e4db3;stroke-linecap:square;stroke-width:3;"/>
   </g>
   <g id="line2d_88">
    <path clip-path="url(#p9d4e1e1036)" d="M 73.832727 285.408 
L 90.065455 256.223305 
L 106.298182 236.908014 
L 122.530909 256.571877 
L 138.763636 285.408 
L 154.996364 285.408 
L 171.229091 251.636228 
L 187.461818 278.259958 
L 203.694545 285.408 
L 219.927273 285.408 
L 236.16 285.408 
L 252.392727 285.408 
L 268.625455 285.408 
L 284.858182 285.408 
L 301.090909 283.687392 
L 317.323636 285.408 
L 333.556364 285.408 
L 349.789091 246.582422 
L 366.021818 230.38254 
L 382.254545 248.244691 
L 398.487273 285.408 
" style="fill:none;stroke:#d44e4e;stroke-linecap:square;stroke-width:3;"/>
   </g>
   <g id="line2d_89">
    <path clip-path="url(#p9d4e1e1036)" d="M 73.832727 144.906032 
L 90.065455 153.152706 
L 106.298182 152.841223 
L 122.530909 148.830361 
L 138.763636 161.740483 
L 154.996364 204.479088 
L 171.229091 223.417128 
L 187.461818 236.83659 
L 203.694545 196.473129 
L 219.927273 105.426087 
L 236.16 65.049666 
L 252.392727 49.015717 
L 268.625455 71.12187 
L 284.858182 95.255342 
L 301.090909 87.708192 
L 317.323636 80.594029 
L 333.556364 105.421511 
L 349.789091 98.902975 
L 366.021818 132.34277 
L 382.254545 140.131342 
L 398.487273 144.906032 
" style="fill:none;stroke:#0e4db3;stroke-linecap:square;stroke-width:3;"/>
   </g>
   <g id="line2d_90">
    <path clip-path="url(#p9d4e1e1036)" d="M 73.832727 175.777487 
L 90.065455 179.624296 
L 106.298182 176.252374 
L 122.530909 179.880708 
L 138.763636 181.084751 
L 154.996364 221.976006 
L 171.229091 243.183755 
L 187.461818 240.437731 
L 203.694545 211.869796 
L 219.927273 153.298653 
L 236.16 120.371081 
L 252.392727 107.551928 
L 268.625455 118.461247 
L 284.858182 139.499851 
L 301.090909 129.755167 
L 317.323636 120.968619 
L 333.556364 139.872683 
L 349.789091 135.803762 
L 366.021818 157.02705 
L 382.254545 139.328802 
L 398.487273 175.777487 
" style="fill:none;stroke:#d44e4e;stroke-linecap:square;stroke-width:3;"/>
   </g>
   <g id="line2d_91">
    <path clip-path="url(#p9d4e1e1036)" d="M 73.832727 285.408 
L 90.065455 285.408 
L 106.298182 285.408 
L 122.530909 285.408 
L 138.763636 285.408 
L 154.996364 285.408 
L 171.229091 285.408 
L 187.461818 285.408 
L 203.694545 285.408 
L 219.927273 285.408 
L 236.16 285.408 
L 252.392727 285.408 
L 268.625455 285.408 
L 284.858182 285.408 
L 301.090909 285.408 
L 317.323636 285.408 
L 333.556364 285.408 
L 349.789091 285.408 
L 366.021818 285.408 
L 382.254545 285.408 
L 398.487273 285.408 
" style="fill:none;stroke:#0e4db3;stroke-linecap:square;stroke-width:3;"/>
   </g>
   <g id="line2d_92">
    <path clip-path="url(#p9d4e1e1036)" d="M 73.832727 285.408 
L 90.065455 285.408 
L 106.298182 285.408 
L 122.530909 285.408 
L 138.763636 285.408 
L 154.996364 285.408 
L 171.229091 285.408 
L 187.461818 285.408 
L 203.694545 285.408 
L 219.927273 285.408 
L 236.16 285.408 
L 252.392727 285.408 
L 268.625455 285.408 
L 284.858182 285.408 
L 301.090909 285.408 
L 317.323636 285.408 
L 333.556364 285.408 
L 349.789091 285.408 
L 366.021818 285.408 
L 382.254545 285.408 
L 398.487273 285.408 
" style="fill:none;stroke:#d44e4e;stroke-linecap:square;stroke-width:3;"/>
   </g>
   <g id="line2d_93">
    <path clip-path="url(#p9d4e1e1036)" d="M 73.832727 285.408 
L 90.065455 285.408 
L 106.298182 285.408 
L 122.530909 285.408 
L 138.763636 285.408 
L 154.996364 285.408 
L 171.229091 285.408 
L 187.461818 285.408 
L 203.694545 285.408 
L 219.927273 285.408 
L 236.16 285.408 
L 252.392727 285.408 
L 268.625455 285.408 
L 284.858182 285.408 
L 301.090909 285.408 
L 317.323636 285.408 
L 333.556364 285.408 
L 349.789091 285.408 
L 366.021818 285.408 
L 382.254545 285.408 
L 398.487273 285.408 
" style="fill:none;stroke:#0e4db3;stroke-linecap:square;stroke-width:3;"/>
   </g>
   <g id="line2d_94">
    <path clip-path="url(#p9d4e1e1036)" d="M 73.832727 285.408 
L 90.065455 285.408 
L 106.298182 285.408 
L 122.530909 285.408 
L 138.763636 285.408 
L 154.996364 285.408 
L 171.229091 285.408 
L 187.461818 285.408 
L 203.694545 285.408 
L 219.927273 285.408 
L 236.16 285.408 
L 252.392727 285.408 
L 268.625455 285.408 
L 284.858182 285.408 
L 301.090909 285.408 
L 317.323636 285.408 
L 333.556364 285.408 
L 349.789091 285.408 
L 366.021818 285.408 
L 382.254545 285.408 
L 398.487273 285.408 
" style="fill:none;stroke:#d44e4e;stroke-linecap:square;stroke-width:3;"/>
   </g>
   <g id="line2d_95">
    <path clip-path="url(#p9d4e1e1036)" d="M 73.832727 285.408 
L 90.065455 285.408 
L 106.298182 285.408 
L 122.530909 265.288948 
L 138.763636 247.829291 
L 154.996364 242.826912 
L 171.229091 258.677188 
L 187.461818 231.18665 
L 203.694545 177.311304 
L 219.927273 149.986574 
L 236.16 273.295724 
L 252.392727 80.813013 
L 268.625455 21.083961 
L 284.858182 31.005302 
L 301.090909 34.999332 
L 317.323636 110.137075 
L 333.556364 182.987195 
L 349.789091 261.617007 
L 366.021818 285.408 
L 382.254545 285.408 
L 398.487273 285.408 
" style="fill:none;stroke:#0e4db3;stroke-linecap:square;stroke-width:3;"/>
   </g>
   <g id="line2d_96">
    <path clip-path="url(#p9d4e1e1036)" d="M 73.832727 285.408 
L 90.065455 285.408 
L 106.298182 285.408 
L 122.530909 285.408 
L 138.763636 285.408 
L 154.996364 285.408 
L 171.229091 285.408 
L 187.461818 285.408 
L 203.694545 272.026185 
L 219.927273 261.243819 
L 236.16 285.408 
L 252.392727 215.085896 
L 268.625455 202.333728 
L 284.858182 178.044804 
L 301.090909 189.192163 
L 317.323636 226.035805 
L 333.556364 252.224241 
L 349.789091 285.408 
L 366.021818 285.408 
L 382.254545 285.408 
L 398.487273 285.408 
" style="fill:none;stroke:#d44e4e;stroke-linecap:square;stroke-width:3;"/>
   </g>
   <g id="line2d_97">
    <path clip-path="url(#p9d4e1e1036)" d="M 73.832727 82.179533 
L 90.065455 35.759592 
L 106.298182 13.993036 
L 118.423942 -1 
M 153.874123 -1 
L 154.996364 0.961061 
L 171.229091 28.919368 
L 187.461818 121.068566 
L 203.694545 131.792401 
L 219.927273 148.382859 
L 236.16 129.201288 
L 252.392727 112.815011 
L 268.625455 122.669408 
L 284.858182 93.393593 
L 301.090909 123.725859 
L 317.323636 138.377719 
L 333.556364 180.512895 
L 349.789091 166.050549 
L 366.021818 150.357471 
L 382.254545 116.547173 
L 398.487273 82.179533 
" style="fill:none;stroke:#0e4db3;stroke-linecap:square;stroke-width:3;"/>
   </g>
   <g id="line2d_98">
    <path clip-path="url(#p9d4e1e1036)" d="M 73.832727 285.408 
L 90.065455 249.881866 
L 106.298182 255.669074 
L 122.530909 213.798998 
L 138.763636 269.39562 
L 154.996364 282.836706 
L 171.229091 282.877793 
L 187.461818 285.408 
L 203.694545 285.408 
L 219.927273 285.408 
L 236.16 285.408 
L 252.392727 285.408 
L 268.625455 285.408 
L 284.858182 285.408 
L 301.090909 285.408 
L 317.323636 285.408 
L 333.556364 285.408 
L 349.789091 285.408 
L 366.021818 285.408 
L 382.254545 285.408 
L 398.487273 285.408 
" style="fill:none;stroke:#d44e4e;stroke-linecap:square;stroke-width:3;"/>
   </g>
   <g id="line2d_99">
    <path clip-path="url(#p9d4e1e1036)" d="M 73.832727 285.408 
L 90.065455 285.408 
L 106.298182 285.408 
L 122.530909 285.408 
L 138.763636 285.408 
L 154.996364 285.408 
L 171.229091 285.408 
L 187.461818 285.408 
L 203.694545 285.408 
L 219.927273 285.408 
L 236.16 285.408 
L 252.392727 285.408 
L 268.625455 285.408 
L 284.858182 285.408 
L 301.090909 285.408 
L 317.323636 285.408 
L 333.556364 285.408 
L 349.789091 285.408 
L 366.021818 285.408 
L 382.254545 285.408 
L 398.487273 285.408 
" style="fill:none;stroke:#0e4db3;stroke-linecap:square;stroke-width:3;"/>
   </g>
   <g id="line2d_100">
    <path clip-path="url(#p9d4e1e1036)" d="M 73.832727 285.408 
L 90.065455 285.408 
L 106.298182 285.408 
L 122.530909 285.408 
L 138.763636 285.408 
L 154.996364 285.408 
L 171.229091 285.408 
L 187.461818 285.408 
L 203.694545 285.408 
L 219.927273 285.408 
L 236.16 285.408 
L 252.392727 285.408 
L 268.625455 285.408 
L 284.858182 285.408 
L 301.090909 285.408 
L 317.323636 285.408 
L 333.556364 285.408 
L 349.789091 285.408 
L 366.021818 285.408 
L 382.254545 285.408 
L 398.487273 285.408 
" style="fill:none;stroke:#d44e4e;stroke-linecap:square;stroke-width:3;"/>
   </g>
   <g id="line2d_101">
    <path clip-path="url(#p9d4e1e1036)" d="M 82.001493 -1 
L 90.065455 24.255897 
L 106.298182 80.195539 
L 122.530909 152.972806 
L 138.763636 204.33785 
L 154.996364 246.486642 
L 171.229091 200.26587 
L 187.461818 145.671793 
L 203.694545 91.780159 
L 219.927273 14.81469 
L 236.16 1.565446 
L 252.392727 -0.20721 
L 268.625455 28.683494 
L 284.858182 75.980717 
L 301.090909 25.556828 
L 317.323636 55.272917 
L 333.556364 11.076921 
L 349.789091 27.48339 
L 364.548459 -1 
" style="fill:none;stroke:#0e4db3;stroke-linecap:square;stroke-width:3;"/>
   </g>
   <g id="line2d_102">
    <path clip-path="url(#p9d4e1e1036)" d="M 73.832727 185.435894 
L 90.065455 178.840742 
L 106.298182 218.129585 
L 122.530909 285.408 
L 138.763636 285.408 
L 154.996364 285.408 
L 171.229091 285.408 
L 187.461818 285.408 
L 203.694545 285.408 
L 219.927273 257.851833 
L 236.16 243.826025 
L 252.392727 196.902607 
L 268.625455 217.16894 
L 284.858182 233.790425 
L 301.090909 168.38803 
L 317.323636 163.291618 
L 333.556364 175.278413 
L 349.789091 137.583762 
L 366.021818 111.040177 
L 382.254545 109.308424 
L 398.487273 185.435894 
" style="fill:none;stroke:#d44e4e;stroke-linecap:square;stroke-width:3;"/>
   </g>
   <g id="line2d_103">
    <path clip-path="url(#p9d4e1e1036)" d="M 73.832727 285.408 
L 90.065455 285.408 
L 106.298182 285.408 
L 122.530909 285.408 
L 138.763636 285.408 
L 154.996364 285.408 
L 171.229091 285.408 
L 187.461818 285.408 
L 203.694545 285.408 
L 219.927273 285.408 
L 236.16 285.408 
L 252.392727 285.408 
L 268.625455 285.408 
L 284.858182 285.408 
L 301.090909 285.408 
L 317.323636 285.408 
L 333.556364 285.408 
L 349.789091 285.408 
L 366.021818 285.408 
L 382.254545 285.408 
L 398.487273 285.408 
" style="fill:none;stroke:#0e4db3;stroke-linecap:square;stroke-width:3;"/>
   </g>
   <g id="line2d_104">
    <path clip-path="url(#p9d4e1e1036)" d="M 73.832727 285.408 
L 90.065455 285.408 
L 106.298182 285.408 
L 122.530909 285.408 
L 138.763636 285.408 
L 154.996364 285.408 
L 171.229091 285.408 
L 187.461818 285.408 
L 203.694545 285.408 
L 219.927273 285.408 
L 236.16 285.408 
L 252.392727 285.408 
L 268.625455 285.408 
L 284.858182 285.408 
L 301.090909 285.408 
L 317.323636 285.408 
L 333.556364 285.408 
L 349.789091 285.408 
L 366.021818 285.408 
L 382.254545 285.408 
L 398.487273 285.408 
" style="fill:none;stroke:#d44e4e;stroke-linecap:square;stroke-width:3;"/>
   </g>
   <g id="line2d_105">
    <path clip-path="url(#p9d4e1e1036)" d="M 73.832727 110.865559 
L 90.065455 83.797311 
L 106.298182 68.32704 
L 122.530909 66.186499 
L 138.763636 49.123008 
L 154.996364 53.680346 
L 171.229091 63.419864 
L 187.461818 92.726203 
L 203.694545 106.100902 
L 219.927273 128.750172 
L 236.16 136.616485 
L 252.392727 144.555627 
L 268.625455 156.952391 
L 284.858182 164.751262 
L 301.090909 150.864828 
L 317.323636 142.152638 
L 333.556364 113.593445 
L 349.789091 130.993846 
L 366.021818 108.3117 
L 382.254545 108.746657 
L 398.487273 110.865559 
" style="fill:none;stroke:#0e4db3;stroke-linecap:square;stroke-width:3;"/>
   </g>
   <g id="line2d_106">
    <path clip-path="url(#p9d4e1e1036)" d="M 73.832727 179.831048 
L 90.065455 166.474848 
L 106.298182 165.205692 
L 122.530909 150.971516 
L 138.763636 151.654 
L 154.996364 163.252788 
L 171.229091 151.487075 
L 187.461818 161.89908 
L 203.694545 179.959723 
L 219.927273 178.555902 
L 236.16 181.632965 
L 252.392727 181.84252 
L 268.625455 179.695468 
L 284.858182 192.43472 
L 301.090909 201.469259 
L 317.323636 190.964089 
L 333.556364 184.53877 
L 349.789091 149.399947 
L 366.021818 133.230349 
L 382.254545 152.307235 
L 398.487273 179.831048 
" style="fill:none;stroke:#d44e4e;stroke-linecap:square;stroke-width:3;"/>
   </g>
   <g id="line2d_107">
    <path clip-path="url(#p9d4e1e1036)" d="M 73.832727 285.408 
L 90.065455 285.408 
L 106.298182 285.408 
L 122.530909 285.408 
L 138.763636 285.408 
L 154.996364 285.408 
L 171.229091 285.408 
L 187.461818 285.408 
L 203.694545 285.408 
L 219.927273 285.408 
L 236.16 285.408 
L 252.392727 285.408 
L 268.625455 285.408 
L 284.858182 285.408 
L 301.090909 285.408 
L 317.323636 285.408 
L 333.556364 285.408 
L 349.789091 285.408 
L 366.021818 285.408 
L 382.254545 285.408 
L 398.487273 285.408 
" style="fill:none;stroke:#0e4db3;stroke-linecap:square;stroke-width:3;"/>
   </g>
   <g id="line2d_108">
    <path clip-path="url(#p9d4e1e1036)" d="M 73.832727 285.408 
L 90.065455 285.408 
L 106.298182 285.408 
L 122.530909 285.408 
L 138.763636 285.408 
L 154.996364 285.408 
L 171.229091 285.408 
L 187.461818 285.408 
L 203.694545 285.408 
L 219.927273 285.408 
L 236.16 285.408 
L 252.392727 285.408 
L 268.625455 285.408 
L 284.858182 285.408 
L 301.090909 285.408 
L 317.323636 285.408 
L 333.556364 285.408 
L 349.789091 285.408 
L 366.021818 285.408 
L 382.254545 285.408 
L 398.487273 285.408 
" style="fill:none;stroke:#d44e4e;stroke-linecap:square;stroke-width:3;"/>
   </g>
   <g id="line2d_109">
    <path clip-path="url(#p9d4e1e1036)" d="M 73.832727 125.623657 
L 90.065455 97.641151 
L 106.298182 93.003188 
L 122.530909 142.047768 
L 138.763636 156.390717 
L 154.996364 161.684046 
L 171.229091 133.961822 
L 187.461818 132.124133 
L 203.694545 144.931852 
L 219.927273 170.614791 
L 236.16 148.057151 
L 252.392727 136.965986 
L 268.625455 86.288779 
L 284.858182 87.006594 
L 301.090909 63.648 
L 317.323636 66.733426 
L 333.556364 74.165501 
L 349.789091 110.807327 
L 366.021818 110.178094 
L 382.254545 119.186221 
L 398.487273 125.623657 
" style="fill:none;stroke:#0e4db3;stroke-linecap:square;stroke-width:3;"/>
   </g>
   <g id="line2d_110">
    <path clip-path="url(#p9d4e1e1036)" d="M 73.832727 210.098055 
L 90.065455 181.166187 
L 106.298182 170.25052 
L 122.530909 203.702472 
L 138.763636 223.760472 
L 154.996364 218.962702 
L 171.229091 194.150314 
L 187.461818 184.467331 
L 203.694545 185.360274 
L 219.927273 206.669516 
L 236.16 203.098435 
L 252.392727 203.469008 
L 268.625455 178.598056 
L 284.858182 177.662902 
L 301.090909 167.152154 
L 317.323636 168.692991 
L 333.556364 175.939235 
L 349.789091 168.736246 
L 366.021818 149.79129 
L 382.254545 180.60325 
L 398.487273 210.098055 
" style="fill:none;stroke:#d44e4e;stroke-linecap:square;stroke-width:3;"/>
   </g>
   <g id="patch_3">
    <path d="M 57.6 307.584 
L 57.6 41.472 
" style="fill:none;stroke:#000000;stroke-linecap:square;stroke-linejoin:miter;stroke-width:2.5;"/>
   </g>
   <g id="patch_4">
    <path d="M 414.72 307.584 
L 414.72 41.472 
" style="fill:none;stroke:#000000;stroke-linecap:square;stroke-linejoin:miter;stroke-width:2.5;"/>
   </g>
   <g id="patch_5">
    <path d="M 57.6 307.584 
L 414.72 307.584 
" style="fill:none;stroke:#000000;stroke-linecap:square;stroke-linejoin:miter;stroke-width:2.5;"/>
   </g>
   <g id="patch_6">
    <path d="M 57.6 41.472 
L 414.72 41.472 
" style="fill:none;stroke:#000000;stroke-linecap:square;stroke-linejoin:miter;stroke-width:2.5;"/>
   </g>
  </g>
 </g>
 <defs>
  <clipPath id="p9d4e1e1036">
   <rect height="266.112" width="357.12" x="57.6" y="41.472"/>
  </clipPath>
 </defs>
</svg>
