<?xml version="1.0" encoding="utf-8" standalone="no"?>
<!DOCTYPE svg PUBLIC "-//W3C//DTD SVG 1.1//EN"
  "http://www.w3.org/Graphics/SVG/1.1/DTD/svg11.dtd">
<!-- Created with matplotlib (https://matplotlib.org/) -->
<svg height="345.6pt" version="1.1" viewBox="0 0 460.8 345.6" width="460.8pt" xmlns="http://www.w3.org/2000/svg" xmlns:xlink="http://www.w3.org/1999/xlink">
 <defs>
  <style type="text/css">
*{stroke-linecap:butt;stroke-linejoin:round;}
  </style>
 </defs>
 <g id="figure_1">
  <g id="patch_1">
   <path d="M 0 345.6 
L 460.8 345.6 
L 460.8 0 
L 0 0 
z
" style="fill:#ffffff;"/>
  </g>
  <g id="axes_1">
   <g id="patch_2">
    <path d="M 57.6 307.584 
L 414.72 307.584 
L 414.72 41.472 
L 57.6 41.472 
z
" style="fill:#ffffff;"/>
   </g>
   <g id="matplotlib.axis_1">
    <g id="xtick_1">
     <g id="line2d_1">
      <defs>
       <path d="M 0 0 
L 0 12 
" id="m119ebdd9b0" style="stroke:#000000;stroke-width:2.5;"/>
      </defs>
      <g>
       <use style="stroke:#000000;stroke-width:2.5;" x="73.832727" xlink:href="#m119ebdd9b0" y="307.584"/>
      </g>
     </g>
     <g id="text_1">
      <!-- 0 -->
      <defs>
       <path d="M 31.78125 66.40625 
Q 24.171875 66.40625 20.328125 58.90625 
Q 16.5 51.421875 16.5 36.375 
Q 16.5 21.390625 20.328125 13.890625 
Q 24.171875 6.390625 31.78125 6.390625 
Q 39.453125 6.390625 43.28125 13.890625 
Q 47.125 21.390625 47.125 36.375 
Q 47.125 51.421875 43.28125 58.90625 
Q 39.453125 66.40625 31.78125 66.40625 
z
M 31.78125 74.21875 
Q 44.046875 74.21875 50.515625 64.515625 
Q 56.984375 54.828125 56.984375 36.375 
Q 56.984375 17.96875 50.515625 8.265625 
Q 44.046875 -1.421875 31.78125 -1.421875 
Q 19.53125 -1.421875 13.0625 8.265625 
Q 6.59375 17.96875 6.59375 36.375 
Q 6.59375 54.828125 13.0625 64.515625 
Q 19.53125 74.21875 31.78125 74.21875 
z
" id="DejaVuSans-48"/>
      </defs>
      <g transform="translate(57.735602 361.532094)scale(0.506 -0.506)">
       <use xlink:href="#DejaVuSans-48"/>
      </g>
     </g>
    </g>
    <g id="xtick_2">
     <g id="line2d_2">
      <g>
       <use style="stroke:#000000;stroke-width:2.5;" x="254.196364" xlink:href="#m119ebdd9b0" y="307.584"/>
      </g>
     </g>
     <g id="text_2">
      <!-- 100 -->
      <defs>
       <path d="M 12.40625 8.296875 
L 28.515625 8.296875 
L 28.515625 63.921875 
L 10.984375 60.40625 
L 10.984375 69.390625 
L 28.421875 72.90625 
L 38.28125 72.90625 
L 38.28125 8.296875 
L 54.390625 8.296875 
L 54.390625 0 
L 12.40625 0 
z
" id="DejaVuSans-49"/>
      </defs>
      <g transform="translate(205.904989 361.532094)scale(0.506 -0.506)">
       <use xlink:href="#DejaVuSans-49"/>
       <use x="63.623047" xlink:href="#DejaVuSans-48"/>
       <use x="127.246094" xlink:href="#DejaVuSans-48"/>
      </g>
     </g>
    </g>
    <g id="text_3">
     <!-- Degrees -->
     <defs>
      <path d="M 19.671875 64.796875 
L 19.671875 8.109375 
L 31.59375 8.109375 
Q 46.6875 8.109375 53.6875 14.9375 
Q 60.6875 21.78125 60.6875 36.53125 
Q 60.6875 51.171875 53.6875 57.984375 
Q 46.6875 64.796875 31.59375 64.796875 
z
M 9.8125 72.90625 
L 30.078125 72.90625 
Q 51.265625 72.90625 61.171875 64.09375 
Q 71.09375 55.28125 71.09375 36.53125 
Q 71.09375 17.671875 61.125 8.828125 
Q 51.171875 0 30.078125 0 
L 9.8125 0 
z
" id="DejaVuSans-68"/>
      <path d="M 56.203125 29.59375 
L 56.203125 25.203125 
L 14.890625 25.203125 
Q 15.484375 15.921875 20.484375 11.0625 
Q 25.484375 6.203125 34.421875 6.203125 
Q 39.59375 6.203125 44.453125 7.46875 
Q 49.3125 8.734375 54.109375 11.28125 
L 54.109375 2.78125 
Q 49.265625 0.734375 44.1875 -0.34375 
Q 39.109375 -1.421875 33.890625 -1.421875 
Q 20.796875 -1.421875 13.15625 6.1875 
Q 5.515625 13.8125 5.515625 26.8125 
Q 5.515625 40.234375 12.765625 48.109375 
Q 20.015625 56 32.328125 56 
Q 43.359375 56 49.78125 48.890625 
Q 56.203125 41.796875 56.203125 29.59375 
z
M 47.21875 32.234375 
Q 47.125 39.59375 43.09375 43.984375 
Q 39.0625 48.390625 32.421875 48.390625 
Q 24.90625 48.390625 20.390625 44.140625 
Q 15.875 39.890625 15.1875 32.171875 
z
" id="DejaVuSans-101"/>
      <path d="M 45.40625 27.984375 
Q 45.40625 37.75 41.375 43.109375 
Q 37.359375 48.484375 30.078125 48.484375 
Q 22.859375 48.484375 18.828125 43.109375 
Q 14.796875 37.75 14.796875 27.984375 
Q 14.796875 18.265625 18.828125 12.890625 
Q 22.859375 7.515625 30.078125 7.515625 
Q 37.359375 7.515625 41.375 12.890625 
Q 45.40625 18.265625 45.40625 27.984375 
z
M 54.390625 6.78125 
Q 54.390625 -7.171875 48.1875 -13.984375 
Q 42 -20.796875 29.203125 -20.796875 
Q 24.46875 -20.796875 20.265625 -20.09375 
Q 16.0625 -19.390625 12.109375 -17.921875 
L 12.109375 -9.1875 
Q 16.0625 -11.328125 19.921875 -12.34375 
Q 23.78125 -13.375 27.78125 -13.375 
Q 36.625 -13.375 41.015625 -8.765625 
Q 45.40625 -4.15625 45.40625 5.171875 
L 45.40625 9.625 
Q 42.625 4.78125 38.28125 2.390625 
Q 33.9375 0 27.875 0 
Q 17.828125 0 11.671875 7.65625 
Q 5.515625 15.328125 5.515625 27.984375 
Q 5.515625 40.671875 11.671875 48.328125 
Q 17.828125 56 27.875 56 
Q 33.9375 56 38.28125 53.609375 
Q 42.625 51.21875 45.40625 46.390625 
L 45.40625 54.6875 
L 54.390625 54.6875 
z
" id="DejaVuSans-103"/>
      <path d="M 41.109375 46.296875 
Q 39.59375 47.171875 37.8125 47.578125 
Q 36.03125 48 33.890625 48 
Q 26.265625 48 22.1875 43.046875 
Q 18.109375 38.09375 18.109375 28.8125 
L 18.109375 0 
L 9.078125 0 
L 9.078125 54.6875 
L 18.109375 54.6875 
L 18.109375 46.1875 
Q 20.953125 51.171875 25.484375 53.578125 
Q 30.03125 56 36.53125 56 
Q 37.453125 56 38.578125 55.875 
Q 39.703125 55.765625 41.0625 55.515625 
z
" id="DejaVuSans-114"/>
      <path d="M 44.28125 53.078125 
L 44.28125 44.578125 
Q 40.484375 46.53125 36.375 47.5 
Q 32.28125 48.484375 27.875 48.484375 
Q 21.1875 48.484375 17.84375 46.4375 
Q 14.5 44.390625 14.5 40.28125 
Q 14.5 37.15625 16.890625 35.375 
Q 19.28125 33.59375 26.515625 31.984375 
L 29.59375 31.296875 
Q 39.15625 29.25 43.1875 25.515625 
Q 47.21875 21.78125 47.21875 15.09375 
Q 47.21875 7.46875 41.1875 3.015625 
Q 35.15625 -1.421875 24.609375 -1.421875 
Q 20.21875 -1.421875 15.453125 -0.5625 
Q 10.6875 0.296875 5.421875 2 
L 5.421875 11.28125 
Q 10.40625 8.6875 15.234375 7.390625 
Q 20.0625 6.109375 24.8125 6.109375 
Q 31.15625 6.109375 34.5625 8.28125 
Q 37.984375 10.453125 37.984375 14.40625 
Q 37.984375 18.0625 35.515625 20.015625 
Q 33.0625 21.96875 24.703125 23.78125 
L 21.578125 24.515625 
Q 13.234375 26.265625 9.515625 29.90625 
Q 5.8125 33.546875 5.8125 39.890625 
Q 5.8125 47.609375 11.28125 51.796875 
Q 16.75 56 26.8125 56 
Q 31.78125 56 36.171875 55.265625 
Q 40.578125 54.546875 44.28125 53.078125 
z
" id="DejaVuSans-115"/>
     </defs>
     <g transform="translate(120.723 417.998687)scale(0.552 -0.552)">
      <use xlink:href="#DejaVuSans-68"/>
      <use x="77.001953" xlink:href="#DejaVuSans-101"/>
      <use x="138.525391" xlink:href="#DejaVuSans-103"/>
      <use x="202.001953" xlink:href="#DejaVuSans-114"/>
      <use x="243.083984" xlink:href="#DejaVuSans-101"/>
      <use x="304.607422" xlink:href="#DejaVuSans-101"/>
      <use x="366.130859" xlink:href="#DejaVuSans-115"/>
     </g>
    </g>
   </g>
   <g id="matplotlib.axis_2">
    <g id="ytick_1">
     <g id="line2d_3">
      <defs>
       <path d="M 0 0 
L -12 0 
" id="mbe3a937a0a" style="stroke:#000000;stroke-width:2.5;"/>
      </defs>
      <g>
       <use style="stroke:#000000;stroke-width:2.5;" x="57.6" xlink:href="#mbe3a937a0a" y="285.408"/>
      </g>
     </g>
     <g id="text_4">
      <!-- 0.0 -->
      <defs>
       <path d="M 10.6875 12.40625 
L 21 12.40625 
L 21 0 
L 10.6875 0 
z
" id="DejaVuSans-46"/>
      </defs>
      <g transform="translate(-38.369812 304.632047)scale(0.506 -0.506)">
       <use xlink:href="#DejaVuSans-48"/>
       <use x="63.623047" xlink:href="#DejaVuSans-46"/>
       <use x="95.410156" xlink:href="#DejaVuSans-48"/>
      </g>
     </g>
    </g>
    <g id="ytick_2">
     <g id="line2d_4">
      <g>
       <use style="stroke:#000000;stroke-width:2.5;" x="57.6" xlink:href="#mbe3a937a0a" y="148.858696"/>
      </g>
     </g>
     <g id="text_5">
      <!-- 2.5 -->
      <defs>
       <path d="M 19.1875 8.296875 
L 53.609375 8.296875 
L 53.609375 0 
L 7.328125 0 
L 7.328125 8.296875 
Q 12.9375 14.109375 22.625 23.890625 
Q 32.328125 33.6875 34.8125 36.53125 
Q 39.546875 41.84375 41.421875 45.53125 
Q 43.3125 49.21875 43.3125 52.78125 
Q 43.3125 58.59375 39.234375 62.25 
Q 35.15625 65.921875 28.609375 65.921875 
Q 23.96875 65.921875 18.8125 64.3125 
Q 13.671875 62.703125 7.8125 59.421875 
L 7.8125 69.390625 
Q 13.765625 71.78125 18.9375 73 
Q 24.125 74.21875 28.421875 74.21875 
Q 39.75 74.21875 46.484375 68.546875 
Q 53.21875 62.890625 53.21875 53.421875 
Q 53.21875 48.921875 51.53125 44.890625 
Q 49.859375 40.875 45.40625 35.40625 
Q 44.1875 33.984375 37.640625 27.21875 
Q 31.109375 20.453125 19.1875 8.296875 
z
" id="DejaVuSans-50"/>
       <path d="M 10.796875 72.90625 
L 49.515625 72.90625 
L 49.515625 64.59375 
L 19.828125 64.59375 
L 19.828125 46.734375 
Q 21.96875 47.46875 24.109375 47.828125 
Q 26.265625 48.1875 28.421875 48.1875 
Q 40.625 48.1875 47.75 41.5 
Q 54.890625 34.8125 54.890625 23.390625 
Q 54.890625 11.625 47.5625 5.09375 
Q 40.234375 -1.421875 26.90625 -1.421875 
Q 22.3125 -1.421875 17.546875 -0.640625 
Q 12.796875 0.140625 7.71875 1.703125 
L 7.71875 11.625 
Q 12.109375 9.234375 16.796875 8.0625 
Q 21.484375 6.890625 26.703125 6.890625 
Q 35.15625 6.890625 40.078125 11.328125 
Q 45.015625 15.765625 45.015625 23.390625 
Q 45.015625 31 40.078125 35.4375 
Q 35.15625 39.890625 26.703125 39.890625 
Q 22.75 39.890625 18.8125 39.015625 
Q 14.890625 38.140625 10.796875 36.28125 
z
" id="DejaVuSans-53"/>
      </defs>
      <g transform="translate(-38.369812 168.082742)scale(0.506 -0.506)">
       <use xlink:href="#DejaVuSans-50"/>
       <use x="63.623047" xlink:href="#DejaVuSans-46"/>
       <use x="95.410156" xlink:href="#DejaVuSans-53"/>
      </g>
     </g>
    </g>
    <g id="text_6">
     <!-- Activation -->
     <defs>
      <path d="M 34.1875 63.1875 
L 20.796875 26.90625 
L 47.609375 26.90625 
z
M 28.609375 72.90625 
L 39.796875 72.90625 
L 67.578125 0 
L 57.328125 0 
L 50.6875 18.703125 
L 17.828125 18.703125 
L 11.1875 0 
L 0.78125 0 
z
" id="DejaVuSans-65"/>
      <path d="M 48.78125 52.59375 
L 48.78125 44.1875 
Q 44.96875 46.296875 41.140625 47.34375 
Q 37.3125 48.390625 33.40625 48.390625 
Q 24.65625 48.390625 19.8125 42.84375 
Q 14.984375 37.3125 14.984375 27.296875 
Q 14.984375 17.28125 19.8125 11.734375 
Q 24.65625 6.203125 33.40625 6.203125 
Q 37.3125 6.203125 41.140625 7.25 
Q 44.96875 8.296875 48.78125 10.40625 
L 48.78125 2.09375 
Q 45.015625 0.34375 40.984375 -0.53125 
Q 36.96875 -1.421875 32.421875 -1.421875 
Q 20.0625 -1.421875 12.78125 6.34375 
Q 5.515625 14.109375 5.515625 27.296875 
Q 5.515625 40.671875 12.859375 48.328125 
Q 20.21875 56 33.015625 56 
Q 37.15625 56 41.109375 55.140625 
Q 45.0625 54.296875 48.78125 52.59375 
z
" id="DejaVuSans-99"/>
      <path d="M 18.3125 70.21875 
L 18.3125 54.6875 
L 36.8125 54.6875 
L 36.8125 47.703125 
L 18.3125 47.703125 
L 18.3125 18.015625 
Q 18.3125 11.328125 20.140625 9.421875 
Q 21.96875 7.515625 27.59375 7.515625 
L 36.8125 7.515625 
L 36.8125 0 
L 27.59375 0 
Q 17.1875 0 13.234375 3.875 
Q 9.28125 7.765625 9.28125 18.015625 
L 9.28125 47.703125 
L 2.6875 47.703125 
L 2.6875 54.6875 
L 9.28125 54.6875 
L 9.28125 70.21875 
z
" id="DejaVuSans-116"/>
      <path d="M 9.421875 54.6875 
L 18.40625 54.6875 
L 18.40625 0 
L 9.421875 0 
z
M 9.421875 75.984375 
L 18.40625 75.984375 
L 18.40625 64.59375 
L 9.421875 64.59375 
z
" id="DejaVuSans-105"/>
      <path d="M 2.984375 54.6875 
L 12.5 54.6875 
L 29.59375 8.796875 
L 46.6875 54.6875 
L 56.203125 54.6875 
L 35.6875 0 
L 23.484375 0 
z
" id="DejaVuSans-118"/>
      <path d="M 34.28125 27.484375 
Q 23.390625 27.484375 19.1875 25 
Q 14.984375 22.515625 14.984375 16.5 
Q 14.984375 11.71875 18.140625 8.90625 
Q 21.296875 6.109375 26.703125 6.109375 
Q 34.1875 6.109375 38.703125 11.40625 
Q 43.21875 16.703125 43.21875 25.484375 
L 43.21875 27.484375 
z
M 52.203125 31.203125 
L 52.203125 0 
L 43.21875 0 
L 43.21875 8.296875 
Q 40.140625 3.328125 35.546875 0.953125 
Q 30.953125 -1.421875 24.3125 -1.421875 
Q 15.921875 -1.421875 10.953125 3.296875 
Q 6 8.015625 6 15.921875 
Q 6 25.140625 12.171875 29.828125 
Q 18.359375 34.515625 30.609375 34.515625 
L 43.21875 34.515625 
L 43.21875 35.40625 
Q 43.21875 41.609375 39.140625 45 
Q 35.0625 48.390625 27.6875 48.390625 
Q 23 48.390625 18.546875 47.265625 
Q 14.109375 46.140625 10.015625 43.890625 
L 10.015625 52.203125 
Q 14.9375 54.109375 19.578125 55.046875 
Q 24.21875 56 28.609375 56 
Q 40.484375 56 46.34375 49.84375 
Q 52.203125 43.703125 52.203125 31.203125 
z
" id="DejaVuSans-97"/>
      <path d="M 30.609375 48.390625 
Q 23.390625 48.390625 19.1875 42.75 
Q 14.984375 37.109375 14.984375 27.296875 
Q 14.984375 17.484375 19.15625 11.84375 
Q 23.34375 6.203125 30.609375 6.203125 
Q 37.796875 6.203125 41.984375 11.859375 
Q 46.1875 17.53125 46.1875 27.296875 
Q 46.1875 37.015625 41.984375 42.703125 
Q 37.796875 48.390625 30.609375 48.390625 
z
M 30.609375 56 
Q 42.328125 56 49.015625 48.375 
Q 55.71875 40.765625 55.71875 27.296875 
Q 55.71875 13.875 49.015625 6.21875 
Q 42.328125 -1.421875 30.609375 -1.421875 
Q 18.84375 -1.421875 12.171875 6.21875 
Q 5.515625 13.875 5.515625 27.296875 
Q 5.515625 40.765625 12.171875 48.375 
Q 18.84375 56 30.609375 56 
z
" id="DejaVuSans-111"/>
      <path d="M 54.890625 33.015625 
L 54.890625 0 
L 45.90625 0 
L 45.90625 32.71875 
Q 45.90625 40.484375 42.875 44.328125 
Q 39.84375 48.1875 33.796875 48.1875 
Q 26.515625 48.1875 22.3125 43.546875 
Q 18.109375 38.921875 18.109375 30.90625 
L 18.109375 0 
L 9.078125 0 
L 9.078125 54.6875 
L 18.109375 54.6875 
L 18.109375 46.1875 
Q 21.34375 51.125 25.703125 53.5625 
Q 30.078125 56 35.796875 56 
Q 45.21875 56 50.046875 50.171875 
Q 54.890625 44.34375 54.890625 33.015625 
z
" id="DejaVuSans-110"/>
     </defs>
     <g transform="translate(-53.849687 313.1835)rotate(-90)scale(0.552 -0.552)">
      <use xlink:href="#DejaVuSans-65"/>
      <use x="68.392578" xlink:href="#DejaVuSans-99"/>
      <use x="123.373047" xlink:href="#DejaVuSans-116"/>
      <use x="162.582031" xlink:href="#DejaVuSans-105"/>
      <use x="190.365234" xlink:href="#DejaVuSans-118"/>
      <use x="249.544922" xlink:href="#DejaVuSans-97"/>
      <use x="310.824219" xlink:href="#DejaVuSans-116"/>
      <use x="350.033203" xlink:href="#DejaVuSans-105"/>
      <use x="377.816406" xlink:href="#DejaVuSans-111"/>
      <use x="438.998047" xlink:href="#DejaVuSans-110"/>
     </g>
    </g>
   </g>
   <g id="line2d_5">
    <path clip-path="url(#p104653a151)" d="M 73.832727 271.509114 
L 90.065455 247.844036 
L 106.298182 239.639649 
L 122.530909 229.043927 
L 138.763636 216.649255 
L 154.996364 214.898679 
L 171.229091 217.447571 
L 187.461818 198.950329 
L 203.694545 192.802169 
L 219.927273 193.937165 
L 236.16 202.076906 
L 252.392727 201.811159 
L 268.625455 203.077889 
L 284.858182 233.710974 
L 301.090909 228.903911 
L 317.323636 252.70548 
L 333.556364 258.730466 
L 349.789091 265.0092 
L 366.021818 261.513451 
L 382.254545 265.926722 
L 398.487273 271.509114 
" style="fill:none;stroke:#0e4db3;stroke-linecap:square;stroke-width:3;"/>
   </g>
   <g id="line2d_6">
    <path clip-path="url(#p104653a151)" d="M 73.832727 274.348959 
L 90.065455 254.967793 
L 106.298182 247.687599 
L 122.530909 239.854462 
L 138.763636 230.285094 
L 154.996364 229.253932 
L 171.229091 230.417708 
L 187.461818 214.012781 
L 203.694545 210.962541 
L 219.927273 210.092583 
L 236.16 214.282813 
L 252.392727 216.96172 
L 268.625455 217.532711 
L 284.858182 243.991219 
L 301.090909 239.221875 
L 317.323636 258.439553 
L 333.556364 263.065465 
L 349.789091 267.259754 
L 366.021818 265.465729 
L 382.254545 268.767475 
L 398.487273 274.348959 
" style="fill:none;stroke:#d44e4e;stroke-linecap:square;stroke-width:3;"/>
   </g>
   <g id="line2d_7">
    <path clip-path="url(#p104653a151)" d="M 73.832727 190.924846 
L 90.065455 190.206839 
L 106.298182 196.575722 
L 122.530909 208.817375 
L 138.763636 210.997891 
L 154.996364 213.671042 
L 171.229091 213.500957 
L 187.461818 199.725023 
L 203.694545 195.161631 
L 219.927273 211.436653 
L 236.16 211.425831 
L 252.392727 208.988906 
L 268.625455 195.443662 
L 284.858182 205.23417 
L 301.090909 192.9865 
L 317.323636 197.248548 
L 333.556364 196.77135 
L 349.789091 181.011428 
L 366.021818 185.488631 
L 382.254545 181.251612 
L 398.487273 190.924846 
" style="fill:none;stroke:#0e4db3;stroke-linecap:square;stroke-width:3;"/>
   </g>
   <g id="line2d_8">
    <path clip-path="url(#p104653a151)" d="M 73.832727 210.61756 
L 90.065455 202.032897 
L 106.298182 212.66483 
L 122.530909 224.595191 
L 138.763636 226.030612 
L 154.996364 228.417076 
L 171.229091 228.414081 
L 187.461818 217.781861 
L 203.694545 214.550956 
L 219.927273 227.004659 
L 236.16 226.960252 
L 252.392727 223.951417 
L 268.625455 214.024234 
L 284.858182 220.243542 
L 301.090909 212.405373 
L 317.323636 215.639749 
L 333.556364 215.119037 
L 349.789091 202.919224 
L 366.021818 205.165776 
L 382.254545 202.865273 
L 398.487273 210.61756 
" style="fill:none;stroke:#d44e4e;stroke-linecap:square;stroke-width:3;"/>
   </g>
   <g id="line2d_9">
    <path clip-path="url(#p104653a151)" d="M 73.832727 189.63842 
L 90.065455 185.012045 
L 106.298182 184.975374 
L 122.530909 185.000768 
L 138.763636 174.875358 
L 154.996364 175.376706 
L 171.229091 174.471157 
L 187.461818 181.255486 
L 203.694545 173.051851 
L 219.927273 176.753866 
L 236.16 182.972881 
L 252.392727 183.080608 
L 268.625455 184.197406 
L 284.858182 190.965567 
L 301.090909 192.206715 
L 317.323636 192.743627 
L 333.556364 192.493838 
L 349.789091 193.280122 
L 366.021818 191.124616 
L 382.254545 189.987992 
L 398.487273 189.63842 
" style="fill:none;stroke:#0e4db3;stroke-linecap:square;stroke-width:3;"/>
   </g>
   <g id="line2d_10">
    <path clip-path="url(#p104653a151)" d="M 73.832727 206.400296 
L 90.065455 203.069222 
L 106.298182 202.790062 
L 122.530909 202.487344 
L 138.763636 196.191426 
L 154.996364 196.087651 
L 171.229091 194.591805 
L 187.461818 199.731827 
L 203.694545 192.402304 
L 219.927273 195.926017 
L 236.16 200.991922 
L 252.392727 200.874688 
L 268.625455 201.886923 
L 284.858182 205.496303 
L 301.090909 206.410225 
L 317.323636 207.646333 
L 333.556364 208.273607 
L 349.789091 208.868781 
L 366.021818 207.099258 
L 382.254545 206.406989 
L 398.487273 206.400296 
" style="fill:none;stroke:#d44e4e;stroke-linecap:square;stroke-width:3;"/>
   </g>
   <g id="line2d_11">
    <path clip-path="url(#p104653a151)" d="M 73.832727 177.002502 
L 90.065455 176.87358 
L 106.298182 177.299177 
L 122.530909 187.459206 
L 138.763636 188.496046 
L 154.996364 191.088733 
L 171.229091 188.823305 
L 187.461818 186.110624 
L 203.694545 178.955985 
L 219.927273 181.483976 
L 236.16 180.463193 
L 252.392727 175.916405 
L 268.625455 174.318783 
L 284.858182 174.406527 
L 301.090909 169.360065 
L 317.323636 168.57763 
L 333.556364 156.488846 
L 349.789091 167.600302 
L 366.021818 167.010129 
L 382.254545 172.327782 
L 398.487273 177.002502 
" style="fill:none;stroke:#0e4db3;stroke-linecap:square;stroke-width:3;"/>
   </g>
   <g id="line2d_12">
    <path clip-path="url(#p104653a151)" d="M 73.832727 199.837373 
L 90.065455 199.833141 
L 106.298182 200.125805 
L 122.530909 207.691924 
L 138.763636 208.186735 
L 154.996364 209.438848 
L 171.229091 208.627099 
L 187.461818 205.182568 
L 203.694545 201.701015 
L 219.927273 203.062242 
L 236.16 203.261576 
L 252.392727 198.306295 
L 268.625455 196.070214 
L 284.858182 195.44699 
L 301.090909 192.639038 
L 317.323636 192.637045 
L 333.556364 184.602674 
L 349.789091 191.993096 
L 366.021818 191.099736 
L 382.254545 195.782693 
L 398.487273 199.837373 
" style="fill:none;stroke:#d44e4e;stroke-linecap:square;stroke-width:3;"/>
   </g>
   <g id="line2d_13">
    <path clip-path="url(#p104653a151)" d="M 73.832727 250.627513 
L 90.065455 250.095774 
L 106.298182 250.573851 
L 122.530909 249.41702 
L 138.763636 236.046966 
L 154.996364 234.314062 
L 171.229091 223.509666 
L 187.461818 226.838044 
L 203.694545 210.463062 
L 219.927273 197.595848 
L 236.16 197.798645 
L 252.392727 184.045741 
L 268.625455 171.928139 
L 284.858182 178.399827 
L 301.090909 161.628028 
L 317.323636 171.374324 
L 333.556364 174.138632 
L 349.789091 219.14021 
L 366.021818 223.299772 
L 382.254545 222.840291 
L 398.487273 250.627513 
" style="fill:none;stroke:#0e4db3;stroke-linecap:square;stroke-width:3;"/>
   </g>
   <g id="line2d_14">
    <path clip-path="url(#p104653a151)" d="M 73.832727 253.607829 
L 90.065455 252.830778 
L 106.298182 253.250241 
L 122.530909 252.745537 
L 138.763636 242.275263 
L 154.996364 240.963687 
L 171.229091 231.504925 
L 187.461818 234.053576 
L 203.694545 221.205347 
L 219.927273 211.797691 
L 236.16 211.823697 
L 252.392727 200.335791 
L 268.625455 190.741544 
L 284.858182 197.001586 
L 301.090909 183.137568 
L 317.323636 189.996092 
L 333.556364 192.68153 
L 349.789091 227.852596 
L 366.021818 231.326691 
L 382.254545 231.2921 
L 398.487273 253.607829 
" style="fill:none;stroke:#d44e4e;stroke-linecap:square;stroke-width:3;"/>
   </g>
   <g id="line2d_15">
    <path clip-path="url(#p104653a151)" d="M 73.832727 285.408 
L 90.065455 285.408 
L 106.298182 285.408 
L 122.530909 285.408 
L 138.763636 285.408 
L 154.996364 285.408 
L 171.229091 285.408 
L 187.461818 285.408 
L 203.694545 285.408 
L 219.927273 285.408 
L 236.16 285.408 
L 252.392727 285.408 
L 268.625455 285.408 
L 284.858182 285.408 
L 301.090909 285.408 
L 317.323636 285.408 
L 333.556364 285.408 
L 349.789091 285.408 
L 366.021818 285.408 
L 382.254545 285.408 
L 398.487273 285.408 
" style="fill:none;stroke:#0e4db3;stroke-linecap:square;stroke-width:3;"/>
   </g>
   <g id="line2d_16">
    <path clip-path="url(#p104653a151)" d="M 73.832727 285.408 
L 90.065455 285.408 
L 106.298182 285.408 
L 122.530909 285.408 
L 138.763636 285.408 
L 154.996364 285.408 
L 171.229091 285.408 
L 187.461818 285.408 
L 203.694545 285.408 
L 219.927273 285.408 
L 236.16 285.408 
L 252.392727 285.408 
L 268.625455 285.408 
L 284.858182 285.408 
L 301.090909 285.408 
L 317.323636 285.408 
L 333.556364 285.408 
L 349.789091 285.408 
L 366.021818 285.408 
L 382.254545 285.408 
L 398.487273 285.408 
" style="fill:none;stroke:#d44e4e;stroke-linecap:square;stroke-width:3;"/>
   </g>
   <g id="line2d_17">
    <path clip-path="url(#p104653a151)" d="M 73.832727 285.408 
L 90.065455 284.919734 
L 106.298182 285.213496 
L 122.530909 285.034852 
L 138.763636 285.244318 
L 154.996364 285.408 
L 171.229091 285.408 
L 187.461818 285.408 
L 203.694545 285.408 
L 219.927273 285.408 
L 236.16 285.408 
L 252.392727 285.408 
L 268.625455 284.272551 
L 284.858182 285.408 
L 301.090909 285.408 
L 317.323636 285.408 
L 333.556364 285.408 
L 349.789091 285.408 
L 366.021818 285.408 
L 382.254545 285.408 
L 398.487273 285.408 
" style="fill:none;stroke:#0e4db3;stroke-linecap:square;stroke-width:3;"/>
   </g>
   <g id="line2d_18">
    <path clip-path="url(#p104653a151)" d="M 73.832727 285.408 
L 90.065455 285.408 
L 106.298182 285.408 
L 122.530909 285.408 
L 138.763636 285.408 
L 154.996364 285.408 
L 171.229091 285.408 
L 187.461818 285.408 
L 203.694545 285.408 
L 219.927273 285.408 
L 236.16 285.408 
L 252.392727 285.408 
L 268.625455 285.408 
L 284.858182 285.408 
L 301.090909 285.408 
L 317.323636 285.408 
L 333.556364 285.408 
L 349.789091 285.408 
L 366.021818 285.408 
L 382.254545 285.408 
L 398.487273 285.408 
" style="fill:none;stroke:#d44e4e;stroke-linecap:square;stroke-width:3;"/>
   </g>
   <g id="line2d_19">
    <path clip-path="url(#p104653a151)" d="M 73.832727 257.362487 
L 90.065455 248.516048 
L 106.298182 235.554409 
L 122.530909 234.306066 
L 138.763636 220.91157 
L 154.996364 218.194149 
L 171.229091 209.21082 
L 187.461818 210.335241 
L 203.694545 197.416999 
L 219.927273 198.074185 
L 236.16 228.740076 
L 252.392727 199.628573 
L 268.625455 214.032562 
L 284.858182 231.873177 
L 301.090909 228.380021 
L 317.323636 240.941797 
L 333.556364 242.491743 
L 349.789091 245.038295 
L 366.021818 245.900397 
L 382.254545 254.350722 
L 398.487273 257.362487 
" style="fill:none;stroke:#0e4db3;stroke-linecap:square;stroke-width:3;"/>
   </g>
   <g id="line2d_20">
    <path clip-path="url(#p104653a151)" d="M 73.832727 257.899203 
L 90.065455 251.129769 
L 106.298182 240.628251 
L 122.530909 238.552943 
L 138.763636 228.583268 
L 154.996364 226.771044 
L 171.229091 219.396002 
L 187.461818 219.709189 
L 203.694545 210.027282 
L 219.927273 210.070927 
L 236.16 234.799776 
L 252.392727 211.504877 
L 268.625455 222.894328 
L 284.858182 237.898071 
L 301.090909 234.452011 
L 317.323636 244.462511 
L 333.556364 245.562786 
L 349.789091 246.590218 
L 366.021818 247.582218 
L 382.254545 254.954972 
L 398.487273 257.899203 
" style="fill:none;stroke:#d44e4e;stroke-linecap:square;stroke-width:3;"/>
   </g>
   <g id="line2d_21">
    <path clip-path="url(#p104653a151)" d="M 73.832727 227.512049 
L 90.065455 223.503468 
L 106.298182 217.473016 
L 122.530909 215.03667 
L 138.763636 218.007747 
L 154.996364 218.17024 
L 171.229091 218.457669 
L 187.461818 224.744316 
L 203.694545 223.766578 
L 219.927273 226.930438 
L 236.16 229.712527 
L 252.392727 226.308262 
L 268.625455 225.584154 
L 284.858182 225.657704 
L 301.090909 225.795676 
L 317.323636 226.341599 
L 333.556364 213.65729 
L 349.789091 220.6557 
L 366.021818 218.469442 
L 382.254545 227.720035 
L 398.487273 227.512049 
" style="fill:none;stroke:#0e4db3;stroke-linecap:square;stroke-width:3;"/>
   </g>
   <g id="line2d_22">
    <path clip-path="url(#p104653a151)" d="M 73.832727 239.873801 
L 90.065455 236.679163 
L 106.298182 232.021736 
L 122.530909 229.235427 
L 138.763636 233.586652 
L 154.996364 233.806834 
L 171.229091 233.712006 
L 187.461818 237.57305 
L 203.694545 235.594635 
L 219.927273 240.209602 
L 236.16 238.08701 
L 252.392727 238.433827 
L 268.625455 238.324231 
L 284.858182 239.076608 
L 301.090909 239.407366 
L 317.323636 239.292727 
L 333.556364 229.445387 
L 349.789091 231.593281 
L 366.021818 231.130935 
L 382.254545 239.875357 
L 398.487273 239.873801 
" style="fill:none;stroke:#d44e4e;stroke-linecap:square;stroke-width:3;"/>
   </g>
   <g id="line2d_23">
    <path clip-path="url(#p104653a151)" d="M 73.832727 283.3042 
L 90.065455 261.120908 
L 106.298182 242.419834 
L 122.530909 243.612708 
L 138.763636 220.93094 
L 154.996364 219.223742 
L 171.229091 219.553891 
L 187.461818 221.591044 
L 203.694545 215.901335 
L 219.927273 215.891262 
L 236.16 224.005232 
L 252.392727 218.659294 
L 268.625455 225.601708 
L 284.858182 242.263813 
L 301.090909 235.557996 
L 317.323636 259.964953 
L 333.556364 260.351951 
L 349.789091 266.354826 
L 366.021818 278.097727 
L 382.254545 267.327939 
L 398.487273 283.3042 
" style="fill:none;stroke:#0e4db3;stroke-linecap:square;stroke-width:3;"/>
   </g>
   <g id="line2d_24">
    <path clip-path="url(#p104653a151)" d="M 73.832727 284.862122 
L 90.065455 267.955604 
L 106.298182 252.883936 
L 122.530909 248.642551 
L 138.763636 236.49528 
L 154.996364 235.014437 
L 171.229091 235.064755 
L 187.461818 234.991022 
L 203.694545 231.065016 
L 219.927273 231.105262 
L 236.16 238.019082 
L 252.392727 233.13242 
L 268.625455 237.475395 
L 284.858182 253.115056 
L 301.090909 246.544118 
L 317.323636 265.240469 
L 333.556364 267.284697 
L 349.789091 272.628286 
L 366.021818 280.599364 
L 382.254545 272.652714 
L 398.487273 284.862122 
" style="fill:none;stroke:#d44e4e;stroke-linecap:square;stroke-width:3;"/>
   </g>
   <g id="line2d_25">
    <path clip-path="url(#p104653a151)" d="M 73.832727 198.874311 
L 90.065455 198.352681 
L 106.298182 193.038726 
L 122.530909 201.495744 
L 138.763636 206.553875 
L 154.996364 224.420066 
L 171.229091 227.565173 
L 187.461818 224.682675 
L 203.694545 197.01996 
L 219.927273 178.084829 
L 236.16 179.553738 
L 252.392727 177.738942 
L 268.625455 196.922488 
L 284.858182 208.686676 
L 301.090909 192.672928 
L 317.323636 186.930056 
L 333.556364 185.462046 
L 349.789091 182.761242 
L 366.021818 176.05564 
L 382.254545 182.310316 
L 398.487273 198.874311 
" style="fill:none;stroke:#0e4db3;stroke-linecap:square;stroke-width:3;"/>
   </g>
   <g id="line2d_26">
    <path clip-path="url(#p104653a151)" d="M 73.832727 211.213606 
L 90.065455 211.199366 
L 106.298182 206.902574 
L 122.530909 212.480011 
L 138.763636 218.187638 
L 154.996364 231.817051 
L 171.229091 234.18697 
L 187.461818 230.570219 
L 203.694545 208.699874 
L 219.927273 194.986285 
L 236.16 195.989482 
L 252.392727 194.585561 
L 268.625455 209.566056 
L 284.858182 219.055324 
L 301.090909 206.047754 
L 317.323636 201.659181 
L 333.556364 200.675205 
L 349.789091 198.619197 
L 366.021818 192.716827 
L 382.254545 198.040705 
L 398.487273 211.213606 
" style="fill:none;stroke:#d44e4e;stroke-linecap:square;stroke-width:3;"/>
   </g>
   <g id="line2d_27">
    <path clip-path="url(#p104653a151)" d="M 73.832727 196.103538 
L 90.065455 195.524193 
L 106.298182 204.861613 
L 122.530909 207.471111 
L 138.763636 226.012303 
L 154.996364 238.71989 
L 171.229091 225.739784 
L 187.461818 209.089777 
L 203.694545 202.216421 
L 219.927273 219.666457 
L 236.16 217.581499 
L 252.392727 217.652237 
L 268.625455 227.616351 
L 284.858182 235.089165 
L 301.090909 223.074948 
L 317.323636 220.880016 
L 333.556364 209.46109 
L 349.789091 208.988541 
L 366.021818 202.419837 
L 382.254545 196.468535 
L 398.487273 196.103538 
" style="fill:none;stroke:#0e4db3;stroke-linecap:square;stroke-width:3;"/>
   </g>
   <g id="line2d_28">
    <path clip-path="url(#p104653a151)" d="M 73.832727 210.156926 
L 90.065455 207.706724 
L 106.298182 217.244526 
L 122.530909 213.891009 
L 138.763636 233.924192 
L 154.996364 243.783395 
L 171.229091 233.032173 
L 187.461818 219.234388 
L 203.694545 213.932934 
L 219.927273 228.536075 
L 236.16 226.875444 
L 252.392727 226.563149 
L 268.625455 234.973136 
L 284.858182 240.257752 
L 301.090909 231.847139 
L 317.323636 228.803534 
L 333.556364 220.746687 
L 349.789091 218.777088 
L 366.021818 214.221718 
L 382.254545 207.669103 
L 398.487273 210.156926 
" style="fill:none;stroke:#d44e4e;stroke-linecap:square;stroke-width:3;"/>
   </g>
   <g id="line2d_29">
    <path clip-path="url(#p104653a151)" d="M 73.832727 153.53712 
L 90.065455 153.349195 
L 106.298182 150.393042 
L 122.530909 152.175125 
L 138.763636 151.990898 
L 154.996364 152.085935 
L 171.229091 150.297015 
L 187.461818 151.631233 
L 203.694545 145.500881 
L 219.927273 148.240029 
L 236.16 148.771263 
L 252.392727 148.656302 
L 268.625455 150.874205 
L 284.858182 152.569859 
L 301.090909 151.119702 
L 317.323636 151.829147 
L 333.556364 151.326068 
L 349.789091 152.812635 
L 366.021818 150.671434 
L 382.254545 152.0031 
L 398.487273 153.53712 
" style="fill:none;stroke:#0e4db3;stroke-linecap:square;stroke-width:3;"/>
   </g>
   <g id="line2d_30">
    <path clip-path="url(#p104653a151)" d="M 73.832727 174.742361 
L 90.065455 173.826329 
L 106.298182 171.913905 
L 122.530909 173.089225 
L 138.763636 173.05986 
L 154.996364 173.112834 
L 171.229091 171.725602 
L 187.461818 173.004085 
L 203.694545 167.979786 
L 219.927273 170.472734 
L 236.16 170.744823 
L 252.392727 170.686978 
L 268.625455 170.708334 
L 284.858182 172.862402 
L 301.090909 171.657781 
L 317.323636 172.598998 
L 333.556364 172.460388 
L 349.789091 173.762377 
L 366.021818 172.052489 
L 382.254545 173.365117 
L 398.487273 174.742361 
" style="fill:none;stroke:#d44e4e;stroke-linecap:square;stroke-width:3;"/>
   </g>
   <g id="line2d_31">
    <path clip-path="url(#p104653a151)" d="M 73.832727 221.504028 
L 90.065455 209.846604 
L 106.298182 209.745426 
L 122.530909 216.842207 
L 138.763636 217.822165 
L 154.996364 215.044699 
L 171.229091 214.888437 
L 187.461818 214.490148 
L 203.694545 223.670799 
L 219.927273 223.426545 
L 236.16 225.549436 
L 252.392727 238.837003 
L 268.625455 253.02753 
L 284.858182 258.383928 
L 301.090909 258.530771 
L 317.323636 256.403012 
L 333.556364 254.092736 
L 349.789091 250.507277 
L 366.021818 235.780333 
L 382.254545 221.604112 
L 398.487273 221.504028 
" style="fill:none;stroke:#0e4db3;stroke-linecap:square;stroke-width:3;"/>
   </g>
   <g id="line2d_32">
    <path clip-path="url(#p104653a151)" d="M 73.832727 230.519927 
L 90.065455 221.174569 
L 106.298182 221.540947 
L 122.530909 224.027774 
L 138.763636 227.754597 
L 154.996364 225.33014 
L 171.229091 225.044364 
L 187.461818 224.445512 
L 203.694545 231.813366 
L 219.927273 231.828774 
L 236.16 233.766569 
L 252.392727 244.271818 
L 268.625455 255.659273 
L 284.858182 259.60292 
L 301.090909 259.662206 
L 317.323636 257.833782 
L 333.556364 256.208022 
L 349.789091 253.152079 
L 366.021818 241.13793 
L 382.254545 229.539884 
L 398.487273 230.519927 
" style="fill:none;stroke:#d44e4e;stroke-linecap:square;stroke-width:3;"/>
   </g>
   <g id="line2d_33">
    <path clip-path="url(#p104653a151)" d="M 73.832727 115.10058 
L 90.065455 115.077114 
L 106.298182 114.753717 
L 122.530909 118.529966 
L 138.763636 117.380313 
L 154.996364 117.994122 
L 171.229091 118.242719 
L 187.461818 119.435541 
L 203.694545 115.357329 
L 219.927273 117.91505 
L 236.16 118.064287 
L 252.392727 117.380899 
L 268.625455 117.629157 
L 284.858182 122.147551 
L 301.090909 118.561584 
L 317.323636 118.361405 
L 333.556364 117.358631 
L 349.789091 117.45764 
L 366.021818 114.844261 
L 382.254545 115.073963 
L 398.487273 115.10058 
" style="fill:none;stroke:#0e4db3;stroke-linecap:square;stroke-width:3;"/>
   </g>
   <g id="line2d_34">
    <path clip-path="url(#p104653a151)" d="M 73.832727 146.949866 
L 90.065455 146.945816 
L 106.298182 146.600033 
L 122.530909 149.278276 
L 138.763636 147.93838 
L 154.996364 149.134509 
L 171.229091 148.789703 
L 187.461818 150.542669 
L 203.694545 146.784703 
L 219.927273 149.357947 
L 236.16 149.630999 
L 252.392727 148.746964 
L 268.625455 147.305649 
L 284.858182 149.692465 
L 301.090909 148.448049 
L 317.323636 148.452763 
L 333.556364 148.038574 
L 349.789091 148.504331 
L 366.021818 146.26028 
L 382.254545 146.748058 
L 398.487273 146.949866 
" style="fill:none;stroke:#d44e4e;stroke-linecap:square;stroke-width:3;"/>
   </g>
   <g id="line2d_35">
    <path clip-path="url(#p104653a151)" d="M 73.832727 285.408 
L 90.065455 285.408 
L 106.298182 285.408 
L 122.530909 285.408 
L 138.763636 285.408 
L 154.996364 285.408 
L 171.229091 285.408 
L 187.461818 285.408 
L 203.694545 285.408 
L 219.927273 285.408 
L 236.16 285.408 
L 252.392727 285.408 
L 268.625455 282.932832 
L 284.858182 284.699822 
L 301.090909 285.408 
L 317.323636 285.408 
L 333.556364 285.408 
L 349.789091 285.408 
L 366.021818 285.408 
L 382.254545 285.408 
L 398.487273 285.408 
" style="fill:none;stroke:#0e4db3;stroke-linecap:square;stroke-width:3;"/>
   </g>
   <g id="line2d_36">
    <path clip-path="url(#p104653a151)" d="M 73.832727 285.408 
L 90.065455 285.408 
L 106.298182 285.408 
L 122.530909 285.408 
L 138.763636 285.408 
L 154.996364 285.408 
L 171.229091 285.408 
L 187.461818 285.408 
L 203.694545 285.408 
L 219.927273 285.408 
L 236.16 285.408 
L 252.392727 285.408 
L 268.625455 285.408 
L 284.858182 285.408 
L 301.090909 285.408 
L 317.323636 285.408 
L 333.556364 285.408 
L 349.789091 285.408 
L 366.021818 285.408 
L 382.254545 285.408 
L 398.487273 285.408 
" style="fill:none;stroke:#d44e4e;stroke-linecap:square;stroke-width:3;"/>
   </g>
   <g id="line2d_37">
    <path clip-path="url(#p104653a151)" d="M 73.832727 218.934913 
L 90.065455 170.201687 
L 106.298182 181.860576 
L 122.530909 195.046031 
L 138.763636 197.558845 
L 154.996364 232.561715 
L 171.229091 244.162955 
L 187.461818 243.896244 
L 203.694545 208.188825 
L 219.927273 175.465505 
L 236.16 177.298454 
L 252.392727 174.343838 
L 268.625455 192.83897 
L 284.858182 213.311117 
L 301.090909 193.888474 
L 317.323636 185.157655 
L 333.556364 183.175405 
L 349.789091 190.527905 
L 366.021818 164.0069 
L 382.254545 187.518478 
L 398.487273 218.934913 
" style="fill:none;stroke:#0e4db3;stroke-linecap:square;stroke-width:3;"/>
   </g>
   <g id="line2d_38">
    <path clip-path="url(#p104653a151)" d="M 73.832727 233.040589 
L 90.065455 193.583979 
L 106.298182 200.804185 
L 122.530909 213.091026 
L 138.763636 216.444127 
L 154.996364 244.697509 
L 171.229091 253.994661 
L 187.461818 250.262906 
L 203.694545 222.225532 
L 219.927273 198.375933 
L 236.16 199.7416 
L 252.392727 197.368575 
L 268.625455 211.711412 
L 284.858182 228.268374 
L 301.090909 212.510581 
L 317.323636 205.595084 
L 333.556364 204.22775 
L 349.789091 208.435638 
L 366.021818 188.32363 
L 382.254545 207.135662 
L 398.487273 233.040589 
" style="fill:none;stroke:#d44e4e;stroke-linecap:square;stroke-width:3;"/>
   </g>
   <g id="line2d_39">
    <path clip-path="url(#p104653a151)" d="M 73.832727 256.836875 
L 90.065455 234.103874 
L 106.298182 241.833698 
L 122.530909 241.214179 
L 138.763636 246.54055 
L 154.996364 249.117746 
L 171.229091 255.442171 
L 187.461818 261.759869 
L 203.694545 258.977715 
L 219.927273 247.274367 
L 236.16 248.203492 
L 252.392727 247.884451 
L 268.625455 251.858125 
L 284.858182 241.413395 
L 301.090909 249.809787 
L 317.323636 261.782502 
L 333.556364 261.882556 
L 349.789091 255.735819 
L 366.021818 251.493096 
L 382.254545 250.902975 
L 398.487273 256.836875 
" style="fill:none;stroke:#0e4db3;stroke-linecap:square;stroke-width:3;"/>
   </g>
   <g id="line2d_40">
    <path clip-path="url(#p104653a151)" d="M 73.832727 264.094609 
L 90.065455 242.182879 
L 106.298182 248.545577 
L 122.530909 250.755347 
L 138.763636 255.612288 
L 154.996364 257.986765 
L 171.229091 262.192596 
L 187.461818 267.68469 
L 203.694545 264.843401 
L 219.927273 256.230694 
L 236.16 256.916783 
L 252.392727 256.667207 
L 268.625455 259.553863 
L 284.858182 251.210787 
L 301.090909 258.253294 
L 317.323636 267.147884 
L 333.556364 267.469553 
L 349.789091 262.604871 
L 366.021818 258.978281 
L 382.254545 258.747418 
L 398.487273 264.094609 
" style="fill:none;stroke:#d44e4e;stroke-linecap:square;stroke-width:3;"/>
   </g>
   <g id="line2d_41">
    <path clip-path="url(#p104653a151)" d="M 73.832727 253.183863 
L 90.065455 237.791389 
L 106.298182 217.923108 
L 122.530909 210.706926 
L 138.763636 200.496649 
L 154.996364 196.454328 
L 171.229091 207.004963 
L 187.461818 221.309722 
L 203.694545 224.032853 
L 219.927273 206.283615 
L 236.16 206.176689 
L 252.392727 214.615397 
L 268.625455 210.578252 
L 284.858182 224.409928 
L 301.090909 230.079478 
L 317.323636 265.193928 
L 333.556364 263.458517 
L 349.789091 264.966547 
L 366.021818 249.264707 
L 382.254545 253.348879 
L 398.487273 253.183863 
" style="fill:none;stroke:#0e4db3;stroke-linecap:square;stroke-width:3;"/>
   </g>
   <g id="line2d_42">
    <path clip-path="url(#p104653a151)" d="M 73.832727 259.326072 
L 90.065455 247.306968 
L 106.298182 221.735689 
L 122.530909 223.477749 
L 138.763636 218.315621 
L 154.996364 214.947168 
L 171.229091 223.107276 
L 187.461818 232.169426 
L 203.694545 235.757496 
L 219.927273 222.224568 
L 236.16 222.219633 
L 252.392727 228.427221 
L 268.625455 225.046265 
L 284.858182 235.412403 
L 301.090909 239.319426 
L 317.323636 269.811518 
L 333.556364 267.921777 
L 349.789091 267.492431 
L 366.021818 253.904227 
L 382.254545 258.381623 
L 398.487273 259.326072 
" style="fill:none;stroke:#d44e4e;stroke-linecap:square;stroke-width:3;"/>
   </g>
   <g id="line2d_43">
    <path clip-path="url(#p104653a151)" d="M 73.832727 221.962337 
L 90.065455 221.480009 
L 106.298182 221.29317 
L 122.530909 227.466724 
L 138.763636 221.426623 
L 154.996364 235.657669 
L 171.229091 237.019879 
L 187.461818 237.300231 
L 203.694545 236.346213 
L 219.927273 235.807609 
L 236.16 235.37149 
L 252.392727 228.300598 
L 268.625455 224.652899 
L 284.858182 230.395224 
L 301.090909 221.099417 
L 317.323636 221.325257 
L 333.556364 221.368049 
L 349.789091 222.868452 
L 366.021818 216.82479 
L 382.254545 221.554985 
L 398.487273 221.962337 
" style="fill:none;stroke:#0e4db3;stroke-linecap:square;stroke-width:3;"/>
   </g>
   <g id="line2d_44">
    <path clip-path="url(#p104653a151)" d="M 73.832727 231.412036 
L 90.065455 227.776064 
L 106.298182 227.549748 
L 122.530909 229.814336 
L 138.763636 231.329618 
L 154.996364 242.34715 
L 171.229091 243.159042 
L 187.461818 243.377179 
L 203.694545 243.265685 
L 219.927273 242.900268 
L 236.16 242.950742 
L 252.392727 235.859802 
L 268.625455 233.465759 
L 284.858182 237.648586 
L 301.090909 230.619645 
L 317.323636 230.639283 
L 333.556364 230.647259 
L 349.789091 232.229033 
L 366.021818 226.695215 
L 382.254545 230.782581 
L 398.487273 231.412036 
" style="fill:none;stroke:#d44e4e;stroke-linecap:square;stroke-width:3;"/>
   </g>
   <g id="line2d_45">
    <path clip-path="url(#p104653a151)" d="M 73.832727 285.408 
L 90.065455 285.408 
L 106.298182 285.408 
L 122.530909 285.408 
L 138.763636 285.408 
L 154.996364 285.408 
L 171.229091 285.408 
L 187.461818 285.408 
L 203.694545 285.408 
L 219.927273 285.408 
L 236.16 285.408 
L 252.392727 285.408 
L 268.625455 285.408 
L 284.858182 285.408 
L 301.090909 285.408 
L 317.323636 285.408 
L 333.556364 285.408 
L 349.789091 285.408 
L 366.021818 285.408 
L 382.254545 285.408 
L 398.487273 285.408 
" style="fill:none;stroke:#0e4db3;stroke-linecap:square;stroke-width:3;"/>
   </g>
   <g id="line2d_46">
    <path clip-path="url(#p104653a151)" d="M 73.832727 285.408 
L 90.065455 285.408 
L 106.298182 285.408 
L 122.530909 285.408 
L 138.763636 285.408 
L 154.996364 285.408 
L 171.229091 285.408 
L 187.461818 285.408 
L 203.694545 285.408 
L 219.927273 285.408 
L 236.16 285.408 
L 252.392727 285.408 
L 268.625455 285.408 
L 284.858182 285.408 
L 301.090909 285.408 
L 317.323636 285.408 
L 333.556364 285.408 
L 349.789091 285.408 
L 366.021818 285.408 
L 382.254545 285.408 
L 398.487273 285.408 
" style="fill:none;stroke:#d44e4e;stroke-linecap:square;stroke-width:3;"/>
   </g>
   <g id="line2d_47">
    <path clip-path="url(#p104653a151)" d="M 73.832727 201.088034 
L 90.065455 124.044296 
L 106.298182 126.156183 
L 122.530909 119.998198 
L 138.763636 90.768789 
L 154.996364 113.066905 
L 171.229091 163.283846 
L 187.461818 239.075973 
L 203.694545 203.129574 
L 219.927273 171.5339 
L 236.16 166.950017 
L 252.392727 134.370113 
L 268.625455 108.350755 
L 284.858182 92.942689 
L 301.090909 118.820456 
L 317.323636 170.709298 
L 333.556364 255.51969 
L 349.789091 285.408 
L 366.021818 259.989765 
L 382.254545 196.604247 
L 398.487273 201.088034 
" style="fill:none;stroke:#0e4db3;stroke-linecap:square;stroke-width:3;"/>
   </g>
   <g id="line2d_48">
    <path clip-path="url(#p104653a151)" d="M 73.832727 285.408 
L 90.065455 221.640008 
L 106.298182 227.464257 
L 122.530909 207.307791 
L 138.763636 256.14598 
L 154.996364 279.462583 
L 171.229091 285.408 
L 187.461818 285.408 
L 203.694545 285.408 
L 219.927273 285.408 
L 236.16 283.556291 
L 252.392727 256.664625 
L 268.625455 240.092531 
L 284.858182 243.448343 
L 301.090909 259.147482 
L 317.323636 285.408 
L 333.556364 285.408 
L 349.789091 285.408 
L 366.021818 285.408 
L 382.254545 285.408 
L 398.487273 285.408 
" style="fill:none;stroke:#d44e4e;stroke-linecap:square;stroke-width:3;"/>
   </g>
   <g id="line2d_49">
    <path clip-path="url(#p104653a151)" d="M 73.832727 285.408 
L 90.065455 285.408 
L 106.298182 285.408 
L 122.530909 285.408 
L 138.763636 285.408 
L 154.996364 285.408 
L 171.229091 285.408 
L 187.461818 285.408 
L 203.694545 285.408 
L 219.927273 285.408 
L 236.16 285.408 
L 252.392727 285.408 
L 268.625455 285.408 
L 284.858182 285.408 
L 301.090909 285.408 
L 317.323636 285.408 
L 333.556364 285.408 
L 349.789091 285.408 
L 366.021818 285.408 
L 382.254545 285.408 
L 398.487273 285.408 
" style="fill:none;stroke:#0e4db3;stroke-linecap:square;stroke-width:3;"/>
   </g>
   <g id="line2d_50">
    <path clip-path="url(#p104653a151)" d="M 73.832727 285.408 
L 90.065455 285.408 
L 106.298182 285.408 
L 122.530909 285.408 
L 138.763636 285.408 
L 154.996364 285.408 
L 171.229091 285.408 
L 187.461818 285.408 
L 203.694545 285.408 
L 219.927273 285.408 
L 236.16 285.408 
L 252.392727 285.408 
L 268.625455 285.408 
L 284.858182 285.408 
L 301.090909 285.408 
L 317.323636 285.408 
L 333.556364 285.408 
L 349.789091 285.408 
L 366.021818 285.408 
L 382.254545 285.408 
L 398.487273 285.408 
" style="fill:none;stroke:#d44e4e;stroke-linecap:square;stroke-width:3;"/>
   </g>
   <g id="line2d_51">
    <path clip-path="url(#p104653a151)" d="M 73.832727 285.408 
L 90.065455 285.408 
L 106.298182 285.408 
L 122.530909 285.408 
L 138.763636 285.408 
L 154.996364 285.408 
L 171.229091 285.408 
L 187.461818 285.408 
L 203.694545 285.408 
L 219.927273 285.408 
L 236.16 285.408 
L 252.392727 285.408 
L 268.625455 285.408 
L 284.858182 285.408 
L 301.090909 285.408 
L 317.323636 285.408 
L 333.556364 285.408 
L 349.789091 285.408 
L 366.021818 285.408 
L 382.254545 285.408 
L 398.487273 285.408 
" style="fill:none;stroke:#0e4db3;stroke-linecap:square;stroke-width:3;"/>
   </g>
   <g id="line2d_52">
    <path clip-path="url(#p104653a151)" d="M 73.832727 285.408 
L 90.065455 285.408 
L 106.298182 285.408 
L 122.530909 285.408 
L 138.763636 285.408 
L 154.996364 285.408 
L 171.229091 285.408 
L 187.461818 285.408 
L 203.694545 285.408 
L 219.927273 285.408 
L 236.16 285.408 
L 252.392727 285.408 
L 268.625455 285.408 
L 284.858182 285.408 
L 301.090909 285.408 
L 317.323636 285.408 
L 333.556364 285.408 
L 349.789091 285.408 
L 366.021818 285.408 
L 382.254545 285.408 
L 398.487273 285.408 
" style="fill:none;stroke:#d44e4e;stroke-linecap:square;stroke-width:3;"/>
   </g>
   <g id="line2d_53">
    <path clip-path="url(#p104653a151)" d="M 74.083989 -1 
L 90.065455 86.520024 
L 106.298182 172.156889 
L 122.530909 184.708221 
L 138.763636 179.835795 
L 154.996364 182.891257 
L 171.229091 177.161361 
L 187.461818 192.07573 
L 203.694545 206.348668 
L 219.927273 152.397703 
L 236.16 138.793508 
L 252.392727 122.715859 
L 268.625455 161.799649 
L 284.858182 120.12695 
L 301.090909 60.113212 
L 314.270816 -1 
" style="fill:none;stroke:#0e4db3;stroke-linecap:square;stroke-width:3;"/>
   </g>
   <g id="line2d_54">
    <path clip-path="url(#p104653a151)" d="M 73.832727 285.408 
L 90.065455 285.408 
L 106.298182 285.408 
L 122.530909 285.408 
L 138.763636 285.408 
L 154.996364 285.408 
L 171.229091 285.408 
L 187.461818 285.408 
L 203.694545 285.408 
L 219.927273 285.408 
L 236.16 285.408 
L 252.392727 285.408 
L 268.625455 285.408 
L 284.858182 285.408 
L 301.090909 285.408 
L 317.323636 206.664018 
L 333.556364 244.639719 
L 349.789091 209.480929 
L 366.021818 202.58539 
L 382.254545 235.085096 
L 398.487273 285.408 
" style="fill:none;stroke:#d44e4e;stroke-linecap:square;stroke-width:3;"/>
   </g>
   <g id="line2d_55">
    <path clip-path="url(#p104653a151)" d="M 73.832727 285.408 
L 90.065455 285.408 
L 106.298182 285.408 
L 122.530909 285.408 
L 138.763636 285.408 
L 154.996364 285.408 
L 171.229091 285.408 
L 187.461818 285.408 
L 203.694545 285.408 
L 219.927273 285.408 
L 236.16 285.408 
L 252.392727 285.408 
L 268.625455 285.408 
L 284.858182 285.408 
L 301.090909 285.408 
L 317.323636 285.408 
L 333.556364 285.408 
L 349.789091 285.408 
L 366.021818 285.408 
L 382.254545 285.408 
L 398.487273 285.408 
" style="fill:none;stroke:#0e4db3;stroke-linecap:square;stroke-width:3;"/>
   </g>
   <g id="line2d_56">
    <path clip-path="url(#p104653a151)" d="M 73.832727 285.408 
L 90.065455 285.408 
L 106.298182 285.408 
L 122.530909 285.408 
L 138.763636 285.408 
L 154.996364 285.408 
L 171.229091 285.408 
L 187.461818 285.408 
L 203.694545 285.408 
L 219.927273 285.408 
L 236.16 285.408 
L 252.392727 285.408 
L 268.625455 285.408 
L 284.858182 285.408 
L 301.090909 285.408 
L 317.323636 285.408 
L 333.556364 285.408 
L 349.789091 285.408 
L 366.021818 285.408 
L 382.254545 285.408 
L 398.487273 285.408 
" style="fill:none;stroke:#d44e4e;stroke-linecap:square;stroke-width:3;"/>
   </g>
   <g id="line2d_57">
    <path clip-path="url(#p104653a151)" d="M 73.832727 285.408 
L 90.065455 285.408 
L 106.298182 285.408 
L 122.530909 285.408 
L 138.763636 285.408 
L 154.996364 285.408 
L 171.229091 285.408 
L 187.461818 285.408 
L 203.694545 285.408 
L 219.927273 285.408 
L 236.16 285.408 
L 252.392727 285.408 
L 268.625455 285.408 
L 284.858182 285.408 
L 301.090909 285.408 
L 317.323636 285.408 
L 333.556364 285.408 
L 349.789091 285.408 
L 366.021818 285.408 
L 382.254545 285.408 
L 398.487273 285.408 
" style="fill:none;stroke:#0e4db3;stroke-linecap:square;stroke-width:3;"/>
   </g>
   <g id="line2d_58">
    <path clip-path="url(#p104653a151)" d="M 73.832727 285.408 
L 90.065455 285.408 
L 106.298182 285.408 
L 122.530909 285.408 
L 138.763636 285.408 
L 154.996364 285.408 
L 171.229091 285.408 
L 187.461818 285.408 
L 203.694545 285.408 
L 219.927273 285.408 
L 236.16 285.408 
L 252.392727 285.408 
L 268.625455 285.408 
L 284.858182 285.408 
L 301.090909 285.408 
L 317.323636 285.408 
L 333.556364 285.408 
L 349.789091 285.408 
L 366.021818 285.408 
L 382.254545 285.408 
L 398.487273 285.408 
" style="fill:none;stroke:#d44e4e;stroke-linecap:square;stroke-width:3;"/>
   </g>
   <g id="line2d_59">
    <path clip-path="url(#p104653a151)" d="M 73.832727 249.128552 
L 90.065455 249.252746 
L 106.298182 256.400538 
L 122.530909 266.04664 
L 138.763636 265.943552 
L 154.996364 267.58768 
L 171.229091 255.7997 
L 187.461818 227.791456 
L 203.694545 169.320099 
L 219.927273 127.816625 
L 236.16 179.69419 
L 252.392727 103.574258 
L 268.625455 113.217808 
L 284.858182 116.652819 
L 301.090909 117.391447 
L 317.323636 141.95561 
L 333.556364 157.413837 
L 349.789091 185.000605 
L 366.021818 199.409439 
L 382.254545 224.108304 
L 398.487273 249.128552 
" style="fill:none;stroke:#0e4db3;stroke-linecap:square;stroke-width:3;"/>
   </g>
   <g id="line2d_60">
    <path clip-path="url(#p104653a151)" d="M 73.832727 283.6423 
L 90.065455 272.360606 
L 106.298182 282.751261 
L 122.530909 277.090578 
L 138.763636 276.534833 
L 154.996364 277.322779 
L 171.229091 283.755218 
L 187.461818 284.135026 
L 203.694545 283.927369 
L 219.927273 233.694982 
L 236.16 282.984739 
L 252.392727 212.257165 
L 268.625455 226.475424 
L 284.858182 242.778082 
L 301.090909 251.156549 
L 317.323636 241.190921 
L 333.556364 254.913613 
L 349.789091 245.026441 
L 366.021818 255.484565 
L 382.254545 261.88779 
L 398.487273 283.6423 
" style="fill:none;stroke:#d44e4e;stroke-linecap:square;stroke-width:3;"/>
   </g>
   <g id="line2d_61">
    <path clip-path="url(#p104653a151)" d="M 73.832727 285.408 
L 90.065455 285.408 
L 106.298182 285.408 
L 122.530909 285.408 
L 138.763636 285.408 
L 154.996364 285.408 
L 171.229091 285.408 
L 187.461818 285.408 
L 203.694545 285.408 
L 219.927273 285.408 
L 236.16 285.408 
L 252.392727 285.408 
L 268.625455 285.408 
L 284.858182 285.408 
L 301.090909 285.408 
L 317.323636 285.408 
L 333.556364 285.408 
L 349.789091 285.408 
L 366.021818 285.408 
L 382.254545 285.408 
L 398.487273 285.408 
" style="fill:none;stroke:#0e4db3;stroke-linecap:square;stroke-width:3;"/>
   </g>
   <g id="line2d_62">
    <path clip-path="url(#p104653a151)" d="M 73.832727 285.408 
L 90.065455 285.408 
L 106.298182 285.408 
L 122.530909 285.408 
L 138.763636 285.408 
L 154.996364 285.408 
L 171.229091 285.408 
L 187.461818 285.408 
L 203.694545 285.408 
L 219.927273 285.408 
L 236.16 285.408 
L 252.392727 285.408 
L 268.625455 285.408 
L 284.858182 285.408 
L 301.090909 285.408 
L 317.323636 285.408 
L 333.556364 285.408 
L 349.789091 285.408 
L 366.021818 285.408 
L 382.254545 285.408 
L 398.487273 285.408 
" style="fill:none;stroke:#d44e4e;stroke-linecap:square;stroke-width:3;"/>
   </g>
   <g id="line2d_63">
    <path clip-path="url(#p104653a151)" d="M 73.832727 285.408 
L 90.065455 285.408 
L 106.298182 285.408 
L 122.530909 285.408 
L 138.763636 285.408 
L 154.996364 285.408 
L 171.229091 285.408 
L 187.461818 285.408 
L 203.694545 285.408 
L 219.927273 285.408 
L 236.16 285.408 
L 252.392727 285.408 
L 268.625455 285.408 
L 284.858182 285.408 
L 301.090909 285.408 
L 317.323636 285.408 
L 333.556364 285.408 
L 349.789091 285.408 
L 366.021818 285.408 
L 382.254545 285.408 
L 398.487273 285.408 
" style="fill:none;stroke:#0e4db3;stroke-linecap:square;stroke-width:3;"/>
   </g>
   <g id="line2d_64">
    <path clip-path="url(#p104653a151)" d="M 73.832727 285.408 
L 90.065455 285.408 
L 106.298182 285.408 
L 122.530909 285.408 
L 138.763636 285.408 
L 154.996364 285.408 
L 171.229091 285.408 
L 187.461818 285.408 
L 203.694545 285.408 
L 219.927273 285.408 
L 236.16 285.408 
L 252.392727 285.408 
L 268.625455 285.408 
L 284.858182 285.408 
L 301.090909 285.408 
L 317.323636 285.408 
L 333.556364 285.408 
L 349.789091 285.408 
L 366.021818 285.408 
L 382.254545 285.408 
L 398.487273 285.408 
" style="fill:none;stroke:#d44e4e;stroke-linecap:square;stroke-width:3;"/>
   </g>
   <g id="line2d_65">
    <path clip-path="url(#p104653a151)" d="M 73.832727 285.408 
L 90.065455 285.408 
L 106.298182 285.408 
L 122.530909 285.408 
L 138.763636 285.408 
L 154.996364 285.408 
L 171.229091 285.408 
L 187.461818 285.408 
L 203.694545 285.408 
L 219.927273 285.408 
L 236.16 285.408 
L 252.392727 285.408 
L 268.625455 285.408 
L 284.858182 285.408 
L 301.090909 285.408 
L 317.323636 285.408 
L 333.556364 285.408 
L 349.789091 285.408 
L 366.021818 285.408 
L 382.254545 285.408 
L 398.487273 285.408 
" style="fill:none;stroke:#0e4db3;stroke-linecap:square;stroke-width:3;"/>
   </g>
   <g id="line2d_66">
    <path clip-path="url(#p104653a151)" d="M 73.832727 285.408 
L 90.065455 285.408 
L 106.298182 285.408 
L 122.530909 285.408 
L 138.763636 285.408 
L 154.996364 285.408 
L 171.229091 285.408 
L 187.461818 285.408 
L 203.694545 285.408 
L 219.927273 285.408 
L 236.16 285.408 
L 252.392727 285.408 
L 268.625455 285.408 
L 284.858182 285.408 
L 301.090909 285.408 
L 317.323636 285.408 
L 333.556364 285.408 
L 349.789091 285.408 
L 366.021818 285.408 
L 382.254545 285.408 
L 398.487273 285.408 
" style="fill:none;stroke:#d44e4e;stroke-linecap:square;stroke-width:3;"/>
   </g>
   <g id="line2d_67">
    <path clip-path="url(#p104653a151)" d="M 73.832727 285.408 
L 90.065455 285.408 
L 106.298182 285.408 
L 122.530909 285.408 
L 138.763636 285.408 
L 154.996364 285.408 
L 171.229091 285.408 
L 187.461818 285.408 
L 203.694545 285.408 
L 219.927273 285.408 
L 236.16 285.408 
L 252.392727 285.408 
L 268.625455 285.408 
L 284.858182 285.408 
L 301.090909 285.408 
L 317.323636 285.408 
L 333.556364 285.408 
L 349.789091 285.408 
L 366.021818 285.408 
L 382.254545 285.408 
L 398.487273 285.408 
" style="fill:none;stroke:#0e4db3;stroke-linecap:square;stroke-width:3;"/>
   </g>
   <g id="line2d_68">
    <path clip-path="url(#p104653a151)" d="M 73.832727 285.408 
L 90.065455 285.408 
L 106.298182 285.408 
L 122.530909 285.408 
L 138.763636 285.408 
L 154.996364 285.408 
L 171.229091 285.408 
L 187.461818 285.408 
L 203.694545 285.408 
L 219.927273 285.408 
L 236.16 285.408 
L 252.392727 285.408 
L 268.625455 285.408 
L 284.858182 285.408 
L 301.090909 285.408 
L 317.323636 285.408 
L 333.556364 285.408 
L 349.789091 285.408 
L 366.021818 285.408 
L 382.254545 285.408 
L 398.487273 285.408 
" style="fill:none;stroke:#d44e4e;stroke-linecap:square;stroke-width:3;"/>
   </g>
   <g id="line2d_69">
    <path clip-path="url(#p104653a151)" d="M 73.832727 180.777468 
L 90.065455 149.140486 
L 106.298182 93.937884 
L 122.530909 102.493377 
L 138.763636 52.630019 
L 154.996364 56.182413 
L 171.229091 90.968513 
L 187.461818 162.84679 
L 203.694545 129.082099 
L 219.927273 128.503789 
L 236.16 167.401476 
L 252.392727 144.106981 
L 268.625455 153.742379 
L 284.858182 185.005078 
L 301.090909 187.687215 
L 317.323636 223.44839 
L 333.556364 208.799085 
L 349.789091 197.451332 
L 366.021818 174.900257 
L 382.254545 174.758678 
L 398.487273 180.777468 
" style="fill:none;stroke:#0e4db3;stroke-linecap:square;stroke-width:3;"/>
   </g>
   <g id="line2d_70">
    <path clip-path="url(#p104653a151)" d="M 73.832727 285.408 
L 90.065455 285.408 
L 106.298182 285.408 
L 122.530909 285.408 
L 138.763636 285.408 
L 154.996364 285.408 
L 171.229091 285.408 
L 187.461818 285.408 
L 203.694545 285.408 
L 219.927273 285.408 
L 236.16 285.408 
L 252.392727 285.408 
L 268.625455 285.408 
L 284.858182 285.408 
L 301.090909 285.408 
L 317.323636 285.408 
L 333.556364 285.408 
L 349.789091 285.408 
L 366.021818 285.408 
L 382.254545 285.408 
L 398.487273 285.408 
" style="fill:none;stroke:#d44e4e;stroke-linecap:square;stroke-width:3;"/>
   </g>
   <g id="line2d_71">
    <path clip-path="url(#p104653a151)" d="M 73.832727 285.408 
L 90.065455 285.408 
L 106.298182 285.408 
L 122.530909 285.408 
L 138.763636 285.408 
L 154.996364 285.408 
L 171.229091 285.408 
L 187.461818 285.408 
L 203.694545 285.408 
L 219.927273 285.408 
L 236.16 285.408 
L 252.392727 285.408 
L 268.625455 285.408 
L 284.858182 285.408 
L 301.090909 285.408 
L 317.323636 285.408 
L 333.556364 285.408 
L 349.789091 285.408 
L 366.021818 285.408 
L 382.254545 285.408 
L 398.487273 285.408 
" style="fill:none;stroke:#0e4db3;stroke-linecap:square;stroke-width:3;"/>
   </g>
   <g id="line2d_72">
    <path clip-path="url(#p104653a151)" d="M 73.832727 285.408 
L 90.065455 285.408 
L 106.298182 285.408 
L 122.530909 285.408 
L 138.763636 285.408 
L 154.996364 285.408 
L 171.229091 285.408 
L 187.461818 285.408 
L 203.694545 285.408 
L 219.927273 285.408 
L 236.16 285.408 
L 252.392727 285.408 
L 268.625455 285.408 
L 284.858182 285.408 
L 301.090909 285.408 
L 317.323636 285.408 
L 333.556364 285.408 
L 349.789091 285.408 
L 366.021818 285.408 
L 382.254545 285.408 
L 398.487273 285.408 
" style="fill:none;stroke:#d44e4e;stroke-linecap:square;stroke-width:3;"/>
   </g>
   <g id="line2d_73">
    <path clip-path="url(#p104653a151)" d="M 73.832727 285.408 
L 90.065455 285.408 
L 106.298182 285.408 
L 122.530909 285.408 
L 138.763636 285.408 
L 154.996364 285.408 
L 171.229091 285.408 
L 187.461818 285.408 
L 203.694545 285.408 
L 219.927273 285.408 
L 236.16 285.408 
L 252.392727 285.408 
L 268.625455 285.408 
L 284.858182 285.408 
L 301.090909 285.408 
L 317.323636 285.408 
L 333.556364 285.408 
L 349.789091 285.408 
L 366.021818 285.408 
L 382.254545 285.408 
L 398.487273 285.408 
" style="fill:none;stroke:#0e4db3;stroke-linecap:square;stroke-width:3;"/>
   </g>
   <g id="line2d_74">
    <path clip-path="url(#p104653a151)" d="M 73.832727 285.408 
L 90.065455 285.408 
L 106.298182 285.408 
L 122.530909 285.408 
L 138.763636 285.408 
L 154.996364 285.408 
L 171.229091 285.408 
L 187.461818 285.408 
L 203.694545 285.408 
L 219.927273 285.408 
L 236.16 285.408 
L 252.392727 285.408 
L 268.625455 285.408 
L 284.858182 285.408 
L 301.090909 285.408 
L 317.323636 285.408 
L 333.556364 285.408 
L 349.789091 285.408 
L 366.021818 285.408 
L 382.254545 285.408 
L 398.487273 285.408 
" style="fill:none;stroke:#d44e4e;stroke-linecap:square;stroke-width:3;"/>
   </g>
   <g id="line2d_75">
    <path clip-path="url(#p104653a151)" d="M 73.832727 285.408 
L 90.065455 285.408 
L 106.298182 285.408 
L 122.530909 285.408 
L 138.763636 285.408 
L 154.996364 285.408 
L 171.229091 285.408 
L 187.461818 285.408 
L 203.694545 285.408 
L 219.927273 285.408 
L 236.16 285.408 
L 252.392727 285.408 
L 268.625455 285.408 
L 284.858182 285.408 
L 301.090909 285.408 
L 317.323636 285.408 
L 333.556364 285.408 
L 349.789091 285.408 
L 366.021818 285.408 
L 382.254545 285.408 
L 398.487273 285.408 
" style="fill:none;stroke:#0e4db3;stroke-linecap:square;stroke-width:3;"/>
   </g>
   <g id="line2d_76">
    <path clip-path="url(#p104653a151)" d="M 73.832727 285.408 
L 90.065455 285.408 
L 106.298182 285.408 
L 122.530909 285.408 
L 138.763636 285.408 
L 154.996364 285.408 
L 171.229091 285.408 
L 187.461818 285.408 
L 203.694545 285.408 
L 219.927273 285.408 
L 236.16 285.408 
L 252.392727 285.408 
L 268.625455 285.408 
L 284.858182 285.408 
L 301.090909 285.408 
L 317.323636 285.408 
L 333.556364 285.408 
L 349.789091 285.408 
L 366.021818 285.408 
L 382.254545 285.408 
L 398.487273 285.408 
" style="fill:none;stroke:#d44e4e;stroke-linecap:square;stroke-width:3;"/>
   </g>
   <g id="line2d_77">
    <path clip-path="url(#p104653a151)" d="M 73.832727 206.113927 
L 90.065455 166.240677 
L 106.298182 225.868328 
L 122.530909 222.954315 
L 138.763636 199.193255 
L 154.996364 195.082631 
L 171.229091 172.018657 
L 187.461818 111.143008 
L 203.694545 70.528375 
L 219.927273 44.109751 
L 236.16 76.664874 
L 252.144172 -1 
M 274.079868 -1 
L 284.858182 34.793427 
L 301.090909 37.668816 
L 317.323636 121.277306 
L 333.556364 160.450012 
L 349.789091 128.031911 
L 366.021818 131.770343 
L 382.254545 143.729593 
L 398.487273 206.113927 
" style="fill:none;stroke:#0e4db3;stroke-linecap:square;stroke-width:3;"/>
   </g>
   <g id="line2d_78">
    <path clip-path="url(#p104653a151)" d="M 73.832727 285.408 
L 90.065455 285.408 
L 106.298182 285.408 
L 122.530909 285.408 
L 138.763636 285.408 
L 154.996364 285.408 
L 171.229091 285.408 
L 187.461818 285.408 
L 203.694545 285.408 
L 219.927273 285.408 
L 236.16 285.408 
L 252.392727 285.408 
L 268.625455 285.408 
L 284.858182 285.408 
L 301.090909 285.408 
L 317.323636 285.408 
L 333.556364 285.408 
L 349.789091 285.408 
L 366.021818 285.408 
L 382.254545 285.408 
L 398.487273 285.408 
" style="fill:none;stroke:#d44e4e;stroke-linecap:square;stroke-width:3;"/>
   </g>
   <g id="line2d_79">
    <path clip-path="url(#p104653a151)" d="M 73.832727 285.408 
L 90.065455 285.408 
L 106.298182 285.408 
L 122.530909 285.408 
L 138.763636 285.408 
L 154.996364 285.408 
L 171.229091 285.408 
L 187.461818 285.408 
L 203.694545 285.408 
L 219.927273 285.408 
L 236.16 285.408 
L 252.392727 285.408 
L 268.625455 285.408 
L 284.858182 285.408 
L 301.090909 285.408 
L 317.323636 285.408 
L 333.556364 285.408 
L 349.789091 285.408 
L 366.021818 285.408 
L 382.254545 285.408 
L 398.487273 285.408 
" style="fill:none;stroke:#0e4db3;stroke-linecap:square;stroke-width:3;"/>
   </g>
   <g id="line2d_80">
    <path clip-path="url(#p104653a151)" d="M 73.832727 285.408 
L 90.065455 285.408 
L 106.298182 285.408 
L 122.530909 285.408 
L 138.763636 285.408 
L 154.996364 285.408 
L 171.229091 285.408 
L 187.461818 285.408 
L 203.694545 285.408 
L 219.927273 285.408 
L 236.16 285.408 
L 252.392727 285.408 
L 268.625455 285.408 
L 284.858182 285.408 
L 301.090909 285.408 
L 317.323636 285.408 
L 333.556364 285.408 
L 349.789091 285.408 
L 366.021818 285.408 
L 382.254545 285.408 
L 398.487273 285.408 
" style="fill:none;stroke:#d44e4e;stroke-linecap:square;stroke-width:3;"/>
   </g>
   <g id="line2d_81">
    <path clip-path="url(#p104653a151)" d="M 73.832727 83.549559 
L 90.065455 53.733924 
L 106.298182 57.378621 
L 122.530909 84.786097 
L 138.763636 118.947176 
L 154.996364 131.676165 
L 171.229091 113.660568 
L 187.461818 139.189466 
L 203.694545 194.07024 
L 219.927273 226.175187 
L 236.16 234.252456 
L 252.392727 188.928643 
L 268.625455 207.771817 
L 284.858182 204.531399 
L 301.090909 123.020009 
L 317.323636 145.267078 
L 333.556364 130.944934 
L 349.789091 147.396011 
L 366.021818 122.766139 
L 382.254545 110.948506 
L 398.487273 83.549559 
" style="fill:none;stroke:#0e4db3;stroke-linecap:square;stroke-width:3;"/>
   </g>
   <g id="line2d_82">
    <path clip-path="url(#p104653a151)" d="M 73.832727 285.408 
L 90.065455 252.599566 
L 106.298182 230.885978 
L 122.530909 252.991419 
L 138.763636 285.408 
L 154.996364 285.408 
L 171.229091 247.442931 
L 187.461818 277.372417 
L 203.694545 285.408 
L 219.927273 285.408 
L 236.16 285.408 
L 252.392727 285.408 
L 268.625455 285.408 
L 284.858182 285.408 
L 301.090909 283.473752 
L 317.323636 285.408 
L 333.556364 285.408 
L 349.789091 241.761616 
L 366.021818 223.550264 
L 382.254545 243.630282 
L 398.487273 285.408 
" style="fill:none;stroke:#d44e4e;stroke-linecap:square;stroke-width:3;"/>
   </g>
   <g id="line2d_83">
    <path clip-path="url(#p104653a151)" d="M 73.832727 127.460503 
L 90.065455 136.731131 
L 106.298182 136.380973 
L 122.530909 131.872099 
L 138.763636 146.385216 
L 154.996364 194.430491 
L 171.229091 215.719986 
L 187.461818 230.805686 
L 203.694545 185.430467 
L 219.927273 83.078502 
L 236.16 37.688714 
L 252.392727 19.663897 
L 268.625455 44.514877 
L 284.858182 71.644899 
L 301.090909 63.160651 
L 317.323636 55.163153 
L 333.556364 83.073358 
L 349.789091 75.745444 
L 366.021818 113.337314 
L 382.254545 122.092961 
L 398.487273 127.460503 
" style="fill:none;stroke:#0e4db3;stroke-linecap:square;stroke-width:3;"/>
   </g>
   <g id="line2d_84">
    <path clip-path="url(#p104653a151)" d="M 73.832727 162.165135 
L 90.065455 166.489586 
L 106.298182 162.698986 
L 122.530909 166.777836 
L 138.763636 168.131379 
L 154.996364 214.099927 
L 171.229091 237.940951 
L 187.461818 234.853965 
L 203.694545 202.738871 
L 219.927273 136.8952 
L 236.16 99.879152 
L 252.392727 85.4683 
L 268.625455 97.732182 
L 284.858182 121.38306 
L 301.090909 110.428419 
L 317.323636 100.550884 
L 333.556364 121.802185 
L 349.789091 117.228043 
L 366.021818 141.086537 
L 382.254545 121.190772 
L 398.487273 162.165135 
" style="fill:none;stroke:#d44e4e;stroke-linecap:square;stroke-width:3;"/>
   </g>
   <g id="line2d_85">
    <path clip-path="url(#p104653a151)" d="M 73.832727 285.408 
L 90.065455 285.408 
L 106.298182 285.408 
L 122.530909 285.408 
L 138.763636 285.408 
L 154.996364 285.408 
L 171.229091 285.408 
L 187.461818 285.408 
L 203.694545 285.408 
L 219.927273 285.408 
L 236.16 285.408 
L 252.392727 285.408 
L 268.625455 285.408 
L 284.858182 285.408 
L 301.090909 285.408 
L 317.323636 285.408 
L 333.556364 285.408 
L 349.789091 285.408 
L 366.021818 285.408 
L 382.254545 285.408 
L 398.487273 285.408 
" style="fill:none;stroke:#0e4db3;stroke-linecap:square;stroke-width:3;"/>
   </g>
   <g id="line2d_86">
    <path clip-path="url(#p104653a151)" d="M 73.832727 285.408 
L 90.065455 285.408 
L 106.298182 285.408 
L 122.530909 285.408 
L 138.763636 285.408 
L 154.996364 285.408 
L 171.229091 285.408 
L 187.461818 285.408 
L 203.694545 285.408 
L 219.927273 285.408 
L 236.16 285.408 
L 252.392727 285.408 
L 268.625455 285.408 
L 284.858182 285.408 
L 301.090909 285.408 
L 317.323636 285.408 
L 333.556364 285.408 
L 349.789091 285.408 
L 366.021818 285.408 
L 382.254545 285.408 
L 398.487273 285.408 
" style="fill:none;stroke:#d44e4e;stroke-linecap:square;stroke-width:3;"/>
   </g>
   <g id="line2d_87">
    <path clip-path="url(#p104653a151)" d="M 73.832727 285.408 
L 90.065455 285.408 
L 106.298182 285.408 
L 122.530909 285.408 
L 138.763636 285.408 
L 154.996364 285.408 
L 171.229091 285.408 
L 187.461818 285.408 
L 203.694545 285.408 
L 219.927273 285.408 
L 236.16 285.408 
L 252.392727 285.408 
L 268.625455 285.408 
L 284.858182 285.408 
L 301.090909 285.408 
L 317.323636 285.408 
L 333.556364 285.408 
L 349.789091 285.408 
L 366.021818 285.408 
L 382.254545 285.408 
L 398.487273 285.408 
" style="fill:none;stroke:#0e4db3;stroke-linecap:square;stroke-width:3;"/>
   </g>
   <g id="line2d_88">
    <path clip-path="url(#p104653a151)" d="M 73.832727 285.408 
L 90.065455 285.408 
L 106.298182 285.408 
L 122.530909 285.408 
L 138.763636 285.408 
L 154.996364 285.408 
L 171.229091 285.408 
L 187.461818 285.408 
L 203.694545 285.408 
L 219.927273 285.408 
L 236.16 285.408 
L 252.392727 285.408 
L 268.625455 285.408 
L 284.858182 285.408 
L 301.090909 285.408 
L 317.323636 285.408 
L 333.556364 285.408 
L 349.789091 285.408 
L 366.021818 285.408 
L 382.254545 285.408 
L 398.487273 285.408 
" style="fill:none;stroke:#d44e4e;stroke-linecap:square;stroke-width:3;"/>
   </g>
   <g id="line2d_89">
    <path clip-path="url(#p104653a151)" d="M 73.832727 285.408 
L 90.065455 285.408 
L 106.298182 285.408 
L 122.530909 262.790851 
L 138.763636 243.163303 
L 154.996364 237.5398 
L 171.229091 255.358138 
L 187.461818 224.454217 
L 203.694545 163.889399 
L 219.927273 133.171874 
L 236.16 271.791795 
L 252.392727 55.409328 
L 266.029966 -1 
M 284.250968 -1 
L 284.858182 -0.582794 
L 301.090909 3.907158 
L 317.323636 88.374434 
L 333.556364 170.270041 
L 349.789091 258.662981 
L 366.021818 285.408 
L 382.254545 285.408 
L 398.487273 285.408 
" style="fill:none;stroke:#0e4db3;stroke-linecap:square;stroke-width:3;"/>
   </g>
   <g id="line2d_90">
    <path clip-path="url(#p104653a151)" d="M 73.832727 285.408 
L 90.065455 285.408 
L 106.298182 285.408 
L 122.530909 285.408 
L 138.763636 285.408 
L 154.996364 285.408 
L 171.229091 285.408 
L 187.461818 285.408 
L 203.694545 270.364623 
L 219.927273 258.243456 
L 236.16 285.408 
L 252.392727 206.354301 
L 268.625455 192.01875 
L 284.858182 164.713975 
L 301.090909 177.245453 
L 317.323636 218.663813 
L 333.556364 248.103956 
L 349.789091 285.408 
L 366.021818 285.408 
L 382.254545 285.408 
L 398.487273 285.408 
" style="fill:none;stroke:#d44e4e;stroke-linecap:square;stroke-width:3;"/>
   </g>
   <g id="line2d_91">
    <path clip-path="url(#p104653a151)" d="M 73.832727 56.945523 
L 90.065455 4.761816 
L 93.887808 -1 
M 171.531167 -1 
L 187.461818 100.663241 
L 203.694545 112.718609 
L 219.927273 131.369033 
L 236.16 109.805768 
L 252.392727 91.384877 
L 268.625455 102.462852 
L 284.858182 69.551985 
L 301.090909 103.650478 
L 317.323636 120.121597 
L 333.556364 167.488518 
L 349.789091 151.230444 
L 366.021818 133.588824 
L 382.254545 95.580446 
L 398.487273 56.945523 
" style="fill:none;stroke:#0e4db3;stroke-linecap:square;stroke-width:3;"/>
   </g>
   <g id="line2d_92">
    <path clip-path="url(#p104653a151)" d="M 73.832727 285.408 
L 90.065455 245.470738 
L 106.298182 251.976518 
L 122.530909 204.907614 
L 138.763636 267.407431 
L 154.996364 282.517439 
L 171.229091 282.563628 
L 187.461818 285.408 
L 203.694545 285.408 
L 219.927273 285.408 
L 236.16 285.408 
L 252.392727 285.408 
L 268.625455 285.408 
L 284.858182 285.408 
L 301.090909 285.408 
L 317.323636 285.408 
L 333.556364 285.408 
L 349.789091 285.408 
L 366.021818 285.408 
L 382.254545 285.408 
L 398.487273 285.408 
" style="fill:none;stroke:#d44e4e;stroke-linecap:square;stroke-width:3;"/>
   </g>
   <g id="line2d_93">
    <path clip-path="url(#p104653a151)" d="M 73.832727 285.408 
L 90.065455 285.408 
L 106.298182 285.408 
L 122.530909 285.408 
L 138.763636 285.408 
L 154.996364 285.408 
L 171.229091 285.408 
L 187.461818 285.408 
L 203.694545 285.408 
L 219.927273 285.408 
L 236.16 285.408 
L 252.392727 285.408 
L 268.625455 285.408 
L 284.858182 285.408 
L 301.090909 285.408 
L 317.323636 285.408 
L 333.556364 285.408 
L 349.789091 285.408 
L 366.021818 285.408 
L 382.254545 285.408 
L 398.487273 285.408 
" style="fill:none;stroke:#0e4db3;stroke-linecap:square;stroke-width:3;"/>
   </g>
   <g id="line2d_94">
    <path clip-path="url(#p104653a151)" d="M 73.832727 285.408 
L 90.065455 285.408 
L 106.298182 285.408 
L 122.530909 285.408 
L 138.763636 285.408 
L 154.996364 285.408 
L 171.229091 285.408 
L 187.461818 285.408 
L 203.694545 285.408 
L 219.927273 285.408 
L 236.16 285.408 
L 252.392727 285.408 
L 268.625455 285.408 
L 284.858182 285.408 
L 301.090909 285.408 
L 317.323636 285.408 
L 333.556364 285.408 
L 349.789091 285.408 
L 366.021818 285.408 
L 382.254545 285.408 
L 398.487273 285.408 
" style="fill:none;stroke:#d44e4e;stroke-linecap:square;stroke-width:3;"/>
   </g>
   <g id="line2d_95">
    <path clip-path="url(#p104653a151)" d="M 91.916322 -1 
L 106.298182 54.715184 
L 122.530909 136.528894 
L 138.763636 194.271716 
L 154.996364 241.653944 
L 171.229091 189.694136 
L 187.461818 128.321346 
L 203.694545 67.738218 
L 216.590797 -1 
M 269.294942 -1 
L 284.858182 49.977026 
L 299.456382 -1 
M 303.864464 -1 
L 317.323636 26.698027 
L 326.373188 -1 
" style="fill:none;stroke:#0e4db3;stroke-linecap:square;stroke-width:3;"/>
   </g>
   <g id="line2d_96">
    <path clip-path="url(#p104653a151)" d="M 73.832727 173.022785 
L 90.065455 165.608741 
L 106.298182 209.775912 
L 122.530909 285.408 
L 138.763636 285.408 
L 154.996364 285.408 
L 171.229091 285.408 
L 187.461818 285.408 
L 203.694545 285.408 
L 219.927273 254.430301 
L 236.16 238.662969 
L 252.392727 185.91327 
L 268.625455 208.695987 
L 284.858182 227.381291 
L 301.090909 153.858161 
L 317.323636 148.128949 
L 333.556364 161.604093 
L 349.789091 119.229058 
L 366.021818 89.38967 
L 382.254545 87.442892 
L 398.487273 173.022785 
" style="fill:none;stroke:#d44e4e;stroke-linecap:square;stroke-width:3;"/>
   </g>
   <g id="line2d_97">
    <path clip-path="url(#p104653a151)" d="M 73.832727 285.408 
L 90.065455 285.408 
L 106.298182 285.408 
L 122.530909 285.408 
L 138.763636 285.408 
L 154.996364 285.408 
L 171.229091 285.408 
L 187.461818 285.408 
L 203.694545 285.408 
L 219.927273 285.408 
L 236.16 285.408 
L 252.392727 285.408 
L 268.625455 285.408 
L 284.858182 285.408 
L 301.090909 285.408 
L 317.323636 285.408 
L 333.556364 285.408 
L 349.789091 285.408 
L 366.021818 285.408 
L 382.254545 285.408 
L 398.487273 285.408 
" style="fill:none;stroke:#0e4db3;stroke-linecap:square;stroke-width:3;"/>
   </g>
   <g id="line2d_98">
    <path clip-path="url(#p104653a151)" d="M 73.832727 285.408 
L 90.065455 285.408 
L 106.298182 285.408 
L 122.530909 285.408 
L 138.763636 285.408 
L 154.996364 285.408 
L 171.229091 285.408 
L 187.461818 285.408 
L 203.694545 285.408 
L 219.927273 285.408 
L 236.16 285.408 
L 252.392727 285.408 
L 268.625455 285.408 
L 284.858182 285.408 
L 301.090909 285.408 
L 317.323636 285.408 
L 333.556364 285.408 
L 349.789091 285.408 
L 366.021818 285.408 
L 382.254545 285.408 
L 398.487273 285.408 
" style="fill:none;stroke:#d44e4e;stroke-linecap:square;stroke-width:3;"/>
   </g>
   <g id="line2d_99">
    <path clip-path="url(#p104653a151)" d="M 73.832727 89.193371 
L 90.065455 58.764174 
L 106.298182 41.373025 
L 122.530909 38.966702 
L 138.763636 19.78451 
L 154.996364 24.907714 
L 171.229091 35.856546 
L 187.461818 68.801728 
L 203.694545 83.837106 
L 219.927273 109.298639 
L 236.16 118.141678 
L 252.392727 127.066589 
L 268.625455 141.002607 
L 284.858182 149.769831 
L 301.090909 134.159177 
L 317.323636 124.365232 
L 333.556364 92.259966 
L 349.789091 111.8209 
L 366.021818 86.32241 
L 382.254545 86.811373 
L 398.487273 89.193371 
" style="fill:none;stroke:#0e4db3;stroke-linecap:square;stroke-width:3;"/>
   </g>
   <g id="line2d_100">
    <path clip-path="url(#p104653a151)" d="M 73.832727 166.722009 
L 90.065455 151.707427 
L 106.298182 150.280685 
L 122.530909 134.279113 
L 138.763636 135.046338 
L 154.996364 148.085298 
L 171.229091 134.858686 
L 187.461818 146.563505 
L 203.694545 166.866661 
L 219.927273 165.288534 
L 236.16 168.747662 
L 252.392727 168.983237 
L 268.625455 166.569595 
L 284.858182 180.890626 
L 301.090909 191.046944 
L 317.323636 179.237392 
L 333.556364 172.014268 
L 349.789091 132.512409 
L 366.021818 114.3351 
L 382.254545 135.780682 
L 398.487273 166.722009 
" style="fill:none;stroke:#d44e4e;stroke-linecap:square;stroke-width:3;"/>
   </g>
   <g id="line2d_101">
    <path clip-path="url(#p104653a151)" d="M 73.832727 285.408 
L 90.065455 285.408 
L 106.298182 285.408 
L 122.530909 285.408 
L 138.763636 285.408 
L 154.996364 285.408 
L 171.229091 285.408 
L 187.461818 285.408 
L 203.694545 285.408 
L 219.927273 285.408 
L 236.16 285.408 
L 252.392727 285.408 
L 268.625455 285.408 
L 284.858182 285.408 
L 301.090909 285.408 
L 317.323636 285.408 
L 333.556364 285.408 
L 349.789091 285.408 
L 366.021818 285.408 
L 382.254545 285.408 
L 398.487273 285.408 
" style="fill:none;stroke:#0e4db3;stroke-linecap:square;stroke-width:3;"/>
   </g>
   <g id="line2d_102">
    <path clip-path="url(#p104653a151)" d="M 73.832727 285.408 
L 90.065455 285.408 
L 106.298182 285.408 
L 122.530909 285.408 
L 138.763636 285.408 
L 154.996364 285.408 
L 171.229091 285.408 
L 187.461818 285.408 
L 203.694545 285.408 
L 219.927273 285.408 
L 236.16 285.408 
L 252.392727 285.408 
L 268.625455 285.408 
L 284.858182 285.408 
L 301.090909 285.408 
L 317.323636 285.408 
L 333.556364 285.408 
L 349.789091 285.408 
L 366.021818 285.408 
L 382.254545 285.408 
L 398.487273 285.408 
" style="fill:none;stroke:#d44e4e;stroke-linecap:square;stroke-width:3;"/>
   </g>
   <g id="line2d_103">
    <path clip-path="url(#p104653a151)" d="M 73.832727 105.783918 
L 90.065455 74.326944 
L 106.298182 69.113105 
L 122.530909 124.24734 
L 138.763636 140.371192 
L 154.996364 146.321771 
L 171.229091 115.157397 
L 187.461818 113.09153 
L 203.694545 127.48953 
L 219.927273 156.361409 
L 236.16 131.002883 
L 252.392727 118.534576 
L 268.625455 61.564996 
L 284.858182 62.371939 
L 301.090909 36.113009 
L 317.323636 39.581539 
L 333.556364 47.936423 
L 349.789091 89.127907 
L 366.021818 88.420546 
L 382.254545 98.547173 
L 398.487273 105.783918 
" style="fill:none;stroke:#0e4db3;stroke-linecap:square;stroke-width:3;"/>
   </g>
   <g id="line2d_104">
    <path clip-path="url(#p104653a151)" d="M 73.832727 200.747141 
L 90.065455 168.222927 
L 106.298182 155.951908 
L 122.530909 193.557446 
L 138.763636 216.105962 
L 154.996364 210.712473 
L 171.229091 182.819237 
L 187.461818 171.93396 
L 203.694545 172.937775 
L 219.927273 196.892894 
L 236.16 192.878408 
L 252.392727 193.294993 
L 268.625455 165.335922 
L 284.858182 164.284653 
L 301.090909 152.468831 
L 317.323636 154.200987 
L 333.556364 162.346966 
L 349.789091 154.249613 
L 366.021818 132.952343 
L 382.254545 167.590092 
L 398.487273 200.747141 
" style="fill:none;stroke:#d44e4e;stroke-linecap:square;stroke-width:3;"/>
   </g>
   <g id="line2d_105">
    <path clip-path="url(#p104653a151)" d="M 73.832727 164.708114 
L 90.065455 148.276114 
L 106.298182 84.437658 
L 122.530909 80.115877 
L 138.763636 63.648 
L 154.996364 94.287456 
L 171.229091 178.512281 
L 187.461818 207.49502 
L 203.694545 226.551077 
L 219.927273 218.889608 
L 236.16 170.549839 
L 252.392727 200.684796 
L 268.625455 155.249117 
L 284.858182 121.77153 
L 301.090909 96.381698 
L 317.323636 132.762659 
L 333.556364 157.458504 
L 349.789091 205.282574 
L 366.021818 182.303428 
L 382.254545 184.585452 
L 398.487273 164.708114 
" style="fill:none;stroke:#0e4db3;stroke-linecap:square;stroke-width:3;"/>
   </g>
   <g id="line2d_106">
    <path clip-path="url(#p104653a151)" d="M 73.832727 285.408 
L 90.065455 234.005591 
L 106.298182 221.132253 
L 122.530909 205.008128 
L 138.763636 235.52909 
L 154.996364 266.37809 
L 171.229091 285.408 
L 187.461818 285.408 
L 203.694545 285.408 
L 219.927273 285.408 
L 236.16 285.408 
L 252.392727 285.408 
L 268.625455 285.408 
L 284.858182 270.172608 
L 301.090909 238.247207 
L 317.323636 267.019585 
L 333.556364 280.160383 
L 349.789091 226.329853 
L 366.021818 285.408 
L 382.254545 234.32643 
L 398.487273 285.408 
" style="fill:none;stroke:#d44e4e;stroke-linecap:square;stroke-width:3;"/>
   </g>
   <g id="patch_3">
    <path d="M 57.6 307.584 
L 57.6 41.472 
" style="fill:none;stroke:#000000;stroke-linecap:square;stroke-linejoin:miter;stroke-width:2.5;"/>
   </g>
   <g id="patch_4">
    <path d="M 414.72 307.584 
L 414.72 41.472 
" style="fill:none;stroke:#000000;stroke-linecap:square;stroke-linejoin:miter;stroke-width:2.5;"/>
   </g>
   <g id="patch_5">
    <path d="M 57.6 307.584 
L 414.72 307.584 
" style="fill:none;stroke:#000000;stroke-linecap:square;stroke-linejoin:miter;stroke-width:2.5;"/>
   </g>
   <g id="patch_6">
    <path d="M 57.6 41.472 
L 414.72 41.472 
" style="fill:none;stroke:#000000;stroke-linecap:square;stroke-linejoin:miter;stroke-width:2.5;"/>
   </g>
  </g>
 </g>
 <defs>
  <clipPath id="p104653a151">
   <rect height="266.112" width="357.12" x="57.6" y="41.472"/>
  </clipPath>
 </defs>
</svg>
