<?xml version="1.0" encoding="utf-8" standalone="no"?>
<!DOCTYPE svg PUBLIC "-//W3C//DTD SVG 1.1//EN"
  "http://www.w3.org/Graphics/SVG/1.1/DTD/svg11.dtd">
<!-- Created with matplotlib (https://matplotlib.org/) -->
<svg height="345.6pt" version="1.1" viewBox="0 0 460.8 345.6" width="460.8pt" xmlns="http://www.w3.org/2000/svg" xmlns:xlink="http://www.w3.org/1999/xlink">
 <defs>
  <style type="text/css">
*{stroke-linecap:butt;stroke-linejoin:round;}
  </style>
 </defs>
 <g id="figure_1">
  <g id="patch_1">
   <path d="M 0 345.6 
L 460.8 345.6 
L 460.8 0 
L 0 0 
z
" style="fill:#ffffff;"/>
  </g>
  <g id="axes_1">
   <g id="patch_2">
    <path d="M 57.6 307.584 
L 414.72 307.584 
L 414.72 41.472 
L 57.6 41.472 
z
" style="fill:#ffffff;"/>
   </g>
   <g id="matplotlib.axis_1">
    <g id="xtick_1">
     <g id="line2d_1">
      <defs>
       <path d="M 0 0 
L 0 12 
" id="mbe8a504d41" style="stroke:#000000;stroke-width:2.5;"/>
      </defs>
      <g>
       <use style="stroke:#000000;stroke-width:2.5;" x="73.832727" xlink:href="#mbe8a504d41" y="307.584"/>
      </g>
     </g>
     <g id="text_1">
      <!-- 0 -->
      <defs>
       <path d="M 31.78125 66.40625 
Q 24.171875 66.40625 20.328125 58.90625 
Q 16.5 51.421875 16.5 36.375 
Q 16.5 21.390625 20.328125 13.890625 
Q 24.171875 6.390625 31.78125 6.390625 
Q 39.453125 6.390625 43.28125 13.890625 
Q 47.125 21.390625 47.125 36.375 
Q 47.125 51.421875 43.28125 58.90625 
Q 39.453125 66.40625 31.78125 66.40625 
z
M 31.78125 74.21875 
Q 44.046875 74.21875 50.515625 64.515625 
Q 56.984375 54.828125 56.984375 36.375 
Q 56.984375 17.96875 50.515625 8.265625 
Q 44.046875 -1.421875 31.78125 -1.421875 
Q 19.53125 -1.421875 13.0625 8.265625 
Q 6.59375 17.96875 6.59375 36.375 
Q 6.59375 54.828125 13.0625 64.515625 
Q 19.53125 74.21875 31.78125 74.21875 
z
" id="DejaVuSans-48"/>
      </defs>
      <g transform="translate(66.833977 339.800562)scale(0.22 -0.22)">
       <use xlink:href="#DejaVuSans-48"/>
      </g>
     </g>
    </g>
    <g id="xtick_2">
     <g id="line2d_2">
      <g>
       <use style="stroke:#000000;stroke-width:2.5;" x="164.014545" xlink:href="#mbe8a504d41" y="307.584"/>
      </g>
     </g>
     <g id="text_2">
      <!-- 50 -->
      <defs>
       <path d="M 10.796875 72.90625 
L 49.515625 72.90625 
L 49.515625 64.59375 
L 19.828125 64.59375 
L 19.828125 46.734375 
Q 21.96875 47.46875 24.109375 47.828125 
Q 26.265625 48.1875 28.421875 48.1875 
Q 40.625 48.1875 47.75 41.5 
Q 54.890625 34.8125 54.890625 23.390625 
Q 54.890625 11.625 47.5625 5.09375 
Q 40.234375 -1.421875 26.90625 -1.421875 
Q 22.3125 -1.421875 17.546875 -0.640625 
Q 12.796875 0.140625 7.71875 1.703125 
L 7.71875 11.625 
Q 12.109375 9.234375 16.796875 8.0625 
Q 21.484375 6.890625 26.703125 6.890625 
Q 35.15625 6.890625 40.078125 11.328125 
Q 45.015625 15.765625 45.015625 23.390625 
Q 45.015625 31 40.078125 35.4375 
Q 35.15625 39.890625 26.703125 39.890625 
Q 22.75 39.890625 18.8125 39.015625 
Q 14.890625 38.140625 10.796875 36.28125 
z
" id="DejaVuSans-53"/>
      </defs>
      <g transform="translate(150.017045 339.800562)scale(0.22 -0.22)">
       <use xlink:href="#DejaVuSans-53"/>
       <use x="63.623047" xlink:href="#DejaVuSans-48"/>
      </g>
     </g>
    </g>
    <g id="xtick_3">
     <g id="line2d_3">
      <g>
       <use style="stroke:#000000;stroke-width:2.5;" x="254.196364" xlink:href="#mbe8a504d41" y="307.584"/>
      </g>
     </g>
     <g id="text_3">
      <!-- 100 -->
      <defs>
       <path d="M 12.40625 8.296875 
L 28.515625 8.296875 
L 28.515625 63.921875 
L 10.984375 60.40625 
L 10.984375 69.390625 
L 28.421875 72.90625 
L 38.28125 72.90625 
L 38.28125 8.296875 
L 54.390625 8.296875 
L 54.390625 0 
L 12.40625 0 
z
" id="DejaVuSans-49"/>
      </defs>
      <g transform="translate(233.200114 339.800562)scale(0.22 -0.22)">
       <use xlink:href="#DejaVuSans-49"/>
       <use x="63.623047" xlink:href="#DejaVuSans-48"/>
       <use x="127.246094" xlink:href="#DejaVuSans-48"/>
      </g>
     </g>
    </g>
    <g id="xtick_4">
     <g id="line2d_4">
      <g>
       <use style="stroke:#000000;stroke-width:2.5;" x="344.378182" xlink:href="#mbe8a504d41" y="307.584"/>
      </g>
     </g>
     <g id="text_4">
      <!-- 150 -->
      <g transform="translate(323.381932 339.800562)scale(0.22 -0.22)">
       <use xlink:href="#DejaVuSans-49"/>
       <use x="63.623047" xlink:href="#DejaVuSans-53"/>
       <use x="127.246094" xlink:href="#DejaVuSans-48"/>
      </g>
     </g>
    </g>
    <g id="text_5">
     <!-- Degrees -->
     <defs>
      <path d="M 19.671875 64.796875 
L 19.671875 8.109375 
L 31.59375 8.109375 
Q 46.6875 8.109375 53.6875 14.9375 
Q 60.6875 21.78125 60.6875 36.53125 
Q 60.6875 51.171875 53.6875 57.984375 
Q 46.6875 64.796875 31.59375 64.796875 
z
M 9.8125 72.90625 
L 30.078125 72.90625 
Q 51.265625 72.90625 61.171875 64.09375 
Q 71.09375 55.28125 71.09375 36.53125 
Q 71.09375 17.671875 61.125 8.828125 
Q 51.171875 0 30.078125 0 
L 9.8125 0 
z
" id="DejaVuSans-68"/>
      <path d="M 56.203125 29.59375 
L 56.203125 25.203125 
L 14.890625 25.203125 
Q 15.484375 15.921875 20.484375 11.0625 
Q 25.484375 6.203125 34.421875 6.203125 
Q 39.59375 6.203125 44.453125 7.46875 
Q 49.3125 8.734375 54.109375 11.28125 
L 54.109375 2.78125 
Q 49.265625 0.734375 44.1875 -0.34375 
Q 39.109375 -1.421875 33.890625 -1.421875 
Q 20.796875 -1.421875 13.15625 6.1875 
Q 5.515625 13.8125 5.515625 26.8125 
Q 5.515625 40.234375 12.765625 48.109375 
Q 20.015625 56 32.328125 56 
Q 43.359375 56 49.78125 48.890625 
Q 56.203125 41.796875 56.203125 29.59375 
z
M 47.21875 32.234375 
Q 47.125 39.59375 43.09375 43.984375 
Q 39.0625 48.390625 32.421875 48.390625 
Q 24.90625 48.390625 20.390625 44.140625 
Q 15.875 39.890625 15.1875 32.171875 
z
" id="DejaVuSans-101"/>
      <path d="M 45.40625 27.984375 
Q 45.40625 37.75 41.375 43.109375 
Q 37.359375 48.484375 30.078125 48.484375 
Q 22.859375 48.484375 18.828125 43.109375 
Q 14.796875 37.75 14.796875 27.984375 
Q 14.796875 18.265625 18.828125 12.890625 
Q 22.859375 7.515625 30.078125 7.515625 
Q 37.359375 7.515625 41.375 12.890625 
Q 45.40625 18.265625 45.40625 27.984375 
z
M 54.390625 6.78125 
Q 54.390625 -7.171875 48.1875 -13.984375 
Q 42 -20.796875 29.203125 -20.796875 
Q 24.46875 -20.796875 20.265625 -20.09375 
Q 16.0625 -19.390625 12.109375 -17.921875 
L 12.109375 -9.1875 
Q 16.0625 -11.328125 19.921875 -12.34375 
Q 23.78125 -13.375 27.78125 -13.375 
Q 36.625 -13.375 41.015625 -8.765625 
Q 45.40625 -4.15625 45.40625 5.171875 
L 45.40625 9.625 
Q 42.625 4.78125 38.28125 2.390625 
Q 33.9375 0 27.875 0 
Q 17.828125 0 11.671875 7.65625 
Q 5.515625 15.328125 5.515625 27.984375 
Q 5.515625 40.671875 11.671875 48.328125 
Q 17.828125 56 27.875 56 
Q 33.9375 56 38.28125 53.609375 
Q 42.625 51.21875 45.40625 46.390625 
L 45.40625 54.6875 
L 54.390625 54.6875 
z
" id="DejaVuSans-103"/>
      <path d="M 41.109375 46.296875 
Q 39.59375 47.171875 37.8125 47.578125 
Q 36.03125 48 33.890625 48 
Q 26.265625 48 22.1875 43.046875 
Q 18.109375 38.09375 18.109375 28.8125 
L 18.109375 0 
L 9.078125 0 
L 9.078125 54.6875 
L 18.109375 54.6875 
L 18.109375 46.1875 
Q 20.953125 51.171875 25.484375 53.578125 
Q 30.03125 56 36.53125 56 
Q 37.453125 56 38.578125 55.875 
Q 39.703125 55.765625 41.0625 55.515625 
z
" id="DejaVuSans-114"/>
      <path d="M 44.28125 53.078125 
L 44.28125 44.578125 
Q 40.484375 46.53125 36.375 47.5 
Q 32.28125 48.484375 27.875 48.484375 
Q 21.1875 48.484375 17.84375 46.4375 
Q 14.5 44.390625 14.5 40.28125 
Q 14.5 37.15625 16.890625 35.375 
Q 19.28125 33.59375 26.515625 31.984375 
L 29.59375 31.296875 
Q 39.15625 29.25 43.1875 25.515625 
Q 47.21875 21.78125 47.21875 15.09375 
Q 47.21875 7.46875 41.1875 3.015625 
Q 35.15625 -1.421875 24.609375 -1.421875 
Q 20.21875 -1.421875 15.453125 -0.5625 
Q 10.6875 0.296875 5.421875 2 
L 5.421875 11.28125 
Q 10.40625 8.6875 15.234375 7.390625 
Q 20.0625 6.109375 24.8125 6.109375 
Q 31.15625 6.109375 34.5625 8.28125 
Q 37.984375 10.453125 37.984375 14.40625 
Q 37.984375 18.0625 35.515625 20.015625 
Q 33.0625 21.96875 24.703125 23.78125 
L 21.578125 24.515625 
Q 13.234375 26.265625 9.515625 29.90625 
Q 5.8125 33.546875 5.8125 39.890625 
Q 5.8125 47.609375 11.28125 51.796875 
Q 16.75 56 26.8125 56 
Q 31.78125 56 36.171875 55.265625 
Q 40.578125 54.546875 44.28125 53.078125 
z
" id="DejaVuSans-115"/>
     </defs>
     <g transform="translate(185.97 366.612125)scale(0.24 -0.24)">
      <use xlink:href="#DejaVuSans-68"/>
      <use x="77.001953" xlink:href="#DejaVuSans-101"/>
      <use x="138.525391" xlink:href="#DejaVuSans-103"/>
      <use x="202.001953" xlink:href="#DejaVuSans-114"/>
      <use x="243.083984" xlink:href="#DejaVuSans-101"/>
      <use x="304.607422" xlink:href="#DejaVuSans-101"/>
      <use x="366.130859" xlink:href="#DejaVuSans-115"/>
     </g>
    </g>
   </g>
   <g id="matplotlib.axis_2">
    <g id="ytick_1">
     <g id="line2d_5">
      <defs>
       <path d="M 0 0 
L -12 0 
" id="m16863150c1" style="stroke:#000000;stroke-width:2.5;"/>
      </defs>
      <g>
       <use style="stroke:#000000;stroke-width:2.5;" x="57.6" xlink:href="#m16863150c1" y="285.408"/>
      </g>
     </g>
     <g id="text_6">
      <!-- 0 -->
      <g transform="translate(28.1025 293.766281)scale(0.22 -0.22)">
       <use xlink:href="#DejaVuSans-48"/>
      </g>
     </g>
    </g>
    <g id="ytick_2">
     <g id="line2d_6">
      <g>
       <use style="stroke:#000000;stroke-width:2.5;" x="57.6" xlink:href="#m16863150c1" y="223.866506"/>
      </g>
     </g>
     <g id="text_7">
      <!-- 1 -->
      <g transform="translate(28.1025 232.224787)scale(0.22 -0.22)">
       <use xlink:href="#DejaVuSans-49"/>
      </g>
     </g>
    </g>
    <g id="ytick_3">
     <g id="line2d_7">
      <g>
       <use style="stroke:#000000;stroke-width:2.5;" x="57.6" xlink:href="#m16863150c1" y="162.325011"/>
      </g>
     </g>
     <g id="text_8">
      <!-- 2 -->
      <defs>
       <path d="M 19.1875 8.296875 
L 53.609375 8.296875 
L 53.609375 0 
L 7.328125 0 
L 7.328125 8.296875 
Q 12.9375 14.109375 22.625 23.890625 
Q 32.328125 33.6875 34.8125 36.53125 
Q 39.546875 41.84375 41.421875 45.53125 
Q 43.3125 49.21875 43.3125 52.78125 
Q 43.3125 58.59375 39.234375 62.25 
Q 35.15625 65.921875 28.609375 65.921875 
Q 23.96875 65.921875 18.8125 64.3125 
Q 13.671875 62.703125 7.8125 59.421875 
L 7.8125 69.390625 
Q 13.765625 71.78125 18.9375 73 
Q 24.125 74.21875 28.421875 74.21875 
Q 39.75 74.21875 46.484375 68.546875 
Q 53.21875 62.890625 53.21875 53.421875 
Q 53.21875 48.921875 51.53125 44.890625 
Q 49.859375 40.875 45.40625 35.40625 
Q 44.1875 33.984375 37.640625 27.21875 
Q 31.109375 20.453125 19.1875 8.296875 
z
" id="DejaVuSans-50"/>
      </defs>
      <g transform="translate(28.1025 170.683292)scale(0.22 -0.22)">
       <use xlink:href="#DejaVuSans-50"/>
      </g>
     </g>
    </g>
    <g id="ytick_4">
     <g id="line2d_8">
      <g>
       <use style="stroke:#000000;stroke-width:2.5;" x="57.6" xlink:href="#m16863150c1" y="100.783517"/>
      </g>
     </g>
     <g id="text_9">
      <!-- 3 -->
      <defs>
       <path d="M 40.578125 39.3125 
Q 47.65625 37.796875 51.625 33 
Q 55.609375 28.21875 55.609375 21.1875 
Q 55.609375 10.40625 48.1875 4.484375 
Q 40.765625 -1.421875 27.09375 -1.421875 
Q 22.515625 -1.421875 17.65625 -0.515625 
Q 12.796875 0.390625 7.625 2.203125 
L 7.625 11.71875 
Q 11.71875 9.328125 16.59375 8.109375 
Q 21.484375 6.890625 26.8125 6.890625 
Q 36.078125 6.890625 40.9375 10.546875 
Q 45.796875 14.203125 45.796875 21.1875 
Q 45.796875 27.640625 41.28125 31.265625 
Q 36.765625 34.90625 28.71875 34.90625 
L 20.21875 34.90625 
L 20.21875 43.015625 
L 29.109375 43.015625 
Q 36.375 43.015625 40.234375 45.921875 
Q 44.09375 48.828125 44.09375 54.296875 
Q 44.09375 59.90625 40.109375 62.90625 
Q 36.140625 65.921875 28.71875 65.921875 
Q 24.65625 65.921875 20.015625 65.03125 
Q 15.375 64.15625 9.8125 62.3125 
L 9.8125 71.09375 
Q 15.4375 72.65625 20.34375 73.4375 
Q 25.25 74.21875 29.59375 74.21875 
Q 40.828125 74.21875 47.359375 69.109375 
Q 53.90625 64.015625 53.90625 55.328125 
Q 53.90625 49.265625 50.4375 45.09375 
Q 46.96875 40.921875 40.578125 39.3125 
z
" id="DejaVuSans-51"/>
      </defs>
      <g transform="translate(28.1025 109.141798)scale(0.22 -0.22)">
       <use xlink:href="#DejaVuSans-51"/>
      </g>
     </g>
    </g>
    <g id="text_10">
     <!-- Activation -->
     <defs>
      <path d="M 34.1875 63.1875 
L 20.796875 26.90625 
L 47.609375 26.90625 
z
M 28.609375 72.90625 
L 39.796875 72.90625 
L 67.578125 0 
L 57.328125 0 
L 50.6875 18.703125 
L 17.828125 18.703125 
L 11.1875 0 
L 0.78125 0 
z
" id="DejaVuSans-65"/>
      <path d="M 48.78125 52.59375 
L 48.78125 44.1875 
Q 44.96875 46.296875 41.140625 47.34375 
Q 37.3125 48.390625 33.40625 48.390625 
Q 24.65625 48.390625 19.8125 42.84375 
Q 14.984375 37.3125 14.984375 27.296875 
Q 14.984375 17.28125 19.8125 11.734375 
Q 24.65625 6.203125 33.40625 6.203125 
Q 37.3125 6.203125 41.140625 7.25 
Q 44.96875 8.296875 48.78125 10.40625 
L 48.78125 2.09375 
Q 45.015625 0.34375 40.984375 -0.53125 
Q 36.96875 -1.421875 32.421875 -1.421875 
Q 20.0625 -1.421875 12.78125 6.34375 
Q 5.515625 14.109375 5.515625 27.296875 
Q 5.515625 40.671875 12.859375 48.328125 
Q 20.21875 56 33.015625 56 
Q 37.15625 56 41.109375 55.140625 
Q 45.0625 54.296875 48.78125 52.59375 
z
" id="DejaVuSans-99"/>
      <path d="M 18.3125 70.21875 
L 18.3125 54.6875 
L 36.8125 54.6875 
L 36.8125 47.703125 
L 18.3125 47.703125 
L 18.3125 18.015625 
Q 18.3125 11.328125 20.140625 9.421875 
Q 21.96875 7.515625 27.59375 7.515625 
L 36.8125 7.515625 
L 36.8125 0 
L 27.59375 0 
Q 17.1875 0 13.234375 3.875 
Q 9.28125 7.765625 9.28125 18.015625 
L 9.28125 47.703125 
L 2.6875 47.703125 
L 2.6875 54.6875 
L 9.28125 54.6875 
L 9.28125 70.21875 
z
" id="DejaVuSans-116"/>
      <path d="M 9.421875 54.6875 
L 18.40625 54.6875 
L 18.40625 0 
L 9.421875 0 
z
M 9.421875 75.984375 
L 18.40625 75.984375 
L 18.40625 64.59375 
L 9.421875 64.59375 
z
" id="DejaVuSans-105"/>
      <path d="M 2.984375 54.6875 
L 12.5 54.6875 
L 29.59375 8.796875 
L 46.6875 54.6875 
L 56.203125 54.6875 
L 35.6875 0 
L 23.484375 0 
z
" id="DejaVuSans-118"/>
      <path d="M 34.28125 27.484375 
Q 23.390625 27.484375 19.1875 25 
Q 14.984375 22.515625 14.984375 16.5 
Q 14.984375 11.71875 18.140625 8.90625 
Q 21.296875 6.109375 26.703125 6.109375 
Q 34.1875 6.109375 38.703125 11.40625 
Q 43.21875 16.703125 43.21875 25.484375 
L 43.21875 27.484375 
z
M 52.203125 31.203125 
L 52.203125 0 
L 43.21875 0 
L 43.21875 8.296875 
Q 40.140625 3.328125 35.546875 0.953125 
Q 30.953125 -1.421875 24.3125 -1.421875 
Q 15.921875 -1.421875 10.953125 3.296875 
Q 6 8.015625 6 15.921875 
Q 6 25.140625 12.171875 29.828125 
Q 18.359375 34.515625 30.609375 34.515625 
L 43.21875 34.515625 
L 43.21875 35.40625 
Q 43.21875 41.609375 39.140625 45 
Q 35.0625 48.390625 27.6875 48.390625 
Q 23 48.390625 18.546875 47.265625 
Q 14.109375 46.140625 10.015625 43.890625 
L 10.015625 52.203125 
Q 14.9375 54.109375 19.578125 55.046875 
Q 24.21875 56 28.609375 56 
Q 40.484375 56 46.34375 49.84375 
Q 52.203125 43.703125 52.203125 31.203125 
z
" id="DejaVuSans-97"/>
      <path d="M 30.609375 48.390625 
Q 23.390625 48.390625 19.1875 42.75 
Q 14.984375 37.109375 14.984375 27.296875 
Q 14.984375 17.484375 19.15625 11.84375 
Q 23.34375 6.203125 30.609375 6.203125 
Q 37.796875 6.203125 41.984375 11.859375 
Q 46.1875 17.53125 46.1875 27.296875 
Q 46.1875 37.015625 41.984375 42.703125 
Q 37.796875 48.390625 30.609375 48.390625 
z
M 30.609375 56 
Q 42.328125 56 49.015625 48.375 
Q 55.71875 40.765625 55.71875 27.296875 
Q 55.71875 13.875 49.015625 6.21875 
Q 42.328125 -1.421875 30.609375 -1.421875 
Q 18.84375 -1.421875 12.171875 6.21875 
Q 5.515625 13.875 5.515625 27.296875 
Q 5.515625 40.765625 12.171875 48.375 
Q 18.84375 56 30.609375 56 
z
" id="DejaVuSans-111"/>
      <path d="M 54.890625 33.015625 
L 54.890625 0 
L 45.90625 0 
L 45.90625 32.71875 
Q 45.90625 40.484375 42.875 44.328125 
Q 39.84375 48.1875 33.796875 48.1875 
Q 26.515625 48.1875 22.3125 43.546875 
Q 18.109375 38.921875 18.109375 30.90625 
L 18.109375 0 
L 9.078125 0 
L 9.078125 54.6875 
L 18.109375 54.6875 
L 18.109375 46.1875 
Q 21.34375 51.125 25.703125 53.5625 
Q 30.078125 56 35.796875 56 
Q 45.21875 56 50.046875 50.171875 
Q 54.890625 44.34375 54.890625 33.015625 
z
" id="DejaVuSans-110"/>
     </defs>
     <g transform="translate(19.11125 234.813)rotate(-90)scale(0.24 -0.24)">
      <use xlink:href="#DejaVuSans-65"/>
      <use x="68.392578" xlink:href="#DejaVuSans-99"/>
      <use x="123.373047" xlink:href="#DejaVuSans-116"/>
      <use x="162.582031" xlink:href="#DejaVuSans-105"/>
      <use x="190.365234" xlink:href="#DejaVuSans-118"/>
      <use x="249.544922" xlink:href="#DejaVuSans-97"/>
      <use x="310.824219" xlink:href="#DejaVuSans-116"/>
      <use x="350.033203" xlink:href="#DejaVuSans-105"/>
      <use x="377.816406" xlink:href="#DejaVuSans-111"/>
      <use x="438.998047" xlink:href="#DejaVuSans-110"/>
     </g>
    </g>
   </g>
   <g id="line2d_9">
    <path clip-path="url(#pfd01d3b1ec)" d="M 73.832727 269.747755 
L 90.065455 243.083682 
L 106.298182 233.83958 
L 122.530909 221.901099 
L 138.763636 207.935691 
L 154.996364 205.963271 
L 171.229091 208.835175 
L 187.461818 187.993841 
L 203.694545 181.066545 
L 219.927273 182.345375 
L 236.16 191.516638 
L 252.392727 191.217213 
L 268.625455 192.644472 
L 284.858182 227.159584 
L 301.090909 221.743338 
L 317.323636 248.561201 
L 333.556364 255.349712 
L 349.789091 262.424129 
L 366.021818 258.485375 
L 382.254545 263.457926 
L 398.487273 269.747755 
" style="fill:none;stroke:#0e4db3;stroke-linecap:square;stroke-width:3;"/>
   </g>
   <g id="line2d_10">
    <path clip-path="url(#pfd01d3b1ec)" d="M 73.832727 272.947484 
L 90.065455 251.110208 
L 106.298182 242.90742 
L 122.530909 234.081616 
L 138.763636 223.299555 
L 154.996364 222.137717 
L 171.229091 223.448974 
L 187.461818 204.965106 
L 203.694545 201.52832 
L 219.927273 200.548115 
L 236.16 205.269358 
L 252.392727 208.287754 
L 268.625455 208.931105 
L 284.858182 238.74261 
L 301.090909 233.368864 
L 317.323636 255.021933 
L 333.556364 260.234071 
L 349.789091 264.959888 
L 366.021818 262.938513 
L 382.254545 266.658677 
L 398.487273 272.947484 
" style="fill:none;stroke:#d44e4e;stroke-linecap:square;stroke-width:3;"/>
   </g>
   <g id="line2d_11">
    <path clip-path="url(#pfd01d3b1ec)" d="M 73.832727 178.951315 
L 90.065455 178.142318 
L 106.298182 185.318308 
L 122.530909 199.111304 
L 138.763636 201.568149 
L 154.996364 204.58006 
L 171.229091 204.38842 
L 187.461818 188.866708 
L 203.694545 183.725013 
L 219.927273 202.062514 
L 236.16 202.050321 
L 252.392727 199.304572 
L 268.625455 184.042786 
L 284.858182 195.074011 
L 301.090909 181.274236 
L 317.323636 186.076399 
L 333.556364 185.538727 
L 349.789091 167.781603 
L 366.021818 172.826187 
L 382.254545 168.052225 
L 398.487273 178.951315 
" style="fill:none;stroke:#0e4db3;stroke-linecap:square;stroke-width:3;"/>
   </g>
   <g id="line2d_12">
    <path clip-path="url(#pfd01d3b1ec)" d="M 73.832727 201.13962 
L 90.065455 191.467052 
L 106.298182 203.446334 
L 122.530909 216.888589 
L 138.763636 218.505917 
L 154.996364 221.194809 
L 171.229091 221.191435 
L 187.461818 209.211829 
L 203.694545 205.571482 
L 219.927273 219.603401 
L 236.16 219.553367 
L 252.392727 216.163232 
L 268.625455 204.978011 
L 284.858182 211.985471 
L 301.090909 203.153997 
L 317.323636 206.798254 
L 333.556364 206.211554 
L 349.789091 192.465701 
L 366.021818 194.99695 
L 382.254545 192.404912 
L 398.487273 201.13962 
" style="fill:none;stroke:#d44e4e;stroke-linecap:square;stroke-width:3;"/>
   </g>
   <g id="line2d_13">
    <path clip-path="url(#pfd01d3b1ec)" d="M 73.832727 177.501864 
L 90.065455 172.289205 
L 106.298182 172.247887 
L 122.530909 172.276499 
L 138.763636 160.86793 
L 154.996364 161.432812 
L 171.229091 160.412506 
L 187.461818 168.05659 
L 203.694545 158.813336 
L 219.927273 162.984495 
L 236.16 169.991625 
L 252.392727 170.113004 
L 268.625455 171.371329 
L 284.858182 178.997197 
L 301.090909 180.395631 
L 317.323636 181.000584 
L 333.556364 180.719141 
L 349.789091 181.605067 
L 366.021818 179.176401 
L 382.254545 177.895737 
L 398.487273 177.501864 
" style="fill:none;stroke:#0e4db3;stroke-linecap:square;stroke-width:3;"/>
   </g>
   <g id="line2d_14">
    <path clip-path="url(#pfd01d3b1ec)" d="M 73.832727 196.387916 
L 90.065455 192.634707 
L 106.298182 192.32017 
L 122.530909 191.97909 
L 138.763636 184.885311 
L 154.996364 184.768385 
L 171.229091 183.082976 
L 187.461818 188.874375 
L 203.694545 180.616007 
L 219.927273 184.586268 
L 236.16 190.294158 
L 252.392727 190.162067 
L 268.625455 191.302579 
L 284.858182 195.369364 
L 301.090909 196.399104 
L 317.323636 197.79186 
L 333.556364 198.498626 
L 349.789091 199.169224 
L 366.021818 197.175455 
L 382.254545 196.395458 
L 398.487273 196.387916 
" style="fill:none;stroke:#d44e4e;stroke-linecap:square;stroke-width:3;"/>
   </g>
   <g id="line2d_15">
    <path clip-path="url(#pfd01d3b1ec)" d="M 73.832727 163.264639 
L 90.065455 163.11938 
L 106.298182 163.598911 
L 122.530909 175.046487 
L 138.763636 176.214722 
L 154.996364 179.135971 
L 171.229091 176.583453 
L 187.461818 173.527003 
L 203.694545 165.465681 
L 219.927273 168.314036 
L 236.16 167.163892 
L 252.392727 162.040905 
L 268.625455 160.240822 
L 284.858182 160.339686 
L 301.090909 154.653702 
L 317.323636 153.772112 
L 333.556364 140.151357 
L 349.789091 152.67093 
L 366.021818 152.005966 
L 382.254545 157.997508 
L 398.487273 163.264639 
" style="fill:none;stroke:#0e4db3;stroke-linecap:square;stroke-width:3;"/>
   </g>
   <g id="line2d_16">
    <path clip-path="url(#pfd01d3b1ec)" d="M 73.832727 188.993297 
L 90.065455 188.988528 
L 106.298182 189.318281 
L 122.530909 197.843229 
L 138.763636 198.400745 
L 154.996364 199.811534 
L 171.229091 198.896915 
L 187.461818 195.015871 
L 203.694545 191.093112 
L 219.927273 192.626843 
L 236.16 192.851437 
L 252.392727 187.268191 
L 268.625455 184.748738 
L 284.858182 184.046535 
L 301.090909 180.882741 
L 317.323636 180.880496 
L 333.556364 171.827956 
L 349.789091 180.154941 
L 366.021818 179.148369 
L 382.254545 184.424781 
L 398.487273 188.993297 
" style="fill:none;stroke:#d44e4e;stroke-linecap:square;stroke-width:3;"/>
   </g>
   <g id="line2d_17">
    <path clip-path="url(#pfd01d3b1ec)" d="M 73.832727 246.219899 
L 90.065455 245.620775 
L 106.298182 246.159437 
L 122.530909 244.856004 
L 138.763636 229.791609 
L 154.996364 227.8391 
L 171.229091 215.6655 
L 187.461818 219.415672 
L 203.694545 200.965544 
L 219.927273 186.467711 
L 236.16 186.696208 
L 252.392727 171.200444 
L 268.625455 157.547219 
L 284.858182 164.839042 
L 301.090909 145.94181 
L 317.323636 156.923221 
L 333.556364 160.037841 
L 349.789091 210.742317 
L 366.021818 215.429006 
L 382.254545 214.911297 
L 398.487273 246.219899 
" style="fill:none;stroke:#0e4db3;stroke-linecap:square;stroke-width:3;"/>
   </g>
   <g id="line2d_18">
    <path clip-path="url(#pfd01d3b1ec)" d="M 73.832727 249.577901 
L 90.065455 248.702377 
L 106.298182 249.174997 
L 122.530909 248.606334 
L 138.763636 236.809197 
L 154.996364 235.33141 
L 171.229091 224.67397 
L 187.461818 227.545603 
L 203.694545 213.069162 
L 219.927273 202.469306 
L 236.16 202.498607 
L 252.392727 189.554877 
L 268.625455 178.744783 
L 284.858182 185.798139 
L 301.090909 170.177182 
L 317.323636 177.904863 
L 333.556364 180.930617 
L 349.789091 220.558795 
L 366.021818 224.473149 
L 382.254545 224.434175 
L 398.487273 249.577901 
" style="fill:none;stroke:#d44e4e;stroke-linecap:square;stroke-width:3;"/>
   </g>
   <g id="line2d_19">
    <path clip-path="url(#pfd01d3b1ec)" d="M 73.832727 285.408 
L 90.065455 285.408 
L 106.298182 285.408 
L 122.530909 285.408 
L 138.763636 285.408 
L 154.996364 285.408 
L 171.229091 285.408 
L 187.461818 285.408 
L 203.694545 285.408 
L 219.927273 285.408 
L 236.16 285.408 
L 252.392727 285.408 
L 268.625455 285.408 
L 284.858182 285.408 
L 301.090909 285.408 
L 317.323636 285.408 
L 333.556364 285.408 
L 349.789091 285.408 
L 366.021818 285.408 
L 382.254545 285.408 
L 398.487273 285.408 
" style="fill:none;stroke:#0e4db3;stroke-linecap:square;stroke-width:3;"/>
   </g>
   <g id="line2d_20">
    <path clip-path="url(#pfd01d3b1ec)" d="M 73.832727 285.408 
L 90.065455 285.408 
L 106.298182 285.408 
L 122.530909 285.408 
L 138.763636 285.408 
L 154.996364 285.408 
L 171.229091 285.408 
L 187.461818 285.408 
L 203.694545 285.408 
L 219.927273 285.408 
L 236.16 285.408 
L 252.392727 285.408 
L 268.625455 285.408 
L 284.858182 285.408 
L 301.090909 285.408 
L 317.323636 285.408 
L 333.556364 285.408 
L 349.789091 285.408 
L 366.021818 285.408 
L 382.254545 285.408 
L 398.487273 285.408 
" style="fill:none;stroke:#d44e4e;stroke-linecap:square;stroke-width:3;"/>
   </g>
   <g id="line2d_21">
    <path clip-path="url(#pfd01d3b1ec)" d="M 73.832727 285.408 
L 90.065455 284.857858 
L 106.298182 285.188848 
L 122.530909 284.987564 
L 138.763636 285.223575 
L 154.996364 285.408 
L 171.229091 285.408 
L 187.461818 285.408 
L 203.694545 285.408 
L 219.927273 285.408 
L 236.16 285.408 
L 252.392727 285.408 
L 268.625455 284.128659 
L 284.858182 285.408 
L 301.090909 285.408 
L 317.323636 285.408 
L 333.556364 285.408 
L 349.789091 285.408 
L 366.021818 285.408 
L 382.254545 285.408 
L 398.487273 285.408 
" style="fill:none;stroke:#0e4db3;stroke-linecap:square;stroke-width:3;"/>
   </g>
   <g id="line2d_22">
    <path clip-path="url(#pfd01d3b1ec)" d="M 73.832727 285.408 
L 90.065455 285.408 
L 106.298182 285.408 
L 122.530909 285.408 
L 138.763636 285.408 
L 154.996364 285.408 
L 171.229091 285.408 
L 187.461818 285.408 
L 203.694545 285.408 
L 219.927273 285.408 
L 236.16 285.408 
L 252.392727 285.408 
L 268.625455 285.408 
L 284.858182 285.408 
L 301.090909 285.408 
L 317.323636 285.408 
L 333.556364 285.408 
L 349.789091 285.408 
L 366.021818 285.408 
L 382.254545 285.408 
L 398.487273 285.408 
" style="fill:none;stroke:#d44e4e;stroke-linecap:square;stroke-width:3;"/>
   </g>
   <g id="line2d_23">
    <path clip-path="url(#pfd01d3b1ec)" d="M 73.832727 253.808374 
L 90.065455 243.840856 
L 106.298182 229.236631 
L 122.530909 227.830091 
L 138.763636 212.738155 
L 154.996364 209.676365 
L 171.229091 199.554608 
L 187.461818 200.821525 
L 203.694545 186.266197 
L 219.927273 187.006666 
L 236.16 221.558742 
L 252.392727 188.758036 
L 268.625455 204.987394 
L 284.858182 225.08889 
L 301.090909 221.153058 
L 317.323636 235.306745 
L 333.556364 237.053111 
L 349.789091 239.922378 
L 366.021818 240.893732 
L 382.254545 250.414938 
L 398.487273 253.808374 
" style="fill:none;stroke:#0e4db3;stroke-linecap:square;stroke-width:3;"/>
   </g>
   <g id="line2d_24">
    <path clip-path="url(#pfd01d3b1ec)" d="M 73.832727 254.413106 
L 90.065455 246.785804 
L 106.298182 234.953464 
L 122.530909 232.61516 
L 138.763636 221.382061 
L 154.996364 219.340181 
L 171.229091 211.030524 
L 187.461818 211.383401 
L 203.694545 200.474539 
L 219.927273 200.523714 
L 236.16 228.386367 
L 252.392727 202.139384 
L 268.625455 214.972181 
L 284.858182 231.877299 
L 301.090909 227.994531 
L 317.323636 239.273628 
L 333.556364 240.513337 
L 349.789091 241.670971 
L 366.021818 242.788685 
L 382.254545 251.095763 
L 398.487273 254.413106 
" style="fill:none;stroke:#d44e4e;stroke-linecap:square;stroke-width:3;"/>
   </g>
   <g id="line2d_25">
    <path clip-path="url(#pfd01d3b1ec)" d="M 73.832727 220.17509 
L 90.065455 215.658516 
L 106.298182 208.863846 
L 122.530909 206.11875 
L 138.763636 209.466341 
L 154.996364 209.649426 
L 171.229091 209.97328 
L 187.461818 217.056612 
L 203.694545 215.954969 
L 219.927273 219.519774 
L 236.16 222.654428 
L 252.392727 218.818752 
L 268.625455 218.00288 
L 284.858182 218.085751 
L 301.090909 218.241208 
L 317.323636 218.856314 
L 333.556364 204.564565 
L 349.789091 212.44986 
L 366.021818 209.986544 
L 382.254545 220.409434 
L 398.487273 220.17509 
" style="fill:none;stroke:#0e4db3;stroke-linecap:square;stroke-width:3;"/>
   </g>
   <g id="line2d_26">
    <path clip-path="url(#pfd01d3b1ec)" d="M 73.832727 234.103405 
L 90.065455 230.503922 
L 106.298182 225.256276 
L 122.530909 222.116867 
L 138.763636 227.019508 
L 154.996364 227.267593 
L 171.229091 227.160747 
L 187.461818 231.511088 
L 203.694545 229.281955 
L 219.927273 234.481761 
L 236.16 232.09018 
L 252.392727 232.480949 
L 268.625455 232.357464 
L 284.858182 233.205187 
L 301.090909 233.577861 
L 317.323636 233.448694 
L 333.556364 222.353434 
L 349.789091 224.773524 
L 366.021818 224.252587 
L 382.254545 234.105159 
L 398.487273 234.103405 
" style="fill:none;stroke:#d44e4e;stroke-linecap:square;stroke-width:3;"/>
   </g>
   <g id="line2d_27">
    <path clip-path="url(#pfd01d3b1ec)" d="M 73.832727 283.037592 
L 90.065455 258.043087 
L 106.298182 236.972089 
L 122.530909 238.316132 
L 138.763636 212.759981 
L 154.996364 210.836435 
L 171.229091 211.208423 
L 187.461818 213.503736 
L 203.694545 207.092991 
L 219.927273 207.081641 
L 236.16 216.223867 
L 252.392727 210.200457 
L 268.625455 218.022659 
L 284.858182 236.796296 
L 301.090909 229.240674 
L 317.323636 256.740641 
L 333.556364 257.176682 
L 349.789091 263.940282 
L 366.021818 277.171321 
L 382.254545 265.036714 
L 398.487273 283.037592 
" style="fill:none;stroke:#0e4db3;stroke-linecap:square;stroke-width:3;"/>
   </g>
   <g id="line2d_28">
    <path clip-path="url(#pfd01d3b1ec)" d="M 73.832727 284.792945 
L 90.065455 265.743921 
L 106.298182 248.762271 
L 122.530909 243.98339 
L 138.763636 230.296737 
L 154.996364 228.628231 
L 171.229091 228.684926 
L 187.461818 228.601849 
L 203.694545 224.178314 
L 219.927273 224.223659 
L 236.16 232.013644 
L 252.392727 226.507712 
L 268.625455 231.401058 
L 284.858182 249.022681 
L 301.090909 241.61903 
L 317.323636 262.684706 
L 333.556364 264.987992 
L 349.789091 271.008756 
L 366.021818 279.989982 
L 382.254545 271.03628 
L 398.487273 284.792945 
" style="fill:none;stroke:#d44e4e;stroke-linecap:square;stroke-width:3;"/>
   </g>
   <g id="line2d_29">
    <path clip-path="url(#pfd01d3b1ec)" d="M 73.832727 187.908189 
L 90.065455 187.320455 
L 106.298182 181.33308 
L 122.530909 190.861827 
L 138.763636 196.560958 
L 154.996364 216.691271 
L 171.229091 220.234947 
L 187.461818 216.98716 
L 203.694545 185.818843 
L 219.927273 164.484126 
L 236.16 166.139185 
L 252.392727 164.094406 
L 268.625455 185.709018 
L 284.858182 198.964042 
L 301.090909 180.920926 
L 317.323636 174.450279 
L 333.556364 172.796233 
L 349.789091 169.753165 
L 366.021818 162.197785 
L 382.254545 169.245096 
L 398.487273 187.908189 
" style="fill:none;stroke:#0e4db3;stroke-linecap:square;stroke-width:3;"/>
   </g>
   <g id="line2d_30">
    <path clip-path="url(#pfd01d3b1ec)" d="M 73.832727 201.811201 
L 90.065455 201.795157 
L 106.298182 196.953847 
L 122.530909 203.238093 
L 138.763636 209.669028 
L 154.996364 225.025651 
L 171.229091 227.695902 
L 187.461818 223.620812 
L 203.694545 198.978913 
L 219.927273 183.527446 
L 236.16 184.657775 
L 252.392727 183.07594 
L 268.625455 199.954863 
L 284.858182 210.646674 
L 301.090909 195.990699 
L 317.323636 191.045976 
L 333.556364 189.937305 
L 349.789091 187.620745 
L 366.021818 180.970388 
L 382.254545 186.968942 
L 398.487273 201.811201 
" style="fill:none;stroke:#d44e4e;stroke-linecap:square;stroke-width:3;"/>
   </g>
   <g id="line2d_31">
    <path clip-path="url(#pfd01d3b1ec)" d="M 73.832727 184.786285 
L 90.065455 184.133522 
L 106.298182 194.654242 
L 122.530909 197.594432 
L 138.763636 218.485287 
L 154.996364 232.803263 
L 171.229091 218.178233 
L 187.461818 199.418226 
L 203.694545 191.673833 
L 219.927273 211.335253 
L 236.16 208.986076 
L 252.392727 209.065778 
L 268.625455 220.292611 
L 284.858182 228.71243 
L 301.090909 215.175691 
L 317.323636 212.702603 
L 333.556364 199.836595 
L 349.789091 199.304161 
L 366.021818 191.903027 
L 382.254545 185.197537 
L 398.487273 184.786285 
" style="fill:none;stroke:#0e4db3;stroke-linecap:square;stroke-width:3;"/>
   </g>
   <g id="line2d_32">
    <path clip-path="url(#pfd01d3b1ec)" d="M 73.832727 200.620612 
L 90.065455 197.859904 
L 106.298182 208.6064 
L 122.530909 204.827902 
L 138.763636 227.399823 
L 154.996364 238.50845 
L 171.229091 226.394762 
L 187.461818 210.84843 
L 203.694545 204.875141 
L 219.927273 221.328888 
L 236.16 219.457811 
L 252.392727 219.10594 
L 268.625455 228.581696 
L 284.858182 234.536013 
L 301.090909 225.059552 
L 317.323636 221.630242 
L 333.556364 212.552377 
L 349.789091 210.333178 
L 366.021818 205.200521 
L 382.254545 197.817515 
L 398.487273 200.620612 
" style="fill:none;stroke:#d44e4e;stroke-linecap:square;stroke-width:3;"/>
   </g>
   <g id="line2d_33">
    <path clip-path="url(#pfd01d3b1ec)" d="M 73.832727 136.82557 
L 90.065455 136.613829 
L 106.298182 133.283052 
L 122.530909 135.290973 
L 138.763636 135.083399 
L 154.996364 135.19048 
L 171.229091 133.174856 
L 187.461818 134.678156 
L 203.694545 127.770925 
L 219.927273 130.857196 
L 236.16 131.455752 
L 252.392727 131.326222 
L 268.625455 133.825192 
L 284.858182 135.73573 
L 301.090909 134.1018 
L 317.323636 134.901151 
L 333.556364 134.334317 
L 349.789091 136.009272 
L 366.021818 133.596724 
L 382.254545 135.097148 
L 398.487273 136.82557 
" style="fill:none;stroke:#0e4db3;stroke-linecap:square;stroke-width:3;"/>
   </g>
   <g id="line2d_34">
    <path clip-path="url(#pfd01d3b1ec)" d="M 73.832727 160.718079 
L 90.065455 159.685961 
L 106.298182 157.531182 
L 122.530909 158.855446 
L 138.763636 158.822359 
L 154.996364 158.882048 
L 171.229091 157.319016 
L 187.461818 158.759517 
L 203.694545 153.098506 
L 219.927273 155.907376 
L 236.16 156.213946 
L 252.392727 156.14877 
L 268.625455 156.172834 
L 284.858182 158.599878 
L 301.090909 157.242601 
L 317.323636 158.303095 
L 333.556364 158.146919 
L 349.789091 159.613904 
L 366.021818 157.687328 
L 382.254545 159.166301 
L 398.487273 160.718079 
" style="fill:none;stroke:#d44e4e;stroke-linecap:square;stroke-width:3;"/>
   </g>
   <g id="line2d_35">
    <path clip-path="url(#pfd01d3b1ec)" d="M 73.832727 213.405694 
L 90.065455 200.270963 
L 106.298182 200.156964 
L 122.530909 208.153096 
L 138.763636 209.257241 
L 154.996364 206.127795 
L 171.229091 205.951731 
L 187.461818 205.502968 
L 203.694545 215.847052 
L 219.927273 215.571844 
L 236.16 217.963763 
L 252.392727 232.935218 
L 268.625455 248.924062 
L 284.858182 254.959258 
L 301.090909 255.124711 
L 317.323636 252.727308 
L 333.556364 250.124258 
L 349.789091 246.084427 
L 366.021818 229.491187 
L 382.254545 213.51846 
L 398.487273 213.405694 
" style="fill:none;stroke:#0e4db3;stroke-linecap:square;stroke-width:3;"/>
   </g>
   <g id="line2d_36">
    <path clip-path="url(#pfd01d3b1ec)" d="M 73.832727 223.564147 
L 90.065455 213.034484 
L 106.298182 213.447291 
L 122.530909 216.249265 
L 138.763636 220.448376 
L 154.996364 217.716676 
L 171.229091 217.394685 
L 187.461818 216.719942 
L 203.694545 225.021499 
L 219.927273 225.03886 
L 236.16 227.222225 
L 252.392727 239.058769 
L 268.625455 251.889318 
L 284.858182 256.332729 
L 301.090909 256.399528 
L 317.323636 254.339395 
L 333.556364 252.507608 
L 349.789091 249.064395 
L 366.021818 235.527733 
L 382.254545 222.459906 
L 398.487273 223.564147 
" style="fill:none;stroke:#d44e4e;stroke-linecap:square;stroke-width:3;"/>
   </g>
   <g id="line2d_37">
    <path clip-path="url(#pfd01d3b1ec)" d="M 73.832727 93.518097 
L 90.065455 93.491657 
L 106.298182 93.127277 
L 122.530909 97.382077 
L 138.763636 96.086732 
L 154.996364 96.778327 
L 171.229091 97.058428 
L 187.461818 98.402412 
L 203.694545 93.807383 
L 219.927273 96.689235 
L 236.16 96.857383 
L 252.392727 96.087393 
L 268.625455 96.367112 
L 284.858182 101.458106 
L 301.090909 97.417702 
L 317.323636 97.192154 
L 333.556364 96.062303 
L 349.789091 96.173859 
L 366.021818 93.229295 
L 382.254545 93.488106 
L 398.487273 93.518097 
" style="fill:none;stroke:#0e4db3;stroke-linecap:square;stroke-width:3;"/>
   </g>
   <g id="line2d_38">
    <path clip-path="url(#pfd01d3b1ec)" d="M 73.832727 129.403534 
L 90.065455 129.398971 
L 106.298182 129.009368 
L 122.530909 132.027016 
L 138.763636 130.517319 
L 154.996364 131.86503 
L 171.229091 131.476528 
L 187.461818 133.451641 
L 203.694545 129.217441 
L 219.927273 132.116783 
L 236.16 132.424439 
L 252.392727 131.428373 
L 268.625455 129.804405 
L 284.858182 132.493694 
L 301.090909 131.091577 
L 317.323636 131.096888 
L 333.556364 130.630211 
L 349.789091 131.154992 
L 366.021818 128.626559 
L 382.254545 129.176152 
L 398.487273 129.403534 
" style="fill:none;stroke:#d44e4e;stroke-linecap:square;stroke-width:3;"/>
   </g>
   <g id="line2d_39">
    <path clip-path="url(#pfd01d3b1ec)" d="M 73.832727 285.408 
L 90.065455 285.408 
L 106.298182 285.408 
L 122.530909 285.408 
L 138.763636 285.408 
L 154.996364 285.408 
L 171.229091 285.408 
L 187.461818 285.408 
L 203.694545 285.408 
L 219.927273 285.408 
L 236.16 285.408 
L 252.392727 285.408 
L 268.625455 282.619162 
L 284.858182 284.610077 
L 301.090909 285.408 
L 317.323636 285.408 
L 333.556364 285.408 
L 349.789091 285.408 
L 366.021818 285.408 
L 382.254545 285.408 
L 398.487273 285.408 
" style="fill:none;stroke:#0e4db3;stroke-linecap:square;stroke-width:3;"/>
   </g>
   <g id="line2d_40">
    <path clip-path="url(#pfd01d3b1ec)" d="M 73.832727 285.408 
L 90.065455 285.408 
L 106.298182 285.408 
L 122.530909 285.408 
L 138.763636 285.408 
L 154.996364 285.408 
L 171.229091 285.408 
L 187.461818 285.408 
L 203.694545 285.408 
L 219.927273 285.408 
L 236.16 285.408 
L 252.392727 285.408 
L 268.625455 285.408 
L 284.858182 285.408 
L 301.090909 285.408 
L 317.323636 285.408 
L 333.556364 285.408 
L 349.789091 285.408 
L 366.021818 285.408 
L 382.254545 285.408 
L 398.487273 285.408 
" style="fill:none;stroke:#d44e4e;stroke-linecap:square;stroke-width:3;"/>
   </g>
   <g id="line2d_41">
    <path clip-path="url(#pfd01d3b1ec)" d="M 73.832727 210.511003 
L 90.065455 155.60198 
L 106.298182 168.738361 
L 122.530909 183.594764 
L 138.763636 186.426018 
L 154.996364 225.864684 
L 171.229091 238.936109 
L 187.461818 238.635599 
L 203.694545 198.4031 
L 219.927273 161.532865 
L 236.16 163.598097 
L 252.392727 160.269052 
L 268.625455 181.108009 
L 284.858182 204.174523 
L 301.090909 182.290514 
L 317.323636 172.453267 
L 333.556364 170.219813 
L 349.789091 178.504072 
L 366.021818 148.622149 
L 382.254545 175.113269 
L 398.487273 210.511003 
" style="fill:none;stroke:#0e4db3;stroke-linecap:square;stroke-width:3;"/>
   </g>
   <g id="line2d_42">
    <path clip-path="url(#pfd01d3b1ec)" d="M 73.832727 226.404244 
L 90.065455 181.947431 
L 106.298182 190.08263 
L 122.530909 203.92654 
L 138.763636 207.704568 
L 154.996364 239.538406 
L 171.229091 250.013755 
L 187.461818 245.809087 
L 203.694545 214.218631 
L 219.927273 187.346653 
L 236.16 188.885387 
L 252.392727 186.211636 
L 268.625455 202.372092 
L 284.858182 221.027262 
L 301.090909 203.272537 
L 317.323636 195.480663 
L 333.556364 193.940051 
L 349.789091 198.68119 
L 366.021818 176.020456 
L 382.254545 197.216473 
L 398.487273 226.404244 
" style="fill:none;stroke:#d44e4e;stroke-linecap:square;stroke-width:3;"/>
   </g>
   <g id="line2d_43">
    <path clip-path="url(#pfd01d3b1ec)" d="M 73.832727 253.216153 
L 90.065455 227.602276 
L 106.298182 236.311674 
L 122.530909 235.613645 
L 138.763636 241.61501 
L 154.996364 244.518805 
L 171.229091 251.644703 
L 187.461818 258.763022 
L 203.694545 255.628294 
L 219.927273 242.44182 
L 236.16 243.488691 
L 252.392727 243.129218 
L 268.625455 247.606463 
L 284.858182 235.838107 
L 301.090909 245.298546 
L 317.323636 258.788523 
L 333.556364 258.901256 
L 349.789091 251.975563 
L 366.021818 247.195175 
L 382.254545 246.530269 
L 398.487273 253.216153 
" style="fill:none;stroke:#0e4db3;stroke-linecap:square;stroke-width:3;"/>
   </g>
   <g id="line2d_44">
    <path clip-path="url(#pfd01d3b1ec)" d="M 73.832727 261.393635 
L 90.065455 236.705106 
L 106.298182 243.874126 
L 122.530909 246.363933 
L 138.763636 251.836379 
L 154.996364 254.511765 
L 171.229091 259.250586 
L 187.461818 265.438675 
L 203.694545 262.237319 
L 219.927273 252.533153 
L 236.16 253.306188 
L 252.392727 253.024983 
L 268.625455 256.277455 
L 284.858182 246.87709 
L 301.090909 254.81207 
L 317.323636 264.833841 
L 333.556364 265.196274 
L 349.789091 259.715107 
L 366.021818 255.628932 
L 382.254545 255.368812 
L 398.487273 261.393635 
" style="fill:none;stroke:#d44e4e;stroke-linecap:square;stroke-width:3;"/>
   </g>
   <g id="line2d_45">
    <path clip-path="url(#pfd01d3b1ec)" d="M 73.832727 249.100207 
L 90.065455 231.757097 
L 106.298182 209.370976 
L 122.530909 201.240311 
L 138.763636 189.736121 
L 154.996364 185.181529 
L 171.229091 197.069211 
L 187.461818 213.186764 
L 203.694545 216.254988 
L 219.927273 196.256449 
L 236.16 196.135972 
L 252.392727 205.64409 
L 268.625455 201.095331 
L 284.858182 216.679849 
L 301.090909 223.067881 
L 317.323636 262.632267 
L 333.556364 260.676933 
L 349.789091 262.37607 
L 366.021818 244.684389 
L 382.254545 249.286135 
L 398.487273 249.100207 
" style="fill:none;stroke:#0e4db3;stroke-linecap:square;stroke-width:3;"/>
   </g>
   <g id="line2d_46">
    <path clip-path="url(#pfd01d3b1ec)" d="M 73.832727 256.020798 
L 90.065455 242.478553 
L 106.298182 213.666713 
L 122.530909 215.629537 
L 138.763636 209.813231 
L 154.996364 206.017904 
L 171.229091 215.212115 
L 187.461818 225.422682 
L 203.694545 229.465455 
L 219.927273 214.217546 
L 236.16 214.211985 
L 252.392727 221.206239 
L 268.625455 217.396827 
L 284.858182 229.07663 
L 301.090909 233.478777 
L 317.323636 267.835028 
L 333.556364 265.705807 
L 349.789091 265.222052 
L 366.021818 249.911861 
L 382.254545 254.956661 
L 398.487273 256.020798 
" style="fill:none;stroke:#d44e4e;stroke-linecap:square;stroke-width:3;"/>
   </g>
   <g id="line2d_47">
    <path clip-path="url(#pfd01d3b1ec)" d="M 73.832727 213.922083 
L 90.065455 213.37863 
L 106.298182 213.168115 
L 122.530909 220.124022 
L 138.763636 213.31848 
L 154.996364 229.352978 
L 171.229091 230.887817 
L 187.461818 231.203696 
L 203.694545 230.128779 
L 219.927273 229.521919 
L 236.16 229.030532 
L 252.392727 221.06357 
L 268.625455 216.953611 
L 284.858182 223.423641 
L 301.090909 212.949808 
L 317.323636 213.204268 
L 333.556364 213.252482 
L 349.789091 214.943027 
L 366.021818 208.133471 
L 382.254545 213.463108 
L 398.487273 213.922083 
" style="fill:none;stroke:#0e4db3;stroke-linecap:square;stroke-width:3;"/>
   </g>
   <g id="line2d_48">
    <path clip-path="url(#pfd01d3b1ec)" d="M 73.832727 224.56931 
L 90.065455 220.472563 
L 106.298182 220.217568 
L 122.530909 222.769139 
L 138.763636 224.476447 
L 154.996364 236.890194 
L 171.229091 237.804974 
L 187.461818 238.050755 
L 203.694545 237.925132 
L 219.927273 237.513407 
L 236.16 237.570278 
L 252.392727 229.580727 
L 268.625455 226.883295 
L 284.858182 231.596197 
L 301.090909 223.676502 
L 317.323636 223.698629 
L 333.556364 223.707616 
L 349.789091 225.489842 
L 366.021818 219.254742 
L 382.254545 223.860086 
L 398.487273 224.56931 
" style="fill:none;stroke:#d44e4e;stroke-linecap:square;stroke-width:3;"/>
   </g>
   <g id="line2d_49">
    <path clip-path="url(#pfd01d3b1ec)" d="M 73.832727 285.408 
L 90.065455 285.408 
L 106.298182 285.408 
L 122.530909 285.408 
L 138.763636 285.408 
L 154.996364 285.408 
L 171.229091 285.408 
L 187.461818 285.408 
L 203.694545 285.408 
L 219.927273 285.408 
L 236.16 285.408 
L 252.392727 285.408 
L 268.625455 285.408 
L 284.858182 285.408 
L 301.090909 285.408 
L 317.323636 285.408 
L 333.556364 285.408 
L 349.789091 285.408 
L 366.021818 285.408 
L 382.254545 285.408 
L 398.487273 285.408 
" style="fill:none;stroke:#0e4db3;stroke-linecap:square;stroke-width:3;"/>
   </g>
   <g id="line2d_50">
    <path clip-path="url(#pfd01d3b1ec)" d="M 73.832727 285.408 
L 90.065455 285.408 
L 106.298182 285.408 
L 122.530909 285.408 
L 138.763636 285.408 
L 154.996364 285.408 
L 171.229091 285.408 
L 187.461818 285.408 
L 203.694545 285.408 
L 219.927273 285.408 
L 236.16 285.408 
L 252.392727 285.408 
L 268.625455 285.408 
L 284.858182 285.408 
L 301.090909 285.408 
L 317.323636 285.408 
L 333.556364 285.408 
L 349.789091 285.408 
L 366.021818 285.408 
L 382.254545 285.408 
L 398.487273 285.408 
" style="fill:none;stroke:#d44e4e;stroke-linecap:square;stroke-width:3;"/>
   </g>
   <g id="line2d_51">
    <path clip-path="url(#pfd01d3b1ec)" d="M 73.832727 190.402449 
L 90.065455 103.595219 
L 106.298182 105.974739 
L 122.530909 99.036372 
L 138.763636 66.10282 
L 154.996364 91.226701 
L 171.229091 147.807465 
L 187.461818 233.204472 
L 203.694545 192.702708 
L 219.927273 157.10302 
L 236.16 151.938238 
L 252.392727 115.229592 
L 268.625455 85.912888 
L 284.858182 68.552211 
L 301.090909 97.709379 
L 317.323636 156.173919 
L 333.556364 251.732045 
L 349.789091 285.408 
L 366.021818 256.768598 
L 382.254545 185.350448 
L 398.487273 190.402449 
" style="fill:none;stroke:#0e4db3;stroke-linecap:square;stroke-width:3;"/>
   </g>
   <g id="line2d_52">
    <path clip-path="url(#pfd01d3b1ec)" d="M 73.832727 285.408 
L 90.065455 213.558906 
L 106.298182 220.121242 
L 122.530909 197.410416 
L 138.763636 252.437704 
L 154.996364 278.709141 
L 171.229091 285.408 
L 187.461818 285.408 
L 203.694545 285.408 
L 219.927273 285.408 
L 236.16 283.32163 
L 252.392727 253.022074 
L 268.625455 234.349854 
L 284.858182 238.130937 
L 301.090909 255.819576 
L 317.323636 285.408 
L 333.556364 285.408 
L 349.789091 285.408 
L 366.021818 285.408 
L 382.254545 285.408 
L 398.487273 285.408 
" style="fill:none;stroke:#d44e4e;stroke-linecap:square;stroke-width:3;"/>
   </g>
   <g id="line2d_53">
    <path clip-path="url(#pfd01d3b1ec)" d="M 73.832727 285.408 
L 90.065455 285.408 
L 106.298182 285.408 
L 122.530909 285.408 
L 138.763636 285.408 
L 154.996364 285.408 
L 171.229091 285.408 
L 187.461818 285.408 
L 203.694545 285.408 
L 219.927273 285.408 
L 236.16 285.408 
L 252.392727 285.408 
L 268.625455 285.408 
L 284.858182 285.408 
L 301.090909 285.408 
L 317.323636 285.408 
L 333.556364 285.408 
L 349.789091 285.408 
L 366.021818 285.408 
L 382.254545 285.408 
L 398.487273 285.408 
" style="fill:none;stroke:#0e4db3;stroke-linecap:square;stroke-width:3;"/>
   </g>
   <g id="line2d_54">
    <path clip-path="url(#pfd01d3b1ec)" d="M 73.832727 285.408 
L 90.065455 285.408 
L 106.298182 285.408 
L 122.530909 285.408 
L 138.763636 285.408 
L 154.996364 285.408 
L 171.229091 285.408 
L 187.461818 285.408 
L 203.694545 285.408 
L 219.927273 285.408 
L 236.16 285.408 
L 252.392727 285.408 
L 268.625455 285.408 
L 284.858182 285.408 
L 301.090909 285.408 
L 317.323636 285.408 
L 333.556364 285.408 
L 349.789091 285.408 
L 366.021818 285.408 
L 382.254545 285.408 
L 398.487273 285.408 
" style="fill:none;stroke:#d44e4e;stroke-linecap:square;stroke-width:3;"/>
   </g>
   <g id="line2d_55">
    <path clip-path="url(#pfd01d3b1ec)" d="M 73.832727 285.408 
L 90.065455 285.408 
L 106.298182 285.408 
L 122.530909 285.408 
L 138.763636 285.408 
L 154.996364 285.408 
L 171.229091 285.408 
L 187.461818 285.408 
L 203.694545 285.408 
L 219.927273 285.408 
L 236.16 285.408 
L 252.392727 285.408 
L 268.625455 285.408 
L 284.858182 285.408 
L 301.090909 285.408 
L 317.323636 285.408 
L 333.556364 285.408 
L 349.789091 285.408 
L 366.021818 285.408 
L 382.254545 285.408 
L 398.487273 285.408 
" style="fill:none;stroke:#0e4db3;stroke-linecap:square;stroke-width:3;"/>
   </g>
   <g id="line2d_56">
    <path clip-path="url(#pfd01d3b1ec)" d="M 73.832727 285.408 
L 90.065455 285.408 
L 106.298182 285.408 
L 122.530909 285.408 
L 138.763636 285.408 
L 154.996364 285.408 
L 171.229091 285.408 
L 187.461818 285.408 
L 203.694545 285.408 
L 219.927273 285.408 
L 236.16 285.408 
L 252.392727 285.408 
L 268.625455 285.408 
L 284.858182 285.408 
L 301.090909 285.408 
L 317.323636 285.408 
L 333.556364 285.408 
L 349.789091 285.408 
L 366.021818 285.408 
L 382.254545 285.408 
L 398.487273 285.408 
" style="fill:none;stroke:#d44e4e;stroke-linecap:square;stroke-width:3;"/>
   </g>
   <g id="line2d_57">
    <path clip-path="url(#pfd01d3b1ec)" d="M 79.966241 -1 
L 90.065455 61.315623 
L 106.298182 157.804959 
L 122.530909 171.946878 
L 138.763636 166.456987 
L 154.996364 169.899656 
L 171.229091 163.443631 
L 187.461818 180.248046 
L 203.694545 196.329747 
L 219.927273 135.541758 
L 236.16 120.213549 
L 252.392727 102.098434 
L 268.625455 146.135181 
L 284.858182 99.181441 
L 301.090909 31.562365 
L 307.323586 -1 
" style="fill:none;stroke:#0e4db3;stroke-linecap:square;stroke-width:3;"/>
   </g>
   <g id="line2d_58">
    <path clip-path="url(#pfd01d3b1ec)" d="M 73.832727 285.408 
L 90.065455 285.408 
L 106.298182 285.408 
L 122.530909 285.408 
L 138.763636 285.408 
L 154.996364 285.408 
L 171.229091 285.408 
L 187.461818 285.408 
L 203.694545 285.408 
L 219.927273 285.408 
L 236.16 285.408 
L 252.392727 285.408 
L 268.625455 285.408 
L 284.858182 285.408 
L 301.090909 285.408 
L 317.323636 196.685059 
L 333.556364 239.473293 
L 349.789091 199.858948 
L 366.021818 192.08956 
L 382.254545 228.707844 
L 398.487273 285.408 
" style="fill:none;stroke:#d44e4e;stroke-linecap:square;stroke-width:3;"/>
   </g>
   <g id="line2d_59">
    <path clip-path="url(#pfd01d3b1ec)" d="M 73.832727 285.408 
L 90.065455 285.408 
L 106.298182 285.408 
L 122.530909 285.408 
L 138.763636 285.408 
L 154.996364 285.408 
L 171.229091 285.408 
L 187.461818 285.408 
L 203.694545 285.408 
L 219.927273 285.408 
L 236.16 285.408 
L 252.392727 285.408 
L 268.625455 285.408 
L 284.858182 285.408 
L 301.090909 285.408 
L 317.323636 285.408 
L 333.556364 285.408 
L 349.789091 285.408 
L 366.021818 285.408 
L 382.254545 285.408 
L 398.487273 285.408 
" style="fill:none;stroke:#0e4db3;stroke-linecap:square;stroke-width:3;"/>
   </g>
   <g id="line2d_60">
    <path clip-path="url(#pfd01d3b1ec)" d="M 73.832727 285.408 
L 90.065455 285.408 
L 106.298182 285.408 
L 122.530909 285.408 
L 138.763636 285.408 
L 154.996364 285.408 
L 171.229091 285.408 
L 187.461818 285.408 
L 203.694545 285.408 
L 219.927273 285.408 
L 236.16 285.408 
L 252.392727 285.408 
L 268.625455 285.408 
L 284.858182 285.408 
L 301.090909 285.408 
L 317.323636 285.408 
L 333.556364 285.408 
L 349.789091 285.408 
L 366.021818 285.408 
L 382.254545 285.408 
L 398.487273 285.408 
" style="fill:none;stroke:#d44e4e;stroke-linecap:square;stroke-width:3;"/>
   </g>
   <g id="line2d_61">
    <path clip-path="url(#pfd01d3b1ec)" d="M 73.832727 285.408 
L 90.065455 285.408 
L 106.298182 285.408 
L 122.530909 285.408 
L 138.763636 285.408 
L 154.996364 285.408 
L 171.229091 285.408 
L 187.461818 285.408 
L 203.694545 285.408 
L 219.927273 285.408 
L 236.16 285.408 
L 252.392727 285.408 
L 268.625455 285.408 
L 284.858182 285.408 
L 301.090909 285.408 
L 317.323636 285.408 
L 333.556364 285.408 
L 349.789091 285.408 
L 366.021818 285.408 
L 382.254545 285.408 
L 398.487273 285.408 
" style="fill:none;stroke:#0e4db3;stroke-linecap:square;stroke-width:3;"/>
   </g>
   <g id="line2d_62">
    <path clip-path="url(#pfd01d3b1ec)" d="M 73.832727 285.408 
L 90.065455 285.408 
L 106.298182 285.408 
L 122.530909 285.408 
L 138.763636 285.408 
L 154.996364 285.408 
L 171.229091 285.408 
L 187.461818 285.408 
L 203.694545 285.408 
L 219.927273 285.408 
L 236.16 285.408 
L 252.392727 285.408 
L 268.625455 285.408 
L 284.858182 285.408 
L 301.090909 285.408 
L 317.323636 285.408 
L 333.556364 285.408 
L 349.789091 285.408 
L 366.021818 285.408 
L 382.254545 285.408 
L 398.487273 285.408 
" style="fill:none;stroke:#d44e4e;stroke-linecap:square;stroke-width:3;"/>
   </g>
   <g id="line2d_63">
    <path clip-path="url(#pfd01d3b1ec)" d="M 73.832727 244.53098 
L 90.065455 244.670913 
L 106.298182 252.724521 
L 122.530909 263.593041 
L 138.763636 263.476888 
L 154.996364 265.329371 
L 171.229091 252.04754 
L 187.461818 220.489907 
L 203.694545 154.608672 
L 219.927273 107.845603 
L 236.16 166.297436 
L 252.392727 80.531083 
L 268.625455 91.396727 
L 284.858182 95.267046 
L 301.090909 96.099278 
L 317.323636 123.776373 
L 333.556364 141.193569 
L 349.789091 172.276315 
L 366.021818 188.511132 
L 382.254545 216.340001 
L 398.487273 244.53098 
" style="fill:none;stroke:#0e4db3;stroke-linecap:square;stroke-width:3;"/>
   </g>
   <g id="line2d_64">
    <path clip-path="url(#pfd01d3b1ec)" d="M 73.832727 283.418538 
L 90.065455 270.707154 
L 106.298182 282.414582 
L 122.530909 276.036539 
L 138.763636 275.410367 
L 154.996364 276.298166 
L 171.229091 283.545767 
L 187.461818 283.973706 
L 203.694545 283.739734 
L 219.927273 227.141566 
L 236.16 282.677647 
L 252.392727 202.987007 
L 268.625455 219.007097 
L 284.858182 237.375737 
L 301.090909 246.815979 
L 317.323636 235.58744 
L 333.556364 251.049162 
L 349.789091 239.909022 
L 366.021818 251.692469 
L 382.254545 258.907153 
L 398.487273 283.418538 
" style="fill:none;stroke:#d44e4e;stroke-linecap:square;stroke-width:3;"/>
   </g>
   <g id="line2d_65">
    <path clip-path="url(#pfd01d3b1ec)" d="M 73.832727 285.408 
L 90.065455 285.408 
L 106.298182 285.408 
L 122.530909 285.408 
L 138.763636 285.408 
L 154.996364 285.408 
L 171.229091 285.408 
L 187.461818 285.408 
L 203.694545 285.408 
L 219.927273 285.408 
L 236.16 285.408 
L 252.392727 285.408 
L 268.625455 285.408 
L 284.858182 285.408 
L 301.090909 285.408 
L 317.323636 285.408 
L 333.556364 285.408 
L 349.789091 285.408 
L 366.021818 285.408 
L 382.254545 285.408 
L 398.487273 285.408 
" style="fill:none;stroke:#0e4db3;stroke-linecap:square;stroke-width:3;"/>
   </g>
   <g id="line2d_66">
    <path clip-path="url(#pfd01d3b1ec)" d="M 73.832727 285.408 
L 90.065455 285.408 
L 106.298182 285.408 
L 122.530909 285.408 
L 138.763636 285.408 
L 154.996364 285.408 
L 171.229091 285.408 
L 187.461818 285.408 
L 203.694545 285.408 
L 219.927273 285.408 
L 236.16 285.408 
L 252.392727 285.408 
L 268.625455 285.408 
L 284.858182 285.408 
L 301.090909 285.408 
L 317.323636 285.408 
L 333.556364 285.408 
L 349.789091 285.408 
L 366.021818 285.408 
L 382.254545 285.408 
L 398.487273 285.408 
" style="fill:none;stroke:#d44e4e;stroke-linecap:square;stroke-width:3;"/>
   </g>
   <g id="line2d_67">
    <path clip-path="url(#pfd01d3b1ec)" d="M 73.832727 285.408 
L 90.065455 285.408 
L 106.298182 285.408 
L 122.530909 285.408 
L 138.763636 285.408 
L 154.996364 285.408 
L 171.229091 285.408 
L 187.461818 285.408 
L 203.694545 285.408 
L 219.927273 285.408 
L 236.16 285.408 
L 252.392727 285.408 
L 268.625455 285.408 
L 284.858182 285.408 
L 301.090909 285.408 
L 317.323636 285.408 
L 333.556364 285.408 
L 349.789091 285.408 
L 366.021818 285.408 
L 382.254545 285.408 
L 398.487273 285.408 
" style="fill:none;stroke:#0e4db3;stroke-linecap:square;stroke-width:3;"/>
   </g>
   <g id="line2d_68">
    <path clip-path="url(#pfd01d3b1ec)" d="M 73.832727 285.408 
L 90.065455 285.408 
L 106.298182 285.408 
L 122.530909 285.408 
L 138.763636 285.408 
L 154.996364 285.408 
L 171.229091 285.408 
L 187.461818 285.408 
L 203.694545 285.408 
L 219.927273 285.408 
L 236.16 285.408 
L 252.392727 285.408 
L 268.625455 285.408 
L 284.858182 285.408 
L 301.090909 285.408 
L 317.323636 285.408 
L 333.556364 285.408 
L 349.789091 285.408 
L 366.021818 285.408 
L 382.254545 285.408 
L 398.487273 285.408 
" style="fill:none;stroke:#d44e4e;stroke-linecap:square;stroke-width:3;"/>
   </g>
   <g id="line2d_69">
    <path clip-path="url(#pfd01d3b1ec)" d="M 73.832727 285.408 
L 90.065455 285.408 
L 106.298182 285.408 
L 122.530909 285.408 
L 138.763636 285.408 
L 154.996364 285.408 
L 171.229091 285.408 
L 187.461818 285.408 
L 203.694545 285.408 
L 219.927273 285.408 
L 236.16 285.408 
L 252.392727 285.408 
L 268.625455 285.408 
L 284.858182 285.408 
L 301.090909 285.408 
L 317.323636 285.408 
L 333.556364 285.408 
L 349.789091 285.408 
L 366.021818 285.408 
L 382.254545 285.408 
L 398.487273 285.408 
" style="fill:none;stroke:#0e4db3;stroke-linecap:square;stroke-width:3;"/>
   </g>
   <g id="line2d_70">
    <path clip-path="url(#pfd01d3b1ec)" d="M 73.832727 285.408 
L 90.065455 285.408 
L 106.298182 285.408 
L 122.530909 285.408 
L 138.763636 285.408 
L 154.996364 285.408 
L 171.229091 285.408 
L 187.461818 285.408 
L 203.694545 285.408 
L 219.927273 285.408 
L 236.16 285.408 
L 252.392727 285.408 
L 268.625455 285.408 
L 284.858182 285.408 
L 301.090909 285.408 
L 317.323636 285.408 
L 333.556364 285.408 
L 349.789091 285.408 
L 366.021818 285.408 
L 382.254545 285.408 
L 398.487273 285.408 
" style="fill:none;stroke:#d44e4e;stroke-linecap:square;stroke-width:3;"/>
   </g>
   <g id="line2d_71">
    <path clip-path="url(#pfd01d3b1ec)" d="M 73.832727 285.408 
L 90.065455 285.408 
L 106.298182 285.408 
L 122.530909 285.408 
L 138.763636 285.408 
L 154.996364 285.408 
L 171.229091 285.408 
L 187.461818 285.408 
L 203.694545 285.408 
L 219.927273 285.408 
L 236.16 285.408 
L 252.392727 285.408 
L 268.625455 285.408 
L 284.858182 285.408 
L 301.090909 285.408 
L 317.323636 285.408 
L 333.556364 285.408 
L 349.789091 285.408 
L 366.021818 285.408 
L 382.254545 285.408 
L 398.487273 285.408 
" style="fill:none;stroke:#0e4db3;stroke-linecap:square;stroke-width:3;"/>
   </g>
   <g id="line2d_72">
    <path clip-path="url(#pfd01d3b1ec)" d="M 73.832727 285.408 
L 90.065455 285.408 
L 106.298182 285.408 
L 122.530909 285.408 
L 138.763636 285.408 
L 154.996364 285.408 
L 171.229091 285.408 
L 187.461818 285.408 
L 203.694545 285.408 
L 219.927273 285.408 
L 236.16 285.408 
L 252.392727 285.408 
L 268.625455 285.408 
L 284.858182 285.408 
L 301.090909 285.408 
L 317.323636 285.408 
L 333.556364 285.408 
L 349.789091 285.408 
L 366.021818 285.408 
L 382.254545 285.408 
L 398.487273 285.408 
" style="fill:none;stroke:#d44e4e;stroke-linecap:square;stroke-width:3;"/>
   </g>
   <g id="line2d_73">
    <path clip-path="url(#pfd01d3b1ec)" d="M 73.832727 167.517994 
L 90.065455 131.871765 
L 106.298182 69.673523 
L 122.530909 79.313225 
L 138.763636 23.130852 
L 154.996364 27.133429 
L 171.229091 66.327854 
L 187.461818 147.315022 
L 203.694545 109.271446 
L 219.927273 108.619848 
L 236.16 152.446908 
L 252.392727 126.20038 
L 268.625455 137.05684 
L 284.858182 172.281355 
L 301.090909 175.30339 
L 317.323636 215.596458 
L 333.556364 199.090696 
L 349.789091 186.304881 
L 366.021818 160.895984 
L 382.254545 160.736463 
L 398.487273 167.517994 
" style="fill:none;stroke:#0e4db3;stroke-linecap:square;stroke-width:3;"/>
   </g>
   <g id="line2d_74">
    <path clip-path="url(#pfd01d3b1ec)" d="M 73.832727 285.408 
L 90.065455 285.408 
L 106.298182 285.408 
L 122.530909 285.408 
L 138.763636 285.408 
L 154.996364 285.408 
L 171.229091 285.408 
L 187.461818 285.408 
L 203.694545 285.408 
L 219.927273 285.408 
L 236.16 285.408 
L 252.392727 285.408 
L 268.625455 285.408 
L 284.858182 285.408 
L 301.090909 285.408 
L 317.323636 285.408 
L 333.556364 285.408 
L 349.789091 285.408 
L 366.021818 285.408 
L 382.254545 285.408 
L 398.487273 285.408 
" style="fill:none;stroke:#d44e4e;stroke-linecap:square;stroke-width:3;"/>
   </g>
   <g id="line2d_75">
    <path clip-path="url(#pfd01d3b1ec)" d="M 73.832727 285.408 
L 90.065455 285.408 
L 106.298182 285.408 
L 122.530909 285.408 
L 138.763636 285.408 
L 154.996364 285.408 
L 171.229091 285.408 
L 187.461818 285.408 
L 203.694545 285.408 
L 219.927273 285.408 
L 236.16 285.408 
L 252.392727 285.408 
L 268.625455 285.408 
L 284.858182 285.408 
L 301.090909 285.408 
L 317.323636 285.408 
L 333.556364 285.408 
L 349.789091 285.408 
L 366.021818 285.408 
L 382.254545 285.408 
L 398.487273 285.408 
" style="fill:none;stroke:#0e4db3;stroke-linecap:square;stroke-width:3;"/>
   </g>
   <g id="line2d_76">
    <path clip-path="url(#pfd01d3b1ec)" d="M 73.832727 285.408 
L 90.065455 285.408 
L 106.298182 285.408 
L 122.530909 285.408 
L 138.763636 285.408 
L 154.996364 285.408 
L 171.229091 285.408 
L 187.461818 285.408 
L 203.694545 285.408 
L 219.927273 285.408 
L 236.16 285.408 
L 252.392727 285.408 
L 268.625455 285.408 
L 284.858182 285.408 
L 301.090909 285.408 
L 317.323636 285.408 
L 333.556364 285.408 
L 349.789091 285.408 
L 366.021818 285.408 
L 382.254545 285.408 
L 398.487273 285.408 
" style="fill:none;stroke:#d44e4e;stroke-linecap:square;stroke-width:3;"/>
   </g>
   <g id="line2d_77">
    <path clip-path="url(#pfd01d3b1ec)" d="M 73.832727 285.408 
L 90.065455 285.408 
L 106.298182 285.408 
L 122.530909 285.408 
L 138.763636 285.408 
L 154.996364 285.408 
L 171.229091 285.408 
L 187.461818 285.408 
L 203.694545 285.408 
L 219.927273 285.408 
L 236.16 285.408 
L 252.392727 285.408 
L 268.625455 285.408 
L 284.858182 285.408 
L 301.090909 285.408 
L 317.323636 285.408 
L 333.556364 285.408 
L 349.789091 285.408 
L 366.021818 285.408 
L 382.254545 285.408 
L 398.487273 285.408 
" style="fill:none;stroke:#0e4db3;stroke-linecap:square;stroke-width:3;"/>
   </g>
   <g id="line2d_78">
    <path clip-path="url(#pfd01d3b1ec)" d="M 73.832727 285.408 
L 90.065455 285.408 
L 106.298182 285.408 
L 122.530909 285.408 
L 138.763636 285.408 
L 154.996364 285.408 
L 171.229091 285.408 
L 187.461818 285.408 
L 203.694545 285.408 
L 219.927273 285.408 
L 236.16 285.408 
L 252.392727 285.408 
L 268.625455 285.408 
L 284.858182 285.408 
L 301.090909 285.408 
L 317.323636 285.408 
L 333.556364 285.408 
L 349.789091 285.408 
L 366.021818 285.408 
L 382.254545 285.408 
L 398.487273 285.408 
" style="fill:none;stroke:#d44e4e;stroke-linecap:square;stroke-width:3;"/>
   </g>
   <g id="line2d_79">
    <path clip-path="url(#pfd01d3b1ec)" d="M 73.832727 285.408 
L 90.065455 285.408 
L 106.298182 285.408 
L 122.530909 285.408 
L 138.763636 285.408 
L 154.996364 285.408 
L 171.229091 285.408 
L 187.461818 285.408 
L 203.694545 285.408 
L 219.927273 285.408 
L 236.16 285.408 
L 252.392727 285.408 
L 268.625455 285.408 
L 284.858182 285.408 
L 301.090909 285.408 
L 317.323636 285.408 
L 333.556364 285.408 
L 349.789091 285.408 
L 366.021818 285.408 
L 382.254545 285.408 
L 398.487273 285.408 
" style="fill:none;stroke:#0e4db3;stroke-linecap:square;stroke-width:3;"/>
   </g>
   <g id="line2d_80">
    <path clip-path="url(#pfd01d3b1ec)" d="M 73.832727 285.408 
L 90.065455 285.408 
L 106.298182 285.408 
L 122.530909 285.408 
L 138.763636 285.408 
L 154.996364 285.408 
L 171.229091 285.408 
L 187.461818 285.408 
L 203.694545 285.408 
L 219.927273 285.408 
L 236.16 285.408 
L 252.392727 285.408 
L 268.625455 285.408 
L 284.858182 285.408 
L 301.090909 285.408 
L 317.323636 285.408 
L 333.556364 285.408 
L 349.789091 285.408 
L 366.021818 285.408 
L 382.254545 285.408 
L 398.487273 285.408 
" style="fill:none;stroke:#d44e4e;stroke-linecap:square;stroke-width:3;"/>
   </g>
   <g id="line2d_81">
    <path clip-path="url(#pfd01d3b1ec)" d="M 73.832727 196.065258 
L 90.065455 151.139004 
L 106.298182 218.323066 
L 122.530909 215.039771 
L 138.763636 188.267551 
L 154.996364 183.636002 
L 171.229091 157.649209 
L 187.461818 89.058995 
L 203.694545 43.297406 
L 219.927273 13.53084 
L 236.16 50.211563 
L 245.514379 -1 
M 283.780097 -1 
L 284.858182 3.033889 
L 301.090909 6.273666 
L 317.323636 100.477577 
L 333.556364 144.614509 
L 349.789091 108.088171 
L 366.021818 112.300362 
L 382.254545 125.775167 
L 398.487273 196.065258 
" style="fill:none;stroke:#0e4db3;stroke-linecap:square;stroke-width:3;"/>
   </g>
   <g id="line2d_82">
    <path clip-path="url(#pfd01d3b1ec)" d="M 73.832727 285.408 
L 90.065455 285.408 
L 106.298182 285.408 
L 122.530909 285.408 
L 138.763636 285.408 
L 154.996364 285.408 
L 171.229091 285.408 
L 187.461818 285.408 
L 203.694545 285.408 
L 219.927273 285.408 
L 236.16 285.408 
L 252.392727 285.408 
L 268.625455 285.408 
L 284.858182 285.408 
L 301.090909 285.408 
L 317.323636 285.408 
L 333.556364 285.408 
L 349.789091 285.408 
L 366.021818 285.408 
L 382.254545 285.408 
L 398.487273 285.408 
" style="fill:none;stroke:#d44e4e;stroke-linecap:square;stroke-width:3;"/>
   </g>
   <g id="line2d_83">
    <path clip-path="url(#pfd01d3b1ec)" d="M 73.832727 285.408 
L 90.065455 285.408 
L 106.298182 285.408 
L 122.530909 285.408 
L 138.763636 285.408 
L 154.996364 285.408 
L 171.229091 285.408 
L 187.461818 285.408 
L 203.694545 285.408 
L 219.927273 285.408 
L 236.16 285.408 
L 252.392727 285.408 
L 268.625455 285.408 
L 284.858182 285.408 
L 301.090909 285.408 
L 317.323636 285.408 
L 333.556364 285.408 
L 349.789091 285.408 
L 366.021818 285.408 
L 382.254545 285.408 
L 398.487273 285.408 
" style="fill:none;stroke:#0e4db3;stroke-linecap:square;stroke-width:3;"/>
   </g>
   <g id="line2d_84">
    <path clip-path="url(#pfd01d3b1ec)" d="M 73.832727 285.408 
L 90.065455 285.408 
L 106.298182 285.408 
L 122.530909 285.408 
L 138.763636 285.408 
L 154.996364 285.408 
L 171.229091 285.408 
L 187.461818 285.408 
L 203.694545 285.408 
L 219.927273 285.408 
L 236.16 285.408 
L 252.392727 285.408 
L 268.625455 285.408 
L 284.858182 285.408 
L 301.090909 285.408 
L 317.323636 285.408 
L 333.556364 285.408 
L 349.789091 285.408 
L 366.021818 285.408 
L 382.254545 285.408 
L 398.487273 285.408 
" style="fill:none;stroke:#d44e4e;stroke-linecap:square;stroke-width:3;"/>
   </g>
   <g id="line2d_85">
    <path clip-path="url(#pfd01d3b1ec)" d="M 73.832727 57.968722 
L 90.065455 24.374651 
L 106.298182 28.481228 
L 122.530909 59.361962 
L 138.763636 97.852159 
L 154.996364 112.194249 
L 171.229091 91.895597 
L 187.461818 120.659685 
L 203.694545 182.495315 
L 219.927273 218.668812 
L 236.16 227.769687 
L 252.392727 176.70214 
L 268.625455 197.933246 
L 284.858182 194.28218 
L 301.090909 102.441128 
L 317.323636 127.507492 
L 333.556364 111.370351 
L 349.789091 129.906219 
L 366.021818 102.155085 
L 382.254545 88.839844 
L 398.487273 57.968722 
" style="fill:none;stroke:#0e4db3;stroke-linecap:square;stroke-width:3;"/>
   </g>
   <g id="line2d_86">
    <path clip-path="url(#pfd01d3b1ec)" d="M 73.832727 285.408 
L 90.065455 248.441864 
L 106.298182 223.976587 
L 122.530909 248.883375 
L 138.763636 285.408 
L 154.996364 285.408 
L 171.229091 242.631746 
L 187.461818 276.354094 
L 203.694545 285.408 
L 219.927273 285.408 
L 236.16 285.408 
L 252.392727 285.408 
L 268.625455 285.408 
L 284.858182 285.408 
L 301.090909 283.228631 
L 317.323636 285.408 
L 333.556364 285.408 
L 349.789091 236.230457 
L 366.021818 215.711242 
L 382.254545 238.335933 
L 398.487273 285.408 
" style="fill:none;stroke:#d44e4e;stroke-linecap:square;stroke-width:3;"/>
   </g>
   <g id="line2d_87">
    <path clip-path="url(#pfd01d3b1ec)" d="M 73.832727 107.44435 
L 90.065455 117.889814 
L 106.298182 117.495282 
L 122.530909 112.415014 
L 138.763636 128.767329 
L 154.996364 182.901218 
L 171.229091 206.888659 
L 187.461818 223.886119 
L 203.694545 172.760652 
L 219.927273 57.437968 
L 236.16 6.296086 
L 241.991658 -1 
M 259.936791 -1 
L 268.625455 13.987305 
L 284.858182 44.555424 
L 301.090909 34.995996 
L 317.323636 25.985002 
L 333.556364 57.432173 
L 349.789091 49.175616 
L 366.021818 91.531378 
L 382.254545 101.396598 
L 398.487273 107.44435 
" style="fill:none;stroke:#0e4db3;stroke-linecap:square;stroke-width:3;"/>
   </g>
   <g id="line2d_88">
    <path clip-path="url(#pfd01d3b1ec)" d="M 73.832727 146.546983 
L 90.065455 151.419457 
L 106.298182 147.148488 
L 122.530909 151.744236 
L 138.763636 153.26931 
L 154.996364 205.063295 
L 171.229091 231.925612 
L 187.461818 228.447423 
L 203.694545 192.262492 
L 219.927273 118.074675 
L 236.16 76.367708 
L 252.392727 60.130617 
L 268.625455 73.94866 
L 284.858182 100.596734 
L 301.090909 88.253849 
L 317.323636 77.124566 
L 333.556364 101.068973 
L 349.789091 95.915165 
L 366.021818 122.797165 
L 382.254545 100.380078 
L 398.487273 146.546983 
" style="fill:none;stroke:#d44e4e;stroke-linecap:square;stroke-width:3;"/>
   </g>
   <g id="line2d_89">
    <path clip-path="url(#pfd01d3b1ec)" d="M 73.832727 285.408 
L 90.065455 285.408 
L 106.298182 285.408 
L 122.530909 285.408 
L 138.763636 285.408 
L 154.996364 285.408 
L 171.229091 285.408 
L 187.461818 285.408 
L 203.694545 285.408 
L 219.927273 285.408 
L 236.16 285.408 
L 252.392727 285.408 
L 268.625455 285.408 
L 284.858182 285.408 
L 301.090909 285.408 
L 317.323636 285.408 
L 333.556364 285.408 
L 349.789091 285.408 
L 366.021818 285.408 
L 382.254545 285.408 
L 398.487273 285.408 
" style="fill:none;stroke:#0e4db3;stroke-linecap:square;stroke-width:3;"/>
   </g>
   <g id="line2d_90">
    <path clip-path="url(#pfd01d3b1ec)" d="M 73.832727 285.408 
L 90.065455 285.408 
L 106.298182 285.408 
L 122.530909 285.408 
L 138.763636 285.408 
L 154.996364 285.408 
L 171.229091 285.408 
L 187.461818 285.408 
L 203.694545 285.408 
L 219.927273 285.408 
L 236.16 285.408 
L 252.392727 285.408 
L 268.625455 285.408 
L 284.858182 285.408 
L 301.090909 285.408 
L 317.323636 285.408 
L 333.556364 285.408 
L 349.789091 285.408 
L 366.021818 285.408 
L 382.254545 285.408 
L 398.487273 285.408 
" style="fill:none;stroke:#d44e4e;stroke-linecap:square;stroke-width:3;"/>
   </g>
   <g id="line2d_91">
    <path clip-path="url(#pfd01d3b1ec)" d="M 73.832727 285.408 
L 90.065455 285.408 
L 106.298182 285.408 
L 122.530909 285.408 
L 138.763636 285.408 
L 154.996364 285.408 
L 171.229091 285.408 
L 187.461818 285.408 
L 203.694545 285.408 
L 219.927273 285.408 
L 236.16 285.408 
L 252.392727 285.408 
L 268.625455 285.408 
L 284.858182 285.408 
L 301.090909 285.408 
L 317.323636 285.408 
L 333.556364 285.408 
L 349.789091 285.408 
L 366.021818 285.408 
L 382.254545 285.408 
L 398.487273 285.408 
" style="fill:none;stroke:#0e4db3;stroke-linecap:square;stroke-width:3;"/>
   </g>
   <g id="line2d_92">
    <path clip-path="url(#pfd01d3b1ec)" d="M 73.832727 285.408 
L 90.065455 285.408 
L 106.298182 285.408 
L 122.530909 285.408 
L 138.763636 285.408 
L 154.996364 285.408 
L 171.229091 285.408 
L 187.461818 285.408 
L 203.694545 285.408 
L 219.927273 285.408 
L 236.16 285.408 
L 252.392727 285.408 
L 268.625455 285.408 
L 284.858182 285.408 
L 301.090909 285.408 
L 317.323636 285.408 
L 333.556364 285.408 
L 349.789091 285.408 
L 366.021818 285.408 
L 382.254545 285.408 
L 398.487273 285.408 
" style="fill:none;stroke:#d44e4e;stroke-linecap:square;stroke-width:3;"/>
   </g>
   <g id="line2d_93">
    <path clip-path="url(#pfd01d3b1ec)" d="M 73.832727 285.408 
L 90.065455 285.408 
L 106.298182 285.408 
L 122.530909 259.924656 
L 138.763636 237.809775 
L 154.996364 231.473625 
L 171.229091 251.55002 
L 187.461818 216.72975 
L 203.694545 148.489757 
L 219.927273 113.879504 
L 236.16 270.066259 
L 252.392727 26.262374 
L 258.242253 -1 
M 306.33853 -1 
L 317.323636 63.405036 
L 333.556364 155.678997 
L 349.789091 255.273675 
L 366.021818 285.408 
L 382.254545 285.408 
L 398.487273 285.408 
" style="fill:none;stroke:#0e4db3;stroke-linecap:square;stroke-width:3;"/>
   </g>
   <g id="line2d_94">
    <path clip-path="url(#pfd01d3b1ec)" d="M 73.832727 285.408 
L 90.065455 285.408 
L 106.298182 285.408 
L 122.530909 285.408 
L 138.763636 285.408 
L 154.996364 285.408 
L 171.229091 285.408 
L 187.461818 285.408 
L 203.694545 268.458226 
L 219.927273 254.800985 
L 236.16 285.408 
L 252.392727 196.336092 
L 268.625455 180.183846 
L 284.858182 149.418829 
L 301.090909 163.538379 
L 317.323636 210.205548 
L 333.556364 243.37654 
L 349.789091 285.408 
L 366.021818 285.408 
L 382.254545 285.408 
L 398.487273 285.408 
" style="fill:none;stroke:#d44e4e;stroke-linecap:square;stroke-width:3;"/>
   </g>
   <g id="line2d_95">
    <path clip-path="url(#pfd01d3b1ec)" d="M 73.832727 27.993246 
L 81.837239 -1 
M 176.578989 -1 
L 187.461818 77.251162 
L 203.694545 90.834266 
L 219.927273 111.848195 
L 236.16 87.552291 
L 252.392727 66.796982 
L 268.625455 79.278832 
L 284.858182 42.197282 
L 301.090909 80.616962 
L 317.323636 99.17541 
L 333.556364 152.54498 
L 349.789091 134.226576 
L 366.021818 114.349293 
L 382.254545 71.524241 
L 398.487273 27.993246 
" style="fill:none;stroke:#0e4db3;stroke-linecap:square;stroke-width:3;"/>
   </g>
   <g id="line2d_96">
    <path clip-path="url(#pfd01d3b1ec)" d="M 73.832727 285.408 
L 90.065455 240.409623 
L 106.298182 247.739859 
L 122.530909 194.706073 
L 138.763636 265.12628 
L 154.996364 282.151128 
L 171.229091 282.20317 
L 187.461818 285.408 
L 203.694545 285.408 
L 219.927273 285.408 
L 236.16 285.408 
L 252.392727 285.408 
L 268.625455 285.408 
L 284.858182 285.408 
L 301.090909 285.408 
L 317.323636 285.408 
L 333.556364 285.408 
L 349.789091 285.408 
L 366.021818 285.408 
L 382.254545 285.408 
L 398.487273 285.408 
" style="fill:none;stroke:#d44e4e;stroke-linecap:square;stroke-width:3;"/>
   </g>
   <g id="line2d_97">
    <path clip-path="url(#pfd01d3b1ec)" d="M 73.832727 285.408 
L 90.065455 285.408 
L 106.298182 285.408 
L 122.530909 285.408 
L 138.763636 285.408 
L 154.996364 285.408 
L 171.229091 285.408 
L 187.461818 285.408 
L 203.694545 285.408 
L 219.927273 285.408 
L 236.16 285.408 
L 252.392727 285.408 
L 268.625455 285.408 
L 284.858182 285.408 
L 301.090909 285.408 
L 317.323636 285.408 
L 333.556364 285.408 
L 349.789091 285.408 
L 366.021818 285.408 
L 382.254545 285.408 
L 398.487273 285.408 
" style="fill:none;stroke:#0e4db3;stroke-linecap:square;stroke-width:3;"/>
   </g>
   <g id="line2d_98">
    <path clip-path="url(#pfd01d3b1ec)" d="M 73.832727 285.408 
L 90.065455 285.408 
L 106.298182 285.408 
L 122.530909 285.408 
L 138.763636 285.408 
L 154.996364 285.408 
L 171.229091 285.408 
L 187.461818 285.408 
L 203.694545 285.408 
L 219.927273 285.408 
L 236.16 285.408 
L 252.392727 285.408 
L 268.625455 285.408 
L 284.858182 285.408 
L 301.090909 285.408 
L 317.323636 285.408 
L 333.556364 285.408 
L 349.789091 285.408 
L 366.021818 285.408 
L 382.254545 285.408 
L 398.487273 285.408 
" style="fill:none;stroke:#d44e4e;stroke-linecap:square;stroke-width:3;"/>
   </g>
   <g id="line2d_99">
    <path clip-path="url(#pfd01d3b1ec)" d="M 100.231584 -1 
L 106.298182 25.480264 
L 122.530909 117.661948 
L 138.763636 182.722322 
L 154.996364 236.10914 
L 171.229091 177.564641 
L 187.461818 108.414285 
L 203.694545 40.153662 
L 210.547142 -1 
M 279.129616 -1 
L 284.858182 20.141654 
L 290.231533 -1 
" style="fill:none;stroke:#0e4db3;stroke-linecap:square;stroke-width:3;"/>
   </g>
   <g id="line2d_100">
    <path clip-path="url(#pfd01d3b1ec)" d="M 73.832727 158.780586 
L 90.065455 150.426985 
L 106.298182 200.191313 
L 122.530909 285.408 
L 138.763636 285.408 
L 154.996364 285.408 
L 171.229091 285.408 
L 187.461818 285.408 
L 203.694545 285.408 
L 219.927273 250.504602 
L 236.16 232.739129 
L 252.392727 173.30464 
L 268.625455 198.974533 
L 284.858182 220.027763 
L 301.090909 137.187294 
L 317.323636 130.732039 
L 333.556364 145.914842 
L 349.789091 98.169763 
L 366.021818 64.548929 
L 382.254545 62.355444 
L 398.487273 158.780586 
" style="fill:none;stroke:#d44e4e;stroke-linecap:square;stroke-width:3;"/>
   </g>
   <g id="line2d_101">
    <path clip-path="url(#pfd01d3b1ec)" d="M 73.832727 285.408 
L 90.065455 285.408 
L 106.298182 285.408 
L 122.530909 285.408 
L 138.763636 285.408 
L 154.996364 285.408 
L 171.229091 285.408 
L 187.461818 285.408 
L 203.694545 285.408 
L 219.927273 285.408 
L 236.16 285.408 
L 252.392727 285.408 
L 268.625455 285.408 
L 284.858182 285.408 
L 301.090909 285.408 
L 317.323636 285.408 
L 333.556364 285.408 
L 349.789091 285.408 
L 366.021818 285.408 
L 382.254545 285.408 
L 398.487273 285.408 
" style="fill:none;stroke:#0e4db3;stroke-linecap:square;stroke-width:3;"/>
   </g>
   <g id="line2d_102">
    <path clip-path="url(#pfd01d3b1ec)" d="M 73.832727 285.408 
L 90.065455 285.408 
L 106.298182 285.408 
L 122.530909 285.408 
L 138.763636 285.408 
L 154.996364 285.408 
L 171.229091 285.408 
L 187.461818 285.408 
L 203.694545 285.408 
L 219.927273 285.408 
L 236.16 285.408 
L 252.392727 285.408 
L 268.625455 285.408 
L 284.858182 285.408 
L 301.090909 285.408 
L 317.323636 285.408 
L 333.556364 285.408 
L 349.789091 285.408 
L 366.021818 285.408 
L 382.254545 285.408 
L 398.487273 285.408 
" style="fill:none;stroke:#d44e4e;stroke-linecap:square;stroke-width:3;"/>
   </g>
   <g id="line2d_103">
    <path clip-path="url(#pfd01d3b1ec)" d="M 73.832727 64.327754 
L 90.065455 30.042367 
L 106.298182 10.447297 
L 122.530909 7.736029 
L 129.092192 -1 
M 164.344934 -1 
L 171.229091 4.231734 
L 187.461818 41.351947 
L 203.694545 58.292708 
L 219.927273 86.980895 
L 236.16 96.944583 
L 252.392727 107.000518 
L 268.625455 122.7026 
L 284.858182 132.580864 
L 301.090909 114.991925 
L 317.323636 103.956826 
L 333.556364 67.782969 
L 349.789091 89.822794 
L 366.021818 61.092966 
L 382.254545 61.643894 
L 398.487273 64.327754 
" style="fill:none;stroke:#0e4db3;stroke-linecap:square;stroke-width:3;"/>
   </g>
   <g id="line2d_104">
    <path clip-path="url(#pfd01d3b1ec)" d="M 73.832727 151.681334 
L 90.065455 134.764006 
L 106.298182 133.156457 
L 122.530909 115.12706 
L 138.763636 115.991513 
L 154.996364 130.682856 
L 171.229091 115.78008 
L 187.461818 128.968212 
L 203.694545 151.844318 
L 219.927273 150.0662 
L 236.16 153.963692 
L 252.392727 154.22912 
L 268.625455 151.509606 
L 284.858182 167.645492 
L 301.090909 179.088886 
L 317.323636 165.78275 
L 333.556364 157.644264 
L 349.789091 113.136467 
L 366.021818 92.65561 
L 382.254545 116.818917 
L 398.487273 151.681334 
" style="fill:none;stroke:#d44e4e;stroke-linecap:square;stroke-width:3;"/>
   </g>
   <g id="line2d_105">
    <path clip-path="url(#pfd01d3b1ec)" d="M 73.832727 285.408 
L 90.065455 285.408 
L 106.298182 285.408 
L 122.530909 285.408 
L 138.763636 285.408 
L 154.996364 285.408 
L 171.229091 285.408 
L 187.461818 285.408 
L 203.694545 285.408 
L 219.927273 285.408 
L 236.16 285.408 
L 252.392727 285.408 
L 268.625455 285.408 
L 284.858182 285.408 
L 301.090909 285.408 
L 317.323636 285.408 
L 333.556364 285.408 
L 349.789091 285.408 
L 366.021818 285.408 
L 382.254545 285.408 
L 398.487273 285.408 
" style="fill:none;stroke:#0e4db3;stroke-linecap:square;stroke-width:3;"/>
   </g>
   <g id="line2d_106">
    <path clip-path="url(#pfd01d3b1ec)" d="M 73.832727 285.408 
L 90.065455 285.408 
L 106.298182 285.408 
L 122.530909 285.408 
L 138.763636 285.408 
L 154.996364 285.408 
L 171.229091 285.408 
L 187.461818 285.408 
L 203.694545 285.408 
L 219.927273 285.408 
L 236.16 285.408 
L 252.392727 285.408 
L 268.625455 285.408 
L 284.858182 285.408 
L 301.090909 285.408 
L 317.323636 285.408 
L 333.556364 285.408 
L 349.789091 285.408 
L 366.021818 285.408 
L 382.254545 285.408 
L 398.487273 285.408 
" style="fill:none;stroke:#d44e4e;stroke-linecap:square;stroke-width:3;"/>
   </g>
   <g id="line2d_107">
    <path clip-path="url(#pfd01d3b1ec)" d="M 73.832727 83.020765 
L 90.065455 47.577356 
L 106.298182 41.702784 
L 122.530909 103.823995 
L 138.763636 121.991168 
L 154.996364 128.695844 
L 171.229091 93.582114 
L 187.461818 91.254447 
L 203.694545 107.477056 
L 219.927273 140.007771 
L 236.16 111.435645 
L 252.392727 97.387271 
L 268.625455 33.198129 
L 284.858182 34.107333 
L 301.090909 4.520697 
L 317.323636 8.428783 
L 333.556364 17.842452 
L 349.789091 64.253995 
L 366.021818 63.456992 
L 382.254545 74.866932 
L 398.487273 83.020765 
" style="fill:none;stroke:#0e4db3;stroke-linecap:square;stroke-width:3;"/>
   </g>
   <g id="line2d_108">
    <path clip-path="url(#pfd01d3b1ec)" d="M 73.832727 190.018356 
L 90.065455 153.372458 
L 106.298182 139.546375 
L 122.530909 181.917535 
L 138.763636 207.323549 
L 154.996364 201.246561 
L 171.229091 169.818509 
L 187.461818 157.553778 
L 203.694545 158.684803 
L 219.927273 185.675674 
L 236.16 181.152446 
L 252.392727 181.621823 
L 268.625455 150.119594 
L 284.858182 148.935101 
L 301.090909 135.6219 
L 317.323636 137.573566 
L 333.556364 146.751857 
L 349.789091 137.628353 
L 366.021818 113.632153 
L 382.254545 152.659427 
L 398.487273 190.018356 
" style="fill:none;stroke:#d44e4e;stroke-linecap:square;stroke-width:3;"/>
   </g>
   <g id="line2d_109">
    <path clip-path="url(#pfd01d3b1ec)" d="M 73.832727 149.412226 
L 90.065455 130.897854 
L 106.298182 58.969366 
L 122.530909 54.0999 
L 138.763636 35.545105 
L 154.996364 70.067395 
L 171.229091 164.965748 
L 187.461818 197.621371 
L 203.694545 219.092338 
L 219.927273 210.459957 
L 236.16 155.994253 
L 252.392727 189.948111 
L 268.625455 138.754522 
L 284.858182 101.034433 
L 301.090909 72.427034 
L 317.323636 113.418431 
L 333.556364 141.243896 
L 349.789091 195.128549 
L 366.021818 169.237334 
L 382.254545 171.808552 
L 398.487273 149.412226 
" style="fill:none;stroke:#0e4db3;stroke-linecap:square;stroke-width:3;"/>
   </g>
   <g id="line2d_110">
    <path clip-path="url(#pfd01d3b1ec)" d="M 73.832727 285.408 
L 90.065455 227.491538 
L 106.298182 212.986805 
L 122.530909 194.819323 
L 138.763636 229.208104 
L 154.996364 263.966494 
L 171.229091 285.408 
L 187.461818 285.408 
L 203.694545 285.408 
L 219.927273 285.408 
L 236.16 285.408 
L 252.392727 285.408 
L 268.625455 285.408 
L 284.858182 268.241878 
L 301.090909 232.270679 
L 317.323636 264.689283 
L 333.556364 279.49537 
L 349.789091 218.843079 
L 366.021818 285.408 
L 382.254545 227.853035 
L 398.487273 285.408 
" style="fill:none;stroke:#d44e4e;stroke-linecap:square;stroke-width:3;"/>
   </g>
   <g id="line2d_111">
    <path clip-path="url(#pfd01d3b1ec)" d="M 73.832727 285.408 
L 90.065455 285.408 
L 106.298182 285.408 
L 122.530909 285.408 
L 138.763636 285.408 
L 154.996364 285.408 
L 171.229091 285.408 
L 187.461818 285.408 
L 203.694545 285.408 
L 219.927273 285.408 
L 236.16 285.408 
L 252.392727 285.408 
L 268.625455 285.408 
L 284.858182 285.408 
L 301.090909 285.408 
L 317.323636 285.408 
L 333.556364 285.408 
L 349.789091 285.408 
L 366.021818 285.408 
L 382.254545 285.408 
L 398.487273 285.408 
" style="fill:none;stroke:#0e4db3;stroke-linecap:square;stroke-width:3;"/>
   </g>
   <g id="line2d_112">
    <path clip-path="url(#pfd01d3b1ec)" d="M 73.832727 285.408 
L 90.065455 285.408 
L 106.298182 285.408 
L 122.530909 285.408 
L 138.763636 285.408 
L 154.996364 285.408 
L 171.229091 285.408 
L 187.461818 285.408 
L 203.694545 285.408 
L 219.927273 285.408 
L 236.16 285.408 
L 252.392727 285.408 
L 268.625455 285.408 
L 284.858182 285.408 
L 301.090909 285.408 
L 317.323636 285.408 
L 333.556364 285.408 
L 349.789091 285.408 
L 366.021818 285.408 
L 382.254545 285.408 
L 398.487273 285.408 
" style="fill:none;stroke:#d44e4e;stroke-linecap:square;stroke-width:3;"/>
   </g>
   <g id="line2d_113">
    <path clip-path="url(#pfd01d3b1ec)" d="M 73.832727 285.408 
L 90.065455 285.408 
L 106.298182 285.408 
L 122.530909 285.408 
L 138.763636 285.408 
L 154.996364 285.408 
L 171.229091 285.408 
L 187.461818 285.408 
L 203.694545 285.408 
L 219.927273 285.408 
L 236.16 285.408 
L 252.392727 285.408 
L 268.625455 285.408 
L 284.858182 285.408 
L 301.090909 285.408 
L 317.323636 285.408 
L 333.556364 285.408 
L 349.789091 285.408 
L 366.021818 285.408 
L 382.254545 285.408 
L 398.487273 285.408 
" style="fill:none;stroke:#0e4db3;stroke-linecap:square;stroke-width:3;"/>
   </g>
   <g id="line2d_114">
    <path clip-path="url(#pfd01d3b1ec)" d="M 73.832727 285.408 
L 90.065455 285.408 
L 106.298182 285.408 
L 122.530909 285.408 
L 138.763636 285.408 
L 154.996364 285.408 
L 171.229091 285.408 
L 187.461818 285.408 
L 203.694545 285.408 
L 219.927273 285.408 
L 236.16 285.408 
L 252.392727 285.408 
L 268.625455 285.408 
L 284.858182 285.408 
L 301.090909 285.408 
L 317.323636 285.408 
L 333.556364 285.408 
L 349.789091 285.408 
L 366.021818 285.408 
L 382.254545 285.408 
L 398.487273 285.408 
" style="fill:none;stroke:#d44e4e;stroke-linecap:square;stroke-width:3;"/>
   </g>
   <g id="line2d_115">
    <path clip-path="url(#pfd01d3b1ec)" d="M 73.832727 161.549988 
L 90.065455 199.618721 
L 106.298182 202.223179 
L 122.530909 229.84859 
L 138.763636 237.190722 
L 154.996364 232.505548 
L 171.229091 219.865703 
L 187.461818 221.154643 
L 203.694545 193.852808 
L 219.927273 185.336612 
L 236.16 170.716189 
L 252.392727 178.43577 
L 268.625455 169.645578 
L 284.858182 174.306032 
L 301.090909 185.135787 
L 317.323636 206.643494 
L 333.556364 195.349299 
L 349.789091 183.276977 
L 366.021818 151.812566 
L 382.254545 143.274662 
L 398.487273 161.549988 
" style="fill:none;stroke:#0e4db3;stroke-linecap:square;stroke-width:3;"/>
   </g>
   <g id="line2d_116">
    <path clip-path="url(#pfd01d3b1ec)" d="M 73.832727 64.506026 
L 90.065455 95.247223 
L 106.298182 108.960107 
L 122.530909 128.246025 
L 138.763636 116.799535 
L 154.996364 119.74894 
L 171.229091 127.886266 
L 187.461818 128.248299 
L 203.694545 88.380444 
L 219.927273 75.311836 
L 236.16 74.43114 
L 252.392727 78.290249 
L 268.625455 84.243362 
L 284.858182 94.403092 
L 301.090909 89.869276 
L 317.323636 89.77499 
L 333.556364 90.217942 
L 349.789091 88.165813 
L 366.021818 64.527977 
L 382.254545 63.648 
L 398.487273 64.506026 
" style="fill:none;stroke:#d44e4e;stroke-linecap:square;stroke-width:3;"/>
   </g>
   <g id="patch_3">
    <path d="M 57.6 307.584 
L 57.6 41.472 
" style="fill:none;stroke:#000000;stroke-linecap:square;stroke-linejoin:miter;stroke-width:2.5;"/>
   </g>
   <g id="patch_4">
    <path d="M 414.72 307.584 
L 414.72 41.472 
" style="fill:none;stroke:#000000;stroke-linecap:square;stroke-linejoin:miter;stroke-width:2.5;"/>
   </g>
   <g id="patch_5">
    <path d="M 57.6 307.584 
L 414.72 307.584 
" style="fill:none;stroke:#000000;stroke-linecap:square;stroke-linejoin:miter;stroke-width:2.5;"/>
   </g>
   <g id="patch_6">
    <path d="M 57.6 41.472 
L 414.72 41.472 
" style="fill:none;stroke:#000000;stroke-linecap:square;stroke-linejoin:miter;stroke-width:2.5;"/>
   </g>
  </g>
 </g>
 <defs>
  <clipPath id="pfd01d3b1ec">
   <rect height="266.112" width="357.12" x="57.6" y="41.472"/>
  </clipPath>
 </defs>
</svg>
