<?xml version="1.0" encoding="utf-8" standalone="no"?>
<!DOCTYPE svg PUBLIC "-//W3C//DTD SVG 1.1//EN"
  "http://www.w3.org/Graphics/SVG/1.1/DTD/svg11.dtd">
<!-- Created with matplotlib (https://matplotlib.org/) -->
<svg height="345.6pt" version="1.1" viewBox="0 0 460.8 345.6" width="460.8pt" xmlns="http://www.w3.org/2000/svg" xmlns:xlink="http://www.w3.org/1999/xlink">
 <defs>
  <style type="text/css">
*{stroke-linecap:butt;stroke-linejoin:round;}
  </style>
 </defs>
 <g id="figure_1">
  <g id="patch_1">
   <path d="M 0 345.6 
L 460.8 345.6 
L 460.8 0 
L 0 0 
z
" style="fill:#ffffff;"/>
  </g>
  <g id="axes_1">
   <g id="patch_2">
    <path d="M 57.6 307.584 
L 414.72 307.584 
L 414.72 41.472 
L 57.6 41.472 
z
" style="fill:#ffffff;"/>
   </g>
   <g id="matplotlib.axis_1">
    <g id="xtick_1">
     <g id="line2d_1">
      <defs>
       <path d="M 0 0 
L 0 12 
" id="m2994f4672d" style="stroke:#000000;stroke-width:2.5;"/>
      </defs>
      <g>
       <use style="stroke:#000000;stroke-width:2.5;" x="73.832727" xlink:href="#m2994f4672d" y="307.584"/>
      </g>
     </g>
     <g id="text_1">
      <!-- 0 -->
      <defs>
       <path d="M 31.78125 66.40625 
Q 24.171875 66.40625 20.328125 58.90625 
Q 16.5 51.421875 16.5 36.375 
Q 16.5 21.390625 20.328125 13.890625 
Q 24.171875 6.390625 31.78125 6.390625 
Q 39.453125 6.390625 43.28125 13.890625 
Q 47.125 21.390625 47.125 36.375 
Q 47.125 51.421875 43.28125 58.90625 
Q 39.453125 66.40625 31.78125 66.40625 
z
M 31.78125 74.21875 
Q 44.046875 74.21875 50.515625 64.515625 
Q 56.984375 54.828125 56.984375 36.375 
Q 56.984375 17.96875 50.515625 8.265625 
Q 44.046875 -1.421875 31.78125 -1.421875 
Q 19.53125 -1.421875 13.0625 8.265625 
Q 6.59375 17.96875 6.59375 36.375 
Q 6.59375 54.828125 13.0625 64.515625 
Q 19.53125 74.21875 31.78125 74.21875 
z
" id="DejaVuSans-48"/>
      </defs>
      <g transform="translate(57.735602 361.532094)scale(0.506 -0.506)">
       <use xlink:href="#DejaVuSans-48"/>
      </g>
     </g>
    </g>
    <g id="xtick_2">
     <g id="line2d_2">
      <g>
       <use style="stroke:#000000;stroke-width:2.5;" x="254.196364" xlink:href="#m2994f4672d" y="307.584"/>
      </g>
     </g>
     <g id="text_2">
      <!-- 100 -->
      <defs>
       <path d="M 12.40625 8.296875 
L 28.515625 8.296875 
L 28.515625 63.921875 
L 10.984375 60.40625 
L 10.984375 69.390625 
L 28.421875 72.90625 
L 38.28125 72.90625 
L 38.28125 8.296875 
L 54.390625 8.296875 
L 54.390625 0 
L 12.40625 0 
z
" id="DejaVuSans-49"/>
      </defs>
      <g transform="translate(205.904989 361.532094)scale(0.506 -0.506)">
       <use xlink:href="#DejaVuSans-49"/>
       <use x="63.623047" xlink:href="#DejaVuSans-48"/>
       <use x="127.246094" xlink:href="#DejaVuSans-48"/>
      </g>
     </g>
    </g>
    <g id="text_3">
     <!-- Degrees -->
     <defs>
      <path d="M 19.671875 64.796875 
L 19.671875 8.109375 
L 31.59375 8.109375 
Q 46.6875 8.109375 53.6875 14.9375 
Q 60.6875 21.78125 60.6875 36.53125 
Q 60.6875 51.171875 53.6875 57.984375 
Q 46.6875 64.796875 31.59375 64.796875 
z
M 9.8125 72.90625 
L 30.078125 72.90625 
Q 51.265625 72.90625 61.171875 64.09375 
Q 71.09375 55.28125 71.09375 36.53125 
Q 71.09375 17.671875 61.125 8.828125 
Q 51.171875 0 30.078125 0 
L 9.8125 0 
z
" id="DejaVuSans-68"/>
      <path d="M 56.203125 29.59375 
L 56.203125 25.203125 
L 14.890625 25.203125 
Q 15.484375 15.921875 20.484375 11.0625 
Q 25.484375 6.203125 34.421875 6.203125 
Q 39.59375 6.203125 44.453125 7.46875 
Q 49.3125 8.734375 54.109375 11.28125 
L 54.109375 2.78125 
Q 49.265625 0.734375 44.1875 -0.34375 
Q 39.109375 -1.421875 33.890625 -1.421875 
Q 20.796875 -1.421875 13.15625 6.1875 
Q 5.515625 13.8125 5.515625 26.8125 
Q 5.515625 40.234375 12.765625 48.109375 
Q 20.015625 56 32.328125 56 
Q 43.359375 56 49.78125 48.890625 
Q 56.203125 41.796875 56.203125 29.59375 
z
M 47.21875 32.234375 
Q 47.125 39.59375 43.09375 43.984375 
Q 39.0625 48.390625 32.421875 48.390625 
Q 24.90625 48.390625 20.390625 44.140625 
Q 15.875 39.890625 15.1875 32.171875 
z
" id="DejaVuSans-101"/>
      <path d="M 45.40625 27.984375 
Q 45.40625 37.75 41.375 43.109375 
Q 37.359375 48.484375 30.078125 48.484375 
Q 22.859375 48.484375 18.828125 43.109375 
Q 14.796875 37.75 14.796875 27.984375 
Q 14.796875 18.265625 18.828125 12.890625 
Q 22.859375 7.515625 30.078125 7.515625 
Q 37.359375 7.515625 41.375 12.890625 
Q 45.40625 18.265625 45.40625 27.984375 
z
M 54.390625 6.78125 
Q 54.390625 -7.171875 48.1875 -13.984375 
Q 42 -20.796875 29.203125 -20.796875 
Q 24.46875 -20.796875 20.265625 -20.09375 
Q 16.0625 -19.390625 12.109375 -17.921875 
L 12.109375 -9.1875 
Q 16.0625 -11.328125 19.921875 -12.34375 
Q 23.78125 -13.375 27.78125 -13.375 
Q 36.625 -13.375 41.015625 -8.765625 
Q 45.40625 -4.15625 45.40625 5.171875 
L 45.40625 9.625 
Q 42.625 4.78125 38.28125 2.390625 
Q 33.9375 0 27.875 0 
Q 17.828125 0 11.671875 7.65625 
Q 5.515625 15.328125 5.515625 27.984375 
Q 5.515625 40.671875 11.671875 48.328125 
Q 17.828125 56 27.875 56 
Q 33.9375 56 38.28125 53.609375 
Q 42.625 51.21875 45.40625 46.390625 
L 45.40625 54.6875 
L 54.390625 54.6875 
z
" id="DejaVuSans-103"/>
      <path d="M 41.109375 46.296875 
Q 39.59375 47.171875 37.8125 47.578125 
Q 36.03125 48 33.890625 48 
Q 26.265625 48 22.1875 43.046875 
Q 18.109375 38.09375 18.109375 28.8125 
L 18.109375 0 
L 9.078125 0 
L 9.078125 54.6875 
L 18.109375 54.6875 
L 18.109375 46.1875 
Q 20.953125 51.171875 25.484375 53.578125 
Q 30.03125 56 36.53125 56 
Q 37.453125 56 38.578125 55.875 
Q 39.703125 55.765625 41.0625 55.515625 
z
" id="DejaVuSans-114"/>
      <path d="M 44.28125 53.078125 
L 44.28125 44.578125 
Q 40.484375 46.53125 36.375 47.5 
Q 32.28125 48.484375 27.875 48.484375 
Q 21.1875 48.484375 17.84375 46.4375 
Q 14.5 44.390625 14.5 40.28125 
Q 14.5 37.15625 16.890625 35.375 
Q 19.28125 33.59375 26.515625 31.984375 
L 29.59375 31.296875 
Q 39.15625 29.25 43.1875 25.515625 
Q 47.21875 21.78125 47.21875 15.09375 
Q 47.21875 7.46875 41.1875 3.015625 
Q 35.15625 -1.421875 24.609375 -1.421875 
Q 20.21875 -1.421875 15.453125 -0.5625 
Q 10.6875 0.296875 5.421875 2 
L 5.421875 11.28125 
Q 10.40625 8.6875 15.234375 7.390625 
Q 20.0625 6.109375 24.8125 6.109375 
Q 31.15625 6.109375 34.5625 8.28125 
Q 37.984375 10.453125 37.984375 14.40625 
Q 37.984375 18.0625 35.515625 20.015625 
Q 33.0625 21.96875 24.703125 23.78125 
L 21.578125 24.515625 
Q 13.234375 26.265625 9.515625 29.90625 
Q 5.8125 33.546875 5.8125 39.890625 
Q 5.8125 47.609375 11.28125 51.796875 
Q 16.75 56 26.8125 56 
Q 31.78125 56 36.171875 55.265625 
Q 40.578125 54.546875 44.28125 53.078125 
z
" id="DejaVuSans-115"/>
     </defs>
     <g transform="translate(120.723 417.998687)scale(0.552 -0.552)">
      <use xlink:href="#DejaVuSans-68"/>
      <use x="77.001953" xlink:href="#DejaVuSans-101"/>
      <use x="138.525391" xlink:href="#DejaVuSans-103"/>
      <use x="202.001953" xlink:href="#DejaVuSans-114"/>
      <use x="243.083984" xlink:href="#DejaVuSans-101"/>
      <use x="304.607422" xlink:href="#DejaVuSans-101"/>
      <use x="366.130859" xlink:href="#DejaVuSans-115"/>
     </g>
    </g>
   </g>
   <g id="matplotlib.axis_2">
    <g id="ytick_1">
     <g id="line2d_3">
      <defs>
       <path d="M 0 0 
L -12 0 
" id="mbf410127d5" style="stroke:#000000;stroke-width:2.5;"/>
      </defs>
      <g>
       <use style="stroke:#000000;stroke-width:2.5;" x="57.6" xlink:href="#mbf410127d5" y="285.408"/>
      </g>
     </g>
     <g id="text_4">
      <!-- 0 -->
      <g transform="translate(9.90575 304.632047)scale(0.506 -0.506)">
       <use xlink:href="#DejaVuSans-48"/>
      </g>
     </g>
    </g>
    <g id="ytick_2">
     <g id="line2d_4">
      <g>
       <use style="stroke:#000000;stroke-width:2.5;" x="57.6" xlink:href="#mbf410127d5" y="155.329363"/>
      </g>
     </g>
     <g id="text_5">
      <!-- 5 -->
      <defs>
       <path d="M 10.796875 72.90625 
L 49.515625 72.90625 
L 49.515625 64.59375 
L 19.828125 64.59375 
L 19.828125 46.734375 
Q 21.96875 47.46875 24.109375 47.828125 
Q 26.265625 48.1875 28.421875 48.1875 
Q 40.625 48.1875 47.75 41.5 
Q 54.890625 34.8125 54.890625 23.390625 
Q 54.890625 11.625 47.5625 5.09375 
Q 40.234375 -1.421875 26.90625 -1.421875 
Q 22.3125 -1.421875 17.546875 -0.640625 
Q 12.796875 0.140625 7.71875 1.703125 
L 7.71875 11.625 
Q 12.109375 9.234375 16.796875 8.0625 
Q 21.484375 6.890625 26.703125 6.890625 
Q 35.15625 6.890625 40.078125 11.328125 
Q 45.015625 15.765625 45.015625 23.390625 
Q 45.015625 31 40.078125 35.4375 
Q 35.15625 39.890625 26.703125 39.890625 
Q 22.75 39.890625 18.8125 39.015625 
Q 14.890625 38.140625 10.796875 36.28125 
z
" id="DejaVuSans-53"/>
      </defs>
      <g transform="translate(9.90575 174.55341)scale(0.506 -0.506)">
       <use xlink:href="#DejaVuSans-53"/>
      </g>
     </g>
    </g>
    <g id="text_6">
     <!-- Activation -->
     <defs>
      <path d="M 34.1875 63.1875 
L 20.796875 26.90625 
L 47.609375 26.90625 
z
M 28.609375 72.90625 
L 39.796875 72.90625 
L 67.578125 0 
L 57.328125 0 
L 50.6875 18.703125 
L 17.828125 18.703125 
L 11.1875 0 
L 0.78125 0 
z
" id="DejaVuSans-65"/>
      <path d="M 48.78125 52.59375 
L 48.78125 44.1875 
Q 44.96875 46.296875 41.140625 47.34375 
Q 37.3125 48.390625 33.40625 48.390625 
Q 24.65625 48.390625 19.8125 42.84375 
Q 14.984375 37.3125 14.984375 27.296875 
Q 14.984375 17.28125 19.8125 11.734375 
Q 24.65625 6.203125 33.40625 6.203125 
Q 37.3125 6.203125 41.140625 7.25 
Q 44.96875 8.296875 48.78125 10.40625 
L 48.78125 2.09375 
Q 45.015625 0.34375 40.984375 -0.53125 
Q 36.96875 -1.421875 32.421875 -1.421875 
Q 20.0625 -1.421875 12.78125 6.34375 
Q 5.515625 14.109375 5.515625 27.296875 
Q 5.515625 40.671875 12.859375 48.328125 
Q 20.21875 56 33.015625 56 
Q 37.15625 56 41.109375 55.140625 
Q 45.0625 54.296875 48.78125 52.59375 
z
" id="DejaVuSans-99"/>
      <path d="M 18.3125 70.21875 
L 18.3125 54.6875 
L 36.8125 54.6875 
L 36.8125 47.703125 
L 18.3125 47.703125 
L 18.3125 18.015625 
Q 18.3125 11.328125 20.140625 9.421875 
Q 21.96875 7.515625 27.59375 7.515625 
L 36.8125 7.515625 
L 36.8125 0 
L 27.59375 0 
Q 17.1875 0 13.234375 3.875 
Q 9.28125 7.765625 9.28125 18.015625 
L 9.28125 47.703125 
L 2.6875 47.703125 
L 2.6875 54.6875 
L 9.28125 54.6875 
L 9.28125 70.21875 
z
" id="DejaVuSans-116"/>
      <path d="M 9.421875 54.6875 
L 18.40625 54.6875 
L 18.40625 0 
L 9.421875 0 
z
M 9.421875 75.984375 
L 18.40625 75.984375 
L 18.40625 64.59375 
L 9.421875 64.59375 
z
" id="DejaVuSans-105"/>
      <path d="M 2.984375 54.6875 
L 12.5 54.6875 
L 29.59375 8.796875 
L 46.6875 54.6875 
L 56.203125 54.6875 
L 35.6875 0 
L 23.484375 0 
z
" id="DejaVuSans-118"/>
      <path d="M 34.28125 27.484375 
Q 23.390625 27.484375 19.1875 25 
Q 14.984375 22.515625 14.984375 16.5 
Q 14.984375 11.71875 18.140625 8.90625 
Q 21.296875 6.109375 26.703125 6.109375 
Q 34.1875 6.109375 38.703125 11.40625 
Q 43.21875 16.703125 43.21875 25.484375 
L 43.21875 27.484375 
z
M 52.203125 31.203125 
L 52.203125 0 
L 43.21875 0 
L 43.21875 8.296875 
Q 40.140625 3.328125 35.546875 0.953125 
Q 30.953125 -1.421875 24.3125 -1.421875 
Q 15.921875 -1.421875 10.953125 3.296875 
Q 6 8.015625 6 15.921875 
Q 6 25.140625 12.171875 29.828125 
Q 18.359375 34.515625 30.609375 34.515625 
L 43.21875 34.515625 
L 43.21875 35.40625 
Q 43.21875 41.609375 39.140625 45 
Q 35.0625 48.390625 27.6875 48.390625 
Q 23 48.390625 18.546875 47.265625 
Q 14.109375 46.140625 10.015625 43.890625 
L 10.015625 52.203125 
Q 14.9375 54.109375 19.578125 55.046875 
Q 24.21875 56 28.609375 56 
Q 40.484375 56 46.34375 49.84375 
Q 52.203125 43.703125 52.203125 31.203125 
z
" id="DejaVuSans-97"/>
      <path d="M 30.609375 48.390625 
Q 23.390625 48.390625 19.1875 42.75 
Q 14.984375 37.109375 14.984375 27.296875 
Q 14.984375 17.484375 19.15625 11.84375 
Q 23.34375 6.203125 30.609375 6.203125 
Q 37.796875 6.203125 41.984375 11.859375 
Q 46.1875 17.53125 46.1875 27.296875 
Q 46.1875 37.015625 41.984375 42.703125 
Q 37.796875 48.390625 30.609375 48.390625 
z
M 30.609375 56 
Q 42.328125 56 49.015625 48.375 
Q 55.71875 40.765625 55.71875 27.296875 
Q 55.71875 13.875 49.015625 6.21875 
Q 42.328125 -1.421875 30.609375 -1.421875 
Q 18.84375 -1.421875 12.171875 6.21875 
Q 5.515625 13.875 5.515625 27.296875 
Q 5.515625 40.765625 12.171875 48.375 
Q 18.84375 56 30.609375 56 
z
" id="DejaVuSans-111"/>
      <path d="M 54.890625 33.015625 
L 54.890625 0 
L 45.90625 0 
L 45.90625 32.71875 
Q 45.90625 40.484375 42.875 44.328125 
Q 39.84375 48.1875 33.796875 48.1875 
Q 26.515625 48.1875 22.3125 43.546875 
Q 18.109375 38.921875 18.109375 30.90625 
L 18.109375 0 
L 9.078125 0 
L 9.078125 54.6875 
L 18.109375 54.6875 
L 18.109375 46.1875 
Q 21.34375 51.125 25.703125 53.5625 
Q 30.078125 56 35.796875 56 
Q 45.21875 56 50.046875 50.171875 
Q 54.890625 44.34375 54.890625 33.015625 
z
" id="DejaVuSans-110"/>
     </defs>
     <g transform="translate(-5.574125 313.1835)rotate(-90)scale(0.552 -0.552)">
      <use xlink:href="#DejaVuSans-65"/>
      <use x="68.392578" xlink:href="#DejaVuSans-99"/>
      <use x="123.373047" xlink:href="#DejaVuSans-116"/>
      <use x="162.582031" xlink:href="#DejaVuSans-105"/>
      <use x="190.365234" xlink:href="#DejaVuSans-118"/>
      <use x="249.544922" xlink:href="#DejaVuSans-97"/>
      <use x="310.824219" xlink:href="#DejaVuSans-116"/>
      <use x="350.033203" xlink:href="#DejaVuSans-105"/>
      <use x="377.816406" xlink:href="#DejaVuSans-111"/>
      <use x="438.998047" xlink:href="#DejaVuSans-110"/>
     </g>
    </g>
   </g>
   <g id="line2d_5">
    <path clip-path="url(#pd3aab7e80e)" d="M 73.832727 278.78787 
L 90.065455 267.516041 
L 106.298182 263.608238 
L 122.530909 258.561427 
L 138.763636 252.657764 
L 154.996364 251.823953 
L 171.229091 253.038007 
L 187.461818 244.227651 
L 203.694545 241.299242 
L 219.927273 241.839848 
L 236.16 245.71686 
L 252.392727 245.590283 
L 268.625455 246.193635 
L 284.858182 260.784371 
L 301.090909 258.494736 
L 317.323636 269.831578 
L 333.556364 272.701318 
L 349.789091 275.691919 
L 366.021818 274.026871 
L 382.254545 276.128941 
L 398.487273 278.78787 
" style="fill:none;stroke:#0e4db3;stroke-linecap:square;stroke-width:3;"/>
   </g>
   <g id="line2d_6">
    <path clip-path="url(#pd3aab7e80e)" d="M 73.832727 280.140507 
L 90.065455 270.909132 
L 106.298182 267.441528 
L 122.530909 263.710555 
L 138.763636 259.152603 
L 154.996364 258.661454 
L 171.229091 259.215767 
L 187.461818 251.401995 
L 203.694545 249.949146 
L 219.927273 249.534779 
L 236.16 251.530612 
L 252.392727 252.806593 
L 268.625455 253.07856 
L 284.858182 265.680919 
L 301.090909 263.40925 
L 317.323636 272.562754 
L 333.556364 274.766106 
L 349.789091 276.763873 
L 366.021818 275.909367 
L 382.254545 277.48201 
L 398.487273 280.140507 
" style="fill:none;stroke:#d44e4e;stroke-linecap:square;stroke-width:3;"/>
   </g>
   <g id="line2d_7">
    <path clip-path="url(#pd3aab7e80e)" d="M 73.832727 240.405062 
L 90.065455 240.06307 
L 106.298182 243.09661 
L 122.530909 248.927389 
L 138.763636 249.965983 
L 154.996364 251.239222 
L 171.229091 251.158209 
L 187.461818 244.596643 
L 203.694545 242.42307 
L 219.927273 250.174968 
L 236.16 250.169814 
L 252.392727 249.00909 
L 268.625455 242.557403 
L 284.858182 247.220685 
L 301.090909 241.387041 
L 317.323636 243.417082 
L 333.556364 243.189789 
L 349.789091 235.683236 
L 366.021818 237.815757 
L 382.254545 235.797637 
L 398.487273 240.405062 
" style="fill:none;stroke:#0e4db3;stroke-linecap:square;stroke-width:3;"/>
   </g>
   <g id="line2d_8">
    <path clip-path="url(#pd3aab7e80e)" d="M 73.832727 249.784829 
L 90.065455 245.695898 
L 106.298182 250.759957 
L 122.530909 256.442465 
L 138.763636 257.126166 
L 154.996364 258.262854 
L 171.229091 258.261427 
L 187.461818 253.197232 
L 203.694545 251.658331 
L 219.927273 257.59011 
L 236.16 257.568959 
L 252.392727 256.135831 
L 268.625455 251.40745 
L 284.858182 254.369747 
L 301.090909 250.636376 
L 317.323636 252.17693 
L 333.556364 251.928911 
L 349.789091 246.118062 
L 366.021818 247.188109 
L 382.254545 246.092364 
L 398.487273 249.784829 
" style="fill:none;stroke:#d44e4e;stroke-linecap:square;stroke-width:3;"/>
   </g>
   <g id="line2d_9">
    <path clip-path="url(#pd3aab7e80e)" d="M 73.832727 239.792328 
L 90.065455 237.588756 
L 106.298182 237.57129 
L 122.530909 237.583385 
L 138.763636 232.760587 
L 154.996364 232.999382 
L 171.229091 232.568063 
L 187.461818 235.799483 
L 203.694545 231.892038 
L 219.927273 233.655332 
L 236.16 236.617489 
L 252.392727 236.6688 
L 268.625455 237.200738 
L 284.858182 240.424457 
L 301.090909 241.015624 
L 317.323636 241.271359 
L 333.556364 241.152383 
L 349.789091 241.526895 
L 366.021818 240.500213 
L 382.254545 239.958832 
L 398.487273 239.792328 
" style="fill:none;stroke:#0e4db3;stroke-linecap:square;stroke-width:3;"/>
   </g>
   <g id="line2d_10">
    <path clip-path="url(#pd3aab7e80e)" d="M 73.832727 247.776118 
L 90.065455 246.189507 
L 106.298182 246.056541 
L 122.530909 245.912354 
L 138.763636 242.913568 
L 154.996364 242.864139 
L 171.229091 242.151658 
L 187.461818 244.599884 
L 203.694545 241.108784 
L 219.927273 242.787152 
L 236.16 245.200075 
L 252.392727 245.144236 
L 268.625455 245.62637 
L 284.858182 247.345541 
L 301.090909 247.780848 
L 317.323636 248.369614 
L 333.556364 248.668389 
L 349.789091 248.951874 
L 366.021818 248.109039 
L 382.254545 247.779307 
L 398.487273 247.776118 
" style="fill:none;stroke:#d44e4e;stroke-linecap:square;stroke-width:3;"/>
   </g>
   <g id="line2d_11">
    <path clip-path="url(#pd3aab7e80e)" d="M 73.832727 233.773759 
L 90.065455 233.712353 
L 106.298182 233.915067 
L 122.530909 238.754355 
L 138.763636 239.248209 
L 154.996364 240.483122 
L 171.229091 239.404084 
L 187.461818 238.112017 
L 203.694545 234.704216 
L 219.927273 235.908314 
L 236.16 235.422108 
L 252.392727 233.256444 
L 268.625455 232.495486 
L 284.858182 232.537279 
L 301.090909 230.133616 
L 317.323636 229.760938 
L 333.556364 224.002971 
L 349.789091 229.29543 
L 366.021818 229.014327 
L 382.254545 231.547159 
L 398.487273 233.773759 
" style="fill:none;stroke:#0e4db3;stroke-linecap:square;stroke-width:3;"/>
   </g>
   <g id="line2d_12">
    <path clip-path="url(#pd3aab7e80e)" d="M 73.832727 244.650156 
L 90.065455 244.64814 
L 106.298182 244.787538 
L 122.530909 248.39133 
L 138.763636 248.627011 
L 154.996364 249.2234 
L 171.229091 248.836759 
L 187.461818 247.196107 
L 203.694545 245.537821 
L 219.927273 246.186182 
L 236.16 246.281126 
L 252.392727 243.920894 
L 268.625455 242.855833 
L 284.858182 242.558988 
L 301.090909 241.221542 
L 317.323636 241.220593 
L 333.556364 237.39377 
L 349.789091 240.913876 
L 366.021818 240.488363 
L 382.254545 242.718886 
L 398.487273 244.650156 
" style="fill:none;stroke:#d44e4e;stroke-linecap:square;stroke-width:3;"/>
   </g>
   <g id="line2d_13">
    <path clip-path="url(#pd3aab7e80e)" d="M 73.832727 268.841829 
L 90.065455 268.588558 
L 106.298182 268.816269 
L 122.530909 268.265263 
L 138.763636 261.89702 
L 154.996364 261.071626 
L 171.229091 255.925423 
L 187.461818 257.51075 
L 203.694545 249.711241 
L 219.927273 243.582503 
L 236.16 243.679096 
L 252.392727 237.128499 
L 268.625455 231.356807 
L 284.858182 234.439314 
L 301.090909 226.450797 
L 317.323636 231.093021 
L 333.556364 232.409679 
L 349.789091 253.844222 
L 366.021818 255.825449 
L 382.254545 255.606595 
L 398.487273 268.841829 
" style="fill:none;stroke:#0e4db3;stroke-linecap:square;stroke-width:3;"/>
   </g>
   <g id="line2d_14">
    <path clip-path="url(#pd3aab7e80e)" d="M 73.832727 270.261372 
L 90.065455 269.891258 
L 106.298182 270.091051 
L 122.530909 269.850657 
L 138.763636 264.863598 
L 154.996364 264.238886 
L 171.229091 259.733616 
L 187.461818 260.947555 
L 203.694545 254.827861 
L 219.927273 250.346933 
L 236.16 250.35932 
L 252.392727 244.887555 
L 268.625455 240.317753 
L 284.858182 243.299452 
L 301.090909 236.695931 
L 317.323636 239.96269 
L 333.556364 241.241781 
L 349.789091 257.993988 
L 366.021818 259.648722 
L 382.254545 259.632246 
L 398.487273 270.261372 
" style="fill:none;stroke:#d44e4e;stroke-linecap:square;stroke-width:3;"/>
   </g>
   <g id="line2d_15">
    <path clip-path="url(#pd3aab7e80e)" d="M 73.832727 285.408 
L 90.065455 285.408 
L 106.298182 285.408 
L 122.530909 285.408 
L 138.763636 285.408 
L 154.996364 285.408 
L 171.229091 285.408 
L 187.461818 285.408 
L 203.694545 285.408 
L 219.927273 285.408 
L 236.16 285.408 
L 252.392727 285.408 
L 268.625455 285.408 
L 284.858182 285.408 
L 301.090909 285.408 
L 317.323636 285.408 
L 333.556364 285.408 
L 349.789091 285.408 
L 366.021818 285.408 
L 382.254545 285.408 
L 398.487273 285.408 
" style="fill:none;stroke:#0e4db3;stroke-linecap:square;stroke-width:3;"/>
   </g>
   <g id="line2d_16">
    <path clip-path="url(#pd3aab7e80e)" d="M 73.832727 285.408 
L 90.065455 285.408 
L 106.298182 285.408 
L 122.530909 285.408 
L 138.763636 285.408 
L 154.996364 285.408 
L 171.229091 285.408 
L 187.461818 285.408 
L 203.694545 285.408 
L 219.927273 285.408 
L 236.16 285.408 
L 252.392727 285.408 
L 268.625455 285.408 
L 284.858182 285.408 
L 301.090909 285.408 
L 317.323636 285.408 
L 333.556364 285.408 
L 349.789091 285.408 
L 366.021818 285.408 
L 382.254545 285.408 
L 398.487273 285.408 
" style="fill:none;stroke:#d44e4e;stroke-linecap:square;stroke-width:3;"/>
   </g>
   <g id="line2d_17">
    <path clip-path="url(#pd3aab7e80e)" d="M 73.832727 285.408 
L 90.065455 285.175436 
L 106.298182 285.315357 
L 122.530909 285.230267 
L 138.763636 285.330037 
L 154.996364 285.408 
L 171.229091 285.408 
L 187.461818 285.408 
L 203.694545 285.408 
L 219.927273 285.408 
L 236.16 285.408 
L 252.392727 285.408 
L 268.625455 284.867178 
L 284.858182 285.408 
L 301.090909 285.408 
L 317.323636 285.408 
L 333.556364 285.408 
L 349.789091 285.408 
L 366.021818 285.408 
L 382.254545 285.408 
L 398.487273 285.408 
" style="fill:none;stroke:#0e4db3;stroke-linecap:square;stroke-width:3;"/>
   </g>
   <g id="line2d_18">
    <path clip-path="url(#pd3aab7e80e)" d="M 73.832727 285.408 
L 90.065455 285.408 
L 106.298182 285.408 
L 122.530909 285.408 
L 138.763636 285.408 
L 154.996364 285.408 
L 171.229091 285.408 
L 187.461818 285.408 
L 203.694545 285.408 
L 219.927273 285.408 
L 236.16 285.408 
L 252.392727 285.408 
L 268.625455 285.408 
L 284.858182 285.408 
L 301.090909 285.408 
L 317.323636 285.408 
L 333.556364 285.408 
L 349.789091 285.408 
L 366.021818 285.408 
L 382.254545 285.408 
L 398.487273 285.408 
" style="fill:none;stroke:#d44e4e;stroke-linecap:square;stroke-width:3;"/>
   </g>
   <g id="line2d_19">
    <path clip-path="url(#pd3aab7e80e)" d="M 73.832727 272.04974 
L 90.065455 267.836124 
L 106.298182 261.662411 
L 122.530909 261.067818 
L 138.763636 254.687932 
L 154.996364 253.393607 
L 171.229091 249.114789 
L 187.461818 249.650359 
L 203.694545 243.497316 
L 219.927273 243.810338 
L 236.16 258.416701 
L 252.392727 244.550703 
L 268.625455 251.411416 
L 284.858182 259.909017 
L 301.090909 258.245204 
L 317.323636 264.228459 
L 333.556364 264.966709 
L 349.789091 266.179648 
L 366.021818 266.590273 
L 382.254545 270.615217 
L 398.487273 272.04974 
" style="fill:none;stroke:#0e4db3;stroke-linecap:square;stroke-width:3;"/>
   </g>
   <g id="line2d_20">
    <path clip-path="url(#pd3aab7e80e)" d="M 73.832727 272.305382 
L 90.065455 269.081056 
L 106.298182 264.079115 
L 122.530909 263.090633 
L 138.763636 258.342012 
L 154.996364 257.478838 
L 171.229091 253.966057 
L 187.461818 254.115231 
L 203.694545 249.503676 
L 219.927273 249.524464 
L 236.16 261.302975 
L 252.392727 250.207464 
L 268.625455 255.632333 
L 284.858182 262.778713 
L 301.090909 261.137332 
L 317.323636 265.905398 
L 333.556364 266.429466 
L 349.789091 266.918839 
L 366.021818 267.391335 
L 382.254545 270.903025 
L 398.487273 272.305382 
" style="fill:none;stroke:#d44e4e;stroke-linecap:square;stroke-width:3;"/>
   </g>
   <g id="line2d_21">
    <path clip-path="url(#pd3aab7e80e)" d="M 73.832727 257.831783 
L 90.065455 255.92247 
L 106.298182 253.050127 
L 122.530909 251.88968 
L 138.763636 253.304823 
L 154.996364 253.382219 
L 171.229091 253.519124 
L 187.461818 256.513494 
L 203.694545 256.047791 
L 219.927273 257.554758 
L 236.16 258.879886 
L 252.392727 257.258412 
L 268.625455 256.913514 
L 284.858182 256.948547 
L 301.090909 257.014264 
L 317.323636 257.274291 
L 333.556364 251.232672 
L 349.789091 254.56606 
L 366.021818 253.524731 
L 382.254545 257.930849 
L 398.487273 257.831783 
" style="fill:none;stroke:#0e4db3;stroke-linecap:square;stroke-width:3;"/>
   </g>
   <g id="line2d_22">
    <path clip-path="url(#pd3aab7e80e)" d="M 73.832727 263.719766 
L 90.065455 262.198139 
L 106.298182 259.979777 
L 122.530909 258.65264 
L 138.763636 260.725156 
L 154.996364 260.83003 
L 171.229091 260.784863 
L 187.461818 262.623903 
L 203.694545 261.681571 
L 219.927273 263.87971 
L 236.16 262.868706 
L 252.392727 263.033897 
L 268.625455 262.981696 
L 284.858182 263.340058 
L 301.090909 263.4976 
L 317.323636 263.442997 
L 333.556364 258.752645 
L 349.789091 259.775701 
L 366.021818 259.555482 
L 382.254545 263.720507 
L 398.487273 263.719766 
" style="fill:none;stroke:#d44e4e;stroke-linecap:square;stroke-width:3;"/>
   </g>
   <g id="line2d_23">
    <path clip-path="url(#pd3aab7e80e)" d="M 73.832727 284.405946 
L 90.065455 273.839901 
L 106.298182 264.932458 
L 122.530909 265.500632 
L 138.763636 254.697159 
L 154.996364 253.884009 
L 171.229091 254.041261 
L 187.461818 255.01157 
L 203.694545 252.301525 
L 219.927273 252.296727 
L 236.16 256.161464 
L 252.392727 253.615159 
L 268.625455 256.921876 
L 284.858182 264.858144 
L 301.090909 261.66412 
L 317.323636 273.289312 
L 333.556364 273.473641 
L 349.789091 276.33285 
L 366.021818 281.92607 
L 382.254545 276.79635 
L 398.487273 284.405946 
" style="fill:none;stroke:#0e4db3;stroke-linecap:square;stroke-width:3;"/>
   </g>
   <g id="line2d_24">
    <path clip-path="url(#pd3aab7e80e)" d="M 73.832727 285.147995 
L 90.065455 277.095311 
L 106.298182 269.916577 
L 122.530909 267.896378 
L 138.763636 262.110555 
L 154.996364 261.405219 
L 171.229091 261.429186 
L 187.461818 261.394067 
L 203.694545 259.524085 
L 219.927273 259.543254 
L 236.16 262.836351 
L 252.392727 260.508802 
L 268.625455 262.57739 
L 284.858182 270.026662 
L 301.090909 266.896881 
L 317.323636 275.802074 
L 333.556364 276.775753 
L 349.789091 279.320939 
L 366.021818 283.117615 
L 382.254545 279.332575 
L 398.487273 285.147995 
" style="fill:none;stroke:#d44e4e;stroke-linecap:square;stroke-width:3;"/>
   </g>
   <g id="line2d_25">
    <path clip-path="url(#pd3aab7e80e)" d="M 73.832727 244.191443 
L 90.065455 243.942988 
L 106.298182 241.411916 
L 122.530909 245.440049 
L 138.763636 247.849269 
L 154.996364 256.359052 
L 171.229091 257.857087 
L 187.461818 256.484134 
L 203.694545 243.308204 
L 219.927273 234.289278 
L 236.16 234.988929 
L 252.392727 234.12453 
L 268.625455 243.261777 
L 284.858182 248.865136 
L 301.090909 241.237684 
L 317.323636 238.502317 
L 333.556364 237.803094 
L 349.789091 236.516684 
L 366.021818 233.322762 
L 382.254545 236.301905 
L 398.487273 244.191443 
" style="fill:none;stroke:#0e4db3;stroke-linecap:square;stroke-width:3;"/>
   </g>
   <g id="line2d_26">
    <path clip-path="url(#pd3aab7e80e)" d="M 73.832727 250.068729 
L 90.065455 250.061947 
L 106.298182 248.015357 
L 122.530909 250.671926 
L 138.763636 253.390506 
L 154.996364 259.882284 
L 171.229091 261.011092 
L 187.461818 259.28841 
L 203.694545 248.871423 
L 219.927273 242.339551 
L 236.16 242.81738 
L 252.392727 242.148684 
L 268.625455 249.283991 
L 284.858182 253.80379 
L 301.090909 247.608201 
L 317.323636 245.517895 
L 333.556364 245.049221 
L 349.789091 244.069931 
L 366.021818 241.258593 
L 382.254545 243.794391 
L 398.487273 250.068729 
" style="fill:none;stroke:#d44e4e;stroke-linecap:square;stroke-width:3;"/>
   </g>
   <g id="line2d_27">
    <path clip-path="url(#pd3aab7e80e)" d="M 73.832727 242.871706 
L 90.065455 242.59576 
L 106.298182 247.043234 
L 122.530909 248.286155 
L 138.763636 257.117445 
L 154.996364 263.17015 
L 171.229091 256.987642 
L 187.461818 249.057136 
L 203.694545 245.783312 
L 219.927273 254.094877 
L 236.16 253.101798 
L 252.392727 253.135491 
L 268.625455 257.881463 
L 284.858182 261.440813 
L 301.090909 255.718363 
L 317.323636 254.672903 
L 333.556364 249.233995 
L 349.789091 249.008916 
L 366.021818 245.8802 
L 382.254545 243.045556 
L 398.487273 242.871706 
" style="fill:none;stroke:#0e4db3;stroke-linecap:square;stroke-width:3;"/>
   </g>
   <g id="line2d_28">
    <path clip-path="url(#pd3aab7e80e)" d="M 73.832727 249.565426 
L 90.065455 248.398379 
L 106.298182 252.941296 
L 122.530909 251.343994 
L 138.763636 260.885929 
L 154.996364 265.581931 
L 171.229091 260.461054 
L 187.461818 253.88908 
L 203.694545 251.363963 
L 219.927273 258.319533 
L 236.16 257.528564 
L 252.392727 257.379816 
L 268.625455 261.385548 
L 284.858182 263.902644 
L 301.090909 259.896615 
L 317.323636 258.446926 
L 333.556364 254.609398 
L 349.789091 253.671265 
L 366.021818 251.501513 
L 382.254545 248.38046 
L 398.487273 249.565426 
" style="fill:none;stroke:#d44e4e;stroke-linecap:square;stroke-width:3;"/>
   </g>
   <g id="line2d_29">
    <path clip-path="url(#pd3aab7e80e)" d="M 73.832727 222.597046 
L 90.065455 222.507535 
L 106.298182 221.0995 
L 122.530909 221.948318 
L 138.763636 221.86057 
L 154.996364 221.905837 
L 171.229091 221.053762 
L 187.461818 221.689259 
L 203.694545 218.769333 
L 219.927273 220.074007 
L 236.16 220.327037 
L 252.392727 220.27228 
L 268.625455 221.328682 
L 284.858182 222.136333 
L 301.090909 221.445614 
L 317.323636 221.783527 
L 333.556364 221.543907 
L 349.789091 222.251968 
L 366.021818 221.2321 
L 382.254545 221.866382 
L 398.487273 222.597046 
" style="fill:none;stroke:#0e4db3;stroke-linecap:square;stroke-width:3;"/>
   </g>
   <g id="line2d_30">
    <path clip-path="url(#pd3aab7e80e)" d="M 73.832727 232.697239 
L 90.065455 232.260927 
L 106.298182 231.350027 
L 122.530909 231.90984 
L 138.763636 231.895853 
L 154.996364 231.921085 
L 171.229091 231.260337 
L 187.461818 231.869287 
L 203.694545 229.476181 
L 219.927273 230.663588 
L 236.16 230.793186 
L 252.392727 230.765634 
L 268.625455 230.775806 
L 284.858182 231.801802 
L 301.090909 231.228034 
L 317.323636 231.676342 
L 333.556364 231.610321 
L 349.789091 232.230466 
L 366.021818 231.416036 
L 382.254545 232.041249 
L 398.487273 232.697239 
" style="fill:none;stroke:#d44e4e;stroke-linecap:square;stroke-width:3;"/>
   </g>
   <g id="line2d_31">
    <path clip-path="url(#pd3aab7e80e)" d="M 73.832727 254.970124 
L 90.065455 249.417617 
L 106.298182 249.369426 
L 122.530909 252.749668 
L 138.763636 253.216429 
L 154.996364 251.893504 
L 171.229091 251.819075 
L 187.461818 251.629368 
L 203.694545 256.002171 
L 219.927273 255.885831 
L 236.16 256.896978 
L 252.392727 263.225932 
L 268.625455 269.984972 
L 284.858182 272.536259 
L 301.090909 272.606202 
L 317.323636 271.592736 
L 333.556364 270.492337 
L 349.789091 268.78456 
L 366.021818 261.770021 
L 382.254545 255.017795 
L 398.487273 254.970124 
" style="fill:none;stroke:#0e4db3;stroke-linecap:square;stroke-width:3;"/>
   </g>
   <g id="line2d_32">
    <path clip-path="url(#pd3aab7e80e)" d="M 73.832727 259.264455 
L 90.065455 254.813201 
L 106.298182 254.987709 
L 122.530909 256.172201 
L 138.763636 257.94731 
L 154.996364 256.792526 
L 171.229091 256.656409 
L 187.461818 256.371172 
L 203.694545 259.880528 
L 219.927273 259.887868 
L 236.16 260.810852 
L 252.392727 265.81457 
L 268.625455 271.238489 
L 284.858182 273.116873 
L 301.090909 273.145111 
L 317.323636 272.274221 
L 333.556364 271.499861 
L 349.789091 270.044296 
L 366.021818 264.321879 
L 382.254545 258.797654 
L 398.487273 259.264455 
" style="fill:none;stroke:#d44e4e;stroke-linecap:square;stroke-width:3;"/>
   </g>
   <g id="line2d_33">
    <path clip-path="url(#pd3aab7e80e)" d="M 73.832727 204.289473 
L 90.065455 204.278295 
L 106.298182 204.124259 
L 122.530909 205.922911 
L 138.763636 205.375324 
L 154.996364 205.667685 
L 171.229091 205.786093 
L 187.461818 206.354242 
L 203.694545 204.411764 
L 219.927273 205.630023 
L 236.16 205.701105 
L 252.392727 205.375603 
L 268.625455 205.49385 
L 284.858182 207.64599 
L 301.090909 205.937971 
L 317.323636 205.842624 
L 333.556364 205.364997 
L 349.789091 205.412155 
L 366.021818 204.167386 
L 382.254545 204.276794 
L 398.487273 204.289473 
" style="fill:none;stroke:#0e4db3;stroke-linecap:square;stroke-width:3;"/>
   </g>
   <g id="line2d_34">
    <path clip-path="url(#pd3aab7e80e)" d="M 73.832727 219.459493 
L 90.065455 219.457564 
L 106.298182 219.292866 
L 122.530909 220.56853 
L 138.763636 219.930329 
L 154.996364 220.500053 
L 171.229091 220.33582 
L 187.461818 221.170769 
L 203.694545 219.380825 
L 219.927273 220.606478 
L 236.16 220.736535 
L 252.392727 220.315463 
L 268.625455 219.628956 
L 284.858182 220.765811 
L 301.090909 220.173088 
L 317.323636 220.175333 
L 333.556364 219.978052 
L 349.789091 220.199895 
L 366.021818 219.131039 
L 382.254545 219.363371 
L 398.487273 219.459493 
" style="fill:none;stroke:#d44e4e;stroke-linecap:square;stroke-width:3;"/>
   </g>
   <g id="line2d_35">
    <path clip-path="url(#pd3aab7e80e)" d="M 73.832727 285.408 
L 90.065455 285.408 
L 106.298182 285.408 
L 122.530909 285.408 
L 138.763636 285.408 
L 154.996364 285.408 
L 171.229091 285.408 
L 187.461818 285.408 
L 203.694545 285.408 
L 219.927273 285.408 
L 236.16 285.408 
L 252.392727 285.408 
L 268.625455 284.229061 
L 284.858182 285.07069 
L 301.090909 285.408 
L 317.323636 285.408 
L 333.556364 285.408 
L 349.789091 285.408 
L 366.021818 285.408 
L 382.254545 285.408 
L 398.487273 285.408 
" style="fill:none;stroke:#0e4db3;stroke-linecap:square;stroke-width:3;"/>
   </g>
   <g id="line2d_36">
    <path clip-path="url(#pd3aab7e80e)" d="M 73.832727 285.408 
L 90.065455 285.408 
L 106.298182 285.408 
L 122.530909 285.408 
L 138.763636 285.408 
L 154.996364 285.408 
L 171.229091 285.408 
L 187.461818 285.408 
L 203.694545 285.408 
L 219.927273 285.408 
L 236.16 285.408 
L 252.392727 285.408 
L 268.625455 285.408 
L 284.858182 285.408 
L 301.090909 285.408 
L 317.323636 285.408 
L 333.556364 285.408 
L 349.789091 285.408 
L 366.021818 285.408 
L 382.254545 285.408 
L 398.487273 285.408 
" style="fill:none;stroke:#d44e4e;stroke-linecap:square;stroke-width:3;"/>
   </g>
   <g id="line2d_37">
    <path clip-path="url(#pd3aab7e80e)" d="M 73.832727 253.746438 
L 90.065455 230.534486 
L 106.298182 236.087691 
L 122.530909 242.368009 
L 138.763636 243.564878 
L 154.996364 260.236972 
L 171.229091 265.762718 
L 187.461818 265.635681 
L 203.694545 248.628007 
L 219.927273 233.041677 
L 236.16 233.914723 
L 252.392727 232.50742 
L 268.625455 241.316771 
L 284.858182 251.067787 
L 301.090909 241.816657 
L 317.323636 237.658111 
L 333.556364 236.713952 
L 349.789091 240.215996 
L 366.021818 227.583869 
L 382.254545 238.782586 
L 398.487273 253.746438 
" style="fill:none;stroke:#0e4db3;stroke-linecap:square;stroke-width:3;"/>
   </g>
   <g id="line2d_38">
    <path clip-path="url(#pd3aab7e80e)" d="M 73.832727 260.465063 
L 90.065455 241.671624 
L 106.298182 245.110655 
L 122.530909 250.962957 
L 138.763636 252.56006 
L 154.996364 266.017329 
L 171.229091 270.445623 
L 187.461818 268.668164 
L 203.694545 255.313781 
L 219.927273 243.954062 
L 236.16 244.604539 
L 252.392727 243.474251 
L 268.625455 250.305837 
L 284.858182 258.192026 
L 301.090909 250.686487 
L 317.323636 247.392591 
L 333.556364 246.741321 
L 349.789091 248.745565 
L 366.021818 239.166086 
L 382.254545 248.126378 
L 398.487273 260.465063 
" style="fill:none;stroke:#d44e4e;stroke-linecap:square;stroke-width:3;"/>
   </g>
   <g id="line2d_39">
    <path clip-path="url(#pd3aab7e80e)" d="M 73.832727 271.799388 
L 90.065455 260.971513 
L 106.298182 264.653277 
L 122.530909 264.358197 
L 138.763636 266.895182 
L 154.996364 268.122717 
L 171.229091 271.135081 
L 187.461818 274.144242 
L 203.694545 272.819084 
L 219.927273 267.244703 
L 236.16 267.687252 
L 252.392727 267.53529 
L 268.625455 269.427977 
L 284.858182 264.453084 
L 301.090909 268.45234 
L 317.323636 274.155022 
L 333.556364 274.202679 
L 349.789091 271.274948 
L 366.021818 269.254111 
L 382.254545 268.973033 
L 398.487273 271.799388 
" style="fill:none;stroke:#0e4db3;stroke-linecap:square;stroke-width:3;"/>
   </g>
   <g id="line2d_40">
    <path clip-path="url(#pd3aab7e80e)" d="M 73.832727 275.256294 
L 90.065455 264.819595 
L 106.298182 267.850189 
L 122.530909 268.902717 
L 138.763636 271.21611 
L 154.996364 272.347088 
L 171.229091 274.350353 
L 187.461818 276.966273 
L 203.694545 275.612948 
L 219.927273 271.51066 
L 236.16 271.837449 
L 252.392727 271.718574 
L 268.625455 273.093507 
L 284.858182 269.119646 
L 301.090909 272.474038 
L 317.323636 276.710588 
L 333.556364 276.863801 
L 349.789091 274.546722 
L 366.021818 272.819354 
L 382.254545 272.709392 
L 398.487273 275.256294 
" style="fill:none;stroke:#d44e4e;stroke-linecap:square;stroke-width:3;"/>
   </g>
   <g id="line2d_41">
    <path clip-path="url(#pd3aab7e80e)" d="M 73.832727 270.059435 
L 90.065455 262.7279 
L 106.298182 253.264509 
L 122.530909 249.827394 
L 138.763636 244.964173 
L 154.996364 243.038789 
L 171.229091 248.064125 
L 187.461818 254.877575 
L 203.694545 256.17462 
L 219.927273 247.720543 
L 236.16 247.669613 
L 252.392727 251.689024 
L 268.625455 249.766106 
L 284.858182 256.354223 
L 301.090909 259.054666 
L 317.323636 275.779907 
L 333.556364 274.953319 
L 349.789091 275.671603 
L 366.021818 268.192715 
L 382.254545 270.138033 
L 398.487273 270.059435 
" style="fill:none;stroke:#0e4db3;stroke-linecap:square;stroke-width:3;"/>
   </g>
   <g id="line2d_42">
    <path clip-path="url(#pd3aab7e80e)" d="M 73.832727 272.985009 
L 90.065455 267.260232 
L 106.298182 255.080466 
L 122.530909 255.91022 
L 138.763636 253.451465 
L 154.996364 251.847049 
L 171.229091 255.733761 
L 187.461818 260.050122 
L 203.694545 261.759143 
L 219.927273 255.313322 
L 236.16 255.310971 
L 252.392727 258.267686 
L 268.625455 256.657315 
L 284.858182 261.594773 
L 301.090909 263.455713 
L 317.323636 277.979294 
L 333.556364 277.079199 
L 349.789091 276.874699 
L 366.021818 270.402549 
L 382.254545 272.535161 
L 398.487273 272.985009 
" style="fill:none;stroke:#d44e4e;stroke-linecap:square;stroke-width:3;"/>
   </g>
   <g id="line2d_43">
    <path clip-path="url(#pd3aab7e80e)" d="M 73.832727 255.18842 
L 90.065455 254.958683 
L 106.298182 254.869691 
L 122.530909 257.810195 
L 138.763636 254.933256 
L 154.996364 261.711595 
L 171.229091 262.360425 
L 187.461818 262.493958 
L 203.694545 262.039553 
L 219.927273 261.783012 
L 236.16 261.575286 
L 252.392727 258.207374 
L 268.625455 256.469952 
L 284.858182 259.205059 
L 301.090909 254.777405 
L 317.323636 254.884974 
L 333.556364 254.905356 
L 349.789091 255.620008 
L 366.021818 252.741372 
L 382.254545 254.994395 
L 398.487273 255.18842 
" style="fill:none;stroke:#0e4db3;stroke-linecap:square;stroke-width:3;"/>
   </g>
   <g id="line2d_44">
    <path clip-path="url(#pd3aab7e80e)" d="M 73.832727 259.689373 
L 90.065455 257.957535 
L 106.298182 257.84974 
L 122.530909 258.928378 
L 138.763636 259.650116 
L 154.996364 264.897838 
L 171.229091 265.284547 
L 187.461818 265.388448 
L 203.694545 265.335342 
L 219.927273 265.161292 
L 236.16 265.185333 
L 252.392727 261.807872 
L 268.625455 260.667574 
L 284.858182 262.659882 
L 301.090909 259.311952 
L 317.323636 259.321305 
L 333.556364 259.325104 
L 349.789091 260.078513 
L 366.021818 257.44272 
L 382.254545 259.389559 
L 398.487273 259.689373 
" style="fill:none;stroke:#d44e4e;stroke-linecap:square;stroke-width:3;"/>
   </g>
   <g id="line2d_45">
    <path clip-path="url(#pd3aab7e80e)" d="M 73.832727 285.408 
L 90.065455 285.408 
L 106.298182 285.408 
L 122.530909 285.408 
L 138.763636 285.408 
L 154.996364 285.408 
L 171.229091 285.408 
L 187.461818 285.408 
L 203.694545 285.408 
L 219.927273 285.408 
L 236.16 285.408 
L 252.392727 285.408 
L 268.625455 285.408 
L 284.858182 285.408 
L 301.090909 285.408 
L 317.323636 285.408 
L 333.556364 285.408 
L 349.789091 285.408 
L 366.021818 285.408 
L 382.254545 285.408 
L 398.487273 285.408 
" style="fill:none;stroke:#0e4db3;stroke-linecap:square;stroke-width:3;"/>
   </g>
   <g id="line2d_46">
    <path clip-path="url(#pd3aab7e80e)" d="M 73.832727 285.408 
L 90.065455 285.408 
L 106.298182 285.408 
L 122.530909 285.408 
L 138.763636 285.408 
L 154.996364 285.408 
L 171.229091 285.408 
L 187.461818 285.408 
L 203.694545 285.408 
L 219.927273 285.408 
L 236.16 285.408 
L 252.392727 285.408 
L 268.625455 285.408 
L 284.858182 285.408 
L 301.090909 285.408 
L 317.323636 285.408 
L 333.556364 285.408 
L 349.789091 285.408 
L 366.021818 285.408 
L 382.254545 285.408 
L 398.487273 285.408 
" style="fill:none;stroke:#d44e4e;stroke-linecap:square;stroke-width:3;"/>
   </g>
   <g id="line2d_47">
    <path clip-path="url(#pd3aab7e80e)" d="M 73.832727 245.245854 
L 90.065455 208.549422 
L 106.298182 209.555328 
L 122.530909 206.622239 
L 138.763636 192.700083 
L 154.996364 203.32082 
L 171.229091 227.239474 
L 187.461818 263.339755 
L 203.694545 246.218253 
L 219.927273 231.169028 
L 236.16 228.985695 
L 252.392727 213.467676 
L 268.625455 201.074487 
L 284.858182 193.735525 
L 301.090909 206.061273 
L 317.323636 230.776265 
L 333.556364 271.172004 
L 349.789091 285.408 
L 366.021818 273.30113 
L 382.254545 243.110197 
L 398.487273 245.245854 
" style="fill:none;stroke:#0e4db3;stroke-linecap:square;stroke-width:3;"/>
   </g>
   <g id="line2d_48">
    <path clip-path="url(#pd3aab7e80e)" d="M 73.832727 285.408 
L 90.065455 255.034892 
L 106.298182 257.80902 
L 122.530909 248.208364 
L 138.763636 271.47031 
L 154.996364 282.57616 
L 171.229091 285.408 
L 187.461818 285.408 
L 203.694545 285.408 
L 219.927273 285.408 
L 236.16 284.526019 
L 252.392727 271.717344 
L 268.625455 263.823948 
L 284.858182 265.422343 
L 301.090909 272.899945 
L 317.323636 285.408 
L 333.556364 285.408 
L 349.789091 285.408 
L 366.021818 285.408 
L 382.254545 285.408 
L 398.487273 285.408 
" style="fill:none;stroke:#d44e4e;stroke-linecap:square;stroke-width:3;"/>
   </g>
   <g id="line2d_49">
    <path clip-path="url(#pd3aab7e80e)" d="M 73.832727 285.408 
L 90.065455 285.408 
L 106.298182 285.408 
L 122.530909 285.408 
L 138.763636 285.408 
L 154.996364 285.408 
L 171.229091 285.408 
L 187.461818 285.408 
L 203.694545 285.408 
L 219.927273 285.408 
L 236.16 285.408 
L 252.392727 285.408 
L 268.625455 285.408 
L 284.858182 285.408 
L 301.090909 285.408 
L 317.323636 285.408 
L 333.556364 285.408 
L 349.789091 285.408 
L 366.021818 285.408 
L 382.254545 285.408 
L 398.487273 285.408 
" style="fill:none;stroke:#0e4db3;stroke-linecap:square;stroke-width:3;"/>
   </g>
   <g id="line2d_50">
    <path clip-path="url(#pd3aab7e80e)" d="M 73.832727 285.408 
L 90.065455 285.408 
L 106.298182 285.408 
L 122.530909 285.408 
L 138.763636 285.408 
L 154.996364 285.408 
L 171.229091 285.408 
L 187.461818 285.408 
L 203.694545 285.408 
L 219.927273 285.408 
L 236.16 285.408 
L 252.392727 285.408 
L 268.625455 285.408 
L 284.858182 285.408 
L 301.090909 285.408 
L 317.323636 285.408 
L 333.556364 285.408 
L 349.789091 285.408 
L 366.021818 285.408 
L 382.254545 285.408 
L 398.487273 285.408 
" style="fill:none;stroke:#d44e4e;stroke-linecap:square;stroke-width:3;"/>
   </g>
   <g id="line2d_51">
    <path clip-path="url(#pd3aab7e80e)" d="M 73.832727 285.408 
L 90.065455 285.408 
L 106.298182 285.408 
L 122.530909 285.408 
L 138.763636 285.408 
L 154.996364 285.408 
L 171.229091 285.408 
L 187.461818 285.408 
L 203.694545 285.408 
L 219.927273 285.408 
L 236.16 285.408 
L 252.392727 285.408 
L 268.625455 285.408 
L 284.858182 285.408 
L 301.090909 285.408 
L 317.323636 285.408 
L 333.556364 285.408 
L 349.789091 285.408 
L 366.021818 285.408 
L 382.254545 285.408 
L 398.487273 285.408 
" style="fill:none;stroke:#0e4db3;stroke-linecap:square;stroke-width:3;"/>
   </g>
   <g id="line2d_52">
    <path clip-path="url(#pd3aab7e80e)" d="M 73.832727 285.408 
L 90.065455 285.408 
L 106.298182 285.408 
L 122.530909 285.408 
L 138.763636 285.408 
L 154.996364 285.408 
L 171.229091 285.408 
L 187.461818 285.408 
L 203.694545 285.408 
L 219.927273 285.408 
L 236.16 285.408 
L 252.392727 285.408 
L 268.625455 285.408 
L 284.858182 285.408 
L 301.090909 285.408 
L 317.323636 285.408 
L 333.556364 285.408 
L 349.789091 285.408 
L 366.021818 285.408 
L 382.254545 285.408 
L 398.487273 285.408 
" style="fill:none;stroke:#d44e4e;stroke-linecap:square;stroke-width:3;"/>
   </g>
   <g id="line2d_53">
    <path clip-path="url(#pd3aab7e80e)" d="M 73.832727 148.334617 
L 90.065455 190.676368 
L 106.298182 231.465762 
L 122.530909 237.444043 
L 138.763636 235.123275 
L 154.996364 236.578611 
L 171.229091 233.849425 
L 187.461818 240.953235 
L 203.694545 247.751528 
L 219.927273 222.054334 
L 236.16 215.574567 
L 252.392727 207.916679 
L 268.625455 226.532542 
L 284.858182 206.683565 
L 301.090909 178.098632 
L 317.323636 142.247676 
L 333.556364 113.889189 
L 349.789091 119.928618 
L 366.021818 127.097472 
L 382.254545 136.457878 
L 398.487273 148.334617 
" style="fill:none;stroke:#0e4db3;stroke-linecap:square;stroke-width:3;"/>
   </g>
   <g id="line2d_54">
    <path clip-path="url(#pd3aab7e80e)" d="M 73.832727 285.408 
L 90.065455 285.408 
L 106.298182 285.408 
L 122.530909 285.408 
L 138.763636 285.408 
L 154.996364 285.408 
L 171.229091 285.408 
L 187.461818 285.408 
L 203.694545 285.408 
L 219.927273 285.408 
L 236.16 285.408 
L 252.392727 285.408 
L 268.625455 285.408 
L 284.858182 285.408 
L 301.090909 285.408 
L 317.323636 247.901731 
L 333.556364 265.989804 
L 349.789091 249.243444 
L 366.021818 245.959054 
L 382.254545 261.438875 
L 398.487273 285.408 
" style="fill:none;stroke:#d44e4e;stroke-linecap:square;stroke-width:3;"/>
   </g>
   <g id="line2d_55">
    <path clip-path="url(#pd3aab7e80e)" d="M 73.832727 285.408 
L 90.065455 285.408 
L 106.298182 285.408 
L 122.530909 285.408 
L 138.763636 285.408 
L 154.996364 285.408 
L 171.229091 285.408 
L 187.461818 285.408 
L 203.694545 285.408 
L 219.927273 285.408 
L 236.16 285.408 
L 252.392727 285.408 
L 268.625455 285.408 
L 284.858182 285.408 
L 301.090909 285.408 
L 317.323636 285.408 
L 333.556364 285.408 
L 349.789091 285.408 
L 366.021818 285.408 
L 382.254545 285.408 
L 398.487273 285.408 
" style="fill:none;stroke:#0e4db3;stroke-linecap:square;stroke-width:3;"/>
   </g>
   <g id="line2d_56">
    <path clip-path="url(#pd3aab7e80e)" d="M 73.832727 285.408 
L 90.065455 285.408 
L 106.298182 285.408 
L 122.530909 285.408 
L 138.763636 285.408 
L 154.996364 285.408 
L 171.229091 285.408 
L 187.461818 285.408 
L 203.694545 285.408 
L 219.927273 285.408 
L 236.16 285.408 
L 252.392727 285.408 
L 268.625455 285.408 
L 284.858182 285.408 
L 301.090909 285.408 
L 317.323636 285.408 
L 333.556364 285.408 
L 349.789091 285.408 
L 366.021818 285.408 
L 382.254545 285.408 
L 398.487273 285.408 
" style="fill:none;stroke:#d44e4e;stroke-linecap:square;stroke-width:3;"/>
   </g>
   <g id="line2d_57">
    <path clip-path="url(#pd3aab7e80e)" d="M 73.832727 285.408 
L 90.065455 285.408 
L 106.298182 285.408 
L 122.530909 285.408 
L 138.763636 285.408 
L 154.996364 285.408 
L 171.229091 285.408 
L 187.461818 285.408 
L 203.694545 285.408 
L 219.927273 285.408 
L 236.16 285.408 
L 252.392727 285.408 
L 268.625455 285.408 
L 284.858182 285.408 
L 301.090909 285.408 
L 317.323636 285.408 
L 333.556364 285.408 
L 349.789091 285.408 
L 366.021818 285.408 
L 382.254545 285.408 
L 398.487273 285.408 
" style="fill:none;stroke:#0e4db3;stroke-linecap:square;stroke-width:3;"/>
   </g>
   <g id="line2d_58">
    <path clip-path="url(#pd3aab7e80e)" d="M 73.832727 285.408 
L 90.065455 285.408 
L 106.298182 285.408 
L 122.530909 285.408 
L 138.763636 285.408 
L 154.996364 285.408 
L 171.229091 285.408 
L 187.461818 285.408 
L 203.694545 285.408 
L 219.927273 285.408 
L 236.16 285.408 
L 252.392727 285.408 
L 268.625455 285.408 
L 284.858182 285.408 
L 301.090909 285.408 
L 317.323636 285.408 
L 333.556364 285.408 
L 349.789091 285.408 
L 366.021818 285.408 
L 382.254545 285.408 
L 398.487273 285.408 
" style="fill:none;stroke:#d44e4e;stroke-linecap:square;stroke-width:3;"/>
   </g>
   <g id="line2d_59">
    <path clip-path="url(#pd3aab7e80e)" d="M 73.832727 268.127864 
L 90.065455 268.187018 
L 106.298182 271.591558 
L 122.530909 276.186059 
L 138.763636 276.136957 
L 154.996364 276.920066 
L 171.229091 271.305375 
L 187.461818 257.964867 
L 203.694545 230.114581 
L 219.927273 210.346207 
L 236.16 235.055827 
L 252.392727 198.799411 
L 268.625455 203.392696 
L 284.858182 205.028814 
L 301.090909 205.380627 
L 317.323636 217.080697 
L 333.556364 224.443551 
L 349.789091 237.583307 
L 366.021818 244.446328 
L 382.254545 256.210558 
L 398.487273 268.127864 
" style="fill:none;stroke:#0e4db3;stroke-linecap:square;stroke-width:3;"/>
   </g>
   <g id="line2d_60">
    <path clip-path="url(#pd3aab7e80e)" d="M 73.832727 284.566985 
L 90.065455 279.193442 
L 106.298182 284.142578 
L 122.530909 281.446358 
L 138.763636 281.181653 
L 154.996364 281.556957 
L 171.229091 284.620769 
L 187.461818 284.801674 
L 203.694545 284.702766 
L 219.927273 260.776754 
L 236.16 284.253785 
L 252.392727 250.565784 
L 268.625455 257.338032 
L 284.858182 265.103094 
L 301.090909 269.093812 
L 317.323636 264.347119 
L 333.556364 270.883326 
L 349.789091 266.174002 
L 366.021818 271.155274 
L 382.254545 274.205171 
L 398.487273 284.566985 
" style="fill:none;stroke:#d44e4e;stroke-linecap:square;stroke-width:3;"/>
   </g>
   <g id="line2d_61">
    <path clip-path="url(#pd3aab7e80e)" d="M 73.832727 285.408 
L 90.065455 285.408 
L 106.298182 285.408 
L 122.530909 285.408 
L 138.763636 285.408 
L 154.996364 285.408 
L 171.229091 285.408 
L 187.461818 285.408 
L 203.694545 285.408 
L 219.927273 285.408 
L 236.16 285.408 
L 252.392727 285.408 
L 268.625455 285.408 
L 284.858182 285.408 
L 301.090909 285.408 
L 317.323636 285.408 
L 333.556364 285.408 
L 349.789091 285.408 
L 366.021818 285.408 
L 382.254545 285.408 
L 398.487273 285.408 
" style="fill:none;stroke:#0e4db3;stroke-linecap:square;stroke-width:3;"/>
   </g>
   <g id="line2d_62">
    <path clip-path="url(#pd3aab7e80e)" d="M 73.832727 285.408 
L 90.065455 285.408 
L 106.298182 285.408 
L 122.530909 285.408 
L 138.763636 285.408 
L 154.996364 285.408 
L 171.229091 285.408 
L 187.461818 285.408 
L 203.694545 285.408 
L 219.927273 285.408 
L 236.16 285.408 
L 252.392727 285.408 
L 268.625455 285.408 
L 284.858182 285.408 
L 301.090909 285.408 
L 317.323636 285.408 
L 333.556364 285.408 
L 349.789091 285.408 
L 366.021818 285.408 
L 382.254545 285.408 
L 398.487273 285.408 
" style="fill:none;stroke:#d44e4e;stroke-linecap:square;stroke-width:3;"/>
   </g>
   <g id="line2d_63">
    <path clip-path="url(#pd3aab7e80e)" d="M 73.832727 285.408 
L 90.065455 285.408 
L 106.298182 285.408 
L 122.530909 285.408 
L 138.763636 285.408 
L 154.996364 285.408 
L 171.229091 285.408 
L 187.461818 285.408 
L 203.694545 285.408 
L 219.927273 285.408 
L 236.16 285.408 
L 252.392727 285.408 
L 268.625455 285.408 
L 284.858182 285.408 
L 301.090909 285.408 
L 317.323636 285.408 
L 333.556364 285.408 
L 349.789091 285.408 
L 366.021818 285.408 
L 382.254545 285.408 
L 398.487273 285.408 
" style="fill:none;stroke:#0e4db3;stroke-linecap:square;stroke-width:3;"/>
   </g>
   <g id="line2d_64">
    <path clip-path="url(#pd3aab7e80e)" d="M 73.832727 285.408 
L 90.065455 285.408 
L 106.298182 285.408 
L 122.530909 285.408 
L 138.763636 285.408 
L 154.996364 285.408 
L 171.229091 285.408 
L 187.461818 285.408 
L 203.694545 285.408 
L 219.927273 285.408 
L 236.16 285.408 
L 252.392727 285.408 
L 268.625455 285.408 
L 284.858182 285.408 
L 301.090909 285.408 
L 317.323636 285.408 
L 333.556364 285.408 
L 349.789091 285.408 
L 366.021818 285.408 
L 382.254545 285.408 
L 398.487273 285.408 
" style="fill:none;stroke:#d44e4e;stroke-linecap:square;stroke-width:3;"/>
   </g>
   <g id="line2d_65">
    <path clip-path="url(#pd3aab7e80e)" d="M 73.832727 285.408 
L 90.065455 285.408 
L 106.298182 285.408 
L 122.530909 285.408 
L 138.763636 285.408 
L 154.996364 285.408 
L 171.229091 285.408 
L 187.461818 285.408 
L 203.694545 285.408 
L 219.927273 285.408 
L 236.16 285.408 
L 252.392727 285.408 
L 268.625455 285.408 
L 284.858182 285.408 
L 301.090909 285.408 
L 317.323636 285.408 
L 333.556364 285.408 
L 349.789091 285.408 
L 366.021818 285.408 
L 382.254545 285.408 
L 398.487273 285.408 
" style="fill:none;stroke:#0e4db3;stroke-linecap:square;stroke-width:3;"/>
   </g>
   <g id="line2d_66">
    <path clip-path="url(#pd3aab7e80e)" d="M 73.832727 285.408 
L 90.065455 285.408 
L 106.298182 285.408 
L 122.530909 285.408 
L 138.763636 285.408 
L 154.996364 285.408 
L 171.229091 285.408 
L 187.461818 285.408 
L 203.694545 285.408 
L 219.927273 285.408 
L 236.16 285.408 
L 252.392727 285.408 
L 268.625455 285.408 
L 284.858182 285.408 
L 301.090909 285.408 
L 317.323636 285.408 
L 333.556364 285.408 
L 349.789091 285.408 
L 366.021818 285.408 
L 382.254545 285.408 
L 398.487273 285.408 
" style="fill:none;stroke:#d44e4e;stroke-linecap:square;stroke-width:3;"/>
   </g>
   <g id="line2d_67">
    <path clip-path="url(#pd3aab7e80e)" d="M 73.832727 285.408 
L 90.065455 285.408 
L 106.298182 285.408 
L 122.530909 285.408 
L 138.763636 285.408 
L 154.996364 285.408 
L 171.229091 285.408 
L 187.461818 285.408 
L 203.694545 285.408 
L 219.927273 285.408 
L 236.16 285.408 
L 252.392727 285.408 
L 268.625455 285.408 
L 284.858182 285.408 
L 301.090909 285.408 
L 317.323636 285.408 
L 333.556364 285.408 
L 349.789091 285.408 
L 366.021818 285.408 
L 382.254545 285.408 
L 398.487273 285.408 
" style="fill:none;stroke:#0e4db3;stroke-linecap:square;stroke-width:3;"/>
   </g>
   <g id="line2d_68">
    <path clip-path="url(#pd3aab7e80e)" d="M 73.832727 285.408 
L 90.065455 285.408 
L 106.298182 285.408 
L 122.530909 285.408 
L 138.763636 285.408 
L 154.996364 285.408 
L 171.229091 285.408 
L 187.461818 285.408 
L 203.694545 285.408 
L 219.927273 285.408 
L 236.16 285.408 
L 252.392727 285.408 
L 268.625455 285.408 
L 284.858182 285.408 
L 301.090909 285.408 
L 317.323636 285.408 
L 333.556364 285.408 
L 349.789091 285.408 
L 366.021818 285.408 
L 382.254545 285.408 
L 398.487273 285.408 
" style="fill:none;stroke:#d44e4e;stroke-linecap:square;stroke-width:3;"/>
   </g>
   <g id="line2d_69">
    <path clip-path="url(#pd3aab7e80e)" d="M 73.832727 235.5718 
L 90.065455 220.5029 
L 106.298182 194.209543 
L 122.530909 198.28458 
L 138.763636 174.534339 
L 154.996364 176.226368 
L 171.229091 192.795212 
L 187.461818 227.031301 
L 203.694545 210.94896 
L 219.927273 210.673507 
L 236.16 229.200728 
L 252.392727 218.105409 
L 268.625455 222.694811 
L 284.858182 237.585438 
L 301.090909 238.862957 
L 317.323636 255.896236 
L 333.556364 248.918677 
L 349.789091 243.513669 
L 366.021818 232.772446 
L 382.254545 232.705011 
L 398.487273 235.5718 
" style="fill:none;stroke:#0e4db3;stroke-linecap:square;stroke-width:3;"/>
   </g>
   <g id="line2d_70">
    <path clip-path="url(#pd3aab7e80e)" d="M 73.832727 285.408 
L 90.065455 285.408 
L 106.298182 285.408 
L 122.530909 285.408 
L 138.763636 285.408 
L 154.996364 285.408 
L 171.229091 285.408 
L 187.461818 285.408 
L 203.694545 285.408 
L 219.927273 285.408 
L 236.16 285.408 
L 252.392727 285.408 
L 268.625455 285.408 
L 284.858182 285.408 
L 301.090909 285.408 
L 317.323636 285.408 
L 333.556364 285.408 
L 349.789091 285.408 
L 366.021818 285.408 
L 382.254545 285.408 
L 398.487273 285.408 
" style="fill:none;stroke:#d44e4e;stroke-linecap:square;stroke-width:3;"/>
   </g>
   <g id="line2d_71">
    <path clip-path="url(#pd3aab7e80e)" d="M 73.832727 285.408 
L 90.065455 285.408 
L 106.298182 285.408 
L 122.530909 285.408 
L 138.763636 285.408 
L 154.996364 285.408 
L 171.229091 285.408 
L 187.461818 285.408 
L 203.694545 285.408 
L 219.927273 285.408 
L 236.16 285.408 
L 252.392727 285.408 
L 268.625455 285.408 
L 284.858182 285.408 
L 301.090909 285.408 
L 317.323636 285.408 
L 333.556364 285.408 
L 349.789091 285.408 
L 366.021818 285.408 
L 382.254545 285.408 
L 398.487273 285.408 
" style="fill:none;stroke:#0e4db3;stroke-linecap:square;stroke-width:3;"/>
   </g>
   <g id="line2d_72">
    <path clip-path="url(#pd3aab7e80e)" d="M 73.832727 285.408 
L 90.065455 285.408 
L 106.298182 285.408 
L 122.530909 285.408 
L 138.763636 285.408 
L 154.996364 285.408 
L 171.229091 285.408 
L 187.461818 285.408 
L 203.694545 285.408 
L 219.927273 285.408 
L 236.16 285.408 
L 252.392727 285.408 
L 268.625455 285.408 
L 284.858182 285.408 
L 301.090909 285.408 
L 317.323636 285.408 
L 333.556364 285.408 
L 349.789091 285.408 
L 366.021818 285.408 
L 382.254545 285.408 
L 398.487273 285.408 
" style="fill:none;stroke:#d44e4e;stroke-linecap:square;stroke-width:3;"/>
   </g>
   <g id="line2d_73">
    <path clip-path="url(#pd3aab7e80e)" d="M 73.832727 285.408 
L 90.065455 285.408 
L 106.298182 285.408 
L 122.530909 285.408 
L 138.763636 285.408 
L 154.996364 285.408 
L 171.229091 285.408 
L 187.461818 285.408 
L 203.694545 285.408 
L 219.927273 285.408 
L 236.16 285.408 
L 252.392727 285.408 
L 268.625455 285.408 
L 284.858182 285.408 
L 301.090909 285.408 
L 317.323636 285.408 
L 333.556364 285.408 
L 349.789091 285.408 
L 366.021818 285.408 
L 382.254545 285.408 
L 398.487273 285.408 
" style="fill:none;stroke:#0e4db3;stroke-linecap:square;stroke-width:3;"/>
   </g>
   <g id="line2d_74">
    <path clip-path="url(#pd3aab7e80e)" d="M 73.832727 285.408 
L 90.065455 285.408 
L 106.298182 285.408 
L 122.530909 285.408 
L 138.763636 285.408 
L 154.996364 285.408 
L 171.229091 285.408 
L 187.461818 285.408 
L 203.694545 285.408 
L 219.927273 285.408 
L 236.16 285.408 
L 252.392727 285.408 
L 268.625455 285.408 
L 284.858182 285.408 
L 301.090909 285.408 
L 317.323636 285.408 
L 333.556364 285.408 
L 349.789091 285.408 
L 366.021818 285.408 
L 382.254545 285.408 
L 398.487273 285.408 
" style="fill:none;stroke:#d44e4e;stroke-linecap:square;stroke-width:3;"/>
   </g>
   <g id="line2d_75">
    <path clip-path="url(#pd3aab7e80e)" d="M 73.832727 285.408 
L 90.065455 285.408 
L 106.298182 285.408 
L 122.530909 285.408 
L 138.763636 285.408 
L 154.996364 285.408 
L 171.229091 285.408 
L 187.461818 285.408 
L 203.694545 285.408 
L 219.927273 285.408 
L 236.16 285.408 
L 252.392727 285.408 
L 268.625455 285.408 
L 284.858182 285.408 
L 301.090909 285.408 
L 317.323636 285.408 
L 333.556364 285.408 
L 349.789091 285.408 
L 366.021818 285.408 
L 382.254545 285.408 
L 398.487273 285.408 
" style="fill:none;stroke:#0e4db3;stroke-linecap:square;stroke-width:3;"/>
   </g>
   <g id="line2d_76">
    <path clip-path="url(#pd3aab7e80e)" d="M 73.832727 285.408 
L 90.065455 285.408 
L 106.298182 285.408 
L 122.530909 285.408 
L 138.763636 285.408 
L 154.996364 285.408 
L 171.229091 285.408 
L 187.461818 285.408 
L 203.694545 285.408 
L 219.927273 285.408 
L 236.16 285.408 
L 252.392727 285.408 
L 268.625455 285.408 
L 284.858182 285.408 
L 301.090909 285.408 
L 317.323636 285.408 
L 333.556364 285.408 
L 349.789091 285.408 
L 366.021818 285.408 
L 382.254545 285.408 
L 398.487273 285.408 
" style="fill:none;stroke:#d44e4e;stroke-linecap:square;stroke-width:3;"/>
   </g>
   <g id="line2d_77">
    <path clip-path="url(#pd3aab7e80e)" d="M 73.832727 247.639719 
L 90.065455 228.647832 
L 106.298182 257.048868 
L 122.530909 255.660905 
L 138.763636 244.343358 
L 154.996364 242.385441 
L 171.229091 231.399921 
L 187.461818 202.404455 
L 203.694545 183.059442 
L 219.927273 170.476081 
L 236.16 185.982296 
L 252.392727 148.41478 
L 268.625455 140.362472 
L 284.858182 166.038655 
L 301.090909 167.408221 
L 317.323636 207.231487 
L 333.556364 225.889701 
L 349.789091 210.448749 
L 366.021818 212.229388 
L 382.254545 217.925657 
L 398.487273 247.639719 
" style="fill:none;stroke:#0e4db3;stroke-linecap:square;stroke-width:3;"/>
   </g>
   <g id="line2d_78">
    <path clip-path="url(#pd3aab7e80e)" d="M 73.832727 285.408 
L 90.065455 285.408 
L 106.298182 285.408 
L 122.530909 285.408 
L 138.763636 285.408 
L 154.996364 285.408 
L 171.229091 285.408 
L 187.461818 285.408 
L 203.694545 285.408 
L 219.927273 285.408 
L 236.16 285.408 
L 252.392727 285.408 
L 268.625455 285.408 
L 284.858182 285.408 
L 301.090909 285.408 
L 317.323636 285.408 
L 333.556364 285.408 
L 349.789091 285.408 
L 366.021818 285.408 
L 382.254545 285.408 
L 398.487273 285.408 
" style="fill:none;stroke:#d44e4e;stroke-linecap:square;stroke-width:3;"/>
   </g>
   <g id="line2d_79">
    <path clip-path="url(#pd3aab7e80e)" d="M 73.832727 285.408 
L 90.065455 285.408 
L 106.298182 285.408 
L 122.530909 285.408 
L 138.763636 285.408 
L 154.996364 285.408 
L 171.229091 285.408 
L 187.461818 285.408 
L 203.694545 285.408 
L 219.927273 285.408 
L 236.16 285.408 
L 252.392727 285.408 
L 268.625455 285.408 
L 284.858182 285.408 
L 301.090909 285.408 
L 317.323636 285.408 
L 333.556364 285.408 
L 349.789091 285.408 
L 366.021818 285.408 
L 382.254545 285.408 
L 398.487273 285.408 
" style="fill:none;stroke:#0e4db3;stroke-linecap:square;stroke-width:3;"/>
   </g>
   <g id="line2d_80">
    <path clip-path="url(#pd3aab7e80e)" d="M 73.832727 285.408 
L 90.065455 285.408 
L 106.298182 285.408 
L 122.530909 285.408 
L 138.763636 285.408 
L 154.996364 285.408 
L 171.229091 285.408 
L 187.461818 285.408 
L 203.694545 285.408 
L 219.927273 285.408 
L 236.16 285.408 
L 252.392727 285.408 
L 268.625455 285.408 
L 284.858182 285.408 
L 301.090909 285.408 
L 317.323636 285.408 
L 333.556364 285.408 
L 349.789091 285.408 
L 366.021818 285.408 
L 382.254545 285.408 
L 398.487273 285.408 
" style="fill:none;stroke:#d44e4e;stroke-linecap:square;stroke-width:3;"/>
   </g>
   <g id="line2d_81">
    <path clip-path="url(#pd3aab7e80e)" d="M 73.832727 189.261517 
L 90.065455 175.060136 
L 106.298182 176.796129 
L 122.530909 189.850488 
L 138.763636 206.121631 
L 154.996364 212.184531 
L 171.229091 203.603585 
L 187.461818 215.763165 
L 203.694545 241.903233 
L 219.927273 257.195027 
L 236.16 261.042283 
L 252.392727 239.454257 
L 268.625455 248.429383 
L 284.858182 246.885951 
L 301.090909 208.061548 
L 317.323636 218.657971 
L 333.556364 211.836241 
L 349.789091 219.671996 
L 366.021818 207.940627 
L 382.254545 202.311813 
L 398.487273 189.261517 
" style="fill:none;stroke:#0e4db3;stroke-linecap:square;stroke-width:3;"/>
   </g>
   <g id="line2d_82">
    <path clip-path="url(#pd3aab7e80e)" d="M 73.832727 285.408 
L 90.065455 269.78113 
L 106.298182 259.438808 
L 122.530909 269.967772 
L 138.763636 285.408 
L 154.996364 285.408 
L 171.229091 267.324992 
L 187.461818 281.5806 
L 203.694545 285.408 
L 219.927273 285.408 
L 236.16 285.408 
L 252.392727 285.408 
L 268.625455 285.408 
L 284.858182 285.408 
L 301.090909 284.486705 
L 317.323636 285.408 
L 333.556364 285.408 
L 349.789091 264.618944 
L 366.021818 255.944759 
L 382.254545 265.509002 
L 398.487273 285.408 
" style="fill:none;stroke:#d44e4e;stroke-linecap:square;stroke-width:3;"/>
   </g>
   <g id="line2d_83">
    <path clip-path="url(#pd3aab7e80e)" d="M 73.832727 210.176584 
L 90.065455 214.592244 
L 106.298182 214.425461 
L 122.530909 212.277856 
L 138.763636 219.190547 
L 154.996364 242.074823 
L 171.229091 252.215147 
L 187.461818 259.400564 
L 203.694545 237.788053 
L 219.927273 189.037149 
L 236.16 167.417699 
L 252.392727 158.832362 
L 268.625455 170.669044 
L 284.858182 183.59125 
L 301.090909 179.550148 
L 317.323636 175.740888 
L 333.556364 189.034699 
L 349.789091 185.544366 
L 366.021818 203.449617 
L 382.254545 207.619989 
L 398.487273 210.176584 
" style="fill:none;stroke:#0e4db3;stroke-linecap:square;stroke-width:3;"/>
   </g>
   <g id="line2d_84">
    <path clip-path="url(#pd3aab7e80e)" d="M 73.832727 226.706625 
L 90.065455 228.766389 
L 106.298182 226.960902 
L 122.530909 228.903684 
L 138.763636 229.548386 
L 154.996364 251.443503 
L 171.229091 262.799137 
L 187.461818 261.328786 
L 203.694545 246.032158 
L 219.927273 214.670391 
L 236.16 197.039407 
L 252.392727 190.175425 
L 268.625455 196.016792 
L 284.858182 207.281858 
L 301.090909 202.064092 
L 317.323636 197.359358 
L 333.556364 207.48149 
L 349.789091 205.302797 
L 366.021818 216.666752 
L 382.254545 207.19027 
L 398.487273 226.706625 
" style="fill:none;stroke:#d44e4e;stroke-linecap:square;stroke-width:3;"/>
   </g>
   <g id="line2d_85">
    <path clip-path="url(#pd3aab7e80e)" d="M 73.832727 285.408 
L 90.065455 285.408 
L 106.298182 285.408 
L 122.530909 285.408 
L 138.763636 285.408 
L 154.996364 285.408 
L 171.229091 285.408 
L 187.461818 285.408 
L 203.694545 285.408 
L 219.927273 285.408 
L 236.16 285.408 
L 252.392727 285.408 
L 268.625455 285.408 
L 284.858182 285.408 
L 301.090909 285.408 
L 317.323636 285.408 
L 333.556364 285.408 
L 349.789091 285.408 
L 366.021818 285.408 
L 382.254545 285.408 
L 398.487273 285.408 
" style="fill:none;stroke:#0e4db3;stroke-linecap:square;stroke-width:3;"/>
   </g>
   <g id="line2d_86">
    <path clip-path="url(#pd3aab7e80e)" d="M 73.832727 285.408 
L 90.065455 285.408 
L 106.298182 285.408 
L 122.530909 285.408 
L 138.763636 285.408 
L 154.996364 285.408 
L 171.229091 285.408 
L 187.461818 285.408 
L 203.694545 285.408 
L 219.927273 285.408 
L 236.16 285.408 
L 252.392727 285.408 
L 268.625455 285.408 
L 284.858182 285.408 
L 301.090909 285.408 
L 317.323636 285.408 
L 333.556364 285.408 
L 349.789091 285.408 
L 366.021818 285.408 
L 382.254545 285.408 
L 398.487273 285.408 
" style="fill:none;stroke:#d44e4e;stroke-linecap:square;stroke-width:3;"/>
   </g>
   <g id="line2d_87">
    <path clip-path="url(#pd3aab7e80e)" d="M 73.832727 285.408 
L 90.065455 285.408 
L 106.298182 285.408 
L 122.530909 285.408 
L 138.763636 285.408 
L 154.996364 285.408 
L 171.229091 285.408 
L 187.461818 285.408 
L 203.694545 285.408 
L 219.927273 285.408 
L 236.16 285.408 
L 252.392727 285.408 
L 268.625455 285.408 
L 284.858182 285.408 
L 301.090909 285.408 
L 317.323636 285.408 
L 333.556364 285.408 
L 349.789091 285.408 
L 366.021818 285.408 
L 382.254545 285.408 
L 398.487273 285.408 
" style="fill:none;stroke:#0e4db3;stroke-linecap:square;stroke-width:3;"/>
   </g>
   <g id="line2d_88">
    <path clip-path="url(#pd3aab7e80e)" d="M 73.832727 285.408 
L 90.065455 285.408 
L 106.298182 285.408 
L 122.530909 285.408 
L 138.763636 285.408 
L 154.996364 285.408 
L 171.229091 285.408 
L 187.461818 285.408 
L 203.694545 285.408 
L 219.927273 285.408 
L 236.16 285.408 
L 252.392727 285.408 
L 268.625455 285.408 
L 284.858182 285.408 
L 301.090909 285.408 
L 317.323636 285.408 
L 333.556364 285.408 
L 349.789091 285.408 
L 366.021818 285.408 
L 382.254545 285.408 
L 398.487273 285.408 
" style="fill:none;stroke:#d44e4e;stroke-linecap:square;stroke-width:3;"/>
   </g>
   <g id="line2d_89">
    <path clip-path="url(#pd3aab7e80e)" d="M 73.832727 285.408 
L 90.065455 285.408 
L 106.298182 285.408 
L 122.530909 274.635305 
L 138.763636 265.286577 
L 154.996364 262.608066 
L 171.229091 271.095056 
L 187.461818 256.375318 
L 203.694545 227.527903 
L 219.927273 212.896947 
L 236.16 278.922513 
L 252.392727 175.858142 
L 268.625455 143.876375 
L 284.858182 149.188732 
L 301.090909 151.327325 
L 317.323636 191.559636 
L 333.556364 230.567044 
L 349.789091 272.669174 
L 366.021818 285.408 
L 382.254545 285.408 
L 398.487273 285.408 
" style="fill:none;stroke:#0e4db3;stroke-linecap:square;stroke-width:3;"/>
   </g>
   <g id="line2d_90">
    <path clip-path="url(#pd3aab7e80e)" d="M 73.832727 285.408 
L 90.065455 285.408 
L 106.298182 285.408 
L 122.530909 285.408 
L 138.763636 285.408 
L 154.996364 285.408 
L 171.229091 285.408 
L 187.461818 285.408 
L 203.694545 278.242742 
L 219.927273 272.469351 
L 236.16 285.408 
L 252.392727 247.754211 
L 268.625455 240.926095 
L 284.858182 227.920654 
L 301.090909 233.889478 
L 317.323636 253.617311 
L 333.556364 267.639842 
L 349.789091 285.408 
L 366.021818 285.408 
L 382.254545 285.408 
L 398.487273 285.408 
" style="fill:none;stroke:#d44e4e;stroke-linecap:square;stroke-width:3;"/>
   </g>
   <g id="line2d_91">
    <path clip-path="url(#pd3aab7e80e)" d="M 73.832727 176.589842 
L 90.065455 151.734404 
L 106.298182 140.079558 
L 122.530909 129.332516 
L 138.763636 117.913172 
L 154.996364 133.101621 
L 171.229091 148.071824 
L 187.461818 197.412874 
L 203.694545 203.154924 
L 219.927273 212.038242 
L 236.16 201.767519 
L 252.392727 192.993529 
L 268.625455 198.270041 
L 284.858182 182.594381 
L 301.090909 198.835715 
L 317.323636 206.681015 
L 333.556364 229.242187 
L 349.789091 221.498361 
L 366.021818 213.095543 
L 382.254545 194.991906 
L 398.487273 176.589842 
" style="fill:none;stroke:#0e4db3;stroke-linecap:square;stroke-width:3;"/>
   </g>
   <g id="line2d_92">
    <path clip-path="url(#pd3aab7e80e)" d="M 73.832727 285.408 
L 90.065455 266.385623 
L 106.298182 269.484369 
L 122.530909 247.065145 
L 138.763636 276.834212 
L 154.996364 284.031207 
L 171.229091 284.053207 
L 187.461818 285.408 
L 203.694545 285.408 
L 219.927273 285.408 
L 236.16 285.408 
L 252.392727 285.408 
L 268.625455 285.408 
L 284.858182 285.408 
L 301.090909 285.408 
L 317.323636 285.408 
L 333.556364 285.408 
L 349.789091 285.408 
L 366.021818 285.408 
L 382.254545 285.408 
L 398.487273 285.408 
" style="fill:none;stroke:#d44e4e;stroke-linecap:square;stroke-width:3;"/>
   </g>
   <g id="line2d_93">
    <path clip-path="url(#pd3aab7e80e)" d="M 73.832727 285.408 
L 90.065455 285.408 
L 106.298182 285.408 
L 122.530909 285.408 
L 138.763636 285.408 
L 154.996364 285.408 
L 171.229091 285.408 
L 187.461818 285.408 
L 203.694545 285.408 
L 219.927273 285.408 
L 236.16 285.408 
L 252.392727 285.408 
L 268.625455 285.408 
L 284.858182 285.408 
L 301.090909 285.408 
L 317.323636 285.408 
L 333.556364 285.408 
L 349.789091 285.408 
L 366.021818 285.408 
L 382.254545 285.408 
L 398.487273 285.408 
" style="fill:none;stroke:#0e4db3;stroke-linecap:square;stroke-width:3;"/>
   </g>
   <g id="line2d_94">
    <path clip-path="url(#pd3aab7e80e)" d="M 73.832727 285.408 
L 90.065455 285.408 
L 106.298182 285.408 
L 122.530909 285.408 
L 138.763636 285.408 
L 154.996364 285.408 
L 171.229091 285.408 
L 187.461818 285.408 
L 203.694545 285.408 
L 219.927273 285.408 
L 236.16 285.408 
L 252.392727 285.408 
L 268.625455 285.408 
L 284.858182 285.408 
L 301.090909 285.408 
L 317.323636 285.408 
L 333.556364 285.408 
L 349.789091 285.408 
L 366.021818 285.408 
L 382.254545 285.408 
L 398.487273 285.408 
" style="fill:none;stroke:#d44e4e;stroke-linecap:square;stroke-width:3;"/>
   </g>
   <g id="line2d_95">
    <path clip-path="url(#pd3aab7e80e)" d="M 73.832727 118.352616 
L 90.065455 145.57478 
L 106.298182 175.527517 
L 122.530909 214.495917 
L 138.763636 241.999197 
L 154.996364 264.567659 
L 171.229091 239.818866 
L 187.461818 210.586609 
L 203.694545 181.730472 
L 219.927273 140.51951 
L 236.16 133.425237 
L 252.392727 132.476073 
L 268.625455 147.945526 
L 284.858182 173.270702 
L 301.090909 146.271361 
L 317.323636 162.182764 
L 333.556364 138.518132 
L 349.789091 147.302933 
L 366.021818 130.529103 
L 382.254545 109.124711 
L 398.487273 118.352616 
" style="fill:none;stroke:#0e4db3;stroke-linecap:square;stroke-width:3;"/>
   </g>
   <g id="line2d_96">
    <path clip-path="url(#pd3aab7e80e)" d="M 73.832727 231.878194 
L 90.065455 228.346836 
L 106.298182 249.383946 
L 122.530909 285.408 
L 138.763636 285.408 
L 154.996364 285.408 
L 171.229091 285.408 
L 187.461818 285.408 
L 203.694545 285.408 
L 219.927273 270.653121 
L 236.16 263.143039 
L 252.392727 238.018016 
L 268.625455 248.869571 
L 284.858182 257.769503 
L 301.090909 222.749959 
L 317.323636 220.021098 
L 333.556364 226.439397 
L 349.789091 206.255893 
L 366.021818 192.043199 
L 382.254545 191.115936 
L 398.487273 231.878194 
" style="fill:none;stroke:#d44e4e;stroke-linecap:square;stroke-width:3;"/>
   </g>
   <g id="line2d_97">
    <path clip-path="url(#pd3aab7e80e)" d="M 73.832727 285.408 
L 90.065455 285.408 
L 106.298182 285.408 
L 122.530909 285.408 
L 138.763636 285.408 
L 154.996364 285.408 
L 171.229091 285.408 
L 187.461818 285.408 
L 203.694545 285.408 
L 219.927273 285.408 
L 236.16 285.408 
L 252.392727 285.408 
L 268.625455 285.408 
L 284.858182 285.408 
L 301.090909 285.408 
L 317.323636 285.408 
L 333.556364 285.408 
L 349.789091 285.408 
L 366.021818 285.408 
L 382.254545 285.408 
L 398.487273 285.408 
" style="fill:none;stroke:#0e4db3;stroke-linecap:square;stroke-width:3;"/>
   </g>
   <g id="line2d_98">
    <path clip-path="url(#pd3aab7e80e)" d="M 73.832727 285.408 
L 90.065455 285.408 
L 106.298182 285.408 
L 122.530909 285.408 
L 138.763636 285.408 
L 154.996364 285.408 
L 171.229091 285.408 
L 187.461818 285.408 
L 203.694545 285.408 
L 219.927273 285.408 
L 236.16 285.408 
L 252.392727 285.408 
L 268.625455 285.408 
L 284.858182 285.408 
L 301.090909 285.408 
L 317.323636 285.408 
L 333.556364 285.408 
L 349.789091 285.408 
L 366.021818 285.408 
L 382.254545 285.408 
L 398.487273 285.408 
" style="fill:none;stroke:#d44e4e;stroke-linecap:square;stroke-width:3;"/>
   </g>
   <g id="line2d_99">
    <path clip-path="url(#pd3aab7e80e)" d="M 73.832727 191.949701 
L 90.065455 177.456077 
L 106.298182 169.17256 
L 122.530909 168.026413 
L 138.763636 158.889811 
L 154.996364 161.330026 
L 171.229091 166.545026 
L 187.461818 182.237029 
L 203.694545 189.398477 
L 219.927273 201.52597 
L 236.16 205.737967 
L 252.392727 209.98896 
L 268.625455 216.626776 
L 284.858182 220.802661 
L 301.090909 213.367205 
L 317.323636 208.702286 
L 333.556364 193.41034 
L 349.789091 202.727339 
L 366.021818 190.582243 
L 382.254545 190.81514 
L 398.487273 191.949701 
" style="fill:none;stroke:#0e4db3;stroke-linecap:square;stroke-width:3;"/>
   </g>
   <g id="line2d_100">
    <path clip-path="url(#pd3aab7e80e)" d="M 73.832727 228.877093 
L 90.065455 221.725551 
L 106.298182 221.045984 
L 122.530909 213.424332 
L 138.763636 213.789766 
L 154.996364 220.000307 
L 171.229091 213.700386 
L 187.461818 219.275467 
L 203.694545 228.945992 
L 219.927273 228.19432 
L 236.16 229.841925 
L 252.392727 229.954131 
L 268.625455 228.804498 
L 284.858182 235.625697 
L 301.090909 240.463217 
L 317.323636 234.838251 
L 333.556364 231.397831 
L 349.789091 212.582839 
L 366.021818 203.924869 
L 382.254545 214.139539 
L 398.487273 228.877093 
" style="fill:none;stroke:#d44e4e;stroke-linecap:square;stroke-width:3;"/>
   </g>
   <g id="line2d_101">
    <path clip-path="url(#pd3aab7e80e)" d="M 73.832727 285.408 
L 90.065455 285.408 
L 106.298182 285.408 
L 122.530909 285.408 
L 138.763636 285.408 
L 154.996364 285.408 
L 171.229091 285.408 
L 187.461818 285.408 
L 203.694545 285.408 
L 219.927273 285.408 
L 236.16 285.408 
L 252.392727 285.408 
L 268.625455 285.408 
L 284.858182 285.408 
L 301.090909 285.408 
L 317.323636 285.408 
L 333.556364 285.408 
L 349.789091 285.408 
L 366.021818 285.408 
L 382.254545 285.408 
L 398.487273 285.408 
" style="fill:none;stroke:#0e4db3;stroke-linecap:square;stroke-width:3;"/>
   </g>
   <g id="line2d_102">
    <path clip-path="url(#pd3aab7e80e)" d="M 73.832727 285.408 
L 90.065455 285.408 
L 106.298182 285.408 
L 122.530909 285.408 
L 138.763636 285.408 
L 154.996364 285.408 
L 171.229091 285.408 
L 187.461818 285.408 
L 203.694545 285.408 
L 219.927273 285.408 
L 236.16 285.408 
L 252.392727 285.408 
L 268.625455 285.408 
L 284.858182 285.408 
L 301.090909 285.408 
L 317.323636 285.408 
L 333.556364 285.408 
L 349.789091 285.408 
L 366.021818 285.408 
L 382.254545 285.408 
L 398.487273 285.408 
" style="fill:none;stroke:#d44e4e;stroke-linecap:square;stroke-width:3;"/>
   </g>
   <g id="line2d_103">
    <path clip-path="url(#pd3aab7e80e)" d="M 73.832727 199.851886 
L 90.065455 184.868725 
L 106.298182 182.38534 
L 122.530909 208.646134 
L 138.763636 216.326029 
L 154.996364 219.160328 
L 171.229091 204.316535 
L 187.461818 203.332549 
L 203.694545 210.190409 
L 219.927273 223.942273 
L 236.16 211.863842 
L 252.392727 205.925107 
L 268.625455 178.790127 
L 284.858182 179.174479 
L 301.090909 166.66718 
L 317.323636 168.319264 
L 333.556364 172.298749 
L 349.789091 191.91852 
L 366.021818 191.581599 
L 382.254545 196.404977 
L 398.487273 199.851886 
" style="fill:none;stroke:#0e4db3;stroke-linecap:square;stroke-width:3;"/>
   </g>
   <g id="line2d_104">
    <path clip-path="url(#pd3aab7e80e)" d="M 73.832727 245.083484 
L 90.065455 229.59199 
L 106.298182 223.747225 
L 122.530909 241.658986 
L 138.763636 252.39899 
L 154.996364 249.830037 
L 171.229091 236.544307 
L 187.461818 231.359579 
L 203.694545 231.837703 
L 219.927273 243.247682 
L 236.16 241.335556 
L 252.392727 241.533978 
L 268.625455 228.216891 
L 284.858182 227.716165 
L 301.090909 222.088213 
L 317.323636 222.91325 
L 333.556364 226.793232 
L 349.789091 222.93641 
L 366.021818 212.792383 
L 382.254545 229.290567 
L 398.487273 245.083484 
" style="fill:none;stroke:#d44e4e;stroke-linecap:square;stroke-width:3;"/>
   </g>
   <g id="line2d_105">
    <path clip-path="url(#pd3aab7e80e)" d="M 73.832727 227.917862 
L 90.065455 220.091194 
L 106.298182 189.684524 
L 122.530909 187.626031 
L 138.763636 179.782275 
L 154.996364 194.376046 
L 171.229091 234.492876 
L 187.461818 248.297543 
L 203.694545 257.374066 
L 219.927273 253.724859 
L 236.16 230.700314 
L 252.392727 245.053789 
L 268.625455 223.412481 
L 284.858182 207.466889 
L 301.090909 195.373548 
L 317.323636 212.702035 
L 333.556364 224.464826 
L 349.789091 247.24374 
L 366.021818 236.298624 
L 382.254545 237.385567 
L 398.487273 227.917862 
" style="fill:none;stroke:#0e4db3;stroke-linecap:square;stroke-width:3;"/>
   </g>
   <g id="line2d_106">
    <path clip-path="url(#pd3aab7e80e)" d="M 73.832727 285.408 
L 90.065455 260.9247 
L 106.298182 254.793045 
L 122.530909 247.11302 
L 138.763636 261.650352 
L 154.996364 276.343931 
L 171.229091 285.408 
L 187.461818 285.408 
L 203.694545 285.408 
L 219.927273 285.408 
L 236.16 285.408 
L 252.392727 285.408 
L 268.625455 285.408 
L 284.858182 278.151284 
L 301.090909 262.945009 
L 317.323636 276.649479 
L 333.556364 282.908526 
L 349.789091 257.268696 
L 366.021818 285.408 
L 382.254545 261.077517 
L 398.487273 285.408 
" style="fill:none;stroke:#d44e4e;stroke-linecap:square;stroke-width:3;"/>
   </g>
   <g id="line2d_107">
    <path clip-path="url(#pd3aab7e80e)" d="M 73.832727 285.408 
L 90.065455 285.408 
L 106.298182 285.408 
L 122.530909 285.408 
L 138.763636 285.408 
L 154.996364 285.408 
L 171.229091 285.408 
L 187.461818 285.408 
L 203.694545 285.408 
L 219.927273 285.408 
L 236.16 285.408 
L 252.392727 285.408 
L 268.625455 285.408 
L 284.858182 285.408 
L 301.090909 285.408 
L 317.323636 285.408 
L 333.556364 285.408 
L 349.789091 285.408 
L 366.021818 285.408 
L 382.254545 285.408 
L 398.487273 285.408 
" style="fill:none;stroke:#0e4db3;stroke-linecap:square;stroke-width:3;"/>
   </g>
   <g id="line2d_108">
    <path clip-path="url(#pd3aab7e80e)" d="M 73.832727 285.408 
L 90.065455 285.408 
L 106.298182 285.408 
L 122.530909 285.408 
L 138.763636 285.408 
L 154.996364 285.408 
L 171.229091 285.408 
L 187.461818 285.408 
L 203.694545 285.408 
L 219.927273 285.408 
L 236.16 285.408 
L 252.392727 285.408 
L 268.625455 285.408 
L 284.858182 285.408 
L 301.090909 285.408 
L 317.323636 285.408 
L 333.556364 285.408 
L 349.789091 285.408 
L 366.021818 285.408 
L 382.254545 285.408 
L 398.487273 285.408 
" style="fill:none;stroke:#d44e4e;stroke-linecap:square;stroke-width:3;"/>
   </g>
   <g id="line2d_109">
    <path clip-path="url(#pd3aab7e80e)" d="M 73.832727 285.408 
L 90.065455 285.408 
L 106.298182 285.408 
L 122.530909 285.408 
L 138.763636 285.408 
L 154.996364 285.408 
L 171.229091 285.408 
L 187.461818 285.408 
L 203.694545 285.408 
L 219.927273 285.408 
L 236.16 285.408 
L 252.392727 285.408 
L 268.625455 285.408 
L 284.858182 285.408 
L 301.090909 285.408 
L 317.323636 285.408 
L 333.556364 285.408 
L 349.789091 285.408 
L 366.021818 285.408 
L 382.254545 285.408 
L 398.487273 285.408 
" style="fill:none;stroke:#0e4db3;stroke-linecap:square;stroke-width:3;"/>
   </g>
   <g id="line2d_110">
    <path clip-path="url(#pd3aab7e80e)" d="M 73.832727 285.408 
L 90.065455 285.408 
L 106.298182 285.408 
L 122.530909 285.408 
L 138.763636 285.408 
L 154.996364 285.408 
L 171.229091 285.408 
L 187.461818 285.408 
L 203.694545 285.408 
L 219.927273 285.408 
L 236.16 285.408 
L 252.392727 285.408 
L 268.625455 285.408 
L 284.858182 285.408 
L 301.090909 285.408 
L 317.323636 285.408 
L 333.556364 285.408 
L 349.789091 285.408 
L 366.021818 285.408 
L 382.254545 285.408 
L 398.487273 285.408 
" style="fill:none;stroke:#d44e4e;stroke-linecap:square;stroke-width:3;"/>
   </g>
   <g id="line2d_111">
    <path clip-path="url(#pd3aab7e80e)" d="M 73.832727 233.048916 
L 90.065455 249.141892 
L 106.298182 250.242887 
L 122.530909 261.921108 
L 138.763636 265.024882 
L 154.996364 263.044296 
L 171.229091 257.700995 
L 187.461818 258.245874 
L 203.694545 246.70444 
L 219.927273 243.104348 
L 236.16 236.923787 
L 252.392727 240.187123 
L 268.625455 236.471203 
L 284.858182 238.441339 
L 301.090909 243.019453 
L 317.323636 252.111508 
L 333.556364 247.337059 
L 349.789091 242.233669 
L 366.021818 228.93257 
L 382.254545 225.323301 
L 398.487273 233.048916 
" style="fill:none;stroke:#0e4db3;stroke-linecap:square;stroke-width:3;"/>
   </g>
   <g id="line2d_112">
    <path clip-path="url(#pd3aab7e80e)" d="M 73.832727 192.025063 
L 90.065455 205.020434 
L 106.298182 210.817347 
L 122.530909 218.970174 
L 138.763636 214.131345 
L 154.996364 215.378161 
L 171.229091 218.818092 
L 187.461818 218.971135 
L 203.694545 202.117608 
L 219.927273 196.593054 
L 236.16 196.220753 
L 252.392727 197.852132 
L 268.625455 200.36872 
L 284.858182 204.663591 
L 301.090909 202.746989 
L 317.323636 202.707131 
L 333.556364 202.894383 
L 349.789091 202.026876 
L 366.021818 192.034342 
L 382.254545 191.662345 
L 398.487273 192.025063 
" style="fill:none;stroke:#d44e4e;stroke-linecap:square;stroke-width:3;"/>
   </g>
   <g id="line2d_113">
    <path clip-path="url(#pd3aab7e80e)" d="M 73.832727 226.434776 
L 90.065455 239.481691 
L 106.298182 258.282029 
L 122.530909 253.009711 
L 138.763636 243.708968 
L 154.996364 260.53379 
L 171.229091 269.013719 
L 187.461818 285.408 
L 203.694545 280.305806 
L 219.927273 265.055372 
L 236.16 252.97029 
L 252.392727 230.518515 
L 268.625455 140.668746 
L 284.858182 95.292431 
L 301.090909 63.648 
L 317.323636 88.707343 
L 333.556364 108.511519 
L 349.789091 156.564183 
L 366.021818 190.744182 
L 382.254545 208.442755 
L 398.487273 226.434776 
" style="fill:none;stroke:#0e4db3;stroke-linecap:square;stroke-width:3;"/>
   </g>
   <g id="line2d_114">
    <path clip-path="url(#pd3aab7e80e)" d="M 73.832727 285.408 
L 90.065455 285.408 
L 106.298182 285.408 
L 122.530909 285.408 
L 138.763636 285.408 
L 154.996364 285.408 
L 171.229091 285.408 
L 187.461818 285.408 
L 203.694545 285.408 
L 219.927273 285.408 
L 236.16 285.408 
L 252.392727 285.408 
L 268.625455 272.734378 
L 284.858182 251.793151 
L 301.090909 233.417492 
L 317.323636 214.437414 
L 333.556364 251.838154 
L 349.789091 240.614859 
L 366.021818 266.760951 
L 382.254545 277.575601 
L 398.487273 285.408 
" style="fill:none;stroke:#d44e4e;stroke-linecap:square;stroke-width:3;"/>
   </g>
   <g id="patch_3">
    <path d="M 57.6 307.584 
L 57.6 41.472 
" style="fill:none;stroke:#000000;stroke-linecap:square;stroke-linejoin:miter;stroke-width:2.5;"/>
   </g>
   <g id="patch_4">
    <path d="M 414.72 307.584 
L 414.72 41.472 
" style="fill:none;stroke:#000000;stroke-linecap:square;stroke-linejoin:miter;stroke-width:2.5;"/>
   </g>
   <g id="patch_5">
    <path d="M 57.6 307.584 
L 414.72 307.584 
" style="fill:none;stroke:#000000;stroke-linecap:square;stroke-linejoin:miter;stroke-width:2.5;"/>
   </g>
   <g id="patch_6">
    <path d="M 57.6 41.472 
L 414.72 41.472 
" style="fill:none;stroke:#000000;stroke-linecap:square;stroke-linejoin:miter;stroke-width:2.5;"/>
   </g>
  </g>
 </g>
 <defs>
  <clipPath id="pd3aab7e80e">
   <rect height="266.112" width="357.12" x="57.6" y="41.472"/>
  </clipPath>
 </defs>
</svg>
