<?xml version="1.0" encoding="utf-8" standalone="no"?>
<!DOCTYPE svg PUBLIC "-//W3C//DTD SVG 1.1//EN"
  "http://www.w3.org/Graphics/SVG/1.1/DTD/svg11.dtd">
<!-- Created with matplotlib (https://matplotlib.org/) -->
<svg height="345.6pt" version="1.1" viewBox="0 0 460.8 345.6" width="460.8pt" xmlns="http://www.w3.org/2000/svg" xmlns:xlink="http://www.w3.org/1999/xlink">
 <defs>
  <style type="text/css">
*{stroke-linecap:butt;stroke-linejoin:round;}
  </style>
 </defs>
 <g id="figure_1">
  <g id="patch_1">
   <path d="M 0 345.6 
L 460.8 345.6 
L 460.8 0 
L 0 0 
z
" style="fill:#ffffff;"/>
  </g>
  <g id="axes_1">
   <g id="patch_2">
    <path d="M 57.6 307.584 
L 414.72 307.584 
L 414.72 41.472 
L 57.6 41.472 
z
" style="fill:#ffffff;"/>
   </g>
   <g id="matplotlib.axis_1">
    <g id="xtick_1">
     <g id="line2d_1">
      <defs>
       <path d="M 0 0 
L 0 12 
" id="mef60161965" style="stroke:#000000;stroke-width:2.5;"/>
      </defs>
      <g>
       <use style="stroke:#000000;stroke-width:2.5;" x="73.832727" xlink:href="#mef60161965" y="307.584"/>
      </g>
     </g>
     <g id="text_1">
      <!-- 0 -->
      <defs>
       <path d="M 31.78125 66.40625 
Q 24.171875 66.40625 20.328125 58.90625 
Q 16.5 51.421875 16.5 36.375 
Q 16.5 21.390625 20.328125 13.890625 
Q 24.171875 6.390625 31.78125 6.390625 
Q 39.453125 6.390625 43.28125 13.890625 
Q 47.125 21.390625 47.125 36.375 
Q 47.125 51.421875 43.28125 58.90625 
Q 39.453125 66.40625 31.78125 66.40625 
z
M 31.78125 74.21875 
Q 44.046875 74.21875 50.515625 64.515625 
Q 56.984375 54.828125 56.984375 36.375 
Q 56.984375 17.96875 50.515625 8.265625 
Q 44.046875 -1.421875 31.78125 -1.421875 
Q 19.53125 -1.421875 13.0625 8.265625 
Q 6.59375 17.96875 6.59375 36.375 
Q 6.59375 54.828125 13.0625 64.515625 
Q 19.53125 74.21875 31.78125 74.21875 
z
" id="DejaVuSans-48"/>
      </defs>
      <g transform="translate(57.735602 361.532094)scale(0.506 -0.506)">
       <use xlink:href="#DejaVuSans-48"/>
      </g>
     </g>
    </g>
    <g id="xtick_2">
     <g id="line2d_2">
      <g>
       <use style="stroke:#000000;stroke-width:2.5;" x="254.196364" xlink:href="#mef60161965" y="307.584"/>
      </g>
     </g>
     <g id="text_2">
      <!-- 100 -->
      <defs>
       <path d="M 12.40625 8.296875 
L 28.515625 8.296875 
L 28.515625 63.921875 
L 10.984375 60.40625 
L 10.984375 69.390625 
L 28.421875 72.90625 
L 38.28125 72.90625 
L 38.28125 8.296875 
L 54.390625 8.296875 
L 54.390625 0 
L 12.40625 0 
z
" id="DejaVuSans-49"/>
      </defs>
      <g transform="translate(205.904989 361.532094)scale(0.506 -0.506)">
       <use xlink:href="#DejaVuSans-49"/>
       <use x="63.623047" xlink:href="#DejaVuSans-48"/>
       <use x="127.246094" xlink:href="#DejaVuSans-48"/>
      </g>
     </g>
    </g>
    <g id="text_3">
     <!-- Degrees -->
     <defs>
      <path d="M 19.671875 64.796875 
L 19.671875 8.109375 
L 31.59375 8.109375 
Q 46.6875 8.109375 53.6875 14.9375 
Q 60.6875 21.78125 60.6875 36.53125 
Q 60.6875 51.171875 53.6875 57.984375 
Q 46.6875 64.796875 31.59375 64.796875 
z
M 9.8125 72.90625 
L 30.078125 72.90625 
Q 51.265625 72.90625 61.171875 64.09375 
Q 71.09375 55.28125 71.09375 36.53125 
Q 71.09375 17.671875 61.125 8.828125 
Q 51.171875 0 30.078125 0 
L 9.8125 0 
z
" id="DejaVuSans-68"/>
      <path d="M 56.203125 29.59375 
L 56.203125 25.203125 
L 14.890625 25.203125 
Q 15.484375 15.921875 20.484375 11.0625 
Q 25.484375 6.203125 34.421875 6.203125 
Q 39.59375 6.203125 44.453125 7.46875 
Q 49.3125 8.734375 54.109375 11.28125 
L 54.109375 2.78125 
Q 49.265625 0.734375 44.1875 -0.34375 
Q 39.109375 -1.421875 33.890625 -1.421875 
Q 20.796875 -1.421875 13.15625 6.1875 
Q 5.515625 13.8125 5.515625 26.8125 
Q 5.515625 40.234375 12.765625 48.109375 
Q 20.015625 56 32.328125 56 
Q 43.359375 56 49.78125 48.890625 
Q 56.203125 41.796875 56.203125 29.59375 
z
M 47.21875 32.234375 
Q 47.125 39.59375 43.09375 43.984375 
Q 39.0625 48.390625 32.421875 48.390625 
Q 24.90625 48.390625 20.390625 44.140625 
Q 15.875 39.890625 15.1875 32.171875 
z
" id="DejaVuSans-101"/>
      <path d="M 45.40625 27.984375 
Q 45.40625 37.75 41.375 43.109375 
Q 37.359375 48.484375 30.078125 48.484375 
Q 22.859375 48.484375 18.828125 43.109375 
Q 14.796875 37.75 14.796875 27.984375 
Q 14.796875 18.265625 18.828125 12.890625 
Q 22.859375 7.515625 30.078125 7.515625 
Q 37.359375 7.515625 41.375 12.890625 
Q 45.40625 18.265625 45.40625 27.984375 
z
M 54.390625 6.78125 
Q 54.390625 -7.171875 48.1875 -13.984375 
Q 42 -20.796875 29.203125 -20.796875 
Q 24.46875 -20.796875 20.265625 -20.09375 
Q 16.0625 -19.390625 12.109375 -17.921875 
L 12.109375 -9.1875 
Q 16.0625 -11.328125 19.921875 -12.34375 
Q 23.78125 -13.375 27.78125 -13.375 
Q 36.625 -13.375 41.015625 -8.765625 
Q 45.40625 -4.15625 45.40625 5.171875 
L 45.40625 9.625 
Q 42.625 4.78125 38.28125 2.390625 
Q 33.9375 0 27.875 0 
Q 17.828125 0 11.671875 7.65625 
Q 5.515625 15.328125 5.515625 27.984375 
Q 5.515625 40.671875 11.671875 48.328125 
Q 17.828125 56 27.875 56 
Q 33.9375 56 38.28125 53.609375 
Q 42.625 51.21875 45.40625 46.390625 
L 45.40625 54.6875 
L 54.390625 54.6875 
z
" id="DejaVuSans-103"/>
      <path d="M 41.109375 46.296875 
Q 39.59375 47.171875 37.8125 47.578125 
Q 36.03125 48 33.890625 48 
Q 26.265625 48 22.1875 43.046875 
Q 18.109375 38.09375 18.109375 28.8125 
L 18.109375 0 
L 9.078125 0 
L 9.078125 54.6875 
L 18.109375 54.6875 
L 18.109375 46.1875 
Q 20.953125 51.171875 25.484375 53.578125 
Q 30.03125 56 36.53125 56 
Q 37.453125 56 38.578125 55.875 
Q 39.703125 55.765625 41.0625 55.515625 
z
" id="DejaVuSans-114"/>
      <path d="M 44.28125 53.078125 
L 44.28125 44.578125 
Q 40.484375 46.53125 36.375 47.5 
Q 32.28125 48.484375 27.875 48.484375 
Q 21.1875 48.484375 17.84375 46.4375 
Q 14.5 44.390625 14.5 40.28125 
Q 14.5 37.15625 16.890625 35.375 
Q 19.28125 33.59375 26.515625 31.984375 
L 29.59375 31.296875 
Q 39.15625 29.25 43.1875 25.515625 
Q 47.21875 21.78125 47.21875 15.09375 
Q 47.21875 7.46875 41.1875 3.015625 
Q 35.15625 -1.421875 24.609375 -1.421875 
Q 20.21875 -1.421875 15.453125 -0.5625 
Q 10.6875 0.296875 5.421875 2 
L 5.421875 11.28125 
Q 10.40625 8.6875 15.234375 7.390625 
Q 20.0625 6.109375 24.8125 6.109375 
Q 31.15625 6.109375 34.5625 8.28125 
Q 37.984375 10.453125 37.984375 14.40625 
Q 37.984375 18.0625 35.515625 20.015625 
Q 33.0625 21.96875 24.703125 23.78125 
L 21.578125 24.515625 
Q 13.234375 26.265625 9.515625 29.90625 
Q 5.8125 33.546875 5.8125 39.890625 
Q 5.8125 47.609375 11.28125 51.796875 
Q 16.75 56 26.8125 56 
Q 31.78125 56 36.171875 55.265625 
Q 40.578125 54.546875 44.28125 53.078125 
z
" id="DejaVuSans-115"/>
     </defs>
     <g transform="translate(120.723 417.998687)scale(0.552 -0.552)">
      <use xlink:href="#DejaVuSans-68"/>
      <use x="77.001953" xlink:href="#DejaVuSans-101"/>
      <use x="138.525391" xlink:href="#DejaVuSans-103"/>
      <use x="202.001953" xlink:href="#DejaVuSans-114"/>
      <use x="243.083984" xlink:href="#DejaVuSans-101"/>
      <use x="304.607422" xlink:href="#DejaVuSans-101"/>
      <use x="366.130859" xlink:href="#DejaVuSans-115"/>
     </g>
    </g>
   </g>
   <g id="matplotlib.axis_2">
    <g id="ytick_1">
     <g id="line2d_3">
      <defs>
       <path d="M 0 0 
L -12 0 
" id="m57a44db5c1" style="stroke:#000000;stroke-width:2.5;"/>
      </defs>
      <g>
       <use style="stroke:#000000;stroke-width:2.5;" x="57.6" xlink:href="#m57a44db5c1" y="285.408"/>
      </g>
     </g>
     <g id="text_4">
      <!-- 0 -->
      <g transform="translate(9.90575 304.632047)scale(0.506 -0.506)">
       <use xlink:href="#DejaVuSans-48"/>
      </g>
     </g>
    </g>
    <g id="ytick_2">
     <g id="line2d_4">
      <g>
       <use style="stroke:#000000;stroke-width:2.5;" x="57.6" xlink:href="#m57a44db5c1" y="128.670658"/>
      </g>
     </g>
     <g id="text_5">
      <!-- 5 -->
      <defs>
       <path d="M 10.796875 72.90625 
L 49.515625 72.90625 
L 49.515625 64.59375 
L 19.828125 64.59375 
L 19.828125 46.734375 
Q 21.96875 47.46875 24.109375 47.828125 
Q 26.265625 48.1875 28.421875 48.1875 
Q 40.625 48.1875 47.75 41.5 
Q 54.890625 34.8125 54.890625 23.390625 
Q 54.890625 11.625 47.5625 5.09375 
Q 40.234375 -1.421875 26.90625 -1.421875 
Q 22.3125 -1.421875 17.546875 -0.640625 
Q 12.796875 0.140625 7.71875 1.703125 
L 7.71875 11.625 
Q 12.109375 9.234375 16.796875 8.0625 
Q 21.484375 6.890625 26.703125 6.890625 
Q 35.15625 6.890625 40.078125 11.328125 
Q 45.015625 15.765625 45.015625 23.390625 
Q 45.015625 31 40.078125 35.4375 
Q 35.15625 39.890625 26.703125 39.890625 
Q 22.75 39.890625 18.8125 39.015625 
Q 14.890625 38.140625 10.796875 36.28125 
z
" id="DejaVuSans-53"/>
      </defs>
      <g transform="translate(9.90575 147.894705)scale(0.506 -0.506)">
       <use xlink:href="#DejaVuSans-53"/>
      </g>
     </g>
    </g>
    <g id="text_6">
     <!-- Activation -->
     <defs>
      <path d="M 34.1875 63.1875 
L 20.796875 26.90625 
L 47.609375 26.90625 
z
M 28.609375 72.90625 
L 39.796875 72.90625 
L 67.578125 0 
L 57.328125 0 
L 50.6875 18.703125 
L 17.828125 18.703125 
L 11.1875 0 
L 0.78125 0 
z
" id="DejaVuSans-65"/>
      <path d="M 48.78125 52.59375 
L 48.78125 44.1875 
Q 44.96875 46.296875 41.140625 47.34375 
Q 37.3125 48.390625 33.40625 48.390625 
Q 24.65625 48.390625 19.8125 42.84375 
Q 14.984375 37.3125 14.984375 27.296875 
Q 14.984375 17.28125 19.8125 11.734375 
Q 24.65625 6.203125 33.40625 6.203125 
Q 37.3125 6.203125 41.140625 7.25 
Q 44.96875 8.296875 48.78125 10.40625 
L 48.78125 2.09375 
Q 45.015625 0.34375 40.984375 -0.53125 
Q 36.96875 -1.421875 32.421875 -1.421875 
Q 20.0625 -1.421875 12.78125 6.34375 
Q 5.515625 14.109375 5.515625 27.296875 
Q 5.515625 40.671875 12.859375 48.328125 
Q 20.21875 56 33.015625 56 
Q 37.15625 56 41.109375 55.140625 
Q 45.0625 54.296875 48.78125 52.59375 
z
" id="DejaVuSans-99"/>
      <path d="M 18.3125 70.21875 
L 18.3125 54.6875 
L 36.8125 54.6875 
L 36.8125 47.703125 
L 18.3125 47.703125 
L 18.3125 18.015625 
Q 18.3125 11.328125 20.140625 9.421875 
Q 21.96875 7.515625 27.59375 7.515625 
L 36.8125 7.515625 
L 36.8125 0 
L 27.59375 0 
Q 17.1875 0 13.234375 3.875 
Q 9.28125 7.765625 9.28125 18.015625 
L 9.28125 47.703125 
L 2.6875 47.703125 
L 2.6875 54.6875 
L 9.28125 54.6875 
L 9.28125 70.21875 
z
" id="DejaVuSans-116"/>
      <path d="M 9.421875 54.6875 
L 18.40625 54.6875 
L 18.40625 0 
L 9.421875 0 
z
M 9.421875 75.984375 
L 18.40625 75.984375 
L 18.40625 64.59375 
L 9.421875 64.59375 
z
" id="DejaVuSans-105"/>
      <path d="M 2.984375 54.6875 
L 12.5 54.6875 
L 29.59375 8.796875 
L 46.6875 54.6875 
L 56.203125 54.6875 
L 35.6875 0 
L 23.484375 0 
z
" id="DejaVuSans-118"/>
      <path d="M 34.28125 27.484375 
Q 23.390625 27.484375 19.1875 25 
Q 14.984375 22.515625 14.984375 16.5 
Q 14.984375 11.71875 18.140625 8.90625 
Q 21.296875 6.109375 26.703125 6.109375 
Q 34.1875 6.109375 38.703125 11.40625 
Q 43.21875 16.703125 43.21875 25.484375 
L 43.21875 27.484375 
z
M 52.203125 31.203125 
L 52.203125 0 
L 43.21875 0 
L 43.21875 8.296875 
Q 40.140625 3.328125 35.546875 0.953125 
Q 30.953125 -1.421875 24.3125 -1.421875 
Q 15.921875 -1.421875 10.953125 3.296875 
Q 6 8.015625 6 15.921875 
Q 6 25.140625 12.171875 29.828125 
Q 18.359375 34.515625 30.609375 34.515625 
L 43.21875 34.515625 
L 43.21875 35.40625 
Q 43.21875 41.609375 39.140625 45 
Q 35.0625 48.390625 27.6875 48.390625 
Q 23 48.390625 18.546875 47.265625 
Q 14.109375 46.140625 10.015625 43.890625 
L 10.015625 52.203125 
Q 14.9375 54.109375 19.578125 55.046875 
Q 24.21875 56 28.609375 56 
Q 40.484375 56 46.34375 49.84375 
Q 52.203125 43.703125 52.203125 31.203125 
z
" id="DejaVuSans-97"/>
      <path d="M 30.609375 48.390625 
Q 23.390625 48.390625 19.1875 42.75 
Q 14.984375 37.109375 14.984375 27.296875 
Q 14.984375 17.484375 19.15625 11.84375 
Q 23.34375 6.203125 30.609375 6.203125 
Q 37.796875 6.203125 41.984375 11.859375 
Q 46.1875 17.53125 46.1875 27.296875 
Q 46.1875 37.015625 41.984375 42.703125 
Q 37.796875 48.390625 30.609375 48.390625 
z
M 30.609375 56 
Q 42.328125 56 49.015625 48.375 
Q 55.71875 40.765625 55.71875 27.296875 
Q 55.71875 13.875 49.015625 6.21875 
Q 42.328125 -1.421875 30.609375 -1.421875 
Q 18.84375 -1.421875 12.171875 6.21875 
Q 5.515625 13.875 5.515625 27.296875 
Q 5.515625 40.765625 12.171875 48.375 
Q 18.84375 56 30.609375 56 
z
" id="DejaVuSans-111"/>
      <path d="M 54.890625 33.015625 
L 54.890625 0 
L 45.90625 0 
L 45.90625 32.71875 
Q 45.90625 40.484375 42.875 44.328125 
Q 39.84375 48.1875 33.796875 48.1875 
Q 26.515625 48.1875 22.3125 43.546875 
Q 18.109375 38.921875 18.109375 30.90625 
L 18.109375 0 
L 9.078125 0 
L 9.078125 54.6875 
L 18.109375 54.6875 
L 18.109375 46.1875 
Q 21.34375 51.125 25.703125 53.5625 
Q 30.078125 56 35.796875 56 
Q 45.21875 56 50.046875 50.171875 
Q 54.890625 44.34375 54.890625 33.015625 
z
" id="DejaVuSans-110"/>
     </defs>
     <g transform="translate(-5.574125 313.1835)rotate(-90)scale(0.552 -0.552)">
      <use xlink:href="#DejaVuSans-65"/>
      <use x="68.392578" xlink:href="#DejaVuSans-99"/>
      <use x="123.373047" xlink:href="#DejaVuSans-116"/>
      <use x="162.582031" xlink:href="#DejaVuSans-105"/>
      <use x="190.365234" xlink:href="#DejaVuSans-118"/>
      <use x="249.544922" xlink:href="#DejaVuSans-97"/>
      <use x="310.824219" xlink:href="#DejaVuSans-116"/>
      <use x="350.033203" xlink:href="#DejaVuSans-105"/>
      <use x="377.816406" xlink:href="#DejaVuSans-111"/>
      <use x="438.998047" xlink:href="#DejaVuSans-110"/>
     </g>
    </g>
   </g>
   <g id="line2d_5">
    <path clip-path="url(#p6e6647c4f3)" d="M 73.832727 277.431121 
L 90.065455 263.849209 
L 106.298182 259.140529 
L 122.530909 253.05941 
L 138.763636 245.945833 
L 154.996364 244.941138 
L 171.229091 246.404004 
L 187.461818 235.788027 
L 203.694545 232.259462 
L 219.927273 232.910861 
L 236.16 237.582439 
L 252.392727 237.429921 
L 268.625455 238.156925 
L 284.858182 255.737931 
L 301.090909 252.979051 
L 317.323636 266.639299 
L 333.556364 270.097172 
L 349.789091 273.700677 
L 366.021818 271.694389 
L 382.254545 274.227263 
L 398.487273 277.431121 
" style="fill:none;stroke:#0e4db3;stroke-linecap:square;stroke-width:3;"/>
   </g>
   <g id="line2d_6">
    <path clip-path="url(#p6e6647c4f3)" d="M 73.832727 279.060971 
L 90.065455 267.937691 
L 106.298182 263.759426 
L 122.530909 259.263815 
L 138.763636 253.771743 
L 154.996364 253.179936 
L 171.229091 253.847853 
L 187.461818 244.432702 
L 203.694545 242.682102 
L 219.927273 242.182813 
L 236.16 244.587679 
L 252.392727 246.125163 
L 268.625455 246.452868 
L 284.858182 261.637992 
L 301.090909 258.90076 
L 317.323636 269.930211 
L 333.556364 272.585124 
L 349.789091 274.99232 
L 366.021818 273.962689 
L 382.254545 275.857634 
L 398.487273 279.060971 
" style="fill:none;stroke:#d44e4e;stroke-linecap:square;stroke-width:3;"/>
   </g>
   <g id="line2d_7">
    <path clip-path="url(#p6e6647c4f3)" d="M 73.832727 231.182025 
L 90.065455 230.769945 
L 106.298182 234.425188 
L 122.530909 241.450943 
L 138.763636 242.70239 
L 154.996364 244.23657 
L 171.229091 244.138955 
L 187.461818 236.232641 
L 203.694545 233.613609 
L 219.927273 242.954205 
L 236.16 242.947994 
L 252.392727 241.549389 
L 268.625455 233.775474 
L 284.858182 239.394462 
L 301.090909 232.365254 
L 317.323636 234.811337 
L 333.556364 234.537463 
L 349.789091 225.492494 
L 366.021818 228.06206 
L 382.254545 225.630341 
L 398.487273 231.182025 
" style="fill:none;stroke:#0e4db3;stroke-linecap:square;stroke-width:3;"/>
   </g>
   <g id="line2d_8">
    <path clip-path="url(#p6e6647c4f3)" d="M 73.832727 242.484109 
L 90.065455 237.557181 
L 106.298182 243.659083 
L 122.530909 250.506181 
L 138.763636 251.330002 
L 154.996364 252.699646 
L 171.229091 252.697927 
L 187.461818 246.595861 
L 203.694545 244.741573 
L 219.927273 251.889028 
L 236.16 251.863543 
L 252.392727 250.136706 
L 268.625455 244.439275 
L 284.858182 248.008674 
L 301.090909 243.510175 
L 317.323636 245.366455 
L 333.556364 245.067607 
L 349.789091 238.065864 
L 366.021818 239.35521 
L 382.254545 238.0349 
L 398.487273 242.484109 
" style="fill:none;stroke:#d44e4e;stroke-linecap:square;stroke-width:3;"/>
   </g>
   <g id="line2d_9">
    <path clip-path="url(#p6e6647c4f3)" d="M 73.832727 230.443716 
L 90.065455 227.788537 
L 106.298182 227.767491 
L 122.530909 227.782065 
L 138.763636 221.970868 
L 154.996364 222.258603 
L 171.229091 221.738888 
L 187.461818 225.632565 
L 203.694545 220.924317 
L 219.927273 223.048985 
L 236.16 226.618216 
L 252.392727 226.680043 
L 268.625455 227.320998 
L 284.858182 231.205395 
L 301.090909 231.917718 
L 317.323636 232.225863 
L 333.556364 232.082504 
L 349.789091 232.533769 
L 366.021818 231.296677 
L 382.254545 230.644343 
L 398.487273 230.443716 
" style="fill:none;stroke:#0e4db3;stroke-linecap:square;stroke-width:3;"/>
   </g>
   <g id="line2d_10">
    <path clip-path="url(#p6e6647c4f3)" d="M 73.832727 240.063728 
L 90.065455 238.151951 
L 106.298182 237.991735 
L 122.530909 237.817999 
L 138.763636 234.204631 
L 154.996364 234.145073 
L 171.229091 233.286574 
L 187.461818 236.236546 
L 203.694545 232.029971 
L 219.927273 234.052307 
L 236.16 236.959743 
L 252.392727 236.89246 
L 268.625455 237.473403 
L 284.858182 239.544907 
L 301.090909 240.069427 
L 317.323636 240.778857 
L 333.556364 241.138863 
L 349.789091 241.480446 
L 366.021818 240.464878 
L 382.254545 240.06757 
L 398.487273 240.063728 
" style="fill:none;stroke:#d44e4e;stroke-linecap:square;stroke-width:3;"/>
   </g>
   <g id="line2d_11">
    <path clip-path="url(#p6e6647c4f3)" d="M 73.832727 223.191683 
L 90.065455 223.117692 
L 106.298182 223.361951 
L 122.530909 229.193017 
L 138.763636 229.788083 
L 154.996364 231.276083 
L 171.229091 229.975904 
L 187.461818 228.419036 
L 203.694545 224.31283 
L 219.927273 225.7637 
L 236.16 225.17785 
L 252.392727 222.568348 
L 268.625455 221.651437 
L 284.858182 221.701796 
L 301.090909 218.805519 
L 317.323636 218.356462 
L 333.556364 211.418441 
L 349.789091 217.795552 
L 366.021818 217.456838 
L 382.254545 220.508757 
L 398.487273 223.191683 
" style="fill:none;stroke:#0e4db3;stroke-linecap:square;stroke-width:3;"/>
   </g>
   <g id="line2d_12">
    <path clip-path="url(#p6e6647c4f3)" d="M 73.832727 236.297121 
L 90.065455 236.294692 
L 106.298182 236.462659 
L 122.530909 240.805022 
L 138.763636 241.089005 
L 154.996364 241.80762 
L 171.229091 241.34174 
L 187.461818 239.364847 
L 203.694545 237.366707 
L 219.927273 238.147945 
L 236.16 238.262347 
L 252.392727 235.418402 
L 268.625455 234.135065 
L 284.858182 233.777383 
L 301.090909 232.165837 
L 317.323636 232.164694 
L 333.556364 227.55359 
L 349.789091 231.795117 
L 366.021818 231.282398 
L 382.254545 233.970051 
L 398.487273 236.297121 
" style="fill:none;stroke:#d44e4e;stroke-linecap:square;stroke-width:3;"/>
   </g>
   <g id="line2d_13">
    <path clip-path="url(#p6e6647c4f3)" d="M 73.832727 265.446708 
L 90.065455 265.141531 
L 106.298182 265.41591 
L 122.530909 264.751979 
L 138.763636 257.078609 
L 154.996364 256.084057 
L 171.229091 249.883175 
L 187.461818 251.793405 
L 203.694545 242.39544 
L 219.927273 235.01066 
L 236.16 235.12705 
L 252.392727 227.233954 
L 268.625455 220.279393 
L 284.858182 223.993638 
L 301.090909 214.367931 
L 317.323636 219.961547 
L 333.556364 221.548044 
L 349.789091 247.375447 
L 366.021818 249.762712 
L 382.254545 249.499006 
L 398.487273 265.446708 
" style="fill:none;stroke:#0e4db3;stroke-linecap:square;stroke-width:3;"/>
   </g>
   <g id="line2d_14">
    <path clip-path="url(#p6e6647c4f3)" d="M 73.832727 267.157177 
L 90.065455 266.711211 
L 106.298182 266.95195 
L 122.530909 266.662289 
L 138.763636 260.653167 
L 154.996364 259.900424 
L 171.229091 254.471831 
L 187.461818 255.934558 
L 203.694545 248.560675 
L 219.927273 243.161413 
L 236.16 243.176338 
L 252.392727 236.583174 
L 268.625455 231.076823 
L 284.858182 234.6696 
L 301.090909 226.712733 
L 317.323636 230.648992 
L 333.556364 232.190224 
L 349.789091 252.375679 
L 366.021818 254.369538 
L 382.254545 254.349686 
L 398.487273 267.157177 
" style="fill:none;stroke:#d44e4e;stroke-linecap:square;stroke-width:3;"/>
   </g>
   <g id="line2d_15">
    <path clip-path="url(#p6e6647c4f3)" d="M 73.832727 285.408 
L 90.065455 285.408 
L 106.298182 285.408 
L 122.530909 285.408 
L 138.763636 285.408 
L 154.996364 285.408 
L 171.229091 285.408 
L 187.461818 285.408 
L 203.694545 285.408 
L 219.927273 285.408 
L 236.16 285.408 
L 252.392727 285.408 
L 268.625455 285.408 
L 284.858182 285.408 
L 301.090909 285.408 
L 317.323636 285.408 
L 333.556364 285.408 
L 349.789091 285.408 
L 366.021818 285.408 
L 382.254545 285.408 
L 398.487273 285.408 
" style="fill:none;stroke:#0e4db3;stroke-linecap:square;stroke-width:3;"/>
   </g>
   <g id="line2d_16">
    <path clip-path="url(#p6e6647c4f3)" d="M 73.832727 285.408 
L 90.065455 285.408 
L 106.298182 285.408 
L 122.530909 285.408 
L 138.763636 285.408 
L 154.996364 285.408 
L 171.229091 285.408 
L 187.461818 285.408 
L 203.694545 285.408 
L 219.927273 285.408 
L 236.16 285.408 
L 252.392727 285.408 
L 268.625455 285.408 
L 284.858182 285.408 
L 301.090909 285.408 
L 317.323636 285.408 
L 333.556364 285.408 
L 349.789091 285.408 
L 366.021818 285.408 
L 382.254545 285.408 
L 398.487273 285.408 
" style="fill:none;stroke:#d44e4e;stroke-linecap:square;stroke-width:3;"/>
   </g>
   <g id="line2d_17">
    <path clip-path="url(#p6e6647c4f3)" d="M 73.832727 285.408 
L 90.065455 285.127773 
L 106.298182 285.29637 
L 122.530909 285.193842 
L 138.763636 285.314059 
L 154.996364 285.408 
L 171.229091 285.408 
L 187.461818 285.408 
L 203.694545 285.408 
L 219.927273 285.408 
L 236.16 285.408 
L 252.392727 285.408 
L 268.625455 284.75634 
L 284.858182 285.408 
L 301.090909 285.408 
L 317.323636 285.408 
L 333.556364 285.408 
L 349.789091 285.408 
L 366.021818 285.408 
L 382.254545 285.408 
L 398.487273 285.408 
" style="fill:none;stroke:#0e4db3;stroke-linecap:square;stroke-width:3;"/>
   </g>
   <g id="line2d_18">
    <path clip-path="url(#p6e6647c4f3)" d="M 73.832727 285.408 
L 90.065455 285.408 
L 106.298182 285.408 
L 122.530909 285.408 
L 138.763636 285.408 
L 154.996364 285.408 
L 171.229091 285.408 
L 187.461818 285.408 
L 203.694545 285.408 
L 219.927273 285.408 
L 236.16 285.408 
L 252.392727 285.408 
L 268.625455 285.408 
L 284.858182 285.408 
L 301.090909 285.408 
L 317.323636 285.408 
L 333.556364 285.408 
L 349.789091 285.408 
L 366.021818 285.408 
L 382.254545 285.408 
L 398.487273 285.408 
" style="fill:none;stroke:#d44e4e;stroke-linecap:square;stroke-width:3;"/>
   </g>
   <g id="line2d_19">
    <path clip-path="url(#p6e6647c4f3)" d="M 73.832727 269.312059 
L 90.065455 264.234892 
L 106.298182 256.795919 
L 122.530909 256.079468 
L 138.763636 248.39207 
L 154.996364 246.832482 
L 171.229091 241.67675 
L 187.461818 242.322081 
L 203.694545 234.908015 
L 219.927273 235.285189 
L 236.16 252.885023 
L 252.392727 236.177286 
L 268.625455 244.444055 
L 284.858182 254.683179 
L 301.090909 252.67838 
L 317.323636 259.887861 
L 333.556364 260.77741 
L 349.789091 262.238932 
L 366.021818 262.733712 
L 382.254545 267.58354 
L 398.487273 269.312059 
" style="fill:none;stroke:#0e4db3;stroke-linecap:square;stroke-width:3;"/>
   </g>
   <g id="line2d_20">
    <path clip-path="url(#p6e6647c4f3)" d="M 73.832727 269.620092 
L 90.065455 265.734964 
L 106.298182 259.70791 
L 122.530909 258.516845 
L 138.763636 252.795027 
L 154.996364 251.754952 
L 171.229091 247.522252 
L 187.461818 247.701997 
L 203.694545 242.145336 
L 219.927273 242.170385 
L 236.16 256.362819 
L 252.392727 242.99336 
L 268.625455 249.530018 
L 284.858182 258.140999 
L 301.090909 256.163229 
L 317.323636 261.908477 
L 333.556364 262.539949 
L 349.789091 263.129615 
L 366.021818 263.698946 
L 382.254545 267.930333 
L 398.487273 269.620092 
" style="fill:none;stroke:#d44e4e;stroke-linecap:square;stroke-width:3;"/>
   </g>
   <g id="line2d_21">
    <path clip-path="url(#p6e6647c4f3)" d="M 73.832727 252.180231 
L 90.065455 249.879617 
L 106.298182 246.418608 
L 122.530909 245.020335 
L 138.763636 246.725501 
L 154.996364 246.81876 
L 171.229091 246.983722 
L 187.461818 250.591768 
L 203.694545 250.030622 
L 219.927273 251.846431 
L 236.16 253.443134 
L 252.392727 251.489351 
L 268.625455 251.073769 
L 284.858182 251.115981 
L 301.090909 251.195167 
L 317.323636 251.508484 
L 333.556364 244.228678 
L 349.789091 248.24522 
L 366.021818 246.990478 
L 382.254545 252.299599 
L 398.487273 252.180231 
" style="fill:none;stroke:#0e4db3;stroke-linecap:square;stroke-width:3;"/>
   </g>
   <g id="line2d_22">
    <path clip-path="url(#p6e6647c4f3)" d="M 73.832727 259.274914 
L 90.065455 257.441441 
L 106.298182 254.76844 
L 122.530909 253.169316 
L 138.763636 255.66658 
L 154.996364 255.792948 
L 171.229091 255.738523 
L 187.461818 257.954462 
L 203.694545 256.819006 
L 219.927273 259.467638 
L 236.16 258.249435 
L 252.392727 258.448482 
L 268.625455 258.385582 
L 284.858182 258.817387 
L 301.090909 259.007217 
L 317.323636 258.941423 
L 333.556364 253.289816 
L 349.789091 254.522541 
L 366.021818 254.25719 
L 382.254545 259.275807 
L 398.487273 259.274914 
" style="fill:none;stroke:#d44e4e;stroke-linecap:square;stroke-width:3;"/>
   </g>
   <g id="line2d_23">
    <path clip-path="url(#p6e6647c4f3)" d="M 73.832727 284.200582 
L 90.065455 271.4691 
L 106.298182 260.736139 
L 122.530909 261.420756 
L 138.763636 248.403187 
L 154.996364 247.423388 
L 171.229091 247.612868 
L 187.461818 248.782035 
L 203.694545 245.516585 
L 219.927273 245.510804 
L 236.16 250.167591 
L 252.392727 247.099439 
L 268.625455 251.083844 
L 284.858182 260.646595 
L 301.090909 256.797978 
L 317.323636 270.805671 
L 333.556364 271.027778 
L 349.789091 274.472961 
L 366.021818 281.212472 
L 382.254545 275.031453 
L 398.487273 284.200582 
" style="fill:none;stroke:#0e4db3;stroke-linecap:square;stroke-width:3;"/>
   </g>
   <g id="line2d_24">
    <path clip-path="url(#p6e6647c4f3)" d="M 73.832727 285.094708 
L 90.065455 275.391683 
L 106.298182 266.741719 
L 122.530909 264.307494 
L 138.763636 257.335907 
L 154.996364 256.486017 
L 171.229091 256.514896 
L 187.461818 256.47258 
L 203.694545 254.219358 
L 219.927273 254.242456 
L 236.16 258.21045 
L 252.392727 255.405886 
L 268.625455 257.898416 
L 284.858182 266.874364 
L 301.090909 263.103157 
L 317.323636 273.833407 
L 333.556364 275.006635 
L 349.789091 278.073439 
L 366.021818 282.648217 
L 382.254545 278.087459 
L 398.487273 285.094708 
" style="fill:none;stroke:#d44e4e;stroke-linecap:square;stroke-width:3;"/>
   </g>
   <g id="line2d_25">
    <path clip-path="url(#p6e6647c4f3)" d="M 73.832727 235.744399 
L 90.065455 235.445024 
L 106.298182 232.395227 
L 122.530909 237.248897 
L 138.763636 240.15187 
L 154.996364 250.405673 
L 171.229091 252.21072 
L 187.461818 250.55639 
L 203.694545 234.680146 
L 219.927273 223.812854 
L 236.16 224.655894 
L 252.392727 223.614342 
L 268.625455 234.624204 
L 284.858182 241.375933 
L 301.090909 232.185288 
L 317.323636 228.889326 
L 333.556364 228.046803 
L 349.789091 226.496751 
L 366.021818 222.648258 
L 382.254545 226.237955 
L 398.487273 235.744399 
" style="fill:none;stroke:#0e4db3;stroke-linecap:square;stroke-width:3;"/>
   </g>
   <g id="line2d_26">
    <path clip-path="url(#p6e6647c4f3)" d="M 73.832727 242.826193 
L 90.065455 242.818021 
L 106.298182 240.351997 
L 122.530909 243.553011 
L 138.763636 246.828745 
L 154.996364 254.650967 
L 171.229091 256.011116 
L 187.461818 253.935382 
L 203.694545 241.383507 
L 219.927273 233.512974 
L 236.16 234.088731 
L 252.392727 233.28299 
L 268.625455 241.880628 
L 284.858182 247.326729 
L 301.090909 239.861397 
L 317.323636 237.342697 
L 333.556364 236.777972 
L 349.789091 235.597983 
L 366.021818 232.210482 
L 382.254545 235.265973 
L 398.487273 242.826193 
" style="fill:none;stroke:#d44e4e;stroke-linecap:square;stroke-width:3;"/>
   </g>
   <g id="line2d_27">
    <path clip-path="url(#p6e6647c4f3)" d="M 73.832727 234.154191 
L 90.065455 233.821692 
L 106.298182 239.180644 
L 122.530909 240.678293 
L 138.763636 251.319494 
L 154.996364 258.612659 
L 171.229091 251.163089 
L 187.461818 241.607281 
L 203.694545 237.66251 
L 219.927273 247.677472 
L 236.16 246.480868 
L 252.392727 246.521466 
L 268.625455 252.240092 
L 284.858182 256.528906 
L 301.090909 249.63368 
L 317.323636 248.373961 
L 333.556364 241.820386 
L 349.789091 241.549179 
L 366.021818 237.779254 
L 382.254545 234.363671 
L 398.487273 234.154191 
" style="fill:none;stroke:#0e4db3;stroke-linecap:square;stroke-width:3;"/>
   </g>
   <g id="line2d_28">
    <path clip-path="url(#p6e6647c4f3)" d="M 73.832727 242.219742 
L 90.065455 240.813516 
L 106.298182 246.287472 
L 122.530909 244.362814 
L 138.763636 255.860302 
L 154.996364 261.518717 
L 171.229091 255.348353 
L 187.461818 247.429498 
L 203.694545 244.386876 
L 219.927273 252.767942 
L 236.16 251.814869 
L 252.392727 251.635636 
L 268.625455 256.462314 
L 284.858182 259.495272 
L 301.090909 254.668235 
L 317.323636 252.921443 
L 333.556364 248.29744 
L 349.789091 247.167043 
L 366.021818 244.552616 
L 382.254545 240.791925 
L 398.487273 242.219742 
" style="fill:none;stroke:#d44e4e;stroke-linecap:square;stroke-width:3;"/>
   </g>
   <g id="line2d_29">
    <path clip-path="url(#p6e6647c4f3)" d="M 73.832727 209.724381 
L 90.065455 209.616526 
L 106.298182 207.919924 
L 122.530909 208.942701 
L 138.763636 208.836969 
L 154.996364 208.891513 
L 171.229091 207.864812 
L 187.461818 208.63055 
L 203.694545 205.112205 
L 219.927273 206.684263 
L 236.16 206.98915 
L 252.392727 206.923171 
L 268.625455 208.196074 
L 284.858182 209.169248 
L 301.090909 208.336971 
L 317.323636 208.744137 
L 333.556364 208.455408 
L 349.789091 209.308582 
L 366.021818 208.079699 
L 382.254545 208.843972 
L 398.487273 209.724381 
" style="fill:none;stroke:#0e4db3;stroke-linecap:square;stroke-width:3;"/>
   </g>
   <g id="line2d_30">
    <path clip-path="url(#p6e6647c4f3)" d="M 73.832727 221.894538 
L 90.065455 221.368807 
L 106.298182 220.271224 
L 122.530909 220.945767 
L 138.763636 220.928913 
L 154.996364 220.959317 
L 171.229091 220.163153 
L 187.461818 220.896903 
L 203.694545 218.013346 
L 219.927273 219.444104 
L 236.16 219.600262 
L 252.392727 219.567064 
L 268.625455 219.579321 
L 284.858182 220.815588 
L 301.090909 220.124229 
L 317.323636 220.664415 
L 333.556364 220.584863 
L 349.789091 221.332103 
L 366.021818 220.350761 
L 382.254545 221.104107 
L 398.487273 221.894538 
" style="fill:none;stroke:#d44e4e;stroke-linecap:square;stroke-width:3;"/>
   </g>
   <g id="line2d_31">
    <path clip-path="url(#p6e6647c4f3)" d="M 73.832727 248.732095 
L 90.065455 242.041641 
L 106.298182 241.983573 
L 122.530909 246.056572 
L 138.763636 246.618992 
L 154.996364 245.024942 
L 171.229091 244.93526 
L 187.461818 244.706674 
L 203.694545 249.975652 
L 219.927273 249.83547 
L 236.16 251.053844 
L 252.392727 258.679873 
L 268.625455 266.824131 
L 284.858182 269.898286 
L 301.090909 269.982563 
L 317.323636 268.761395 
L 333.556364 267.435476 
L 349.789091 265.377702 
L 366.021818 256.925583 
L 382.254545 248.789535 
L 398.487273 248.732095 
" style="fill:none;stroke:#0e4db3;stroke-linecap:square;stroke-width:3;"/>
   </g>
   <g id="line2d_32">
    <path clip-path="url(#p6e6647c4f3)" d="M 73.832727 253.906519 
L 90.065455 248.543011 
L 106.298182 248.753283 
L 122.530909 250.180528 
L 138.763636 252.319434 
L 154.996364 250.927985 
L 171.229091 250.763972 
L 187.461818 250.420277 
L 203.694545 254.648852 
L 219.927273 254.657695 
L 236.16 255.769839 
L 252.392727 261.799034 
L 268.625455 268.334547 
L 284.858182 270.597893 
L 301.090909 270.631918 
L 317.323636 269.582545 
L 333.556364 268.649486 
L 349.789091 266.895612 
L 366.021818 260.000426 
L 382.254545 253.34405 
L 398.487273 253.906519 
" style="fill:none;stroke:#d44e4e;stroke-linecap:square;stroke-width:3;"/>
   </g>
   <g id="line2d_33">
    <path clip-path="url(#p6e6647c4f3)" d="M 73.832727 187.664799 
L 90.065455 187.651331 
L 106.298182 187.465726 
L 122.530909 189.632999 
L 138.763636 188.973188 
L 154.996364 189.325466 
L 171.229091 189.468142 
L 187.461818 190.152728 
L 203.694545 187.812153 
L 219.927273 189.280085 
L 236.16 189.365735 
L 252.392727 188.973524 
L 268.625455 189.116005 
L 284.858182 191.709211 
L 301.090909 189.651145 
L 317.323636 189.536258 
L 333.556364 188.960744 
L 349.789091 189.017567 
L 366.021818 187.517692 
L 382.254545 187.649522 
L 398.487273 187.664799 
" style="fill:none;stroke:#0e4db3;stroke-linecap:square;stroke-width:3;"/>
   </g>
   <g id="line2d_34">
    <path clip-path="url(#p6e6647c4f3)" d="M 73.832727 205.943809 
L 90.065455 205.941485 
L 106.298182 205.743032 
L 122.530909 207.280135 
L 138.763636 206.511139 
L 154.996364 207.197624 
L 171.229091 206.999733 
L 187.461818 208.005798 
L 203.694545 205.849019 
L 219.927273 207.32586 
L 236.16 207.482571 
L 252.392727 206.975204 
L 268.625455 206.148001 
L 284.858182 207.517848 
L 301.090909 206.803649 
L 317.323636 206.806355 
L 333.556364 206.568643 
L 349.789091 206.835951 
L 366.021818 205.54804 
L 382.254545 205.827987 
L 398.487273 205.943809 
" style="fill:none;stroke:#d44e4e;stroke-linecap:square;stroke-width:3;"/>
   </g>
   <g id="line2d_35">
    <path clip-path="url(#p6e6647c4f3)" d="M 73.832727 285.408 
L 90.065455 285.408 
L 106.298182 285.408 
L 122.530909 285.408 
L 138.763636 285.408 
L 154.996364 285.408 
L 171.229091 285.408 
L 187.461818 285.408 
L 203.694545 285.408 
L 219.927273 285.408 
L 236.16 285.408 
L 252.392727 285.408 
L 268.625455 283.987446 
L 284.858182 285.001561 
L 301.090909 285.408 
L 317.323636 285.408 
L 333.556364 285.408 
L 349.789091 285.408 
L 366.021818 285.408 
L 382.254545 285.408 
L 398.487273 285.408 
" style="fill:none;stroke:#0e4db3;stroke-linecap:square;stroke-width:3;"/>
   </g>
   <g id="line2d_36">
    <path clip-path="url(#p6e6647c4f3)" d="M 73.832727 285.408 
L 90.065455 285.408 
L 106.298182 285.408 
L 122.530909 285.408 
L 138.763636 285.408 
L 154.996364 285.408 
L 171.229091 285.408 
L 187.461818 285.408 
L 203.694545 285.408 
L 219.927273 285.408 
L 236.16 285.408 
L 252.392727 285.408 
L 268.625455 285.408 
L 284.858182 285.408 
L 301.090909 285.408 
L 317.323636 285.408 
L 333.556364 285.408 
L 349.789091 285.408 
L 366.021818 285.408 
L 382.254545 285.408 
L 398.487273 285.408 
" style="fill:none;stroke:#d44e4e;stroke-linecap:square;stroke-width:3;"/>
   </g>
   <g id="line2d_37">
    <path clip-path="url(#p6e6647c4f3)" d="M 73.832727 247.257622 
L 90.065455 219.288544 
L 106.298182 225.979839 
L 122.530909 233.547264 
L 138.763636 234.989423 
L 154.996364 255.078346 
L 171.229091 261.736555 
L 187.461818 261.583483 
L 203.694545 241.090205 
L 219.927273 222.309567 
L 236.16 223.361536 
L 252.392727 221.665817 
L 268.625455 232.280583 
L 284.858182 244.030001 
L 301.090909 232.882916 
L 317.323636 227.872106 
L 333.556364 226.734449 
L 349.789091 230.954212 
L 366.021818 215.733219 
L 382.254545 229.227034 
L 398.487273 247.257622 
" style="fill:none;stroke:#0e4db3;stroke-linecap:square;stroke-width:3;"/>
   </g>
   <g id="line2d_38">
    <path clip-path="url(#p6e6647c4f3)" d="M 73.832727 255.353183 
L 90.065455 232.70816 
L 106.298182 236.851996 
L 122.530909 243.903686 
L 138.763636 245.828105 
L 154.996364 262.043347 
L 171.229091 267.379189 
L 187.461818 265.237452 
L 203.694545 249.146182 
L 219.927273 235.458368 
L 236.16 236.242155 
L 252.392727 234.880224 
L 268.625455 243.111895 
L 284.858182 252.614303 
L 301.090909 243.570556 
L 317.323636 239.601599 
L 333.556364 238.816856 
L 349.789091 241.231856 
L 366.021818 229.689129 
L 382.254545 240.485771 
L 398.487273 255.353183 
" style="fill:none;stroke:#d44e4e;stroke-linecap:square;stroke-width:3;"/>
   </g>
   <g id="line2d_39">
    <path clip-path="url(#p6e6647c4f3)" d="M 73.832727 269.010398 
L 90.065455 255.963426 
L 106.298182 260.399743 
L 122.530909 260.044187 
L 138.763636 263.10111 
L 154.996364 264.580219 
L 171.229091 268.209947 
L 187.461818 271.835814 
L 203.694545 270.239074 
L 219.927273 263.522263 
L 236.16 264.055509 
L 252.392727 263.872404 
L 268.625455 266.152984 
L 284.858182 260.158521 
L 301.090909 264.977397 
L 317.323636 271.848803 
L 333.556364 271.906227 
L 349.789091 268.378478 
L 366.021818 265.943485 
L 382.254545 265.604801 
L 398.487273 269.010398 
" style="fill:none;stroke:#0e4db3;stroke-linecap:square;stroke-width:3;"/>
   </g>
   <g id="line2d_40">
    <path clip-path="url(#p6e6647c4f3)" d="M 73.832727 273.175773 
L 90.065455 260.600146 
L 106.298182 264.251838 
L 122.530909 265.520075 
L 138.763636 268.307581 
L 154.996364 269.670346 
L 171.229091 272.084165 
L 187.461818 275.2362 
L 203.694545 273.605521 
L 219.927273 268.662498 
L 236.16 269.05626 
L 252.392727 268.913022 
L 268.625455 270.569738 
L 284.858182 265.781462 
L 301.090909 269.823313 
L 317.323636 274.928115 
L 333.556364 275.112728 
L 349.789091 272.320779 
L 366.021818 270.239399 
L 382.254545 270.106901 
L 398.487273 273.175773 
" style="fill:none;stroke:#d44e4e;stroke-linecap:square;stroke-width:3;"/>
   </g>
   <g id="line2d_41">
    <path clip-path="url(#p6e6647c4f3)" d="M 73.832727 266.913854 
L 90.065455 258.079772 
L 106.298182 246.676925 
L 122.530909 242.535398 
L 138.763636 236.675495 
L 154.996364 234.355517 
L 171.229091 240.41076 
L 187.461818 248.620578 
L 203.694545 250.183443 
L 219.927273 239.996763 
L 236.16 239.935395 
L 252.392727 244.778557 
L 268.625455 242.46155 
L 284.858182 250.399855 
L 301.090909 253.653735 
L 317.323636 273.806696 
L 333.556364 272.810705 
L 349.789091 273.676197 
L 366.021818 264.664563 
L 382.254545 267.00856 
L 398.487273 266.913854 
" style="fill:none;stroke:#0e4db3;stroke-linecap:square;stroke-width:3;"/>
   </g>
   <g id="line2d_42">
    <path clip-path="url(#p6e6647c4f3)" d="M 73.832727 270.439004 
L 90.065455 263.540974 
L 106.298182 248.86505 
L 122.530909 249.864857 
L 138.763636 246.902198 
L 154.996364 244.968967 
L 171.229091 249.652234 
L 187.461818 254.853203 
L 203.694545 256.912475 
L 219.927273 249.145629 
L 236.16 249.142796 
L 252.392727 252.705468 
L 268.625455 250.765063 
L 284.858182 256.714419 
L 301.090909 258.956746 
L 317.323636 276.456833 
L 333.556364 275.372269 
L 349.789091 275.125858 
L 366.021818 267.327287 
L 382.254545 269.896963 
L 398.487273 270.439004 
" style="fill:none;stroke:#d44e4e;stroke-linecap:square;stroke-width:3;"/>
   </g>
   <g id="line2d_43">
    <path clip-path="url(#p6e6647c4f3)" d="M 73.832727 248.995128 
L 90.065455 248.718309 
L 106.298182 248.611079 
L 122.530909 252.154218 
L 138.763636 248.68767 
L 154.996364 256.855183 
L 171.229091 257.636986 
L 187.461818 257.797886 
L 203.694545 257.250354 
L 219.927273 256.941237 
L 236.16 256.690938 
L 252.392727 252.632797 
L 268.625455 250.539302 
L 284.858182 253.834949 
L 301.090909 248.49988 
L 317.323636 248.629494 
L 333.556364 248.654053 
L 349.789091 249.515168 
L 366.021818 246.046576 
L 382.254545 248.76134 
L 398.487273 248.995128 
" style="fill:none;stroke:#0e4db3;stroke-linecap:square;stroke-width:3;"/>
   </g>
   <g id="line2d_44">
    <path clip-path="url(#p6e6647c4f3)" d="M 73.832727 254.41852 
L 90.065455 252.331755 
L 106.298182 252.201868 
L 122.530909 253.501565 
L 138.763636 254.371218 
L 154.996364 260.694424 
L 171.229091 261.160387 
L 187.461818 261.285581 
L 203.694545 261.221592 
L 219.927273 261.011871 
L 236.16 261.040839 
L 252.392727 256.971192 
L 268.625455 255.597197 
L 284.858182 257.997814 
L 301.090909 253.963749 
L 317.323636 253.97502 
L 333.556364 253.979598 
L 349.789091 254.887412 
L 366.021818 251.711432 
L 382.254545 254.057262 
L 398.487273 254.41852 
" style="fill:none;stroke:#d44e4e;stroke-linecap:square;stroke-width:3;"/>
   </g>
   <g id="line2d_45">
    <path clip-path="url(#p6e6647c4f3)" d="M 73.832727 285.408 
L 90.065455 285.408 
L 106.298182 285.408 
L 122.530909 285.408 
L 138.763636 285.408 
L 154.996364 285.408 
L 171.229091 285.408 
L 187.461818 285.408 
L 203.694545 285.408 
L 219.927273 285.408 
L 236.16 285.408 
L 252.392727 285.408 
L 268.625455 285.408 
L 284.858182 285.408 
L 301.090909 285.408 
L 317.323636 285.408 
L 333.556364 285.408 
L 349.789091 285.408 
L 366.021818 285.408 
L 382.254545 285.408 
L 398.487273 285.408 
" style="fill:none;stroke:#0e4db3;stroke-linecap:square;stroke-width:3;"/>
   </g>
   <g id="line2d_46">
    <path clip-path="url(#p6e6647c4f3)" d="M 73.832727 285.408 
L 90.065455 285.408 
L 106.298182 285.408 
L 122.530909 285.408 
L 138.763636 285.408 
L 154.996364 285.408 
L 171.229091 285.408 
L 187.461818 285.408 
L 203.694545 285.408 
L 219.927273 285.408 
L 236.16 285.408 
L 252.392727 285.408 
L 268.625455 285.408 
L 284.858182 285.408 
L 301.090909 285.408 
L 317.323636 285.408 
L 333.556364 285.408 
L 349.789091 285.408 
L 366.021818 285.408 
L 382.254545 285.408 
L 398.487273 285.408 
" style="fill:none;stroke:#d44e4e;stroke-linecap:square;stroke-width:3;"/>
   </g>
   <g id="line2d_47">
    <path clip-path="url(#p6e6647c4f3)" d="M 73.832727 237.014903 
L 90.065455 192.797795 
L 106.298182 194.009854 
L 122.530909 190.47565 
L 138.763636 173.700245 
L 154.996364 186.497627 
L 171.229091 215.318242 
L 187.461818 258.817023 
L 203.694545 238.186589 
L 219.927273 220.053131 
L 236.16 217.422339 
L 252.392727 198.72401 
L 268.625455 183.790924 
L 284.858182 174.947894 
L 301.090909 189.799718 
L 317.323636 219.579874 
L 333.556364 268.254437 
L 349.789091 285.408 
L 366.021818 270.819912 
L 382.254545 234.441559 
L 398.487273 237.014903 
" style="fill:none;stroke:#0e4db3;stroke-linecap:square;stroke-width:3;"/>
   </g>
   <g id="line2d_48">
    <path clip-path="url(#p6e6647c4f3)" d="M 73.832727 285.408 
L 90.065455 248.810136 
L 106.298182 252.152802 
L 122.530909 240.58456 
L 138.763636 268.613879 
L 154.996364 281.995794 
L 171.229091 285.408 
L 187.461818 285.408 
L 203.694545 285.408 
L 219.927273 285.408 
L 236.16 284.345263 
L 252.392727 268.91154 
L 268.625455 259.400448 
L 284.858182 261.326423 
L 301.090909 270.336507 
L 317.323636 285.408 
L 333.556364 285.408 
L 349.789091 285.408 
L 366.021818 285.408 
L 382.254545 285.408 
L 398.487273 285.408 
" style="fill:none;stroke:#d44e4e;stroke-linecap:square;stroke-width:3;"/>
   </g>
   <g id="line2d_49">
    <path clip-path="url(#p6e6647c4f3)" d="M 73.832727 285.408 
L 90.065455 285.408 
L 106.298182 285.408 
L 122.530909 285.408 
L 138.763636 285.408 
L 154.996364 285.408 
L 171.229091 285.408 
L 187.461818 285.408 
L 203.694545 285.408 
L 219.927273 285.408 
L 236.16 285.408 
L 252.392727 285.408 
L 268.625455 285.408 
L 284.858182 285.408 
L 301.090909 285.408 
L 317.323636 285.408 
L 333.556364 285.408 
L 349.789091 285.408 
L 366.021818 285.408 
L 382.254545 285.408 
L 398.487273 285.408 
" style="fill:none;stroke:#0e4db3;stroke-linecap:square;stroke-width:3;"/>
   </g>
   <g id="line2d_50">
    <path clip-path="url(#p6e6647c4f3)" d="M 73.832727 285.408 
L 90.065455 285.408 
L 106.298182 285.408 
L 122.530909 285.408 
L 138.763636 285.408 
L 154.996364 285.408 
L 171.229091 285.408 
L 187.461818 285.408 
L 203.694545 285.408 
L 219.927273 285.408 
L 236.16 285.408 
L 252.392727 285.408 
L 268.625455 285.408 
L 284.858182 285.408 
L 301.090909 285.408 
L 317.323636 285.408 
L 333.556364 285.408 
L 349.789091 285.408 
L 366.021818 285.408 
L 382.254545 285.408 
L 398.487273 285.408 
" style="fill:none;stroke:#d44e4e;stroke-linecap:square;stroke-width:3;"/>
   </g>
   <g id="line2d_51">
    <path clip-path="url(#p6e6647c4f3)" d="M 73.832727 285.408 
L 90.065455 285.408 
L 106.298182 285.408 
L 122.530909 285.408 
L 138.763636 285.408 
L 154.996364 285.408 
L 171.229091 285.408 
L 187.461818 285.408 
L 203.694545 285.408 
L 219.927273 285.408 
L 236.16 285.408 
L 252.392727 285.408 
L 268.625455 285.408 
L 284.858182 285.408 
L 301.090909 285.408 
L 317.323636 285.408 
L 333.556364 285.408 
L 349.789091 285.408 
L 366.021818 285.408 
L 382.254545 285.408 
L 398.487273 285.408 
" style="fill:none;stroke:#0e4db3;stroke-linecap:square;stroke-width:3;"/>
   </g>
   <g id="line2d_52">
    <path clip-path="url(#p6e6647c4f3)" d="M 73.832727 285.408 
L 90.065455 285.408 
L 106.298182 285.408 
L 122.530909 285.408 
L 138.763636 285.408 
L 154.996364 285.408 
L 171.229091 285.408 
L 187.461818 285.408 
L 203.694545 285.408 
L 219.927273 285.408 
L 236.16 285.408 
L 252.392727 285.408 
L 268.625455 285.408 
L 284.858182 285.408 
L 301.090909 285.408 
L 317.323636 285.408 
L 333.556364 285.408 
L 349.789091 285.408 
L 366.021818 285.408 
L 382.254545 285.408 
L 398.487273 285.408 
" style="fill:none;stroke:#d44e4e;stroke-linecap:square;stroke-width:3;"/>
   </g>
   <g id="line2d_53">
    <path clip-path="url(#p6e6647c4f3)" d="M 73.832727 120.242387 
L 90.065455 171.261784 
L 106.298182 220.410678 
L 122.530909 227.614166 
L 138.763636 224.817773 
L 154.996364 226.57137 
L 171.229091 223.282856 
L 187.461818 231.842542 
L 203.694545 240.034098 
L 219.927273 209.070444 
L 236.16 201.262695 
L 252.392727 192.035376 
L 268.625455 214.466429 
L 284.858182 190.549543 
L 301.090909 156.106329 
L 317.323636 112.90797 
L 333.556364 78.73761 
L 349.789091 86.014778 
L 366.021818 94.652839 
L 382.254545 105.931594 
L 398.487273 120.242387 
" style="fill:none;stroke:#0e4db3;stroke-linecap:square;stroke-width:3;"/>
   </g>
   <g id="line2d_54">
    <path clip-path="url(#p6e6647c4f3)" d="M 73.832727 285.408 
L 90.065455 285.408 
L 106.298182 285.408 
L 122.530909 285.408 
L 138.763636 285.408 
L 154.996364 285.408 
L 171.229091 285.408 
L 187.461818 285.408 
L 203.694545 285.408 
L 219.927273 285.408 
L 236.16 285.408 
L 252.392727 285.408 
L 268.625455 285.408 
L 284.858182 285.408 
L 301.090909 285.408 
L 317.323636 240.215084 
L 333.556364 262.01018 
L 349.789091 241.831772 
L 366.021818 237.874269 
L 382.254545 256.52657 
L 398.487273 285.408 
" style="fill:none;stroke:#d44e4e;stroke-linecap:square;stroke-width:3;"/>
   </g>
   <g id="line2d_55">
    <path clip-path="url(#p6e6647c4f3)" d="M 73.832727 285.408 
L 90.065455 285.408 
L 106.298182 285.408 
L 122.530909 285.408 
L 138.763636 285.408 
L 154.996364 285.408 
L 171.229091 285.408 
L 187.461818 285.408 
L 203.694545 285.408 
L 219.927273 285.408 
L 236.16 285.408 
L 252.392727 285.408 
L 268.625455 285.408 
L 284.858182 285.408 
L 301.090909 285.408 
L 317.323636 285.408 
L 333.556364 285.408 
L 349.789091 285.408 
L 366.021818 285.408 
L 382.254545 285.408 
L 398.487273 285.408 
" style="fill:none;stroke:#0e4db3;stroke-linecap:square;stroke-width:3;"/>
   </g>
   <g id="line2d_56">
    <path clip-path="url(#p6e6647c4f3)" d="M 73.832727 285.408 
L 90.065455 285.408 
L 106.298182 285.408 
L 122.530909 285.408 
L 138.763636 285.408 
L 154.996364 285.408 
L 171.229091 285.408 
L 187.461818 285.408 
L 203.694545 285.408 
L 219.927273 285.408 
L 236.16 285.408 
L 252.392727 285.408 
L 268.625455 285.408 
L 284.858182 285.408 
L 301.090909 285.408 
L 317.323636 285.408 
L 333.556364 285.408 
L 349.789091 285.408 
L 366.021818 285.408 
L 382.254545 285.408 
L 398.487273 285.408 
" style="fill:none;stroke:#d44e4e;stroke-linecap:square;stroke-width:3;"/>
   </g>
   <g id="line2d_57">
    <path clip-path="url(#p6e6647c4f3)" d="M 73.832727 285.408 
L 90.065455 285.408 
L 106.298182 285.408 
L 122.530909 285.408 
L 138.763636 285.408 
L 154.996364 285.408 
L 171.229091 285.408 
L 187.461818 285.408 
L 203.694545 285.408 
L 219.927273 285.408 
L 236.16 285.408 
L 252.392727 285.408 
L 268.625455 285.408 
L 284.858182 285.408 
L 301.090909 285.408 
L 317.323636 285.408 
L 333.556364 285.408 
L 349.789091 285.408 
L 366.021818 285.408 
L 382.254545 285.408 
L 398.487273 285.408 
" style="fill:none;stroke:#0e4db3;stroke-linecap:square;stroke-width:3;"/>
   </g>
   <g id="line2d_58">
    <path clip-path="url(#p6e6647c4f3)" d="M 73.832727 285.408 
L 90.065455 285.408 
L 106.298182 285.408 
L 122.530909 285.408 
L 138.763636 285.408 
L 154.996364 285.408 
L 171.229091 285.408 
L 187.461818 285.408 
L 203.694545 285.408 
L 219.927273 285.408 
L 236.16 285.408 
L 252.392727 285.408 
L 268.625455 285.408 
L 284.858182 285.408 
L 301.090909 285.408 
L 317.323636 285.408 
L 333.556364 285.408 
L 349.789091 285.408 
L 366.021818 285.408 
L 382.254545 285.408 
L 398.487273 285.408 
" style="fill:none;stroke:#d44e4e;stroke-linecap:square;stroke-width:3;"/>
   </g>
   <g id="line2d_59">
    <path clip-path="url(#p6e6647c4f3)" d="M 73.832727 264.586421 
L 90.065455 264.657699 
L 106.298182 268.759975 
L 122.530909 274.296087 
L 138.763636 274.236922 
L 154.996364 275.180524 
L 171.229091 268.41514 
L 187.461818 252.340589 
L 203.694545 218.782582 
L 219.927273 194.962818 
L 236.16 224.736502 
L 252.392727 181.049587 
L 268.625455 186.584234 
L 284.858182 188.555663 
L 301.090909 188.979578 
L 317.323636 203.077495 
L 333.556364 211.949314 
L 349.789091 227.781972 
L 366.021818 236.05152 
L 382.254545 250.226746 
L 398.487273 264.586421 
" style="fill:none;stroke:#0e4db3;stroke-linecap:square;stroke-width:3;"/>
   </g>
   <g id="line2d_60">
    <path clip-path="url(#p6e6647c4f3)" d="M 73.832727 284.394625 
L 90.065455 277.919812 
L 106.298182 283.883239 
L 122.530909 280.634447 
L 138.763636 280.315493 
L 154.996364 280.767712 
L 171.229091 284.459432 
L 187.461818 284.677412 
L 203.694545 284.558233 
L 219.927273 255.728753 
L 236.16 284.017237 
L 252.392727 243.425115 
L 268.625455 251.585289 
L 284.858182 260.941746 
L 301.090909 265.750334 
L 317.323636 260.030839 
L 333.556364 267.906596 
L 349.789091 262.232129 
L 366.021818 268.234278 
L 382.254545 271.90923 
L 398.487273 284.394625 
" style="fill:none;stroke:#d44e4e;stroke-linecap:square;stroke-width:3;"/>
   </g>
   <g id="line2d_61">
    <path clip-path="url(#p6e6647c4f3)" d="M 73.832727 285.408 
L 90.065455 285.408 
L 106.298182 285.408 
L 122.530909 285.408 
L 138.763636 285.408 
L 154.996364 285.408 
L 171.229091 285.408 
L 187.461818 285.408 
L 203.694545 285.408 
L 219.927273 285.408 
L 236.16 285.408 
L 252.392727 285.408 
L 268.625455 285.408 
L 284.858182 285.408 
L 301.090909 285.408 
L 317.323636 285.408 
L 333.556364 285.408 
L 349.789091 285.408 
L 366.021818 285.408 
L 382.254545 285.408 
L 398.487273 285.408 
" style="fill:none;stroke:#0e4db3;stroke-linecap:square;stroke-width:3;"/>
   </g>
   <g id="line2d_62">
    <path clip-path="url(#p6e6647c4f3)" d="M 73.832727 285.408 
L 90.065455 285.408 
L 106.298182 285.408 
L 122.530909 285.408 
L 138.763636 285.408 
L 154.996364 285.408 
L 171.229091 285.408 
L 187.461818 285.408 
L 203.694545 285.408 
L 219.927273 285.408 
L 236.16 285.408 
L 252.392727 285.408 
L 268.625455 285.408 
L 284.858182 285.408 
L 301.090909 285.408 
L 317.323636 285.408 
L 333.556364 285.408 
L 349.789091 285.408 
L 366.021818 285.408 
L 382.254545 285.408 
L 398.487273 285.408 
" style="fill:none;stroke:#d44e4e;stroke-linecap:square;stroke-width:3;"/>
   </g>
   <g id="line2d_63">
    <path clip-path="url(#p6e6647c4f3)" d="M 73.832727 285.408 
L 90.065455 285.408 
L 106.298182 285.408 
L 122.530909 285.408 
L 138.763636 285.408 
L 154.996364 285.408 
L 171.229091 285.408 
L 187.461818 285.408 
L 203.694545 285.408 
L 219.927273 285.408 
L 236.16 285.408 
L 252.392727 285.408 
L 268.625455 285.408 
L 284.858182 285.408 
L 301.090909 285.408 
L 317.323636 285.408 
L 333.556364 285.408 
L 349.789091 285.408 
L 366.021818 285.408 
L 382.254545 285.408 
L 398.487273 285.408 
" style="fill:none;stroke:#0e4db3;stroke-linecap:square;stroke-width:3;"/>
   </g>
   <g id="line2d_64">
    <path clip-path="url(#p6e6647c4f3)" d="M 73.832727 285.408 
L 90.065455 285.408 
L 106.298182 285.408 
L 122.530909 285.408 
L 138.763636 285.408 
L 154.996364 285.408 
L 171.229091 285.408 
L 187.461818 285.408 
L 203.694545 285.408 
L 219.927273 285.408 
L 236.16 285.408 
L 252.392727 285.408 
L 268.625455 285.408 
L 284.858182 285.408 
L 301.090909 285.408 
L 317.323636 285.408 
L 333.556364 285.408 
L 349.789091 285.408 
L 366.021818 285.408 
L 382.254545 285.408 
L 398.487273 285.408 
" style="fill:none;stroke:#d44e4e;stroke-linecap:square;stroke-width:3;"/>
   </g>
   <g id="line2d_65">
    <path clip-path="url(#p6e6647c4f3)" d="M 73.832727 285.408 
L 90.065455 285.408 
L 106.298182 285.408 
L 122.530909 285.408 
L 138.763636 285.408 
L 154.996364 285.408 
L 171.229091 285.408 
L 187.461818 285.408 
L 203.694545 285.408 
L 219.927273 285.408 
L 236.16 285.408 
L 252.392727 285.408 
L 268.625455 285.408 
L 284.858182 285.408 
L 301.090909 285.408 
L 317.323636 285.408 
L 333.556364 285.408 
L 349.789091 285.408 
L 366.021818 285.408 
L 382.254545 285.408 
L 398.487273 285.408 
" style="fill:none;stroke:#0e4db3;stroke-linecap:square;stroke-width:3;"/>
   </g>
   <g id="line2d_66">
    <path clip-path="url(#p6e6647c4f3)" d="M 73.832727 285.408 
L 90.065455 285.408 
L 106.298182 285.408 
L 122.530909 285.408 
L 138.763636 285.408 
L 154.996364 285.408 
L 171.229091 285.408 
L 187.461818 285.408 
L 203.694545 285.408 
L 219.927273 285.408 
L 236.16 285.408 
L 252.392727 285.408 
L 268.625455 285.408 
L 284.858182 285.408 
L 301.090909 285.408 
L 317.323636 285.408 
L 333.556364 285.408 
L 349.789091 285.408 
L 366.021818 285.408 
L 382.254545 285.408 
L 398.487273 285.408 
" style="fill:none;stroke:#d44e4e;stroke-linecap:square;stroke-width:3;"/>
   </g>
   <g id="line2d_67">
    <path clip-path="url(#p6e6647c4f3)" d="M 73.832727 285.408 
L 90.065455 285.408 
L 106.298182 285.408 
L 122.530909 285.408 
L 138.763636 285.408 
L 154.996364 285.408 
L 171.229091 285.408 
L 187.461818 285.408 
L 203.694545 285.408 
L 219.927273 285.408 
L 236.16 285.408 
L 252.392727 285.408 
L 268.625455 285.408 
L 284.858182 285.408 
L 301.090909 285.408 
L 317.323636 285.408 
L 333.556364 285.408 
L 349.789091 285.408 
L 366.021818 285.408 
L 382.254545 285.408 
L 398.487273 285.408 
" style="fill:none;stroke:#0e4db3;stroke-linecap:square;stroke-width:3;"/>
   </g>
   <g id="line2d_68">
    <path clip-path="url(#p6e6647c4f3)" d="M 73.832727 285.408 
L 90.065455 285.408 
L 106.298182 285.408 
L 122.530909 285.408 
L 138.763636 285.408 
L 154.996364 285.408 
L 171.229091 285.408 
L 187.461818 285.408 
L 203.694545 285.408 
L 219.927273 285.408 
L 236.16 285.408 
L 252.392727 285.408 
L 268.625455 285.408 
L 284.858182 285.408 
L 301.090909 285.408 
L 317.323636 285.408 
L 333.556364 285.408 
L 349.789091 285.408 
L 366.021818 285.408 
L 382.254545 285.408 
L 398.487273 285.408 
" style="fill:none;stroke:#d44e4e;stroke-linecap:square;stroke-width:3;"/>
   </g>
   <g id="line2d_69">
    <path clip-path="url(#p6e6647c4f3)" d="M 73.832727 225.35822 
L 90.065455 207.201055 
L 106.298182 175.519058 
L 122.530909 180.429245 
L 138.763636 151.811559 
L 154.996364 153.850357 
L 171.229091 173.814871 
L 187.461818 215.067406 
L 203.694545 195.689102 
L 219.927273 195.357197 
L 236.16 217.681442 
L 252.392727 204.312215 
L 268.625455 209.842183 
L 284.858182 227.784539 
L 301.090909 229.323876 
L 317.323636 249.848007 
L 333.556364 241.440447 
L 349.789091 234.92772 
L 366.021818 221.985158 
L 382.254545 221.903903 
L 398.487273 225.35822 
" style="fill:none;stroke:#0e4db3;stroke-linecap:square;stroke-width:3;"/>
   </g>
   <g id="line2d_70">
    <path clip-path="url(#p6e6647c4f3)" d="M 73.832727 285.408 
L 90.065455 285.408 
L 106.298182 285.408 
L 122.530909 285.408 
L 138.763636 285.408 
L 154.996364 285.408 
L 171.229091 285.408 
L 187.461818 285.408 
L 203.694545 285.408 
L 219.927273 285.408 
L 236.16 285.408 
L 252.392727 285.408 
L 268.625455 285.408 
L 284.858182 285.408 
L 301.090909 285.408 
L 317.323636 285.408 
L 333.556364 285.408 
L 349.789091 285.408 
L 366.021818 285.408 
L 382.254545 285.408 
L 398.487273 285.408 
" style="fill:none;stroke:#d44e4e;stroke-linecap:square;stroke-width:3;"/>
   </g>
   <g id="line2d_71">
    <path clip-path="url(#p6e6647c4f3)" d="M 73.832727 285.408 
L 90.065455 285.408 
L 106.298182 285.408 
L 122.530909 285.408 
L 138.763636 285.408 
L 154.996364 285.408 
L 171.229091 285.408 
L 187.461818 285.408 
L 203.694545 285.408 
L 219.927273 285.408 
L 236.16 285.408 
L 252.392727 285.408 
L 268.625455 285.408 
L 284.858182 285.408 
L 301.090909 285.408 
L 317.323636 285.408 
L 333.556364 285.408 
L 349.789091 285.408 
L 366.021818 285.408 
L 382.254545 285.408 
L 398.487273 285.408 
" style="fill:none;stroke:#0e4db3;stroke-linecap:square;stroke-width:3;"/>
   </g>
   <g id="line2d_72">
    <path clip-path="url(#p6e6647c4f3)" d="M 73.832727 285.408 
L 90.065455 285.408 
L 106.298182 285.408 
L 122.530909 285.408 
L 138.763636 285.408 
L 154.996364 285.408 
L 171.229091 285.408 
L 187.461818 285.408 
L 203.694545 285.408 
L 219.927273 285.408 
L 236.16 285.408 
L 252.392727 285.408 
L 268.625455 285.408 
L 284.858182 285.408 
L 301.090909 285.408 
L 317.323636 285.408 
L 333.556364 285.408 
L 349.789091 285.408 
L 366.021818 285.408 
L 382.254545 285.408 
L 398.487273 285.408 
" style="fill:none;stroke:#d44e4e;stroke-linecap:square;stroke-width:3;"/>
   </g>
   <g id="line2d_73">
    <path clip-path="url(#p6e6647c4f3)" d="M 73.832727 285.408 
L 90.065455 285.408 
L 106.298182 285.408 
L 122.530909 285.408 
L 138.763636 285.408 
L 154.996364 285.408 
L 171.229091 285.408 
L 187.461818 285.408 
L 203.694545 285.408 
L 219.927273 285.408 
L 236.16 285.408 
L 252.392727 285.408 
L 268.625455 285.408 
L 284.858182 285.408 
L 301.090909 285.408 
L 317.323636 285.408 
L 333.556364 285.408 
L 349.789091 285.408 
L 366.021818 285.408 
L 382.254545 285.408 
L 398.487273 285.408 
" style="fill:none;stroke:#0e4db3;stroke-linecap:square;stroke-width:3;"/>
   </g>
   <g id="line2d_74">
    <path clip-path="url(#p6e6647c4f3)" d="M 73.832727 285.408 
L 90.065455 285.408 
L 106.298182 285.408 
L 122.530909 285.408 
L 138.763636 285.408 
L 154.996364 285.408 
L 171.229091 285.408 
L 187.461818 285.408 
L 203.694545 285.408 
L 219.927273 285.408 
L 236.16 285.408 
L 252.392727 285.408 
L 268.625455 285.408 
L 284.858182 285.408 
L 301.090909 285.408 
L 317.323636 285.408 
L 333.556364 285.408 
L 349.789091 285.408 
L 366.021818 285.408 
L 382.254545 285.408 
L 398.487273 285.408 
" style="fill:none;stroke:#d44e4e;stroke-linecap:square;stroke-width:3;"/>
   </g>
   <g id="line2d_75">
    <path clip-path="url(#p6e6647c4f3)" d="M 73.832727 285.408 
L 90.065455 285.408 
L 106.298182 285.408 
L 122.530909 285.408 
L 138.763636 285.408 
L 154.996364 285.408 
L 171.229091 285.408 
L 187.461818 285.408 
L 203.694545 285.408 
L 219.927273 285.408 
L 236.16 285.408 
L 252.392727 285.408 
L 268.625455 285.408 
L 284.858182 285.408 
L 301.090909 285.408 
L 317.323636 285.408 
L 333.556364 285.408 
L 349.789091 285.408 
L 366.021818 285.408 
L 382.254545 285.408 
L 398.487273 285.408 
" style="fill:none;stroke:#0e4db3;stroke-linecap:square;stroke-width:3;"/>
   </g>
   <g id="line2d_76">
    <path clip-path="url(#p6e6647c4f3)" d="M 73.832727 285.408 
L 90.065455 285.408 
L 106.298182 285.408 
L 122.530909 285.408 
L 138.763636 285.408 
L 154.996364 285.408 
L 171.229091 285.408 
L 187.461818 285.408 
L 203.694545 285.408 
L 219.927273 285.408 
L 236.16 285.408 
L 252.392727 285.408 
L 268.625455 285.408 
L 284.858182 285.408 
L 301.090909 285.408 
L 317.323636 285.408 
L 333.556364 285.408 
L 349.789091 285.408 
L 366.021818 285.408 
L 382.254545 285.408 
L 398.487273 285.408 
" style="fill:none;stroke:#d44e4e;stroke-linecap:square;stroke-width:3;"/>
   </g>
   <g id="line2d_77">
    <path clip-path="url(#p6e6647c4f3)" d="M 73.832727 239.899375 
L 90.065455 217.015233 
L 106.298182 251.236863 
L 122.530909 249.564447 
L 138.763636 235.927448 
L 154.996364 233.568269 
L 171.229091 220.331344 
L 187.461818 185.39346 
L 203.694545 162.083822 
L 219.927273 146.921589 
L 236.16 165.605695 
L 252.392727 120.338979 
L 268.625455 110.636408 
L 284.858182 141.574744 
L 301.090909 143.224993 
L 317.323636 191.209758 
L 333.556364 213.691842 
L 349.789091 195.086376 
L 366.021818 197.231945 
L 382.254545 204.095623 
L 398.487273 239.899375 
" style="fill:none;stroke:#0e4db3;stroke-linecap:square;stroke-width:3;"/>
   </g>
   <g id="line2d_78">
    <path clip-path="url(#p6e6647c4f3)" d="M 73.832727 285.408 
L 90.065455 285.408 
L 106.298182 285.408 
L 122.530909 285.408 
L 138.763636 285.408 
L 154.996364 285.408 
L 171.229091 285.408 
L 187.461818 285.408 
L 203.694545 285.408 
L 219.927273 285.408 
L 236.16 285.408 
L 252.392727 285.408 
L 268.625455 285.408 
L 284.858182 285.408 
L 301.090909 285.408 
L 317.323636 285.408 
L 333.556364 285.408 
L 349.789091 285.408 
L 366.021818 285.408 
L 382.254545 285.408 
L 398.487273 285.408 
" style="fill:none;stroke:#d44e4e;stroke-linecap:square;stroke-width:3;"/>
   </g>
   <g id="line2d_79">
    <path clip-path="url(#p6e6647c4f3)" d="M 73.832727 285.408 
L 90.065455 285.408 
L 106.298182 285.408 
L 122.530909 285.408 
L 138.763636 285.408 
L 154.996364 285.408 
L 171.229091 285.408 
L 187.461818 285.408 
L 203.694545 285.408 
L 219.927273 285.408 
L 236.16 285.408 
L 252.392727 285.408 
L 268.625455 285.408 
L 284.858182 285.408 
L 301.090909 285.408 
L 317.323636 285.408 
L 333.556364 285.408 
L 349.789091 285.408 
L 366.021818 285.408 
L 382.254545 285.408 
L 398.487273 285.408 
" style="fill:none;stroke:#0e4db3;stroke-linecap:square;stroke-width:3;"/>
   </g>
   <g id="line2d_80">
    <path clip-path="url(#p6e6647c4f3)" d="M 73.832727 285.408 
L 90.065455 285.408 
L 106.298182 285.408 
L 122.530909 285.408 
L 138.763636 285.408 
L 154.996364 285.408 
L 171.229091 285.408 
L 187.461818 285.408 
L 203.694545 285.408 
L 219.927273 285.408 
L 236.16 285.408 
L 252.392727 285.408 
L 268.625455 285.408 
L 284.858182 285.408 
L 301.090909 285.408 
L 317.323636 285.408 
L 333.556364 285.408 
L 349.789091 285.408 
L 366.021818 285.408 
L 382.254545 285.408 
L 398.487273 285.408 
" style="fill:none;stroke:#d44e4e;stroke-linecap:square;stroke-width:3;"/>
   </g>
   <g id="line2d_81">
    <path clip-path="url(#p6e6647c4f3)" d="M 73.832727 169.556969 
L 90.065455 152.445115 
L 106.298182 154.536887 
L 122.530909 170.266645 
L 138.763636 189.872445 
L 154.996364 197.177894 
L 171.229091 186.838344 
L 187.461818 201.489944 
L 203.694545 232.987236 
L 219.927273 251.412976 
L 236.16 256.0487 
L 252.392727 230.036359 
L 268.625455 240.850874 
L 284.858182 238.991127 
L 301.090909 192.209934 
L 317.323636 204.97802 
L 333.556364 196.758224 
L 349.789091 206.199862 
L 366.021818 192.064232 
L 382.254545 185.281831 
L 398.487273 169.556969 
" style="fill:none;stroke:#0e4db3;stroke-linecap:square;stroke-width:3;"/>
   </g>
   <g id="line2d_82">
    <path clip-path="url(#p6e6647c4f3)" d="M 73.832727 285.408 
L 90.065455 266.578513 
L 106.298182 254.116604 
L 122.530909 266.803406 
L 138.763636 285.408 
L 154.996364 285.408 
L 171.229091 263.619006 
L 187.461818 280.796201 
L 203.694545 285.408 
L 219.927273 285.408 
L 236.16 285.408 
L 252.392727 285.408 
L 268.625455 285.408 
L 284.858182 285.408 
L 301.090909 284.297892 
L 317.323636 285.408 
L 333.556364 285.408 
L 349.789091 260.358373 
L 366.021818 249.906475 
L 382.254545 261.430842 
L 398.487273 285.408 
" style="fill:none;stroke:#d44e4e;stroke-linecap:square;stroke-width:3;"/>
   </g>
   <g id="line2d_83">
    <path clip-path="url(#p6e6647c4f3)" d="M 73.832727 194.758432 
L 90.065455 200.079051 
L 106.298182 199.878088 
L 122.530909 197.290345 
L 138.763636 205.619744 
L 154.996364 233.193992 
L 171.229091 245.412505 
L 187.461818 254.070522 
L 203.694545 228.028679 
L 219.927273 169.286618 
L 236.16 143.236413 
L 252.392727 132.891572 
L 268.625455 147.154099 
L 284.858182 162.72462 
L 301.090909 157.855323 
L 317.323636 153.265381 
L 333.556364 169.283666 
L 349.789091 165.078014 
L 366.021818 186.652821 
L 382.254545 191.677881 
L 398.487273 194.758432 
" style="fill:none;stroke:#0e4db3;stroke-linecap:square;stroke-width:3;"/>
   </g>
   <g id="line2d_84">
    <path clip-path="url(#p6e6647c4f3)" d="M 73.832727 214.676189 
L 90.065455 217.158087 
L 106.298182 214.982578 
L 122.530909 217.32352 
L 138.763636 218.100349 
L 154.996364 244.482717 
L 171.229091 258.165609 
L 187.461818 256.393919 
L 203.694545 237.962355 
L 219.927273 200.173214 
L 236.16 178.928884 
L 252.392727 170.658176 
L 268.625455 177.69669 
L 284.858182 191.270453 
L 301.090909 184.983342 
L 317.323636 179.314406 
L 333.556364 191.510998 
L 349.789091 188.885797 
L 366.021818 202.578715 
L 382.254545 191.160095 
L 398.487273 214.676189 
" style="fill:none;stroke:#d44e4e;stroke-linecap:square;stroke-width:3;"/>
   </g>
   <g id="line2d_85">
    <path clip-path="url(#p6e6647c4f3)" d="M 73.832727 285.408 
L 90.065455 285.408 
L 106.298182 285.408 
L 122.530909 285.408 
L 138.763636 285.408 
L 154.996364 285.408 
L 171.229091 285.408 
L 187.461818 285.408 
L 203.694545 285.408 
L 219.927273 285.408 
L 236.16 285.408 
L 252.392727 285.408 
L 268.625455 285.408 
L 284.858182 285.408 
L 301.090909 285.408 
L 317.323636 285.408 
L 333.556364 285.408 
L 349.789091 285.408 
L 366.021818 285.408 
L 382.254545 285.408 
L 398.487273 285.408 
" style="fill:none;stroke:#0e4db3;stroke-linecap:square;stroke-width:3;"/>
   </g>
   <g id="line2d_86">
    <path clip-path="url(#p6e6647c4f3)" d="M 73.832727 285.408 
L 90.065455 285.408 
L 106.298182 285.408 
L 122.530909 285.408 
L 138.763636 285.408 
L 154.996364 285.408 
L 171.229091 285.408 
L 187.461818 285.408 
L 203.694545 285.408 
L 219.927273 285.408 
L 236.16 285.408 
L 252.392727 285.408 
L 268.625455 285.408 
L 284.858182 285.408 
L 301.090909 285.408 
L 317.323636 285.408 
L 333.556364 285.408 
L 349.789091 285.408 
L 366.021818 285.408 
L 382.254545 285.408 
L 398.487273 285.408 
" style="fill:none;stroke:#d44e4e;stroke-linecap:square;stroke-width:3;"/>
   </g>
   <g id="line2d_87">
    <path clip-path="url(#p6e6647c4f3)" d="M 73.832727 285.408 
L 90.065455 285.408 
L 106.298182 285.408 
L 122.530909 285.408 
L 138.763636 285.408 
L 154.996364 285.408 
L 171.229091 285.408 
L 187.461818 285.408 
L 203.694545 285.408 
L 219.927273 285.408 
L 236.16 285.408 
L 252.392727 285.408 
L 268.625455 285.408 
L 284.858182 285.408 
L 301.090909 285.408 
L 317.323636 285.408 
L 333.556364 285.408 
L 349.789091 285.408 
L 366.021818 285.408 
L 382.254545 285.408 
L 398.487273 285.408 
" style="fill:none;stroke:#0e4db3;stroke-linecap:square;stroke-width:3;"/>
   </g>
   <g id="line2d_88">
    <path clip-path="url(#p6e6647c4f3)" d="M 73.832727 285.408 
L 90.065455 285.408 
L 106.298182 285.408 
L 122.530909 285.408 
L 138.763636 285.408 
L 154.996364 285.408 
L 171.229091 285.408 
L 187.461818 285.408 
L 203.694545 285.408 
L 219.927273 285.408 
L 236.16 285.408 
L 252.392727 285.408 
L 268.625455 285.408 
L 284.858182 285.408 
L 301.090909 285.408 
L 317.323636 285.408 
L 333.556364 285.408 
L 349.789091 285.408 
L 366.021818 285.408 
L 382.254545 285.408 
L 398.487273 285.408 
" style="fill:none;stroke:#d44e4e;stroke-linecap:square;stroke-width:3;"/>
   </g>
   <g id="line2d_89">
    <path clip-path="url(#p6e6647c4f3)" d="M 73.832727 285.408 
L 90.065455 285.408 
L 106.298182 285.408 
L 122.530909 272.427517 
L 138.763636 261.162833 
L 154.996364 257.93538 
L 171.229091 268.161718 
L 187.461818 250.425274 
L 203.694545 215.665783 
L 219.927273 198.036314 
L 236.16 277.593358 
L 252.392727 153.406666 
L 268.625455 114.87046 
L 284.858182 121.271547 
L 301.090909 123.84843 
L 317.323636 172.326071 
L 333.556364 219.327774 
L 349.789091 270.058441 
L 366.021818 285.408 
L 382.254545 285.408 
L 398.487273 285.408 
" style="fill:none;stroke:#0e4db3;stroke-linecap:square;stroke-width:3;"/>
   </g>
   <g id="line2d_90">
    <path clip-path="url(#p6e6647c4f3)" d="M 73.832727 285.408 
L 90.065455 285.408 
L 106.298182 285.408 
L 122.530909 285.408 
L 138.763636 285.408 
L 154.996364 285.408 
L 171.229091 285.408 
L 187.461818 285.408 
L 203.694545 276.774272 
L 219.927273 269.817666 
L 236.16 285.408 
L 252.392727 240.03733 
L 268.625455 231.80984 
L 284.858182 216.139025 
L 301.090909 223.331118 
L 317.323636 247.102032 
L 333.556364 263.998383 
L 349.789091 285.408 
L 366.021818 285.408 
L 382.254545 285.408 
L 398.487273 285.408 
" style="fill:none;stroke:#d44e4e;stroke-linecap:square;stroke-width:3;"/>
   </g>
   <g id="line2d_91">
    <path clip-path="url(#p6e6647c4f3)" d="M 73.832727 154.288323 
L 90.065455 124.338937 
L 106.298182 110.295512 
L 122.530909 97.34594 
L 138.763636 83.58628 
L 154.996364 101.887495 
L 171.229091 119.925737 
L 187.461818 179.37889 
L 203.694545 186.297733 
L 219.927273 197.001624 
L 236.16 184.625989 
L 252.392727 174.053831 
L 268.625455 180.411727 
L 284.858182 161.523451 
L 301.090909 181.093331 
L 317.323636 190.546472 
L 333.556364 217.731397 
L 349.789091 208.400528 
L 366.021818 198.275611 
L 382.254545 176.461761 
L 398.487273 154.288323 
" style="fill:none;stroke:#0e4db3;stroke-linecap:square;stroke-width:3;"/>
   </g>
   <g id="line2d_92">
    <path clip-path="url(#p6e6647c4f3)" d="M 73.832727 285.408 
L 90.065455 262.48712 
L 106.298182 266.220932 
L 122.530909 239.207045 
L 138.763636 275.077075 
L 154.996364 283.749043 
L 171.229091 283.775552 
L 187.461818 285.408 
L 203.694545 285.408 
L 219.927273 285.408 
L 236.16 285.408 
L 252.392727 285.408 
L 268.625455 285.408 
L 284.858182 285.408 
L 301.090909 285.408 
L 317.323636 285.408 
L 333.556364 285.408 
L 349.789091 285.408 
L 366.021818 285.408 
L 382.254545 285.408 
L 398.487273 285.408 
" style="fill:none;stroke:#d44e4e;stroke-linecap:square;stroke-width:3;"/>
   </g>
   <g id="line2d_93">
    <path clip-path="url(#p6e6647c4f3)" d="M 73.832727 285.408 
L 90.065455 285.408 
L 106.298182 285.408 
L 122.530909 285.408 
L 138.763636 285.408 
L 154.996364 285.408 
L 171.229091 285.408 
L 187.461818 285.408 
L 203.694545 285.408 
L 219.927273 285.408 
L 236.16 285.408 
L 252.392727 285.408 
L 268.625455 285.408 
L 284.858182 285.408 
L 301.090909 285.408 
L 317.323636 285.408 
L 333.556364 285.408 
L 349.789091 285.408 
L 366.021818 285.408 
L 382.254545 285.408 
L 398.487273 285.408 
" style="fill:none;stroke:#0e4db3;stroke-linecap:square;stroke-width:3;"/>
   </g>
   <g id="line2d_94">
    <path clip-path="url(#p6e6647c4f3)" d="M 73.832727 285.408 
L 90.065455 285.408 
L 106.298182 285.408 
L 122.530909 285.408 
L 138.763636 285.408 
L 154.996364 285.408 
L 171.229091 285.408 
L 187.461818 285.408 
L 203.694545 285.408 
L 219.927273 285.408 
L 236.16 285.408 
L 252.392727 285.408 
L 268.625455 285.408 
L 284.858182 285.408 
L 301.090909 285.408 
L 317.323636 285.408 
L 333.556364 285.408 
L 349.789091 285.408 
L 366.021818 285.408 
L 382.254545 285.408 
L 398.487273 285.408 
" style="fill:none;stroke:#d44e4e;stroke-linecap:square;stroke-width:3;"/>
   </g>
   <g id="line2d_95">
    <path clip-path="url(#p6e6647c4f3)" d="M 73.832727 84.115785 
L 90.065455 116.916942 
L 106.298182 153.008282 
L 122.530909 199.962983 
L 138.763636 233.102867 
L 154.996364 260.296578 
L 171.229091 230.475693 
L 187.461818 195.252489 
L 203.694545 160.48249 
L 219.927273 110.82563 
L 236.16 102.277434 
L 252.392727 101.133746 
L 268.625455 119.773555 
L 284.858182 150.288948 
L 301.090909 117.756281 
L 317.323636 136.928615 
L 333.556364 108.414082 
L 349.789091 118.999267 
L 366.021818 98.787759 
L 382.254545 72.996686 
L 398.487273 84.115785 
" style="fill:none;stroke:#0e4db3;stroke-linecap:square;stroke-width:3;"/>
   </g>
   <g id="line2d_96">
    <path clip-path="url(#p6e6647c4f3)" d="M 73.832727 220.907635 
L 90.065455 216.652551 
L 106.298182 242.001069 
L 122.530909 285.408 
L 138.763636 285.408 
L 154.996364 285.408 
L 171.229091 285.408 
L 187.461818 285.408 
L 203.694545 285.408 
L 219.927273 267.629212 
L 236.16 258.579991 
L 252.392727 228.30577 
L 268.625455 241.381276 
L 284.858182 252.105186 
L 301.090909 209.908633 
L 317.323636 206.620511 
L 333.556364 214.354195 
L 349.789091 190.034224 
L 366.021818 172.908737 
L 382.254545 171.791439 
L 398.487273 220.907635 
" style="fill:none;stroke:#d44e4e;stroke-linecap:square;stroke-width:3;"/>
   </g>
   <g id="line2d_97">
    <path clip-path="url(#p6e6647c4f3)" d="M 73.832727 285.408 
L 90.065455 285.408 
L 106.298182 285.408 
L 122.530909 285.408 
L 138.763636 285.408 
L 154.996364 285.408 
L 171.229091 285.408 
L 187.461818 285.408 
L 203.694545 285.408 
L 219.927273 285.408 
L 236.16 285.408 
L 252.392727 285.408 
L 268.625455 285.408 
L 284.858182 285.408 
L 301.090909 285.408 
L 317.323636 285.408 
L 333.556364 285.408 
L 349.789091 285.408 
L 366.021818 285.408 
L 382.254545 285.408 
L 398.487273 285.408 
" style="fill:none;stroke:#0e4db3;stroke-linecap:square;stroke-width:3;"/>
   </g>
   <g id="line2d_98">
    <path clip-path="url(#p6e6647c4f3)" d="M 73.832727 285.408 
L 90.065455 285.408 
L 106.298182 285.408 
L 122.530909 285.408 
L 138.763636 285.408 
L 154.996364 285.408 
L 171.229091 285.408 
L 187.461818 285.408 
L 203.694545 285.408 
L 219.927273 285.408 
L 236.16 285.408 
L 252.392727 285.408 
L 268.625455 285.408 
L 284.858182 285.408 
L 301.090909 285.408 
L 317.323636 285.408 
L 333.556364 285.408 
L 349.789091 285.408 
L 366.021818 285.408 
L 382.254545 285.408 
L 398.487273 285.408 
" style="fill:none;stroke:#d44e4e;stroke-linecap:square;stroke-width:3;"/>
   </g>
   <g id="line2d_99">
    <path clip-path="url(#p6e6647c4f3)" d="M 73.832727 172.796077 
L 90.065455 155.332087 
L 106.298182 145.350921 
L 122.530909 143.969879 
L 138.763636 132.960794 
L 154.996364 135.901114 
L 171.229091 142.184892 
L 187.461818 161.092861 
L 203.694545 169.721998 
L 219.927273 184.334936 
L 236.16 189.410152 
L 252.392727 194.532356 
L 268.625455 202.530546 
L 284.858182 207.56225 
L 301.090909 198.602949 
L 317.323636 192.981987 
L 333.556364 174.556064 
L 349.789091 185.782517 
L 366.021818 171.148369 
L 382.254545 171.428996 
L 398.487273 172.796077 
" style="fill:none;stroke:#0e4db3;stroke-linecap:square;stroke-width:3;"/>
   </g>
   <g id="line2d_100">
    <path clip-path="url(#p6e6647c4f3)" d="M 73.832727 217.29148 
L 90.065455 208.674279 
L 106.298182 207.85544 
L 122.530909 198.671783 
L 138.763636 199.112111 
L 154.996364 206.595459 
L 171.229091 199.004413 
L 187.461818 205.722068 
L 203.694545 217.374499 
L 219.927273 216.468777 
L 236.16 218.454048 
L 252.392727 218.589249 
L 268.625455 217.204007 
L 284.858182 225.423163 
L 301.090909 231.252099 
L 317.323636 224.474336 
L 333.556364 220.328825 
L 349.789091 197.657833 
L 366.021818 187.225473 
L 382.254545 199.533567 
L 398.487273 217.29148 
" style="fill:none;stroke:#d44e4e;stroke-linecap:square;stroke-width:3;"/>
   </g>
   <g id="line2d_101">
    <path clip-path="url(#p6e6647c4f3)" d="M 73.832727 285.408 
L 90.065455 285.408 
L 106.298182 285.408 
L 122.530909 285.408 
L 138.763636 285.408 
L 154.996364 285.408 
L 171.229091 285.408 
L 187.461818 285.408 
L 203.694545 285.408 
L 219.927273 285.408 
L 236.16 285.408 
L 252.392727 285.408 
L 268.625455 285.408 
L 284.858182 285.408 
L 301.090909 285.408 
L 317.323636 285.408 
L 333.556364 285.408 
L 349.789091 285.408 
L 366.021818 285.408 
L 382.254545 285.408 
L 398.487273 285.408 
" style="fill:none;stroke:#0e4db3;stroke-linecap:square;stroke-width:3;"/>
   </g>
   <g id="line2d_102">
    <path clip-path="url(#p6e6647c4f3)" d="M 73.832727 285.408 
L 90.065455 285.408 
L 106.298182 285.408 
L 122.530909 285.408 
L 138.763636 285.408 
L 154.996364 285.408 
L 171.229091 285.408 
L 187.461818 285.408 
L 203.694545 285.408 
L 219.927273 285.408 
L 236.16 285.408 
L 252.392727 285.408 
L 268.625455 285.408 
L 284.858182 285.408 
L 301.090909 285.408 
L 317.323636 285.408 
L 333.556364 285.408 
L 349.789091 285.408 
L 366.021818 285.408 
L 382.254545 285.408 
L 398.487273 285.408 
" style="fill:none;stroke:#d44e4e;stroke-linecap:square;stroke-width:3;"/>
   </g>
   <g id="line2d_103">
    <path clip-path="url(#p6e6647c4f3)" d="M 73.832727 182.31776 
L 90.065455 164.263906 
L 106.298182 161.271568 
L 122.530909 192.914327 
L 138.763636 202.168163 
L 154.996364 205.583332 
L 171.229091 187.697407 
L 187.461818 186.51176 
L 203.694545 194.775091 
L 219.927273 211.345302 
L 236.16 196.791483 
L 252.392727 189.635645 
L 268.625455 156.939541 
L 284.858182 157.402663 
L 301.090909 142.332081 
L 317.323636 144.322748 
L 333.556364 149.117801 
L 349.789091 172.758506 
L 366.021818 172.352536 
L 382.254545 178.164431 
L 398.487273 182.31776 
" style="fill:none;stroke:#0e4db3;stroke-linecap:square;stroke-width:3;"/>
   </g>
   <g id="line2d_104">
    <path clip-path="url(#p6e6647c4f3)" d="M 73.832727 236.819257 
L 90.065455 218.15289 
L 106.298182 211.110281 
L 122.530909 232.692932 
L 138.763636 245.634025 
L 154.996364 242.538582 
L 171.229091 226.530036 
L 187.461818 220.282734 
L 203.694545 220.858846 
L 219.927273 234.60722 
L 236.16 232.303217 
L 252.392727 232.542305 
L 268.625455 216.495974 
L 284.858182 215.892628 
L 301.090909 209.111266 
L 317.323636 210.105388 
L 333.556364 214.780546 
L 349.789091 210.133296 
L 366.021818 197.910321 
L 382.254545 217.789692 
L 398.487273 236.819257 
" style="fill:none;stroke:#d44e4e;stroke-linecap:square;stroke-width:3;"/>
   </g>
   <g id="line2d_105">
    <path clip-path="url(#p6e6647c4f3)" d="M 73.832727 216.135662 
L 90.065455 206.704973 
L 106.298182 170.066668 
L 122.530909 167.586302 
L 138.763636 158.135023 
L 154.996364 175.719685 
L 171.229091 224.058179 
L 187.461818 240.692015 
L 203.694545 251.628708 
L 219.927273 247.231621 
L 236.16 219.488357 
L 252.392727 236.783476 
L 268.625455 210.706934 
L 284.858182 191.493404 
L 301.090909 176.921618 
L 317.323636 197.801457 
L 333.556364 211.974949 
L 349.789091 239.422243 
L 366.021818 226.234002 
L 382.254545 227.543706 
L 398.487273 216.135662 
" style="fill:none;stroke:#0e4db3;stroke-linecap:square;stroke-width:3;"/>
   </g>
   <g id="line2d_106">
    <path clip-path="url(#p6e6647c4f3)" d="M 73.832727 285.408 
L 90.065455 255.907019 
L 106.298182 248.518725 
L 122.530909 239.264732 
L 138.763636 256.781388 
L 154.996364 274.486313 
L 171.229091 285.408 
L 187.461818 285.408 
L 203.694545 285.408 
L 219.927273 285.408 
L 236.16 285.408 
L 252.392727 285.408 
L 268.625455 285.408 
L 284.858182 276.664071 
L 301.090909 258.341376 
L 317.323636 274.854481 
L 333.556364 282.396276 
L 349.789091 251.501743 
L 366.021818 285.408 
L 382.254545 256.091155 
L 398.487273 285.408 
" style="fill:none;stroke:#d44e4e;stroke-linecap:square;stroke-width:3;"/>
   </g>
   <g id="line2d_107">
    <path clip-path="url(#p6e6647c4f3)" d="M 73.832727 285.408 
L 90.065455 285.408 
L 106.298182 285.408 
L 122.530909 285.408 
L 138.763636 285.408 
L 154.996364 285.408 
L 171.229091 285.408 
L 187.461818 285.408 
L 203.694545 285.408 
L 219.927273 285.408 
L 236.16 285.408 
L 252.392727 285.408 
L 268.625455 285.408 
L 284.858182 285.408 
L 301.090909 285.408 
L 317.323636 285.408 
L 333.556364 285.408 
L 349.789091 285.408 
L 366.021818 285.408 
L 382.254545 285.408 
L 398.487273 285.408 
" style="fill:none;stroke:#0e4db3;stroke-linecap:square;stroke-width:3;"/>
   </g>
   <g id="line2d_108">
    <path clip-path="url(#p6e6647c4f3)" d="M 73.832727 285.408 
L 90.065455 285.408 
L 106.298182 285.408 
L 122.530909 285.408 
L 138.763636 285.408 
L 154.996364 285.408 
L 171.229091 285.408 
L 187.461818 285.408 
L 203.694545 285.408 
L 219.927273 285.408 
L 236.16 285.408 
L 252.392727 285.408 
L 268.625455 285.408 
L 284.858182 285.408 
L 301.090909 285.408 
L 317.323636 285.408 
L 333.556364 285.408 
L 349.789091 285.408 
L 366.021818 285.408 
L 382.254545 285.408 
L 398.487273 285.408 
" style="fill:none;stroke:#d44e4e;stroke-linecap:square;stroke-width:3;"/>
   </g>
   <g id="line2d_109">
    <path clip-path="url(#p6e6647c4f3)" d="M 73.832727 285.408 
L 90.065455 285.408 
L 106.298182 285.408 
L 122.530909 285.408 
L 138.763636 285.408 
L 154.996364 285.408 
L 171.229091 285.408 
L 187.461818 285.408 
L 203.694545 285.408 
L 219.927273 285.408 
L 236.16 285.408 
L 252.392727 285.408 
L 268.625455 285.408 
L 284.858182 285.408 
L 301.090909 285.408 
L 317.323636 285.408 
L 333.556364 285.408 
L 349.789091 285.408 
L 366.021818 285.408 
L 382.254545 285.408 
L 398.487273 285.408 
" style="fill:none;stroke:#0e4db3;stroke-linecap:square;stroke-width:3;"/>
   </g>
   <g id="line2d_110">
    <path clip-path="url(#p6e6647c4f3)" d="M 73.832727 285.408 
L 90.065455 285.408 
L 106.298182 285.408 
L 122.530909 285.408 
L 138.763636 285.408 
L 154.996364 285.408 
L 171.229091 285.408 
L 187.461818 285.408 
L 203.694545 285.408 
L 219.927273 285.408 
L 236.16 285.408 
L 252.392727 285.408 
L 268.625455 285.408 
L 284.858182 285.408 
L 301.090909 285.408 
L 317.323636 285.408 
L 333.556364 285.408 
L 349.789091 285.408 
L 366.021818 285.408 
L 382.254545 285.408 
L 398.487273 285.408 
" style="fill:none;stroke:#d44e4e;stroke-linecap:square;stroke-width:3;"/>
   </g>
   <g id="line2d_111">
    <path clip-path="url(#p6e6647c4f3)" d="M 73.832727 222.318289 
L 90.065455 241.709407 
L 106.298182 243.036043 
L 122.530909 257.107634 
L 138.763636 260.847505 
L 154.996364 258.461011 
L 171.229091 252.022638 
L 187.461818 252.679187 
L 203.694545 238.772416 
L 219.927273 234.434511 
L 236.16 226.987288 
L 252.392727 230.919421 
L 268.625455 226.441949 
L 284.858182 228.815851 
L 301.090909 234.332217 
L 317.323636 245.287625 
L 333.556364 239.534686 
L 349.789091 233.385392 
L 366.021818 217.358326 
L 382.254545 213.009363 
L 398.487273 222.318289 
" style="fill:none;stroke:#0e4db3;stroke-linecap:square;stroke-width:3;"/>
   </g>
   <g id="line2d_112">
    <path clip-path="url(#p6e6647c4f3)" d="M 73.832727 172.886884 
L 90.065455 188.545566 
L 106.298182 195.530515 
L 122.530909 205.354207 
L 138.763636 199.523694 
L 154.996364 201.026036 
L 171.229091 205.170956 
L 187.461818 205.355365 
L 203.694545 185.047826 
L 219.927273 178.391053 
L 236.16 177.942452 
L 252.392727 179.908171 
L 268.625455 182.940516 
L 284.858182 188.11559 
L 301.090909 185.806194 
L 317.323636 185.758168 
L 333.556364 185.983795 
L 349.789091 184.938499 
L 366.021818 172.898065 
L 382.254545 172.44983 
L 398.487273 172.886884 
" style="fill:none;stroke:#d44e4e;stroke-linecap:square;stroke-width:3;"/>
   </g>
   <g id="line2d_113">
    <path clip-path="url(#p6e6647c4f3)" d="M 73.832727 214.348627 
L 90.065455 230.069416 
L 106.298182 252.722752 
L 122.530909 246.369908 
L 138.763636 235.163044 
L 154.996364 255.435994 
L 171.229091 265.653826 
L 187.461818 285.408 
L 203.694545 279.260147 
L 219.927273 260.884244 
L 236.16 246.322409 
L 252.392727 219.269299 
L 268.625455 111.00545 
L 284.858182 56.329577 
L 301.090909 18.199842 
L 317.323636 48.394922 
L 333.556364 72.257824 
L 349.789091 130.158546 
L 366.021818 171.343495 
L 382.254545 192.669268 
L 398.487273 214.348627 
" style="fill:none;stroke:#0e4db3;stroke-linecap:square;stroke-width:3;"/>
   </g>
   <g id="line2d_114">
    <path clip-path="url(#p6e6647c4f3)" d="M 73.832727 285.408 
L 90.065455 285.408 
L 106.298182 285.408 
L 122.530909 285.408 
L 138.763636 285.408 
L 154.996364 285.408 
L 171.229091 285.408 
L 187.461818 285.408 
L 203.694545 285.408 
L 219.927273 285.408 
L 236.16 285.408 
L 252.392727 285.408 
L 268.625455 270.137008 
L 284.858182 244.904023 
L 301.090909 222.762402 
L 317.323636 199.89249 
L 333.556364 244.95825 
L 349.789091 231.434819 
L 366.021818 262.939369 
L 382.254545 275.970406 
L 398.487273 285.408 
" style="fill:none;stroke:#d44e4e;stroke-linecap:square;stroke-width:3;"/>
   </g>
   <g id="line2d_115">
    <path clip-path="url(#p6e6647c4f3)" d="M 73.832727 279.229473 
L 90.065455 273.548915 
L 106.298182 272.334086 
L 122.530909 269.418844 
L 138.763636 249.492874 
L 154.996364 242.553586 
L 171.229091 209.073949 
L 187.461818 187.516907 
L 203.694545 158.45275 
L 219.927273 130.125153 
L 236.16 104.567891 
L 252.392727 108.318597 
L 268.625455 63.648 
L 284.858182 96.784432 
L 301.090909 133.38462 
L 317.323636 175.985223 
L 333.556364 202.710545 
L 349.789091 245.322468 
L 366.021818 254.324673 
L 382.254545 264.289123 
L 398.487273 279.229473 
" style="fill:none;stroke:#0e4db3;stroke-linecap:square;stroke-width:3;"/>
   </g>
   <g id="line2d_116">
    <path clip-path="url(#p6e6647c4f3)" d="M 73.832727 285.408 
L 90.065455 285.408 
L 106.298182 285.408 
L 122.530909 285.408 
L 138.763636 285.408 
L 154.996364 285.408 
L 171.229091 285.408 
L 187.461818 285.408 
L 203.694545 285.408 
L 219.927273 285.408 
L 236.16 285.408 
L 252.392727 285.408 
L 268.625455 285.408 
L 284.858182 285.408 
L 301.090909 285.408 
L 317.323636 285.408 
L 333.556364 285.408 
L 349.789091 285.408 
L 366.021818 285.408 
L 382.254545 285.408 
L 398.487273 285.408 
" style="fill:none;stroke:#d44e4e;stroke-linecap:square;stroke-width:3;"/>
   </g>
   <g id="patch_3">
    <path d="M 57.6 307.584 
L 57.6 41.472 
" style="fill:none;stroke:#000000;stroke-linecap:square;stroke-linejoin:miter;stroke-width:2.5;"/>
   </g>
   <g id="patch_4">
    <path d="M 414.72 307.584 
L 414.72 41.472 
" style="fill:none;stroke:#000000;stroke-linecap:square;stroke-linejoin:miter;stroke-width:2.5;"/>
   </g>
   <g id="patch_5">
    <path d="M 57.6 307.584 
L 414.72 307.584 
" style="fill:none;stroke:#000000;stroke-linecap:square;stroke-linejoin:miter;stroke-width:2.5;"/>
   </g>
   <g id="patch_6">
    <path d="M 57.6 41.472 
L 414.72 41.472 
" style="fill:none;stroke:#000000;stroke-linecap:square;stroke-linejoin:miter;stroke-width:2.5;"/>
   </g>
  </g>
 </g>
 <defs>
  <clipPath id="p6e6647c4f3">
   <rect height="266.112" width="357.12" x="57.6" y="41.472"/>
  </clipPath>
 </defs>
</svg>
