<?xml version="1.0" encoding="utf-8" standalone="no"?>
<!DOCTYPE svg PUBLIC "-//W3C//DTD SVG 1.1//EN"
  "http://www.w3.org/Graphics/SVG/1.1/DTD/svg11.dtd">
<!-- Created with matplotlib (https://matplotlib.org/) -->
<svg height="345.6pt" version="1.1" viewBox="0 0 460.8 345.6" width="460.8pt" xmlns="http://www.w3.org/2000/svg" xmlns:xlink="http://www.w3.org/1999/xlink">
 <defs>
  <style type="text/css">
*{stroke-linecap:butt;stroke-linejoin:round;}
  </style>
 </defs>
 <g id="figure_1">
  <g id="patch_1">
   <path d="M 0 345.6 
L 460.8 345.6 
L 460.8 0 
L 0 0 
z
" style="fill:#ffffff;"/>
  </g>
  <g id="axes_1">
   <g id="patch_2">
    <path d="M 57.6 307.584 
L 414.72 307.584 
L 414.72 41.472 
L 57.6 41.472 
z
" style="fill:#ffffff;"/>
   </g>
   <g id="matplotlib.axis_1">
    <g id="xtick_1">
     <g id="line2d_1">
      <defs>
       <path d="M 0 0 
L 0 12 
" id="mfdd8295121" style="stroke:#000000;stroke-width:2.5;"/>
      </defs>
      <g>
       <use style="stroke:#000000;stroke-width:2.5;" x="73.832727" xlink:href="#mfdd8295121" y="307.584"/>
      </g>
     </g>
     <g id="text_1">
      <!-- 0 -->
      <defs>
       <path d="M 31.78125 66.40625 
Q 24.171875 66.40625 20.328125 58.90625 
Q 16.5 51.421875 16.5 36.375 
Q 16.5 21.390625 20.328125 13.890625 
Q 24.171875 6.390625 31.78125 6.390625 
Q 39.453125 6.390625 43.28125 13.890625 
Q 47.125 21.390625 47.125 36.375 
Q 47.125 51.421875 43.28125 58.90625 
Q 39.453125 66.40625 31.78125 66.40625 
z
M 31.78125 74.21875 
Q 44.046875 74.21875 50.515625 64.515625 
Q 56.984375 54.828125 56.984375 36.375 
Q 56.984375 17.96875 50.515625 8.265625 
Q 44.046875 -1.421875 31.78125 -1.421875 
Q 19.53125 -1.421875 13.0625 8.265625 
Q 6.59375 17.96875 6.59375 36.375 
Q 6.59375 54.828125 13.0625 64.515625 
Q 19.53125 74.21875 31.78125 74.21875 
z
" id="DejaVuSans-48"/>
      </defs>
      <g transform="translate(57.735602 361.532094)scale(0.506 -0.506)">
       <use xlink:href="#DejaVuSans-48"/>
      </g>
     </g>
    </g>
    <g id="xtick_2">
     <g id="line2d_2">
      <g>
       <use style="stroke:#000000;stroke-width:2.5;" x="254.196364" xlink:href="#mfdd8295121" y="307.584"/>
      </g>
     </g>
     <g id="text_2">
      <!-- 100 -->
      <defs>
       <path d="M 12.40625 8.296875 
L 28.515625 8.296875 
L 28.515625 63.921875 
L 10.984375 60.40625 
L 10.984375 69.390625 
L 28.421875 72.90625 
L 38.28125 72.90625 
L 38.28125 8.296875 
L 54.390625 8.296875 
L 54.390625 0 
L 12.40625 0 
z
" id="DejaVuSans-49"/>
      </defs>
      <g transform="translate(205.904989 361.532094)scale(0.506 -0.506)">
       <use xlink:href="#DejaVuSans-49"/>
       <use x="63.623047" xlink:href="#DejaVuSans-48"/>
       <use x="127.246094" xlink:href="#DejaVuSans-48"/>
      </g>
     </g>
    </g>
    <g id="text_3">
     <!-- Degrees -->
     <defs>
      <path d="M 19.671875 64.796875 
L 19.671875 8.109375 
L 31.59375 8.109375 
Q 46.6875 8.109375 53.6875 14.9375 
Q 60.6875 21.78125 60.6875 36.53125 
Q 60.6875 51.171875 53.6875 57.984375 
Q 46.6875 64.796875 31.59375 64.796875 
z
M 9.8125 72.90625 
L 30.078125 72.90625 
Q 51.265625 72.90625 61.171875 64.09375 
Q 71.09375 55.28125 71.09375 36.53125 
Q 71.09375 17.671875 61.125 8.828125 
Q 51.171875 0 30.078125 0 
L 9.8125 0 
z
" id="DejaVuSans-68"/>
      <path d="M 56.203125 29.59375 
L 56.203125 25.203125 
L 14.890625 25.203125 
Q 15.484375 15.921875 20.484375 11.0625 
Q 25.484375 6.203125 34.421875 6.203125 
Q 39.59375 6.203125 44.453125 7.46875 
Q 49.3125 8.734375 54.109375 11.28125 
L 54.109375 2.78125 
Q 49.265625 0.734375 44.1875 -0.34375 
Q 39.109375 -1.421875 33.890625 -1.421875 
Q 20.796875 -1.421875 13.15625 6.1875 
Q 5.515625 13.8125 5.515625 26.8125 
Q 5.515625 40.234375 12.765625 48.109375 
Q 20.015625 56 32.328125 56 
Q 43.359375 56 49.78125 48.890625 
Q 56.203125 41.796875 56.203125 29.59375 
z
M 47.21875 32.234375 
Q 47.125 39.59375 43.09375 43.984375 
Q 39.0625 48.390625 32.421875 48.390625 
Q 24.90625 48.390625 20.390625 44.140625 
Q 15.875 39.890625 15.1875 32.171875 
z
" id="DejaVuSans-101"/>
      <path d="M 45.40625 27.984375 
Q 45.40625 37.75 41.375 43.109375 
Q 37.359375 48.484375 30.078125 48.484375 
Q 22.859375 48.484375 18.828125 43.109375 
Q 14.796875 37.75 14.796875 27.984375 
Q 14.796875 18.265625 18.828125 12.890625 
Q 22.859375 7.515625 30.078125 7.515625 
Q 37.359375 7.515625 41.375 12.890625 
Q 45.40625 18.265625 45.40625 27.984375 
z
M 54.390625 6.78125 
Q 54.390625 -7.171875 48.1875 -13.984375 
Q 42 -20.796875 29.203125 -20.796875 
Q 24.46875 -20.796875 20.265625 -20.09375 
Q 16.0625 -19.390625 12.109375 -17.921875 
L 12.109375 -9.1875 
Q 16.0625 -11.328125 19.921875 -12.34375 
Q 23.78125 -13.375 27.78125 -13.375 
Q 36.625 -13.375 41.015625 -8.765625 
Q 45.40625 -4.15625 45.40625 5.171875 
L 45.40625 9.625 
Q 42.625 4.78125 38.28125 2.390625 
Q 33.9375 0 27.875 0 
Q 17.828125 0 11.671875 7.65625 
Q 5.515625 15.328125 5.515625 27.984375 
Q 5.515625 40.671875 11.671875 48.328125 
Q 17.828125 56 27.875 56 
Q 33.9375 56 38.28125 53.609375 
Q 42.625 51.21875 45.40625 46.390625 
L 45.40625 54.6875 
L 54.390625 54.6875 
z
" id="DejaVuSans-103"/>
      <path d="M 41.109375 46.296875 
Q 39.59375 47.171875 37.8125 47.578125 
Q 36.03125 48 33.890625 48 
Q 26.265625 48 22.1875 43.046875 
Q 18.109375 38.09375 18.109375 28.8125 
L 18.109375 0 
L 9.078125 0 
L 9.078125 54.6875 
L 18.109375 54.6875 
L 18.109375 46.1875 
Q 20.953125 51.171875 25.484375 53.578125 
Q 30.03125 56 36.53125 56 
Q 37.453125 56 38.578125 55.875 
Q 39.703125 55.765625 41.0625 55.515625 
z
" id="DejaVuSans-114"/>
      <path d="M 44.28125 53.078125 
L 44.28125 44.578125 
Q 40.484375 46.53125 36.375 47.5 
Q 32.28125 48.484375 27.875 48.484375 
Q 21.1875 48.484375 17.84375 46.4375 
Q 14.5 44.390625 14.5 40.28125 
Q 14.5 37.15625 16.890625 35.375 
Q 19.28125 33.59375 26.515625 31.984375 
L 29.59375 31.296875 
Q 39.15625 29.25 43.1875 25.515625 
Q 47.21875 21.78125 47.21875 15.09375 
Q 47.21875 7.46875 41.1875 3.015625 
Q 35.15625 -1.421875 24.609375 -1.421875 
Q 20.21875 -1.421875 15.453125 -0.5625 
Q 10.6875 0.296875 5.421875 2 
L 5.421875 11.28125 
Q 10.40625 8.6875 15.234375 7.390625 
Q 20.0625 6.109375 24.8125 6.109375 
Q 31.15625 6.109375 34.5625 8.28125 
Q 37.984375 10.453125 37.984375 14.40625 
Q 37.984375 18.0625 35.515625 20.015625 
Q 33.0625 21.96875 24.703125 23.78125 
L 21.578125 24.515625 
Q 13.234375 26.265625 9.515625 29.90625 
Q 5.8125 33.546875 5.8125 39.890625 
Q 5.8125 47.609375 11.28125 51.796875 
Q 16.75 56 26.8125 56 
Q 31.78125 56 36.171875 55.265625 
Q 40.578125 54.546875 44.28125 53.078125 
z
" id="DejaVuSans-115"/>
     </defs>
     <g transform="translate(120.723 417.998687)scale(0.552 -0.552)">
      <use xlink:href="#DejaVuSans-68"/>
      <use x="77.001953" xlink:href="#DejaVuSans-101"/>
      <use x="138.525391" xlink:href="#DejaVuSans-103"/>
      <use x="202.001953" xlink:href="#DejaVuSans-114"/>
      <use x="243.083984" xlink:href="#DejaVuSans-101"/>
      <use x="304.607422" xlink:href="#DejaVuSans-101"/>
      <use x="366.130859" xlink:href="#DejaVuSans-115"/>
     </g>
    </g>
   </g>
   <g id="matplotlib.axis_2">
    <g id="ytick_1">
     <g id="line2d_3">
      <defs>
       <path d="M 0 0 
L -12 0 
" id="mde44d08a8d" style="stroke:#000000;stroke-width:2.5;"/>
      </defs>
      <g>
       <use style="stroke:#000000;stroke-width:2.5;" x="57.6" xlink:href="#mde44d08a8d" y="285.408"/>
      </g>
     </g>
     <g id="text_4">
      <!-- 0 -->
      <g transform="translate(9.90575 304.632047)scale(0.506 -0.506)">
       <use xlink:href="#DejaVuSans-48"/>
      </g>
     </g>
    </g>
    <g id="ytick_2">
     <g id="line2d_4">
      <g>
       <use style="stroke:#000000;stroke-width:2.5;" x="57.6" xlink:href="#mde44d08a8d" y="84.93594"/>
      </g>
     </g>
     <g id="text_5">
      <!-- 5 -->
      <defs>
       <path d="M 10.796875 72.90625 
L 49.515625 72.90625 
L 49.515625 64.59375 
L 19.828125 64.59375 
L 19.828125 46.734375 
Q 21.96875 47.46875 24.109375 47.828125 
Q 26.265625 48.1875 28.421875 48.1875 
Q 40.625 48.1875 47.75 41.5 
Q 54.890625 34.8125 54.890625 23.390625 
Q 54.890625 11.625 47.5625 5.09375 
Q 40.234375 -1.421875 26.90625 -1.421875 
Q 22.3125 -1.421875 17.546875 -0.640625 
Q 12.796875 0.140625 7.71875 1.703125 
L 7.71875 11.625 
Q 12.109375 9.234375 16.796875 8.0625 
Q 21.484375 6.890625 26.703125 6.890625 
Q 35.15625 6.890625 40.078125 11.328125 
Q 45.015625 15.765625 45.015625 23.390625 
Q 45.015625 31 40.078125 35.4375 
Q 35.15625 39.890625 26.703125 39.890625 
Q 22.75 39.890625 18.8125 39.015625 
Q 14.890625 38.140625 10.796875 36.28125 
z
" id="DejaVuSans-53"/>
      </defs>
      <g transform="translate(9.90575 104.159987)scale(0.506 -0.506)">
       <use xlink:href="#DejaVuSans-53"/>
      </g>
     </g>
    </g>
    <g id="text_6">
     <!-- Activation -->
     <defs>
      <path d="M 34.1875 63.1875 
L 20.796875 26.90625 
L 47.609375 26.90625 
z
M 28.609375 72.90625 
L 39.796875 72.90625 
L 67.578125 0 
L 57.328125 0 
L 50.6875 18.703125 
L 17.828125 18.703125 
L 11.1875 0 
L 0.78125 0 
z
" id="DejaVuSans-65"/>
      <path d="M 48.78125 52.59375 
L 48.78125 44.1875 
Q 44.96875 46.296875 41.140625 47.34375 
Q 37.3125 48.390625 33.40625 48.390625 
Q 24.65625 48.390625 19.8125 42.84375 
Q 14.984375 37.3125 14.984375 27.296875 
Q 14.984375 17.28125 19.8125 11.734375 
Q 24.65625 6.203125 33.40625 6.203125 
Q 37.3125 6.203125 41.140625 7.25 
Q 44.96875 8.296875 48.78125 10.40625 
L 48.78125 2.09375 
Q 45.015625 0.34375 40.984375 -0.53125 
Q 36.96875 -1.421875 32.421875 -1.421875 
Q 20.0625 -1.421875 12.78125 6.34375 
Q 5.515625 14.109375 5.515625 27.296875 
Q 5.515625 40.671875 12.859375 48.328125 
Q 20.21875 56 33.015625 56 
Q 37.15625 56 41.109375 55.140625 
Q 45.0625 54.296875 48.78125 52.59375 
z
" id="DejaVuSans-99"/>
      <path d="M 18.3125 70.21875 
L 18.3125 54.6875 
L 36.8125 54.6875 
L 36.8125 47.703125 
L 18.3125 47.703125 
L 18.3125 18.015625 
Q 18.3125 11.328125 20.140625 9.421875 
Q 21.96875 7.515625 27.59375 7.515625 
L 36.8125 7.515625 
L 36.8125 0 
L 27.59375 0 
Q 17.1875 0 13.234375 3.875 
Q 9.28125 7.765625 9.28125 18.015625 
L 9.28125 47.703125 
L 2.6875 47.703125 
L 2.6875 54.6875 
L 9.28125 54.6875 
L 9.28125 70.21875 
z
" id="DejaVuSans-116"/>
      <path d="M 9.421875 54.6875 
L 18.40625 54.6875 
L 18.40625 0 
L 9.421875 0 
z
M 9.421875 75.984375 
L 18.40625 75.984375 
L 18.40625 64.59375 
L 9.421875 64.59375 
z
" id="DejaVuSans-105"/>
      <path d="M 2.984375 54.6875 
L 12.5 54.6875 
L 29.59375 8.796875 
L 46.6875 54.6875 
L 56.203125 54.6875 
L 35.6875 0 
L 23.484375 0 
z
" id="DejaVuSans-118"/>
      <path d="M 34.28125 27.484375 
Q 23.390625 27.484375 19.1875 25 
Q 14.984375 22.515625 14.984375 16.5 
Q 14.984375 11.71875 18.140625 8.90625 
Q 21.296875 6.109375 26.703125 6.109375 
Q 34.1875 6.109375 38.703125 11.40625 
Q 43.21875 16.703125 43.21875 25.484375 
L 43.21875 27.484375 
z
M 52.203125 31.203125 
L 52.203125 0 
L 43.21875 0 
L 43.21875 8.296875 
Q 40.140625 3.328125 35.546875 0.953125 
Q 30.953125 -1.421875 24.3125 -1.421875 
Q 15.921875 -1.421875 10.953125 3.296875 
Q 6 8.015625 6 15.921875 
Q 6 25.140625 12.171875 29.828125 
Q 18.359375 34.515625 30.609375 34.515625 
L 43.21875 34.515625 
L 43.21875 35.40625 
Q 43.21875 41.609375 39.140625 45 
Q 35.0625 48.390625 27.6875 48.390625 
Q 23 48.390625 18.546875 47.265625 
Q 14.109375 46.140625 10.015625 43.890625 
L 10.015625 52.203125 
Q 14.9375 54.109375 19.578125 55.046875 
Q 24.21875 56 28.609375 56 
Q 40.484375 56 46.34375 49.84375 
Q 52.203125 43.703125 52.203125 31.203125 
z
" id="DejaVuSans-97"/>
      <path d="M 30.609375 48.390625 
Q 23.390625 48.390625 19.1875 42.75 
Q 14.984375 37.109375 14.984375 27.296875 
Q 14.984375 17.484375 19.15625 11.84375 
Q 23.34375 6.203125 30.609375 6.203125 
Q 37.796875 6.203125 41.984375 11.859375 
Q 46.1875 17.53125 46.1875 27.296875 
Q 46.1875 37.015625 41.984375 42.703125 
Q 37.796875 48.390625 30.609375 48.390625 
z
M 30.609375 56 
Q 42.328125 56 49.015625 48.375 
Q 55.71875 40.765625 55.71875 27.296875 
Q 55.71875 13.875 49.015625 6.21875 
Q 42.328125 -1.421875 30.609375 -1.421875 
Q 18.84375 -1.421875 12.171875 6.21875 
Q 5.515625 13.875 5.515625 27.296875 
Q 5.515625 40.765625 12.171875 48.375 
Q 18.84375 56 30.609375 56 
z
" id="DejaVuSans-111"/>
      <path d="M 54.890625 33.015625 
L 54.890625 0 
L 45.90625 0 
L 45.90625 32.71875 
Q 45.90625 40.484375 42.875 44.328125 
Q 39.84375 48.1875 33.796875 48.1875 
Q 26.515625 48.1875 22.3125 43.546875 
Q 18.109375 38.921875 18.109375 30.90625 
L 18.109375 0 
L 9.078125 0 
L 9.078125 54.6875 
L 18.109375 54.6875 
L 18.109375 46.1875 
Q 21.34375 51.125 25.703125 53.5625 
Q 30.078125 56 35.796875 56 
Q 45.21875 56 50.046875 50.171875 
Q 54.890625 44.34375 54.890625 33.015625 
z
" id="DejaVuSans-110"/>
     </defs>
     <g transform="translate(-5.574125 313.1835)rotate(-90)scale(0.552 -0.552)">
      <use xlink:href="#DejaVuSans-65"/>
      <use x="68.392578" xlink:href="#DejaVuSans-99"/>
      <use x="123.373047" xlink:href="#DejaVuSans-116"/>
      <use x="162.582031" xlink:href="#DejaVuSans-105"/>
      <use x="190.365234" xlink:href="#DejaVuSans-118"/>
      <use x="249.544922" xlink:href="#DejaVuSans-97"/>
      <use x="310.824219" xlink:href="#DejaVuSans-116"/>
      <use x="350.033203" xlink:href="#DejaVuSans-105"/>
      <use x="377.816406" xlink:href="#DejaVuSans-111"/>
      <use x="438.998047" xlink:href="#DejaVuSans-110"/>
     </g>
    </g>
   </g>
   <g id="line2d_5">
    <path clip-path="url(#pb3884467bd)" d="M 73.832727 275.205318 
L 90.065455 257.833618 
L 106.298182 251.811067 
L 122.530909 244.033121 
L 138.763636 234.934629 
L 154.996364 233.649593 
L 171.229091 235.520645 
L 187.461818 221.942472 
L 203.694545 217.429324 
L 219.927273 218.262485 
L 236.16 224.237582 
L 252.392727 224.042506 
L 268.625455 224.972368 
L 284.858182 247.459036 
L 301.090909 243.93034 
L 317.323636 261.402233 
L 333.556364 265.824963 
L 349.789091 270.43396 
L 366.021818 267.867854 
L 382.254545 271.107481 
L 398.487273 275.205318 
" style="fill:none;stroke:#0e4db3;stroke-linecap:square;stroke-width:3;"/>
   </g>
   <g id="line2d_6">
    <path clip-path="url(#pb3884467bd)" d="M 73.832727 277.289948 
L 90.065455 263.062917 
L 106.298182 257.718783 
L 122.530909 251.968754 
L 138.763636 244.944218 
L 154.996364 244.187279 
L 171.229091 245.041565 
L 187.461818 232.999287 
L 203.694545 230.760214 
L 219.927273 230.121608 
L 236.16 233.197508 
L 252.392727 235.163999 
L 268.625455 235.583143 
L 284.858182 255.005401 
L 301.090909 251.504394 
L 317.323636 265.611414 
L 333.556364 269.007133 
L 349.789091 272.086013 
L 366.021818 270.769082 
L 382.254545 273.192777 
L 398.487273 277.289948 
" style="fill:none;stroke:#d44e4e;stroke-linecap:square;stroke-width:3;"/>
   </g>
   <g id="line2d_7">
    <path clip-path="url(#pb3884467bd)" d="M 73.832727 216.051248 
L 90.065455 215.524184 
L 106.298182 220.199357 
L 122.530909 229.185523 
L 138.763636 230.786162 
L 154.996364 232.748428 
L 171.229091 232.623575 
L 187.461818 222.511147 
L 203.694545 219.161322 
L 219.927273 231.108242 
L 236.16 231.100298 
L 252.392727 229.311437 
L 268.625455 219.368352 
L 284.858182 226.555218 
L 301.090909 217.564635 
L 317.323636 220.693255 
L 333.556364 220.34296 
L 349.789091 208.774157 
L 366.021818 212.060714 
L 382.254545 208.950468 
L 398.487273 216.051248 
" style="fill:none;stroke:#0e4db3;stroke-linecap:square;stroke-width:3;"/>
   </g>
   <g id="line2d_8">
    <path clip-path="url(#pb3884467bd)" d="M 73.832727 230.506975 
L 90.065455 224.205276 
L 106.298182 232.009804 
L 122.530909 240.767461 
L 138.763636 241.821153 
L 154.996364 243.572972 
L 171.229091 243.570774 
L 187.461818 235.766036 
L 203.694545 233.394342 
L 219.927273 242.536166 
L 236.16 242.503569 
L 252.392727 240.294889 
L 268.625455 233.007694 
L 284.858182 237.573069 
L 301.090909 231.819345 
L 317.323636 234.193586 
L 333.556364 233.81135 
L 349.789091 224.855898 
L 366.021818 226.505013 
L 382.254545 224.816294 
L 398.487273 230.506975 
" style="fill:none;stroke:#d44e4e;stroke-linecap:square;stroke-width:3;"/>
   </g>
   <g id="line2d_9">
    <path clip-path="url(#pb3884467bd)" d="M 73.832727 215.106928 
L 90.065455 211.710869 
L 106.298182 211.68395 
L 122.530909 211.702591 
L 138.763636 204.269885 
L 154.996364 204.637906 
L 171.229091 203.973175 
L 187.461818 208.953312 
L 203.694545 202.931312 
L 219.927273 205.648831 
L 236.16 210.213991 
L 252.392727 210.29307 
L 268.625455 211.112871 
L 284.858182 216.08114 
L 301.090909 216.992223 
L 317.323636 217.386351 
L 333.556364 217.20299 
L 349.789091 217.780173 
L 366.021818 216.197892 
L 382.254545 215.363536 
L 398.487273 215.106928 
" style="fill:none;stroke:#0e4db3;stroke-linecap:square;stroke-width:3;"/>
   </g>
   <g id="line2d_10">
    <path clip-path="url(#pb3884467bd)" d="M 73.832727 227.41123 
L 90.065455 224.966006 
L 106.298182 224.761085 
L 122.530909 224.53887 
L 138.763636 219.917258 
L 154.996364 219.841081 
L 171.229091 218.743033 
L 187.461818 222.516142 
L 203.694545 217.135798 
L 219.927273 219.722431 
L 236.16 223.441133 
L 252.392727 223.355076 
L 268.625455 224.098122 
L 284.858182 226.747641 
L 301.090909 227.418519 
L 317.323636 228.325902 
L 333.556364 228.786362 
L 349.789091 229.223258 
L 366.021818 227.924313 
L 382.254545 227.416143 
L 398.487273 227.41123 
" style="fill:none;stroke:#d44e4e;stroke-linecap:square;stroke-width:3;"/>
   </g>
   <g id="line2d_11">
    <path clip-path="url(#pb3884467bd)" d="M 73.832727 205.831346 
L 90.065455 205.736709 
L 106.298182 206.049125 
L 122.530909 213.507244 
L 138.763636 214.268352 
L 154.996364 216.171551 
L 171.229091 214.50858 
L 187.461818 212.517297 
L 203.694545 207.265329 
L 219.927273 209.121038 
L 236.16 208.371717 
L 252.392727 205.03408 
L 268.625455 203.861322 
L 284.858182 203.925733 
L 301.090909 200.221302 
L 317.323636 199.646944 
L 333.556364 190.772994 
L 349.789091 198.929522 
L 366.021818 198.496297 
L 382.254545 202.399799 
L 398.487273 205.831346 
" style="fill:none;stroke:#0e4db3;stroke-linecap:square;stroke-width:3;"/>
   </g>
   <g id="line2d_12">
    <path clip-path="url(#pb3884467bd)" d="M 73.832727 222.59362 
L 90.065455 222.590513 
L 106.298182 222.805348 
L 122.530909 228.359369 
L 138.763636 228.722592 
L 154.996364 229.641724 
L 171.229091 229.045848 
L 187.461818 226.517339 
L 203.694545 223.961654 
L 219.927273 224.960883 
L 236.16 225.107206 
L 252.392727 221.46971 
L 268.625455 219.828281 
L 284.858182 219.370794 
L 301.090909 217.309575 
L 317.323636 217.308113 
L 333.556364 211.410365 
L 349.789091 216.835413 
L 366.021818 216.179629 
L 382.254545 219.617222 
L 398.487273 222.59362 
" style="fill:none;stroke:#d44e4e;stroke-linecap:square;stroke-width:3;"/>
   </g>
   <g id="line2d_13">
    <path clip-path="url(#pb3884467bd)" d="M 73.832727 259.876871 
L 90.065455 259.48654 
L 106.298182 259.837479 
L 122.530909 258.98829 
L 138.763636 249.173805 
L 154.996364 247.901741 
L 171.229091 239.970616 
L 187.461818 242.41386 
L 203.694545 230.393564 
L 219.927273 220.948195 
L 236.16 221.097061 
L 252.392727 211.001539 
L 268.625455 202.106435 
L 284.858182 206.857073 
L 301.090909 194.545486 
L 317.323636 201.699899 
L 333.556364 203.72908 
L 349.789091 236.763152 
L 366.021818 239.81654 
L 382.254545 239.479251 
L 398.487273 259.876871 
" style="fill:none;stroke:#0e4db3;stroke-linecap:square;stroke-width:3;"/>
   </g>
   <g id="line2d_14">
    <path clip-path="url(#pb3884467bd)" d="M 73.832727 262.064615 
L 90.065455 261.49421 
L 106.298182 261.802123 
L 122.530909 261.431638 
L 138.763636 253.745779 
L 154.996364 252.782997 
L 171.229091 245.839653 
L 187.461818 247.710528 
L 203.694545 238.279096 
L 219.927273 231.373268 
L 236.16 231.392357 
L 252.392727 222.95949 
L 268.625455 215.916692 
L 284.858182 220.511968 
L 301.090909 210.334882 
L 317.323636 215.369482 
L 333.556364 217.340767 
L 349.789091 243.158607 
L 366.021818 245.708818 
L 382.254545 245.683426 
L 398.487273 262.064615 
" style="fill:none;stroke:#d44e4e;stroke-linecap:square;stroke-width:3;"/>
   </g>
   <g id="line2d_15">
    <path clip-path="url(#pb3884467bd)" d="M 73.832727 285.408 
L 90.065455 285.408 
L 106.298182 285.408 
L 122.530909 285.408 
L 138.763636 285.408 
L 154.996364 285.408 
L 171.229091 285.408 
L 187.461818 285.408 
L 203.694545 285.408 
L 219.927273 285.408 
L 236.16 285.408 
L 252.392727 285.408 
L 268.625455 285.408 
L 284.858182 285.408 
L 301.090909 285.408 
L 317.323636 285.408 
L 333.556364 285.408 
L 349.789091 285.408 
L 366.021818 285.408 
L 382.254545 285.408 
L 398.487273 285.408 
" style="fill:none;stroke:#0e4db3;stroke-linecap:square;stroke-width:3;"/>
   </g>
   <g id="line2d_16">
    <path clip-path="url(#pb3884467bd)" d="M 73.832727 285.408 
L 90.065455 285.408 
L 106.298182 285.408 
L 122.530909 285.408 
L 138.763636 285.408 
L 154.996364 285.408 
L 171.229091 285.408 
L 187.461818 285.408 
L 203.694545 285.408 
L 219.927273 285.408 
L 236.16 285.408 
L 252.392727 285.408 
L 268.625455 285.408 
L 284.858182 285.408 
L 301.090909 285.408 
L 317.323636 285.408 
L 333.556364 285.408 
L 349.789091 285.408 
L 366.021818 285.408 
L 382.254545 285.408 
L 398.487273 285.408 
" style="fill:none;stroke:#d44e4e;stroke-linecap:square;stroke-width:3;"/>
   </g>
   <g id="line2d_17">
    <path clip-path="url(#pb3884467bd)" d="M 73.832727 285.408 
L 90.065455 285.049581 
L 106.298182 285.265222 
L 122.530909 285.134085 
L 138.763636 285.287847 
L 154.996364 285.408 
L 171.229091 285.408 
L 187.461818 285.408 
L 203.694545 285.408 
L 219.927273 285.408 
L 236.16 285.408 
L 252.392727 285.408 
L 268.625455 284.574507 
L 284.858182 285.408 
L 301.090909 285.408 
L 317.323636 285.408 
L 333.556364 285.408 
L 349.789091 285.408 
L 366.021818 285.408 
L 382.254545 285.408 
L 398.487273 285.408 
" style="fill:none;stroke:#0e4db3;stroke-linecap:square;stroke-width:3;"/>
   </g>
   <g id="line2d_18">
    <path clip-path="url(#pb3884467bd)" d="M 73.832727 285.408 
L 90.065455 285.408 
L 106.298182 285.408 
L 122.530909 285.408 
L 138.763636 285.408 
L 154.996364 285.408 
L 171.229091 285.408 
L 187.461818 285.408 
L 203.694545 285.408 
L 219.927273 285.408 
L 236.16 285.408 
L 252.392727 285.408 
L 268.625455 285.408 
L 284.858182 285.408 
L 301.090909 285.408 
L 317.323636 285.408 
L 333.556364 285.408 
L 349.789091 285.408 
L 366.021818 285.408 
L 382.254545 285.408 
L 398.487273 285.408 
" style="fill:none;stroke:#d44e4e;stroke-linecap:square;stroke-width:3;"/>
   </g>
   <g id="line2d_19">
    <path clip-path="url(#pb3884467bd)" d="M 73.832727 264.820777 
L 90.065455 258.326919 
L 106.298182 248.812236 
L 122.530909 247.895872 
L 138.763636 238.063444 
L 154.996364 236.068682 
L 171.229091 229.474336 
L 187.461818 230.299735 
L 203.694545 220.816908 
L 219.927273 221.299325 
L 236.16 243.810075 
L 252.392727 222.440347 
L 268.625455 233.013807 
L 284.858182 246.109974 
L 301.090909 243.545771 
L 317.323636 252.766928 
L 333.556364 253.904689 
L 349.789091 255.774023 
L 366.021818 256.406862 
L 382.254545 262.609947 
L 398.487273 264.820777 
" style="fill:none;stroke:#0e4db3;stroke-linecap:square;stroke-width:3;"/>
   </g>
   <g id="line2d_20">
    <path clip-path="url(#pb3884467bd)" d="M 73.832727 265.214762 
L 90.065455 260.245559 
L 106.298182 252.536765 
L 122.530909 251.013355 
L 138.763636 243.694967 
L 154.996364 242.364678 
L 171.229091 236.950919 
L 187.461818 237.180819 
L 203.694545 230.073673 
L 219.927273 230.105711 
L 236.16 248.258287 
L 252.392727 231.158323 
L 268.625455 239.518917 
L 284.858182 250.532636 
L 301.090909 248.003005 
L 317.323636 255.35136 
L 333.556364 256.159033 
L 349.789091 256.913235 
L 366.021818 257.641427 
L 382.254545 263.053506 
L 398.487273 265.214762 
" style="fill:none;stroke:#d44e4e;stroke-linecap:square;stroke-width:3;"/>
   </g>
   <g id="line2d_21">
    <path clip-path="url(#pb3884467bd)" d="M 73.832727 242.908623 
L 90.065455 239.966065 
L 106.298182 235.539324 
L 122.530909 233.750888 
L 138.763636 235.931851 
L 154.996364 236.051131 
L 171.229091 236.262123 
L 187.461818 240.876928 
L 203.694545 240.159205 
L 219.927273 242.481683 
L 236.16 244.523917 
L 252.392727 242.024966 
L 268.625455 241.493424 
L 284.858182 241.547414 
L 301.090909 241.648695 
L 317.323636 242.049438 
L 333.556364 232.738334 
L 349.789091 237.875619 
L 366.021818 236.270764 
L 382.254545 243.061299 
L 398.487273 242.908623 
" style="fill:none;stroke:#0e4db3;stroke-linecap:square;stroke-width:3;"/>
   </g>
   <g id="line2d_22">
    <path clip-path="url(#pb3884467bd)" d="M 73.832727 251.98295 
L 90.065455 249.637878 
L 106.298182 246.219026 
L 122.530909 244.173695 
L 138.763636 247.367776 
L 154.996364 247.529404 
L 171.229091 247.459793 
L 187.461818 250.294049 
L 203.694545 248.841765 
L 219.927273 252.229449 
L 236.16 250.671329 
L 252.392727 250.925916 
L 268.625455 250.845465 
L 284.858182 251.397758 
L 301.090909 251.640556 
L 317.323636 251.556404 
L 333.556364 244.327819 
L 349.789091 245.904512 
L 366.021818 245.565121 
L 382.254545 251.984092 
L 398.487273 251.98295 
" style="fill:none;stroke:#d44e4e;stroke-linecap:square;stroke-width:3;"/>
   </g>
   <g id="line2d_23">
    <path clip-path="url(#pb3884467bd)" d="M 73.832727 283.863674 
L 90.065455 267.579702 
L 106.298182 253.851903 
L 122.530909 254.72755 
L 138.763636 238.077664 
L 154.996364 236.82447 
L 171.229091 237.066821 
L 187.461818 238.562222 
L 203.694545 234.385608 
L 219.927273 234.378214 
L 236.16 240.334393 
L 252.392727 236.410129 
L 268.625455 241.50631 
L 284.858182 253.737374 
L 301.090909 248.81487 
L 317.323636 266.731156 
L 333.556364 267.015238 
L 349.789091 271.421737 
L 366.021818 280.041786 
L 382.254545 272.136065 
L 398.487273 283.863674 
" style="fill:none;stroke:#0e4db3;stroke-linecap:square;stroke-width:3;"/>
   </g>
   <g id="line2d_24">
    <path clip-path="url(#pb3884467bd)" d="M 73.832727 285.00729 
L 90.065455 272.596811 
L 106.298182 261.533231 
L 122.530909 258.41978 
L 138.763636 249.502897 
L 154.996364 248.415862 
L 171.229091 248.452799 
L 187.461818 248.398674 
L 203.694545 245.516732 
L 219.927273 245.546274 
L 236.16 250.621466 
L 252.392727 247.034339 
L 268.625455 250.222365 
L 284.858182 261.702889 
L 301.090909 256.879395 
L 317.323636 270.603726 
L 333.556364 272.104322 
L 349.789091 276.026862 
L 366.021818 281.87815 
L 382.254545 276.044794 
L 398.487273 285.00729 
" style="fill:none;stroke:#d44e4e;stroke-linecap:square;stroke-width:3;"/>
   </g>
   <g id="line2d_25">
    <path clip-path="url(#pb3884467bd)" d="M 73.832727 221.88667 
L 90.065455 221.50376 
L 106.298182 217.602973 
L 122.530909 223.810971 
L 138.763636 227.523967 
L 154.996364 240.638908 
L 171.229091 242.94762 
L 187.461818 240.83168 
L 203.694545 220.525456 
L 219.927273 206.625844 
L 236.16 207.704118 
L 252.392727 206.371941 
L 268.625455 220.453905 
L 284.858182 229.089581 
L 301.090909 217.334453 
L 317.323636 213.118813 
L 333.556364 212.041199 
L 349.789091 210.058634 
L 366.021818 205.136288 
L 382.254545 209.727625 
L 398.487273 221.88667 
" style="fill:none;stroke:#0e4db3;stroke-linecap:square;stroke-width:3;"/>
   </g>
   <g id="line2d_26">
    <path clip-path="url(#pb3884467bd)" d="M 73.832727 230.944511 
L 90.065455 230.934058 
L 106.298182 227.779935 
L 122.530909 231.874134 
L 138.763636 236.063902 
L 154.996364 246.068774 
L 171.229091 247.808448 
L 187.461818 245.153518 
L 203.694545 229.099269 
L 219.927273 219.032607 
L 236.16 219.769018 
L 252.392727 218.738449 
L 268.625455 229.735103 
L 284.858182 236.70084 
L 301.090909 227.152442 
L 317.323636 223.930945 
L 333.556364 223.208643 
L 349.789091 221.699399 
L 366.021818 217.366678 
L 382.254545 221.274749 
L 398.487273 230.944511 
" style="fill:none;stroke:#d44e4e;stroke-linecap:square;stroke-width:3;"/>
   </g>
   <g id="line2d_27">
    <path clip-path="url(#pb3884467bd)" d="M 73.832727 219.852743 
L 90.065455 219.427466 
L 106.298182 226.281737 
L 122.530909 228.197277 
L 138.763636 241.807713 
L 154.996364 251.135904 
L 171.229091 241.607666 
L 187.461818 229.385483 
L 203.694545 224.339995 
L 219.927273 237.149451 
L 236.16 235.618957 
L 252.392727 235.670883 
L 268.625455 242.985188 
L 284.858182 248.470718 
L 301.090909 239.651504 
L 317.323636 238.040282 
L 333.556364 229.658051 
L 349.789091 229.311169 
L 366.021818 224.489315 
L 382.254545 220.120674 
L 398.487273 219.852743 
" style="fill:none;stroke:#0e4db3;stroke-linecap:square;stroke-width:3;"/>
   </g>
   <g id="line2d_28">
    <path clip-path="url(#pb3884467bd)" d="M 73.832727 230.16884 
L 90.065455 228.370233 
L 106.298182 235.371597 
L 122.530909 232.909898 
L 138.763636 247.615552 
L 154.996364 254.852845 
L 171.229091 246.960752 
L 187.461818 236.832284 
L 203.694545 232.940674 
L 219.927273 243.660325 
L 236.16 242.441314 
L 252.392727 242.212069 
L 268.625455 248.385545 
L 284.858182 252.264795 
L 301.090909 246.09086 
L 317.323636 243.856657 
L 333.556364 237.94241 
L 349.789091 236.496597 
L 366.021818 233.15266 
L 382.254545 228.342616 
L 398.487273 230.16884 
" style="fill:none;stroke:#d44e4e;stroke-linecap:square;stroke-width:3;"/>
   </g>
   <g id="line2d_29">
    <path clip-path="url(#pb3884467bd)" d="M 73.832727 188.606237 
L 90.065455 188.468287 
L 106.298182 186.298279 
L 122.530909 187.606444 
L 138.763636 187.471209 
L 154.996364 187.540973 
L 171.229091 186.227789 
L 187.461818 187.207192 
L 203.694545 182.707117 
L 219.927273 184.717829 
L 236.16 185.107789 
L 252.392727 185.0234 
L 268.625455 186.651484 
L 284.858182 187.896204 
L 301.090909 186.831695 
L 317.323636 187.352474 
L 333.556364 186.983181 
L 349.789091 188.074417 
L 366.021818 186.502637 
L 382.254545 187.480166 
L 398.487273 188.606237 
" style="fill:none;stroke:#0e4db3;stroke-linecap:square;stroke-width:3;"/>
   </g>
   <g id="line2d_30">
    <path clip-path="url(#pb3884467bd)" d="M 73.832727 204.172256 
L 90.065455 203.49983 
L 106.298182 202.095986 
L 122.530909 202.958747 
L 138.763636 202.937191 
L 154.996364 202.976078 
L 171.229091 201.95776 
L 187.461818 202.896249 
L 203.694545 199.208088 
L 219.927273 201.038073 
L 236.16 201.237804 
L 252.392727 201.195342 
L 268.625455 201.211019 
L 284.858182 202.792244 
L 301.090909 201.907975 
L 317.323636 202.598889 
L 333.556364 202.49714 
L 349.789091 203.452884 
L 366.021818 202.197716 
L 382.254545 203.161269 
L 398.487273 204.172256 
" style="fill:none;stroke:#d44e4e;stroke-linecap:square;stroke-width:3;"/>
   </g>
   <g id="line2d_31">
    <path clip-path="url(#pb3884467bd)" d="M 73.832727 238.498347 
L 90.065455 229.941043 
L 106.298182 229.866772 
L 122.530909 235.076269 
L 138.763636 235.795622 
L 154.996364 233.756781 
L 171.229091 233.642075 
L 187.461818 233.349705 
L 203.694545 240.088897 
L 219.927273 239.909599 
L 236.16 241.467939 
L 252.392727 251.221873 
L 268.625455 261.638638 
L 284.858182 265.570581 
L 301.090909 265.678374 
L 317.323636 264.116461 
L 333.556364 262.420569 
L 349.789091 259.78861 
L 366.021818 248.97808 
L 382.254545 238.571815 
L 398.487273 238.498347 
" style="fill:none;stroke:#0e4db3;stroke-linecap:square;stroke-width:3;"/>
   </g>
   <g id="line2d_32">
    <path clip-path="url(#pb3884467bd)" d="M 73.832727 245.1166 
L 90.065455 238.256503 
L 106.298182 238.525448 
L 122.530909 240.35094 
L 138.763636 243.086669 
L 154.996364 241.306961 
L 171.229091 241.097183 
L 187.461818 240.657587 
L 203.694545 246.066068 
L 219.927273 246.077379 
L 236.16 247.499846 
L 252.392727 255.211379 
L 268.625455 263.570508 
L 284.858182 266.4654 
L 301.090909 266.50892 
L 317.323636 265.166739 
L 333.556364 263.973326 
L 349.789091 261.730066 
L 366.021818 252.910902 
L 382.254545 244.397185 
L 398.487273 245.1166 
" style="fill:none;stroke:#d44e4e;stroke-linecap:square;stroke-width:3;"/>
   </g>
   <g id="line2d_33">
    <path clip-path="url(#pb3884467bd)" d="M 73.832727 160.391328 
L 90.065455 160.374102 
L 106.298182 160.136707 
L 122.530909 162.908719 
L 138.763636 162.064799 
L 154.996364 162.515375 
L 171.229091 162.697861 
L 187.461818 163.573469 
L 203.694545 160.579798 
L 219.927273 162.457331 
L 236.16 162.56688 
L 252.392727 162.065229 
L 268.625455 162.247467 
L 284.858182 165.56426 
L 301.090909 162.931929 
L 317.323636 162.784984 
L 333.556364 162.048883 
L 349.789091 162.121562 
L 366.021818 160.203173 
L 382.254545 160.371789 
L 398.487273 160.391328 
" style="fill:none;stroke:#0e4db3;stroke-linecap:square;stroke-width:3;"/>
   </g>
   <g id="line2d_34">
    <path clip-path="url(#pb3884467bd)" d="M 73.832727 183.770765 
L 90.065455 183.767792 
L 106.298182 183.513965 
L 122.530909 185.479969 
L 138.763636 184.496398 
L 154.996364 185.374435 
L 171.229091 185.121325 
L 187.461818 186.408115 
L 203.694545 183.649525 
L 219.927273 185.538452 
L 236.16 185.738891 
L 252.392727 185.089951 
L 268.625455 184.031933 
L 284.858182 185.784011 
L 301.090909 184.870528 
L 317.323636 184.873989 
L 333.556364 184.569947 
L 349.789091 184.911843 
L 366.021818 183.264564 
L 382.254545 183.622625 
L 398.487273 183.770765 
" style="fill:none;stroke:#d44e4e;stroke-linecap:square;stroke-width:3;"/>
   </g>
   <g id="line2d_35">
    <path clip-path="url(#pb3884467bd)" d="M 73.832727 285.408 
L 90.065455 285.408 
L 106.298182 285.408 
L 122.530909 285.408 
L 138.763636 285.408 
L 154.996364 285.408 
L 171.229091 285.408 
L 187.461818 285.408 
L 203.694545 285.408 
L 219.927273 285.408 
L 236.16 285.408 
L 252.392727 285.408 
L 268.625455 283.591066 
L 284.858182 284.888152 
L 301.090909 285.408 
L 317.323636 285.408 
L 333.556364 285.408 
L 349.789091 285.408 
L 366.021818 285.408 
L 382.254545 285.408 
L 398.487273 285.408 
" style="fill:none;stroke:#0e4db3;stroke-linecap:square;stroke-width:3;"/>
   </g>
   <g id="line2d_36">
    <path clip-path="url(#pb3884467bd)" d="M 73.832727 285.408 
L 90.065455 285.408 
L 106.298182 285.408 
L 122.530909 285.408 
L 138.763636 285.408 
L 154.996364 285.408 
L 171.229091 285.408 
L 187.461818 285.408 
L 203.694545 285.408 
L 219.927273 285.408 
L 236.16 285.408 
L 252.392727 285.408 
L 268.625455 285.408 
L 284.858182 285.408 
L 301.090909 285.408 
L 317.323636 285.408 
L 333.556364 285.408 
L 349.789091 285.408 
L 366.021818 285.408 
L 382.254545 285.408 
L 398.487273 285.408 
" style="fill:none;stroke:#d44e4e;stroke-linecap:square;stroke-width:3;"/>
   </g>
   <g id="line2d_37">
    <path clip-path="url(#pb3884467bd)" d="M 73.832727 236.61245 
L 90.065455 200.839107 
L 106.298182 209.397487 
L 122.530909 219.076465 
L 138.763636 220.921032 
L 154.996364 246.615405 
L 171.229091 255.131466 
L 187.461818 254.935683 
L 203.694545 228.724126 
L 219.927273 204.703091 
L 236.16 206.048594 
L 252.392727 203.879714 
L 268.625455 217.456339 
L 284.858182 232.48422 
L 301.090909 218.226743 
L 317.323636 211.817756 
L 333.556364 210.362656 
L 349.789091 215.759868 
L 366.021818 196.291732 
L 382.254545 213.550753 
L 398.487273 236.61245 
" style="fill:none;stroke:#0e4db3;stroke-linecap:square;stroke-width:3;"/>
   </g>
   <g id="line2d_38">
    <path clip-path="url(#pb3884467bd)" d="M 73.832727 246.96693 
L 90.065455 218.003223 
L 106.298182 223.303322 
L 122.530909 232.322659 
L 138.763636 234.784052 
L 154.996364 255.523864 
L 171.229091 262.348575 
L 187.461818 259.609226 
L 203.694545 239.027978 
L 219.927273 221.520828 
L 236.16 222.523316 
L 252.392727 220.781362 
L 268.625455 231.309933 
L 284.858182 243.463815 
L 301.090909 231.896574 
L 317.323636 226.820152 
L 333.556364 225.81644 
L 349.789091 228.905303 
L 366.021818 214.141787 
L 382.254545 227.951036 
L 398.487273 246.96693 
" style="fill:none;stroke:#d44e4e;stroke-linecap:square;stroke-width:3;"/>
   </g>
   <g id="line2d_39">
    <path clip-path="url(#pb3884467bd)" d="M 73.832727 264.434944 
L 90.065455 247.74745 
L 106.298182 253.421641 
L 122.530909 252.966874 
L 138.763636 256.876776 
L 154.996364 258.768604 
L 171.229091 263.411141 
L 187.461818 268.048741 
L 203.694545 266.006459 
L 219.927273 257.415444 
L 236.16 258.097483 
L 252.392727 257.863286 
L 268.625455 260.78022 
L 284.858182 253.113111 
L 301.090909 259.276607 
L 317.323636 268.065355 
L 333.556364 268.138801 
L 349.789091 263.626698 
L 366.021818 260.512264 
L 382.254545 260.079077 
L 398.487273 264.434944 
" style="fill:none;stroke:#0e4db3;stroke-linecap:square;stroke-width:3;"/>
   </g>
   <g id="line2d_40">
    <path clip-path="url(#pb3884467bd)" d="M 73.832727 269.762591 
L 90.065455 253.677963 
L 106.298182 258.348595 
L 122.530909 259.970709 
L 138.763636 263.536019 
L 154.996364 265.279038 
L 171.229091 268.36639 
L 187.461818 272.397943 
L 203.694545 270.312253 
L 219.927273 263.989968 
L 236.16 264.493602 
L 252.392727 264.310397 
L 268.625455 266.429389 
L 284.858182 260.305032 
L 301.090909 265.474688 
L 317.323636 272.003893 
L 333.556364 272.240018 
L 349.789091 268.669027 
L 366.021818 266.006875 
L 382.254545 265.837406 
L 398.487273 269.762591 
" style="fill:none;stroke:#d44e4e;stroke-linecap:square;stroke-width:3;"/>
   </g>
   <g id="line2d_41">
    <path clip-path="url(#pb3884467bd)" d="M 73.832727 261.753397 
L 90.065455 250.454325 
L 106.298182 235.86972 
L 122.530909 230.572575 
L 138.763636 223.077571 
L 154.996364 220.110245 
L 171.229091 227.855094 
L 187.461818 238.355714 
L 203.694545 240.354668 
L 219.927273 227.325579 
L 236.16 227.247088 
L 252.392727 233.441646 
L 268.625455 230.47812 
L 284.858182 240.631466 
L 301.090909 244.793283 
L 317.323636 270.569563 
L 333.556364 269.295658 
L 349.789091 270.40265 
L 366.021818 258.876483 
L 382.254545 261.87453 
L 398.487273 261.753397 
" style="fill:none;stroke:#0e4db3;stroke-linecap:square;stroke-width:3;"/>
   </g>
   <g id="line2d_42">
    <path clip-path="url(#pb3884467bd)" d="M 73.832727 266.262177 
L 90.065455 257.439376 
L 106.298182 238.668402 
L 122.530909 239.947186 
L 138.763636 236.15785 
L 154.996364 233.685187 
L 171.229091 239.675235 
L 187.461818 246.32744 
L 203.694545 248.961315 
L 219.927273 239.02727 
L 236.16 239.023647 
L 252.392727 243.580419 
L 268.625455 241.098579 
L 284.858182 248.707995 
L 301.090909 251.576003 
L 317.323636 273.959172 
L 333.556364 272.57198 
L 349.789091 272.256813 
L 366.021818 262.282191 
L 382.254545 265.568889 
L 398.487273 266.262177 
" style="fill:none;stroke:#d44e4e;stroke-linecap:square;stroke-width:3;"/>
   </g>
   <g id="line2d_43">
    <path clip-path="url(#pb3884467bd)" d="M 73.832727 238.834776 
L 90.065455 238.480715 
L 106.298182 238.343564 
L 122.530909 242.875352 
L 138.763636 238.441527 
L 154.996364 248.888036 
L 171.229091 249.887987 
L 187.461818 250.093783 
L 203.694545 249.393472 
L 219.927273 248.998102 
L 236.16 248.677962 
L 252.392727 243.48747 
L 268.625455 240.809822 
L 284.858182 245.025061 
L 301.090909 238.201337 
L 317.323636 238.367118 
L 333.556364 238.39853 
L 349.789091 239.499923 
L 366.021818 235.063483 
L 382.254545 238.535753 
L 398.487273 238.834776 
" style="fill:none;stroke:#0e4db3;stroke-linecap:square;stroke-width:3;"/>
   </g>
   <g id="line2d_44">
    <path clip-path="url(#pb3884467bd)" d="M 73.832727 245.771467 
L 90.065455 243.102428 
L 106.298182 242.936297 
L 122.530909 244.598651 
L 138.763636 245.710966 
L 154.996364 253.798548 
L 171.229091 254.394529 
L 187.461818 254.554656 
L 203.694545 254.472812 
L 219.927273 254.204572 
L 236.16 254.241624 
L 252.392727 249.036415 
L 268.625455 247.279032 
L 284.858182 250.349498 
L 301.090909 245.1898 
L 317.323636 245.204216 
L 333.556364 245.210071 
L 349.789091 246.371195 
L 366.021818 242.309014 
L 382.254545 245.309406 
L 398.487273 245.771467 
" style="fill:none;stroke:#d44e4e;stroke-linecap:square;stroke-width:3;"/>
   </g>
   <g id="line2d_45">
    <path clip-path="url(#pb3884467bd)" d="M 73.832727 285.408 
L 90.065455 285.408 
L 106.298182 285.408 
L 122.530909 285.408 
L 138.763636 285.408 
L 154.996364 285.408 
L 171.229091 285.408 
L 187.461818 285.408 
L 203.694545 285.408 
L 219.927273 285.408 
L 236.16 285.408 
L 252.392727 285.408 
L 268.625455 285.408 
L 284.858182 285.408 
L 301.090909 285.408 
L 317.323636 285.408 
L 333.556364 285.408 
L 349.789091 285.408 
L 366.021818 285.408 
L 382.254545 285.408 
L 398.487273 285.408 
" style="fill:none;stroke:#0e4db3;stroke-linecap:square;stroke-width:3;"/>
   </g>
   <g id="line2d_46">
    <path clip-path="url(#pb3884467bd)" d="M 73.832727 285.408 
L 90.065455 285.408 
L 106.298182 285.408 
L 122.530909 285.408 
L 138.763636 285.408 
L 154.996364 285.408 
L 171.229091 285.408 
L 187.461818 285.408 
L 203.694545 285.408 
L 219.927273 285.408 
L 236.16 285.408 
L 252.392727 285.408 
L 268.625455 285.408 
L 284.858182 285.408 
L 301.090909 285.408 
L 317.323636 285.408 
L 333.556364 285.408 
L 349.789091 285.408 
L 366.021818 285.408 
L 382.254545 285.408 
L 398.487273 285.408 
" style="fill:none;stroke:#d44e4e;stroke-linecap:square;stroke-width:3;"/>
   </g>
   <g id="line2d_47">
    <path clip-path="url(#pb3884467bd)" d="M 73.832727 223.511685 
L 90.065455 166.956594 
L 106.298182 168.506856 
L 122.530909 163.986496 
L 138.763636 142.530218 
L 154.996364 158.898478 
L 171.229091 195.760964 
L 187.461818 251.397292 
L 203.694545 225.010309 
L 219.927273 201.817038 
L 236.16 198.452171 
L 252.392727 174.536412 
L 268.625455 155.436518 
L 284.858182 144.126001 
L 301.090909 163.121957 
L 317.323636 201.211727 
L 333.556364 263.468045 
L 349.789091 285.408 
L 366.021818 266.74937 
L 382.254545 220.220296 
L 398.487273 223.511685 
" style="fill:none;stroke:#0e4db3;stroke-linecap:square;stroke-width:3;"/>
   </g>
   <g id="line2d_48">
    <path clip-path="url(#pb3884467bd)" d="M 73.832727 285.408 
L 90.065455 238.598165 
L 106.298182 242.873541 
L 122.530909 228.07739 
L 138.763636 263.927783 
L 154.996364 281.043679 
L 171.229091 285.408 
L 187.461818 285.408 
L 203.694545 285.408 
L 219.927273 285.408 
L 236.16 284.048725 
L 252.392727 264.308502 
L 268.625455 252.143512 
L 284.858182 254.606895 
L 301.090909 266.13108 
L 317.323636 285.408 
L 333.556364 285.408 
L 349.789091 285.408 
L 366.021818 285.408 
L 382.254545 285.408 
L 398.487273 285.408 
" style="fill:none;stroke:#d44e4e;stroke-linecap:square;stroke-width:3;"/>
   </g>
   <g id="line2d_49">
    <path clip-path="url(#pb3884467bd)" d="M 73.832727 285.408 
L 90.065455 285.408 
L 106.298182 285.408 
L 122.530909 285.408 
L 138.763636 285.408 
L 154.996364 285.408 
L 171.229091 285.408 
L 187.461818 285.408 
L 203.694545 285.408 
L 219.927273 285.408 
L 236.16 285.408 
L 252.392727 285.408 
L 268.625455 285.408 
L 284.858182 285.408 
L 301.090909 285.408 
L 317.323636 285.408 
L 333.556364 285.408 
L 349.789091 285.408 
L 366.021818 285.408 
L 382.254545 285.408 
L 398.487273 285.408 
" style="fill:none;stroke:#0e4db3;stroke-linecap:square;stroke-width:3;"/>
   </g>
   <g id="line2d_50">
    <path clip-path="url(#pb3884467bd)" d="M 73.832727 285.408 
L 90.065455 285.408 
L 106.298182 285.408 
L 122.530909 285.408 
L 138.763636 285.408 
L 154.996364 285.408 
L 171.229091 285.408 
L 187.461818 285.408 
L 203.694545 285.408 
L 219.927273 285.408 
L 236.16 285.408 
L 252.392727 285.408 
L 268.625455 285.408 
L 284.858182 285.408 
L 301.090909 285.408 
L 317.323636 285.408 
L 333.556364 285.408 
L 349.789091 285.408 
L 366.021818 285.408 
L 382.254545 285.408 
L 398.487273 285.408 
" style="fill:none;stroke:#d44e4e;stroke-linecap:square;stroke-width:3;"/>
   </g>
   <g id="line2d_51">
    <path clip-path="url(#pb3884467bd)" d="M 73.832727 285.408 
L 90.065455 285.408 
L 106.298182 285.408 
L 122.530909 285.408 
L 138.763636 285.408 
L 154.996364 285.408 
L 171.229091 285.408 
L 187.461818 285.408 
L 203.694545 285.408 
L 219.927273 285.408 
L 236.16 285.408 
L 252.392727 285.408 
L 268.625455 285.408 
L 284.858182 285.408 
L 301.090909 285.408 
L 317.323636 285.408 
L 333.556364 285.408 
L 349.789091 285.408 
L 366.021818 285.408 
L 382.254545 285.408 
L 398.487273 285.408 
" style="fill:none;stroke:#0e4db3;stroke-linecap:square;stroke-width:3;"/>
   </g>
   <g id="line2d_52">
    <path clip-path="url(#pb3884467bd)" d="M 73.832727 285.408 
L 90.065455 285.408 
L 106.298182 285.408 
L 122.530909 285.408 
L 138.763636 285.408 
L 154.996364 285.408 
L 171.229091 285.408 
L 187.461818 285.408 
L 203.694545 285.408 
L 219.927273 285.408 
L 236.16 285.408 
L 252.392727 285.408 
L 268.625455 285.408 
L 284.858182 285.408 
L 301.090909 285.408 
L 317.323636 285.408 
L 333.556364 285.408 
L 349.789091 285.408 
L 366.021818 285.408 
L 382.254545 285.408 
L 398.487273 285.408 
" style="fill:none;stroke:#d44e4e;stroke-linecap:square;stroke-width:3;"/>
   </g>
   <g id="line2d_53">
    <path clip-path="url(#pb3884467bd)" d="M 73.832727 74.155913 
L 90.065455 139.411349 
L 106.298182 202.274352 
L 122.530909 211.487842 
L 138.763636 207.911167 
L 154.996364 210.154073 
L 171.229091 205.947959 
L 187.461818 216.896071 
L 203.694545 227.373332 
L 219.927273 187.769831 
L 236.16 177.78347 
L 252.392727 165.981435 
L 268.625455 194.671468 
L 284.858182 164.081008 
L 301.090909 120.027039 
L 317.323636 64.774959 
L 333.556364 21.069979 
L 349.789091 30.377709 
L 366.021818 41.426064 
L 382.254545 55.851951 
L 398.487273 74.155913 
" style="fill:none;stroke:#0e4db3;stroke-linecap:square;stroke-width:3;"/>
   </g>
   <g id="line2d_54">
    <path clip-path="url(#pb3884467bd)" d="M 73.832727 285.408 
L 90.065455 285.408 
L 106.298182 285.408 
L 122.530909 285.408 
L 138.763636 285.408 
L 154.996364 285.408 
L 171.229091 285.408 
L 187.461818 285.408 
L 203.694545 285.408 
L 219.927273 285.408 
L 236.16 285.408 
L 252.392727 285.408 
L 268.625455 285.408 
L 284.858182 285.408 
L 301.090909 285.408 
L 317.323636 227.604819 
L 333.556364 255.481442 
L 349.789091 229.672614 
L 366.021818 224.610842 
L 382.254545 248.46773 
L 398.487273 285.408 
" style="fill:none;stroke:#d44e4e;stroke-linecap:square;stroke-width:3;"/>
   </g>
   <g id="line2d_55">
    <path clip-path="url(#pb3884467bd)" d="M 73.832727 285.408 
L 90.065455 285.408 
L 106.298182 285.408 
L 122.530909 285.408 
L 138.763636 285.408 
L 154.996364 285.408 
L 171.229091 285.408 
L 187.461818 285.408 
L 203.694545 285.408 
L 219.927273 285.408 
L 236.16 285.408 
L 252.392727 285.408 
L 268.625455 285.408 
L 284.858182 285.408 
L 301.090909 285.408 
L 317.323636 285.408 
L 333.556364 285.408 
L 349.789091 285.408 
L 366.021818 285.408 
L 382.254545 285.408 
L 398.487273 285.408 
" style="fill:none;stroke:#0e4db3;stroke-linecap:square;stroke-width:3;"/>
   </g>
   <g id="line2d_56">
    <path clip-path="url(#pb3884467bd)" d="M 73.832727 285.408 
L 90.065455 285.408 
L 106.298182 285.408 
L 122.530909 285.408 
L 138.763636 285.408 
L 154.996364 285.408 
L 171.229091 285.408 
L 187.461818 285.408 
L 203.694545 285.408 
L 219.927273 285.408 
L 236.16 285.408 
L 252.392727 285.408 
L 268.625455 285.408 
L 284.858182 285.408 
L 301.090909 285.408 
L 317.323636 285.408 
L 333.556364 285.408 
L 349.789091 285.408 
L 366.021818 285.408 
L 382.254545 285.408 
L 398.487273 285.408 
" style="fill:none;stroke:#d44e4e;stroke-linecap:square;stroke-width:3;"/>
   </g>
   <g id="line2d_57">
    <path clip-path="url(#pb3884467bd)" d="M 73.832727 285.408 
L 90.065455 285.408 
L 106.298182 285.408 
L 122.530909 285.408 
L 138.763636 285.408 
L 154.996364 285.408 
L 171.229091 285.408 
L 187.461818 285.408 
L 203.694545 285.408 
L 219.927273 285.408 
L 236.16 285.408 
L 252.392727 285.408 
L 268.625455 285.408 
L 284.858182 285.408 
L 301.090909 285.408 
L 317.323636 285.408 
L 333.556364 285.408 
L 349.789091 285.408 
L 366.021818 285.408 
L 382.254545 285.408 
L 398.487273 285.408 
" style="fill:none;stroke:#0e4db3;stroke-linecap:square;stroke-width:3;"/>
   </g>
   <g id="line2d_58">
    <path clip-path="url(#pb3884467bd)" d="M 73.832727 285.408 
L 90.065455 285.408 
L 106.298182 285.408 
L 122.530909 285.408 
L 138.763636 285.408 
L 154.996364 285.408 
L 171.229091 285.408 
L 187.461818 285.408 
L 203.694545 285.408 
L 219.927273 285.408 
L 236.16 285.408 
L 252.392727 285.408 
L 268.625455 285.408 
L 284.858182 285.408 
L 301.090909 285.408 
L 317.323636 285.408 
L 333.556364 285.408 
L 349.789091 285.408 
L 366.021818 285.408 
L 382.254545 285.408 
L 398.487273 285.408 
" style="fill:none;stroke:#d44e4e;stroke-linecap:square;stroke-width:3;"/>
   </g>
   <g id="line2d_59">
    <path clip-path="url(#pb3884467bd)" d="M 73.832727 258.776536 
L 90.065455 258.867703 
L 106.298182 264.114645 
L 122.530909 271.195509 
L 138.763636 271.119835 
L 154.996364 272.326731 
L 171.229091 263.673591 
L 187.461818 243.113727 
L 203.694545 200.191965 
L 219.927273 169.725728 
L 236.16 207.807219 
L 252.392727 151.930261 
L 268.625455 159.009251 
L 284.858182 161.530772 
L 301.090909 162.072972 
L 317.323636 180.104658 
L 333.556364 191.451997 
L 349.789091 211.702471 
L 366.021818 222.279488 
L 382.254545 240.410055 
L 398.487273 258.776536 
" style="fill:none;stroke:#0e4db3;stroke-linecap:square;stroke-width:3;"/>
   </g>
   <g id="line2d_60">
    <path clip-path="url(#pb3884467bd)" d="M 73.832727 284.111862 
L 90.065455 275.830368 
L 106.298182 283.457782 
L 122.530909 279.302474 
L 138.763636 278.894521 
L 154.996364 279.472924 
L 171.229091 284.194751 
L 187.461818 284.473554 
L 203.694545 284.321121 
L 219.927273 247.447297 
L 236.16 283.629169 
L 252.392727 231.710551 
L 268.625455 242.147673 
L 284.858182 254.11488 
L 301.090909 260.265218 
L 317.323636 252.949801 
L 333.556364 263.023146 
L 349.789091 255.765321 
L 366.021818 263.442261 
L 382.254545 268.142643 
L 398.487273 284.111862 
" style="fill:none;stroke:#d44e4e;stroke-linecap:square;stroke-width:3;"/>
   </g>
   <g id="line2d_61">
    <path clip-path="url(#pb3884467bd)" d="M 73.832727 285.408 
L 90.065455 285.408 
L 106.298182 285.408 
L 122.530909 285.408 
L 138.763636 285.408 
L 154.996364 285.408 
L 171.229091 285.408 
L 187.461818 285.408 
L 203.694545 285.408 
L 219.927273 285.408 
L 236.16 285.408 
L 252.392727 285.408 
L 268.625455 285.408 
L 284.858182 285.408 
L 301.090909 285.408 
L 317.323636 285.408 
L 333.556364 285.408 
L 349.789091 285.408 
L 366.021818 285.408 
L 382.254545 285.408 
L 398.487273 285.408 
" style="fill:none;stroke:#0e4db3;stroke-linecap:square;stroke-width:3;"/>
   </g>
   <g id="line2d_62">
    <path clip-path="url(#pb3884467bd)" d="M 73.832727 285.408 
L 90.065455 285.408 
L 106.298182 285.408 
L 122.530909 285.408 
L 138.763636 285.408 
L 154.996364 285.408 
L 171.229091 285.408 
L 187.461818 285.408 
L 203.694545 285.408 
L 219.927273 285.408 
L 236.16 285.408 
L 252.392727 285.408 
L 268.625455 285.408 
L 284.858182 285.408 
L 301.090909 285.408 
L 317.323636 285.408 
L 333.556364 285.408 
L 349.789091 285.408 
L 366.021818 285.408 
L 382.254545 285.408 
L 398.487273 285.408 
" style="fill:none;stroke:#d44e4e;stroke-linecap:square;stroke-width:3;"/>
   </g>
   <g id="line2d_63">
    <path clip-path="url(#pb3884467bd)" d="M 73.832727 285.408 
L 90.065455 285.408 
L 106.298182 285.408 
L 122.530909 285.408 
L 138.763636 285.408 
L 154.996364 285.408 
L 171.229091 285.408 
L 187.461818 285.408 
L 203.694545 285.408 
L 219.927273 285.408 
L 236.16 285.408 
L 252.392727 285.408 
L 268.625455 285.408 
L 284.858182 285.408 
L 301.090909 285.408 
L 317.323636 285.408 
L 333.556364 285.408 
L 349.789091 285.408 
L 366.021818 285.408 
L 382.254545 285.408 
L 398.487273 285.408 
" style="fill:none;stroke:#0e4db3;stroke-linecap:square;stroke-width:3;"/>
   </g>
   <g id="line2d_64">
    <path clip-path="url(#pb3884467bd)" d="M 73.832727 285.408 
L 90.065455 285.408 
L 106.298182 285.408 
L 122.530909 285.408 
L 138.763636 285.408 
L 154.996364 285.408 
L 171.229091 285.408 
L 187.461818 285.408 
L 203.694545 285.408 
L 219.927273 285.408 
L 236.16 285.408 
L 252.392727 285.408 
L 268.625455 285.408 
L 284.858182 285.408 
L 301.090909 285.408 
L 317.323636 285.408 
L 333.556364 285.408 
L 349.789091 285.408 
L 366.021818 285.408 
L 382.254545 285.408 
L 398.487273 285.408 
" style="fill:none;stroke:#d44e4e;stroke-linecap:square;stroke-width:3;"/>
   </g>
   <g id="line2d_65">
    <path clip-path="url(#pb3884467bd)" d="M 73.832727 285.408 
L 90.065455 285.408 
L 106.298182 285.408 
L 122.530909 285.408 
L 138.763636 285.408 
L 154.996364 285.408 
L 171.229091 285.408 
L 187.461818 285.408 
L 203.694545 285.408 
L 219.927273 285.408 
L 236.16 285.408 
L 252.392727 285.408 
L 268.625455 285.408 
L 284.858182 285.408 
L 301.090909 285.408 
L 317.323636 285.408 
L 333.556364 285.408 
L 349.789091 285.408 
L 366.021818 285.408 
L 382.254545 285.408 
L 398.487273 285.408 
" style="fill:none;stroke:#0e4db3;stroke-linecap:square;stroke-width:3;"/>
   </g>
   <g id="line2d_66">
    <path clip-path="url(#pb3884467bd)" d="M 73.832727 285.408 
L 90.065455 285.408 
L 106.298182 285.408 
L 122.530909 285.408 
L 138.763636 285.408 
L 154.996364 285.408 
L 171.229091 285.408 
L 187.461818 285.408 
L 203.694545 285.408 
L 219.927273 285.408 
L 236.16 285.408 
L 252.392727 285.408 
L 268.625455 285.408 
L 284.858182 285.408 
L 301.090909 285.408 
L 317.323636 285.408 
L 333.556364 285.408 
L 349.789091 285.408 
L 366.021818 285.408 
L 382.254545 285.408 
L 398.487273 285.408 
" style="fill:none;stroke:#d44e4e;stroke-linecap:square;stroke-width:3;"/>
   </g>
   <g id="line2d_67">
    <path clip-path="url(#pb3884467bd)" d="M 73.832727 285.408 
L 90.065455 285.408 
L 106.298182 285.408 
L 122.530909 285.408 
L 138.763636 285.408 
L 154.996364 285.408 
L 171.229091 285.408 
L 187.461818 285.408 
L 203.694545 285.408 
L 219.927273 285.408 
L 236.16 285.408 
L 252.392727 285.408 
L 268.625455 285.408 
L 284.858182 285.408 
L 301.090909 285.408 
L 317.323636 285.408 
L 333.556364 285.408 
L 349.789091 285.408 
L 366.021818 285.408 
L 382.254545 285.408 
L 398.487273 285.408 
" style="fill:none;stroke:#0e4db3;stroke-linecap:square;stroke-width:3;"/>
   </g>
   <g id="line2d_68">
    <path clip-path="url(#pb3884467bd)" d="M 73.832727 285.408 
L 90.065455 285.408 
L 106.298182 285.408 
L 122.530909 285.408 
L 138.763636 285.408 
L 154.996364 285.408 
L 171.229091 285.408 
L 187.461818 285.408 
L 203.694545 285.408 
L 219.927273 285.408 
L 236.16 285.408 
L 252.392727 285.408 
L 268.625455 285.408 
L 284.858182 285.408 
L 301.090909 285.408 
L 317.323636 285.408 
L 333.556364 285.408 
L 349.789091 285.408 
L 366.021818 285.408 
L 382.254545 285.408 
L 398.487273 285.408 
" style="fill:none;stroke:#d44e4e;stroke-linecap:square;stroke-width:3;"/>
   </g>
   <g id="line2d_69">
    <path clip-path="url(#pb3884467bd)" d="M 73.832727 208.602415 
L 90.065455 185.378823 
L 106.298182 144.856538 
L 122.530909 151.136824 
L 138.763636 114.533891 
L 154.996364 117.141578 
L 171.229091 142.676828 
L 187.461818 195.440137 
L 203.694545 170.654667 
L 219.927273 170.23015 
L 236.16 198.783571 
L 252.392727 181.683904 
L 268.625455 188.756909 
L 284.858182 211.705755 
L 301.090909 213.674617 
L 317.323636 239.925635 
L 333.556364 229.172097 
L 349.789091 220.842111 
L 366.021818 204.288162 
L 382.254545 204.184234 
L 398.487273 208.602415 
" style="fill:none;stroke:#0e4db3;stroke-linecap:square;stroke-width:3;"/>
   </g>
   <g id="line2d_70">
    <path clip-path="url(#pb3884467bd)" d="M 73.832727 285.408 
L 90.065455 285.408 
L 106.298182 285.408 
L 122.530909 285.408 
L 138.763636 285.408 
L 154.996364 285.408 
L 171.229091 285.408 
L 187.461818 285.408 
L 203.694545 285.408 
L 219.927273 285.408 
L 236.16 285.408 
L 252.392727 285.408 
L 268.625455 285.408 
L 284.858182 285.408 
L 301.090909 285.408 
L 317.323636 285.408 
L 333.556364 285.408 
L 349.789091 285.408 
L 366.021818 285.408 
L 382.254545 285.408 
L 398.487273 285.408 
" style="fill:none;stroke:#d44e4e;stroke-linecap:square;stroke-width:3;"/>
   </g>
   <g id="line2d_71">
    <path clip-path="url(#pb3884467bd)" d="M 73.832727 285.408 
L 90.065455 285.408 
L 106.298182 285.408 
L 122.530909 285.408 
L 138.763636 285.408 
L 154.996364 285.408 
L 171.229091 285.408 
L 187.461818 285.408 
L 203.694545 285.408 
L 219.927273 285.408 
L 236.16 285.408 
L 252.392727 285.408 
L 268.625455 285.408 
L 284.858182 285.408 
L 301.090909 285.408 
L 317.323636 285.408 
L 333.556364 285.408 
L 349.789091 285.408 
L 366.021818 285.408 
L 382.254545 285.408 
L 398.487273 285.408 
" style="fill:none;stroke:#0e4db3;stroke-linecap:square;stroke-width:3;"/>
   </g>
   <g id="line2d_72">
    <path clip-path="url(#pb3884467bd)" d="M 73.832727 285.408 
L 90.065455 285.408 
L 106.298182 285.408 
L 122.530909 285.408 
L 138.763636 285.408 
L 154.996364 285.408 
L 171.229091 285.408 
L 187.461818 285.408 
L 203.694545 285.408 
L 219.927273 285.408 
L 236.16 285.408 
L 252.392727 285.408 
L 268.625455 285.408 
L 284.858182 285.408 
L 301.090909 285.408 
L 317.323636 285.408 
L 333.556364 285.408 
L 349.789091 285.408 
L 366.021818 285.408 
L 382.254545 285.408 
L 398.487273 285.408 
" style="fill:none;stroke:#d44e4e;stroke-linecap:square;stroke-width:3;"/>
   </g>
   <g id="line2d_73">
    <path clip-path="url(#pb3884467bd)" d="M 73.832727 285.408 
L 90.065455 285.408 
L 106.298182 285.408 
L 122.530909 285.408 
L 138.763636 285.408 
L 154.996364 285.408 
L 171.229091 285.408 
L 187.461818 285.408 
L 203.694545 285.408 
L 219.927273 285.408 
L 236.16 285.408 
L 252.392727 285.408 
L 268.625455 285.408 
L 284.858182 285.408 
L 301.090909 285.408 
L 317.323636 285.408 
L 333.556364 285.408 
L 349.789091 285.408 
L 366.021818 285.408 
L 382.254545 285.408 
L 398.487273 285.408 
" style="fill:none;stroke:#0e4db3;stroke-linecap:square;stroke-width:3;"/>
   </g>
   <g id="line2d_74">
    <path clip-path="url(#pb3884467bd)" d="M 73.832727 285.408 
L 90.065455 285.408 
L 106.298182 285.408 
L 122.530909 285.408 
L 138.763636 285.408 
L 154.996364 285.408 
L 171.229091 285.408 
L 187.461818 285.408 
L 203.694545 285.408 
L 219.927273 285.408 
L 236.16 285.408 
L 252.392727 285.408 
L 268.625455 285.408 
L 284.858182 285.408 
L 301.090909 285.408 
L 317.323636 285.408 
L 333.556364 285.408 
L 349.789091 285.408 
L 366.021818 285.408 
L 382.254545 285.408 
L 398.487273 285.408 
" style="fill:none;stroke:#d44e4e;stroke-linecap:square;stroke-width:3;"/>
   </g>
   <g id="line2d_75">
    <path clip-path="url(#pb3884467bd)" d="M 73.832727 285.408 
L 90.065455 285.408 
L 106.298182 285.408 
L 122.530909 285.408 
L 138.763636 285.408 
L 154.996364 285.408 
L 171.229091 285.408 
L 187.461818 285.408 
L 203.694545 285.408 
L 219.927273 285.408 
L 236.16 285.408 
L 252.392727 285.408 
L 268.625455 285.408 
L 284.858182 285.408 
L 301.090909 285.408 
L 317.323636 285.408 
L 333.556364 285.408 
L 349.789091 285.408 
L 366.021818 285.408 
L 382.254545 285.408 
L 398.487273 285.408 
" style="fill:none;stroke:#0e4db3;stroke-linecap:square;stroke-width:3;"/>
   </g>
   <g id="line2d_76">
    <path clip-path="url(#pb3884467bd)" d="M 73.832727 285.408 
L 90.065455 285.408 
L 106.298182 285.408 
L 122.530909 285.408 
L 138.763636 285.408 
L 154.996364 285.408 
L 171.229091 285.408 
L 187.461818 285.408 
L 203.694545 285.408 
L 219.927273 285.408 
L 236.16 285.408 
L 252.392727 285.408 
L 268.625455 285.408 
L 284.858182 285.408 
L 301.090909 285.408 
L 317.323636 285.408 
L 333.556364 285.408 
L 349.789091 285.408 
L 366.021818 285.408 
L 382.254545 285.408 
L 398.487273 285.408 
" style="fill:none;stroke:#d44e4e;stroke-linecap:square;stroke-width:3;"/>
   </g>
   <g id="line2d_77">
    <path clip-path="url(#pb3884467bd)" d="M 73.832727 227.201017 
L 90.065455 197.931469 
L 106.298182 241.702026 
L 122.530909 239.562952 
L 138.763636 222.120795 
L 154.996364 219.103331 
L 171.229091 202.172881 
L 187.461818 157.486213 
L 203.694545 127.672443 
L 219.927273 108.279463 
L 236.16 132.177031 
L 252.392727 74.279457 
L 268.625455 61.869558 
L 284.858182 101.440678 
L 301.090909 103.551399 
L 317.323636 164.925444 
L 333.556364 193.680747 
L 349.789091 169.883761 
L 366.021818 172.628012 
L 382.254545 181.406877 
L 398.487273 227.201017 
" style="fill:none;stroke:#0e4db3;stroke-linecap:square;stroke-width:3;"/>
   </g>
   <g id="line2d_78">
    <path clip-path="url(#pb3884467bd)" d="M 73.832727 285.408 
L 90.065455 285.408 
L 106.298182 285.408 
L 122.530909 285.408 
L 138.763636 285.408 
L 154.996364 285.408 
L 171.229091 285.408 
L 187.461818 285.408 
L 203.694545 285.408 
L 219.927273 285.408 
L 236.16 285.408 
L 252.392727 285.408 
L 268.625455 285.408 
L 284.858182 285.408 
L 301.090909 285.408 
L 317.323636 285.408 
L 333.556364 285.408 
L 349.789091 285.408 
L 366.021818 285.408 
L 382.254545 285.408 
L 398.487273 285.408 
" style="fill:none;stroke:#d44e4e;stroke-linecap:square;stroke-width:3;"/>
   </g>
   <g id="line2d_79">
    <path clip-path="url(#pb3884467bd)" d="M 73.832727 285.408 
L 90.065455 285.408 
L 106.298182 285.408 
L 122.530909 285.408 
L 138.763636 285.408 
L 154.996364 285.408 
L 171.229091 285.408 
L 187.461818 285.408 
L 203.694545 285.408 
L 219.927273 285.408 
L 236.16 285.408 
L 252.392727 285.408 
L 268.625455 285.408 
L 284.858182 285.408 
L 301.090909 285.408 
L 317.323636 285.408 
L 333.556364 285.408 
L 349.789091 285.408 
L 366.021818 285.408 
L 382.254545 285.408 
L 398.487273 285.408 
" style="fill:none;stroke:#0e4db3;stroke-linecap:square;stroke-width:3;"/>
   </g>
   <g id="line2d_80">
    <path clip-path="url(#pb3884467bd)" d="M 73.832727 285.408 
L 90.065455 285.408 
L 106.298182 285.408 
L 122.530909 285.408 
L 138.763636 285.408 
L 154.996364 285.408 
L 171.229091 285.408 
L 187.461818 285.408 
L 203.694545 285.408 
L 219.927273 285.408 
L 236.16 285.408 
L 252.392727 285.408 
L 268.625455 285.408 
L 284.858182 285.408 
L 301.090909 285.408 
L 317.323636 285.408 
L 333.556364 285.408 
L 349.789091 285.408 
L 366.021818 285.408 
L 382.254545 285.408 
L 398.487273 285.408 
" style="fill:none;stroke:#d44e4e;stroke-linecap:square;stroke-width:3;"/>
   </g>
   <g id="line2d_81">
    <path clip-path="url(#pb3884467bd)" d="M 73.832727 137.230836 
L 90.065455 115.344229 
L 106.298182 118.019672 
L 122.530909 138.138534 
L 138.763636 163.214978 
L 154.996364 172.55888 
L 171.229091 159.334266 
L 187.461818 178.074129 
L 203.694545 218.360171 
L 219.927273 241.92728 
L 236.16 247.856519 
L 252.392727 214.585905 
L 268.625455 228.418015 
L 284.858182 226.039338 
L 301.090909 166.204701 
L 317.323636 182.53549 
L 333.556364 172.022109 
L 349.789091 184.098265 
L 366.021818 166.018344 
L 382.254545 157.343436 
L 398.487273 137.230836 
" style="fill:none;stroke:#0e4db3;stroke-linecap:square;stroke-width:3;"/>
   </g>
   <g id="line2d_82">
    <path clip-path="url(#pb3884467bd)" d="M 73.832727 285.408 
L 90.065455 261.324486 
L 106.298182 245.385306 
L 122.530909 261.612131 
L 138.763636 285.408 
L 154.996364 285.408 
L 171.229091 257.539182 
L 187.461818 279.509362 
L 203.694545 285.408 
L 219.927273 285.408 
L 236.16 285.408 
L 252.392727 285.408 
L 268.625455 285.408 
L 284.858182 285.408 
L 301.090909 283.988137 
L 317.323636 285.408 
L 333.556364 285.408 
L 349.789091 253.368728 
L 366.021818 240.000417 
L 382.254545 254.74045 
L 398.487273 285.408 
" style="fill:none;stroke:#d44e4e;stroke-linecap:square;stroke-width:3;"/>
   </g>
   <g id="line2d_83">
    <path clip-path="url(#pb3884467bd)" d="M 73.832727 169.464311 
L 90.065455 176.269552 
L 106.298182 176.012514 
L 122.530909 172.702708 
L 138.763636 183.356276 
L 154.996364 218.624618 
L 171.229091 234.252486 
L 187.461818 245.326366 
L 203.694545 212.018018 
L 219.927273 136.885049 
L 236.16 103.566006 
L 252.392727 90.334623 
L 268.625455 108.576851 
L 284.858182 128.492044 
L 301.090909 122.264057 
L 317.323636 116.393376 
L 333.556364 136.881273 
L 349.789091 131.502109 
L 366.021818 159.096976 
L 382.254545 165.524188 
L 398.487273 169.464311 
" style="fill:none;stroke:#0e4db3;stroke-linecap:square;stroke-width:3;"/>
   </g>
   <g id="line2d_84">
    <path clip-path="url(#pb3884467bd)" d="M 73.832727 194.939758 
L 90.065455 198.114185 
L 106.298182 195.331639 
L 122.530909 198.325779 
L 138.763636 199.319368 
L 154.996364 233.063257 
L 171.229091 250.564113 
L 187.461818 248.298066 
L 203.694545 224.723507 
L 219.927273 176.389989 
L 236.16 149.217814 
L 252.392727 138.639315 
L 268.625455 147.641799 
L 284.858182 165.003075 
L 301.090909 156.961659 
L 317.323636 149.710908 
L 333.556364 165.310739 
L 349.789091 161.953023 
L 366.021818 179.466702 
L 382.254545 164.861923 
L 398.487273 194.939758 
" style="fill:none;stroke:#d44e4e;stroke-linecap:square;stroke-width:3;"/>
   </g>
   <g id="line2d_85">
    <path clip-path="url(#pb3884467bd)" d="M 73.832727 285.408 
L 90.065455 285.408 
L 106.298182 285.408 
L 122.530909 285.408 
L 138.763636 285.408 
L 154.996364 285.408 
L 171.229091 285.408 
L 187.461818 285.408 
L 203.694545 285.408 
L 219.927273 285.408 
L 236.16 285.408 
L 252.392727 285.408 
L 268.625455 285.408 
L 284.858182 285.408 
L 301.090909 285.408 
L 317.323636 285.408 
L 333.556364 285.408 
L 349.789091 285.408 
L 366.021818 285.408 
L 382.254545 285.408 
L 398.487273 285.408 
" style="fill:none;stroke:#0e4db3;stroke-linecap:square;stroke-width:3;"/>
   </g>
   <g id="line2d_86">
    <path clip-path="url(#pb3884467bd)" d="M 73.832727 285.408 
L 90.065455 285.408 
L 106.298182 285.408 
L 122.530909 285.408 
L 138.763636 285.408 
L 154.996364 285.408 
L 171.229091 285.408 
L 187.461818 285.408 
L 203.694545 285.408 
L 219.927273 285.408 
L 236.16 285.408 
L 252.392727 285.408 
L 268.625455 285.408 
L 284.858182 285.408 
L 301.090909 285.408 
L 317.323636 285.408 
L 333.556364 285.408 
L 349.789091 285.408 
L 366.021818 285.408 
L 382.254545 285.408 
L 398.487273 285.408 
" style="fill:none;stroke:#d44e4e;stroke-linecap:square;stroke-width:3;"/>
   </g>
   <g id="line2d_87">
    <path clip-path="url(#pb3884467bd)" d="M 73.832727 285.408 
L 90.065455 285.408 
L 106.298182 285.408 
L 122.530909 285.408 
L 138.763636 285.408 
L 154.996364 285.408 
L 171.229091 285.408 
L 187.461818 285.408 
L 203.694545 285.408 
L 219.927273 285.408 
L 236.16 285.408 
L 252.392727 285.408 
L 268.625455 285.408 
L 284.858182 285.408 
L 301.090909 285.408 
L 317.323636 285.408 
L 333.556364 285.408 
L 349.789091 285.408 
L 366.021818 285.408 
L 382.254545 285.408 
L 398.487273 285.408 
" style="fill:none;stroke:#0e4db3;stroke-linecap:square;stroke-width:3;"/>
   </g>
   <g id="line2d_88">
    <path clip-path="url(#pb3884467bd)" d="M 73.832727 285.408 
L 90.065455 285.408 
L 106.298182 285.408 
L 122.530909 285.408 
L 138.763636 285.408 
L 154.996364 285.408 
L 171.229091 285.408 
L 187.461818 285.408 
L 203.694545 285.408 
L 219.927273 285.408 
L 236.16 285.408 
L 252.392727 285.408 
L 268.625455 285.408 
L 284.858182 285.408 
L 301.090909 285.408 
L 317.323636 285.408 
L 333.556364 285.408 
L 349.789091 285.408 
L 366.021818 285.408 
L 382.254545 285.408 
L 398.487273 285.408 
" style="fill:none;stroke:#d44e4e;stroke-linecap:square;stroke-width:3;"/>
   </g>
   <g id="line2d_89">
    <path clip-path="url(#pb3884467bd)" d="M 73.832727 285.408 
L 90.065455 285.408 
L 106.298182 285.408 
L 122.530909 268.805548 
L 138.763636 254.397657 
L 154.996364 250.269642 
L 171.229091 263.349455 
L 187.461818 240.663977 
L 203.694545 196.205479 
L 219.927273 173.656827 
L 236.16 275.412824 
L 252.392727 116.574084 
L 268.625455 67.285047 
L 284.858182 75.472241 
L 301.090909 78.768157 
L 317.323636 140.772606 
L 333.556364 200.889284 
L 349.789091 265.775424 
L 366.021818 285.408 
L 382.254545 285.408 
L 398.487273 285.408 
" style="fill:none;stroke:#0e4db3;stroke-linecap:square;stroke-width:3;"/>
   </g>
   <g id="line2d_90">
    <path clip-path="url(#pb3884467bd)" d="M 73.832727 285.408 
L 90.065455 285.408 
L 106.298182 285.408 
L 122.530909 285.408 
L 138.763636 285.408 
L 154.996364 285.408 
L 171.229091 285.408 
L 187.461818 285.408 
L 203.694545 274.365187 
L 219.927273 265.467466 
L 236.16 285.408 
L 252.392727 227.377466 
L 268.625455 216.854244 
L 284.858182 196.810771 
L 301.090909 206.009688 
L 317.323636 236.413446 
L 333.556364 258.024416 
L 349.789091 285.408 
L 366.021818 285.408 
L 382.254545 285.408 
L 398.487273 285.408 
" style="fill:none;stroke:#d44e4e;stroke-linecap:square;stroke-width:3;"/>
   </g>
   <g id="line2d_91">
    <path clip-path="url(#pb3884467bd)" d="M 73.832727 117.701751 
L 90.065455 79.395531 
L 106.298182 61.433542 
L 122.530909 44.870626 
L 138.763636 27.271583 
L 154.996364 50.679421 
L 171.229091 73.750907 
L 187.461818 149.793386 
L 203.694545 158.642807 
L 219.927273 172.333425 
L 236.16 156.504593 
L 252.392727 142.982466 
L 268.625455 151.114417 
L 284.858182 126.95571 
L 301.090909 151.986211 
L 317.323636 164.077079 
L 333.556364 198.847466 
L 349.789091 186.912987 
L 366.021818 173.962895 
L 382.254545 146.062285 
L 398.487273 117.701751 
" style="fill:none;stroke:#0e4db3;stroke-linecap:square;stroke-width:3;"/>
   </g>
   <g id="line2d_92">
    <path clip-path="url(#pb3884467bd)" d="M 73.832727 285.408 
L 90.065455 256.091464 
L 106.298182 260.867128 
L 122.530909 226.315505 
L 138.763636 272.194417 
L 154.996364 283.286141 
L 171.229091 283.320047 
L 187.461818 285.408 
L 203.694545 285.408 
L 219.927273 285.408 
L 236.16 285.408 
L 252.392727 285.408 
L 268.625455 285.408 
L 284.858182 285.408 
L 301.090909 285.408 
L 317.323636 285.408 
L 333.556364 285.408 
L 349.789091 285.408 
L 366.021818 285.408 
L 382.254545 285.408 
L 398.487273 285.408 
" style="fill:none;stroke:#d44e4e;stroke-linecap:square;stroke-width:3;"/>
   </g>
   <g id="line2d_93">
    <path clip-path="url(#pb3884467bd)" d="M 73.832727 285.408 
L 90.065455 285.408 
L 106.298182 285.408 
L 122.530909 285.408 
L 138.763636 285.408 
L 154.996364 285.408 
L 171.229091 285.408 
L 187.461818 285.408 
L 203.694545 285.408 
L 219.927273 285.408 
L 236.16 285.408 
L 252.392727 285.408 
L 268.625455 285.408 
L 284.858182 285.408 
L 301.090909 285.408 
L 317.323636 285.408 
L 333.556364 285.408 
L 349.789091 285.408 
L 366.021818 285.408 
L 382.254545 285.408 
L 398.487273 285.408 
" style="fill:none;stroke:#0e4db3;stroke-linecap:square;stroke-width:3;"/>
   </g>
   <g id="line2d_94">
    <path clip-path="url(#pb3884467bd)" d="M 73.832727 285.408 
L 90.065455 285.408 
L 106.298182 285.408 
L 122.530909 285.408 
L 138.763636 285.408 
L 154.996364 285.408 
L 171.229091 285.408 
L 187.461818 285.408 
L 203.694545 285.408 
L 219.927273 285.408 
L 236.16 285.408 
L 252.392727 285.408 
L 268.625455 285.408 
L 284.858182 285.408 
L 301.090909 285.408 
L 317.323636 285.408 
L 333.556364 285.408 
L 349.789091 285.408 
L 366.021818 285.408 
L 382.254545 285.408 
L 398.487273 285.408 
" style="fill:none;stroke:#d44e4e;stroke-linecap:square;stroke-width:3;"/>
   </g>
   <g id="line2d_95">
    <path clip-path="url(#pb3884467bd)" d="M 73.832727 27.948837 
L 90.065455 69.902562 
L 106.298182 116.064537 
L 122.530909 176.121097 
L 138.763636 218.508067 
L 154.996364 253.28969 
L 171.229091 215.147827 
L 187.461818 170.096225 
L 203.694545 125.624287 
L 219.927273 62.11158 
L 236.16 51.178165 
L 252.392727 49.715351 
L 268.625455 73.556261 
L 284.858182 112.586422 
L 301.090909 70.976104 
L 317.323636 95.49813 
L 333.556364 59.027134 
L 349.789091 72.565922 
L 366.021818 46.714759 
L 382.254545 13.727154 
L 398.487273 27.948837 
" style="fill:none;stroke:#0e4db3;stroke-linecap:square;stroke-width:3;"/>
   </g>
   <g id="line2d_96">
    <path clip-path="url(#pb3884467bd)" d="M 73.832727 202.909976 
L 90.065455 197.467587 
L 106.298182 229.889151 
L 122.530909 285.408 
L 138.763636 285.408 
L 154.996364 285.408 
L 171.229091 285.408 
L 187.461818 285.408 
L 203.694545 285.408 
L 219.927273 262.668364 
L 236.16 251.094121 
L 252.392727 212.372427 
L 268.625455 229.096416 
L 284.858182 242.812639 
L 301.090909 188.841901 
L 317.323636 184.636288 
L 333.556364 194.527916 
L 349.789091 163.421898 
L 366.021818 141.517855 
L 382.254545 140.088794 
L 398.487273 202.909976 
" style="fill:none;stroke:#d44e4e;stroke-linecap:square;stroke-width:3;"/>
   </g>
   <g id="line2d_97">
    <path clip-path="url(#pb3884467bd)" d="M 73.832727 285.408 
L 90.065455 285.408 
L 106.298182 285.408 
L 122.530909 285.408 
L 138.763636 285.408 
L 154.996364 285.408 
L 171.229091 285.408 
L 187.461818 285.408 
L 203.694545 285.408 
L 219.927273 285.408 
L 236.16 285.408 
L 252.392727 285.408 
L 268.625455 285.408 
L 284.858182 285.408 
L 301.090909 285.408 
L 317.323636 285.408 
L 333.556364 285.408 
L 349.789091 285.408 
L 366.021818 285.408 
L 382.254545 285.408 
L 398.487273 285.408 
" style="fill:none;stroke:#0e4db3;stroke-linecap:square;stroke-width:3;"/>
   </g>
   <g id="line2d_98">
    <path clip-path="url(#pb3884467bd)" d="M 73.832727 285.408 
L 90.065455 285.408 
L 106.298182 285.408 
L 122.530909 285.408 
L 138.763636 285.408 
L 154.996364 285.408 
L 171.229091 285.408 
L 187.461818 285.408 
L 203.694545 285.408 
L 219.927273 285.408 
L 236.16 285.408 
L 252.392727 285.408 
L 268.625455 285.408 
L 284.858182 285.408 
L 301.090909 285.408 
L 317.323636 285.408 
L 333.556364 285.408 
L 349.789091 285.408 
L 366.021818 285.408 
L 382.254545 285.408 
L 398.487273 285.408 
" style="fill:none;stroke:#d44e4e;stroke-linecap:square;stroke-width:3;"/>
   </g>
   <g id="line2d_99">
    <path clip-path="url(#pb3884467bd)" d="M 73.832727 141.373758 
L 90.065455 119.036758 
L 106.298182 106.270529 
L 122.530909 104.504132 
L 138.763636 90.423161 
L 154.996364 94.183924 
L 171.229091 102.221076 
L 187.461818 126.404972 
L 203.694545 137.441913 
L 219.927273 156.132327 
L 236.16 162.62369 
L 252.392727 169.175153 
L 268.625455 179.405093 
L 284.858182 185.840802 
L 301.090909 174.381571 
L 317.323636 167.192182 
L 333.556364 143.624838 
L 349.789091 157.98383 
L 366.021818 139.266287 
L 382.254545 139.625218 
L 398.487273 141.373758 
" style="fill:none;stroke:#0e4db3;stroke-linecap:square;stroke-width:3;"/>
   </g>
   <g id="line2d_100">
    <path clip-path="url(#pb3884467bd)" d="M 73.832727 198.284798 
L 90.065455 187.263123 
L 106.298182 186.215802 
L 122.530909 174.469612 
L 138.763636 175.032805 
L 154.996364 184.604246 
L 171.229091 174.895056 
L 187.461818 183.487152 
L 203.694545 198.390983 
L 219.927273 197.232535 
L 236.16 199.771759 
L 252.392727 199.944686 
L 268.625455 198.172917 
L 284.858182 208.68548 
L 301.090909 216.140875 
L 317.323636 207.4719 
L 333.556364 202.16966 
L 349.789091 173.172737 
L 366.021818 159.829416 
L 382.254545 175.571861 
L 398.487273 198.284798 
" style="fill:none;stroke:#d44e4e;stroke-linecap:square;stroke-width:3;"/>
   </g>
   <g id="line2d_101">
    <path clip-path="url(#pb3884467bd)" d="M 73.832727 285.408 
L 90.065455 285.408 
L 106.298182 285.408 
L 122.530909 285.408 
L 138.763636 285.408 
L 154.996364 285.408 
L 171.229091 285.408 
L 187.461818 285.408 
L 203.694545 285.408 
L 219.927273 285.408 
L 236.16 285.408 
L 252.392727 285.408 
L 268.625455 285.408 
L 284.858182 285.408 
L 301.090909 285.408 
L 317.323636 285.408 
L 333.556364 285.408 
L 349.789091 285.408 
L 366.021818 285.408 
L 382.254545 285.408 
L 398.487273 285.408 
" style="fill:none;stroke:#0e4db3;stroke-linecap:square;stroke-width:3;"/>
   </g>
   <g id="line2d_102">
    <path clip-path="url(#pb3884467bd)" d="M 73.832727 285.408 
L 90.065455 285.408 
L 106.298182 285.408 
L 122.530909 285.408 
L 138.763636 285.408 
L 154.996364 285.408 
L 171.229091 285.408 
L 187.461818 285.408 
L 203.694545 285.408 
L 219.927273 285.408 
L 236.16 285.408 
L 252.392727 285.408 
L 268.625455 285.408 
L 284.858182 285.408 
L 301.090909 285.408 
L 317.323636 285.408 
L 333.556364 285.408 
L 349.789091 285.408 
L 366.021818 285.408 
L 382.254545 285.408 
L 398.487273 285.408 
" style="fill:none;stroke:#d44e4e;stroke-linecap:square;stroke-width:3;"/>
   </g>
   <g id="line2d_103">
    <path clip-path="url(#pb3884467bd)" d="M 73.832727 153.552294 
L 90.065455 130.460839 
L 106.298182 126.633544 
L 122.530909 167.105642 
L 138.763636 178.941593 
L 154.996364 183.309703 
L 171.229091 160.433035 
L 187.461818 158.916555 
L 203.694545 169.485618 
L 219.927273 190.679447 
L 236.16 172.064647 
L 252.392727 162.912103 
L 268.625455 121.092743 
L 284.858182 121.685091 
L 301.090909 102.409336 
L 317.323636 104.955462 
L 333.556364 111.088488 
L 349.789091 141.325704 
L 366.021818 140.806455 
L 382.254545 148.240055 
L 398.487273 153.552294 
" style="fill:none;stroke:#0e4db3;stroke-linecap:square;stroke-width:3;"/>
   </g>
   <g id="line2d_104">
    <path clip-path="url(#pb3884467bd)" d="M 73.832727 223.261448 
L 90.065455 199.386569 
L 106.298182 190.378847 
L 122.530909 217.983746 
L 138.763636 234.535817 
L 154.996364 230.576647 
L 171.229091 210.101206 
L 187.461818 202.110708 
L 203.694545 202.847573 
L 219.927273 220.432182 
L 236.16 217.485289 
L 252.392727 217.791089 
L 268.625455 197.267321 
L 284.858182 196.495622 
L 301.090909 187.822043 
L 317.323636 189.093558 
L 333.556364 195.073234 
L 349.789091 189.129252 
L 366.021818 173.495677 
L 382.254545 198.922028 
L 398.487273 223.261448 
" style="fill:none;stroke:#d44e4e;stroke-linecap:square;stroke-width:3;"/>
   </g>
   <g id="line2d_105">
    <path clip-path="url(#pb3884467bd)" d="M 73.832727 196.806469 
L 90.065455 184.744318 
L 106.298182 137.882758 
L 122.530909 134.71029 
L 138.763636 122.621802 
L 154.996364 145.113147 
L 171.229091 206.939622 
L 187.461818 228.214828 
L 203.694545 242.203208 
L 219.927273 236.579194 
L 236.16 201.094674 
L 252.392727 223.215683 
L 268.625455 189.862953 
L 284.858182 165.288237 
L 301.090909 146.650456 
L 317.323636 173.356437 
L 333.556364 191.484786 
L 349.789091 226.590749 
L 366.021818 209.722569 
L 382.254545 211.397722 
L 398.487273 196.806469 
" style="fill:none;stroke:#0e4db3;stroke-linecap:square;stroke-width:3;"/>
   </g>
   <g id="line2d_106">
    <path clip-path="url(#pb3884467bd)" d="M 73.832727 285.408 
L 90.065455 247.675304 
L 106.298182 238.22544 
L 122.530909 226.389288 
L 138.763636 248.793651 
L 154.996364 271.438814 
L 171.229091 285.408 
L 187.461818 285.408 
L 203.694545 285.408 
L 219.927273 285.408 
L 236.16 285.408 
L 252.392727 285.408 
L 268.625455 285.408 
L 284.858182 274.224236 
L 301.090909 250.788925 
L 317.323636 271.909713 
L 333.556364 281.555909 
L 349.789091 242.040815 
L 366.021818 285.408 
L 382.254545 247.91082 
L 398.487273 285.408 
" style="fill:none;stroke:#d44e4e;stroke-linecap:square;stroke-width:3;"/>
   </g>
   <g id="line2d_107">
    <path clip-path="url(#pb3884467bd)" d="M 73.832727 285.408 
L 90.065455 285.408 
L 106.298182 285.408 
L 122.530909 285.408 
L 138.763636 285.408 
L 154.996364 285.408 
L 171.229091 285.408 
L 187.461818 285.408 
L 203.694545 285.408 
L 219.927273 285.408 
L 236.16 285.408 
L 252.392727 285.408 
L 268.625455 285.408 
L 284.858182 285.408 
L 301.090909 285.408 
L 317.323636 285.408 
L 333.556364 285.408 
L 349.789091 285.408 
L 366.021818 285.408 
L 382.254545 285.408 
L 398.487273 285.408 
" style="fill:none;stroke:#0e4db3;stroke-linecap:square;stroke-width:3;"/>
   </g>
   <g id="line2d_108">
    <path clip-path="url(#pb3884467bd)" d="M 73.832727 285.408 
L 90.065455 285.408 
L 106.298182 285.408 
L 122.530909 285.408 
L 138.763636 285.408 
L 154.996364 285.408 
L 171.229091 285.408 
L 187.461818 285.408 
L 203.694545 285.408 
L 219.927273 285.408 
L 236.16 285.408 
L 252.392727 285.408 
L 268.625455 285.408 
L 284.858182 285.408 
L 301.090909 285.408 
L 317.323636 285.408 
L 333.556364 285.408 
L 349.789091 285.408 
L 366.021818 285.408 
L 382.254545 285.408 
L 398.487273 285.408 
" style="fill:none;stroke:#d44e4e;stroke-linecap:square;stroke-width:3;"/>
   </g>
   <g id="line2d_109">
    <path clip-path="url(#pb3884467bd)" d="M 73.832727 285.408 
L 90.065455 285.408 
L 106.298182 285.408 
L 122.530909 285.408 
L 138.763636 285.408 
L 154.996364 285.408 
L 171.229091 285.408 
L 187.461818 285.408 
L 203.694545 285.408 
L 219.927273 285.408 
L 236.16 285.408 
L 252.392727 285.408 
L 268.625455 285.408 
L 284.858182 285.408 
L 301.090909 285.408 
L 317.323636 285.408 
L 333.556364 285.408 
L 349.789091 285.408 
L 366.021818 285.408 
L 382.254545 285.408 
L 398.487273 285.408 
" style="fill:none;stroke:#0e4db3;stroke-linecap:square;stroke-width:3;"/>
   </g>
   <g id="line2d_110">
    <path clip-path="url(#pb3884467bd)" d="M 73.832727 285.408 
L 90.065455 285.408 
L 106.298182 285.408 
L 122.530909 285.408 
L 138.763636 285.408 
L 154.996364 285.408 
L 171.229091 285.408 
L 187.461818 285.408 
L 203.694545 285.408 
L 219.927273 285.408 
L 236.16 285.408 
L 252.392727 285.408 
L 268.625455 285.408 
L 284.858182 285.408 
L 301.090909 285.408 
L 317.323636 285.408 
L 333.556364 285.408 
L 349.789091 285.408 
L 366.021818 285.408 
L 382.254545 285.408 
L 398.487273 285.408 
" style="fill:none;stroke:#d44e4e;stroke-linecap:square;stroke-width:3;"/>
   </g>
   <g id="line2d_111">
    <path clip-path="url(#pb3884467bd)" d="M 73.832727 204.714247 
L 90.065455 229.516105 
L 106.298182 231.212916 
L 122.530909 249.210929 
L 138.763636 253.994343 
L 154.996364 250.941942 
L 171.229091 242.707057 
L 187.461818 243.546804 
L 203.694545 225.759601 
L 219.927273 220.211282 
L 236.16 210.686046 
L 252.392727 215.715369 
L 268.625455 209.98854 
L 284.858182 213.024836 
L 301.090909 220.080444 
L 317.323636 234.09276 
L 333.556364 226.734568 
L 349.789091 218.869426 
L 366.021818 198.370296 
L 382.254545 192.807834 
L 398.487273 204.714247 
" style="fill:none;stroke:#0e4db3;stroke-linecap:square;stroke-width:3;"/>
   </g>
   <g id="line2d_112">
    <path clip-path="url(#pb3884467bd)" d="M 73.832727 141.489903 
L 90.065455 161.517857 
L 106.298182 170.451829 
L 122.530909 183.016645 
L 138.763636 175.559233 
L 154.996364 177.480777 
L 171.229091 182.782262 
L 187.461818 183.018127 
L 203.694545 157.044136 
L 219.927273 148.529911 
L 236.16 147.956136 
L 252.392727 150.470353 
L 268.625455 154.348819 
L 284.858182 160.967904 
L 301.090909 158.014114 
L 317.323636 157.952686 
L 333.556364 158.24127 
L 349.789091 156.904304 
L 366.021818 141.504204 
L 382.254545 140.930897 
L 398.487273 141.489903 
" style="fill:none;stroke:#d44e4e;stroke-linecap:square;stroke-width:3;"/>
   </g>
   <g id="line2d_113">
    <path clip-path="url(#pb3884467bd)" d="M 73.832727 194.520795 
L 90.065455 214.628186 
L 106.298182 243.602525 
L 122.530909 235.477036 
L 138.763636 221.143099 
L 154.996364 247.072849 
L 171.229091 260.141781 
L 187.461818 285.408 
L 203.694545 277.5447 
L 219.927273 254.041334 
L 236.16 235.416282 
L 252.392727 200.814492 
L 268.625455 62.341575 
L 283.328363 -1 
M 326.226379 -1 
L 333.556364 12.782126 
L 349.789091 86.838996 
L 366.021818 139.51586 
L 382.254545 166.792203 
L 398.487273 194.520795 
" style="fill:none;stroke:#0e4db3;stroke-linecap:square;stroke-width:3;"/>
   </g>
   <g id="line2d_114">
    <path clip-path="url(#pb3884467bd)" d="M 73.832727 285.408 
L 90.065455 285.408 
L 106.298182 285.408 
L 122.530909 285.408 
L 138.763636 285.408 
L 154.996364 285.408 
L 171.229091 285.408 
L 187.461818 285.408 
L 203.694545 285.408 
L 219.927273 285.408 
L 236.16 285.408 
L 252.392727 285.408 
L 268.625455 265.875915 
L 284.858182 233.602122 
L 301.090909 205.282281 
L 317.323636 176.030934 
L 333.556364 233.671479 
L 349.789091 216.37458 
L 366.021818 256.669904 
L 382.254545 273.337017 
L 398.487273 285.408 
" style="fill:none;stroke:#d44e4e;stroke-linecap:square;stroke-width:3;"/>
   </g>
   <g id="line2d_115">
    <path clip-path="url(#pb3884467bd)" d="M 73.832727 277.505467 
L 90.065455 270.239852 
L 106.298182 268.686047 
L 122.530909 264.95736 
L 138.763636 239.471408 
L 154.996364 230.595837 
L 171.229091 187.774314 
L 187.461818 160.202169 
L 203.694545 123.028185 
L 219.927273 86.796285 
L 236.16 54.107732 
L 252.392727 58.905005 
L 268.625455 1.769886 
L 284.858182 44.152439 
L 301.090909 90.965247 
L 317.323636 145.452778 
L 333.556364 179.635318 
L 349.789091 234.137325 
L 366.021818 245.651433 
L 382.254545 258.396283 
L 398.487273 277.505467 
" style="fill:none;stroke:#0e4db3;stroke-linecap:square;stroke-width:3;"/>
   </g>
   <g id="line2d_116">
    <path clip-path="url(#pb3884467bd)" d="M 73.832727 285.408 
L 90.065455 285.408 
L 106.298182 285.408 
L 122.530909 285.408 
L 138.763636 285.408 
L 154.996364 285.408 
L 171.229091 285.408 
L 187.461818 285.408 
L 203.694545 285.408 
L 219.927273 285.408 
L 236.16 285.408 
L 252.392727 285.408 
L 268.625455 285.408 
L 284.858182 285.408 
L 301.090909 285.408 
L 317.323636 285.408 
L 333.556364 285.408 
L 349.789091 285.408 
L 366.021818 285.408 
L 382.254545 285.408 
L 398.487273 285.408 
" style="fill:none;stroke:#d44e4e;stroke-linecap:square;stroke-width:3;"/>
   </g>
   <g id="line2d_117">
    <path clip-path="url(#pb3884467bd)" d="M 73.832727 285.408 
L 90.065455 222.363777 
L 106.298182 191.023513 
L 122.530909 148.199638 
L 138.763636 79.177656 
L 154.996364 63.648 
L 171.229091 108.337315 
L 187.461818 161.846753 
L 203.694545 176.128534 
L 219.927273 206.766647 
L 236.16 235.0103 
L 252.392727 248.699217 
L 268.625455 285.408 
L 284.858182 285.408 
L 301.090909 255.494414 
L 317.323636 271.045233 
L 333.556364 281.624301 
L 349.789091 285.408 
L 366.021818 285.408 
L 382.254545 285.408 
L 398.487273 285.408 
" style="fill:none;stroke:#0e4db3;stroke-linecap:square;stroke-width:3;"/>
   </g>
   <g id="line2d_118">
    <path clip-path="url(#pb3884467bd)" d="M 73.832727 285.408 
L 90.065455 285.408 
L 106.298182 285.408 
L 122.530909 230.195596 
L 138.763636 233.242297 
L 154.996364 226.413779 
L 171.229091 243.07114 
L 187.461818 277.330588 
L 203.694545 285.408 
L 219.927273 285.408 
L 236.16 285.408 
L 252.392727 285.408 
L 268.625455 285.408 
L 284.858182 285.408 
L 301.090909 285.408 
L 317.323636 285.408 
L 333.556364 285.408 
L 349.789091 285.408 
L 366.021818 285.408 
L 382.254545 285.408 
L 398.487273 285.408 
" style="fill:none;stroke:#d44e4e;stroke-linecap:square;stroke-width:3;"/>
   </g>
   <g id="patch_3">
    <path d="M 57.6 307.584 
L 57.6 41.472 
" style="fill:none;stroke:#000000;stroke-linecap:square;stroke-linejoin:miter;stroke-width:2.5;"/>
   </g>
   <g id="patch_4">
    <path d="M 414.72 307.584 
L 414.72 41.472 
" style="fill:none;stroke:#000000;stroke-linecap:square;stroke-linejoin:miter;stroke-width:2.5;"/>
   </g>
   <g id="patch_5">
    <path d="M 57.6 307.584 
L 414.72 307.584 
" style="fill:none;stroke:#000000;stroke-linecap:square;stroke-linejoin:miter;stroke-width:2.5;"/>
   </g>
   <g id="patch_6">
    <path d="M 57.6 41.472 
L 414.72 41.472 
" style="fill:none;stroke:#000000;stroke-linecap:square;stroke-linejoin:miter;stroke-width:2.5;"/>
   </g>
  </g>
 </g>
 <defs>
  <clipPath id="pb3884467bd">
   <rect height="266.112" width="357.12" x="57.6" y="41.472"/>
  </clipPath>
 </defs>
</svg>
