<?xml version="1.0" encoding="utf-8" standalone="no"?>
<!DOCTYPE svg PUBLIC "-//W3C//DTD SVG 1.1//EN"
  "http://www.w3.org/Graphics/SVG/1.1/DTD/svg11.dtd">
<!-- Created with matplotlib (https://matplotlib.org/) -->
<svg height="345.6pt" version="1.1" viewBox="0 0 460.8 345.6" width="460.8pt" xmlns="http://www.w3.org/2000/svg" xmlns:xlink="http://www.w3.org/1999/xlink">
 <defs>
  <style type="text/css">
*{stroke-linecap:butt;stroke-linejoin:round;}
  </style>
 </defs>
 <g id="figure_1">
  <g id="patch_1">
   <path d="M 0 345.6 
L 460.8 345.6 
L 460.8 0 
L 0 0 
z
" style="fill:#ffffff;"/>
  </g>
  <g id="axes_1">
   <g id="patch_2">
    <path d="M 57.6 307.584 
L 414.72 307.584 
L 414.72 41.472 
L 57.6 41.472 
z
" style="fill:#ffffff;"/>
   </g>
   <g id="matplotlib.axis_1">
    <g id="xtick_1">
     <g id="line2d_1">
      <defs>
       <path d="M 0 0 
L 0 12 
" id="m6f84146411" style="stroke:#000000;stroke-width:2.5;"/>
      </defs>
      <g>
       <use style="stroke:#000000;stroke-width:2.5;" x="73.832727" xlink:href="#m6f84146411" y="307.584"/>
      </g>
     </g>
     <g id="text_1">
      <!-- 0 -->
      <defs>
       <path d="M 31.78125 66.40625 
Q 24.171875 66.40625 20.328125 58.90625 
Q 16.5 51.421875 16.5 36.375 
Q 16.5 21.390625 20.328125 13.890625 
Q 24.171875 6.390625 31.78125 6.390625 
Q 39.453125 6.390625 43.28125 13.890625 
Q 47.125 21.390625 47.125 36.375 
Q 47.125 51.421875 43.28125 58.90625 
Q 39.453125 66.40625 31.78125 66.40625 
z
M 31.78125 74.21875 
Q 44.046875 74.21875 50.515625 64.515625 
Q 56.984375 54.828125 56.984375 36.375 
Q 56.984375 17.96875 50.515625 8.265625 
Q 44.046875 -1.421875 31.78125 -1.421875 
Q 19.53125 -1.421875 13.0625 8.265625 
Q 6.59375 17.96875 6.59375 36.375 
Q 6.59375 54.828125 13.0625 64.515625 
Q 19.53125 74.21875 31.78125 74.21875 
z
" id="DejaVuSans-48"/>
      </defs>
      <g transform="translate(57.735602 361.532094)scale(0.506 -0.506)">
       <use xlink:href="#DejaVuSans-48"/>
      </g>
     </g>
    </g>
    <g id="xtick_2">
     <g id="line2d_2">
      <g>
       <use style="stroke:#000000;stroke-width:2.5;" x="254.196364" xlink:href="#m6f84146411" y="307.584"/>
      </g>
     </g>
     <g id="text_2">
      <!-- 100 -->
      <defs>
       <path d="M 12.40625 8.296875 
L 28.515625 8.296875 
L 28.515625 63.921875 
L 10.984375 60.40625 
L 10.984375 69.390625 
L 28.421875 72.90625 
L 38.28125 72.90625 
L 38.28125 8.296875 
L 54.390625 8.296875 
L 54.390625 0 
L 12.40625 0 
z
" id="DejaVuSans-49"/>
      </defs>
      <g transform="translate(205.904989 361.532094)scale(0.506 -0.506)">
       <use xlink:href="#DejaVuSans-49"/>
       <use x="63.623047" xlink:href="#DejaVuSans-48"/>
       <use x="127.246094" xlink:href="#DejaVuSans-48"/>
      </g>
     </g>
    </g>
    <g id="text_3">
     <!-- Degrees -->
     <defs>
      <path d="M 19.671875 64.796875 
L 19.671875 8.109375 
L 31.59375 8.109375 
Q 46.6875 8.109375 53.6875 14.9375 
Q 60.6875 21.78125 60.6875 36.53125 
Q 60.6875 51.171875 53.6875 57.984375 
Q 46.6875 64.796875 31.59375 64.796875 
z
M 9.8125 72.90625 
L 30.078125 72.90625 
Q 51.265625 72.90625 61.171875 64.09375 
Q 71.09375 55.28125 71.09375 36.53125 
Q 71.09375 17.671875 61.125 8.828125 
Q 51.171875 0 30.078125 0 
L 9.8125 0 
z
" id="DejaVuSans-68"/>
      <path d="M 56.203125 29.59375 
L 56.203125 25.203125 
L 14.890625 25.203125 
Q 15.484375 15.921875 20.484375 11.0625 
Q 25.484375 6.203125 34.421875 6.203125 
Q 39.59375 6.203125 44.453125 7.46875 
Q 49.3125 8.734375 54.109375 11.28125 
L 54.109375 2.78125 
Q 49.265625 0.734375 44.1875 -0.34375 
Q 39.109375 -1.421875 33.890625 -1.421875 
Q 20.796875 -1.421875 13.15625 6.1875 
Q 5.515625 13.8125 5.515625 26.8125 
Q 5.515625 40.234375 12.765625 48.109375 
Q 20.015625 56 32.328125 56 
Q 43.359375 56 49.78125 48.890625 
Q 56.203125 41.796875 56.203125 29.59375 
z
M 47.21875 32.234375 
Q 47.125 39.59375 43.09375 43.984375 
Q 39.0625 48.390625 32.421875 48.390625 
Q 24.90625 48.390625 20.390625 44.140625 
Q 15.875 39.890625 15.1875 32.171875 
z
" id="DejaVuSans-101"/>
      <path d="M 45.40625 27.984375 
Q 45.40625 37.75 41.375 43.109375 
Q 37.359375 48.484375 30.078125 48.484375 
Q 22.859375 48.484375 18.828125 43.109375 
Q 14.796875 37.75 14.796875 27.984375 
Q 14.796875 18.265625 18.828125 12.890625 
Q 22.859375 7.515625 30.078125 7.515625 
Q 37.359375 7.515625 41.375 12.890625 
Q 45.40625 18.265625 45.40625 27.984375 
z
M 54.390625 6.78125 
Q 54.390625 -7.171875 48.1875 -13.984375 
Q 42 -20.796875 29.203125 -20.796875 
Q 24.46875 -20.796875 20.265625 -20.09375 
Q 16.0625 -19.390625 12.109375 -17.921875 
L 12.109375 -9.1875 
Q 16.0625 -11.328125 19.921875 -12.34375 
Q 23.78125 -13.375 27.78125 -13.375 
Q 36.625 -13.375 41.015625 -8.765625 
Q 45.40625 -4.15625 45.40625 5.171875 
L 45.40625 9.625 
Q 42.625 4.78125 38.28125 2.390625 
Q 33.9375 0 27.875 0 
Q 17.828125 0 11.671875 7.65625 
Q 5.515625 15.328125 5.515625 27.984375 
Q 5.515625 40.671875 11.671875 48.328125 
Q 17.828125 56 27.875 56 
Q 33.9375 56 38.28125 53.609375 
Q 42.625 51.21875 45.40625 46.390625 
L 45.40625 54.6875 
L 54.390625 54.6875 
z
" id="DejaVuSans-103"/>
      <path d="M 41.109375 46.296875 
Q 39.59375 47.171875 37.8125 47.578125 
Q 36.03125 48 33.890625 48 
Q 26.265625 48 22.1875 43.046875 
Q 18.109375 38.09375 18.109375 28.8125 
L 18.109375 0 
L 9.078125 0 
L 9.078125 54.6875 
L 18.109375 54.6875 
L 18.109375 46.1875 
Q 20.953125 51.171875 25.484375 53.578125 
Q 30.03125 56 36.53125 56 
Q 37.453125 56 38.578125 55.875 
Q 39.703125 55.765625 41.0625 55.515625 
z
" id="DejaVuSans-114"/>
      <path d="M 44.28125 53.078125 
L 44.28125 44.578125 
Q 40.484375 46.53125 36.375 47.5 
Q 32.28125 48.484375 27.875 48.484375 
Q 21.1875 48.484375 17.84375 46.4375 
Q 14.5 44.390625 14.5 40.28125 
Q 14.5 37.15625 16.890625 35.375 
Q 19.28125 33.59375 26.515625 31.984375 
L 29.59375 31.296875 
Q 39.15625 29.25 43.1875 25.515625 
Q 47.21875 21.78125 47.21875 15.09375 
Q 47.21875 7.46875 41.1875 3.015625 
Q 35.15625 -1.421875 24.609375 -1.421875 
Q 20.21875 -1.421875 15.453125 -0.5625 
Q 10.6875 0.296875 5.421875 2 
L 5.421875 11.28125 
Q 10.40625 8.6875 15.234375 7.390625 
Q 20.0625 6.109375 24.8125 6.109375 
Q 31.15625 6.109375 34.5625 8.28125 
Q 37.984375 10.453125 37.984375 14.40625 
Q 37.984375 18.0625 35.515625 20.015625 
Q 33.0625 21.96875 24.703125 23.78125 
L 21.578125 24.515625 
Q 13.234375 26.265625 9.515625 29.90625 
Q 5.8125 33.546875 5.8125 39.890625 
Q 5.8125 47.609375 11.28125 51.796875 
Q 16.75 56 26.8125 56 
Q 31.78125 56 36.171875 55.265625 
Q 40.578125 54.546875 44.28125 53.078125 
z
" id="DejaVuSans-115"/>
     </defs>
     <g transform="translate(120.723 417.998687)scale(0.552 -0.552)">
      <use xlink:href="#DejaVuSans-68"/>
      <use x="77.001953" xlink:href="#DejaVuSans-101"/>
      <use x="138.525391" xlink:href="#DejaVuSans-103"/>
      <use x="202.001953" xlink:href="#DejaVuSans-114"/>
      <use x="243.083984" xlink:href="#DejaVuSans-101"/>
      <use x="304.607422" xlink:href="#DejaVuSans-101"/>
      <use x="366.130859" xlink:href="#DejaVuSans-115"/>
     </g>
    </g>
   </g>
   <g id="matplotlib.axis_2">
    <g id="ytick_1">
     <g id="line2d_3">
      <defs>
       <path d="M 0 0 
L -12 0 
" id="m93f445992d" style="stroke:#000000;stroke-width:2.5;"/>
      </defs>
      <g>
       <use style="stroke:#000000;stroke-width:2.5;" x="57.6" xlink:href="#m93f445992d" y="285.408"/>
      </g>
     </g>
     <g id="text_4">
      <!-- 0 -->
      <g transform="translate(9.90575 304.632047)scale(0.506 -0.506)">
       <use xlink:href="#DejaVuSans-48"/>
      </g>
     </g>
    </g>
    <g id="ytick_2">
     <g id="line2d_4">
      <g>
       <use style="stroke:#000000;stroke-width:2.5;" x="57.6" xlink:href="#m93f445992d" y="83.827486"/>
      </g>
     </g>
     <g id="text_5">
      <!-- 5 -->
      <defs>
       <path d="M 10.796875 72.90625 
L 49.515625 72.90625 
L 49.515625 64.59375 
L 19.828125 64.59375 
L 19.828125 46.734375 
Q 21.96875 47.46875 24.109375 47.828125 
Q 26.265625 48.1875 28.421875 48.1875 
Q 40.625 48.1875 47.75 41.5 
Q 54.890625 34.8125 54.890625 23.390625 
Q 54.890625 11.625 47.5625 5.09375 
Q 40.234375 -1.421875 26.90625 -1.421875 
Q 22.3125 -1.421875 17.546875 -0.640625 
Q 12.796875 0.140625 7.71875 1.703125 
L 7.71875 11.625 
Q 12.109375 9.234375 16.796875 8.0625 
Q 21.484375 6.890625 26.703125 6.890625 
Q 35.15625 6.890625 40.078125 11.328125 
Q 45.015625 15.765625 45.015625 23.390625 
Q 45.015625 31 40.078125 35.4375 
Q 35.15625 39.890625 26.703125 39.890625 
Q 22.75 39.890625 18.8125 39.015625 
Q 14.890625 38.140625 10.796875 36.28125 
z
" id="DejaVuSans-53"/>
      </defs>
      <g transform="translate(9.90575 103.051533)scale(0.506 -0.506)">
       <use xlink:href="#DejaVuSans-53"/>
      </g>
     </g>
    </g>
    <g id="text_6">
     <!-- Activation -->
     <defs>
      <path d="M 34.1875 63.1875 
L 20.796875 26.90625 
L 47.609375 26.90625 
z
M 28.609375 72.90625 
L 39.796875 72.90625 
L 67.578125 0 
L 57.328125 0 
L 50.6875 18.703125 
L 17.828125 18.703125 
L 11.1875 0 
L 0.78125 0 
z
" id="DejaVuSans-65"/>
      <path d="M 48.78125 52.59375 
L 48.78125 44.1875 
Q 44.96875 46.296875 41.140625 47.34375 
Q 37.3125 48.390625 33.40625 48.390625 
Q 24.65625 48.390625 19.8125 42.84375 
Q 14.984375 37.3125 14.984375 27.296875 
Q 14.984375 17.28125 19.8125 11.734375 
Q 24.65625 6.203125 33.40625 6.203125 
Q 37.3125 6.203125 41.140625 7.25 
Q 44.96875 8.296875 48.78125 10.40625 
L 48.78125 2.09375 
Q 45.015625 0.34375 40.984375 -0.53125 
Q 36.96875 -1.421875 32.421875 -1.421875 
Q 20.0625 -1.421875 12.78125 6.34375 
Q 5.515625 14.109375 5.515625 27.296875 
Q 5.515625 40.671875 12.859375 48.328125 
Q 20.21875 56 33.015625 56 
Q 37.15625 56 41.109375 55.140625 
Q 45.0625 54.296875 48.78125 52.59375 
z
" id="DejaVuSans-99"/>
      <path d="M 18.3125 70.21875 
L 18.3125 54.6875 
L 36.8125 54.6875 
L 36.8125 47.703125 
L 18.3125 47.703125 
L 18.3125 18.015625 
Q 18.3125 11.328125 20.140625 9.421875 
Q 21.96875 7.515625 27.59375 7.515625 
L 36.8125 7.515625 
L 36.8125 0 
L 27.59375 0 
Q 17.1875 0 13.234375 3.875 
Q 9.28125 7.765625 9.28125 18.015625 
L 9.28125 47.703125 
L 2.6875 47.703125 
L 2.6875 54.6875 
L 9.28125 54.6875 
L 9.28125 70.21875 
z
" id="DejaVuSans-116"/>
      <path d="M 9.421875 54.6875 
L 18.40625 54.6875 
L 18.40625 0 
L 9.421875 0 
z
M 9.421875 75.984375 
L 18.40625 75.984375 
L 18.40625 64.59375 
L 9.421875 64.59375 
z
" id="DejaVuSans-105"/>
      <path d="M 2.984375 54.6875 
L 12.5 54.6875 
L 29.59375 8.796875 
L 46.6875 54.6875 
L 56.203125 54.6875 
L 35.6875 0 
L 23.484375 0 
z
" id="DejaVuSans-118"/>
      <path d="M 34.28125 27.484375 
Q 23.390625 27.484375 19.1875 25 
Q 14.984375 22.515625 14.984375 16.5 
Q 14.984375 11.71875 18.140625 8.90625 
Q 21.296875 6.109375 26.703125 6.109375 
Q 34.1875 6.109375 38.703125 11.40625 
Q 43.21875 16.703125 43.21875 25.484375 
L 43.21875 27.484375 
z
M 52.203125 31.203125 
L 52.203125 0 
L 43.21875 0 
L 43.21875 8.296875 
Q 40.140625 3.328125 35.546875 0.953125 
Q 30.953125 -1.421875 24.3125 -1.421875 
Q 15.921875 -1.421875 10.953125 3.296875 
Q 6 8.015625 6 15.921875 
Q 6 25.140625 12.171875 29.828125 
Q 18.359375 34.515625 30.609375 34.515625 
L 43.21875 34.515625 
L 43.21875 35.40625 
Q 43.21875 41.609375 39.140625 45 
Q 35.0625 48.390625 27.6875 48.390625 
Q 23 48.390625 18.546875 47.265625 
Q 14.109375 46.140625 10.015625 43.890625 
L 10.015625 52.203125 
Q 14.9375 54.109375 19.578125 55.046875 
Q 24.21875 56 28.609375 56 
Q 40.484375 56 46.34375 49.84375 
Q 52.203125 43.703125 52.203125 31.203125 
z
" id="DejaVuSans-97"/>
      <path d="M 30.609375 48.390625 
Q 23.390625 48.390625 19.1875 42.75 
Q 14.984375 37.109375 14.984375 27.296875 
Q 14.984375 17.484375 19.15625 11.84375 
Q 23.34375 6.203125 30.609375 6.203125 
Q 37.796875 6.203125 41.984375 11.859375 
Q 46.1875 17.53125 46.1875 27.296875 
Q 46.1875 37.015625 41.984375 42.703125 
Q 37.796875 48.390625 30.609375 48.390625 
z
M 30.609375 56 
Q 42.328125 56 49.015625 48.375 
Q 55.71875 40.765625 55.71875 27.296875 
Q 55.71875 13.875 49.015625 6.21875 
Q 42.328125 -1.421875 30.609375 -1.421875 
Q 18.84375 -1.421875 12.171875 6.21875 
Q 5.515625 13.875 5.515625 27.296875 
Q 5.515625 40.765625 12.171875 48.375 
Q 18.84375 56 30.609375 56 
z
" id="DejaVuSans-111"/>
      <path d="M 54.890625 33.015625 
L 54.890625 0 
L 45.90625 0 
L 45.90625 32.71875 
Q 45.90625 40.484375 42.875 44.328125 
Q 39.84375 48.1875 33.796875 48.1875 
Q 26.515625 48.1875 22.3125 43.546875 
Q 18.109375 38.921875 18.109375 30.90625 
L 18.109375 0 
L 9.078125 0 
L 9.078125 54.6875 
L 18.109375 54.6875 
L 18.109375 46.1875 
Q 21.34375 51.125 25.703125 53.5625 
Q 30.078125 56 35.796875 56 
Q 45.21875 56 50.046875 50.171875 
Q 54.890625 44.34375 54.890625 33.015625 
z
" id="DejaVuSans-110"/>
     </defs>
     <g transform="translate(-5.574125 313.1835)rotate(-90)scale(0.552 -0.552)">
      <use xlink:href="#DejaVuSans-65"/>
      <use x="68.392578" xlink:href="#DejaVuSans-99"/>
      <use x="123.373047" xlink:href="#DejaVuSans-116"/>
      <use x="162.582031" xlink:href="#DejaVuSans-105"/>
      <use x="190.365234" xlink:href="#DejaVuSans-118"/>
      <use x="249.544922" xlink:href="#DejaVuSans-97"/>
      <use x="310.824219" xlink:href="#DejaVuSans-116"/>
      <use x="350.033203" xlink:href="#DejaVuSans-105"/>
      <use x="377.816406" xlink:href="#DejaVuSans-111"/>
      <use x="438.998047" xlink:href="#DejaVuSans-110"/>
     </g>
    </g>
   </g>
   <g id="line2d_5">
    <path clip-path="url(#p2b6b5e7b47)" d="M 73.832727 275.148905 
L 90.065455 257.681154 
L 106.298182 251.625302 
L 122.530909 243.804351 
L 138.763636 234.655551 
L 154.996364 233.36341 
L 171.229091 235.244807 
L 187.461818 221.591557 
L 203.694545 217.053455 
L 219.927273 217.891223 
L 236.16 223.899357 
L 252.392727 223.703203 
L 268.625455 224.638206 
L 284.858182 247.249208 
L 301.090909 243.701001 
L 317.323636 261.2695 
L 333.556364 265.716684 
L 349.789091 270.351165 
L 366.021818 267.770871 
L 382.254545 271.02841 
L 398.487273 275.148905 
" style="fill:none;stroke:#0e4db3;stroke-linecap:square;stroke-width:3;"/>
   </g>
   <g id="line2d_6">
    <path clip-path="url(#p2b6b5e7b47)" d="M 73.832727 277.245062 
L 90.065455 262.939366 
L 106.298182 257.565684 
L 122.530909 251.783861 
L 138.763636 244.720485 
L 154.996364 243.95936 
L 171.229091 244.81837 
L 187.461818 232.709508 
L 203.694545 230.458054 
L 219.927273 229.815917 
L 236.16 232.908824 
L 252.392727 234.886189 
L 268.625455 235.307651 
L 284.858182 254.837299 
L 301.090909 251.316934 
L 317.323636 265.501954 
L 333.556364 268.916449 
L 349.789091 272.012353 
L 366.021818 270.68814 
L 382.254545 273.125236 
L 398.487273 277.245062 
" style="fill:none;stroke:#d44e4e;stroke-linecap:square;stroke-width:3;"/>
   </g>
   <g id="line2d_7">
    <path clip-path="url(#p2b6b5e7b47)" d="M 73.832727 215.667759 
L 90.065455 215.137781 
L 106.298182 219.838804 
L 122.530909 228.874656 
L 138.763636 230.484146 
L 154.996364 232.457262 
L 171.229091 232.331718 
L 187.461818 222.163377 
L 203.694545 218.79503 
L 219.927273 230.808007 
L 236.16 230.800019 
L 252.392727 229.001267 
L 268.625455 219.003204 
L 284.858182 226.229808 
L 301.090909 217.189515 
L 317.323636 220.335433 
L 333.556364 219.983202 
L 349.789091 208.350432 
L 366.021818 211.655161 
L 382.254545 208.527717 
L 398.487273 215.667759 
" style="fill:none;stroke:#0e4db3;stroke-linecap:square;stroke-width:3;"/>
   </g>
   <g id="line2d_8">
    <path clip-path="url(#p2b6b5e7b47)" d="M 73.832727 230.203415 
L 90.065455 223.866873 
L 106.298182 231.714554 
L 122.530909 240.520633 
L 138.763636 241.580152 
L 154.996364 243.341657 
L 171.229091 243.339447 
L 187.461818 235.491555 
L 203.694545 233.106747 
L 219.927273 242.299119 
L 236.16 242.266341 
L 252.392727 240.045449 
L 268.625455 232.717962 
L 284.858182 237.308579 
L 301.090909 231.523042 
L 317.323636 233.910411 
L 333.556364 233.526061 
L 349.789091 224.521092 
L 366.021818 226.179325 
L 382.254545 224.481269 
L 398.487273 230.203415 
" style="fill:none;stroke:#d44e4e;stroke-linecap:square;stroke-width:3;"/>
   </g>
   <g id="line2d_9">
    <path clip-path="url(#p2b6b5e7b47)" d="M 73.832727 214.718218 
L 90.065455 211.303382 
L 106.298182 211.276314 
L 122.530909 211.295058 
L 138.763636 203.821255 
L 154.996364 204.191311 
L 171.229091 203.522904 
L 187.461818 208.530577 
L 203.694545 202.475281 
L 219.927273 205.207825 
L 236.16 209.798227 
L 252.392727 209.877743 
L 268.625455 210.702077 
L 284.858182 215.697817 
L 301.090909 216.613937 
L 317.323636 217.010244 
L 333.556364 216.825869 
L 349.789091 217.406244 
L 366.021818 215.815214 
L 382.254545 214.976245 
L 398.487273 214.718218 
" style="fill:none;stroke:#0e4db3;stroke-linecap:square;stroke-width:3;"/>
   </g>
   <g id="line2d_10">
    <path clip-path="url(#p2b6b5e7b47)" d="M 73.832727 227.090553 
L 90.065455 224.631809 
L 106.298182 224.425755 
L 122.530909 224.202312 
L 138.763636 219.555146 
L 154.996364 219.478547 
L 171.229091 218.374428 
L 187.461818 222.168399 
L 203.694545 216.758306 
L 219.927273 219.359241 
L 236.16 223.098505 
L 252.392727 223.011972 
L 268.625455 223.759126 
L 284.858182 226.423295 
L 301.090909 227.097882 
L 317.323636 228.010283 
L 333.556364 228.473288 
L 349.789091 228.9126 
L 366.021818 227.606473 
L 382.254545 227.095494 
L 398.487273 227.090553 
" style="fill:none;stroke:#d44e4e;stroke-linecap:square;stroke-width:3;"/>
   </g>
   <g id="line2d_11">
    <path clip-path="url(#p2b6b5e7b47)" d="M 73.832727 205.391349 
L 90.065455 205.296189 
L 106.298182 205.610332 
L 122.530909 213.109689 
L 138.763636 213.875005 
L 154.996364 215.788728 
L 171.229091 214.116562 
L 187.461818 212.114269 
L 203.694545 206.833261 
L 219.927273 208.699231 
L 236.16 207.945767 
L 252.392727 204.589675 
L 268.625455 203.410433 
L 284.858182 203.475199 
L 301.090909 199.750287 
L 317.323636 199.172753 
L 333.556364 190.249737 
L 349.789091 198.451364 
L 366.021818 198.015743 
L 382.254545 201.940828 
L 398.487273 205.391349 
" style="fill:none;stroke:#0e4db3;stroke-linecap:square;stroke-width:3;"/>
   </g>
   <g id="line2d_12">
    <path clip-path="url(#p2b6b5e7b47)" d="M 73.832727 222.246305 
L 90.065455 222.243181 
L 106.298182 222.459204 
L 122.530909 228.043935 
L 138.763636 228.409166 
L 154.996364 229.33338 
L 171.229091 228.734209 
L 187.461818 226.19172 
L 203.694545 223.621904 
L 219.927273 224.626657 
L 236.16 224.77379 
L 252.392727 221.116181 
L 268.625455 219.465676 
L 284.858182 219.00566 
L 301.090909 216.933044 
L 317.323636 216.931574 
L 333.556364 211.001216 
L 349.789091 216.45626 
L 366.021818 215.79685 
L 382.254545 219.253451 
L 398.487273 222.246305 
" style="fill:none;stroke:#d44e4e;stroke-linecap:square;stroke-width:3;"/>
   </g>
   <g id="line2d_13">
    <path clip-path="url(#p2b6b5e7b47)" d="M 73.832727 259.735703 
L 90.065455 259.343215 
L 106.298182 259.696094 
L 122.530909 258.84221 
L 138.763636 248.973459 
L 154.996364 247.694361 
L 171.229091 239.719383 
L 187.461818 242.176136 
L 203.694545 230.089377 
L 219.927273 220.591783 
L 236.16 220.741472 
L 252.392727 210.59013 
L 268.625455 201.645842 
L 284.858182 206.422748 
L 301.090909 194.043088 
L 317.323636 201.237059 
L 333.556364 203.277459 
L 349.789091 236.494184 
L 366.021818 239.564455 
L 382.254545 239.225301 
L 398.487273 259.735703 
" style="fill:none;stroke:#0e4db3;stroke-linecap:square;stroke-width:3;"/>
   </g>
   <g id="line2d_14">
    <path clip-path="url(#p2b6b5e7b47)" d="M 73.832727 261.935545 
L 90.065455 261.361986 
L 106.298182 261.671601 
L 122.530909 261.299067 
L 138.763636 253.570711 
L 154.996364 252.602606 
L 171.229091 245.620871 
L 187.461818 247.50209 
L 203.694545 238.01851 
L 219.927273 231.074498 
L 236.16 231.093693 
L 252.392727 222.614199 
L 268.625455 215.532459 
L 284.858182 220.153144 
L 301.090909 209.919786 
L 317.323636 214.982224 
L 333.556364 216.964409 
L 349.789091 242.925001 
L 366.021818 245.489312 
L 382.254545 245.46378 
L 398.487273 261.935545 
" style="fill:none;stroke:#d44e4e;stroke-linecap:square;stroke-width:3;"/>
   </g>
   <g id="line2d_15">
    <path clip-path="url(#p2b6b5e7b47)" d="M 73.832727 285.408 
L 90.065455 285.408 
L 106.298182 285.408 
L 122.530909 285.408 
L 138.763636 285.408 
L 154.996364 285.408 
L 171.229091 285.408 
L 187.461818 285.408 
L 203.694545 285.408 
L 219.927273 285.408 
L 236.16 285.408 
L 252.392727 285.408 
L 268.625455 285.408 
L 284.858182 285.408 
L 301.090909 285.408 
L 317.323636 285.408 
L 333.556364 285.408 
L 349.789091 285.408 
L 366.021818 285.408 
L 382.254545 285.408 
L 398.487273 285.408 
" style="fill:none;stroke:#0e4db3;stroke-linecap:square;stroke-width:3;"/>
   </g>
   <g id="line2d_16">
    <path clip-path="url(#p2b6b5e7b47)" d="M 73.832727 285.408 
L 90.065455 285.408 
L 106.298182 285.408 
L 122.530909 285.408 
L 138.763636 285.408 
L 154.996364 285.408 
L 171.229091 285.408 
L 187.461818 285.408 
L 203.694545 285.408 
L 219.927273 285.408 
L 236.16 285.408 
L 252.392727 285.408 
L 268.625455 285.408 
L 284.858182 285.408 
L 301.090909 285.408 
L 317.323636 285.408 
L 333.556364 285.408 
L 349.789091 285.408 
L 366.021818 285.408 
L 382.254545 285.408 
L 398.487273 285.408 
" style="fill:none;stroke:#d44e4e;stroke-linecap:square;stroke-width:3;"/>
   </g>
   <g id="line2d_17">
    <path clip-path="url(#p2b6b5e7b47)" d="M 73.832727 285.408 
L 90.065455 285.047599 
L 106.298182 285.264432 
L 122.530909 285.13257 
L 138.763636 285.287182 
L 154.996364 285.408 
L 171.229091 285.408 
L 187.461818 285.408 
L 203.694545 285.408 
L 219.927273 285.408 
L 236.16 285.408 
L 252.392727 285.408 
L 268.625455 284.569898 
L 284.858182 285.408 
L 301.090909 285.408 
L 317.323636 285.408 
L 333.556364 285.408 
L 349.789091 285.408 
L 366.021818 285.408 
L 382.254545 285.408 
L 398.487273 285.408 
" style="fill:none;stroke:#0e4db3;stroke-linecap:square;stroke-width:3;"/>
   </g>
   <g id="line2d_18">
    <path clip-path="url(#p2b6b5e7b47)" d="M 73.832727 285.408 
L 90.065455 285.408 
L 106.298182 285.408 
L 122.530909 285.408 
L 138.763636 285.408 
L 154.996364 285.408 
L 171.229091 285.408 
L 187.461818 285.408 
L 203.694545 285.408 
L 219.927273 285.408 
L 236.16 285.408 
L 252.392727 285.408 
L 268.625455 285.408 
L 284.858182 285.408 
L 301.090909 285.408 
L 317.323636 285.408 
L 333.556364 285.408 
L 349.789091 285.408 
L 366.021818 285.408 
L 382.254545 285.408 
L 398.487273 285.408 
" style="fill:none;stroke:#d44e4e;stroke-linecap:square;stroke-width:3;"/>
   </g>
   <g id="line2d_19">
    <path clip-path="url(#p2b6b5e7b47)" d="M 73.832727 264.706946 
L 90.065455 258.177182 
L 106.298182 248.60989 
L 122.530909 247.688459 
L 138.763636 237.801666 
L 154.996364 235.795874 
L 171.229091 229.165067 
L 187.461818 229.995029 
L 203.694545 220.45977 
L 219.927273 220.944855 
L 236.16 243.580071 
L 252.392727 222.092185 
L 268.625455 232.724109 
L 284.858182 245.892687 
L 301.090909 243.314306 
L 317.323636 252.586448 
L 333.556364 253.730501 
L 349.789091 255.61017 
L 366.021818 256.246508 
L 382.254545 262.483892 
L 398.487273 264.706946 
" style="fill:none;stroke:#0e4db3;stroke-linecap:square;stroke-width:3;"/>
   </g>
   <g id="line2d_20">
    <path clip-path="url(#p2b6b5e7b47)" d="M 73.832727 265.103109 
L 90.065455 260.10643 
L 106.298182 252.355013 
L 122.530909 250.823179 
L 138.763636 243.464327 
L 154.996364 242.126682 
L 171.229091 236.68299 
L 187.461818 236.914161 
L 203.694545 229.767717 
L 219.927273 229.799932 
L 236.16 248.052878 
L 252.392727 230.858365 
L 268.625455 239.265186 
L 284.858182 250.339803 
L 301.090909 247.796185 
L 317.323636 255.185171 
L 333.556364 255.99731 
L 349.789091 256.755681 
L 366.021818 257.4879 
L 382.254545 262.929903 
L 398.487273 265.103109 
" style="fill:none;stroke:#d44e4e;stroke-linecap:square;stroke-width:3;"/>
   </g>
   <g id="line2d_21">
    <path clip-path="url(#p2b6b5e7b47)" d="M 73.832727 242.673635 
L 90.065455 239.714807 
L 106.298182 235.263589 
L 122.530909 233.465265 
L 138.763636 235.658286 
L 154.996364 235.778226 
L 171.229091 235.990385 
L 187.461818 240.630707 
L 203.694545 239.909015 
L 219.927273 242.244334 
L 236.16 244.29786 
L 252.392727 241.785092 
L 268.625455 241.250611 
L 284.858182 241.3049 
L 301.090909 241.40674 
L 317.323636 241.809699 
L 333.556364 232.447112 
L 349.789091 237.612803 
L 366.021818 235.999074 
L 382.254545 242.827155 
L 398.487273 242.673635 
" style="fill:none;stroke:#0e4db3;stroke-linecap:square;stroke-width:3;"/>
   </g>
   <g id="line2d_22">
    <path clip-path="url(#p2b6b5e7b47)" d="M 73.832727 251.798135 
L 90.065455 249.440098 
L 106.298182 246.002342 
L 122.530909 243.945701 
L 138.763636 247.157443 
L 154.996364 247.319965 
L 171.229091 247.249969 
L 187.461818 250.099897 
L 203.694545 248.639582 
L 219.927273 252.045998 
L 236.16 250.479263 
L 252.392727 250.735257 
L 268.625455 250.654362 
L 284.858182 251.209708 
L 301.090909 251.453849 
L 317.323636 251.369231 
L 333.556364 244.100677 
L 349.789091 245.686089 
L 366.021818 245.344821 
L 382.254545 251.799284 
L 398.487273 251.798135 
" style="fill:none;stroke:#d44e4e;stroke-linecap:square;stroke-width:3;"/>
   </g>
   <g id="line2d_23">
    <path clip-path="url(#p2b6b5e7b47)" d="M 73.832727 283.855135 
L 90.065455 267.481126 
L 106.298182 253.677422 
L 122.530909 254.557911 
L 138.763636 237.815964 
L 154.996364 236.555841 
L 171.229091 236.799532 
L 187.461818 238.303202 
L 203.694545 234.103494 
L 219.927273 234.096059 
L 236.16 240.085171 
L 252.392727 236.139209 
L 268.625455 241.263568 
L 284.858182 253.56226 
L 301.090909 248.612538 
L 317.323636 266.627888 
L 333.556364 266.91354 
L 349.789091 271.344404 
L 366.021818 280.012115 
L 382.254545 272.062682 
L 398.487273 283.855135 
" style="fill:none;stroke:#0e4db3;stroke-linecap:square;stroke-width:3;"/>
   </g>
   <g id="line2d_24">
    <path clip-path="url(#p2b6b5e7b47)" d="M 73.832727 285.005075 
L 90.065455 272.525976 
L 106.298182 261.401222 
L 122.530909 258.270556 
L 138.763636 249.30437 
L 154.996364 248.211324 
L 171.229091 248.248465 
L 187.461818 248.194042 
L 203.694545 245.296164 
L 219.927273 245.32587 
L 236.16 250.429124 
L 252.392727 246.822163 
L 268.625455 250.027816 
L 284.858182 261.571818 
L 301.090909 256.721654 
L 317.323636 270.52187 
L 333.556364 272.030763 
L 349.789091 275.974992 
L 366.021818 281.858632 
L 382.254545 275.993023 
L 398.487273 285.005075 
" style="fill:none;stroke:#d44e4e;stroke-linecap:square;stroke-width:3;"/>
   </g>
   <g id="line2d_25">
    <path clip-path="url(#p2b6b5e7b47)" d="M 73.832727 221.535447 
L 90.065455 221.150419 
L 106.298182 217.228064 
L 122.530909 223.470388 
L 138.763636 227.203913 
L 154.996364 240.39137 
L 171.229091 242.712848 
L 187.461818 240.585208 
L 203.694545 220.166707 
L 219.927273 206.19024 
L 236.16 207.274476 
L 252.392727 205.934933 
L 268.625455 220.09476 
L 284.858182 228.778184 
L 301.090909 216.95806 
L 317.323636 212.719111 
L 333.556364 211.635538 
L 349.789091 209.642011 
L 366.021818 204.692448 
L 382.254545 209.309172 
L 398.487273 221.535447 
" style="fill:none;stroke:#0e4db3;stroke-linecap:square;stroke-width:3;"/>
   </g>
   <g id="line2d_26">
    <path clip-path="url(#p2b6b5e7b47)" d="M 73.832727 230.643371 
L 90.065455 230.63286 
L 106.298182 227.461297 
L 122.530909 231.578134 
L 138.763636 235.791068 
L 154.996364 245.851259 
L 171.229091 247.600552 
L 187.461818 244.930943 
L 203.694545 228.787926 
L 219.927273 218.665603 
L 236.16 219.406086 
L 252.392727 218.369819 
L 268.625455 229.427276 
L 284.858182 236.431527 
L 301.090909 226.830334 
L 317.323636 223.591025 
L 333.556364 222.864729 
L 349.789091 221.347141 
L 366.021818 216.990462 
L 382.254545 220.920142 
L 398.487273 230.643371 
" style="fill:none;stroke:#d44e4e;stroke-linecap:square;stroke-width:3;"/>
   </g>
   <g id="line2d_27">
    <path clip-path="url(#p2b6b5e7b47)" d="M 73.832727 219.490274 
L 90.065455 219.062645 
L 106.298182 225.954815 
L 122.530909 227.880947 
L 138.763636 241.566637 
L 154.996364 250.946406 
L 171.229091 241.365485 
L 187.461818 229.075722 
L 203.694545 224.002337 
L 219.927273 236.882619 
L 236.16 235.343663 
L 252.392727 235.395876 
L 268.625455 242.750623 
L 284.858182 248.266483 
L 301.090909 239.398506 
L 317.323636 237.778376 
L 333.556364 229.349797 
L 349.789091 229.000998 
L 366.021818 224.152482 
L 382.254545 219.759687 
L 398.487273 219.490274 
" style="fill:none;stroke:#0e4db3;stroke-linecap:square;stroke-width:3;"/>
   </g>
   <g id="line2d_28">
    <path clip-path="url(#p2b6b5e7b47)" d="M 73.832727 229.863411 
L 90.065455 228.054859 
L 106.298182 235.094935 
L 122.530909 232.619625 
L 138.763636 247.406589 
L 154.996364 254.683899 
L 171.229091 246.748169 
L 187.461818 236.563699 
L 203.694545 232.650571 
L 219.927273 243.429493 
L 236.16 242.203742 
L 252.392727 241.97323 
L 268.625455 248.180839 
L 284.858182 252.081539 
L 301.090909 245.873467 
L 317.323636 243.626911 
L 333.556364 237.679962 
L 349.789091 236.226155 
L 366.021818 232.863729 
L 382.254545 228.02709 
L 398.487273 229.863411 
" style="fill:none;stroke:#d44e4e;stroke-linecap:square;stroke-width:3;"/>
   </g>
   <g id="line2d_29">
    <path clip-path="url(#p2b6b5e7b47)" d="M 73.832727 188.070999 
L 90.065455 187.932286 
L 106.298182 185.75028 
L 122.530909 187.065678 
L 138.763636 186.929695 
L 154.996364 186.999845 
L 171.229091 185.679401 
L 187.461818 186.664219 
L 203.694545 182.139261 
L 219.927273 184.161091 
L 236.16 184.553207 
L 252.392727 184.468352 
L 268.625455 186.105438 
L 284.858182 187.35704 
L 301.090909 186.286645 
L 317.323636 186.810303 
L 333.556364 186.438968 
L 349.789091 187.536239 
L 366.021818 185.955768 
L 382.254545 186.938702 
L 398.487273 188.070999 
" style="fill:none;stroke:#0e4db3;stroke-linecap:square;stroke-width:3;"/>
   </g>
   <g id="line2d_30">
    <path clip-path="url(#p2b6b5e7b47)" d="M 73.832727 203.723086 
L 90.065455 203.046942 
L 106.298182 201.635336 
L 122.530909 202.502867 
L 138.763636 202.481192 
L 154.996364 202.520294 
L 171.229091 201.496345 
L 187.461818 202.440023 
L 203.694545 198.73147 
L 219.927273 200.571574 
L 236.16 200.772409 
L 252.392727 200.729712 
L 268.625455 200.745476 
L 284.858182 202.335444 
L 301.090909 201.446285 
L 317.323636 202.14102 
L 333.556364 202.038708 
L 349.789091 202.999737 
L 366.021818 201.737628 
L 382.254545 202.70651 
L 398.487273 203.723086 
" style="fill:none;stroke:#d44e4e;stroke-linecap:square;stroke-width:3;"/>
   </g>
   <g id="line2d_31">
    <path clip-path="url(#p2b6b5e7b47)" d="M 73.832727 238.238974 
L 90.065455 229.634354 
L 106.298182 229.559673 
L 122.530909 234.797974 
L 138.763636 235.521304 
L 154.996364 233.47119 
L 171.229091 233.35585 
L 187.461818 233.061864 
L 203.694545 239.838318 
L 219.927273 239.658028 
L 236.16 241.224985 
L 252.392727 251.03285 
L 268.625455 261.507212 
L 284.858182 265.460896 
L 301.090909 265.569284 
L 317.323636 263.998736 
L 333.556364 262.293466 
L 349.789091 259.646955 
L 366.021818 248.776651 
L 382.254545 238.312848 
L 398.487273 238.238974 
" style="fill:none;stroke:#0e4db3;stroke-linecap:square;stroke-width:3;"/>
   </g>
   <g id="line2d_32">
    <path clip-path="url(#p2b6b5e7b47)" d="M 73.832727 244.893821 
L 90.065455 237.995792 
L 106.298182 238.266224 
L 122.530909 240.10181 
L 138.763636 242.852665 
L 154.996364 241.063117 
L 171.229091 240.852179 
L 187.461818 240.410152 
L 203.694545 245.848538 
L 219.927273 245.859912 
L 236.16 247.290244 
L 252.392727 255.044416 
L 268.625455 263.449764 
L 284.858182 266.360663 
L 301.090909 266.404423 
L 317.323636 265.05482 
L 333.556364 263.854809 
L 349.789091 261.599145 
L 366.021818 252.731219 
L 382.254545 244.170428 
L 398.487273 244.893821 
" style="fill:none;stroke:#d44e4e;stroke-linecap:square;stroke-width:3;"/>
   </g>
   <g id="line2d_33">
    <path clip-path="url(#p2b6b5e7b47)" d="M 73.832727 159.700084 
L 90.065455 159.682763 
L 106.298182 159.444055 
L 122.530909 162.231394 
L 138.763636 161.382808 
L 154.996364 161.835875 
L 171.229091 162.01937 
L 187.461818 162.89982 
L 203.694545 159.889596 
L 219.927273 161.77751 
L 236.16 161.887665 
L 252.392727 161.383241 
L 268.625455 161.566486 
L 284.858182 164.901618 
L 301.090909 162.254732 
L 317.323636 162.106975 
L 333.556364 161.366804 
L 349.789091 161.439885 
L 366.021818 159.510888 
L 382.254545 159.680436 
L 398.487273 159.700084 
" style="fill:none;stroke:#0e4db3;stroke-linecap:square;stroke-width:3;"/>
   </g>
   <g id="line2d_34">
    <path clip-path="url(#p2b6b5e7b47)" d="M 73.832727 183.208791 
L 90.065455 183.205801 
L 106.298182 182.950571 
L 122.530909 184.927445 
L 138.763636 183.938436 
L 154.996364 184.821328 
L 171.229091 184.566818 
L 187.461818 185.860723 
L 203.694545 183.08688 
L 219.927273 184.986252 
L 236.16 185.187799 
L 252.392727 184.535271 
L 268.625455 183.471403 
L 284.858182 185.233168 
L 301.090909 184.314635 
L 317.323636 184.318115 
L 333.556364 184.012392 
L 349.789091 184.356179 
L 366.021818 182.699791 
L 382.254545 183.059832 
L 398.487273 183.208791 
" style="fill:none;stroke:#d44e4e;stroke-linecap:square;stroke-width:3;"/>
   </g>
   <g id="line2d_35">
    <path clip-path="url(#p2b6b5e7b47)" d="M 73.832727 285.408 
L 90.065455 285.408 
L 106.298182 285.408 
L 122.530909 285.408 
L 138.763636 285.408 
L 154.996364 285.408 
L 171.229091 285.408 
L 187.461818 285.408 
L 203.694545 285.408 
L 219.927273 285.408 
L 236.16 285.408 
L 252.392727 285.408 
L 268.625455 283.58102 
L 284.858182 284.885277 
L 301.090909 285.408 
L 317.323636 285.408 
L 333.556364 285.408 
L 349.789091 285.408 
L 366.021818 285.408 
L 382.254545 285.408 
L 398.487273 285.408 
" style="fill:none;stroke:#0e4db3;stroke-linecap:square;stroke-width:3;"/>
   </g>
   <g id="line2d_36">
    <path clip-path="url(#p2b6b5e7b47)" d="M 73.832727 285.408 
L 90.065455 285.408 
L 106.298182 285.408 
L 122.530909 285.408 
L 138.763636 285.408 
L 154.996364 285.408 
L 171.229091 285.408 
L 187.461818 285.408 
L 203.694545 285.408 
L 219.927273 285.408 
L 236.16 285.408 
L 252.392727 285.408 
L 268.625455 285.408 
L 284.858182 285.408 
L 301.090909 285.408 
L 317.323636 285.408 
L 333.556364 285.408 
L 349.789091 285.408 
L 366.021818 285.408 
L 382.254545 285.408 
L 398.487273 285.408 
" style="fill:none;stroke:#d44e4e;stroke-linecap:square;stroke-width:3;"/>
   </g>
   <g id="line2d_37">
    <path clip-path="url(#p2b6b5e7b47)" d="M 73.832727 236.342649 
L 90.065455 200.371507 
L 106.298182 208.977208 
L 122.530909 218.709703 
L 138.763636 220.56447 
L 154.996364 246.400913 
L 171.229091 254.964061 
L 187.461818 254.767195 
L 203.694545 228.410709 
L 219.927273 204.256856 
L 236.16 205.609799 
L 252.392727 203.428927 
L 268.625455 217.080619 
L 284.858182 232.191593 
L 301.090909 217.855283 
L 317.323636 211.41086 
L 333.556364 209.947714 
L 349.789091 215.374768 
L 366.021818 195.798989 
L 382.254545 213.153439 
L 398.487273 236.342649 
" style="fill:none;stroke:#0e4db3;stroke-linecap:square;stroke-width:3;"/>
   </g>
   <g id="line2d_38">
    <path clip-path="url(#p2b6b5e7b47)" d="M 73.832727 246.754381 
L 90.065455 217.630528 
L 106.298182 222.959932 
L 122.530909 232.029139 
L 138.763636 234.504141 
L 154.996364 255.358628 
L 171.229091 262.221075 
L 187.461818 259.466579 
L 203.694545 238.771533 
L 219.927273 221.167582 
L 236.16 222.175613 
L 252.392727 220.424027 
L 268.625455 231.010813 
L 284.858182 243.231897 
L 301.090909 231.600698 
L 317.323636 226.496208 
L 333.556364 225.486946 
L 349.789091 228.592887 
L 366.021818 213.747741 
L 382.254545 227.633344 
L 398.487273 246.754381 
" style="fill:none;stroke:#d44e4e;stroke-linecap:square;stroke-width:3;"/>
   </g>
   <g id="line2d_39">
    <path clip-path="url(#p2b6b5e7b47)" d="M 73.832727 264.31898 
L 90.065455 247.539217 
L 106.298182 253.244781 
L 122.530909 252.7875 
L 138.763636 256.71902 
L 154.996364 258.621309 
L 171.229091 263.289516 
L 187.461818 267.952758 
L 203.694545 265.899184 
L 219.927273 257.260667 
L 236.16 257.946477 
L 252.392727 257.710985 
L 268.625455 260.644048 
L 284.858182 252.934546 
L 301.090909 259.132121 
L 317.323636 267.969464 
L 333.556364 268.043316 
L 349.789091 263.506264 
L 366.021818 260.374611 
L 382.254545 259.939028 
L 398.487273 264.31898 
" style="fill:none;stroke:#0e4db3;stroke-linecap:square;stroke-width:3;"/>
   </g>
   <g id="line2d_40">
    <path clip-path="url(#p2b6b5e7b47)" d="M 73.832727 269.676084 
L 90.065455 253.502521 
L 106.298182 258.198977 
L 122.530909 259.830061 
L 138.763636 263.415084 
L 154.996364 265.167741 
L 171.229091 268.272164 
L 187.461818 272.326008 
L 203.694545 270.228785 
L 219.927273 263.871544 
L 236.16 264.377962 
L 252.392727 264.193744 
L 268.625455 266.324453 
L 284.858182 260.166232 
L 301.090909 265.364472 
L 317.323636 271.929779 
L 333.556364 272.16721 
L 349.789091 268.576473 
L 366.021818 265.899602 
L 382.254545 265.729196 
L 398.487273 269.676084 
" style="fill:none;stroke:#d44e4e;stroke-linecap:square;stroke-width:3;"/>
   </g>
   <g id="line2d_41">
    <path clip-path="url(#p2b6b5e7b47)" d="M 73.832727 261.622606 
L 90.065455 250.261058 
L 106.298182 235.595812 
L 122.530909 230.269378 
L 138.763636 222.732933 
L 154.996364 219.7492 
L 171.229091 227.536872 
L 187.461818 238.095552 
L 203.694545 240.105559 
L 219.927273 227.004429 
L 236.16 226.925504 
L 252.392727 233.154313 
L 268.625455 230.174401 
L 284.858182 240.383887 
L 301.090909 244.568715 
L 317.323636 270.487518 
L 333.556364 269.20657 
L 349.789091 270.319682 
L 366.021818 258.729784 
L 382.254545 261.744408 
L 398.487273 261.622606 
" style="fill:none;stroke:#0e4db3;stroke-linecap:square;stroke-width:3;"/>
   </g>
   <g id="line2d_42">
    <path clip-path="url(#p2b6b5e7b47)" d="M 73.832727 266.156315 
L 90.065455 257.284731 
L 106.298182 238.409968 
L 122.530909 239.695823 
L 138.763636 235.885536 
L 154.996364 233.399201 
L 171.229091 239.422368 
L 187.461818 246.111355 
L 203.694545 248.759794 
L 219.927273 238.770821 
L 236.16 238.767178 
L 252.392727 243.349145 
L 268.625455 240.853582 
L 284.858182 248.505073 
L 301.090909 251.388938 
L 317.323636 273.895869 
L 333.556364 272.501007 
L 349.789091 272.184097 
L 366.021818 262.154324 
L 382.254545 265.459195 
L 398.487273 266.156315 
" style="fill:none;stroke:#d44e4e;stroke-linecap:square;stroke-width:3;"/>
   </g>
   <g id="line2d_43">
    <path clip-path="url(#p2b6b5e7b47)" d="M 73.832727 238.577262 
L 90.065455 238.221244 
L 106.298182 238.083335 
L 122.530909 242.64018 
L 138.763636 238.181839 
L 154.996364 248.68611 
L 171.229091 249.691589 
L 187.461818 249.898523 
L 203.694545 249.19434 
L 219.927273 248.796783 
L 236.16 248.474874 
L 252.392727 243.255682 
L 268.625455 240.56323 
L 284.858182 244.801775 
L 301.090909 237.940321 
L 317.323636 238.107019 
L 333.556364 238.138604 
L 349.789091 239.246087 
L 366.021818 234.785117 
L 382.254545 238.276586 
L 398.487273 238.577262 
" style="fill:none;stroke:#0e4db3;stroke-linecap:square;stroke-width:3;"/>
   </g>
   <g id="line2d_44">
    <path clip-path="url(#p2b6b5e7b47)" d="M 73.832727 245.552308 
L 90.065455 242.868511 
L 106.298182 242.701462 
L 122.530909 244.373008 
L 138.763636 245.491473 
L 154.996364 253.623772 
L 171.229091 254.223049 
L 187.461818 254.384061 
L 203.694545 254.301765 
L 219.927273 254.032042 
L 236.16 254.069298 
L 252.392727 248.835309 
L 268.625455 247.068209 
L 284.858182 250.155652 
L 301.090909 244.967425 
L 317.323636 244.98192 
L 333.556364 244.987808 
L 349.789091 246.155352 
L 366.021818 242.070711 
L 382.254545 245.087692 
L 398.487273 245.552308 
" style="fill:none;stroke:#d44e4e;stroke-linecap:square;stroke-width:3;"/>
   </g>
   <g id="line2d_45">
    <path clip-path="url(#p2b6b5e7b47)" d="M 73.832727 285.408 
L 90.065455 285.408 
L 106.298182 285.408 
L 122.530909 285.408 
L 138.763636 285.408 
L 154.996364 285.408 
L 171.229091 285.408 
L 187.461818 285.408 
L 203.694545 285.408 
L 219.927273 285.408 
L 236.16 285.408 
L 252.392727 285.408 
L 268.625455 285.408 
L 284.858182 285.408 
L 301.090909 285.408 
L 317.323636 285.408 
L 333.556364 285.408 
L 349.789091 285.408 
L 366.021818 285.408 
L 382.254545 285.408 
L 398.487273 285.408 
" style="fill:none;stroke:#0e4db3;stroke-linecap:square;stroke-width:3;"/>
   </g>
   <g id="line2d_46">
    <path clip-path="url(#p2b6b5e7b47)" d="M 73.832727 285.408 
L 90.065455 285.408 
L 106.298182 285.408 
L 122.530909 285.408 
L 138.763636 285.408 
L 154.996364 285.408 
L 171.229091 285.408 
L 187.461818 285.408 
L 203.694545 285.408 
L 219.927273 285.408 
L 236.16 285.408 
L 252.392727 285.408 
L 268.625455 285.408 
L 284.858182 285.408 
L 301.090909 285.408 
L 317.323636 285.408 
L 333.556364 285.408 
L 349.789091 285.408 
L 366.021818 285.408 
L 382.254545 285.408 
L 398.487273 285.408 
" style="fill:none;stroke:#d44e4e;stroke-linecap:square;stroke-width:3;"/>
   </g>
   <g id="line2d_47">
    <path clip-path="url(#p2b6b5e7b47)" d="M 73.832727 223.169447 
L 90.065455 166.30165 
L 106.298182 167.860484 
L 122.530909 163.31513 
L 138.763636 141.740216 
L 154.996364 158.19898 
L 171.229091 195.265287 
L 187.461818 251.20924 
L 203.694545 224.676357 
L 219.927273 201.354845 
L 236.16 197.971374 
L 252.392727 173.923379 
L 268.625455 154.717878 
L 284.858182 143.344822 
L 301.090909 162.445811 
L 317.323636 200.746187 
L 333.556364 263.346734 
L 349.789091 285.408 
L 366.021818 266.646202 
L 382.254545 219.859859 
L 398.487273 223.169447 
" style="fill:none;stroke:#0e4db3;stroke-linecap:square;stroke-width:3;"/>
   </g>
   <g id="line2d_48">
    <path clip-path="url(#p2b6b5e7b47)" d="M 73.832727 285.408 
L 90.065455 238.339343 
L 106.298182 242.638359 
L 122.530909 227.760397 
L 138.763636 263.809014 
L 154.996364 281.019548 
L 171.229091 285.408 
L 187.461818 285.408 
L 203.694545 285.408 
L 219.927273 285.408 
L 236.16 284.04121 
L 252.392727 264.191838 
L 268.625455 251.959585 
L 284.858182 254.436589 
L 301.090909 266.024493 
L 317.323636 285.408 
L 333.556364 285.408 
L 349.789091 285.408 
L 366.021818 285.408 
L 382.254545 285.408 
L 398.487273 285.408 
" style="fill:none;stroke:#d44e4e;stroke-linecap:square;stroke-width:3;"/>
   </g>
   <g id="line2d_49">
    <path clip-path="url(#p2b6b5e7b47)" d="M 73.832727 285.408 
L 90.065455 285.408 
L 106.298182 285.408 
L 122.530909 285.408 
L 138.763636 285.408 
L 154.996364 285.408 
L 171.229091 285.408 
L 187.461818 285.408 
L 203.694545 285.408 
L 219.927273 285.408 
L 236.16 285.408 
L 252.392727 285.408 
L 268.625455 285.408 
L 284.858182 285.408 
L 301.090909 285.408 
L 317.323636 285.408 
L 333.556364 285.408 
L 349.789091 285.408 
L 366.021818 285.408 
L 382.254545 285.408 
L 398.487273 285.408 
" style="fill:none;stroke:#0e4db3;stroke-linecap:square;stroke-width:3;"/>
   </g>
   <g id="line2d_50">
    <path clip-path="url(#p2b6b5e7b47)" d="M 73.832727 285.408 
L 90.065455 285.408 
L 106.298182 285.408 
L 122.530909 285.408 
L 138.763636 285.408 
L 154.996364 285.408 
L 171.229091 285.408 
L 187.461818 285.408 
L 203.694545 285.408 
L 219.927273 285.408 
L 236.16 285.408 
L 252.392727 285.408 
L 268.625455 285.408 
L 284.858182 285.408 
L 301.090909 285.408 
L 317.323636 285.408 
L 333.556364 285.408 
L 349.789091 285.408 
L 366.021818 285.408 
L 382.254545 285.408 
L 398.487273 285.408 
" style="fill:none;stroke:#d44e4e;stroke-linecap:square;stroke-width:3;"/>
   </g>
   <g id="line2d_51">
    <path clip-path="url(#p2b6b5e7b47)" d="M 73.832727 285.408 
L 90.065455 285.408 
L 106.298182 285.408 
L 122.530909 285.408 
L 138.763636 285.408 
L 154.996364 285.408 
L 171.229091 285.408 
L 187.461818 285.408 
L 203.694545 285.408 
L 219.927273 285.408 
L 236.16 285.408 
L 252.392727 285.408 
L 268.625455 285.408 
L 284.858182 285.408 
L 301.090909 285.408 
L 317.323636 285.408 
L 333.556364 285.408 
L 349.789091 285.408 
L 366.021818 285.408 
L 382.254545 285.408 
L 398.487273 285.408 
" style="fill:none;stroke:#0e4db3;stroke-linecap:square;stroke-width:3;"/>
   </g>
   <g id="line2d_52">
    <path clip-path="url(#p2b6b5e7b47)" d="M 73.832727 285.408 
L 90.065455 285.408 
L 106.298182 285.408 
L 122.530909 285.408 
L 138.763636 285.408 
L 154.996364 285.408 
L 171.229091 285.408 
L 187.461818 285.408 
L 203.694545 285.408 
L 219.927273 285.408 
L 236.16 285.408 
L 252.392727 285.408 
L 268.625455 285.408 
L 284.858182 285.408 
L 301.090909 285.408 
L 317.323636 285.408 
L 333.556364 285.408 
L 349.789091 285.408 
L 366.021818 285.408 
L 382.254545 285.408 
L 398.487273 285.408 
" style="fill:none;stroke:#d44e4e;stroke-linecap:square;stroke-width:3;"/>
   </g>
   <g id="line2d_53">
    <path clip-path="url(#p2b6b5e7b47)" d="M 73.832727 72.987855 
L 90.065455 138.604102 
L 106.298182 201.814689 
L 122.530909 211.079122 
L 138.763636 207.48267 
L 154.996364 209.737978 
L 171.229091 205.508607 
L 187.461818 216.517254 
L 203.694545 227.052446 
L 219.927273 187.229968 
L 236.16 177.188391 
L 252.392727 165.3211 
L 268.625455 194.169766 
L 284.858182 163.410165 
L 301.090909 119.112612 
L 317.323636 63.555032 
L 333.556364 19.608397 
L 349.789091 28.967591 
L 366.021818 40.077035 
L 382.254545 54.582686 
L 398.487273 72.987855 
" style="fill:none;stroke:#0e4db3;stroke-linecap:square;stroke-width:3;"/>
   </g>
   <g id="line2d_54">
    <path clip-path="url(#p2b6b5e7b47)" d="M 73.832727 285.408 
L 90.065455 285.408 
L 106.298182 285.408 
L 122.530909 285.408 
L 138.763636 285.408 
L 154.996364 285.408 
L 171.229091 285.408 
L 187.461818 285.408 
L 203.694545 285.408 
L 219.927273 285.408 
L 236.16 285.408 
L 252.392727 285.408 
L 268.625455 285.408 
L 284.858182 285.408 
L 301.090909 285.408 
L 317.323636 227.285213 
L 333.556364 255.315972 
L 349.789091 229.364441 
L 366.021818 224.274681 
L 382.254545 248.26348 
L 398.487273 285.408 
" style="fill:none;stroke:#d44e4e;stroke-linecap:square;stroke-width:3;"/>
   </g>
   <g id="line2d_55">
    <path clip-path="url(#p2b6b5e7b47)" d="M 73.832727 285.408 
L 90.065455 285.408 
L 106.298182 285.408 
L 122.530909 285.408 
L 138.763636 285.408 
L 154.996364 285.408 
L 171.229091 285.408 
L 187.461818 285.408 
L 203.694545 285.408 
L 219.927273 285.408 
L 236.16 285.408 
L 252.392727 285.408 
L 268.625455 285.408 
L 284.858182 285.408 
L 301.090909 285.408 
L 317.323636 285.408 
L 333.556364 285.408 
L 349.789091 285.408 
L 366.021818 285.408 
L 382.254545 285.408 
L 398.487273 285.408 
" style="fill:none;stroke:#0e4db3;stroke-linecap:square;stroke-width:3;"/>
   </g>
   <g id="line2d_56">
    <path clip-path="url(#p2b6b5e7b47)" d="M 73.832727 285.408 
L 90.065455 285.408 
L 106.298182 285.408 
L 122.530909 285.408 
L 138.763636 285.408 
L 154.996364 285.408 
L 171.229091 285.408 
L 187.461818 285.408 
L 203.694545 285.408 
L 219.927273 285.408 
L 236.16 285.408 
L 252.392727 285.408 
L 268.625455 285.408 
L 284.858182 285.408 
L 301.090909 285.408 
L 317.323636 285.408 
L 333.556364 285.408 
L 349.789091 285.408 
L 366.021818 285.408 
L 382.254545 285.408 
L 398.487273 285.408 
" style="fill:none;stroke:#d44e4e;stroke-linecap:square;stroke-width:3;"/>
   </g>
   <g id="line2d_57">
    <path clip-path="url(#p2b6b5e7b47)" d="M 73.832727 285.408 
L 90.065455 285.408 
L 106.298182 285.408 
L 122.530909 285.408 
L 138.763636 285.408 
L 154.996364 285.408 
L 171.229091 285.408 
L 187.461818 285.408 
L 203.694545 285.408 
L 219.927273 285.408 
L 236.16 285.408 
L 252.392727 285.408 
L 268.625455 285.408 
L 284.858182 285.408 
L 301.090909 285.408 
L 317.323636 285.408 
L 333.556364 285.408 
L 349.789091 285.408 
L 366.021818 285.408 
L 382.254545 285.408 
L 398.487273 285.408 
" style="fill:none;stroke:#0e4db3;stroke-linecap:square;stroke-width:3;"/>
   </g>
   <g id="line2d_58">
    <path clip-path="url(#p2b6b5e7b47)" d="M 73.832727 285.408 
L 90.065455 285.408 
L 106.298182 285.408 
L 122.530909 285.408 
L 138.763636 285.408 
L 154.996364 285.408 
L 171.229091 285.408 
L 187.461818 285.408 
L 203.694545 285.408 
L 219.927273 285.408 
L 236.16 285.408 
L 252.392727 285.408 
L 268.625455 285.408 
L 284.858182 285.408 
L 301.090909 285.408 
L 317.323636 285.408 
L 333.556364 285.408 
L 349.789091 285.408 
L 366.021818 285.408 
L 382.254545 285.408 
L 398.487273 285.408 
" style="fill:none;stroke:#d44e4e;stroke-linecap:square;stroke-width:3;"/>
   </g>
   <g id="line2d_59">
    <path clip-path="url(#p2b6b5e7b47)" d="M 73.832727 258.629285 
L 90.065455 258.720956 
L 106.298182 263.996909 
L 122.530909 271.116925 
L 138.763636 271.040833 
L 154.996364 272.254402 
L 171.229091 263.553416 
L 187.461818 242.879872 
L 203.694545 199.720787 
L 219.927273 169.086095 
L 236.16 207.378148 
L 252.392727 151.192234 
L 268.625455 158.310365 
L 284.858182 160.845828 
L 301.090909 161.391026 
L 317.323636 179.522413 
L 333.556364 190.932494 
L 349.789091 211.294938 
L 366.021818 221.930437 
L 382.254545 240.161251 
L 398.487273 258.629285 
" style="fill:none;stroke:#0e4db3;stroke-linecap:square;stroke-width:3;"/>
   </g>
   <g id="line2d_60">
    <path clip-path="url(#p2b6b5e7b47)" d="M 73.832727 284.104695 
L 90.065455 275.777412 
L 106.298182 283.446999 
L 122.530909 279.268715 
L 138.763636 278.858507 
L 154.996364 279.440108 
L 171.229091 284.188043 
L 187.461818 284.468388 
L 203.694545 284.315111 
L 219.927273 247.237404 
L 236.16 283.619334 
L 252.392727 231.413647 
L 268.625455 241.908478 
L 284.858182 253.941854 
L 301.090909 260.126198 
L 317.323636 252.770333 
L 333.556364 262.899375 
L 349.789091 255.60142 
L 366.021818 263.320808 
L 382.254545 268.047179 
L 398.487273 284.104695 
" style="fill:none;stroke:#d44e4e;stroke-linecap:square;stroke-width:3;"/>
   </g>
   <g id="line2d_61">
    <path clip-path="url(#p2b6b5e7b47)" d="M 73.832727 285.408 
L 90.065455 285.408 
L 106.298182 285.408 
L 122.530909 285.408 
L 138.763636 285.408 
L 154.996364 285.408 
L 171.229091 285.408 
L 187.461818 285.408 
L 203.694545 285.408 
L 219.927273 285.408 
L 236.16 285.408 
L 252.392727 285.408 
L 268.625455 285.408 
L 284.858182 285.408 
L 301.090909 285.408 
L 317.323636 285.408 
L 333.556364 285.408 
L 349.789091 285.408 
L 366.021818 285.408 
L 382.254545 285.408 
L 398.487273 285.408 
" style="fill:none;stroke:#0e4db3;stroke-linecap:square;stroke-width:3;"/>
   </g>
   <g id="line2d_62">
    <path clip-path="url(#p2b6b5e7b47)" d="M 73.832727 285.408 
L 90.065455 285.408 
L 106.298182 285.408 
L 122.530909 285.408 
L 138.763636 285.408 
L 154.996364 285.408 
L 171.229091 285.408 
L 187.461818 285.408 
L 203.694545 285.408 
L 219.927273 285.408 
L 236.16 285.408 
L 252.392727 285.408 
L 268.625455 285.408 
L 284.858182 285.408 
L 301.090909 285.408 
L 317.323636 285.408 
L 333.556364 285.408 
L 349.789091 285.408 
L 366.021818 285.408 
L 382.254545 285.408 
L 398.487273 285.408 
" style="fill:none;stroke:#d44e4e;stroke-linecap:square;stroke-width:3;"/>
   </g>
   <g id="line2d_63">
    <path clip-path="url(#p2b6b5e7b47)" d="M 73.832727 285.408 
L 90.065455 285.408 
L 106.298182 285.408 
L 122.530909 285.408 
L 138.763636 285.408 
L 154.996364 285.408 
L 171.229091 285.408 
L 187.461818 285.408 
L 203.694545 285.408 
L 219.927273 285.408 
L 236.16 285.408 
L 252.392727 285.408 
L 268.625455 285.408 
L 284.858182 285.408 
L 301.090909 285.408 
L 317.323636 285.408 
L 333.556364 285.408 
L 349.789091 285.408 
L 366.021818 285.408 
L 382.254545 285.408 
L 398.487273 285.408 
" style="fill:none;stroke:#0e4db3;stroke-linecap:square;stroke-width:3;"/>
   </g>
   <g id="line2d_64">
    <path clip-path="url(#p2b6b5e7b47)" d="M 73.832727 285.408 
L 90.065455 285.408 
L 106.298182 285.408 
L 122.530909 285.408 
L 138.763636 285.408 
L 154.996364 285.408 
L 171.229091 285.408 
L 187.461818 285.408 
L 203.694545 285.408 
L 219.927273 285.408 
L 236.16 285.408 
L 252.392727 285.408 
L 268.625455 285.408 
L 284.858182 285.408 
L 301.090909 285.408 
L 317.323636 285.408 
L 333.556364 285.408 
L 349.789091 285.408 
L 366.021818 285.408 
L 382.254545 285.408 
L 398.487273 285.408 
" style="fill:none;stroke:#d44e4e;stroke-linecap:square;stroke-width:3;"/>
   </g>
   <g id="line2d_65">
    <path clip-path="url(#p2b6b5e7b47)" d="M 73.832727 285.408 
L 90.065455 285.408 
L 106.298182 285.408 
L 122.530909 285.408 
L 138.763636 285.408 
L 154.996364 285.408 
L 171.229091 285.408 
L 187.461818 285.408 
L 203.694545 285.408 
L 219.927273 285.408 
L 236.16 285.408 
L 252.392727 285.408 
L 268.625455 285.408 
L 284.858182 285.408 
L 301.090909 285.408 
L 317.323636 285.408 
L 333.556364 285.408 
L 349.789091 285.408 
L 366.021818 285.408 
L 382.254545 285.408 
L 398.487273 285.408 
" style="fill:none;stroke:#0e4db3;stroke-linecap:square;stroke-width:3;"/>
   </g>
   <g id="line2d_66">
    <path clip-path="url(#p2b6b5e7b47)" d="M 73.832727 285.408 
L 90.065455 285.408 
L 106.298182 285.408 
L 122.530909 285.408 
L 138.763636 285.408 
L 154.996364 285.408 
L 171.229091 285.408 
L 187.461818 285.408 
L 203.694545 285.408 
L 219.927273 285.408 
L 236.16 285.408 
L 252.392727 285.408 
L 268.625455 285.408 
L 284.858182 285.408 
L 301.090909 285.408 
L 317.323636 285.408 
L 333.556364 285.408 
L 349.789091 285.408 
L 366.021818 285.408 
L 382.254545 285.408 
L 398.487273 285.408 
" style="fill:none;stroke:#d44e4e;stroke-linecap:square;stroke-width:3;"/>
   </g>
   <g id="line2d_67">
    <path clip-path="url(#p2b6b5e7b47)" d="M 73.832727 285.408 
L 90.065455 285.408 
L 106.298182 285.408 
L 122.530909 285.408 
L 138.763636 285.408 
L 154.996364 285.408 
L 171.229091 285.408 
L 187.461818 285.408 
L 203.694545 285.408 
L 219.927273 285.408 
L 236.16 285.408 
L 252.392727 285.408 
L 268.625455 285.408 
L 284.858182 285.408 
L 301.090909 285.408 
L 317.323636 285.408 
L 333.556364 285.408 
L 349.789091 285.408 
L 366.021818 285.408 
L 382.254545 285.408 
L 398.487273 285.408 
" style="fill:none;stroke:#0e4db3;stroke-linecap:square;stroke-width:3;"/>
   </g>
   <g id="line2d_68">
    <path clip-path="url(#p2b6b5e7b47)" d="M 73.832727 285.408 
L 90.065455 285.408 
L 106.298182 285.408 
L 122.530909 285.408 
L 138.763636 285.408 
L 154.996364 285.408 
L 171.229091 285.408 
L 187.461818 285.408 
L 203.694545 285.408 
L 219.927273 285.408 
L 236.16 285.408 
L 252.392727 285.408 
L 268.625455 285.408 
L 284.858182 285.408 
L 301.090909 285.408 
L 317.323636 285.408 
L 333.556364 285.408 
L 349.789091 285.408 
L 366.021818 285.408 
L 382.254545 285.408 
L 398.487273 285.408 
" style="fill:none;stroke:#d44e4e;stroke-linecap:square;stroke-width:3;"/>
   </g>
   <g id="line2d_69">
    <path clip-path="url(#p2b6b5e7b47)" d="M 73.832727 208.177741 
L 90.065455 184.82574 
L 106.298182 144.079399 
L 122.530909 150.39441 
L 138.763636 113.589091 
L 154.996364 116.211197 
L 171.229091 141.887636 
L 187.461818 194.942685 
L 203.694545 170.020171 
L 219.927273 169.593307 
L 236.16 198.304606 
L 252.392727 181.110391 
L 268.625455 188.222505 
L 284.858182 211.298239 
L 301.090909 213.277988 
L 317.323636 239.674153 
L 333.556364 228.861156 
L 349.789091 220.485112 
L 366.021818 203.839633 
L 382.254545 203.73513 
L 398.487273 208.177741 
" style="fill:none;stroke:#0e4db3;stroke-linecap:square;stroke-width:3;"/>
   </g>
   <g id="line2d_70">
    <path clip-path="url(#p2b6b5e7b47)" d="M 73.832727 285.408 
L 90.065455 285.408 
L 106.298182 285.408 
L 122.530909 285.408 
L 138.763636 285.408 
L 154.996364 285.408 
L 171.229091 285.408 
L 187.461818 285.408 
L 203.694545 285.408 
L 219.927273 285.408 
L 236.16 285.408 
L 252.392727 285.408 
L 268.625455 285.408 
L 284.858182 285.408 
L 301.090909 285.408 
L 317.323636 285.408 
L 333.556364 285.408 
L 349.789091 285.408 
L 366.021818 285.408 
L 382.254545 285.408 
L 398.487273 285.408 
" style="fill:none;stroke:#d44e4e;stroke-linecap:square;stroke-width:3;"/>
   </g>
   <g id="line2d_71">
    <path clip-path="url(#p2b6b5e7b47)" d="M 73.832727 285.408 
L 90.065455 285.408 
L 106.298182 285.408 
L 122.530909 285.408 
L 138.763636 285.408 
L 154.996364 285.408 
L 171.229091 285.408 
L 187.461818 285.408 
L 203.694545 285.408 
L 219.927273 285.408 
L 236.16 285.408 
L 252.392727 285.408 
L 268.625455 285.408 
L 284.858182 285.408 
L 301.090909 285.408 
L 317.323636 285.408 
L 333.556364 285.408 
L 349.789091 285.408 
L 366.021818 285.408 
L 382.254545 285.408 
L 398.487273 285.408 
" style="fill:none;stroke:#0e4db3;stroke-linecap:square;stroke-width:3;"/>
   </g>
   <g id="line2d_72">
    <path clip-path="url(#p2b6b5e7b47)" d="M 73.832727 285.408 
L 90.065455 285.408 
L 106.298182 285.408 
L 122.530909 285.408 
L 138.763636 285.408 
L 154.996364 285.408 
L 171.229091 285.408 
L 187.461818 285.408 
L 203.694545 285.408 
L 219.927273 285.408 
L 236.16 285.408 
L 252.392727 285.408 
L 268.625455 285.408 
L 284.858182 285.408 
L 301.090909 285.408 
L 317.323636 285.408 
L 333.556364 285.408 
L 349.789091 285.408 
L 366.021818 285.408 
L 382.254545 285.408 
L 398.487273 285.408 
" style="fill:none;stroke:#d44e4e;stroke-linecap:square;stroke-width:3;"/>
   </g>
   <g id="line2d_73">
    <path clip-path="url(#p2b6b5e7b47)" d="M 73.832727 285.408 
L 90.065455 285.408 
L 106.298182 285.408 
L 122.530909 285.408 
L 138.763636 285.408 
L 154.996364 285.408 
L 171.229091 285.408 
L 187.461818 285.408 
L 203.694545 285.408 
L 219.927273 285.408 
L 236.16 285.408 
L 252.392727 285.408 
L 268.625455 285.408 
L 284.858182 285.408 
L 301.090909 285.408 
L 317.323636 285.408 
L 333.556364 285.408 
L 349.789091 285.408 
L 366.021818 285.408 
L 382.254545 285.408 
L 398.487273 285.408 
" style="fill:none;stroke:#0e4db3;stroke-linecap:square;stroke-width:3;"/>
   </g>
   <g id="line2d_74">
    <path clip-path="url(#p2b6b5e7b47)" d="M 73.832727 285.408 
L 90.065455 285.408 
L 106.298182 285.408 
L 122.530909 285.408 
L 138.763636 285.408 
L 154.996364 285.408 
L 171.229091 285.408 
L 187.461818 285.408 
L 203.694545 285.408 
L 219.927273 285.408 
L 236.16 285.408 
L 252.392727 285.408 
L 268.625455 285.408 
L 284.858182 285.408 
L 301.090909 285.408 
L 317.323636 285.408 
L 333.556364 285.408 
L 349.789091 285.408 
L 366.021818 285.408 
L 382.254545 285.408 
L 398.487273 285.408 
" style="fill:none;stroke:#d44e4e;stroke-linecap:square;stroke-width:3;"/>
   </g>
   <g id="line2d_75">
    <path clip-path="url(#p2b6b5e7b47)" d="M 73.832727 285.408 
L 90.065455 285.408 
L 106.298182 285.408 
L 122.530909 285.408 
L 138.763636 285.408 
L 154.996364 285.408 
L 171.229091 285.408 
L 187.461818 285.408 
L 203.694545 285.408 
L 219.927273 285.408 
L 236.16 285.408 
L 252.392727 285.408 
L 268.625455 285.408 
L 284.858182 285.408 
L 301.090909 285.408 
L 317.323636 285.408 
L 333.556364 285.408 
L 349.789091 285.408 
L 366.021818 285.408 
L 382.254545 285.408 
L 398.487273 285.408 
" style="fill:none;stroke:#0e4db3;stroke-linecap:square;stroke-width:3;"/>
   </g>
   <g id="line2d_76">
    <path clip-path="url(#p2b6b5e7b47)" d="M 73.832727 285.408 
L 90.065455 285.408 
L 106.298182 285.408 
L 122.530909 285.408 
L 138.763636 285.408 
L 154.996364 285.408 
L 171.229091 285.408 
L 187.461818 285.408 
L 203.694545 285.408 
L 219.927273 285.408 
L 236.16 285.408 
L 252.392727 285.408 
L 268.625455 285.408 
L 284.858182 285.408 
L 301.090909 285.408 
L 317.323636 285.408 
L 333.556364 285.408 
L 349.789091 285.408 
L 366.021818 285.408 
L 382.254545 285.408 
L 398.487273 285.408 
" style="fill:none;stroke:#d44e4e;stroke-linecap:square;stroke-width:3;"/>
   </g>
   <g id="line2d_77">
    <path clip-path="url(#p2b6b5e7b47)" d="M 73.832727 226.879178 
L 90.065455 197.447793 
L 106.298182 241.460366 
L 122.530909 239.309465 
L 138.763636 221.770866 
L 154.996364 218.736718 
L 171.229091 201.712656 
L 187.461818 156.778906 
L 203.694545 126.800289 
L 219.927273 107.300081 
L 236.16 131.329784 
L 252.392727 73.112081 
L 268.625455 60.633566 
L 284.858182 100.423483 
L 301.090909 102.545875 
L 317.323636 164.25927 
L 333.556364 193.173567 
L 349.789091 169.245003 
L 366.021818 172.004428 
L 382.254545 180.831832 
L 398.487273 226.879178 
" style="fill:none;stroke:#0e4db3;stroke-linecap:square;stroke-width:3;"/>
   </g>
   <g id="line2d_78">
    <path clip-path="url(#p2b6b5e7b47)" d="M 73.832727 285.408 
L 90.065455 285.408 
L 106.298182 285.408 
L 122.530909 285.408 
L 138.763636 285.408 
L 154.996364 285.408 
L 171.229091 285.408 
L 187.461818 285.408 
L 203.694545 285.408 
L 219.927273 285.408 
L 236.16 285.408 
L 252.392727 285.408 
L 268.625455 285.408 
L 284.858182 285.408 
L 301.090909 285.408 
L 317.323636 285.408 
L 333.556364 285.408 
L 349.789091 285.408 
L 366.021818 285.408 
L 382.254545 285.408 
L 398.487273 285.408 
" style="fill:none;stroke:#d44e4e;stroke-linecap:square;stroke-width:3;"/>
   </g>
   <g id="line2d_79">
    <path clip-path="url(#p2b6b5e7b47)" d="M 73.832727 285.408 
L 90.065455 285.408 
L 106.298182 285.408 
L 122.530909 285.408 
L 138.763636 285.408 
L 154.996364 285.408 
L 171.229091 285.408 
L 187.461818 285.408 
L 203.694545 285.408 
L 219.927273 285.408 
L 236.16 285.408 
L 252.392727 285.408 
L 268.625455 285.408 
L 284.858182 285.408 
L 301.090909 285.408 
L 317.323636 285.408 
L 333.556364 285.408 
L 349.789091 285.408 
L 366.021818 285.408 
L 382.254545 285.408 
L 398.487273 285.408 
" style="fill:none;stroke:#0e4db3;stroke-linecap:square;stroke-width:3;"/>
   </g>
   <g id="line2d_80">
    <path clip-path="url(#p2b6b5e7b47)" d="M 73.832727 285.408 
L 90.065455 285.408 
L 106.298182 285.408 
L 122.530909 285.408 
L 138.763636 285.408 
L 154.996364 285.408 
L 171.229091 285.408 
L 187.461818 285.408 
L 203.694545 285.408 
L 219.927273 285.408 
L 236.16 285.408 
L 252.392727 285.408 
L 268.625455 285.408 
L 284.858182 285.408 
L 301.090909 285.408 
L 317.323636 285.408 
L 333.556364 285.408 
L 349.789091 285.408 
L 366.021818 285.408 
L 382.254545 285.408 
L 398.487273 285.408 
" style="fill:none;stroke:#d44e4e;stroke-linecap:square;stroke-width:3;"/>
   </g>
   <g id="line2d_81">
    <path clip-path="url(#p2b6b5e7b47)" d="M 73.832727 136.411532 
L 90.065455 114.403909 
L 106.298182 117.094146 
L 122.530909 137.32425 
L 138.763636 162.539346 
L 154.996364 171.934913 
L 171.229091 158.637177 
L 187.461818 177.480657 
L 203.694545 217.989449 
L 219.927273 241.686866 
L 236.16 247.648889 
L 252.392727 214.194315 
L 268.625455 228.102905 
L 284.858182 225.711076 
L 301.090909 165.5456 
L 317.323636 181.966685 
L 333.556364 171.395174 
L 349.789091 183.538102 
L 366.021818 165.358212 
L 382.254545 156.63534 
L 398.487273 136.411532 
" style="fill:none;stroke:#0e4db3;stroke-linecap:square;stroke-width:3;"/>
   </g>
   <g id="line2d_82">
    <path clip-path="url(#p2b6b5e7b47)" d="M 73.832727 285.408 
L 90.065455 261.191323 
L 106.298182 245.164012 
L 122.530909 261.480558 
L 138.763636 285.408 
L 154.996364 285.408 
L 171.229091 257.385089 
L 187.461818 279.476747 
L 203.694545 285.408 
L 219.927273 285.408 
L 236.16 285.408 
L 252.392727 285.408 
L 268.625455 285.408 
L 284.858182 285.408 
L 301.090909 283.980286 
L 317.323636 285.408 
L 333.556364 285.408 
L 349.789091 253.191576 
L 366.021818 239.749348 
L 382.254545 254.570882 
L 398.487273 285.408 
" style="fill:none;stroke:#d44e4e;stroke-linecap:square;stroke-width:3;"/>
   </g>
   <g id="line2d_83">
    <path clip-path="url(#p2b6b5e7b47)" d="M 73.832727 168.823233 
L 90.065455 175.666102 
L 106.298182 175.407642 
L 122.530909 172.079537 
L 138.763636 182.79201 
L 154.996364 218.255358 
L 171.229091 233.969636 
L 187.461818 245.104746 
L 203.694545 211.612228 
L 219.927273 136.063833 
L 236.16 102.560562 
L 252.392727 89.25602 
L 268.625455 107.599114 
L 284.858182 127.624422 
L 301.090909 121.361999 
L 317.323636 115.458857 
L 333.556364 136.060036 
L 349.789091 130.65113 
L 366.021818 158.398575 
L 382.254545 164.861324 
L 398.487273 168.823233 
" style="fill:none;stroke:#0e4db3;stroke-linecap:square;stroke-width:3;"/>
   </g>
   <g id="line2d_84">
    <path clip-path="url(#p2b6b5e7b47)" d="M 73.832727 194.439539 
L 90.065455 197.631518 
L 106.298182 194.833588 
L 122.530909 197.844282 
L 138.763636 198.843365 
L 154.996364 232.773832 
L 171.229091 250.371453 
L 187.461818 248.092877 
L 203.694545 224.387969 
L 219.927273 175.787205 
L 236.16 148.464789 
L 252.392727 137.827799 
L 268.625455 146.88006 
L 284.858182 164.33733 
L 301.090909 156.251451 
L 317.323636 148.96061 
L 333.556364 164.646695 
L 349.789091 161.270414 
L 366.021818 178.88093 
L 382.254545 164.195397 
L 398.487273 194.439539 
" style="fill:none;stroke:#d44e4e;stroke-linecap:square;stroke-width:3;"/>
   </g>
   <g id="line2d_85">
    <path clip-path="url(#p2b6b5e7b47)" d="M 73.832727 285.408 
L 90.065455 285.408 
L 106.298182 285.408 
L 122.530909 285.408 
L 138.763636 285.408 
L 154.996364 285.408 
L 171.229091 285.408 
L 187.461818 285.408 
L 203.694545 285.408 
L 219.927273 285.408 
L 236.16 285.408 
L 252.392727 285.408 
L 268.625455 285.408 
L 284.858182 285.408 
L 301.090909 285.408 
L 317.323636 285.408 
L 333.556364 285.408 
L 349.789091 285.408 
L 366.021818 285.408 
L 382.254545 285.408 
L 398.487273 285.408 
" style="fill:none;stroke:#0e4db3;stroke-linecap:square;stroke-width:3;"/>
   </g>
   <g id="line2d_86">
    <path clip-path="url(#p2b6b5e7b47)" d="M 73.832727 285.408 
L 90.065455 285.408 
L 106.298182 285.408 
L 122.530909 285.408 
L 138.763636 285.408 
L 154.996364 285.408 
L 171.229091 285.408 
L 187.461818 285.408 
L 203.694545 285.408 
L 219.927273 285.408 
L 236.16 285.408 
L 252.392727 285.408 
L 268.625455 285.408 
L 284.858182 285.408 
L 301.090909 285.408 
L 317.323636 285.408 
L 333.556364 285.408 
L 349.789091 285.408 
L 366.021818 285.408 
L 382.254545 285.408 
L 398.487273 285.408 
" style="fill:none;stroke:#d44e4e;stroke-linecap:square;stroke-width:3;"/>
   </g>
   <g id="line2d_87">
    <path clip-path="url(#p2b6b5e7b47)" d="M 73.832727 285.408 
L 90.065455 285.408 
L 106.298182 285.408 
L 122.530909 285.408 
L 138.763636 285.408 
L 154.996364 285.408 
L 171.229091 285.408 
L 187.461818 285.408 
L 203.694545 285.408 
L 219.927273 285.408 
L 236.16 285.408 
L 252.392727 285.408 
L 268.625455 285.408 
L 284.858182 285.408 
L 301.090909 285.408 
L 317.323636 285.408 
L 333.556364 285.408 
L 349.789091 285.408 
L 366.021818 285.408 
L 382.254545 285.408 
L 398.487273 285.408 
" style="fill:none;stroke:#0e4db3;stroke-linecap:square;stroke-width:3;"/>
   </g>
   <g id="line2d_88">
    <path clip-path="url(#p2b6b5e7b47)" d="M 73.832727 285.408 
L 90.065455 285.408 
L 106.298182 285.408 
L 122.530909 285.408 
L 138.763636 285.408 
L 154.996364 285.408 
L 171.229091 285.408 
L 187.461818 285.408 
L 203.694545 285.408 
L 219.927273 285.408 
L 236.16 285.408 
L 252.392727 285.408 
L 268.625455 285.408 
L 284.858182 285.408 
L 301.090909 285.408 
L 317.323636 285.408 
L 333.556364 285.408 
L 349.789091 285.408 
L 366.021818 285.408 
L 382.254545 285.408 
L 398.487273 285.408 
" style="fill:none;stroke:#d44e4e;stroke-linecap:square;stroke-width:3;"/>
   </g>
   <g id="line2d_89">
    <path clip-path="url(#p2b6b5e7b47)" d="M 73.832727 285.408 
L 90.065455 285.408 
L 106.298182 285.408 
L 122.530909 268.71375 
L 138.763636 254.226195 
L 154.996364 250.075355 
L 171.229091 263.227489 
L 187.461818 240.416578 
L 203.694545 195.712259 
L 219.927273 173.038931 
L 236.16 275.357558 
L 252.392727 115.640565 
L 268.625455 66.078998 
L 284.858182 74.311461 
L 301.090909 77.625601 
L 317.323636 139.972885 
L 333.556364 200.421961 
L 349.789091 265.666871 
L 366.021818 285.408 
L 382.254545 285.408 
L 398.487273 285.408 
" style="fill:none;stroke:#0e4db3;stroke-linecap:square;stroke-width:3;"/>
   </g>
   <g id="line2d_90">
    <path clip-path="url(#p2b6b5e7b47)" d="M 73.832727 285.408 
L 90.065455 285.408 
L 106.298182 285.408 
L 122.530909 285.408 
L 138.763636 285.408 
L 154.996364 285.408 
L 171.229091 285.408 
L 187.461818 285.408 
L 203.694545 274.304129 
L 219.927273 265.35721 
L 236.16 285.408 
L 252.392727 227.056603 
L 268.625455 216.475196 
L 284.858182 196.320898 
L 301.090909 205.570677 
L 317.323636 236.142544 
L 333.556364 257.873007 
L 349.789091 285.408 
L 366.021818 285.408 
L 382.254545 285.408 
L 398.487273 285.408 
" style="fill:none;stroke:#d44e4e;stroke-linecap:square;stroke-width:3;"/>
   </g>
   <g id="line2d_91">
    <path clip-path="url(#p2b6b5e7b47)" d="M 73.832727 116.774467 
L 90.065455 78.256443 
L 106.298182 60.195139 
L 122.530909 43.540643 
L 138.763636 25.844291 
L 154.996364 49.381556 
L 171.229091 72.580609 
L 187.461818 149.043543 
L 203.694545 157.941894 
L 219.927273 171.708211 
L 236.16 155.791858 
L 252.392727 142.194964 
L 268.625455 150.371879 
L 284.858182 126.079593 
L 301.090909 151.248493 
L 317.323636 163.406214 
L 333.556364 198.368854 
L 349.789091 186.368387 
L 366.021818 173.346691 
L 382.254545 145.291813 
L 398.487273 116.774467 
" style="fill:none;stroke:#0e4db3;stroke-linecap:square;stroke-width:3;"/>
   </g>
   <g id="line2d_92">
    <path clip-path="url(#p2b6b5e7b47)" d="M 73.832727 285.408 
L 90.065455 255.929366 
L 106.298182 260.731436 
L 122.530909 225.98877 
L 138.763636 272.121356 
L 154.996364 283.274409 
L 171.229091 283.308502 
L 187.461818 285.408 
L 203.694545 285.408 
L 219.927273 285.408 
L 236.16 285.408 
L 252.392727 285.408 
L 268.625455 285.408 
L 284.858182 285.408 
L 301.090909 285.408 
L 317.323636 285.408 
L 333.556364 285.408 
L 349.789091 285.408 
L 366.021818 285.408 
L 382.254545 285.408 
L 398.487273 285.408 
" style="fill:none;stroke:#d44e4e;stroke-linecap:square;stroke-width:3;"/>
   </g>
   <g id="line2d_93">
    <path clip-path="url(#p2b6b5e7b47)" d="M 73.832727 285.408 
L 90.065455 285.408 
L 106.298182 285.408 
L 122.530909 285.408 
L 138.763636 285.408 
L 154.996364 285.408 
L 171.229091 285.408 
L 187.461818 285.408 
L 203.694545 285.408 
L 219.927273 285.408 
L 236.16 285.408 
L 252.392727 285.408 
L 268.625455 285.408 
L 284.858182 285.408 
L 301.090909 285.408 
L 317.323636 285.408 
L 333.556364 285.408 
L 349.789091 285.408 
L 366.021818 285.408 
L 382.254545 285.408 
L 398.487273 285.408 
" style="fill:none;stroke:#0e4db3;stroke-linecap:square;stroke-width:3;"/>
   </g>
   <g id="line2d_94">
    <path clip-path="url(#p2b6b5e7b47)" d="M 73.832727 285.408 
L 90.065455 285.408 
L 106.298182 285.408 
L 122.530909 285.408 
L 138.763636 285.408 
L 154.996364 285.408 
L 171.229091 285.408 
L 187.461818 285.408 
L 203.694545 285.408 
L 219.927273 285.408 
L 236.16 285.408 
L 252.392727 285.408 
L 268.625455 285.408 
L 284.858182 285.408 
L 301.090909 285.408 
L 317.323636 285.408 
L 333.556364 285.408 
L 349.789091 285.408 
L 366.021818 285.408 
L 382.254545 285.408 
L 398.487273 285.408 
" style="fill:none;stroke:#d44e4e;stroke-linecap:square;stroke-width:3;"/>
   </g>
   <g id="line2d_95">
    <path clip-path="url(#p2b6b5e7b47)" d="M 73.832727 26.525289 
L 90.065455 68.710986 
L 106.298182 115.128201 
L 122.530909 175.516826 
L 138.763636 218.138163 
L 154.996364 253.112101 
L 171.229091 214.759343 
L 187.461818 169.458642 
L 203.694545 124.740809 
L 219.927273 60.876925 
L 236.16 49.883058 
L 252.392727 48.412155 
L 268.625455 72.384887 
L 284.858182 111.630855 
L 301.090909 69.790464 
L 317.323636 94.448077 
L 333.556364 57.775425 
L 349.789091 71.389073 
L 366.021818 45.394972 
L 382.254545 12.224972 
L 398.487273 26.525289 
" style="fill:none;stroke:#0e4db3;stroke-linecap:square;stroke-width:3;"/>
   </g>
   <g id="line2d_96">
    <path clip-path="url(#p2b6b5e7b47)" d="M 73.832727 202.453826 
L 90.065455 196.981346 
L 106.298182 229.582175 
L 122.530909 285.408 
L 138.763636 285.408 
L 154.996364 285.408 
L 171.229091 285.408 
L 187.461818 285.408 
L 203.694545 285.408 
L 219.927273 262.542631 
L 236.16 250.904392 
L 252.392727 211.968597 
L 268.625455 228.785057 
L 284.858182 242.57712 
L 301.090909 188.307966 
L 317.323636 184.0791 
L 333.556364 194.025421 
L 349.789091 162.74741 
L 366.021818 140.722255 
L 382.254545 139.285293 
L 398.487273 202.453826 
" style="fill:none;stroke:#d44e4e;stroke-linecap:square;stroke-width:3;"/>
   </g>
   <g id="line2d_97">
    <path clip-path="url(#p2b6b5e7b47)" d="M 73.832727 285.408 
L 90.065455 285.408 
L 106.298182 285.408 
L 122.530909 285.408 
L 138.763636 285.408 
L 154.996364 285.408 
L 171.229091 285.408 
L 187.461818 285.408 
L 203.694545 285.408 
L 219.927273 285.408 
L 236.16 285.408 
L 252.392727 285.408 
L 268.625455 285.408 
L 284.858182 285.408 
L 301.090909 285.408 
L 317.323636 285.408 
L 333.556364 285.408 
L 349.789091 285.408 
L 366.021818 285.408 
L 382.254545 285.408 
L 398.487273 285.408 
" style="fill:none;stroke:#0e4db3;stroke-linecap:square;stroke-width:3;"/>
   </g>
   <g id="line2d_98">
    <path clip-path="url(#p2b6b5e7b47)" d="M 73.832727 285.408 
L 90.065455 285.408 
L 106.298182 285.408 
L 122.530909 285.408 
L 138.763636 285.408 
L 154.996364 285.408 
L 171.229091 285.408 
L 187.461818 285.408 
L 203.694545 285.408 
L 219.927273 285.408 
L 236.16 285.408 
L 252.392727 285.408 
L 268.625455 285.408 
L 284.858182 285.408 
L 301.090909 285.408 
L 317.323636 285.408 
L 333.556364 285.408 
L 349.789091 285.408 
L 366.021818 285.408 
L 382.254545 285.408 
L 398.487273 285.408 
" style="fill:none;stroke:#d44e4e;stroke-linecap:square;stroke-width:3;"/>
   </g>
   <g id="line2d_99">
    <path clip-path="url(#p2b6b5e7b47)" d="M 73.832727 140.577362 
L 90.065455 118.116855 
L 106.298182 105.280039 
L 122.530909 103.503875 
L 138.763636 89.345048 
L 154.996364 93.126605 
L 171.229091 101.208196 
L 187.461818 125.52581 
L 203.694545 136.623777 
L 219.927273 155.417534 
L 236.16 161.94479 
L 252.392727 168.532477 
L 268.625455 178.81898 
L 284.858182 185.290274 
L 301.090909 173.767682 
L 317.323636 166.538541 
L 333.556364 142.840888 
L 349.789091 157.279274 
L 366.021818 138.458238 
L 382.254545 138.819154 
L 398.487273 140.577362 
" style="fill:none;stroke:#0e4db3;stroke-linecap:square;stroke-width:3;"/>
   </g>
   <g id="line2d_100">
    <path clip-path="url(#p2b6b5e7b47)" d="M 73.832727 197.803075 
L 90.065455 186.720459 
L 106.298182 185.667347 
L 122.530909 173.85621 
L 138.763636 174.422517 
L 154.996364 184.04688 
L 171.229091 174.284006 
L 187.461818 182.923609 
L 203.694545 197.909847 
L 219.927273 196.744994 
L 236.16 199.298258 
L 252.392727 199.472141 
L 268.625455 197.690575 
L 284.858182 208.261265 
L 301.090909 215.757883 
L 317.323636 207.040974 
L 333.556364 201.709417 
L 349.789091 172.552164 
L 366.021818 159.135065 
L 382.254545 174.964553 
L 398.487273 197.803075 
" style="fill:none;stroke:#d44e4e;stroke-linecap:square;stroke-width:3;"/>
   </g>
   <g id="line2d_101">
    <path clip-path="url(#p2b6b5e7b47)" d="M 73.832727 285.408 
L 90.065455 285.408 
L 106.298182 285.408 
L 122.530909 285.408 
L 138.763636 285.408 
L 154.996364 285.408 
L 171.229091 285.408 
L 187.461818 285.408 
L 203.694545 285.408 
L 219.927273 285.408 
L 236.16 285.408 
L 252.392727 285.408 
L 268.625455 285.408 
L 284.858182 285.408 
L 301.090909 285.408 
L 317.323636 285.408 
L 333.556364 285.408 
L 349.789091 285.408 
L 366.021818 285.408 
L 382.254545 285.408 
L 398.487273 285.408 
" style="fill:none;stroke:#0e4db3;stroke-linecap:square;stroke-width:3;"/>
   </g>
   <g id="line2d_102">
    <path clip-path="url(#p2b6b5e7b47)" d="M 73.832727 285.408 
L 90.065455 285.408 
L 106.298182 285.408 
L 122.530909 285.408 
L 138.763636 285.408 
L 154.996364 285.408 
L 171.229091 285.408 
L 187.461818 285.408 
L 203.694545 285.408 
L 219.927273 285.408 
L 236.16 285.408 
L 252.392727 285.408 
L 268.625455 285.408 
L 284.858182 285.408 
L 301.090909 285.408 
L 317.323636 285.408 
L 333.556364 285.408 
L 349.789091 285.408 
L 366.021818 285.408 
L 382.254545 285.408 
L 398.487273 285.408 
" style="fill:none;stroke:#d44e4e;stroke-linecap:square;stroke-width:3;"/>
   </g>
   <g id="line2d_103">
    <path clip-path="url(#p2b6b5e7b47)" d="M 73.832727 152.823236 
L 90.065455 129.604103 
L 106.298182 125.755645 
L 122.530909 166.451522 
L 138.763636 178.352917 
L 154.996364 182.74518 
L 171.229091 159.742021 
L 187.461818 158.217156 
L 203.694545 168.844659 
L 219.927273 190.155673 
L 236.16 171.437948 
L 252.392727 162.234796 
L 268.625455 120.184208 
L 284.858182 120.779832 
L 301.090909 101.397497 
L 317.323636 103.957701 
L 333.556364 110.124637 
L 349.789091 140.529042 
L 366.021818 140.006922 
L 382.254545 147.481624 
L 398.487273 152.823236 
" style="fill:none;stroke:#0e4db3;stroke-linecap:square;stroke-width:3;"/>
   </g>
   <g id="line2d_104">
    <path clip-path="url(#p2b6b5e7b47)" d="M 73.832727 222.917826 
L 90.065455 198.910938 
L 106.298182 189.85341 
L 122.530909 217.610943 
L 138.763636 234.254534 
L 154.996364 230.273473 
L 171.229091 209.684818 
L 187.461818 201.650139 
L 203.694545 202.391079 
L 219.927273 220.072916 
L 236.16 217.109729 
L 252.392727 217.417221 
L 268.625455 196.779972 
L 284.858182 196.004006 
L 301.090909 187.282469 
L 317.323636 188.561014 
L 333.556364 194.573753 
L 349.789091 188.596906 
L 366.021818 172.87689 
L 382.254545 198.443828 
L 398.487273 222.917826 
" style="fill:none;stroke:#d44e4e;stroke-linecap:square;stroke-width:3;"/>
   </g>
   <g id="line2d_105">
    <path clip-path="url(#p2b6b5e7b47)" d="M 73.832727 196.316572 
L 90.065455 184.187726 
L 106.298182 137.067059 
L 122.530909 133.87705 
L 138.763636 121.721722 
L 154.996364 144.337426 
L 171.229091 206.505753 
L 187.461818 227.898595 
L 203.694545 241.964319 
L 219.927273 236.309209 
L 236.16 200.628487 
L 252.392727 222.871808 
L 268.625455 189.334664 
L 284.858182 164.624068 
L 301.090909 145.883236 
L 317.323636 172.73688 
L 333.556364 190.965464 
L 349.789091 226.265536 
L 366.021818 209.304087 
L 382.254545 210.988504 
L 398.487273 196.316572 
" style="fill:none;stroke:#0e4db3;stroke-linecap:square;stroke-width:3;"/>
   </g>
   <g id="line2d_106">
    <path clip-path="url(#p2b6b5e7b47)" d="M 73.832727 285.408 
L 90.065455 247.466672 
L 106.298182 237.964558 
L 122.530909 226.062961 
L 138.763636 248.591202 
L 154.996364 271.361576 
L 171.229091 285.408 
L 187.461818 285.408 
L 203.694545 285.408 
L 219.927273 285.408 
L 236.16 285.408 
L 252.392727 285.408 
L 268.625455 285.408 
L 284.858182 274.162398 
L 301.090909 250.597508 
L 317.323636 271.835078 
L 333.556364 281.53461 
L 349.789091 241.801029 
L 366.021818 285.408 
L 382.254545 247.70349 
L 398.487273 285.408 
" style="fill:none;stroke:#d44e4e;stroke-linecap:square;stroke-width:3;"/>
   </g>
   <g id="line2d_107">
    <path clip-path="url(#p2b6b5e7b47)" d="M 73.832727 285.408 
L 90.065455 285.408 
L 106.298182 285.408 
L 122.530909 285.408 
L 138.763636 285.408 
L 154.996364 285.408 
L 171.229091 285.408 
L 187.461818 285.408 
L 203.694545 285.408 
L 219.927273 285.408 
L 236.16 285.408 
L 252.392727 285.408 
L 268.625455 285.408 
L 284.858182 285.408 
L 301.090909 285.408 
L 317.323636 285.408 
L 333.556364 285.408 
L 349.789091 285.408 
L 366.021818 285.408 
L 382.254545 285.408 
L 398.487273 285.408 
" style="fill:none;stroke:#0e4db3;stroke-linecap:square;stroke-width:3;"/>
   </g>
   <g id="line2d_108">
    <path clip-path="url(#p2b6b5e7b47)" d="M 73.832727 285.408 
L 90.065455 285.408 
L 106.298182 285.408 
L 122.530909 285.408 
L 138.763636 285.408 
L 154.996364 285.408 
L 171.229091 285.408 
L 187.461818 285.408 
L 203.694545 285.408 
L 219.927273 285.408 
L 236.16 285.408 
L 252.392727 285.408 
L 268.625455 285.408 
L 284.858182 285.408 
L 301.090909 285.408 
L 317.323636 285.408 
L 333.556364 285.408 
L 349.789091 285.408 
L 366.021818 285.408 
L 382.254545 285.408 
L 398.487273 285.408 
" style="fill:none;stroke:#d44e4e;stroke-linecap:square;stroke-width:3;"/>
   </g>
   <g id="line2d_109">
    <path clip-path="url(#p2b6b5e7b47)" d="M 73.832727 285.408 
L 90.065455 285.408 
L 106.298182 285.408 
L 122.530909 285.408 
L 138.763636 285.408 
L 154.996364 285.408 
L 171.229091 285.408 
L 187.461818 285.408 
L 203.694545 285.408 
L 219.927273 285.408 
L 236.16 285.408 
L 252.392727 285.408 
L 268.625455 285.408 
L 284.858182 285.408 
L 301.090909 285.408 
L 317.323636 285.408 
L 333.556364 285.408 
L 349.789091 285.408 
L 366.021818 285.408 
L 382.254545 285.408 
L 398.487273 285.408 
" style="fill:none;stroke:#0e4db3;stroke-linecap:square;stroke-width:3;"/>
   </g>
   <g id="line2d_110">
    <path clip-path="url(#p2b6b5e7b47)" d="M 73.832727 285.408 
L 90.065455 285.408 
L 106.298182 285.408 
L 122.530909 285.408 
L 138.763636 285.408 
L 154.996364 285.408 
L 171.229091 285.408 
L 187.461818 285.408 
L 203.694545 285.408 
L 219.927273 285.408 
L 236.16 285.408 
L 252.392727 285.408 
L 268.625455 285.408 
L 284.858182 285.408 
L 301.090909 285.408 
L 317.323636 285.408 
L 333.556364 285.408 
L 349.789091 285.408 
L 366.021818 285.408 
L 382.254545 285.408 
L 398.487273 285.408 
" style="fill:none;stroke:#d44e4e;stroke-linecap:square;stroke-width:3;"/>
   </g>
   <g id="line2d_111">
    <path clip-path="url(#p2b6b5e7b47)" d="M 73.832727 204.268073 
L 90.065455 229.207067 
L 106.298182 230.913259 
L 122.530909 249.010787 
L 138.763636 253.82065 
L 154.996364 250.751372 
L 171.229091 242.470954 
L 187.461818 243.315344 
L 203.694545 225.429792 
L 219.927273 219.850795 
L 236.16 210.272892 
L 252.392727 215.330024 
L 268.625455 209.57153 
L 284.858182 212.624614 
L 301.090909 219.719234 
L 317.323636 233.809027 
L 333.556364 226.41015 
L 349.789091 218.501519 
L 366.021818 197.889046 
L 382.254545 192.295828 
L 398.487273 204.268073 
" style="fill:none;stroke:#0e4db3;stroke-linecap:square;stroke-width:3;"/>
   </g>
   <g id="line2d_112">
    <path clip-path="url(#p2b6b5e7b47)" d="M 73.832727 140.694149 
L 90.065455 160.832842 
L 106.298182 169.816212 
L 122.530909 182.450501 
L 138.763636 174.951856 
L 154.996364 176.884024 
L 171.229091 182.214822 
L 187.461818 182.451991 
L 203.694545 156.334385 
L 219.927273 147.773082 
L 236.16 147.196135 
L 252.392727 149.724253 
L 268.625455 153.624164 
L 284.858182 160.279847 
L 301.090909 157.309725 
L 317.323636 157.247958 
L 333.556364 157.538138 
L 349.789091 156.193779 
L 366.021818 140.708529 
L 382.254545 140.132052 
L 398.487273 140.694149 
" style="fill:none;stroke:#d44e4e;stroke-linecap:square;stroke-width:3;"/>
   </g>
   <g id="line2d_113">
    <path clip-path="url(#p2b6b5e7b47)" d="M 73.832727 194.01826 
L 90.065455 214.236829 
L 106.298182 243.371373 
L 122.530909 235.200957 
L 138.763636 220.787764 
L 154.996364 246.860886 
L 171.229091 260.002079 
L 187.461818 285.408 
L 203.694545 277.501222 
L 219.927273 253.867901 
L 236.16 235.139867 
L 252.392727 200.346756 
L 268.625455 61.108193 
L 282.962795 -1 
M 327.063987 -1 
L 333.556364 11.274719 
L 349.789091 85.741065 
L 366.021818 138.709191 
L 382.254545 166.136351 
L 398.487273 194.01826 
" style="fill:none;stroke:#0e4db3;stroke-linecap:square;stroke-width:3;"/>
   </g>
   <g id="line2d_114">
    <path clip-path="url(#p2b6b5e7b47)" d="M 73.832727 285.408 
L 90.065455 285.408 
L 106.298182 285.408 
L 122.530909 285.408 
L 138.763636 285.408 
L 154.996364 285.408 
L 171.229091 285.408 
L 187.461818 285.408 
L 203.694545 285.408 
L 219.927273 285.408 
L 236.16 285.408 
L 252.392727 285.408 
L 268.625455 265.767917 
L 284.858182 233.315676 
L 301.090909 204.839249 
L 317.323636 175.426165 
L 333.556364 233.385417 
L 349.789091 215.992879 
L 366.021818 256.511005 
L 382.254545 273.270273 
L 398.487273 285.408 
" style="fill:none;stroke:#d44e4e;stroke-linecap:square;stroke-width:3;"/>
   </g>
   <g id="line2d_115">
    <path clip-path="url(#p2b6b5e7b47)" d="M 73.832727 277.461773 
L 90.065455 270.155984 
L 106.298182 268.593588 
L 122.530909 264.844284 
L 138.763636 239.217414 
L 154.996364 230.292769 
L 171.229091 187.234476 
L 187.461818 159.509879 
L 203.694545 122.130352 
L 219.927273 85.698118 
L 236.16 52.828823 
L 252.392727 57.652621 
L 268.625455 0.20159 
L 284.858182 42.818485 
L 301.090909 89.890131 
L 317.323636 144.678935 
L 333.556364 179.050478 
L 349.789091 233.853839 
L 366.021818 245.431611 
L 382.254545 258.24693 
L 398.487273 277.461773 
" style="fill:none;stroke:#0e4db3;stroke-linecap:square;stroke-width:3;"/>
   </g>
   <g id="line2d_116">
    <path clip-path="url(#p2b6b5e7b47)" d="M 73.832727 285.408 
L 90.065455 285.408 
L 106.298182 285.408 
L 122.530909 285.408 
L 138.763636 285.408 
L 154.996364 285.408 
L 171.229091 285.408 
L 187.461818 285.408 
L 203.694545 285.408 
L 219.927273 285.408 
L 236.16 285.408 
L 252.392727 285.408 
L 268.625455 285.408 
L 284.858182 285.408 
L 301.090909 285.408 
L 317.323636 285.408 
L 333.556364 285.408 
L 349.789091 285.408 
L 366.021818 285.408 
L 382.254545 285.408 
L 398.487273 285.408 
" style="fill:none;stroke:#d44e4e;stroke-linecap:square;stroke-width:3;"/>
   </g>
   <g id="line2d_117">
    <path clip-path="url(#p2b6b5e7b47)" d="M 73.832727 285.408 
L 90.065455 222.015192 
L 106.298182 190.501641 
L 122.530909 147.440984 
L 138.763636 78.037364 
L 154.996364 62.421841 
L 171.229091 107.358253 
L 187.461818 161.163556 
L 203.694545 175.524305 
L 219.927273 206.331822 
L 236.16 234.731641 
L 252.392727 248.496246 
L 268.625455 285.408 
L 284.858182 285.408 
L 301.090909 255.329016 
L 317.323636 270.965819 
L 333.556364 281.60338 
L 349.789091 285.408 
L 366.021818 285.408 
L 382.254545 285.408 
L 398.487273 285.408 
" style="fill:none;stroke:#0e4db3;stroke-linecap:square;stroke-width:3;"/>
   </g>
   <g id="line2d_118">
    <path clip-path="url(#p2b6b5e7b47)" d="M 73.832727 285.408 
L 90.065455 285.408 
L 106.298182 285.408 
L 122.530909 229.890315 
L 138.763636 232.953862 
L 154.996364 226.087587 
L 171.229091 242.837051 
L 187.461818 277.285926 
L 203.694545 285.408 
L 219.927273 285.408 
L 236.16 285.408 
L 252.392727 285.408 
L 268.625455 285.408 
L 284.858182 285.408 
L 301.090909 285.408 
L 317.323636 285.408 
L 333.556364 285.408 
L 349.789091 285.408 
L 366.021818 285.408 
L 382.254545 285.408 
L 398.487273 285.408 
" style="fill:none;stroke:#d44e4e;stroke-linecap:square;stroke-width:3;"/>
   </g>
   <g id="line2d_119">
    <path clip-path="url(#p2b6b5e7b47)" d="M 73.832727 285.408 
L 90.065455 285.408 
L 106.298182 285.408 
L 122.530909 285.408 
L 138.763636 285.408 
L 154.996364 285.408 
L 171.229091 285.408 
L 187.461818 285.408 
L 203.694545 285.408 
L 219.927273 285.408 
L 236.16 285.408 
L 252.392727 285.408 
L 268.625455 285.408 
L 284.858182 285.408 
L 301.090909 285.408 
L 317.323636 285.408 
L 333.556364 285.408 
L 349.789091 285.408 
L 366.021818 285.408 
L 382.254545 285.408 
L 398.487273 285.408 
" style="fill:none;stroke:#0e4db3;stroke-linecap:square;stroke-width:3;"/>
   </g>
   <g id="line2d_120">
    <path clip-path="url(#p2b6b5e7b47)" d="M 73.832727 285.408 
L 90.065455 285.408 
L 106.298182 285.408 
L 122.530909 285.408 
L 138.763636 285.408 
L 154.996364 285.408 
L 171.229091 285.408 
L 187.461818 285.408 
L 203.694545 285.408 
L 219.927273 285.408 
L 236.16 285.408 
L 252.392727 285.408 
L 268.625455 285.408 
L 284.858182 285.408 
L 301.090909 285.408 
L 317.323636 285.408 
L 333.556364 285.408 
L 349.789091 285.408 
L 366.021818 285.408 
L 382.254545 285.408 
L 398.487273 285.408 
" style="fill:none;stroke:#d44e4e;stroke-linecap:square;stroke-width:3;"/>
   </g>
   <g id="line2d_121">
    <path clip-path="url(#p2b6b5e7b47)" d="M 73.832727 285.408 
L 90.065455 285.408 
L 106.298182 281.162441 
L 122.530909 276.235054 
L 138.763636 204.808481 
L 154.996364 171.81703 
L 171.229091 105.844231 
L 187.461818 88.9879 
L 203.694545 64.233954 
L 219.927273 69.287616 
L 236.16 72.178304 
L 252.392727 81.997879 
L 268.625455 63.648 
L 284.858182 82.555689 
L 301.090909 141.992793 
L 317.323636 214.121368 
L 333.556364 250.552334 
L 349.789091 285.408 
L 366.021818 285.408 
L 382.254545 285.408 
L 398.487273 285.408 
" style="fill:none;stroke:#0e4db3;stroke-linecap:square;stroke-width:3;"/>
   </g>
   <g id="line2d_122">
    <path clip-path="url(#p2b6b5e7b47)" d="M 73.832727 285.408 
L 90.065455 285.408 
L 106.298182 285.408 
L 122.530909 285.408 
L 138.763636 285.408 
L 154.996364 258.831617 
L 171.229091 212.849283 
L 187.461818 147.395288 
L 203.694545 160.006556 
L 219.927273 158.259181 
L 236.16 156.012869 
L 252.392727 190.235174 
L 268.625455 183.939071 
L 284.858182 169.749821 
L 301.090909 244.912391 
L 317.323636 285.408 
L 333.556364 285.408 
L 349.789091 285.408 
L 366.021818 285.408 
L 382.254545 285.408 
L 398.487273 285.408 
" style="fill:none;stroke:#d44e4e;stroke-linecap:square;stroke-width:3;"/>
   </g>
   <g id="patch_3">
    <path d="M 57.6 307.584 
L 57.6 41.472 
" style="fill:none;stroke:#000000;stroke-linecap:square;stroke-linejoin:miter;stroke-width:2.5;"/>
   </g>
   <g id="patch_4">
    <path d="M 414.72 307.584 
L 414.72 41.472 
" style="fill:none;stroke:#000000;stroke-linecap:square;stroke-linejoin:miter;stroke-width:2.5;"/>
   </g>
   <g id="patch_5">
    <path d="M 57.6 307.584 
L 414.72 307.584 
" style="fill:none;stroke:#000000;stroke-linecap:square;stroke-linejoin:miter;stroke-width:2.5;"/>
   </g>
   <g id="patch_6">
    <path d="M 57.6 41.472 
L 414.72 41.472 
" style="fill:none;stroke:#000000;stroke-linecap:square;stroke-linejoin:miter;stroke-width:2.5;"/>
   </g>
  </g>
 </g>
 <defs>
  <clipPath id="p2b6b5e7b47">
   <rect height="266.112" width="357.12" x="57.6" y="41.472"/>
  </clipPath>
 </defs>
</svg>
