<?xml version="1.0" encoding="utf-8" standalone="no"?>
<!DOCTYPE svg PUBLIC "-//W3C//DTD SVG 1.1//EN"
  "http://www.w3.org/Graphics/SVG/1.1/DTD/svg11.dtd">
<!-- Created with matplotlib (https://matplotlib.org/) -->
<svg height="345.6pt" version="1.1" viewBox="0 0 460.8 345.6" width="460.8pt" xmlns="http://www.w3.org/2000/svg" xmlns:xlink="http://www.w3.org/1999/xlink">
 <defs>
  <style type="text/css">
*{stroke-linecap:butt;stroke-linejoin:round;}
  </style>
 </defs>
 <g id="figure_1">
  <g id="patch_1">
   <path d="M 0 345.6 
L 460.8 345.6 
L 460.8 0 
L 0 0 
z
" style="fill:#ffffff;"/>
  </g>
  <g id="axes_1">
   <g id="patch_2">
    <path d="M 57.6 307.584 
L 414.72 307.584 
L 414.72 41.472 
L 57.6 41.472 
z
" style="fill:#ffffff;"/>
   </g>
   <g id="matplotlib.axis_1">
    <g id="xtick_1">
     <g id="line2d_1">
      <defs>
       <path d="M 0 0 
L 0 12 
" id="m2525bb97c1" style="stroke:#000000;stroke-width:2.5;"/>
      </defs>
      <g>
       <use style="stroke:#000000;stroke-width:2.5;" x="73.832727" xlink:href="#m2525bb97c1" y="307.584"/>
      </g>
     </g>
     <g id="text_1">
      <!-- 0 -->
      <defs>
       <path d="M 31.78125 66.40625 
Q 24.171875 66.40625 20.328125 58.90625 
Q 16.5 51.421875 16.5 36.375 
Q 16.5 21.390625 20.328125 13.890625 
Q 24.171875 6.390625 31.78125 6.390625 
Q 39.453125 6.390625 43.28125 13.890625 
Q 47.125 21.390625 47.125 36.375 
Q 47.125 51.421875 43.28125 58.90625 
Q 39.453125 66.40625 31.78125 66.40625 
z
M 31.78125 74.21875 
Q 44.046875 74.21875 50.515625 64.515625 
Q 56.984375 54.828125 56.984375 36.375 
Q 56.984375 17.96875 50.515625 8.265625 
Q 44.046875 -1.421875 31.78125 -1.421875 
Q 19.53125 -1.421875 13.0625 8.265625 
Q 6.59375 17.96875 6.59375 36.375 
Q 6.59375 54.828125 13.0625 64.515625 
Q 19.53125 74.21875 31.78125 74.21875 
z
" id="DejaVuSans-48"/>
      </defs>
      <g transform="translate(66.833977 339.800562)scale(0.22 -0.22)">
       <use xlink:href="#DejaVuSans-48"/>
      </g>
     </g>
    </g>
    <g id="xtick_2">
     <g id="line2d_2">
      <g>
       <use style="stroke:#000000;stroke-width:2.5;" x="164.014545" xlink:href="#m2525bb97c1" y="307.584"/>
      </g>
     </g>
     <g id="text_2">
      <!-- 50 -->
      <defs>
       <path d="M 10.796875 72.90625 
L 49.515625 72.90625 
L 49.515625 64.59375 
L 19.828125 64.59375 
L 19.828125 46.734375 
Q 21.96875 47.46875 24.109375 47.828125 
Q 26.265625 48.1875 28.421875 48.1875 
Q 40.625 48.1875 47.75 41.5 
Q 54.890625 34.8125 54.890625 23.390625 
Q 54.890625 11.625 47.5625 5.09375 
Q 40.234375 -1.421875 26.90625 -1.421875 
Q 22.3125 -1.421875 17.546875 -0.640625 
Q 12.796875 0.140625 7.71875 1.703125 
L 7.71875 11.625 
Q 12.109375 9.234375 16.796875 8.0625 
Q 21.484375 6.890625 26.703125 6.890625 
Q 35.15625 6.890625 40.078125 11.328125 
Q 45.015625 15.765625 45.015625 23.390625 
Q 45.015625 31 40.078125 35.4375 
Q 35.15625 39.890625 26.703125 39.890625 
Q 22.75 39.890625 18.8125 39.015625 
Q 14.890625 38.140625 10.796875 36.28125 
z
" id="DejaVuSans-53"/>
      </defs>
      <g transform="translate(150.017045 339.800562)scale(0.22 -0.22)">
       <use xlink:href="#DejaVuSans-53"/>
       <use x="63.623047" xlink:href="#DejaVuSans-48"/>
      </g>
     </g>
    </g>
    <g id="xtick_3">
     <g id="line2d_3">
      <g>
       <use style="stroke:#000000;stroke-width:2.5;" x="254.196364" xlink:href="#m2525bb97c1" y="307.584"/>
      </g>
     </g>
     <g id="text_3">
      <!-- 100 -->
      <defs>
       <path d="M 12.40625 8.296875 
L 28.515625 8.296875 
L 28.515625 63.921875 
L 10.984375 60.40625 
L 10.984375 69.390625 
L 28.421875 72.90625 
L 38.28125 72.90625 
L 38.28125 8.296875 
L 54.390625 8.296875 
L 54.390625 0 
L 12.40625 0 
z
" id="DejaVuSans-49"/>
      </defs>
      <g transform="translate(233.200114 339.800562)scale(0.22 -0.22)">
       <use xlink:href="#DejaVuSans-49"/>
       <use x="63.623047" xlink:href="#DejaVuSans-48"/>
       <use x="127.246094" xlink:href="#DejaVuSans-48"/>
      </g>
     </g>
    </g>
    <g id="xtick_4">
     <g id="line2d_4">
      <g>
       <use style="stroke:#000000;stroke-width:2.5;" x="344.378182" xlink:href="#m2525bb97c1" y="307.584"/>
      </g>
     </g>
     <g id="text_4">
      <!-- 150 -->
      <g transform="translate(323.381932 339.800562)scale(0.22 -0.22)">
       <use xlink:href="#DejaVuSans-49"/>
       <use x="63.623047" xlink:href="#DejaVuSans-53"/>
       <use x="127.246094" xlink:href="#DejaVuSans-48"/>
      </g>
     </g>
    </g>
    <g id="text_5">
     <!-- Degrees -->
     <defs>
      <path d="M 19.671875 64.796875 
L 19.671875 8.109375 
L 31.59375 8.109375 
Q 46.6875 8.109375 53.6875 14.9375 
Q 60.6875 21.78125 60.6875 36.53125 
Q 60.6875 51.171875 53.6875 57.984375 
Q 46.6875 64.796875 31.59375 64.796875 
z
M 9.8125 72.90625 
L 30.078125 72.90625 
Q 51.265625 72.90625 61.171875 64.09375 
Q 71.09375 55.28125 71.09375 36.53125 
Q 71.09375 17.671875 61.125 8.828125 
Q 51.171875 0 30.078125 0 
L 9.8125 0 
z
" id="DejaVuSans-68"/>
      <path d="M 56.203125 29.59375 
L 56.203125 25.203125 
L 14.890625 25.203125 
Q 15.484375 15.921875 20.484375 11.0625 
Q 25.484375 6.203125 34.421875 6.203125 
Q 39.59375 6.203125 44.453125 7.46875 
Q 49.3125 8.734375 54.109375 11.28125 
L 54.109375 2.78125 
Q 49.265625 0.734375 44.1875 -0.34375 
Q 39.109375 -1.421875 33.890625 -1.421875 
Q 20.796875 -1.421875 13.15625 6.1875 
Q 5.515625 13.8125 5.515625 26.8125 
Q 5.515625 40.234375 12.765625 48.109375 
Q 20.015625 56 32.328125 56 
Q 43.359375 56 49.78125 48.890625 
Q 56.203125 41.796875 56.203125 29.59375 
z
M 47.21875 32.234375 
Q 47.125 39.59375 43.09375 43.984375 
Q 39.0625 48.390625 32.421875 48.390625 
Q 24.90625 48.390625 20.390625 44.140625 
Q 15.875 39.890625 15.1875 32.171875 
z
" id="DejaVuSans-101"/>
      <path d="M 45.40625 27.984375 
Q 45.40625 37.75 41.375 43.109375 
Q 37.359375 48.484375 30.078125 48.484375 
Q 22.859375 48.484375 18.828125 43.109375 
Q 14.796875 37.75 14.796875 27.984375 
Q 14.796875 18.265625 18.828125 12.890625 
Q 22.859375 7.515625 30.078125 7.515625 
Q 37.359375 7.515625 41.375 12.890625 
Q 45.40625 18.265625 45.40625 27.984375 
z
M 54.390625 6.78125 
Q 54.390625 -7.171875 48.1875 -13.984375 
Q 42 -20.796875 29.203125 -20.796875 
Q 24.46875 -20.796875 20.265625 -20.09375 
Q 16.0625 -19.390625 12.109375 -17.921875 
L 12.109375 -9.1875 
Q 16.0625 -11.328125 19.921875 -12.34375 
Q 23.78125 -13.375 27.78125 -13.375 
Q 36.625 -13.375 41.015625 -8.765625 
Q 45.40625 -4.15625 45.40625 5.171875 
L 45.40625 9.625 
Q 42.625 4.78125 38.28125 2.390625 
Q 33.9375 0 27.875 0 
Q 17.828125 0 11.671875 7.65625 
Q 5.515625 15.328125 5.515625 27.984375 
Q 5.515625 40.671875 11.671875 48.328125 
Q 17.828125 56 27.875 56 
Q 33.9375 56 38.28125 53.609375 
Q 42.625 51.21875 45.40625 46.390625 
L 45.40625 54.6875 
L 54.390625 54.6875 
z
" id="DejaVuSans-103"/>
      <path d="M 41.109375 46.296875 
Q 39.59375 47.171875 37.8125 47.578125 
Q 36.03125 48 33.890625 48 
Q 26.265625 48 22.1875 43.046875 
Q 18.109375 38.09375 18.109375 28.8125 
L 18.109375 0 
L 9.078125 0 
L 9.078125 54.6875 
L 18.109375 54.6875 
L 18.109375 46.1875 
Q 20.953125 51.171875 25.484375 53.578125 
Q 30.03125 56 36.53125 56 
Q 37.453125 56 38.578125 55.875 
Q 39.703125 55.765625 41.0625 55.515625 
z
" id="DejaVuSans-114"/>
      <path d="M 44.28125 53.078125 
L 44.28125 44.578125 
Q 40.484375 46.53125 36.375 47.5 
Q 32.28125 48.484375 27.875 48.484375 
Q 21.1875 48.484375 17.84375 46.4375 
Q 14.5 44.390625 14.5 40.28125 
Q 14.5 37.15625 16.890625 35.375 
Q 19.28125 33.59375 26.515625 31.984375 
L 29.59375 31.296875 
Q 39.15625 29.25 43.1875 25.515625 
Q 47.21875 21.78125 47.21875 15.09375 
Q 47.21875 7.46875 41.1875 3.015625 
Q 35.15625 -1.421875 24.609375 -1.421875 
Q 20.21875 -1.421875 15.453125 -0.5625 
Q 10.6875 0.296875 5.421875 2 
L 5.421875 11.28125 
Q 10.40625 8.6875 15.234375 7.390625 
Q 20.0625 6.109375 24.8125 6.109375 
Q 31.15625 6.109375 34.5625 8.28125 
Q 37.984375 10.453125 37.984375 14.40625 
Q 37.984375 18.0625 35.515625 20.015625 
Q 33.0625 21.96875 24.703125 23.78125 
L 21.578125 24.515625 
Q 13.234375 26.265625 9.515625 29.90625 
Q 5.8125 33.546875 5.8125 39.890625 
Q 5.8125 47.609375 11.28125 51.796875 
Q 16.75 56 26.8125 56 
Q 31.78125 56 36.171875 55.265625 
Q 40.578125 54.546875 44.28125 53.078125 
z
" id="DejaVuSans-115"/>
     </defs>
     <g transform="translate(185.97 366.612125)scale(0.24 -0.24)">
      <use xlink:href="#DejaVuSans-68"/>
      <use x="77.001953" xlink:href="#DejaVuSans-101"/>
      <use x="138.525391" xlink:href="#DejaVuSans-103"/>
      <use x="202.001953" xlink:href="#DejaVuSans-114"/>
      <use x="243.083984" xlink:href="#DejaVuSans-101"/>
      <use x="304.607422" xlink:href="#DejaVuSans-101"/>
      <use x="366.130859" xlink:href="#DejaVuSans-115"/>
     </g>
    </g>
   </g>
   <g id="matplotlib.axis_2">
    <g id="ytick_1">
     <g id="line2d_5">
      <defs>
       <path d="M 0 0 
L -12 0 
" id="m8229361b8c" style="stroke:#000000;stroke-width:2.5;"/>
      </defs>
      <g>
       <use style="stroke:#000000;stroke-width:2.5;" x="57.6" xlink:href="#m8229361b8c" y="285.408"/>
      </g>
     </g>
     <g id="text_6">
      <!-- 0 -->
      <g transform="translate(28.1025 293.766281)scale(0.22 -0.22)">
       <use xlink:href="#DejaVuSans-48"/>
      </g>
     </g>
    </g>
    <g id="ytick_2">
     <g id="line2d_6">
      <g>
       <use style="stroke:#000000;stroke-width:2.5;" x="57.6" xlink:href="#m8229361b8c" y="218.135522"/>
      </g>
     </g>
     <g id="text_7">
      <!-- 2 -->
      <defs>
       <path d="M 19.1875 8.296875 
L 53.609375 8.296875 
L 53.609375 0 
L 7.328125 0 
L 7.328125 8.296875 
Q 12.9375 14.109375 22.625 23.890625 
Q 32.328125 33.6875 34.8125 36.53125 
Q 39.546875 41.84375 41.421875 45.53125 
Q 43.3125 49.21875 43.3125 52.78125 
Q 43.3125 58.59375 39.234375 62.25 
Q 35.15625 65.921875 28.609375 65.921875 
Q 23.96875 65.921875 18.8125 64.3125 
Q 13.671875 62.703125 7.8125 59.421875 
L 7.8125 69.390625 
Q 13.765625 71.78125 18.9375 73 
Q 24.125 74.21875 28.421875 74.21875 
Q 39.75 74.21875 46.484375 68.546875 
Q 53.21875 62.890625 53.21875 53.421875 
Q 53.21875 48.921875 51.53125 44.890625 
Q 49.859375 40.875 45.40625 35.40625 
Q 44.1875 33.984375 37.640625 27.21875 
Q 31.109375 20.453125 19.1875 8.296875 
z
" id="DejaVuSans-50"/>
      </defs>
      <g transform="translate(28.1025 226.493803)scale(0.22 -0.22)">
       <use xlink:href="#DejaVuSans-50"/>
      </g>
     </g>
    </g>
    <g id="ytick_3">
     <g id="line2d_7">
      <g>
       <use style="stroke:#000000;stroke-width:2.5;" x="57.6" xlink:href="#m8229361b8c" y="150.863044"/>
      </g>
     </g>
     <g id="text_8">
      <!-- 4 -->
      <defs>
       <path d="M 37.796875 64.3125 
L 12.890625 25.390625 
L 37.796875 25.390625 
z
M 35.203125 72.90625 
L 47.609375 72.90625 
L 47.609375 25.390625 
L 58.015625 25.390625 
L 58.015625 17.1875 
L 47.609375 17.1875 
L 47.609375 0 
L 37.796875 0 
L 37.796875 17.1875 
L 4.890625 17.1875 
L 4.890625 26.703125 
z
" id="DejaVuSans-52"/>
      </defs>
      <g transform="translate(28.1025 159.221326)scale(0.22 -0.22)">
       <use xlink:href="#DejaVuSans-52"/>
      </g>
     </g>
    </g>
    <g id="ytick_4">
     <g id="line2d_8">
      <g>
       <use style="stroke:#000000;stroke-width:2.5;" x="57.6" xlink:href="#m8229361b8c" y="83.590566"/>
      </g>
     </g>
     <g id="text_9">
      <!-- 6 -->
      <defs>
       <path d="M 33.015625 40.375 
Q 26.375 40.375 22.484375 35.828125 
Q 18.609375 31.296875 18.609375 23.390625 
Q 18.609375 15.53125 22.484375 10.953125 
Q 26.375 6.390625 33.015625 6.390625 
Q 39.65625 6.390625 43.53125 10.953125 
Q 47.40625 15.53125 47.40625 23.390625 
Q 47.40625 31.296875 43.53125 35.828125 
Q 39.65625 40.375 33.015625 40.375 
z
M 52.59375 71.296875 
L 52.59375 62.3125 
Q 48.875 64.0625 45.09375 64.984375 
Q 41.3125 65.921875 37.59375 65.921875 
Q 27.828125 65.921875 22.671875 59.328125 
Q 17.53125 52.734375 16.796875 39.40625 
Q 19.671875 43.65625 24.015625 45.921875 
Q 28.375 48.1875 33.59375 48.1875 
Q 44.578125 48.1875 50.953125 41.515625 
Q 57.328125 34.859375 57.328125 23.390625 
Q 57.328125 12.15625 50.6875 5.359375 
Q 44.046875 -1.421875 33.015625 -1.421875 
Q 20.359375 -1.421875 13.671875 8.265625 
Q 6.984375 17.96875 6.984375 36.375 
Q 6.984375 53.65625 15.1875 63.9375 
Q 23.390625 74.21875 37.203125 74.21875 
Q 40.921875 74.21875 44.703125 73.484375 
Q 48.484375 72.75 52.59375 71.296875 
z
" id="DejaVuSans-54"/>
      </defs>
      <g transform="translate(28.1025 91.948848)scale(0.22 -0.22)">
       <use xlink:href="#DejaVuSans-54"/>
      </g>
     </g>
    </g>
    <g id="text_10">
     <!-- Activation -->
     <defs>
      <path d="M 34.1875 63.1875 
L 20.796875 26.90625 
L 47.609375 26.90625 
z
M 28.609375 72.90625 
L 39.796875 72.90625 
L 67.578125 0 
L 57.328125 0 
L 50.6875 18.703125 
L 17.828125 18.703125 
L 11.1875 0 
L 0.78125 0 
z
" id="DejaVuSans-65"/>
      <path d="M 48.78125 52.59375 
L 48.78125 44.1875 
Q 44.96875 46.296875 41.140625 47.34375 
Q 37.3125 48.390625 33.40625 48.390625 
Q 24.65625 48.390625 19.8125 42.84375 
Q 14.984375 37.3125 14.984375 27.296875 
Q 14.984375 17.28125 19.8125 11.734375 
Q 24.65625 6.203125 33.40625 6.203125 
Q 37.3125 6.203125 41.140625 7.25 
Q 44.96875 8.296875 48.78125 10.40625 
L 48.78125 2.09375 
Q 45.015625 0.34375 40.984375 -0.53125 
Q 36.96875 -1.421875 32.421875 -1.421875 
Q 20.0625 -1.421875 12.78125 6.34375 
Q 5.515625 14.109375 5.515625 27.296875 
Q 5.515625 40.671875 12.859375 48.328125 
Q 20.21875 56 33.015625 56 
Q 37.15625 56 41.109375 55.140625 
Q 45.0625 54.296875 48.78125 52.59375 
z
" id="DejaVuSans-99"/>
      <path d="M 18.3125 70.21875 
L 18.3125 54.6875 
L 36.8125 54.6875 
L 36.8125 47.703125 
L 18.3125 47.703125 
L 18.3125 18.015625 
Q 18.3125 11.328125 20.140625 9.421875 
Q 21.96875 7.515625 27.59375 7.515625 
L 36.8125 7.515625 
L 36.8125 0 
L 27.59375 0 
Q 17.1875 0 13.234375 3.875 
Q 9.28125 7.765625 9.28125 18.015625 
L 9.28125 47.703125 
L 2.6875 47.703125 
L 2.6875 54.6875 
L 9.28125 54.6875 
L 9.28125 70.21875 
z
" id="DejaVuSans-116"/>
      <path d="M 9.421875 54.6875 
L 18.40625 54.6875 
L 18.40625 0 
L 9.421875 0 
z
M 9.421875 75.984375 
L 18.40625 75.984375 
L 18.40625 64.59375 
L 9.421875 64.59375 
z
" id="DejaVuSans-105"/>
      <path d="M 2.984375 54.6875 
L 12.5 54.6875 
L 29.59375 8.796875 
L 46.6875 54.6875 
L 56.203125 54.6875 
L 35.6875 0 
L 23.484375 0 
z
" id="DejaVuSans-118"/>
      <path d="M 34.28125 27.484375 
Q 23.390625 27.484375 19.1875 25 
Q 14.984375 22.515625 14.984375 16.5 
Q 14.984375 11.71875 18.140625 8.90625 
Q 21.296875 6.109375 26.703125 6.109375 
Q 34.1875 6.109375 38.703125 11.40625 
Q 43.21875 16.703125 43.21875 25.484375 
L 43.21875 27.484375 
z
M 52.203125 31.203125 
L 52.203125 0 
L 43.21875 0 
L 43.21875 8.296875 
Q 40.140625 3.328125 35.546875 0.953125 
Q 30.953125 -1.421875 24.3125 -1.421875 
Q 15.921875 -1.421875 10.953125 3.296875 
Q 6 8.015625 6 15.921875 
Q 6 25.140625 12.171875 29.828125 
Q 18.359375 34.515625 30.609375 34.515625 
L 43.21875 34.515625 
L 43.21875 35.40625 
Q 43.21875 41.609375 39.140625 45 
Q 35.0625 48.390625 27.6875 48.390625 
Q 23 48.390625 18.546875 47.265625 
Q 14.109375 46.140625 10.015625 43.890625 
L 10.015625 52.203125 
Q 14.9375 54.109375 19.578125 55.046875 
Q 24.21875 56 28.609375 56 
Q 40.484375 56 46.34375 49.84375 
Q 52.203125 43.703125 52.203125 31.203125 
z
" id="DejaVuSans-97"/>
      <path d="M 30.609375 48.390625 
Q 23.390625 48.390625 19.1875 42.75 
Q 14.984375 37.109375 14.984375 27.296875 
Q 14.984375 17.484375 19.15625 11.84375 
Q 23.34375 6.203125 30.609375 6.203125 
Q 37.796875 6.203125 41.984375 11.859375 
Q 46.1875 17.53125 46.1875 27.296875 
Q 46.1875 37.015625 41.984375 42.703125 
Q 37.796875 48.390625 30.609375 48.390625 
z
M 30.609375 56 
Q 42.328125 56 49.015625 48.375 
Q 55.71875 40.765625 55.71875 27.296875 
Q 55.71875 13.875 49.015625 6.21875 
Q 42.328125 -1.421875 30.609375 -1.421875 
Q 18.84375 -1.421875 12.171875 6.21875 
Q 5.515625 13.875 5.515625 27.296875 
Q 5.515625 40.765625 12.171875 48.375 
Q 18.84375 56 30.609375 56 
z
" id="DejaVuSans-111"/>
      <path d="M 54.890625 33.015625 
L 54.890625 0 
L 45.90625 0 
L 45.90625 32.71875 
Q 45.90625 40.484375 42.875 44.328125 
Q 39.84375 48.1875 33.796875 48.1875 
Q 26.515625 48.1875 22.3125 43.546875 
Q 18.109375 38.921875 18.109375 30.90625 
L 18.109375 0 
L 9.078125 0 
L 9.078125 54.6875 
L 18.109375 54.6875 
L 18.109375 46.1875 
Q 21.34375 51.125 25.703125 53.5625 
Q 30.078125 56 35.796875 56 
Q 45.21875 56 50.046875 50.171875 
Q 54.890625 44.34375 54.890625 33.015625 
z
" id="DejaVuSans-110"/>
     </defs>
     <g transform="translate(19.11125 234.813)rotate(-90)scale(0.24 -0.24)">
      <use xlink:href="#DejaVuSans-65"/>
      <use x="68.392578" xlink:href="#DejaVuSans-99"/>
      <use x="123.373047" xlink:href="#DejaVuSans-116"/>
      <use x="162.582031" xlink:href="#DejaVuSans-105"/>
      <use x="190.365234" xlink:href="#DejaVuSans-118"/>
      <use x="249.544922" xlink:href="#DejaVuSans-97"/>
      <use x="310.824219" xlink:href="#DejaVuSans-116"/>
      <use x="350.033203" xlink:href="#DejaVuSans-105"/>
      <use x="377.816406" xlink:href="#DejaVuSans-111"/>
      <use x="438.998047" xlink:href="#DejaVuSans-110"/>
     </g>
    </g>
   </g>
   <g id="line2d_9">
    <path clip-path="url(#p749338c9b8)" d="M 73.832727 276.848706 
L 90.065455 262.275138 
L 106.298182 257.222664 
L 122.530909 250.697544 
L 138.763636 243.064584 
L 154.996364 241.986534 
L 171.229091 243.556208 
L 187.461818 232.165128 
L 203.694545 228.378931 
L 219.927273 229.077891 
L 236.16 234.090554 
L 252.392727 233.9269 
L 268.625455 234.706986 
L 284.858182 253.571633 
L 301.090909 250.611319 
L 317.323636 265.268942 
L 333.556364 268.979284 
L 349.789091 272.845891 
L 366.021818 270.693118 
L 382.254545 273.410925 
L 398.487273 276.848706 
" style="fill:none;stroke:#0e4db3;stroke-linecap:square;stroke-width:3;"/>
   </g>
   <g id="line2d_10">
    <path clip-path="url(#p749338c9b8)" d="M 73.832727 278.597556 
L 90.065455 266.662132 
L 106.298182 262.1788 
L 122.530909 257.354952 
L 138.763636 251.461887 
L 154.996364 250.826871 
L 171.229091 251.543554 
L 187.461818 241.440976 
L 203.694545 239.562559 
L 219.927273 239.026816 
L 236.16 241.607268 
L 252.392727 243.257008 
L 268.625455 243.608639 
L 284.858182 259.902474 
L 301.090909 256.965389 
L 317.323636 268.800132 
L 333.556364 271.648888 
L 349.789091 274.23184 
L 366.021818 273.127033 
L 382.254545 275.160334 
L 398.487273 278.597556 
" style="fill:none;stroke:#d44e4e;stroke-linecap:square;stroke-width:3;"/>
   </g>
   <g id="line2d_11">
    <path clip-path="url(#p749338c9b8)" d="M 73.832727 227.222827 
L 90.065455 226.78066 
L 106.298182 230.702783 
L 122.530909 238.24151 
L 138.763636 239.584328 
L 154.996364 241.230524 
L 171.229091 241.125781 
L 187.461818 232.642204 
L 203.694545 229.831949 
L 219.927273 239.854529 
L 236.16 239.847865 
L 252.392727 238.347143 
L 268.625455 230.005632 
L 284.858182 236.034879 
L 301.090909 228.492447 
L 317.323636 231.117127 
L 333.556364 230.823256 
L 349.789091 221.117888 
L 366.021818 223.875065 
L 382.254545 221.265799 
L 398.487273 227.222827 
" style="fill:none;stroke:#0e4db3;stroke-linecap:square;stroke-width:3;"/>
   </g>
   <g id="line2d_12">
    <path clip-path="url(#p749338c9b8)" d="M 73.832727 239.35011 
L 90.065455 234.063453 
L 106.298182 240.610873 
L 122.530909 247.957897 
L 138.763636 248.841867 
L 154.996364 250.311514 
L 171.229091 250.309669 
L 187.461818 243.762073 
L 203.694545 241.772398 
L 219.927273 249.44171 
L 236.16 249.414364 
L 252.392727 247.561445 
L 268.625455 241.448029 
L 284.858182 245.27804 
L 301.090909 240.451092 
L 317.323636 242.442904 
L 333.556364 242.122236 
L 349.789091 234.609276 
L 366.021818 235.992761 
L 382.254545 234.576051 
L 398.487273 239.35011 
" style="fill:none;stroke:#d44e4e;stroke-linecap:square;stroke-width:3;"/>
   </g>
   <g id="line2d_13">
    <path clip-path="url(#p749338c9b8)" d="M 73.832727 226.430613 
L 90.065455 223.581572 
L 106.298182 223.558989 
L 122.530909 223.574627 
L 138.763636 217.339137 
L 154.996364 217.64788 
L 171.229091 217.09022 
L 187.461818 221.268185 
L 203.694545 216.216174 
L 219.927273 218.495971 
L 236.16 222.325801 
L 252.392727 222.392143 
L 268.625455 223.079895 
L 284.858182 227.247904 
L 301.090909 228.012235 
L 317.323636 228.34288 
L 333.556364 228.189053 
L 349.789091 228.673267 
L 366.021818 227.345851 
L 382.254545 226.645888 
L 398.487273 226.430613 
" style="fill:none;stroke:#0e4db3;stroke-linecap:square;stroke-width:3;"/>
   </g>
   <g id="line2d_14">
    <path clip-path="url(#p749338c9b8)" d="M 73.832727 236.75301 
L 90.065455 234.701649 
L 106.298182 234.529735 
L 122.530909 234.343313 
L 138.763636 230.466123 
L 154.996364 230.402216 
L 171.229091 229.481036 
L 187.461818 232.646394 
L 203.694545 228.132684 
L 219.927273 230.302678 
L 236.16 233.422393 
L 252.392727 233.350198 
L 268.625455 233.973558 
L 284.858182 236.196308 
L 301.090909 236.759125 
L 317.323636 237.520352 
L 333.556364 237.906644 
L 349.789091 238.273167 
L 366.021818 237.183449 
L 382.254545 236.757132 
L 398.487273 236.75301 
" style="fill:none;stroke:#d44e4e;stroke-linecap:square;stroke-width:3;"/>
   </g>
   <g id="line2d_15">
    <path clip-path="url(#p749338c9b8)" d="M 73.832727 218.649087 
L 90.065455 218.569694 
L 106.298182 218.831788 
L 122.530909 225.088597 
L 138.763636 225.72711 
L 154.996364 227.323753 
L 171.229091 225.928644 
L 187.461818 224.258105 
L 203.694545 219.852093 
L 219.927273 221.408895 
L 236.16 220.78027 
L 252.392727 217.98024 
L 268.625455 216.996384 
L 284.858182 217.050419 
L 301.090909 213.942677 
L 317.323636 213.460833 
L 333.556364 206.016247 
L 349.789091 212.858969 
L 366.021818 212.495525 
L 382.254545 215.770274 
L 398.487273 218.649087 
" style="fill:none;stroke:#0e4db3;stroke-linecap:square;stroke-width:3;"/>
   </g>
   <g id="line2d_16">
    <path clip-path="url(#p749338c9b8)" d="M 73.832727 232.711392 
L 90.065455 232.708786 
L 106.298182 232.889016 
L 122.530909 237.548428 
L 138.763636 237.853146 
L 154.996364 238.624229 
L 171.229091 238.124333 
L 187.461818 236.003102 
L 203.694545 233.859072 
L 219.927273 234.69735 
L 236.16 234.820105 
L 252.392727 231.768515 
L 268.625455 230.391478 
L 284.858182 230.007681 
L 301.090909 228.278471 
L 317.323636 228.277244 
L 333.556364 223.32947 
L 349.789091 227.880683 
L 366.021818 227.330529 
L 382.254545 230.214415 
L 398.487273 232.711392 
" style="fill:none;stroke:#d44e4e;stroke-linecap:square;stroke-width:3;"/>
   </g>
   <g id="line2d_17">
    <path clip-path="url(#p749338c9b8)" d="M 73.832727 263.989275 
L 90.065455 263.661817 
L 106.298182 263.956229 
L 122.530909 263.243822 
L 138.763636 255.010197 
L 154.996364 253.94303 
L 171.229091 247.289404 
L 187.461818 249.339105 
L 203.694545 239.254967 
L 219.927273 231.331003 
L 236.16 231.455891 
L 252.392727 222.986496 
L 268.625455 215.524163 
L 284.858182 219.509596 
L 301.090909 209.181088 
L 317.323636 215.18311 
L 333.556364 216.885442 
L 349.789091 244.598579 
L 366.021818 247.160145 
L 382.254545 246.877185 
L 398.487273 263.989275 
" style="fill:none;stroke:#0e4db3;stroke-linecap:square;stroke-width:3;"/>
   </g>
   <g id="line2d_18">
    <path clip-path="url(#p749338c9b8)" d="M 73.832727 265.824631 
L 90.065455 265.346103 
L 106.298182 265.60442 
L 122.530909 265.29361 
L 138.763636 258.845744 
L 154.996364 258.038041 
L 171.229091 252.21309 
L 187.461818 253.782616 
L 203.694545 245.870344 
L 219.927273 240.076866 
L 236.16 240.092881 
L 252.392727 233.018331 
L 268.625455 227.109945 
L 284.858182 230.965041 
L 301.090909 222.42722 
L 317.323636 226.650876 
L 333.556364 228.304639 
L 349.789091 249.963892 
L 366.021818 252.103329 
L 382.254545 252.082028 
L 398.487273 265.824631 
" style="fill:none;stroke:#d44e4e;stroke-linecap:square;stroke-width:3;"/>
   </g>
   <g id="line2d_19">
    <path clip-path="url(#p749338c9b8)" d="M 73.832727 285.408 
L 90.065455 285.408 
L 106.298182 285.408 
L 122.530909 285.408 
L 138.763636 285.408 
L 154.996364 285.408 
L 171.229091 285.408 
L 187.461818 285.408 
L 203.694545 285.408 
L 219.927273 285.408 
L 236.16 285.408 
L 252.392727 285.408 
L 268.625455 285.408 
L 284.858182 285.408 
L 301.090909 285.408 
L 317.323636 285.408 
L 333.556364 285.408 
L 349.789091 285.408 
L 366.021818 285.408 
L 382.254545 285.408 
L 398.487273 285.408 
" style="fill:none;stroke:#0e4db3;stroke-linecap:square;stroke-width:3;"/>
   </g>
   <g id="line2d_20">
    <path clip-path="url(#p749338c9b8)" d="M 73.832727 285.408 
L 90.065455 285.408 
L 106.298182 285.408 
L 122.530909 285.408 
L 138.763636 285.408 
L 154.996364 285.408 
L 171.229091 285.408 
L 187.461818 285.408 
L 203.694545 285.408 
L 219.927273 285.408 
L 236.16 285.408 
L 252.392727 285.408 
L 268.625455 285.408 
L 284.858182 285.408 
L 301.090909 285.408 
L 317.323636 285.408 
L 333.556364 285.408 
L 349.789091 285.408 
L 366.021818 285.408 
L 382.254545 285.408 
L 398.487273 285.408 
" style="fill:none;stroke:#d44e4e;stroke-linecap:square;stroke-width:3;"/>
   </g>
   <g id="line2d_21">
    <path clip-path="url(#p749338c9b8)" d="M 73.832727 285.408 
L 90.065455 285.107313 
L 106.298182 285.28822 
L 122.530909 285.178206 
L 138.763636 285.3072 
L 154.996364 285.408 
L 171.229091 285.408 
L 187.461818 285.408 
L 203.694545 285.408 
L 219.927273 285.408 
L 236.16 285.408 
L 252.392727 285.408 
L 268.625455 284.708761 
L 284.858182 285.408 
L 301.090909 285.408 
L 317.323636 285.408 
L 333.556364 285.408 
L 349.789091 285.408 
L 366.021818 285.408 
L 382.254545 285.408 
L 398.487273 285.408 
" style="fill:none;stroke:#0e4db3;stroke-linecap:square;stroke-width:3;"/>
   </g>
   <g id="line2d_22">
    <path clip-path="url(#p749338c9b8)" d="M 73.832727 285.408 
L 90.065455 285.408 
L 106.298182 285.408 
L 122.530909 285.408 
L 138.763636 285.408 
L 154.996364 285.408 
L 171.229091 285.408 
L 187.461818 285.408 
L 203.694545 285.408 
L 219.927273 285.408 
L 236.16 285.408 
L 252.392727 285.408 
L 268.625455 285.408 
L 284.858182 285.408 
L 301.090909 285.408 
L 317.323636 285.408 
L 333.556364 285.408 
L 349.789091 285.408 
L 366.021818 285.408 
L 382.254545 285.408 
L 398.487273 285.408 
" style="fill:none;stroke:#d44e4e;stroke-linecap:square;stroke-width:3;"/>
   </g>
   <g id="line2d_23">
    <path clip-path="url(#p749338c9b8)" d="M 73.832727 268.136847 
L 90.065455 262.688981 
L 106.298182 254.706868 
L 122.530909 253.938106 
L 138.763636 245.689428 
L 154.996364 244.01597 
L 171.229091 238.483803 
L 187.461818 239.176251 
L 203.694545 231.220863 
L 219.927273 231.625575 
L 236.16 250.510425 
L 252.392727 232.582807 
L 268.625455 241.453157 
L 284.858182 252.43987 
L 301.090909 250.288694 
L 317.323636 258.024561 
L 333.556364 258.979058 
L 349.789091 260.54729 
L 366.021818 261.078195 
L 382.254545 266.282124 
L 398.487273 268.136847 
" style="fill:none;stroke:#0e4db3;stroke-linecap:square;stroke-width:3;"/>
   </g>
   <g id="line2d_24">
    <path clip-path="url(#p749338c9b8)" d="M 73.832727 268.467371 
L 90.065455 264.298578 
L 106.298182 257.831471 
L 122.530909 256.553443 
L 138.763636 250.413859 
L 154.996364 249.297844 
L 171.229091 244.756102 
L 187.461818 244.948971 
L 203.694545 238.986602 
L 219.927273 239.01348 
L 236.16 254.242145 
L 252.392727 239.896543 
L 268.625455 246.910462 
L 284.858182 256.150156 
L 301.090909 254.027982 
L 317.323636 260.192708 
L 333.556364 260.870286 
L 349.789091 261.503004 
L 366.021818 262.113904 
L 382.254545 266.654237 
L 398.487273 268.467371 
" style="fill:none;stroke:#d44e4e;stroke-linecap:square;stroke-width:3;"/>
   </g>
   <g id="line2d_25">
    <path clip-path="url(#p749338c9b8)" d="M 73.832727 249.754174 
L 90.065455 247.285586 
L 106.298182 243.571878 
L 122.530909 242.071513 
L 138.763636 243.901179 
L 154.996364 244.001246 
L 171.229091 244.178253 
L 187.461818 248.049733 
L 203.694545 247.447616 
L 219.927273 249.396003 
L 236.16 251.109286 
L 252.392727 249.012851 
L 268.625455 248.566927 
L 284.858182 248.612221 
L 301.090909 248.697187 
L 317.323636 249.033381 
L 333.556364 241.222055 
L 349.789091 245.531857 
L 366.021818 244.185502 
L 382.254545 249.882258 
L 398.487273 249.754174 
" style="fill:none;stroke:#0e4db3;stroke-linecap:square;stroke-width:3;"/>
   </g>
   <g id="line2d_26">
    <path clip-path="url(#p749338c9b8)" d="M 73.832727 257.366861 
L 90.065455 255.39952 
L 106.298182 252.531356 
L 122.530909 250.815475 
L 138.763636 253.495072 
L 154.996364 253.630666 
L 171.229091 253.572268 
L 187.461818 255.949999 
L 203.694545 254.73164 
L 219.927273 257.573656 
L 236.16 256.266509 
L 252.392727 256.480088 
L 268.625455 256.412596 
L 284.858182 256.875929 
L 301.090909 257.079618 
L 317.323636 257.009021 
L 333.556364 250.944774 
L 349.789091 252.267503 
L 366.021818 251.982778 
L 382.254545 257.367819 
L 398.487273 257.366861 
" style="fill:none;stroke:#d44e4e;stroke-linecap:square;stroke-width:3;"/>
   </g>
   <g id="line2d_27">
    <path clip-path="url(#p749338c9b8)" d="M 73.832727 284.112425 
L 90.065455 270.45138 
L 106.298182 258.934774 
L 122.530909 259.669377 
L 138.763636 245.701357 
L 154.996364 244.65002 
L 171.229091 244.853335 
L 187.461818 246.107866 
L 203.694545 242.603996 
L 219.927273 242.597793 
L 236.16 247.594586 
L 252.392727 244.302419 
L 268.625455 248.577737 
L 284.858182 258.838693 
L 301.090909 254.709077 
L 317.323636 269.739513 
L 333.556364 269.977836 
L 349.789091 273.674562 
L 366.021818 280.906145 
L 382.254545 274.273831 
L 398.487273 284.112425 
" style="fill:none;stroke:#0e4db3;stroke-linecap:square;stroke-width:3;"/>
   </g>
   <g id="line2d_28">
    <path clip-path="url(#p749338c9b8)" d="M 73.832727 285.071834 
L 90.065455 274.660363 
L 106.298182 265.378839 
L 122.530909 262.766884 
L 138.763636 255.286281 
L 154.996364 254.374339 
L 171.229091 254.405326 
L 187.461818 254.35992 
L 203.694545 251.942184 
L 219.927273 251.966968 
L 236.16 256.224677 
L 252.392727 253.215344 
L 268.625455 255.889861 
L 284.858182 265.521169 
L 301.090909 261.474615 
L 317.323636 272.988312 
L 333.556364 274.247201 
L 349.789091 277.537921 
L 366.021818 282.446717 
L 382.254545 277.552965 
L 398.487273 285.071834 
" style="fill:none;stroke:#d44e4e;stroke-linecap:square;stroke-width:3;"/>
   </g>
   <g id="line2d_29">
    <path clip-path="url(#p749338c9b8)" d="M 73.832727 232.118314 
L 90.065455 231.797081 
L 106.298182 228.52461 
L 122.530909 233.73266 
L 138.763636 236.847588 
L 154.996364 247.850051 
L 171.229091 249.78689 
L 187.461818 248.011772 
L 203.694545 230.976356 
L 219.927273 219.315612 
L 236.16 220.220204 
L 252.392727 219.102606 
L 268.625455 230.91633 
L 284.858182 238.161022 
L 301.090909 228.299342 
L 317.323636 224.762732 
L 333.556364 223.858694 
L 349.789091 222.195468 
L 366.021818 218.065985 
L 382.254545 221.917777 
L 398.487273 232.118314 
" style="fill:none;stroke:#0e4db3;stroke-linecap:square;stroke-width:3;"/>
   </g>
   <g id="line2d_30">
    <path clip-path="url(#p749338c9b8)" d="M 73.832727 239.717171 
L 90.065455 239.708402 
L 106.298182 237.062326 
L 122.530909 240.497056 
L 138.763636 244.01196 
L 154.996364 252.405306 
L 171.229091 253.864763 
L 187.461818 251.637474 
L 203.694545 238.16915 
L 219.927273 229.723966 
L 236.16 230.341761 
L 252.392727 229.47719 
L 268.625455 238.702567 
L 284.858182 244.546304 
L 301.090909 236.535906 
L 317.323636 233.833309 
L 333.556364 233.227351 
L 349.789091 231.961208 
L 366.021818 228.326375 
L 382.254545 231.604957 
L 398.487273 239.717171 
" style="fill:none;stroke:#d44e4e;stroke-linecap:square;stroke-width:3;"/>
   </g>
   <g id="line2d_31">
    <path clip-path="url(#p749338c9b8)" d="M 73.832727 230.412 
L 90.065455 230.055224 
L 106.298182 235.805449 
L 122.530909 237.412446 
L 138.763636 248.830592 
L 154.996364 256.656253 
L 171.229091 248.662768 
L 187.461818 238.409262 
L 203.694545 234.176471 
L 219.927273 244.922655 
L 236.16 243.638685 
L 252.392727 243.682247 
L 268.625455 249.818406 
L 284.858182 254.420359 
L 301.090909 247.021692 
L 317.323636 245.669997 
L 333.556364 238.637926 
L 349.789091 238.346918 
L 366.021818 234.30174 
L 382.254545 230.636775 
L 398.487273 230.412 
" style="fill:none;stroke:#0e4db3;stroke-linecap:square;stroke-width:3;"/>
   </g>
   <g id="line2d_32">
    <path clip-path="url(#p749338c9b8)" d="M 73.832727 239.06644 
L 90.065455 237.557543 
L 106.298182 243.431168 
L 122.530909 241.365985 
L 138.763636 253.702938 
L 154.996364 259.774491 
L 171.229091 253.15361 
L 187.461818 244.656576 
L 203.694545 241.391804 
L 219.927273 250.384796 
L 236.16 249.362137 
L 252.392727 249.169817 
L 268.625455 254.348905 
L 284.858182 257.603308 
L 301.090909 252.423835 
L 317.323636 250.549504 
L 333.556364 245.587889 
L 349.789091 244.374959 
L 366.021818 241.569644 
L 382.254545 237.534374 
L 398.487273 239.06644 
" style="fill:none;stroke:#d44e4e;stroke-linecap:square;stroke-width:3;"/>
   </g>
   <g id="line2d_33">
    <path clip-path="url(#p749338c9b8)" d="M 73.832727 204.198498 
L 90.065455 204.082768 
L 106.298182 202.262293 
L 122.530909 203.359746 
L 138.763636 203.246294 
L 154.996364 203.30482 
L 171.229091 202.203157 
L 187.461818 203.024803 
L 203.694545 199.249574 
L 219.927273 200.936412 
L 236.16 201.26356 
L 252.392727 201.192764 
L 268.625455 202.558605 
L 284.858182 203.602833 
L 301.090909 202.709789 
L 317.323636 203.146684 
L 333.556364 202.836874 
L 349.789091 203.752341 
L 366.021818 202.433734 
L 382.254545 203.253808 
L 398.487273 204.198498 
" style="fill:none;stroke:#0e4db3;stroke-linecap:square;stroke-width:3;"/>
   </g>
   <g id="line2d_34">
    <path clip-path="url(#p749338c9b8)" d="M 73.832727 217.257234 
L 90.065455 216.693118 
L 106.298182 215.515398 
L 122.530909 216.23919 
L 138.763636 216.221106 
L 154.996364 216.253729 
L 171.229091 215.399436 
L 187.461818 216.186759 
L 203.694545 213.092665 
L 219.927273 214.627887 
L 236.16 214.795447 
L 252.392727 214.759824 
L 268.625455 214.772976 
L 284.858182 216.099506 
L 301.090909 215.35767 
L 317.323636 215.937296 
L 333.556364 215.851936 
L 349.789091 216.653734 
L 366.021818 215.600741 
L 382.254545 216.409091 
L 398.487273 217.257234 
" style="fill:none;stroke:#d44e4e;stroke-linecap:square;stroke-width:3;"/>
   </g>
   <g id="line2d_35">
    <path clip-path="url(#p749338c9b8)" d="M 73.832727 246.05428 
L 90.065455 238.875336 
L 106.298182 238.813028 
L 122.530909 243.183409 
L 138.763636 243.786893 
L 154.996364 242.076457 
L 171.229091 241.980227 
L 187.461818 241.73495 
L 203.694545 247.388633 
L 219.927273 247.238215 
L 236.16 248.545547 
L 252.392727 256.728374 
L 268.625455 265.467268 
L 284.858182 268.765877 
L 301.090909 268.856307 
L 317.323636 267.545978 
L 333.556364 266.123249 
L 349.789091 263.915231 
L 366.021818 254.845998 
L 382.254545 246.115913 
L 398.487273 246.05428 
" style="fill:none;stroke:#0e4db3;stroke-linecap:square;stroke-width:3;"/>
   </g>
   <g id="line2d_36">
    <path clip-path="url(#p749338c9b8)" d="M 73.832727 251.606503 
L 90.065455 245.85139 
L 106.298182 246.077015 
L 122.530909 247.608468 
L 138.763636 249.903541 
L 154.996364 248.410498 
L 171.229091 248.23451 
L 187.461818 247.865721 
L 203.694545 252.403036 
L 219.927273 252.412525 
L 236.16 253.60587 
L 252.392727 260.075274 
L 268.625455 267.087964 
L 284.858182 269.516563 
L 301.090909 269.553073 
L 317.323636 268.427083 
L 333.556364 267.425898 
L 349.789091 265.543969 
L 366.021818 258.145344 
L 382.254545 251.002967 
L 398.487273 251.606503 
" style="fill:none;stroke:#d44e4e;stroke-linecap:square;stroke-width:3;"/>
   </g>
   <g id="line2d_37">
    <path clip-path="url(#p749338c9b8)" d="M 73.832727 180.528281 
L 90.065455 180.51383 
L 106.298182 180.314674 
L 122.530909 182.640186 
L 138.763636 181.9322 
L 154.996364 182.310199 
L 171.229091 182.463291 
L 187.461818 183.197862 
L 203.694545 180.686394 
L 219.927273 182.261505 
L 236.16 182.353408 
L 252.392727 181.932561 
L 268.625455 182.085445 
L 284.858182 184.867988 
L 301.090909 182.659657 
L 317.323636 182.536381 
L 333.556364 181.918847 
L 349.789091 181.97982 
L 366.021818 180.370433 
L 382.254545 180.511889 
L 398.487273 180.528281 
" style="fill:none;stroke:#0e4db3;stroke-linecap:square;stroke-width:3;"/>
   </g>
   <g id="line2d_38">
    <path clip-path="url(#p749338c9b8)" d="M 73.832727 200.141896 
L 90.065455 200.139402 
L 106.298182 199.92646 
L 122.530909 201.575791 
L 138.763636 200.750648 
L 154.996364 201.487256 
L 171.229091 201.274915 
L 187.461818 202.354437 
L 203.694545 200.040184 
L 219.927273 201.624854 
L 236.16 201.793007 
L 252.392727 201.248595 
L 268.625455 200.360997 
L 284.858182 201.830859 
L 301.090909 201.064516 
L 317.323636 201.067419 
L 333.556364 200.81235 
L 349.789091 201.099176 
L 366.021818 199.717231 
L 382.254545 200.017617 
L 398.487273 200.141896 
" style="fill:none;stroke:#d44e4e;stroke-linecap:square;stroke-width:3;"/>
   </g>
   <g id="line2d_39">
    <path clip-path="url(#p749338c9b8)" d="M 73.832727 285.408 
L 90.065455 285.408 
L 106.298182 285.408 
L 122.530909 285.408 
L 138.763636 285.408 
L 154.996364 285.408 
L 171.229091 285.408 
L 187.461818 285.408 
L 203.694545 285.408 
L 219.927273 285.408 
L 236.16 285.408 
L 252.392727 285.408 
L 268.625455 283.883727 
L 284.858182 284.971886 
L 301.090909 285.408 
L 317.323636 285.408 
L 333.556364 285.408 
L 349.789091 285.408 
L 366.021818 285.408 
L 382.254545 285.408 
L 398.487273 285.408 
" style="fill:none;stroke:#0e4db3;stroke-linecap:square;stroke-width:3;"/>
   </g>
   <g id="line2d_40">
    <path clip-path="url(#p749338c9b8)" d="M 73.832727 285.408 
L 90.065455 285.408 
L 106.298182 285.408 
L 122.530909 285.408 
L 138.763636 285.408 
L 154.996364 285.408 
L 171.229091 285.408 
L 187.461818 285.408 
L 203.694545 285.408 
L 219.927273 285.408 
L 236.16 285.408 
L 252.392727 285.408 
L 268.625455 285.408 
L 284.858182 285.408 
L 301.090909 285.408 
L 317.323636 285.408 
L 333.556364 285.408 
L 349.789091 285.408 
L 366.021818 285.408 
L 382.254545 285.408 
L 398.487273 285.408 
" style="fill:none;stroke:#d44e4e;stroke-linecap:square;stroke-width:3;"/>
   </g>
   <g id="line2d_41">
    <path clip-path="url(#p749338c9b8)" d="M 73.832727 244.472152 
L 90.065455 214.460969 
L 106.298182 221.640815 
L 122.530909 229.76076 
L 138.763636 231.308216 
L 154.996364 252.863889 
L 171.229091 260.008233 
L 187.461818 259.843986 
L 203.694545 237.854433 
L 219.927273 217.702565 
L 236.16 218.831342 
L 252.392727 217.011813 
L 268.625455 228.401594 
L 284.858182 241.008873 
L 301.090909 229.047906 
L 317.323636 223.671242 
L 333.556364 222.450521 
L 349.789091 226.978381 
L 366.021818 210.646059 
L 382.254545 225.125098 
L 398.487273 244.472152 
" style="fill:none;stroke:#0e4db3;stroke-linecap:square;stroke-width:3;"/>
   </g>
   <g id="line2d_42">
    <path clip-path="url(#p749338c9b8)" d="M 73.832727 253.158792 
L 90.065455 228.86039 
L 106.298182 233.30678 
L 122.530909 240.873335 
L 138.763636 242.938261 
L 154.996364 260.337426 
L 171.229091 266.062853 
L 187.461818 263.764741 
L 203.694545 246.4986 
L 219.927273 231.811399 
L 236.16 232.652413 
L 252.392727 231.191043 
L 268.625455 240.023733 
L 284.858182 250.219939 
L 301.090909 240.515882 
L 317.323636 236.25714 
L 333.556364 235.4151 
L 349.789091 238.006426 
L 366.021818 225.620931 
L 382.254545 237.205867 
L 398.487273 253.158792 
" style="fill:none;stroke:#d44e4e;stroke-linecap:square;stroke-width:3;"/>
   </g>
   <g id="line2d_43">
    <path clip-path="url(#p749338c9b8)" d="M 73.832727 267.813161 
L 90.065455 253.813591 
L 106.298182 258.573816 
L 122.530909 258.192301 
L 138.763636 261.472418 
L 154.996364 263.059522 
L 171.229091 266.954267 
L 187.461818 270.844869 
L 203.694545 269.131546 
L 219.927273 261.924321 
L 236.16 262.496501 
L 252.392727 262.300027 
L 268.625455 264.747119 
L 284.858182 258.314983 
L 301.090909 263.485699 
L 317.323636 270.858807 
L 333.556364 270.920423 
L 349.789091 267.135102 
L 366.021818 264.522324 
L 382.254545 264.158912 
L 398.487273 267.813161 
" style="fill:none;stroke:#0e4db3;stroke-linecap:square;stroke-width:3;"/>
   </g>
   <g id="line2d_44">
    <path clip-path="url(#p749338c9b8)" d="M 73.832727 272.282662 
L 90.065455 258.788851 
L 106.298182 262.707165 
L 122.530909 264.067999 
L 138.763636 267.059029 
L 154.996364 268.521294 
L 171.229091 271.111353 
L 187.461818 274.493527 
L 203.694545 272.743787 
L 219.927273 267.43986 
L 236.16 267.862371 
L 252.392727 267.708675 
L 268.625455 269.486353 
L 284.858182 264.348471 
L 301.090909 268.685429 
L 317.323636 274.162948 
L 333.556364 274.36104 
L 349.789091 271.365243 
L 366.021818 269.131895 
L 382.254545 268.989723 
L 398.487273 272.282662 
" style="fill:none;stroke:#d44e4e;stroke-linecap:square;stroke-width:3;"/>
   </g>
   <g id="line2d_45">
    <path clip-path="url(#p749338c9b8)" d="M 73.832727 265.563542 
L 90.065455 256.084458 
L 106.298182 243.849056 
L 122.530909 239.405144 
L 138.763636 233.117392 
L 154.996364 230.628025 
L 171.229091 237.12538 
L 187.461818 245.934621 
L 203.694545 247.611595 
L 219.927273 236.681155 
L 236.16 236.615307 
L 252.392727 241.812082 
L 268.625455 239.325903 
L 284.858182 247.843808 
L 301.090909 251.335263 
L 317.323636 272.959651 
L 333.556364 271.89094 
L 349.789091 272.819624 
L 366.021818 263.150024 
L 382.254545 265.665163 
L 398.487273 265.563542 
" style="fill:none;stroke:#0e4db3;stroke-linecap:square;stroke-width:3;"/>
   </g>
   <g id="line2d_46">
    <path clip-path="url(#p749338c9b8)" d="M 73.832727 269.346074 
L 90.065455 261.944398 
L 106.298182 246.196943 
L 122.530909 247.269748 
L 138.763636 244.090776 
L 154.996364 242.016395 
L 171.229091 247.041601 
L 187.461818 252.622308 
L 203.694545 254.831934 
L 219.927273 246.498007 
L 236.16 246.494967 
L 252.392727 250.317761 
L 268.625455 248.235681 
L 284.858182 254.619417 
L 301.090909 257.025463 
L 317.323636 275.803282 
L 333.556364 274.639531 
L 349.789091 274.375129 
L 366.021818 266.007161 
L 382.254545 268.764457 
L 398.487273 269.346074 
" style="fill:none;stroke:#d44e4e;stroke-linecap:square;stroke-width:3;"/>
   </g>
   <g id="line2d_47">
    <path clip-path="url(#p749338c9b8)" d="M 73.832727 246.336518 
L 90.065455 246.039488 
L 106.298182 245.924428 
L 122.530909 249.726262 
L 138.763636 246.006612 
L 154.996364 254.770458 
L 171.229091 255.609342 
L 187.461818 255.78199 
L 203.694545 255.194481 
L 219.927273 254.862795 
L 236.16 254.594222 
L 252.392727 250.239783 
L 268.625455 247.993436 
L 284.858182 251.529708 
L 301.090909 245.80511 
L 317.323636 245.944188 
L 333.556364 245.97054 
L 349.789091 246.894527 
L 366.021818 243.172683 
L 382.254545 246.08566 
L 398.487273 246.336518 
" style="fill:none;stroke:#0e4db3;stroke-linecap:square;stroke-width:3;"/>
   </g>
   <g id="line2d_48">
    <path clip-path="url(#p749338c9b8)" d="M 73.832727 252.155887 
L 90.065455 249.916762 
L 106.298182 249.777391 
L 122.530909 251.171982 
L 138.763636 252.105132 
L 154.996364 258.890013 
L 171.229091 259.389997 
L 187.461818 259.524332 
L 203.694545 259.455671 
L 219.927273 259.230638 
L 236.16 259.261721 
L 252.392727 254.894937 
L 268.625455 253.420623 
L 284.858182 255.996516 
L 301.090909 251.667913 
L 317.323636 251.680006 
L 333.556364 251.684918 
L 349.789091 252.659015 
L 366.021818 249.251147 
L 382.254545 251.768253 
L 398.487273 252.155887 
" style="fill:none;stroke:#d44e4e;stroke-linecap:square;stroke-width:3;"/>
   </g>
   <g id="line2d_49">
    <path clip-path="url(#p749338c9b8)" d="M 73.832727 285.408 
L 90.065455 285.408 
L 106.298182 285.408 
L 122.530909 285.408 
L 138.763636 285.408 
L 154.996364 285.408 
L 171.229091 285.408 
L 187.461818 285.408 
L 203.694545 285.408 
L 219.927273 285.408 
L 236.16 285.408 
L 252.392727 285.408 
L 268.625455 285.408 
L 284.858182 285.408 
L 301.090909 285.408 
L 317.323636 285.408 
L 333.556364 285.408 
L 349.789091 285.408 
L 366.021818 285.408 
L 382.254545 285.408 
L 398.487273 285.408 
" style="fill:none;stroke:#0e4db3;stroke-linecap:square;stroke-width:3;"/>
   </g>
   <g id="line2d_50">
    <path clip-path="url(#p749338c9b8)" d="M 73.832727 285.408 
L 90.065455 285.408 
L 106.298182 285.408 
L 122.530909 285.408 
L 138.763636 285.408 
L 154.996364 285.408 
L 171.229091 285.408 
L 187.461818 285.408 
L 203.694545 285.408 
L 219.927273 285.408 
L 236.16 285.408 
L 252.392727 285.408 
L 268.625455 285.408 
L 284.858182 285.408 
L 301.090909 285.408 
L 317.323636 285.408 
L 333.556364 285.408 
L 349.789091 285.408 
L 366.021818 285.408 
L 382.254545 285.408 
L 398.487273 285.408 
" style="fill:none;stroke:#d44e4e;stroke-linecap:square;stroke-width:3;"/>
   </g>
   <g id="line2d_51">
    <path clip-path="url(#p749338c9b8)" d="M 73.832727 233.481581 
L 90.065455 186.036053 
L 106.298182 187.336608 
L 122.530909 183.544361 
L 138.763636 165.544134 
L 154.996364 179.275891 
L 171.229091 210.200784 
L 187.461818 256.875538 
L 203.694545 234.738815 
L 219.927273 215.281381 
L 236.16 212.458507 
L 252.392727 192.394958 
L 268.625455 176.371564 
L 284.858182 166.882878 
L 301.090909 182.819077 
L 317.323636 214.77357 
L 333.556364 267.002005 
L 349.789091 285.408 
L 366.021818 269.754793 
L 382.254545 230.72035 
L 398.487273 233.481581 
" style="fill:none;stroke:#0e4db3;stroke-linecap:square;stroke-width:3;"/>
   </g>
   <g id="line2d_52">
    <path clip-path="url(#p749338c9b8)" d="M 73.832727 285.408 
L 90.065455 246.138019 
L 106.298182 249.724743 
L 122.530909 237.311869 
L 138.763636 267.387691 
L 154.996364 281.746658 
L 171.229091 285.408 
L 187.461818 285.408 
L 203.694545 285.408 
L 219.927273 285.408 
L 236.16 284.267669 
L 252.392727 267.707085 
L 268.625455 257.501561 
L 284.858182 259.568157 
L 301.090909 269.236093 
L 317.323636 285.408 
L 333.556364 285.408 
L 349.789091 285.408 
L 366.021818 285.408 
L 382.254545 285.408 
L 398.487273 285.408 
" style="fill:none;stroke:#d44e4e;stroke-linecap:square;stroke-width:3;"/>
   </g>
   <g id="line2d_53">
    <path clip-path="url(#p749338c9b8)" d="M 73.832727 285.408 
L 90.065455 285.408 
L 106.298182 285.408 
L 122.530909 285.408 
L 138.763636 285.408 
L 154.996364 285.408 
L 171.229091 285.408 
L 187.461818 285.408 
L 203.694545 285.408 
L 219.927273 285.408 
L 236.16 285.408 
L 252.392727 285.408 
L 268.625455 285.408 
L 284.858182 285.408 
L 301.090909 285.408 
L 317.323636 285.408 
L 333.556364 285.408 
L 349.789091 285.408 
L 366.021818 285.408 
L 382.254545 285.408 
L 398.487273 285.408 
" style="fill:none;stroke:#0e4db3;stroke-linecap:square;stroke-width:3;"/>
   </g>
   <g id="line2d_54">
    <path clip-path="url(#p749338c9b8)" d="M 73.832727 285.408 
L 90.065455 285.408 
L 106.298182 285.408 
L 122.530909 285.408 
L 138.763636 285.408 
L 154.996364 285.408 
L 171.229091 285.408 
L 187.461818 285.408 
L 203.694545 285.408 
L 219.927273 285.408 
L 236.16 285.408 
L 252.392727 285.408 
L 268.625455 285.408 
L 284.858182 285.408 
L 301.090909 285.408 
L 317.323636 285.408 
L 333.556364 285.408 
L 349.789091 285.408 
L 366.021818 285.408 
L 382.254545 285.408 
L 398.487273 285.408 
" style="fill:none;stroke:#d44e4e;stroke-linecap:square;stroke-width:3;"/>
   </g>
   <g id="line2d_55">
    <path clip-path="url(#p749338c9b8)" d="M 73.832727 285.408 
L 90.065455 285.408 
L 106.298182 285.408 
L 122.530909 285.408 
L 138.763636 285.408 
L 154.996364 285.408 
L 171.229091 285.408 
L 187.461818 285.408 
L 203.694545 285.408 
L 219.927273 285.408 
L 236.16 285.408 
L 252.392727 285.408 
L 268.625455 285.408 
L 284.858182 285.408 
L 301.090909 285.408 
L 317.323636 285.408 
L 333.556364 285.408 
L 349.789091 285.408 
L 366.021818 285.408 
L 382.254545 285.408 
L 398.487273 285.408 
" style="fill:none;stroke:#0e4db3;stroke-linecap:square;stroke-width:3;"/>
   </g>
   <g id="line2d_56">
    <path clip-path="url(#p749338c9b8)" d="M 73.832727 285.408 
L 90.065455 285.408 
L 106.298182 285.408 
L 122.530909 285.408 
L 138.763636 285.408 
L 154.996364 285.408 
L 171.229091 285.408 
L 187.461818 285.408 
L 203.694545 285.408 
L 219.927273 285.408 
L 236.16 285.408 
L 252.392727 285.408 
L 268.625455 285.408 
L 284.858182 285.408 
L 301.090909 285.408 
L 317.323636 285.408 
L 333.556364 285.408 
L 349.789091 285.408 
L 366.021818 285.408 
L 382.254545 285.408 
L 398.487273 285.408 
" style="fill:none;stroke:#d44e4e;stroke-linecap:square;stroke-width:3;"/>
   </g>
   <g id="line2d_57">
    <path clip-path="url(#p749338c9b8)" d="M 73.832727 108.183162 
L 90.065455 162.927635 
L 106.298182 215.665034 
L 122.530909 223.394468 
L 138.763636 220.393903 
L 154.996364 222.275535 
L 171.229091 218.746917 
L 187.461818 227.931571 
L 203.694545 236.721217 
L 219.927273 203.496815 
L 236.16 195.119 
L 252.392727 185.217967 
L 268.625455 209.286777 
L 284.858182 183.62365 
L 301.090909 146.665636 
L 317.323636 100.313238 
L 333.556364 63.648 
L 349.789091 71.456495 
L 366.021818 80.725246 
L 382.254545 92.827496 
L 398.487273 108.183162 
" style="fill:none;stroke:#0e4db3;stroke-linecap:square;stroke-width:3;"/>
   </g>
   <g id="line2d_58">
    <path clip-path="url(#p749338c9b8)" d="M 73.832727 285.408 
L 90.065455 285.408 
L 106.298182 285.408 
L 122.530909 285.408 
L 138.763636 285.408 
L 154.996364 285.408 
L 171.229091 285.408 
L 187.461818 285.408 
L 203.694545 285.408 
L 219.927273 285.408 
L 236.16 285.408 
L 252.392727 285.408 
L 268.625455 285.408 
L 284.858182 285.408 
L 301.090909 285.408 
L 317.323636 236.915417 
L 333.556364 260.301837 
L 349.789091 238.650144 
L 366.021818 234.403692 
L 382.254545 254.417853 
L 398.487273 285.408 
" style="fill:none;stroke:#d44e4e;stroke-linecap:square;stroke-width:3;"/>
   </g>
   <g id="patch_3">
    <path d="M 57.6 307.584 
L 57.6 41.472 
" style="fill:none;stroke:#000000;stroke-linecap:square;stroke-linejoin:miter;stroke-width:2.5;"/>
   </g>
   <g id="patch_4">
    <path d="M 414.72 307.584 
L 414.72 41.472 
" style="fill:none;stroke:#000000;stroke-linecap:square;stroke-linejoin:miter;stroke-width:2.5;"/>
   </g>
   <g id="patch_5">
    <path d="M 57.6 307.584 
L 414.72 307.584 
" style="fill:none;stroke:#000000;stroke-linecap:square;stroke-linejoin:miter;stroke-width:2.5;"/>
   </g>
   <g id="patch_6">
    <path d="M 57.6 41.472 
L 414.72 41.472 
" style="fill:none;stroke:#000000;stroke-linecap:square;stroke-linejoin:miter;stroke-width:2.5;"/>
   </g>
  </g>
 </g>
 <defs>
  <clipPath id="p749338c9b8">
   <rect height="266.112" width="357.12" x="57.6" y="41.472"/>
  </clipPath>
 </defs>
</svg>
