<?xml version="1.0" encoding="utf-8" standalone="no"?>
<!DOCTYPE svg PUBLIC "-//W3C//DTD SVG 1.1//EN"
  "http://www.w3.org/Graphics/SVG/1.1/DTD/svg11.dtd">
<!-- Created with matplotlib (https://matplotlib.org/) -->
<svg height="345.6pt" version="1.1" viewBox="0 0 460.8 345.6" width="460.8pt" xmlns="http://www.w3.org/2000/svg" xmlns:xlink="http://www.w3.org/1999/xlink">
 <defs>
  <style type="text/css">
*{stroke-linecap:butt;stroke-linejoin:round;}
  </style>
 </defs>
 <g id="figure_1">
  <g id="patch_1">
   <path d="M 0 345.6 
L 460.8 345.6 
L 460.8 0 
L 0 0 
z
" style="fill:#ffffff;"/>
  </g>
  <g id="axes_1">
   <g id="patch_2">
    <path d="M 57.6 307.584 
L 414.72 307.584 
L 414.72 41.472 
L 57.6 41.472 
z
" style="fill:#ffffff;"/>
   </g>
   <g id="matplotlib.axis_1">
    <g id="xtick_1">
     <g id="line2d_1">
      <defs>
       <path d="M 0 0 
L 0 12 
" id="m9b7ff94255" style="stroke:#000000;stroke-width:2.5;"/>
      </defs>
      <g>
       <use style="stroke:#000000;stroke-width:2.5;" x="73.832727" xlink:href="#m9b7ff94255" y="307.584"/>
      </g>
     </g>
     <g id="text_1">
      <!-- 0 -->
      <defs>
       <path d="M 31.78125 66.40625 
Q 24.171875 66.40625 20.328125 58.90625 
Q 16.5 51.421875 16.5 36.375 
Q 16.5 21.390625 20.328125 13.890625 
Q 24.171875 6.390625 31.78125 6.390625 
Q 39.453125 6.390625 43.28125 13.890625 
Q 47.125 21.390625 47.125 36.375 
Q 47.125 51.421875 43.28125 58.90625 
Q 39.453125 66.40625 31.78125 66.40625 
z
M 31.78125 74.21875 
Q 44.046875 74.21875 50.515625 64.515625 
Q 56.984375 54.828125 56.984375 36.375 
Q 56.984375 17.96875 50.515625 8.265625 
Q 44.046875 -1.421875 31.78125 -1.421875 
Q 19.53125 -1.421875 13.0625 8.265625 
Q 6.59375 17.96875 6.59375 36.375 
Q 6.59375 54.828125 13.0625 64.515625 
Q 19.53125 74.21875 31.78125 74.21875 
z
" id="DejaVuSans-48"/>
      </defs>
      <g transform="translate(57.735602 361.532094)scale(0.506 -0.506)">
       <use xlink:href="#DejaVuSans-48"/>
      </g>
     </g>
    </g>
    <g id="xtick_2">
     <g id="line2d_2">
      <g>
       <use style="stroke:#000000;stroke-width:2.5;" x="254.196364" xlink:href="#m9b7ff94255" y="307.584"/>
      </g>
     </g>
     <g id="text_2">
      <!-- 100 -->
      <defs>
       <path d="M 12.40625 8.296875 
L 28.515625 8.296875 
L 28.515625 63.921875 
L 10.984375 60.40625 
L 10.984375 69.390625 
L 28.421875 72.90625 
L 38.28125 72.90625 
L 38.28125 8.296875 
L 54.390625 8.296875 
L 54.390625 0 
L 12.40625 0 
z
" id="DejaVuSans-49"/>
      </defs>
      <g transform="translate(205.904989 361.532094)scale(0.506 -0.506)">
       <use xlink:href="#DejaVuSans-49"/>
       <use x="63.623047" xlink:href="#DejaVuSans-48"/>
       <use x="127.246094" xlink:href="#DejaVuSans-48"/>
      </g>
     </g>
    </g>
    <g id="text_3">
     <!-- Degrees -->
     <defs>
      <path d="M 19.671875 64.796875 
L 19.671875 8.109375 
L 31.59375 8.109375 
Q 46.6875 8.109375 53.6875 14.9375 
Q 60.6875 21.78125 60.6875 36.53125 
Q 60.6875 51.171875 53.6875 57.984375 
Q 46.6875 64.796875 31.59375 64.796875 
z
M 9.8125 72.90625 
L 30.078125 72.90625 
Q 51.265625 72.90625 61.171875 64.09375 
Q 71.09375 55.28125 71.09375 36.53125 
Q 71.09375 17.671875 61.125 8.828125 
Q 51.171875 0 30.078125 0 
L 9.8125 0 
z
" id="DejaVuSans-68"/>
      <path d="M 56.203125 29.59375 
L 56.203125 25.203125 
L 14.890625 25.203125 
Q 15.484375 15.921875 20.484375 11.0625 
Q 25.484375 6.203125 34.421875 6.203125 
Q 39.59375 6.203125 44.453125 7.46875 
Q 49.3125 8.734375 54.109375 11.28125 
L 54.109375 2.78125 
Q 49.265625 0.734375 44.1875 -0.34375 
Q 39.109375 -1.421875 33.890625 -1.421875 
Q 20.796875 -1.421875 13.15625 6.1875 
Q 5.515625 13.8125 5.515625 26.8125 
Q 5.515625 40.234375 12.765625 48.109375 
Q 20.015625 56 32.328125 56 
Q 43.359375 56 49.78125 48.890625 
Q 56.203125 41.796875 56.203125 29.59375 
z
M 47.21875 32.234375 
Q 47.125 39.59375 43.09375 43.984375 
Q 39.0625 48.390625 32.421875 48.390625 
Q 24.90625 48.390625 20.390625 44.140625 
Q 15.875 39.890625 15.1875 32.171875 
z
" id="DejaVuSans-101"/>
      <path d="M 45.40625 27.984375 
Q 45.40625 37.75 41.375 43.109375 
Q 37.359375 48.484375 30.078125 48.484375 
Q 22.859375 48.484375 18.828125 43.109375 
Q 14.796875 37.75 14.796875 27.984375 
Q 14.796875 18.265625 18.828125 12.890625 
Q 22.859375 7.515625 30.078125 7.515625 
Q 37.359375 7.515625 41.375 12.890625 
Q 45.40625 18.265625 45.40625 27.984375 
z
M 54.390625 6.78125 
Q 54.390625 -7.171875 48.1875 -13.984375 
Q 42 -20.796875 29.203125 -20.796875 
Q 24.46875 -20.796875 20.265625 -20.09375 
Q 16.0625 -19.390625 12.109375 -17.921875 
L 12.109375 -9.1875 
Q 16.0625 -11.328125 19.921875 -12.34375 
Q 23.78125 -13.375 27.78125 -13.375 
Q 36.625 -13.375 41.015625 -8.765625 
Q 45.40625 -4.15625 45.40625 5.171875 
L 45.40625 9.625 
Q 42.625 4.78125 38.28125 2.390625 
Q 33.9375 0 27.875 0 
Q 17.828125 0 11.671875 7.65625 
Q 5.515625 15.328125 5.515625 27.984375 
Q 5.515625 40.671875 11.671875 48.328125 
Q 17.828125 56 27.875 56 
Q 33.9375 56 38.28125 53.609375 
Q 42.625 51.21875 45.40625 46.390625 
L 45.40625 54.6875 
L 54.390625 54.6875 
z
" id="DejaVuSans-103"/>
      <path d="M 41.109375 46.296875 
Q 39.59375 47.171875 37.8125 47.578125 
Q 36.03125 48 33.890625 48 
Q 26.265625 48 22.1875 43.046875 
Q 18.109375 38.09375 18.109375 28.8125 
L 18.109375 0 
L 9.078125 0 
L 9.078125 54.6875 
L 18.109375 54.6875 
L 18.109375 46.1875 
Q 20.953125 51.171875 25.484375 53.578125 
Q 30.03125 56 36.53125 56 
Q 37.453125 56 38.578125 55.875 
Q 39.703125 55.765625 41.0625 55.515625 
z
" id="DejaVuSans-114"/>
      <path d="M 44.28125 53.078125 
L 44.28125 44.578125 
Q 40.484375 46.53125 36.375 47.5 
Q 32.28125 48.484375 27.875 48.484375 
Q 21.1875 48.484375 17.84375 46.4375 
Q 14.5 44.390625 14.5 40.28125 
Q 14.5 37.15625 16.890625 35.375 
Q 19.28125 33.59375 26.515625 31.984375 
L 29.59375 31.296875 
Q 39.15625 29.25 43.1875 25.515625 
Q 47.21875 21.78125 47.21875 15.09375 
Q 47.21875 7.46875 41.1875 3.015625 
Q 35.15625 -1.421875 24.609375 -1.421875 
Q 20.21875 -1.421875 15.453125 -0.5625 
Q 10.6875 0.296875 5.421875 2 
L 5.421875 11.28125 
Q 10.40625 8.6875 15.234375 7.390625 
Q 20.0625 6.109375 24.8125 6.109375 
Q 31.15625 6.109375 34.5625 8.28125 
Q 37.984375 10.453125 37.984375 14.40625 
Q 37.984375 18.0625 35.515625 20.015625 
Q 33.0625 21.96875 24.703125 23.78125 
L 21.578125 24.515625 
Q 13.234375 26.265625 9.515625 29.90625 
Q 5.8125 33.546875 5.8125 39.890625 
Q 5.8125 47.609375 11.28125 51.796875 
Q 16.75 56 26.8125 56 
Q 31.78125 56 36.171875 55.265625 
Q 40.578125 54.546875 44.28125 53.078125 
z
" id="DejaVuSans-115"/>
     </defs>
     <g transform="translate(120.723 417.998687)scale(0.552 -0.552)">
      <use xlink:href="#DejaVuSans-68"/>
      <use x="77.001953" xlink:href="#DejaVuSans-101"/>
      <use x="138.525391" xlink:href="#DejaVuSans-103"/>
      <use x="202.001953" xlink:href="#DejaVuSans-114"/>
      <use x="243.083984" xlink:href="#DejaVuSans-101"/>
      <use x="304.607422" xlink:href="#DejaVuSans-101"/>
      <use x="366.130859" xlink:href="#DejaVuSans-115"/>
     </g>
    </g>
   </g>
   <g id="matplotlib.axis_2">
    <g id="ytick_1">
     <g id="line2d_3">
      <defs>
       <path d="M 0 0 
L -12 0 
" id="m2a6d66ddd9" style="stroke:#000000;stroke-width:2.5;"/>
      </defs>
      <g>
       <use style="stroke:#000000;stroke-width:2.5;" x="57.6" xlink:href="#m2a6d66ddd9" y="285.408"/>
      </g>
     </g>
     <g id="text_4">
      <!-- 0 -->
      <g transform="translate(9.90575 304.632047)scale(0.506 -0.506)">
       <use xlink:href="#DejaVuSans-48"/>
      </g>
     </g>
    </g>
    <g id="ytick_2">
     <g id="line2d_4">
      <g>
       <use style="stroke:#000000;stroke-width:2.5;" x="57.6" xlink:href="#m2a6d66ddd9" y="147.186136"/>
      </g>
     </g>
     <g id="text_5">
      <!-- 2 -->
      <defs>
       <path d="M 19.1875 8.296875 
L 53.609375 8.296875 
L 53.609375 0 
L 7.328125 0 
L 7.328125 8.296875 
Q 12.9375 14.109375 22.625 23.890625 
Q 32.328125 33.6875 34.8125 36.53125 
Q 39.546875 41.84375 41.421875 45.53125 
Q 43.3125 49.21875 43.3125 52.78125 
Q 43.3125 58.59375 39.234375 62.25 
Q 35.15625 65.921875 28.609375 65.921875 
Q 23.96875 65.921875 18.8125 64.3125 
Q 13.671875 62.703125 7.8125 59.421875 
L 7.8125 69.390625 
Q 13.765625 71.78125 18.9375 73 
Q 24.125 74.21875 28.421875 74.21875 
Q 39.75 74.21875 46.484375 68.546875 
Q 53.21875 62.890625 53.21875 53.421875 
Q 53.21875 48.921875 51.53125 44.890625 
Q 49.859375 40.875 45.40625 35.40625 
Q 44.1875 33.984375 37.640625 27.21875 
Q 31.109375 20.453125 19.1875 8.296875 
z
" id="DejaVuSans-50"/>
      </defs>
      <g transform="translate(9.90575 166.410183)scale(0.506 -0.506)">
       <use xlink:href="#DejaVuSans-50"/>
      </g>
     </g>
    </g>
    <g id="text_6">
     <!-- Activation -->
     <defs>
      <path d="M 34.1875 63.1875 
L 20.796875 26.90625 
L 47.609375 26.90625 
z
M 28.609375 72.90625 
L 39.796875 72.90625 
L 67.578125 0 
L 57.328125 0 
L 50.6875 18.703125 
L 17.828125 18.703125 
L 11.1875 0 
L 0.78125 0 
z
" id="DejaVuSans-65"/>
      <path d="M 48.78125 52.59375 
L 48.78125 44.1875 
Q 44.96875 46.296875 41.140625 47.34375 
Q 37.3125 48.390625 33.40625 48.390625 
Q 24.65625 48.390625 19.8125 42.84375 
Q 14.984375 37.3125 14.984375 27.296875 
Q 14.984375 17.28125 19.8125 11.734375 
Q 24.65625 6.203125 33.40625 6.203125 
Q 37.3125 6.203125 41.140625 7.25 
Q 44.96875 8.296875 48.78125 10.40625 
L 48.78125 2.09375 
Q 45.015625 0.34375 40.984375 -0.53125 
Q 36.96875 -1.421875 32.421875 -1.421875 
Q 20.0625 -1.421875 12.78125 6.34375 
Q 5.515625 14.109375 5.515625 27.296875 
Q 5.515625 40.671875 12.859375 48.328125 
Q 20.21875 56 33.015625 56 
Q 37.15625 56 41.109375 55.140625 
Q 45.0625 54.296875 48.78125 52.59375 
z
" id="DejaVuSans-99"/>
      <path d="M 18.3125 70.21875 
L 18.3125 54.6875 
L 36.8125 54.6875 
L 36.8125 47.703125 
L 18.3125 47.703125 
L 18.3125 18.015625 
Q 18.3125 11.328125 20.140625 9.421875 
Q 21.96875 7.515625 27.59375 7.515625 
L 36.8125 7.515625 
L 36.8125 0 
L 27.59375 0 
Q 17.1875 0 13.234375 3.875 
Q 9.28125 7.765625 9.28125 18.015625 
L 9.28125 47.703125 
L 2.6875 47.703125 
L 2.6875 54.6875 
L 9.28125 54.6875 
L 9.28125 70.21875 
z
" id="DejaVuSans-116"/>
      <path d="M 9.421875 54.6875 
L 18.40625 54.6875 
L 18.40625 0 
L 9.421875 0 
z
M 9.421875 75.984375 
L 18.40625 75.984375 
L 18.40625 64.59375 
L 9.421875 64.59375 
z
" id="DejaVuSans-105"/>
      <path d="M 2.984375 54.6875 
L 12.5 54.6875 
L 29.59375 8.796875 
L 46.6875 54.6875 
L 56.203125 54.6875 
L 35.6875 0 
L 23.484375 0 
z
" id="DejaVuSans-118"/>
      <path d="M 34.28125 27.484375 
Q 23.390625 27.484375 19.1875 25 
Q 14.984375 22.515625 14.984375 16.5 
Q 14.984375 11.71875 18.140625 8.90625 
Q 21.296875 6.109375 26.703125 6.109375 
Q 34.1875 6.109375 38.703125 11.40625 
Q 43.21875 16.703125 43.21875 25.484375 
L 43.21875 27.484375 
z
M 52.203125 31.203125 
L 52.203125 0 
L 43.21875 0 
L 43.21875 8.296875 
Q 40.140625 3.328125 35.546875 0.953125 
Q 30.953125 -1.421875 24.3125 -1.421875 
Q 15.921875 -1.421875 10.953125 3.296875 
Q 6 8.015625 6 15.921875 
Q 6 25.140625 12.171875 29.828125 
Q 18.359375 34.515625 30.609375 34.515625 
L 43.21875 34.515625 
L 43.21875 35.40625 
Q 43.21875 41.609375 39.140625 45 
Q 35.0625 48.390625 27.6875 48.390625 
Q 23 48.390625 18.546875 47.265625 
Q 14.109375 46.140625 10.015625 43.890625 
L 10.015625 52.203125 
Q 14.9375 54.109375 19.578125 55.046875 
Q 24.21875 56 28.609375 56 
Q 40.484375 56 46.34375 49.84375 
Q 52.203125 43.703125 52.203125 31.203125 
z
" id="DejaVuSans-97"/>
      <path d="M 30.609375 48.390625 
Q 23.390625 48.390625 19.1875 42.75 
Q 14.984375 37.109375 14.984375 27.296875 
Q 14.984375 17.484375 19.15625 11.84375 
Q 23.34375 6.203125 30.609375 6.203125 
Q 37.796875 6.203125 41.984375 11.859375 
Q 46.1875 17.53125 46.1875 27.296875 
Q 46.1875 37.015625 41.984375 42.703125 
Q 37.796875 48.390625 30.609375 48.390625 
z
M 30.609375 56 
Q 42.328125 56 49.015625 48.375 
Q 55.71875 40.765625 55.71875 27.296875 
Q 55.71875 13.875 49.015625 6.21875 
Q 42.328125 -1.421875 30.609375 -1.421875 
Q 18.84375 -1.421875 12.171875 6.21875 
Q 5.515625 13.875 5.515625 27.296875 
Q 5.515625 40.765625 12.171875 48.375 
Q 18.84375 56 30.609375 56 
z
" id="DejaVuSans-111"/>
      <path d="M 54.890625 33.015625 
L 54.890625 0 
L 45.90625 0 
L 45.90625 32.71875 
Q 45.90625 40.484375 42.875 44.328125 
Q 39.84375 48.1875 33.796875 48.1875 
Q 26.515625 48.1875 22.3125 43.546875 
Q 18.109375 38.921875 18.109375 30.90625 
L 18.109375 0 
L 9.078125 0 
L 9.078125 54.6875 
L 18.109375 54.6875 
L 18.109375 46.1875 
Q 21.34375 51.125 25.703125 53.5625 
Q 30.078125 56 35.796875 56 
Q 45.21875 56 50.046875 50.171875 
Q 54.890625 44.34375 54.890625 33.015625 
z
" id="DejaVuSans-110"/>
     </defs>
     <g transform="translate(-5.574125 313.1835)rotate(-90)scale(0.552 -0.552)">
      <use xlink:href="#DejaVuSans-65"/>
      <use x="68.392578" xlink:href="#DejaVuSans-99"/>
      <use x="123.373047" xlink:href="#DejaVuSans-116"/>
      <use x="162.582031" xlink:href="#DejaVuSans-105"/>
      <use x="190.365234" xlink:href="#DejaVuSans-118"/>
      <use x="249.544922" xlink:href="#DejaVuSans-97"/>
      <use x="310.824219" xlink:href="#DejaVuSans-116"/>
      <use x="350.033203" xlink:href="#DejaVuSans-105"/>
      <use x="377.816406" xlink:href="#DejaVuSans-111"/>
      <use x="438.998047" xlink:href="#DejaVuSans-110"/>
     </g>
    </g>
   </g>
   <g id="line2d_5">
    <path clip-path="url(#p771b293078)" d="M 73.832727 267.821587 
L 90.065455 237.877905 
L 106.298182 227.496804 
L 122.530909 214.089921 
L 138.763636 198.406807 
L 154.996364 196.191784 
L 171.229091 199.416925 
L 187.461818 176.012163 
L 203.694545 168.232828 
L 219.927273 169.668951 
L 236.16 179.968254 
L 252.392727 179.632001 
L 268.625455 181.234809 
L 284.858182 219.995187 
L 301.090909 213.912757 
L 317.323636 244.029144 
L 333.556364 251.652624 
L 349.789091 259.597175 
L 366.021818 255.173965 
L 382.254545 260.758126 
L 398.487273 267.821587 
" style="fill:none;stroke:#0e4db3;stroke-linecap:square;stroke-width:3;"/>
   </g>
   <g id="line2d_6">
    <path clip-path="url(#p771b293078)" d="M 73.832727 271.414875 
L 90.065455 246.891672 
L 106.298182 237.679963 
L 122.530909 227.76861 
L 138.763636 215.660384 
L 154.996364 214.355643 
L 171.229091 215.828181 
L 187.461818 195.070848 
L 203.694545 191.211346 
L 219.927273 190.110578 
L 236.16 195.412522 
L 252.392727 198.802172 
L 268.625455 199.524654 
L 284.858182 233.002894 
L 301.090909 226.968191 
L 317.323636 251.284528 
L 333.556364 257.137746 
L 349.789091 262.444826 
L 366.021818 260.174827 
L 382.254545 264.352561 
L 398.487273 271.414875 
" style="fill:none;stroke:#d44e4e;stroke-linecap:square;stroke-width:3;"/>
   </g>
   <g id="line2d_7">
    <path clip-path="url(#p771b293078)" d="M 73.832727 165.857431 
L 90.065455 164.948929 
L 106.298182 173.007546 
L 122.530909 188.497044 
L 138.763636 191.256074 
L 154.996364 194.638441 
L 171.229091 194.423231 
L 187.461818 176.992391 
L 203.694545 171.218281 
L 219.927273 191.811245 
L 236.16 191.797552 
L 252.392727 188.714083 
L 268.625455 171.575139 
L 284.858182 183.963175 
L 301.090909 168.466064 
L 317.323636 173.85888 
L 333.556364 173.255077 
L 349.789091 153.313874 
L 366.021818 158.978928 
L 382.254545 153.617782 
L 398.487273 165.857431 
" style="fill:none;stroke:#0e4db3;stroke-linecap:square;stroke-width:3;"/>
   </g>
   <g id="line2d_8">
    <path clip-path="url(#p771b293078)" d="M 73.832727 190.774837 
L 90.065455 179.912569 
L 106.298182 193.365271 
L 122.530909 208.460887 
L 138.763636 210.277141 
L 154.996364 213.29676 
L 171.229091 213.292971 
L 187.461818 199.839906 
L 203.694545 195.751806 
L 219.927273 211.509613 
L 236.16 211.453425 
L 252.392727 207.646313 
L 268.625455 195.08534 
L 284.858182 202.954698 
L 301.090909 193.036977 
L 317.323636 197.129468 
L 333.556364 196.470605 
L 349.789091 181.034049 
L 366.021818 183.876636 
L 382.254545 180.965784 
L 398.487273 190.774837 
" style="fill:none;stroke:#d44e4e;stroke-linecap:square;stroke-width:3;"/>
   </g>
   <g id="line2d_9">
    <path clip-path="url(#p771b293078)" d="M 73.832727 164.229702 
L 90.065455 158.375899 
L 106.298182 158.329499 
L 122.530909 158.36163 
L 138.763636 145.549838 
L 154.996364 146.184199 
L 171.229091 145.038399 
L 187.461818 153.622684 
L 203.694545 143.242534 
L 219.927273 147.926735 
L 236.16 155.795722 
L 252.392727 155.932031 
L 268.625455 157.345127 
L 284.858182 165.908956 
L 301.090909 167.479394 
L 317.323636 168.158754 
L 333.556364 167.842694 
L 349.789091 168.837587 
L 366.021818 166.110202 
L 382.254545 164.672019 
L 398.487273 164.229702 
" style="fill:none;stroke:#0e4db3;stroke-linecap:square;stroke-width:3;"/>
   </g>
   <g id="line2d_10">
    <path clip-path="url(#p771b293078)" d="M 73.832727 185.438687 
L 90.065455 181.223843 
L 106.298182 180.870619 
L 122.530909 180.487587 
L 138.763636 172.521292 
L 154.996364 172.389984 
L 171.229091 170.497274 
L 187.461818 177.001 
L 203.694545 167.726875 
L 219.927273 172.185467 
L 236.16 178.595412 
L 252.392727 178.447075 
L 268.625455 179.727866 
L 284.858182 184.294855 
L 301.090909 185.451251 
L 317.323636 187.015312 
L 333.556364 187.809008 
L 349.789091 188.562088 
L 366.021818 186.323091 
L 382.254545 185.447156 
L 398.487273 185.438687 
" style="fill:none;stroke:#d44e4e;stroke-linecap:square;stroke-width:3;"/>
   </g>
   <g id="line2d_11">
    <path clip-path="url(#p771b293078)" d="M 73.832727 148.241336 
L 90.065455 148.078211 
L 106.298182 148.616723 
L 122.530909 161.472319 
L 138.763636 162.784244 
L 154.996364 166.064798 
L 171.229091 163.198328 
L 187.461818 159.765943 
L 203.694545 150.7131 
L 219.927273 153.911795 
L 236.16 152.620187 
L 252.392727 146.867086 
L 268.625455 144.845597 
L 284.858182 144.956622 
L 301.090909 138.571277 
L 317.323636 137.581253 
L 333.556364 122.285183 
L 349.789091 136.34463 
L 366.021818 135.597877 
L 382.254545 142.326362 
L 398.487273 148.241336 
" style="fill:none;stroke:#0e4db3;stroke-linecap:square;stroke-width:3;"/>
   </g>
   <g id="line2d_12">
    <path clip-path="url(#p771b293078)" d="M 73.832727 177.134549 
L 90.065455 177.129194 
L 106.298182 177.499505 
L 122.530909 187.072999 
L 138.763636 187.699088 
L 154.996364 189.2834 
L 171.229091 188.256285 
L 187.461818 183.897883 
L 203.694545 179.492636 
L 219.927273 181.215011 
L 236.16 181.46723 
L 252.392727 175.19726 
L 268.625455 172.367921 
L 284.858182 171.579349 
L 301.090909 168.026416 
L 317.323636 168.023895 
L 333.556364 157.857918 
L 349.789091 167.209099 
L 366.021818 166.078722 
L 382.254545 172.004118 
L 398.487273 177.134549 
" style="fill:none;stroke:#d44e4e;stroke-linecap:square;stroke-width:3;"/>
   </g>
   <g id="line2d_13">
    <path clip-path="url(#p771b293078)" d="M 73.832727 241.399869 
L 90.065455 240.727054 
L 106.298182 241.33197 
L 122.530909 239.868218 
L 138.763636 222.950944 
L 154.996364 220.758281 
L 171.229091 207.087361 
L 187.461818 211.298794 
L 203.694545 190.57935 
L 219.927273 174.298322 
L 236.16 174.554924 
L 252.392727 157.153224 
L 268.625455 141.820689 
L 284.858182 150.009387 
L 301.090909 128.787846 
L 317.323636 141.119941 
L 333.556364 144.61765 
L 349.789091 201.55864 
L 366.021818 206.821779 
L 382.254545 206.240393 
L 398.487273 241.399869 
" style="fill:none;stroke:#0e4db3;stroke-linecap:square;stroke-width:3;"/>
   </g>
   <g id="line2d_14">
    <path clip-path="url(#p771b293078)" d="M 73.832727 245.170895 
L 90.065455 244.187685 
L 106.298182 244.718436 
L 122.530909 244.079828 
L 138.763636 230.831676 
L 154.996364 229.172124 
L 171.229091 217.203849 
L 187.461818 220.428684 
L 203.694545 204.171681 
L 219.927273 192.26807 
L 236.16 192.300976 
L 252.392727 177.765202 
L 268.625455 165.625496 
L 284.858182 173.546396 
L 301.090909 156.004103 
L 317.323636 164.682268 
L 333.556364 168.080182 
L 349.789091 212.582518 
L 366.021818 216.978327 
L 382.254545 216.93456 
L 398.487273 245.170895 
" style="fill:none;stroke:#d44e4e;stroke-linecap:square;stroke-width:3;"/>
   </g>
   <g id="line2d_15">
    <path clip-path="url(#p771b293078)" d="M 73.832727 285.408 
L 90.065455 285.408 
L 106.298182 285.408 
L 122.530909 285.408 
L 138.763636 285.408 
L 154.996364 285.408 
L 171.229091 285.408 
L 187.461818 285.408 
L 203.694545 285.408 
L 219.927273 285.408 
L 236.16 285.408 
L 252.392727 285.408 
L 268.625455 285.408 
L 284.858182 285.408 
L 301.090909 285.408 
L 317.323636 285.408 
L 333.556364 285.408 
L 349.789091 285.408 
L 366.021818 285.408 
L 382.254545 285.408 
L 398.487273 285.408 
" style="fill:none;stroke:#0e4db3;stroke-linecap:square;stroke-width:3;"/>
   </g>
   <g id="line2d_16">
    <path clip-path="url(#p771b293078)" d="M 73.832727 285.408 
L 90.065455 285.408 
L 106.298182 285.408 
L 122.530909 285.408 
L 138.763636 285.408 
L 154.996364 285.408 
L 171.229091 285.408 
L 187.461818 285.408 
L 203.694545 285.408 
L 219.927273 285.408 
L 236.16 285.408 
L 252.392727 285.408 
L 268.625455 285.408 
L 284.858182 285.408 
L 301.090909 285.408 
L 317.323636 285.408 
L 333.556364 285.408 
L 349.789091 285.408 
L 366.021818 285.408 
L 382.254545 285.408 
L 398.487273 285.408 
" style="fill:none;stroke:#d44e4e;stroke-linecap:square;stroke-width:3;"/>
   </g>
   <g id="line2d_17">
    <path clip-path="url(#p771b293078)" d="M 73.832727 285.408 
L 90.065455 284.790192 
L 106.298182 285.161893 
L 122.530909 284.935851 
L 138.763636 285.200891 
L 154.996364 285.408 
L 171.229091 285.408 
L 187.461818 285.408 
L 203.694545 285.408 
L 219.927273 285.408 
L 236.16 285.408 
L 252.392727 285.408 
L 268.625455 283.971303 
L 284.858182 285.408 
L 301.090909 285.408 
L 317.323636 285.408 
L 333.556364 285.408 
L 349.789091 285.408 
L 366.021818 285.408 
L 382.254545 285.408 
L 398.487273 285.408 
" style="fill:none;stroke:#0e4db3;stroke-linecap:square;stroke-width:3;"/>
   </g>
   <g id="line2d_18">
    <path clip-path="url(#p771b293078)" d="M 73.832727 285.408 
L 90.065455 285.408 
L 106.298182 285.408 
L 122.530909 285.408 
L 138.763636 285.408 
L 154.996364 285.408 
L 171.229091 285.408 
L 187.461818 285.408 
L 203.694545 285.408 
L 219.927273 285.408 
L 236.16 285.408 
L 252.392727 285.408 
L 268.625455 285.408 
L 284.858182 285.408 
L 301.090909 285.408 
L 317.323636 285.408 
L 333.556364 285.408 
L 349.789091 285.408 
L 366.021818 285.408 
L 382.254545 285.408 
L 398.487273 285.408 
" style="fill:none;stroke:#d44e4e;stroke-linecap:square;stroke-width:3;"/>
   </g>
   <g id="line2d_19">
    <path clip-path="url(#p771b293078)" d="M 73.832727 249.921705 
L 90.065455 238.72821 
L 106.298182 222.327705 
L 122.530909 220.748163 
L 138.763636 203.799961 
L 154.996364 200.361578 
L 171.229091 188.994873 
L 187.461818 190.417617 
L 203.694545 174.072023 
L 219.927273 174.903568 
L 236.16 213.705456 
L 252.392727 176.870351 
L 268.625455 195.095877 
L 284.858182 217.669803 
L 301.090909 213.249874 
L 317.323636 229.144426 
L 333.556364 231.105591 
L 349.789091 234.32777 
L 366.021818 235.418598 
L 382.254545 246.110886 
L 398.487273 249.921705 
" style="fill:none;stroke:#0e4db3;stroke-linecap:square;stroke-width:3;"/>
   </g>
   <g id="line2d_20">
    <path clip-path="url(#p771b293078)" d="M 73.832727 250.600818 
L 90.065455 242.035379 
L 106.298182 228.747693 
L 122.530909 226.121783 
L 138.763636 213.507044 
L 154.996364 211.214018 
L 171.229091 201.882296 
L 187.461818 202.278576 
L 203.694545 190.027953 
L 219.927273 190.083176 
L 236.16 221.37286 
L 252.392727 191.897569 
L 268.625455 206.308766 
L 284.858182 225.293167 
L 301.090909 220.932829 
L 317.323636 233.599225 
L 333.556364 234.991415 
L 349.789091 236.291435 
L 366.021818 237.546624 
L 382.254545 246.87545 
L 398.487273 250.600818 
" style="fill:none;stroke:#d44e4e;stroke-linecap:square;stroke-width:3;"/>
   </g>
   <g id="line2d_21">
    <path clip-path="url(#p771b293078)" d="M 73.832727 212.151619 
L 90.065455 207.079518 
L 106.298182 199.449122 
L 122.530909 196.366386 
L 138.763636 200.125722 
L 154.996364 200.331326 
L 171.229091 200.695014 
L 187.461818 208.649577 
L 203.694545 207.412434 
L 219.927273 211.4157 
L 236.16 214.935909 
L 252.392727 210.628455 
L 268.625455 209.712233 
L 284.858182 209.805297 
L 301.090909 209.979874 
L 317.323636 210.670637 
L 333.556364 194.621041 
L 349.789091 203.476206 
L 366.021818 200.709909 
L 382.254545 212.414787 
L 398.487273 212.151619 
" style="fill:none;stroke:#0e4db3;stroke-linecap:square;stroke-width:3;"/>
   </g>
   <g id="line2d_22">
    <path clip-path="url(#p771b293078)" d="M 73.832727 227.793079 
L 90.065455 223.750869 
L 106.298182 217.857776 
L 122.530909 214.332229 
L 138.763636 219.837882 
L 154.996364 220.11648 
L 171.229091 219.996492 
L 187.461818 224.881914 
L 203.694545 222.378604 
L 219.927273 228.217972 
L 236.16 225.532233 
L 252.392727 225.971065 
L 268.625455 225.832392 
L 284.858182 226.784382 
L 301.090909 227.202894 
L 317.323636 227.05784 
L 333.556364 214.597893 
L 349.789091 217.315647 
L 366.021818 216.730636 
L 382.254545 227.795048 
L 398.487273 227.793079 
" style="fill:none;stroke:#d44e4e;stroke-linecap:square;stroke-width:3;"/>
   </g>
   <g id="line2d_23">
    <path clip-path="url(#p771b293078)" d="M 73.832727 282.746038 
L 90.065455 254.677277 
L 106.298182 231.014603 
L 122.530909 232.523959 
L 138.763636 203.824471 
L 154.996364 201.664334 
L 171.229091 202.082075 
L 187.461818 204.659706 
L 203.694545 197.460456 
L 219.927273 197.447711 
L 236.16 207.714406 
L 252.392727 200.950132 
L 268.625455 209.734444 
L 284.858182 230.817188 
L 301.090909 222.332245 
L 317.323636 253.214633 
L 333.556364 253.704307 
L 349.789091 261.29981 
L 366.021818 276.158231 
L 382.254545 262.531101 
L 398.487273 282.746038 
" style="fill:none;stroke:#0e4db3;stroke-linecap:square;stroke-width:3;"/>
   </g>
   <g id="line2d_24">
    <path clip-path="url(#p771b293078)" d="M 73.832727 284.717295 
L 90.065455 263.325292 
L 106.298182 244.254945 
L 122.530909 238.888275 
L 138.763636 223.5182 
L 154.996364 221.644473 
L 171.229091 221.708141 
L 187.461818 221.614846 
L 203.694545 216.647228 
L 219.927273 216.698151 
L 236.16 225.446283 
L 252.392727 219.263136 
L 268.625455 224.75835 
L 284.858182 244.547385 
L 301.090909 236.233105 
L 317.323636 259.889802 
L 333.556364 262.476386 
L 349.789091 269.237688 
L 366.021818 279.32358 
L 382.254545 269.268597 
L 398.487273 284.717295 
" style="fill:none;stroke:#d44e4e;stroke-linecap:square;stroke-width:3;"/>
   </g>
   <g id="line2d_25">
    <path clip-path="url(#p771b293078)" d="M 73.832727 175.915976 
L 90.065455 175.255952 
L 106.298182 168.532147 
L 122.530909 179.232904 
L 138.763636 185.633012 
L 154.996364 208.239299 
L 171.229091 212.218838 
L 187.461818 208.571581 
L 203.694545 173.569646 
L 219.927273 149.610817 
L 236.16 151.469443 
L 252.392727 149.173162 
L 268.625455 173.446313 
L 284.858182 188.331669 
L 301.090909 168.069299 
L 317.323636 160.802779 
L 333.556364 158.94529 
L 349.789091 155.527933 
L 366.021818 147.043261 
L 382.254545 154.957372 
L 398.487273 175.915976 
" style="fill:none;stroke:#0e4db3;stroke-linecap:square;stroke-width:3;"/>
   </g>
   <g id="line2d_26">
    <path clip-path="url(#p771b293078)" d="M 73.832727 191.529021 
L 90.065455 191.511003 
L 106.298182 186.074225 
L 122.530909 193.131417 
L 138.763636 200.35334 
L 154.996364 217.598785 
L 171.229091 220.59747 
L 187.461818 216.021155 
L 203.694545 188.348369 
L 219.927273 170.996414 
L 236.16 172.26577 
L 252.392727 170.489373 
L 268.625455 189.444359 
L 284.858182 201.451233 
L 301.090909 184.992612 
L 317.323636 179.439703 
L 333.556364 178.194667 
L 349.789091 175.593177 
L 366.021818 168.124844 
L 382.254545 174.861205 
L 398.487273 191.529021 
" style="fill:none;stroke:#d44e4e;stroke-linecap:square;stroke-width:3;"/>
   </g>
   <g id="line2d_27">
    <path clip-path="url(#p771b293078)" d="M 73.832727 172.410086 
L 90.065455 171.677035 
L 106.298182 183.491775 
L 122.530909 186.793601 
L 138.763636 210.253974 
L 154.996364 226.333023 
L 171.229091 209.909153 
L 187.461818 188.841717 
L 203.694545 180.144784 
L 219.927273 202.224505 
L 236.16 199.586386 
L 252.392727 199.675891 
L 268.625455 212.283594 
L 284.858182 221.739028 
L 301.090909 206.537307 
L 317.323636 203.760036 
L 333.556364 189.311543 
L 349.789091 188.713622 
L 366.021818 180.402168 
L 382.254545 172.871921 
L 398.487273 172.410086 
" style="fill:none;stroke:#0e4db3;stroke-linecap:square;stroke-width:3;"/>
   </g>
   <g id="line2d_28">
    <path clip-path="url(#p771b293078)" d="M 73.832727 190.191993 
L 90.065455 187.091725 
L 106.298182 199.16001 
L 122.530909 194.916768 
L 138.763636 220.264974 
L 154.996364 232.739932 
L 171.229091 219.136293 
L 187.461818 201.677804 
L 203.694545 194.969817 
L 219.927273 213.44733 
L 236.16 211.346116 
L 252.392727 210.950965 
L 268.625455 221.592215 
L 284.858182 228.278897 
L 301.090909 217.636856 
L 317.323636 213.78575 
L 333.556364 203.591333 
L 349.789091 201.099178 
L 366.021818 195.335218 
L 382.254545 187.044122 
L 398.487273 190.191993 
" style="fill:none;stroke:#d44e4e;stroke-linecap:square;stroke-width:3;"/>
   </g>
   <g id="line2d_29">
    <path clip-path="url(#p771b293078)" d="M 73.832727 118.550332 
L 90.065455 118.312548 
L 106.298182 114.572095 
L 122.530909 116.826985 
L 138.763636 116.59388 
L 154.996364 116.714132 
L 171.229091 114.450591 
L 187.461818 116.138793 
L 203.694545 108.381991 
L 219.927273 111.847865 
L 236.16 112.520041 
L 252.392727 112.37458 
L 268.625455 115.180916 
L 284.858182 117.326446 
L 301.090909 115.491547 
L 317.323636 116.389215 
L 333.556364 115.752663 
L 349.789091 117.633633 
L 366.021818 114.924348 
L 382.254545 116.609319 
L 398.487273 118.550332 
" style="fill:none;stroke:#0e4db3;stroke-linecap:square;stroke-width:3;"/>
   </g>
   <g id="line2d_30">
    <path clip-path="url(#p771b293078)" d="M 73.832727 145.381555 
L 90.065455 144.222491 
L 106.298182 141.802679 
L 122.530909 143.289824 
L 138.763636 143.252668 
L 154.996364 143.319698 
L 171.229091 141.564417 
L 187.461818 143.182096 
L 203.694545 136.824796 
L 219.927273 139.97915 
L 236.16 140.323427 
L 252.392727 140.250235 
L 268.625455 140.277258 
L 284.858182 143.002822 
L 301.090909 141.478603 
L 317.323636 142.669535 
L 333.556364 142.494151 
L 349.789091 144.14157 
L 366.021818 141.978031 
L 382.254545 143.638913 
L 398.487273 145.381555 
" style="fill:none;stroke:#d44e4e;stroke-linecap:square;stroke-width:3;"/>
   </g>
   <g id="line2d_31">
    <path clip-path="url(#p771b293078)" d="M 73.832727 204.549605 
L 90.065455 189.799338 
L 106.298182 189.671317 
L 122.530909 198.650951 
L 138.763636 199.890903 
L 154.996364 196.376544 
L 171.229091 196.178825 
L 187.461818 195.674866 
L 203.694545 207.291243 
L 219.927273 206.982186 
L 236.16 209.668304 
L 252.392727 226.481207 
L 268.625455 244.436637 
L 284.858182 251.214146 
L 301.090909 251.399948 
L 317.323636 248.707672 
L 333.556364 245.784453 
L 349.789091 241.247734 
L 366.021818 222.61357 
L 382.254545 204.676241 
L 398.487273 204.549605 
" style="fill:none;stroke:#0e4db3;stroke-linecap:square;stroke-width:3;"/>
   </g>
   <g id="line2d_32">
    <path clip-path="url(#p771b293078)" d="M 73.832727 215.95752 
L 90.065455 204.132737 
L 106.298182 204.596318 
L 122.530909 207.742928 
L 138.763636 212.458517 
L 154.996364 209.390826 
L 171.229091 209.029231 
L 187.461818 208.271496 
L 203.694545 217.594122 
L 219.927273 217.613619 
L 236.16 220.065532 
L 252.392727 233.357939 
L 268.625455 247.76661 
L 284.858182 252.756549 
L 301.090909 252.831564 
L 317.323636 250.51804 
L 333.556364 248.460948 
L 349.789091 244.59423 
L 366.021818 229.392595 
L 382.254545 214.717461 
L 398.487273 215.95752 
" style="fill:none;stroke:#d44e4e;stroke-linecap:square;stroke-width:3;"/>
   </g>
   <g id="line2d_33">
    <path clip-path="url(#p771b293078)" d="M 73.832727 69.916158 
L 90.065455 69.886466 
L 106.298182 69.477267 
L 122.530909 74.255397 
L 138.763636 72.800729 
L 154.996364 73.577387 
L 171.229091 73.89194 
L 187.461818 75.40123 
L 203.694545 70.241025 
L 219.927273 73.477337 
L 236.16 73.666167 
L 252.392727 72.80147 
L 268.625455 73.115594 
L 284.858182 78.832766 
L 301.090909 74.295404 
L 317.323636 74.042114 
L 333.556364 72.773294 
L 349.789091 72.898571 
L 366.021818 69.591834 
L 382.254545 69.882478 
L 398.487273 69.916158 
" style="fill:none;stroke:#0e4db3;stroke-linecap:square;stroke-width:3;"/>
   </g>
   <g id="line2d_34">
    <path clip-path="url(#p771b293078)" d="M 73.832727 110.215407 
L 90.065455 110.210282 
L 106.298182 109.77276 
L 122.530909 113.16157 
L 138.763636 111.466184 
L 154.996364 112.97966 
L 171.229091 112.543373 
L 187.461818 114.76142 
L 203.694545 110.006425 
L 219.927273 113.262378 
L 236.16 113.607875 
L 252.392727 112.489295 
L 268.625455 110.665584 
L 284.858182 113.685648 
L 301.090909 112.111074 
L 317.323636 112.117039 
L 333.556364 111.592961 
L 349.789091 112.182289 
L 366.021818 109.342866 
L 382.254545 109.960058 
L 398.487273 110.215407 
" style="fill:none;stroke:#d44e4e;stroke-linecap:square;stroke-width:3;"/>
   </g>
   <g id="line2d_35">
    <path clip-path="url(#p771b293078)" d="M 73.832727 285.408 
L 90.065455 285.408 
L 106.298182 285.408 
L 122.530909 285.408 
L 138.763636 285.408 
L 154.996364 285.408 
L 171.229091 285.408 
L 187.461818 285.408 
L 203.694545 285.408 
L 219.927273 285.408 
L 236.16 285.408 
L 252.392727 285.408 
L 268.625455 282.276143 
L 284.858182 284.511935 
L 301.090909 285.408 
L 317.323636 285.408 
L 333.556364 285.408 
L 349.789091 285.408 
L 366.021818 285.408 
L 382.254545 285.408 
L 398.487273 285.408 
" style="fill:none;stroke:#0e4db3;stroke-linecap:square;stroke-width:3;"/>
   </g>
   <g id="line2d_36">
    <path clip-path="url(#p771b293078)" d="M 73.832727 285.408 
L 90.065455 285.408 
L 106.298182 285.408 
L 122.530909 285.408 
L 138.763636 285.408 
L 154.996364 285.408 
L 171.229091 285.408 
L 187.461818 285.408 
L 203.694545 285.408 
L 219.927273 285.408 
L 236.16 285.408 
L 252.392727 285.408 
L 268.625455 285.408 
L 284.858182 285.408 
L 301.090909 285.408 
L 317.323636 285.408 
L 333.556364 285.408 
L 349.789091 285.408 
L 366.021818 285.408 
L 382.254545 285.408 
L 398.487273 285.408 
" style="fill:none;stroke:#d44e4e;stroke-linecap:square;stroke-width:3;"/>
   </g>
   <g id="line2d_37">
    <path clip-path="url(#p771b293078)" d="M 73.832727 201.298875 
L 90.065455 139.636191 
L 106.298182 154.388311 
L 122.530909 171.072012 
L 138.763636 174.251502 
L 154.996364 218.541017 
L 171.229091 233.220192 
L 187.461818 232.88272 
L 203.694545 187.701733 
L 219.927273 146.296558 
L 236.16 148.615808 
L 252.392727 144.8773 
L 268.625455 168.279393 
L 284.858182 194.183025 
L 301.090909 169.607342 
L 317.323636 158.560141 
L 333.556364 156.051978 
L 349.789091 165.355177 
L 366.021818 131.797859 
L 382.254545 161.547316 
L 398.487273 201.298875 
" style="fill:none;stroke:#0e4db3;stroke-linecap:square;stroke-width:3;"/>
   </g>
   <g id="line2d_38">
    <path clip-path="url(#p771b293078)" d="M 73.832727 219.146942 
L 90.065455 169.222061 
L 106.298182 178.357867 
L 122.530909 193.904541 
L 138.763636 198.147256 
L 154.996364 233.89657 
L 171.229091 245.660358 
L 187.461818 240.938528 
L 203.694545 205.462531 
L 219.927273 175.285372 
L 236.16 177.013366 
L 252.392727 174.010752 
L 268.625455 192.1589 
L 284.858182 213.108606 
L 301.090909 193.170097 
L 317.323636 184.419844 
L 333.556364 182.689741 
L 349.789091 188.014027 
L 366.021818 162.566084 
L 382.254545 186.369153 
L 398.487273 219.146942 
" style="fill:none;stroke:#d44e4e;stroke-linecap:square;stroke-width:3;"/>
   </g>
   <g id="line2d_39">
    <path clip-path="url(#p771b293078)" d="M 73.832727 249.256643 
L 90.065455 220.492328 
L 106.298182 230.272958 
L 122.530909 229.489074 
L 138.763636 236.22859 
L 154.996364 239.489545 
L 171.229091 247.491908 
L 187.461818 255.485762 
L 203.694545 251.965471 
L 219.927273 237.157096 
L 236.16 238.332729 
L 252.392727 237.929043 
L 268.625455 242.956976 
L 284.858182 229.741144 
L 301.090909 240.365191 
L 317.323636 255.514399 
L 333.556364 255.640999 
L 349.789091 247.863464 
L 366.021818 242.4951 
L 382.254545 241.748414 
L 398.487273 249.256643 
" style="fill:none;stroke:#0e4db3;stroke-linecap:square;stroke-width:3;"/>
   </g>
   <g id="line2d_40">
    <path clip-path="url(#p771b293078)" d="M 73.832727 258.439933 
L 90.065455 230.714781 
L 106.298182 238.765572 
L 122.530909 241.561618 
L 138.763636 247.70716 
L 154.996364 250.711612 
L 171.229091 256.033295 
L 187.461818 262.982502 
L 203.694545 259.387387 
L 219.927273 248.489635 
L 236.16 249.357752 
L 252.392727 249.04196 
L 268.625455 252.694477 
L 284.858182 242.137892 
L 301.090909 251.048853 
L 317.323636 262.303275 
L 333.556364 262.710286 
L 349.789091 256.554951 
L 366.021818 251.966187 
L 382.254545 251.674073 
L 398.487273 258.439933 
" style="fill:none;stroke:#d44e4e;stroke-linecap:square;stroke-width:3;"/>
   </g>
   <g id="line2d_41">
    <path clip-path="url(#p771b293078)" d="M 73.832727 244.634447 
L 90.065455 225.158181 
L 106.298182 200.018628 
L 122.530909 190.887913 
L 138.763636 177.968738 
L 154.996364 172.853944 
L 171.229091 186.203778 
L 187.461818 204.303747 
L 203.694545 207.749354 
L 219.927273 185.29105 
L 236.16 185.155754 
L 252.392727 195.833344 
L 268.625455 190.7251 
L 284.858182 208.226472 
L 301.090909 215.400215 
L 317.323636 259.830914 
L 333.556364 257.635079 
L 349.789091 259.543205 
L 366.021818 239.675495 
L 382.254545 244.843243 
L 398.487273 244.634447 
" style="fill:none;stroke:#0e4db3;stroke-linecap:square;stroke-width:3;"/>
   </g>
   <g id="line2d_42">
    <path clip-path="url(#p771b293078)" d="M 73.832727 252.406252 
L 90.065455 237.198347 
L 106.298182 204.842728 
L 122.530909 207.046975 
L 138.763636 200.515279 
L 154.996364 196.253137 
L 171.229091 206.578211 
L 187.461818 218.04465 
L 203.694545 222.584673 
L 219.927273 205.461312 
L 236.16 205.455067 
L 252.392727 213.309596 
L 268.625455 209.031637 
L 284.858182 222.148024 
L 301.090909 227.091622 
L 317.323636 265.6736 
L 333.556364 263.28249 
L 349.789091 262.739235 
L 366.021818 245.545932 
L 382.254545 251.211229 
L 398.487273 252.406252 
" style="fill:none;stroke:#d44e4e;stroke-linecap:square;stroke-width:3;"/>
   </g>
   <g id="line2d_43">
    <path clip-path="url(#p771b293078)" d="M 73.832727 205.129508 
L 90.065455 204.519213 
L 106.298182 204.282804 
L 122.530909 212.09427 
L 138.763636 204.451664 
L 154.996364 222.458362 
L 171.229091 224.181981 
L 187.461818 224.536714 
L 203.694545 223.329584 
L 219.927273 222.648082 
L 236.16 222.096256 
L 252.392727 213.149379 
L 268.625455 208.533906 
L 284.858182 215.799733 
L 301.090909 204.037646 
L 317.323636 204.323404 
L 333.556364 204.377549 
L 349.789091 206.276025 
L 366.021818 198.628913 
L 382.254545 204.614081 
L 398.487273 205.129508 
" style="fill:none;stroke:#0e4db3;stroke-linecap:square;stroke-width:3;"/>
   </g>
   <g id="line2d_44">
    <path clip-path="url(#p771b293078)" d="M 73.832727 217.086316 
L 90.065455 212.48568 
L 106.298182 212.199321 
L 122.530909 215.064729 
L 138.763636 216.982031 
L 154.996364 230.922635 
L 171.229091 231.94993 
L 187.461818 232.225942 
L 203.694545 232.084867 
L 219.927273 231.622501 
L 236.16 231.686367 
L 252.392727 222.714123 
L 268.625455 219.684914 
L 284.858182 224.97749 
L 301.090909 216.083695 
L 317.323636 216.108543 
L 333.556364 216.118635 
L 349.789091 218.12007 
L 366.021818 211.11807 
L 382.254545 216.289859 
L 398.487273 217.086316 
" style="fill:none;stroke:#d44e4e;stroke-linecap:square;stroke-width:3;"/>
   </g>
   <g id="line2d_45">
    <path clip-path="url(#p771b293078)" d="M 73.832727 285.408 
L 90.065455 285.408 
L 106.298182 285.408 
L 122.530909 285.408 
L 138.763636 285.408 
L 154.996364 285.408 
L 171.229091 285.408 
L 187.461818 285.408 
L 203.694545 285.408 
L 219.927273 285.408 
L 236.16 285.408 
L 252.392727 285.408 
L 268.625455 285.408 
L 284.858182 285.408 
L 301.090909 285.408 
L 317.323636 285.408 
L 333.556364 285.408 
L 349.789091 285.408 
L 366.021818 285.408 
L 382.254545 285.408 
L 398.487273 285.408 
" style="fill:none;stroke:#0e4db3;stroke-linecap:square;stroke-width:3;"/>
   </g>
   <g id="line2d_46">
    <path clip-path="url(#p771b293078)" d="M 73.832727 285.408 
L 90.065455 285.408 
L 106.298182 285.408 
L 122.530909 285.408 
L 138.763636 285.408 
L 154.996364 285.408 
L 171.229091 285.408 
L 187.461818 285.408 
L 203.694545 285.408 
L 219.927273 285.408 
L 236.16 285.408 
L 252.392727 285.408 
L 268.625455 285.408 
L 284.858182 285.408 
L 301.090909 285.408 
L 317.323636 285.408 
L 333.556364 285.408 
L 349.789091 285.408 
L 366.021818 285.408 
L 382.254545 285.408 
L 398.487273 285.408 
" style="fill:none;stroke:#d44e4e;stroke-linecap:square;stroke-width:3;"/>
   </g>
   <g id="line2d_47">
    <path clip-path="url(#p771b293078)" d="M 73.832727 178.717023 
L 90.065455 81.232739 
L 106.298182 83.904933 
L 122.530909 76.113166 
L 138.763636 39.128876 
L 154.996364 67.342926 
L 171.229091 130.882971 
L 187.461818 226.783579 
L 203.694545 181.300207 
L 219.927273 141.321854 
L 236.16 135.521818 
L 252.392727 94.298108 
L 268.625455 61.375529 
L 284.858182 41.879535 
L 301.090909 74.622956 
L 317.323636 140.278477 
L 333.556364 247.589994 
L 349.789091 285.408 
L 366.021818 253.246029 
L 382.254545 173.04364 
L 398.487273 178.717023 
" style="fill:none;stroke:#0e4db3;stroke-linecap:square;stroke-width:3;"/>
   </g>
   <g id="line2d_48">
    <path clip-path="url(#p771b293078)" d="M 73.832727 285.408 
L 90.065455 204.721661 
L 106.298182 212.091147 
L 122.530909 186.586951 
L 138.763636 248.382446 
L 154.996364 277.885199 
L 171.229091 285.408 
L 187.461818 285.408 
L 203.694545 285.408 
L 219.927273 285.408 
L 236.16 283.065012 
L 252.392727 249.038693 
L 268.625455 228.06984 
L 284.858182 232.315987 
L 301.090909 252.180279 
L 317.323636 285.408 
L 333.556364 285.408 
L 349.789091 285.408 
L 366.021818 285.408 
L 382.254545 285.408 
L 398.487273 285.408 
" style="fill:none;stroke:#d44e4e;stroke-linecap:square;stroke-width:3;"/>
   </g>
   <g id="line2d_49">
    <path clip-path="url(#p771b293078)" d="M 73.832727 285.408 
L 90.065455 285.408 
L 106.298182 285.408 
L 122.530909 285.408 
L 138.763636 285.408 
L 154.996364 285.408 
L 171.229091 285.408 
L 187.461818 285.408 
L 203.694545 285.408 
L 219.927273 285.408 
L 236.16 285.408 
L 252.392727 285.408 
L 268.625455 285.408 
L 284.858182 285.408 
L 301.090909 285.408 
L 317.323636 285.408 
L 333.556364 285.408 
L 349.789091 285.408 
L 366.021818 285.408 
L 382.254545 285.408 
L 398.487273 285.408 
" style="fill:none;stroke:#0e4db3;stroke-linecap:square;stroke-width:3;"/>
   </g>
   <g id="line2d_50">
    <path clip-path="url(#p771b293078)" d="M 73.832727 285.408 
L 90.065455 285.408 
L 106.298182 285.408 
L 122.530909 285.408 
L 138.763636 285.408 
L 154.996364 285.408 
L 171.229091 285.408 
L 187.461818 285.408 
L 203.694545 285.408 
L 219.927273 285.408 
L 236.16 285.408 
L 252.392727 285.408 
L 268.625455 285.408 
L 284.858182 285.408 
L 301.090909 285.408 
L 317.323636 285.408 
L 333.556364 285.408 
L 349.789091 285.408 
L 366.021818 285.408 
L 382.254545 285.408 
L 398.487273 285.408 
" style="fill:none;stroke:#d44e4e;stroke-linecap:square;stroke-width:3;"/>
   </g>
   <g id="line2d_51">
    <path clip-path="url(#p771b293078)" d="M 73.832727 285.408 
L 90.065455 285.408 
L 106.298182 285.408 
L 122.530909 285.408 
L 138.763636 285.408 
L 154.996364 285.408 
L 171.229091 285.408 
L 187.461818 285.408 
L 203.694545 285.408 
L 219.927273 285.408 
L 236.16 285.408 
L 252.392727 285.408 
L 268.625455 285.408 
L 284.858182 285.408 
L 301.090909 285.408 
L 317.323636 285.408 
L 333.556364 285.408 
L 349.789091 285.408 
L 366.021818 285.408 
L 382.254545 285.408 
L 398.487273 285.408 
" style="fill:none;stroke:#0e4db3;stroke-linecap:square;stroke-width:3;"/>
   </g>
   <g id="line2d_52">
    <path clip-path="url(#p771b293078)" d="M 73.832727 285.408 
L 90.065455 285.408 
L 106.298182 285.408 
L 122.530909 285.408 
L 138.763636 285.408 
L 154.996364 285.408 
L 171.229091 285.408 
L 187.461818 285.408 
L 203.694545 285.408 
L 219.927273 285.408 
L 236.16 285.408 
L 252.392727 285.408 
L 268.625455 285.408 
L 284.858182 285.408 
L 301.090909 285.408 
L 317.323636 285.408 
L 333.556364 285.408 
L 349.789091 285.408 
L 366.021818 285.408 
L 382.254545 285.408 
L 398.487273 285.408 
" style="fill:none;stroke:#d44e4e;stroke-linecap:square;stroke-width:3;"/>
   </g>
   <g id="line2d_53">
    <path clip-path="url(#p771b293078)" d="M 85.05009 -1 
L 90.065455 33.752867 
L 106.298182 142.11013 
L 122.530909 157.991467 
L 138.763636 151.826334 
L 154.996364 155.692443 
L 171.229091 148.442343 
L 187.461818 167.313656 
L 203.694545 185.373362 
L 219.927273 117.108615 
L 236.16 99.895078 
L 252.392727 79.551853 
L 268.625455 129.005001 
L 284.858182 76.276078 
L 301.090909 0.340038 
L 301.31931 -1 
" style="fill:none;stroke:#0e4db3;stroke-linecap:square;stroke-width:3;"/>
   </g>
   <g id="line2d_54">
    <path clip-path="url(#p771b293078)" d="M 73.832727 285.408 
L 90.065455 285.408 
L 106.298182 285.408 
L 122.530909 285.408 
L 138.763636 285.408 
L 154.996364 285.408 
L 171.229091 285.408 
L 187.461818 285.408 
L 203.694545 285.408 
L 219.927273 285.408 
L 236.16 285.408 
L 252.392727 285.408 
L 268.625455 285.408 
L 284.858182 285.408 
L 301.090909 285.408 
L 317.323636 185.772377 
L 333.556364 233.823448 
L 349.789091 189.336646 
L 366.021818 180.611645 
L 382.254545 221.733879 
L 398.487273 285.408 
" style="fill:none;stroke:#d44e4e;stroke-linecap:square;stroke-width:3;"/>
   </g>
   <g id="line2d_55">
    <path clip-path="url(#p771b293078)" d="M 73.832727 285.408 
L 90.065455 285.408 
L 106.298182 285.408 
L 122.530909 285.408 
L 138.763636 285.408 
L 154.996364 285.408 
L 171.229091 285.408 
L 187.461818 285.408 
L 203.694545 285.408 
L 219.927273 285.408 
L 236.16 285.408 
L 252.392727 285.408 
L 268.625455 285.408 
L 284.858182 285.408 
L 301.090909 285.408 
L 317.323636 285.408 
L 333.556364 285.408 
L 349.789091 285.408 
L 366.021818 285.408 
L 382.254545 285.408 
L 398.487273 285.408 
" style="fill:none;stroke:#0e4db3;stroke-linecap:square;stroke-width:3;"/>
   </g>
   <g id="line2d_56">
    <path clip-path="url(#p771b293078)" d="M 73.832727 285.408 
L 90.065455 285.408 
L 106.298182 285.408 
L 122.530909 285.408 
L 138.763636 285.408 
L 154.996364 285.408 
L 171.229091 285.408 
L 187.461818 285.408 
L 203.694545 285.408 
L 219.927273 285.408 
L 236.16 285.408 
L 252.392727 285.408 
L 268.625455 285.408 
L 284.858182 285.408 
L 301.090909 285.408 
L 317.323636 285.408 
L 333.556364 285.408 
L 349.789091 285.408 
L 366.021818 285.408 
L 382.254545 285.408 
L 398.487273 285.408 
" style="fill:none;stroke:#d44e4e;stroke-linecap:square;stroke-width:3;"/>
   </g>
   <g id="line2d_57">
    <path clip-path="url(#p771b293078)" d="M 73.832727 285.408 
L 90.065455 285.408 
L 106.298182 285.408 
L 122.530909 285.408 
L 138.763636 285.408 
L 154.996364 285.408 
L 171.229091 285.408 
L 187.461818 285.408 
L 203.694545 285.408 
L 219.927273 285.408 
L 236.16 285.408 
L 252.392727 285.408 
L 268.625455 285.408 
L 284.858182 285.408 
L 301.090909 285.408 
L 317.323636 285.408 
L 333.556364 285.408 
L 349.789091 285.408 
L 366.021818 285.408 
L 382.254545 285.408 
L 398.487273 285.408 
" style="fill:none;stroke:#0e4db3;stroke-linecap:square;stroke-width:3;"/>
   </g>
   <g id="line2d_58">
    <path clip-path="url(#p771b293078)" d="M 73.832727 285.408 
L 90.065455 285.408 
L 106.298182 285.408 
L 122.530909 285.408 
L 138.763636 285.408 
L 154.996364 285.408 
L 171.229091 285.408 
L 187.461818 285.408 
L 203.694545 285.408 
L 219.927273 285.408 
L 236.16 285.408 
L 252.392727 285.408 
L 268.625455 285.408 
L 284.858182 285.408 
L 301.090909 285.408 
L 317.323636 285.408 
L 333.556364 285.408 
L 349.789091 285.408 
L 366.021818 285.408 
L 382.254545 285.408 
L 398.487273 285.408 
" style="fill:none;stroke:#d44e4e;stroke-linecap:square;stroke-width:3;"/>
   </g>
   <g id="line2d_59">
    <path clip-path="url(#p771b293078)" d="M 73.832727 239.503217 
L 90.065455 239.660361 
L 106.298182 248.704541 
L 122.530909 260.90986 
L 138.763636 260.779421 
L 154.996364 262.859754 
L 171.229091 247.944294 
L 187.461818 212.505157 
L 203.694545 138.520708 
L 219.927273 86.005908 
L 236.16 151.647159 
L 252.392727 55.331776 
L 268.625455 67.533865 
L 284.858182 71.880222 
L 301.090909 72.814817 
L 317.323636 103.89612 
L 333.556364 123.455584 
L 349.789091 158.361424 
L 366.021818 176.593079 
L 382.254545 207.844824 
L 398.487273 239.503217 
" style="fill:none;stroke:#0e4db3;stroke-linecap:square;stroke-width:3;"/>
   </g>
   <g id="line2d_60">
    <path clip-path="url(#p771b293078)" d="M 73.832727 283.17384 
L 90.065455 268.89899 
L 106.298182 282.0464 
L 122.530909 274.883875 
L 138.763636 274.180685 
L 154.996364 275.177681 
L 171.229091 283.316717 
L 187.461818 283.797292 
L 203.694545 283.534541 
L 219.927273 219.974952 
L 236.16 282.341821 
L 252.392727 192.849448 
L 268.625455 210.839966 
L 284.858182 231.467898 
L 301.090909 242.069264 
L 317.323636 229.459646 
L 333.556364 246.823118 
L 349.789091 234.312771 
L 366.021818 247.54555 
L 382.254545 255.64762 
L 398.487273 283.17384 
" style="fill:none;stroke:#d44e4e;stroke-linecap:square;stroke-width:3;"/>
   </g>
   <g id="line2d_61">
    <path clip-path="url(#p771b293078)" d="M 73.832727 285.408 
L 90.065455 285.408 
L 106.298182 285.408 
L 122.530909 285.408 
L 138.763636 285.408 
L 154.996364 285.408 
L 171.229091 285.408 
L 187.461818 285.408 
L 203.694545 285.408 
L 219.927273 285.408 
L 236.16 285.408 
L 252.392727 285.408 
L 268.625455 285.408 
L 284.858182 285.408 
L 301.090909 285.408 
L 317.323636 285.408 
L 333.556364 285.408 
L 349.789091 285.408 
L 366.021818 285.408 
L 382.254545 285.408 
L 398.487273 285.408 
" style="fill:none;stroke:#0e4db3;stroke-linecap:square;stroke-width:3;"/>
   </g>
   <g id="line2d_62">
    <path clip-path="url(#p771b293078)" d="M 73.832727 285.408 
L 90.065455 285.408 
L 106.298182 285.408 
L 122.530909 285.408 
L 138.763636 285.408 
L 154.996364 285.408 
L 171.229091 285.408 
L 187.461818 285.408 
L 203.694545 285.408 
L 219.927273 285.408 
L 236.16 285.408 
L 252.392727 285.408 
L 268.625455 285.408 
L 284.858182 285.408 
L 301.090909 285.408 
L 317.323636 285.408 
L 333.556364 285.408 
L 349.789091 285.408 
L 366.021818 285.408 
L 382.254545 285.408 
L 398.487273 285.408 
" style="fill:none;stroke:#d44e4e;stroke-linecap:square;stroke-width:3;"/>
   </g>
   <g id="line2d_63">
    <path clip-path="url(#p771b293078)" d="M 73.832727 285.408 
L 90.065455 285.408 
L 106.298182 285.408 
L 122.530909 285.408 
L 138.763636 285.408 
L 154.996364 285.408 
L 171.229091 285.408 
L 187.461818 285.408 
L 203.694545 285.408 
L 219.927273 285.408 
L 236.16 285.408 
L 252.392727 285.408 
L 268.625455 285.408 
L 284.858182 285.408 
L 301.090909 285.408 
L 317.323636 285.408 
L 333.556364 285.408 
L 349.789091 285.408 
L 366.021818 285.408 
L 382.254545 285.408 
L 398.487273 285.408 
" style="fill:none;stroke:#0e4db3;stroke-linecap:square;stroke-width:3;"/>
   </g>
   <g id="line2d_64">
    <path clip-path="url(#p771b293078)" d="M 73.832727 285.408 
L 90.065455 285.408 
L 106.298182 285.408 
L 122.530909 285.408 
L 138.763636 285.408 
L 154.996364 285.408 
L 171.229091 285.408 
L 187.461818 285.408 
L 203.694545 285.408 
L 219.927273 285.408 
L 236.16 285.408 
L 252.392727 285.408 
L 268.625455 285.408 
L 284.858182 285.408 
L 301.090909 285.408 
L 317.323636 285.408 
L 333.556364 285.408 
L 349.789091 285.408 
L 366.021818 285.408 
L 382.254545 285.408 
L 398.487273 285.408 
" style="fill:none;stroke:#d44e4e;stroke-linecap:square;stroke-width:3;"/>
   </g>
   <g id="line2d_65">
    <path clip-path="url(#p771b293078)" d="M 73.832727 285.408 
L 90.065455 285.408 
L 106.298182 285.408 
L 122.530909 285.408 
L 138.763636 285.408 
L 154.996364 285.408 
L 171.229091 285.408 
L 187.461818 285.408 
L 203.694545 285.408 
L 219.927273 285.408 
L 236.16 285.408 
L 252.392727 285.408 
L 268.625455 285.408 
L 284.858182 285.408 
L 301.090909 285.408 
L 317.323636 285.408 
L 333.556364 285.408 
L 349.789091 285.408 
L 366.021818 285.408 
L 382.254545 285.408 
L 398.487273 285.408 
" style="fill:none;stroke:#0e4db3;stroke-linecap:square;stroke-width:3;"/>
   </g>
   <g id="line2d_66">
    <path clip-path="url(#p771b293078)" d="M 73.832727 285.408 
L 90.065455 285.408 
L 106.298182 285.408 
L 122.530909 285.408 
L 138.763636 285.408 
L 154.996364 285.408 
L 171.229091 285.408 
L 187.461818 285.408 
L 203.694545 285.408 
L 219.927273 285.408 
L 236.16 285.408 
L 252.392727 285.408 
L 268.625455 285.408 
L 284.858182 285.408 
L 301.090909 285.408 
L 317.323636 285.408 
L 333.556364 285.408 
L 349.789091 285.408 
L 366.021818 285.408 
L 382.254545 285.408 
L 398.487273 285.408 
" style="fill:none;stroke:#d44e4e;stroke-linecap:square;stroke-width:3;"/>
   </g>
   <g id="line2d_67">
    <path clip-path="url(#p771b293078)" d="M 73.832727 285.408 
L 90.065455 285.408 
L 106.298182 285.408 
L 122.530909 285.408 
L 138.763636 285.408 
L 154.996364 285.408 
L 171.229091 285.408 
L 187.461818 285.408 
L 203.694545 285.408 
L 219.927273 285.408 
L 236.16 285.408 
L 252.392727 285.408 
L 268.625455 285.408 
L 284.858182 285.408 
L 301.090909 285.408 
L 317.323636 285.408 
L 333.556364 285.408 
L 349.789091 285.408 
L 366.021818 285.408 
L 382.254545 285.408 
L 398.487273 285.408 
" style="fill:none;stroke:#0e4db3;stroke-linecap:square;stroke-width:3;"/>
   </g>
   <g id="line2d_68">
    <path clip-path="url(#p771b293078)" d="M 73.832727 285.408 
L 90.065455 285.408 
L 106.298182 285.408 
L 122.530909 285.408 
L 138.763636 285.408 
L 154.996364 285.408 
L 171.229091 285.408 
L 187.461818 285.408 
L 203.694545 285.408 
L 219.927273 285.408 
L 236.16 285.408 
L 252.392727 285.408 
L 268.625455 285.408 
L 284.858182 285.408 
L 301.090909 285.408 
L 317.323636 285.408 
L 333.556364 285.408 
L 349.789091 285.408 
L 366.021818 285.408 
L 382.254545 285.408 
L 398.487273 285.408 
" style="fill:none;stroke:#d44e4e;stroke-linecap:square;stroke-width:3;"/>
   </g>
   <g id="line2d_69">
    <path clip-path="url(#p771b293078)" d="M 73.832727 153.017842 
L 90.065455 112.987223 
L 106.298182 43.138766 
L 122.530909 53.964125 
L 136.672296 -1 
M 156.336444 -1 
L 171.229091 39.381589 
L 187.461818 130.329959 
L 203.694545 87.607126 
L 219.927273 86.875384 
L 236.16 136.093054 
L 252.392727 106.618274 
L 268.625455 118.810048 
L 284.858182 158.367084 
L 301.090909 161.760821 
L 317.323636 207.009827 
L 333.556364 188.473901 
L 349.789091 174.115465 
L 366.021818 145.581343 
L 382.254545 145.402202 
L 398.487273 153.017842 
" style="fill:none;stroke:#0e4db3;stroke-linecap:square;stroke-width:3;"/>
   </g>
   <g id="line2d_70">
    <path clip-path="url(#p771b293078)" d="M 73.832727 285.408 
L 90.065455 285.408 
L 106.298182 285.408 
L 122.530909 285.408 
L 138.763636 285.408 
L 154.996364 285.408 
L 171.229091 285.408 
L 187.461818 285.408 
L 203.694545 285.408 
L 219.927273 285.408 
L 236.16 285.408 
L 252.392727 285.408 
L 268.625455 285.408 
L 284.858182 285.408 
L 301.090909 285.408 
L 317.323636 285.408 
L 333.556364 285.408 
L 349.789091 285.408 
L 366.021818 285.408 
L 382.254545 285.408 
L 398.487273 285.408 
" style="fill:none;stroke:#d44e4e;stroke-linecap:square;stroke-width:3;"/>
   </g>
   <g id="line2d_71">
    <path clip-path="url(#p771b293078)" d="M 73.832727 285.408 
L 90.065455 285.408 
L 106.298182 285.408 
L 122.530909 285.408 
L 138.763636 285.408 
L 154.996364 285.408 
L 171.229091 285.408 
L 187.461818 285.408 
L 203.694545 285.408 
L 219.927273 285.408 
L 236.16 285.408 
L 252.392727 285.408 
L 268.625455 285.408 
L 284.858182 285.408 
L 301.090909 285.408 
L 317.323636 285.408 
L 333.556364 285.408 
L 349.789091 285.408 
L 366.021818 285.408 
L 382.254545 285.408 
L 398.487273 285.408 
" style="fill:none;stroke:#0e4db3;stroke-linecap:square;stroke-width:3;"/>
   </g>
   <g id="line2d_72">
    <path clip-path="url(#p771b293078)" d="M 73.832727 285.408 
L 90.065455 285.408 
L 106.298182 285.408 
L 122.530909 285.408 
L 138.763636 285.408 
L 154.996364 285.408 
L 171.229091 285.408 
L 187.461818 285.408 
L 203.694545 285.408 
L 219.927273 285.408 
L 236.16 285.408 
L 252.392727 285.408 
L 268.625455 285.408 
L 284.858182 285.408 
L 301.090909 285.408 
L 317.323636 285.408 
L 333.556364 285.408 
L 349.789091 285.408 
L 366.021818 285.408 
L 382.254545 285.408 
L 398.487273 285.408 
" style="fill:none;stroke:#d44e4e;stroke-linecap:square;stroke-width:3;"/>
   </g>
   <g id="line2d_73">
    <path clip-path="url(#p771b293078)" d="M 73.832727 285.408 
L 90.065455 285.408 
L 106.298182 285.408 
L 122.530909 285.408 
L 138.763636 285.408 
L 154.996364 285.408 
L 171.229091 285.408 
L 187.461818 285.408 
L 203.694545 285.408 
L 219.927273 285.408 
L 236.16 285.408 
L 252.392727 285.408 
L 268.625455 285.408 
L 284.858182 285.408 
L 301.090909 285.408 
L 317.323636 285.408 
L 333.556364 285.408 
L 349.789091 285.408 
L 366.021818 285.408 
L 382.254545 285.408 
L 398.487273 285.408 
" style="fill:none;stroke:#0e4db3;stroke-linecap:square;stroke-width:3;"/>
   </g>
   <g id="line2d_74">
    <path clip-path="url(#p771b293078)" d="M 73.832727 285.408 
L 90.065455 285.408 
L 106.298182 285.408 
L 122.530909 285.408 
L 138.763636 285.408 
L 154.996364 285.408 
L 171.229091 285.408 
L 187.461818 285.408 
L 203.694545 285.408 
L 219.927273 285.408 
L 236.16 285.408 
L 252.392727 285.408 
L 268.625455 285.408 
L 284.858182 285.408 
L 301.090909 285.408 
L 317.323636 285.408 
L 333.556364 285.408 
L 349.789091 285.408 
L 366.021818 285.408 
L 382.254545 285.408 
L 398.487273 285.408 
" style="fill:none;stroke:#d44e4e;stroke-linecap:square;stroke-width:3;"/>
   </g>
   <g id="line2d_75">
    <path clip-path="url(#p771b293078)" d="M 73.832727 285.408 
L 90.065455 285.408 
L 106.298182 285.408 
L 122.530909 285.408 
L 138.763636 285.408 
L 154.996364 285.408 
L 171.229091 285.408 
L 187.461818 285.408 
L 203.694545 285.408 
L 219.927273 285.408 
L 236.16 285.408 
L 252.392727 285.408 
L 268.625455 285.408 
L 284.858182 285.408 
L 301.090909 285.408 
L 317.323636 285.408 
L 333.556364 285.408 
L 349.789091 285.408 
L 366.021818 285.408 
L 382.254545 285.408 
L 398.487273 285.408 
" style="fill:none;stroke:#0e4db3;stroke-linecap:square;stroke-width:3;"/>
   </g>
   <g id="line2d_76">
    <path clip-path="url(#p771b293078)" d="M 73.832727 285.408 
L 90.065455 285.408 
L 106.298182 285.408 
L 122.530909 285.408 
L 138.763636 285.408 
L 154.996364 285.408 
L 171.229091 285.408 
L 187.461818 285.408 
L 203.694545 285.408 
L 219.927273 285.408 
L 236.16 285.408 
L 252.392727 285.408 
L 268.625455 285.408 
L 284.858182 285.408 
L 301.090909 285.408 
L 317.323636 285.408 
L 333.556364 285.408 
L 349.789091 285.408 
L 366.021818 285.408 
L 382.254545 285.408 
L 398.487273 285.408 
" style="fill:none;stroke:#d44e4e;stroke-linecap:square;stroke-width:3;"/>
   </g>
   <g id="line2d_77">
    <path clip-path="url(#p771b293078)" d="M 73.832727 185.076342 
L 90.065455 134.624281 
L 106.298182 210.071801 
L 122.530909 206.384669 
L 138.763636 176.319539 
L 154.996364 171.118321 
L 171.229091 141.935223 
L 187.461818 64.908598 
L 203.694545 13.518458 
L 210.744796 -1 
M 227.378893 -1 
L 236.16 21.283037 
L 239.784454 -1 
M 305.242908 -1 
L 317.323636 77.731635 
L 333.556364 127.29729 
L 349.789091 86.278311 
L 366.021818 91.00859 
L 382.254545 106.140761 
L 398.487273 185.076342 
" style="fill:none;stroke:#0e4db3;stroke-linecap:square;stroke-width:3;"/>
   </g>
   <g id="line2d_78">
    <path clip-path="url(#p771b293078)" d="M 73.832727 285.408 
L 90.065455 285.408 
L 106.298182 285.408 
L 122.530909 285.408 
L 138.763636 285.408 
L 154.996364 285.408 
L 171.229091 285.408 
L 187.461818 285.408 
L 203.694545 285.408 
L 219.927273 285.408 
L 236.16 285.408 
L 252.392727 285.408 
L 268.625455 285.408 
L 284.858182 285.408 
L 301.090909 285.408 
L 317.323636 285.408 
L 333.556364 285.408 
L 349.789091 285.408 
L 366.021818 285.408 
L 382.254545 285.408 
L 398.487273 285.408 
" style="fill:none;stroke:#d44e4e;stroke-linecap:square;stroke-width:3;"/>
   </g>
   <g id="line2d_79">
    <path clip-path="url(#p771b293078)" d="M 73.832727 285.408 
L 90.065455 285.408 
L 106.298182 285.408 
L 122.530909 285.408 
L 138.763636 285.408 
L 154.996364 285.408 
L 171.229091 285.408 
L 187.461818 285.408 
L 203.694545 285.408 
L 219.927273 285.408 
L 236.16 285.408 
L 252.392727 285.408 
L 268.625455 285.408 
L 284.858182 285.408 
L 301.090909 285.408 
L 317.323636 285.408 
L 333.556364 285.408 
L 349.789091 285.408 
L 366.021818 285.408 
L 382.254545 285.408 
L 398.487273 285.408 
" style="fill:none;stroke:#0e4db3;stroke-linecap:square;stroke-width:3;"/>
   </g>
   <g id="line2d_80">
    <path clip-path="url(#p771b293078)" d="M 73.832727 285.408 
L 90.065455 285.408 
L 106.298182 285.408 
L 122.530909 285.408 
L 138.763636 285.408 
L 154.996364 285.408 
L 171.229091 285.408 
L 187.461818 285.408 
L 203.694545 285.408 
L 219.927273 285.408 
L 236.16 285.408 
L 252.392727 285.408 
L 268.625455 285.408 
L 284.858182 285.408 
L 301.090909 285.408 
L 317.323636 285.408 
L 333.556364 285.408 
L 349.789091 285.408 
L 366.021818 285.408 
L 382.254545 285.408 
L 398.487273 285.408 
" style="fill:none;stroke:#d44e4e;stroke-linecap:square;stroke-width:3;"/>
   </g>
   <g id="line2d_81">
    <path clip-path="url(#p771b293078)" d="M 73.832727 29.994305 
L 87.168926 -1 
M 107.290556 -1 
L 122.530909 31.55891 
L 138.763636 74.783297 
L 154.996364 90.889426 
L 171.229091 68.094094 
L 187.461818 100.396088 
L 203.694545 169.837333 
L 219.927273 210.460073 
L 236.16 220.68033 
L 252.392727 163.331613 
L 268.625455 187.174087 
L 284.858182 183.073951 
L 301.090909 79.936698 
L 317.323636 108.086157 
L 333.556364 89.964191 
L 349.789091 110.77992 
L 366.021818 79.615472 
L 382.254545 64.662493 
L 398.487273 29.994305 
" style="fill:none;stroke:#0e4db3;stroke-linecap:square;stroke-width:3;"/>
   </g>
   <g id="line2d_82">
    <path clip-path="url(#p771b293078)" d="M 73.832727 285.408 
L 90.065455 243.89513 
L 106.298182 216.420689 
L 122.530909 244.390945 
L 138.763636 285.408 
L 154.996364 285.408 
L 171.229091 237.370383 
L 187.461818 275.240488 
L 203.694545 285.408 
L 219.927273 285.408 
L 236.16 285.408 
L 252.392727 285.408 
L 268.625455 285.408 
L 284.858182 285.408 
L 301.090909 282.960575 
L 317.323636 285.408 
L 333.556364 285.408 
L 349.789091 230.181752 
L 366.021818 207.138729 
L 382.254545 232.546195 
L 398.487273 285.408 
" style="fill:none;stroke:#d44e4e;stroke-linecap:square;stroke-width:3;"/>
   </g>
   <g id="line2d_83">
    <path clip-path="url(#p771b293078)" d="M 73.832727 85.555303 
L 90.065455 97.28553 
L 106.298182 96.842471 
L 122.530909 91.137344 
L 138.763636 109.50095 
L 154.996364 170.293161 
L 171.229091 197.230993 
L 187.461818 216.319094 
L 203.694545 158.905332 
L 219.927273 29.398271 
L 228.519088 -1 
M 277.324751 -1 
L 284.858182 14.931208 
L 301.090909 4.195997 
L 309.425973 -1 
M 319.586663 -1 
L 333.556364 29.391762 
L 349.789091 20.119672 
L 366.021818 67.685078 
L 382.254545 78.763693 
L 398.487273 85.555303 
" style="fill:none;stroke:#0e4db3;stroke-linecap:square;stroke-width:3;"/>
   </g>
   <g id="line2d_84">
    <path clip-path="url(#p771b293078)" d="M 73.832727 129.467453 
L 90.065455 134.939229 
L 106.298182 130.142942 
L 122.530909 135.303954 
L 138.763636 137.016608 
L 154.996364 195.181114 
L 171.229091 225.347423 
L 187.461818 221.441427 
L 203.694545 180.805846 
L 219.927273 97.493128 
L 236.16 50.656317 
L 252.392727 32.422108 
L 268.625455 47.939733 
L 284.858182 77.865448 
L 301.090909 64.004421 
L 317.323636 51.506267 
L 333.556364 78.395771 
L 349.789091 72.608059 
L 366.021818 102.796472 
L 382.254545 77.622144 
L 398.487273 129.467453 
" style="fill:none;stroke:#d44e4e;stroke-linecap:square;stroke-width:3;"/>
   </g>
   <g id="line2d_85">
    <path clip-path="url(#p771b293078)" d="M 73.832727 285.408 
L 90.065455 285.408 
L 106.298182 285.408 
L 122.530909 285.408 
L 138.763636 285.408 
L 154.996364 285.408 
L 171.229091 285.408 
L 187.461818 285.408 
L 203.694545 285.408 
L 219.927273 285.408 
L 236.16 285.408 
L 252.392727 285.408 
L 268.625455 285.408 
L 284.858182 285.408 
L 301.090909 285.408 
L 317.323636 285.408 
L 333.556364 285.408 
L 349.789091 285.408 
L 366.021818 285.408 
L 382.254545 285.408 
L 398.487273 285.408 
" style="fill:none;stroke:#0e4db3;stroke-linecap:square;stroke-width:3;"/>
   </g>
   <g id="line2d_86">
    <path clip-path="url(#p771b293078)" d="M 73.832727 285.408 
L 90.065455 285.408 
L 106.298182 285.408 
L 122.530909 285.408 
L 138.763636 285.408 
L 154.996364 285.408 
L 171.229091 285.408 
L 187.461818 285.408 
L 203.694545 285.408 
L 219.927273 285.408 
L 236.16 285.408 
L 252.392727 285.408 
L 268.625455 285.408 
L 284.858182 285.408 
L 301.090909 285.408 
L 317.323636 285.408 
L 333.556364 285.408 
L 349.789091 285.408 
L 366.021818 285.408 
L 382.254545 285.408 
L 398.487273 285.408 
" style="fill:none;stroke:#d44e4e;stroke-linecap:square;stroke-width:3;"/>
   </g>
   <g id="line2d_87">
    <path clip-path="url(#p771b293078)" d="M 73.832727 285.408 
L 90.065455 285.408 
L 106.298182 285.408 
L 122.530909 285.408 
L 138.763636 285.408 
L 154.996364 285.408 
L 171.229091 285.408 
L 187.461818 285.408 
L 203.694545 285.408 
L 219.927273 285.408 
L 236.16 285.408 
L 252.392727 285.408 
L 268.625455 285.408 
L 284.858182 285.408 
L 301.090909 285.408 
L 317.323636 285.408 
L 333.556364 285.408 
L 349.789091 285.408 
L 366.021818 285.408 
L 382.254545 285.408 
L 398.487273 285.408 
" style="fill:none;stroke:#0e4db3;stroke-linecap:square;stroke-width:3;"/>
   </g>
   <g id="line2d_88">
    <path clip-path="url(#p771b293078)" d="M 73.832727 285.408 
L 90.065455 285.408 
L 106.298182 285.408 
L 122.530909 285.408 
L 138.763636 285.408 
L 154.996364 285.408 
L 171.229091 285.408 
L 187.461818 285.408 
L 203.694545 285.408 
L 219.927273 285.408 
L 236.16 285.408 
L 252.392727 285.408 
L 268.625455 285.408 
L 284.858182 285.408 
L 301.090909 285.408 
L 317.323636 285.408 
L 333.556364 285.408 
L 349.789091 285.408 
L 366.021818 285.408 
L 382.254545 285.408 
L 398.487273 285.408 
" style="fill:none;stroke:#d44e4e;stroke-linecap:square;stroke-width:3;"/>
   </g>
   <g id="line2d_89">
    <path clip-path="url(#p771b293078)" d="M 73.832727 285.408 
L 90.065455 285.408 
L 106.298182 285.408 
L 122.530909 256.790274 
L 138.763636 231.955323 
L 154.996364 224.839843 
L 171.229091 247.38558 
L 187.461818 208.282511 
L 203.694545 131.649184 
L 219.927273 92.781963 
L 236.16 268.179266 
L 252.119297 -1 
M 311.688932 -1 
L 317.323636 36.099272 
L 333.556364 139.72268 
L 349.789091 251.567234 
L 366.021818 285.408 
L 382.254545 285.408 
L 398.487273 285.408 
" style="fill:none;stroke:#0e4db3;stroke-linecap:square;stroke-width:3;"/>
   </g>
   <g id="line2d_90">
    <path clip-path="url(#p771b293078)" d="M 73.832727 285.408 
L 90.065455 285.408 
L 106.298182 285.408 
L 122.530909 285.408 
L 138.763636 285.408 
L 154.996364 285.408 
L 171.229091 285.408 
L 187.461818 285.408 
L 203.694545 266.37345 
L 219.927273 251.036405 
L 236.16 285.408 
L 252.392727 185.380489 
L 268.625455 167.24156 
L 284.858182 132.692528 
L 301.090909 148.548745 
L 317.323636 200.95585 
L 333.556364 238.206785 
L 349.789091 285.408 
L 366.021818 285.408 
L 382.254545 285.408 
L 398.487273 285.408 
" style="fill:none;stroke:#d44e4e;stroke-linecap:square;stroke-width:3;"/>
   </g>
   <g id="line2d_91">
    <path clip-path="url(#p771b293078)" d="M 180.941665 -1 
L 187.461818 51.648434 
L 203.694545 66.902223 
L 219.927273 90.500808 
L 236.16 63.216574 
L 252.392727 39.908418 
L 268.625455 53.925502 
L 284.858182 12.283021 
L 301.090909 55.428218 
L 317.323636 76.269305 
L 333.556364 136.203188 
L 349.789091 115.63167 
L 366.021818 93.309534 
L 382.254545 45.217118 
L 397.601317 -1 
" style="fill:none;stroke:#0e4db3;stroke-linecap:square;stroke-width:3;"/>
   </g>
   <g id="line2d_92">
    <path clip-path="url(#p771b293078)" d="M 73.832727 285.408 
L 90.065455 234.874945 
L 106.298182 243.10678 
L 122.530909 183.549981 
L 138.763636 262.631683 
L 154.996364 281.750542 
L 171.229091 281.808984 
L 187.461818 285.408 
L 203.694545 285.408 
L 219.927273 285.408 
L 236.16 285.408 
L 252.392727 285.408 
L 268.625455 285.408 
L 284.858182 285.408 
L 301.090909 285.408 
L 317.323636 285.408 
L 333.556364 285.408 
L 349.789091 285.408 
L 366.021818 285.408 
L 382.254545 285.408 
L 398.487273 285.408 
" style="fill:none;stroke:#d44e4e;stroke-linecap:square;stroke-width:3;"/>
   </g>
   <g id="line2d_93">
    <path clip-path="url(#p771b293078)" d="M 73.832727 285.408 
L 90.065455 285.408 
L 106.298182 285.408 
L 122.530909 285.408 
L 138.763636 285.408 
L 154.996364 285.408 
L 171.229091 285.408 
L 187.461818 285.408 
L 203.694545 285.408 
L 219.927273 285.408 
L 236.16 285.408 
L 252.392727 285.408 
L 268.625455 285.408 
L 284.858182 285.408 
L 301.090909 285.408 
L 317.323636 285.408 
L 333.556364 285.408 
L 349.789091 285.408 
L 366.021818 285.408 
L 382.254545 285.408 
L 398.487273 285.408 
" style="fill:none;stroke:#0e4db3;stroke-linecap:square;stroke-width:3;"/>
   </g>
   <g id="line2d_94">
    <path clip-path="url(#p771b293078)" d="M 73.832727 285.408 
L 90.065455 285.408 
L 106.298182 285.408 
L 122.530909 285.408 
L 138.763636 285.408 
L 154.996364 285.408 
L 171.229091 285.408 
L 187.461818 285.408 
L 203.694545 285.408 
L 219.927273 285.408 
L 236.16 285.408 
L 252.392727 285.408 
L 268.625455 285.408 
L 284.858182 285.408 
L 301.090909 285.408 
L 317.323636 285.408 
L 333.556364 285.408 
L 349.789091 285.408 
L 366.021818 285.408 
L 382.254545 285.408 
L 398.487273 285.408 
" style="fill:none;stroke:#d44e4e;stroke-linecap:square;stroke-width:3;"/>
   </g>
   <g id="line2d_95">
    <path clip-path="url(#p771b293078)" d="M 107.15908 -1 
L 122.530909 97.029637 
L 138.763636 170.092262 
L 154.996364 230.045513 
L 171.229091 164.3002 
L 187.461818 86.644536 
L 203.694545 9.988042 
L 205.323797 -1 
" style="fill:none;stroke:#0e4db3;stroke-linecap:square;stroke-width:3;"/>
   </g>
   <g id="line2d_96">
    <path clip-path="url(#p771b293078)" d="M 73.832727 143.205757 
L 90.065455 133.824686 
L 106.298182 189.709891 
L 122.530909 285.408 
L 138.763636 285.408 
L 154.996364 285.408 
L 171.229091 285.408 
L 187.461818 285.408 
L 203.694545 285.408 
L 219.927273 246.211579 
L 236.16 226.261 
L 252.392727 159.516229 
L 268.625455 188.34345 
L 284.858182 211.98617 
L 301.090909 118.956548 
L 317.323636 111.707314 
L 333.556364 128.757561 
L 349.789091 75.139966 
L 366.021818 37.383861 
L 382.254545 34.920582 
L 398.487273 143.205757 
" style="fill:none;stroke:#d44e4e;stroke-linecap:square;stroke-width:3;"/>
   </g>
   <g id="line2d_97">
    <path clip-path="url(#p771b293078)" d="M 73.832727 285.408 
L 90.065455 285.408 
L 106.298182 285.408 
L 122.530909 285.408 
L 138.763636 285.408 
L 154.996364 285.408 
L 171.229091 285.408 
L 187.461818 285.408 
L 203.694545 285.408 
L 219.927273 285.408 
L 236.16 285.408 
L 252.392727 285.408 
L 268.625455 285.408 
L 284.858182 285.408 
L 301.090909 285.408 
L 317.323636 285.408 
L 333.556364 285.408 
L 349.789091 285.408 
L 366.021818 285.408 
L 382.254545 285.408 
L 398.487273 285.408 
" style="fill:none;stroke:#0e4db3;stroke-linecap:square;stroke-width:3;"/>
   </g>
   <g id="line2d_98">
    <path clip-path="url(#p771b293078)" d="M 73.832727 285.408 
L 90.065455 285.408 
L 106.298182 285.408 
L 122.530909 285.408 
L 138.763636 285.408 
L 154.996364 285.408 
L 171.229091 285.408 
L 187.461818 285.408 
L 203.694545 285.408 
L 219.927273 285.408 
L 236.16 285.408 
L 252.392727 285.408 
L 268.625455 285.408 
L 284.858182 285.408 
L 301.090909 285.408 
L 317.323636 285.408 
L 333.556364 285.408 
L 349.789091 285.408 
L 366.021818 285.408 
L 382.254545 285.408 
L 398.487273 285.408 
" style="fill:none;stroke:#d44e4e;stroke-linecap:square;stroke-width:3;"/>
   </g>
   <g id="line2d_99">
    <path clip-path="url(#p771b293078)" d="M 73.832727 37.135481 
L 89.910762 -1 
M 182.659 -1 
L 187.461818 11.333712 
L 203.694545 30.358141 
L 219.927273 62.574897 
L 236.16 73.764092 
L 252.392727 85.05688 
L 268.625455 102.690276 
L 284.858182 113.78354 
L 301.090909 94.031208 
L 317.323636 81.638822 
L 333.556364 41.015678 
L 349.789091 65.766342 
L 366.021818 33.502823 
L 382.254545 34.121514 
L 398.487273 37.135481 
" style="fill:none;stroke:#0e4db3;stroke-linecap:square;stroke-width:3;"/>
   </g>
   <g id="line2d_100">
    <path clip-path="url(#p771b293078)" d="M 73.832727 135.233316 
L 90.065455 116.235202 
L 106.298182 114.429929 
L 122.530909 94.182964 
L 138.763636 95.153743 
L 154.996364 111.652082 
L 171.229091 94.916304 
L 187.461818 109.726541 
L 203.694545 135.416346 
L 219.927273 133.419525 
L 236.16 137.796398 
L 252.392727 138.094473 
L 268.625455 135.040465 
L 284.858182 153.161022 
L 301.090909 166.011923 
L 317.323636 151.069167 
L 333.556364 141.92967 
L 349.789091 91.947534 
L 366.021818 68.947587 
L 382.254545 96.082916 
L 398.487273 135.233316 
" style="fill:none;stroke:#d44e4e;stroke-linecap:square;stroke-width:3;"/>
   </g>
   <g id="line2d_101">
    <path clip-path="url(#p771b293078)" d="M 73.832727 285.408 
L 90.065455 285.408 
L 106.298182 285.408 
L 122.530909 285.408 
L 138.763636 285.408 
L 154.996364 285.408 
L 171.229091 285.408 
L 187.461818 285.408 
L 203.694545 285.408 
L 219.927273 285.408 
L 236.16 285.408 
L 252.392727 285.408 
L 268.625455 285.408 
L 284.858182 285.408 
L 301.090909 285.408 
L 317.323636 285.408 
L 333.556364 285.408 
L 349.789091 285.408 
L 366.021818 285.408 
L 382.254545 285.408 
L 398.487273 285.408 
" style="fill:none;stroke:#0e4db3;stroke-linecap:square;stroke-width:3;"/>
   </g>
   <g id="line2d_102">
    <path clip-path="url(#p771b293078)" d="M 73.832727 285.408 
L 90.065455 285.408 
L 106.298182 285.408 
L 122.530909 285.408 
L 138.763636 285.408 
L 154.996364 285.408 
L 171.229091 285.408 
L 187.461818 285.408 
L 203.694545 285.408 
L 219.927273 285.408 
L 236.16 285.408 
L 252.392727 285.408 
L 268.625455 285.408 
L 284.858182 285.408 
L 301.090909 285.408 
L 317.323636 285.408 
L 333.556364 285.408 
L 349.789091 285.408 
L 366.021818 285.408 
L 382.254545 285.408 
L 398.487273 285.408 
" style="fill:none;stroke:#d44e4e;stroke-linecap:square;stroke-width:3;"/>
   </g>
   <g id="line2d_103">
    <path clip-path="url(#p771b293078)" d="M 73.832727 58.127682 
L 90.065455 18.324829 
L 106.298182 11.727702 
L 122.530909 81.489653 
L 138.763636 101.89134 
L 154.996364 109.420672 
L 171.229091 69.988048 
L 187.461818 67.374085 
L 203.694545 85.59203 
L 219.927273 122.123936 
L 236.16 90.037515 
L 252.392727 74.26123 
L 268.625455 2.176996 
L 284.858182 3.198031 
L 286.909168 -1 
M 337.937635 -1 
L 349.789091 37.05265 
L 366.021818 36.157618 
L 382.254545 48.97095 
L 398.487273 58.127682 
" style="fill:none;stroke:#0e4db3;stroke-linecap:square;stroke-width:3;"/>
   </g>
   <g id="line2d_104">
    <path clip-path="url(#p771b293078)" d="M 73.832727 178.285688 
L 90.065455 137.132444 
L 106.298182 121.60579 
L 122.530909 169.188488 
L 138.763636 197.719373 
L 154.996364 190.894932 
L 171.229091 155.601315 
L 187.461818 141.828054 
L 203.694545 143.098193 
L 219.927273 173.408868 
L 236.16 168.329294 
L 252.392727 168.856404 
L 268.625455 133.479486 
L 284.858182 132.149304 
L 301.090909 117.198615 
L 317.323636 119.39033 
L 333.556364 129.697526 
L 349.789091 119.451857 
L 366.021818 92.504188 
L 382.254545 136.331711 
L 398.487273 178.285688 
" style="fill:none;stroke:#d44e4e;stroke-linecap:square;stroke-width:3;"/>
   </g>
   <g id="line2d_105">
    <path clip-path="url(#p771b293078)" d="M 73.832727 132.685113 
L 90.065455 111.893524 
L 106.298182 31.118026 
L 122.530909 25.649629 
L 138.763636 4.812644 
L 154.996364 43.581083 
L 171.229091 150.151677 
L 187.461818 186.823853 
L 203.694545 210.935691 
L 219.927273 201.24155 
L 236.16 140.076712 
L 252.392727 178.206803 
L 268.625455 120.716541 
L 284.858182 78.356983 
L 301.090909 46.230951 
L 317.323636 92.264179 
L 333.556364 123.512101 
L 349.789091 184.024421 
L 366.021818 154.948656 
L 382.254545 157.836127 
L 398.487273 132.685113 
" style="fill:none;stroke:#0e4db3;stroke-linecap:square;stroke-width:3;"/>
   </g>
   <g id="line2d_106">
    <path clip-path="url(#p771b293078)" d="M 73.832727 285.408 
L 90.065455 220.36797 
L 106.298182 204.079194 
L 122.530909 183.677161 
L 138.763636 222.295669 
L 154.996364 261.329247 
L 171.229091 285.408 
L 187.461818 285.408 
L 203.694545 285.408 
L 219.927273 285.408 
L 236.16 285.408 
L 252.392727 285.408 
L 268.625455 285.408 
L 284.858182 266.130492 
L 301.090909 225.734933 
L 317.323636 262.140937 
L 333.556364 278.768132 
L 349.789091 210.655774 
L 366.021818 285.408 
L 382.254545 220.77393 
L 398.487273 285.408 
" style="fill:none;stroke:#d44e4e;stroke-linecap:square;stroke-width:3;"/>
   </g>
   <g id="line2d_107">
    <path clip-path="url(#p771b293078)" d="M 73.832727 285.408 
L 90.065455 285.408 
L 106.298182 285.408 
L 122.530909 285.408 
L 138.763636 285.408 
L 154.996364 285.408 
L 171.229091 285.408 
L 187.461818 285.408 
L 203.694545 285.408 
L 219.927273 285.408 
L 236.16 285.408 
L 252.392727 285.408 
L 268.625455 285.408 
L 284.858182 285.408 
L 301.090909 285.408 
L 317.323636 285.408 
L 333.556364 285.408 
L 349.789091 285.408 
L 366.021818 285.408 
L 382.254545 285.408 
L 398.487273 285.408 
" style="fill:none;stroke:#0e4db3;stroke-linecap:square;stroke-width:3;"/>
   </g>
   <g id="line2d_108">
    <path clip-path="url(#p771b293078)" d="M 73.832727 285.408 
L 90.065455 285.408 
L 106.298182 285.408 
L 122.530909 285.408 
L 138.763636 285.408 
L 154.996364 285.408 
L 171.229091 285.408 
L 187.461818 285.408 
L 203.694545 285.408 
L 219.927273 285.408 
L 236.16 285.408 
L 252.392727 285.408 
L 268.625455 285.408 
L 284.858182 285.408 
L 301.090909 285.408 
L 317.323636 285.408 
L 333.556364 285.408 
L 349.789091 285.408 
L 366.021818 285.408 
L 382.254545 285.408 
L 398.487273 285.408 
" style="fill:none;stroke:#d44e4e;stroke-linecap:square;stroke-width:3;"/>
   </g>
   <g id="line2d_109">
    <path clip-path="url(#p771b293078)" d="M 73.832727 285.408 
L 90.065455 285.408 
L 106.298182 285.408 
L 122.530909 285.408 
L 138.763636 285.408 
L 154.996364 285.408 
L 171.229091 285.408 
L 187.461818 285.408 
L 203.694545 285.408 
L 219.927273 285.408 
L 236.16 285.408 
L 252.392727 285.408 
L 268.625455 285.408 
L 284.858182 285.408 
L 301.090909 285.408 
L 317.323636 285.408 
L 333.556364 285.408 
L 349.789091 285.408 
L 366.021818 285.408 
L 382.254545 285.408 
L 398.487273 285.408 
" style="fill:none;stroke:#0e4db3;stroke-linecap:square;stroke-width:3;"/>
   </g>
   <g id="line2d_110">
    <path clip-path="url(#p771b293078)" d="M 73.832727 285.408 
L 90.065455 285.408 
L 106.298182 285.408 
L 122.530909 285.408 
L 138.763636 285.408 
L 154.996364 285.408 
L 171.229091 285.408 
L 187.461818 285.408 
L 203.694545 285.408 
L 219.927273 285.408 
L 236.16 285.408 
L 252.392727 285.408 
L 268.625455 285.408 
L 284.858182 285.408 
L 301.090909 285.408 
L 317.323636 285.408 
L 333.556364 285.408 
L 349.789091 285.408 
L 366.021818 285.408 
L 382.254545 285.408 
L 398.487273 285.408 
" style="fill:none;stroke:#d44e4e;stroke-linecap:square;stroke-width:3;"/>
   </g>
   <g id="line2d_111">
    <path clip-path="url(#p771b293078)" d="M 73.832727 146.315787 
L 90.065455 189.066871 
L 106.298182 191.991671 
L 122.530909 223.014933 
L 138.763636 231.260128 
L 154.996364 225.998689 
L 171.229091 211.804178 
L 187.461818 213.251654 
L 203.694545 182.591766 
L 219.927273 173.028102 
L 236.16 156.609406 
L 252.392727 165.278475 
L 268.625455 155.407113 
L 284.858182 160.640791 
L 301.090909 172.802576 
L 317.323636 196.955673 
L 333.556364 184.272322 
L 349.789091 170.715138 
L 366.021818 135.380689 
L 382.254545 125.792646 
L 398.487273 146.315787 
" style="fill:none;stroke:#0e4db3;stroke-linecap:square;stroke-width:3;"/>
   </g>
   <g id="line2d_112">
    <path clip-path="url(#p771b293078)" d="M 73.832727 37.335681 
L 90.065455 71.857962 
L 106.298182 87.257493 
L 122.530909 108.915527 
L 138.763636 96.061149 
L 154.996364 99.373323 
L 171.229091 108.511519 
L 187.461818 108.918081 
L 203.694545 64.146588 
L 219.927273 49.470576 
L 236.16 48.481557 
L 252.392727 52.815325 
L 268.625455 59.500656 
L 284.858182 70.910004 
L 301.090909 65.818542 
L 317.323636 65.712659 
L 333.556364 66.210093 
L 349.789091 63.905557 
L 366.021818 37.360331 
L 382.254545 36.37212 
L 398.487273 37.335681 
" style="fill:none;stroke:#d44e4e;stroke-linecap:square;stroke-width:3;"/>
   </g>
   <g id="line2d_113">
    <path clip-path="url(#p771b293078)" d="M 73.832727 128.745285 
L 90.065455 163.404492 
L 106.298182 213.3477 
L 122.530909 199.341755 
L 138.763636 174.634279 
L 154.996364 219.329515 
L 171.229091 241.856497 
L 187.461818 285.408 
L 203.694545 271.853991 
L 219.927273 231.341126 
L 236.16 199.237034 
L 252.392727 139.593761 
L 261.95431 -1 
M 359.776642 -1 
L 366.021818 33.933013 
L 382.254545 80.949378 
L 398.487273 128.745285 
" style="fill:none;stroke:#0e4db3;stroke-linecap:square;stroke-width:3;"/>
   </g>
   <g id="line2d_114">
    <path clip-path="url(#p771b293078)" d="M 73.832727 285.408 
L 90.065455 285.408 
L 106.298182 285.408 
L 122.530909 285.408 
L 138.763636 285.408 
L 154.996364 285.408 
L 171.229091 285.408 
L 187.461818 285.408 
L 203.694545 285.408 
L 219.927273 285.408 
L 236.16 285.408 
L 252.392727 285.408 
L 268.625455 251.74045 
L 284.858182 196.109958 
L 301.090909 147.294911 
L 317.323636 96.874223 
L 333.556364 196.229509 
L 349.789091 166.41476 
L 366.021818 235.872005 
L 382.254545 264.601187 
L 398.487273 285.408 
" style="fill:none;stroke:#d44e4e;stroke-linecap:square;stroke-width:3;"/>
   </g>
   <g id="line2d_115">
    <path clip-path="url(#p771b293078)" d="M 73.832727 271.786366 
L 90.065455 259.26259 
L 106.298182 256.584289 
L 122.530909 250.157133 
L 138.763636 206.226874 
L 154.996364 190.92801 
L 171.229091 117.116343 
L 187.461818 69.590104 
L 203.694545 5.513129 
L 205.387429 -1 
M 309.517287 -1 
L 317.323636 44.166506 
L 333.556364 103.087116 
L 349.789091 197.03249 
L 366.021818 216.879414 
L 382.254545 238.847773 
L 398.487273 271.786366 
" style="fill:none;stroke:#0e4db3;stroke-linecap:square;stroke-width:3;"/>
   </g>
   <g id="line2d_116">
    <path clip-path="url(#p771b293078)" d="M 73.832727 285.408 
L 90.065455 285.408 
L 106.298182 285.408 
L 122.530909 285.408 
L 138.763636 285.408 
L 154.996364 285.408 
L 171.229091 285.408 
L 187.461818 285.408 
L 203.694545 285.408 
L 219.927273 285.408 
L 236.16 285.408 
L 252.392727 285.408 
L 268.625455 285.408 
L 284.858182 285.408 
L 301.090909 285.408 
L 317.323636 285.408 
L 333.556364 285.408 
L 349.789091 285.408 
L 366.021818 285.408 
L 382.254545 285.408 
L 398.487273 285.408 
" style="fill:none;stroke:#d44e4e;stroke-linecap:square;stroke-width:3;"/>
   </g>
   <g id="line2d_117">
    <path clip-path="url(#p771b293078)" d="M 73.832727 285.408 
L 90.065455 176.738368 
L 106.298182 122.717004 
L 122.530909 48.901284 
L 129.339432 -1 
M 174.539469 -1 
L 187.461818 72.424881 
L 203.694545 97.042457 
L 219.927273 149.853519 
L 236.16 198.537241 
L 252.392727 222.132894 
L 268.625455 285.408 
L 284.858182 285.408 
L 301.090909 233.845808 
L 317.323636 260.65083 
L 333.556364 278.88602 
L 349.789091 285.408 
L 366.021818 285.408 
L 382.254545 285.408 
L 398.487273 285.408 
" style="fill:none;stroke:#0e4db3;stroke-linecap:square;stroke-width:3;"/>
   </g>
   <g id="line2d_118">
    <path clip-path="url(#p771b293078)" d="M 73.832727 285.408 
L 90.065455 285.408 
L 106.298182 285.408 
L 122.530909 190.238113 
L 138.763636 195.489726 
L 154.996364 183.719376 
L 171.229091 212.43175 
L 187.461818 271.484926 
L 203.694545 285.408 
L 219.927273 285.408 
L 236.16 285.408 
L 252.392727 285.408 
L 268.625455 285.408 
L 284.858182 285.408 
L 301.090909 285.408 
L 317.323636 285.408 
L 333.556364 285.408 
L 349.789091 285.408 
L 366.021818 285.408 
L 382.254545 285.408 
L 398.487273 285.408 
" style="fill:none;stroke:#d44e4e;stroke-linecap:square;stroke-width:3;"/>
   </g>
   <g id="line2d_119">
    <path clip-path="url(#p771b293078)" d="M 73.832727 285.408 
L 90.065455 285.408 
L 106.298182 285.408 
L 122.530909 285.408 
L 138.763636 285.408 
L 154.996364 285.408 
L 171.229091 285.408 
L 187.461818 285.408 
L 203.694545 285.408 
L 219.927273 285.408 
L 236.16 285.408 
L 252.392727 285.408 
L 268.625455 285.408 
L 284.858182 285.408 
L 301.090909 285.408 
L 317.323636 285.408 
L 333.556364 285.408 
L 349.789091 285.408 
L 366.021818 285.408 
L 382.254545 285.408 
L 398.487273 285.408 
" style="fill:none;stroke:#0e4db3;stroke-linecap:square;stroke-width:3;"/>
   </g>
   <g id="line2d_120">
    <path clip-path="url(#p771b293078)" d="M 73.832727 285.408 
L 90.065455 285.408 
L 106.298182 285.408 
L 122.530909 285.408 
L 138.763636 285.408 
L 154.996364 285.408 
L 171.229091 285.408 
L 187.461818 285.408 
L 203.694545 285.408 
L 219.927273 285.408 
L 236.16 285.408 
L 252.392727 285.408 
L 268.625455 285.408 
L 284.858182 285.408 
L 301.090909 285.408 
L 317.323636 285.408 
L 333.556364 285.408 
L 349.789091 285.408 
L 366.021818 285.408 
L 382.254545 285.408 
L 398.487273 285.408 
" style="fill:none;stroke:#d44e4e;stroke-linecap:square;stroke-width:3;"/>
   </g>
   <g id="line2d_121">
    <path clip-path="url(#p771b293078)" d="M 73.832727 285.408 
L 90.065455 285.408 
L 106.298182 278.13015 
L 122.530909 269.683492 
L 138.763636 147.242167 
L 154.996364 90.687348 
L 168.156724 -1 
M 294.628664 -1 
L 301.090909 39.561851 
L 317.323636 163.206566 
L 333.556364 225.657493 
L 349.789091 285.408 
L 366.021818 285.408 
L 382.254545 285.408 
L 398.487273 285.408 
" style="fill:none;stroke:#0e4db3;stroke-linecap:square;stroke-width:3;"/>
   </g>
   <g id="line2d_122">
    <path clip-path="url(#p771b293078)" d="M 73.832727 285.408 
L 90.065455 285.408 
L 106.298182 285.408 
L 122.530909 285.408 
L 138.763636 285.408 
L 154.996364 239.85006 
L 171.229091 161.025924 
L 187.461818 48.822951 
L 203.694545 70.441521 
L 219.927273 67.446123 
L 236.16 63.595437 
L 252.392727 122.26022 
L 268.625455 111.467272 
L 284.858182 87.143684 
L 301.090909 215.989354 
L 317.323636 285.408 
L 333.556364 285.408 
L 349.789091 285.408 
L 366.021818 285.408 
L 382.254545 285.408 
L 398.487273 285.408 
" style="fill:none;stroke:#d44e4e;stroke-linecap:square;stroke-width:3;"/>
   </g>
   <g id="line2d_123">
    <path clip-path="url(#p771b293078)" d="M 73.832727 285.408 
L 90.065455 285.408 
L 106.298182 285.408 
L 122.530909 285.408 
L 138.763636 285.408 
L 154.996364 285.408 
L 171.229091 285.408 
L 187.461818 285.408 
L 203.694545 285.408 
L 219.927273 285.408 
L 236.16 285.408 
L 252.392727 285.408 
L 268.625455 285.408 
L 284.858182 285.408 
L 301.090909 285.408 
L 317.323636 285.408 
L 333.556364 285.408 
L 349.789091 285.408 
L 366.021818 285.408 
L 382.254545 285.408 
L 398.487273 285.408 
" style="fill:none;stroke:#0e4db3;stroke-linecap:square;stroke-width:3;"/>
   </g>
   <g id="line2d_124">
    <path clip-path="url(#p771b293078)" d="M 73.832727 285.408 
L 90.065455 285.408 
L 106.298182 285.408 
L 122.530909 285.408 
L 138.763636 285.408 
L 154.996364 285.408 
L 171.229091 285.408 
L 187.461818 285.408 
L 203.694545 285.408 
L 219.927273 285.408 
L 236.16 285.408 
L 252.392727 285.408 
L 268.625455 285.408 
L 284.858182 285.408 
L 301.090909 285.408 
L 317.323636 285.408 
L 333.556364 285.408 
L 349.789091 285.408 
L 366.021818 285.408 
L 382.254545 285.408 
L 398.487273 285.408 
" style="fill:none;stroke:#d44e4e;stroke-linecap:square;stroke-width:3;"/>
   </g>
   <g id="line2d_125">
    <path clip-path="url(#p771b293078)" d="M 73.832727 285.408 
L 90.065455 270.968627 
L 106.298182 261.668923 
L 122.530909 198.388706 
L 138.763636 92.615048 
L 154.996364 63.648 
L 171.229091 65.620139 
L 187.461818 84.246541 
L 203.694545 131.342705 
L 219.927273 260.931202 
L 236.16 285.408 
L 252.392727 285.408 
L 268.625455 285.408 
L 284.858182 285.408 
L 301.090909 285.408 
L 317.323636 285.408 
L 333.556364 285.408 
L 349.789091 285.408 
L 366.021818 285.408 
L 382.254545 285.408 
L 398.487273 285.408 
" style="fill:none;stroke:#0e4db3;stroke-linecap:square;stroke-width:3;"/>
   </g>
   <g id="line2d_126">
    <path clip-path="url(#p771b293078)" d="M 73.832727 285.408 
L 90.065455 277.452237 
L 106.298182 271.62037 
L 122.530909 226.791212 
L 138.763636 176.279384 
L 154.996364 167.780929 
L 171.229091 175.492393 
L 187.461818 190.372922 
L 203.694545 208.435462 
L 219.927273 252.803658 
L 236.16 262.010222 
L 252.392727 269.35375 
L 268.625455 259.552037 
L 284.858182 277.44731 
L 301.090909 272.790911 
L 317.323636 284.657898 
L 333.556364 277.260941 
L 349.789091 278.637287 
L 366.021818 280.239999 
L 382.254545 278.028771 
L 398.487273 285.408 
" style="fill:none;stroke:#d44e4e;stroke-linecap:square;stroke-width:3;"/>
   </g>
   <g id="patch_3">
    <path d="M 57.6 307.584 
L 57.6 41.472 
" style="fill:none;stroke:#000000;stroke-linecap:square;stroke-linejoin:miter;stroke-width:2.5;"/>
   </g>
   <g id="patch_4">
    <path d="M 414.72 307.584 
L 414.72 41.472 
" style="fill:none;stroke:#000000;stroke-linecap:square;stroke-linejoin:miter;stroke-width:2.5;"/>
   </g>
   <g id="patch_5">
    <path d="M 57.6 307.584 
L 414.72 307.584 
" style="fill:none;stroke:#000000;stroke-linecap:square;stroke-linejoin:miter;stroke-width:2.5;"/>
   </g>
   <g id="patch_6">
    <path d="M 57.6 41.472 
L 414.72 41.472 
" style="fill:none;stroke:#000000;stroke-linecap:square;stroke-linejoin:miter;stroke-width:2.5;"/>
   </g>
  </g>
 </g>
 <defs>
  <clipPath id="p771b293078">
   <rect height="266.112" width="357.12" x="57.6" y="41.472"/>
  </clipPath>
 </defs>
</svg>
