<?xml version="1.0" encoding="utf-8" standalone="no"?>
<!DOCTYPE svg PUBLIC "-//W3C//DTD SVG 1.1//EN"
  "http://www.w3.org/Graphics/SVG/1.1/DTD/svg11.dtd">
<!-- Created with matplotlib (https://matplotlib.org/) -->
<svg height="345.6pt" version="1.1" viewBox="0 0 460.8 345.6" width="460.8pt" xmlns="http://www.w3.org/2000/svg" xmlns:xlink="http://www.w3.org/1999/xlink">
 <defs>
  <style type="text/css">
*{stroke-linecap:butt;stroke-linejoin:round;}
  </style>
 </defs>
 <g id="figure_1">
  <g id="patch_1">
   <path d="M 0 345.6 
L 460.8 345.6 
L 460.8 0 
L 0 0 
z
" style="fill:#ffffff;"/>
  </g>
  <g id="axes_1">
   <g id="patch_2">
    <path d="M 57.6 307.584 
L 414.72 307.584 
L 414.72 41.472 
L 57.6 41.472 
z
" style="fill:#ffffff;"/>
   </g>
   <g id="matplotlib.axis_1">
    <g id="xtick_1">
     <g id="line2d_1">
      <defs>
       <path d="M 0 0 
L 0 12 
" id="meeec26b2ab" style="stroke:#000000;stroke-width:2.5;"/>
      </defs>
      <g>
       <use style="stroke:#000000;stroke-width:2.5;" x="73.832727" xlink:href="#meeec26b2ab" y="307.584"/>
      </g>
     </g>
     <g id="text_1">
      <!-- 0 -->
      <defs>
       <path d="M 31.78125 66.40625 
Q 24.171875 66.40625 20.328125 58.90625 
Q 16.5 51.421875 16.5 36.375 
Q 16.5 21.390625 20.328125 13.890625 
Q 24.171875 6.390625 31.78125 6.390625 
Q 39.453125 6.390625 43.28125 13.890625 
Q 47.125 21.390625 47.125 36.375 
Q 47.125 51.421875 43.28125 58.90625 
Q 39.453125 66.40625 31.78125 66.40625 
z
M 31.78125 74.21875 
Q 44.046875 74.21875 50.515625 64.515625 
Q 56.984375 54.828125 56.984375 36.375 
Q 56.984375 17.96875 50.515625 8.265625 
Q 44.046875 -1.421875 31.78125 -1.421875 
Q 19.53125 -1.421875 13.0625 8.265625 
Q 6.59375 17.96875 6.59375 36.375 
Q 6.59375 54.828125 13.0625 64.515625 
Q 19.53125 74.21875 31.78125 74.21875 
z
" id="DejaVuSans-48"/>
      </defs>
      <g transform="translate(57.735602 361.532094)scale(0.506 -0.506)">
       <use xlink:href="#DejaVuSans-48"/>
      </g>
     </g>
    </g>
    <g id="xtick_2">
     <g id="line2d_2">
      <g>
       <use style="stroke:#000000;stroke-width:2.5;" x="254.196364" xlink:href="#meeec26b2ab" y="307.584"/>
      </g>
     </g>
     <g id="text_2">
      <!-- 100 -->
      <defs>
       <path d="M 12.40625 8.296875 
L 28.515625 8.296875 
L 28.515625 63.921875 
L 10.984375 60.40625 
L 10.984375 69.390625 
L 28.421875 72.90625 
L 38.28125 72.90625 
L 38.28125 8.296875 
L 54.390625 8.296875 
L 54.390625 0 
L 12.40625 0 
z
" id="DejaVuSans-49"/>
      </defs>
      <g transform="translate(205.904989 361.532094)scale(0.506 -0.506)">
       <use xlink:href="#DejaVuSans-49"/>
       <use x="63.623047" xlink:href="#DejaVuSans-48"/>
       <use x="127.246094" xlink:href="#DejaVuSans-48"/>
      </g>
     </g>
    </g>
    <g id="text_3">
     <!-- Degrees -->
     <defs>
      <path d="M 19.671875 64.796875 
L 19.671875 8.109375 
L 31.59375 8.109375 
Q 46.6875 8.109375 53.6875 14.9375 
Q 60.6875 21.78125 60.6875 36.53125 
Q 60.6875 51.171875 53.6875 57.984375 
Q 46.6875 64.796875 31.59375 64.796875 
z
M 9.8125 72.90625 
L 30.078125 72.90625 
Q 51.265625 72.90625 61.171875 64.09375 
Q 71.09375 55.28125 71.09375 36.53125 
Q 71.09375 17.671875 61.125 8.828125 
Q 51.171875 0 30.078125 0 
L 9.8125 0 
z
" id="DejaVuSans-68"/>
      <path d="M 56.203125 29.59375 
L 56.203125 25.203125 
L 14.890625 25.203125 
Q 15.484375 15.921875 20.484375 11.0625 
Q 25.484375 6.203125 34.421875 6.203125 
Q 39.59375 6.203125 44.453125 7.46875 
Q 49.3125 8.734375 54.109375 11.28125 
L 54.109375 2.78125 
Q 49.265625 0.734375 44.1875 -0.34375 
Q 39.109375 -1.421875 33.890625 -1.421875 
Q 20.796875 -1.421875 13.15625 6.1875 
Q 5.515625 13.8125 5.515625 26.8125 
Q 5.515625 40.234375 12.765625 48.109375 
Q 20.015625 56 32.328125 56 
Q 43.359375 56 49.78125 48.890625 
Q 56.203125 41.796875 56.203125 29.59375 
z
M 47.21875 32.234375 
Q 47.125 39.59375 43.09375 43.984375 
Q 39.0625 48.390625 32.421875 48.390625 
Q 24.90625 48.390625 20.390625 44.140625 
Q 15.875 39.890625 15.1875 32.171875 
z
" id="DejaVuSans-101"/>
      <path d="M 45.40625 27.984375 
Q 45.40625 37.75 41.375 43.109375 
Q 37.359375 48.484375 30.078125 48.484375 
Q 22.859375 48.484375 18.828125 43.109375 
Q 14.796875 37.75 14.796875 27.984375 
Q 14.796875 18.265625 18.828125 12.890625 
Q 22.859375 7.515625 30.078125 7.515625 
Q 37.359375 7.515625 41.375 12.890625 
Q 45.40625 18.265625 45.40625 27.984375 
z
M 54.390625 6.78125 
Q 54.390625 -7.171875 48.1875 -13.984375 
Q 42 -20.796875 29.203125 -20.796875 
Q 24.46875 -20.796875 20.265625 -20.09375 
Q 16.0625 -19.390625 12.109375 -17.921875 
L 12.109375 -9.1875 
Q 16.0625 -11.328125 19.921875 -12.34375 
Q 23.78125 -13.375 27.78125 -13.375 
Q 36.625 -13.375 41.015625 -8.765625 
Q 45.40625 -4.15625 45.40625 5.171875 
L 45.40625 9.625 
Q 42.625 4.78125 38.28125 2.390625 
Q 33.9375 0 27.875 0 
Q 17.828125 0 11.671875 7.65625 
Q 5.515625 15.328125 5.515625 27.984375 
Q 5.515625 40.671875 11.671875 48.328125 
Q 17.828125 56 27.875 56 
Q 33.9375 56 38.28125 53.609375 
Q 42.625 51.21875 45.40625 46.390625 
L 45.40625 54.6875 
L 54.390625 54.6875 
z
" id="DejaVuSans-103"/>
      <path d="M 41.109375 46.296875 
Q 39.59375 47.171875 37.8125 47.578125 
Q 36.03125 48 33.890625 48 
Q 26.265625 48 22.1875 43.046875 
Q 18.109375 38.09375 18.109375 28.8125 
L 18.109375 0 
L 9.078125 0 
L 9.078125 54.6875 
L 18.109375 54.6875 
L 18.109375 46.1875 
Q 20.953125 51.171875 25.484375 53.578125 
Q 30.03125 56 36.53125 56 
Q 37.453125 56 38.578125 55.875 
Q 39.703125 55.765625 41.0625 55.515625 
z
" id="DejaVuSans-114"/>
      <path d="M 44.28125 53.078125 
L 44.28125 44.578125 
Q 40.484375 46.53125 36.375 47.5 
Q 32.28125 48.484375 27.875 48.484375 
Q 21.1875 48.484375 17.84375 46.4375 
Q 14.5 44.390625 14.5 40.28125 
Q 14.5 37.15625 16.890625 35.375 
Q 19.28125 33.59375 26.515625 31.984375 
L 29.59375 31.296875 
Q 39.15625 29.25 43.1875 25.515625 
Q 47.21875 21.78125 47.21875 15.09375 
Q 47.21875 7.46875 41.1875 3.015625 
Q 35.15625 -1.421875 24.609375 -1.421875 
Q 20.21875 -1.421875 15.453125 -0.5625 
Q 10.6875 0.296875 5.421875 2 
L 5.421875 11.28125 
Q 10.40625 8.6875 15.234375 7.390625 
Q 20.0625 6.109375 24.8125 6.109375 
Q 31.15625 6.109375 34.5625 8.28125 
Q 37.984375 10.453125 37.984375 14.40625 
Q 37.984375 18.0625 35.515625 20.015625 
Q 33.0625 21.96875 24.703125 23.78125 
L 21.578125 24.515625 
Q 13.234375 26.265625 9.515625 29.90625 
Q 5.8125 33.546875 5.8125 39.890625 
Q 5.8125 47.609375 11.28125 51.796875 
Q 16.75 56 26.8125 56 
Q 31.78125 56 36.171875 55.265625 
Q 40.578125 54.546875 44.28125 53.078125 
z
" id="DejaVuSans-115"/>
     </defs>
     <g transform="translate(120.723 417.998687)scale(0.552 -0.552)">
      <use xlink:href="#DejaVuSans-68"/>
      <use x="77.001953" xlink:href="#DejaVuSans-101"/>
      <use x="138.525391" xlink:href="#DejaVuSans-103"/>
      <use x="202.001953" xlink:href="#DejaVuSans-114"/>
      <use x="243.083984" xlink:href="#DejaVuSans-101"/>
      <use x="304.607422" xlink:href="#DejaVuSans-101"/>
      <use x="366.130859" xlink:href="#DejaVuSans-115"/>
     </g>
    </g>
   </g>
   <g id="matplotlib.axis_2">
    <g id="ytick_1">
     <g id="line2d_3">
      <defs>
       <path d="M 0 0 
L -12 0 
" id="mbcd357c39f" style="stroke:#000000;stroke-width:2.5;"/>
      </defs>
      <g>
       <use style="stroke:#000000;stroke-width:2.5;" x="57.6" xlink:href="#mbcd357c39f" y="285.408"/>
      </g>
     </g>
     <g id="text_4">
      <!-- 0 -->
      <g transform="translate(9.90575 304.632047)scale(0.506 -0.506)">
       <use xlink:href="#DejaVuSans-48"/>
      </g>
     </g>
    </g>
    <g id="ytick_2">
     <g id="line2d_4">
      <g>
       <use style="stroke:#000000;stroke-width:2.5;" x="57.6" xlink:href="#mbcd357c39f" y="126.378504"/>
      </g>
     </g>
     <g id="text_5">
      <!-- 5 -->
      <defs>
       <path d="M 10.796875 72.90625 
L 49.515625 72.90625 
L 49.515625 64.59375 
L 19.828125 64.59375 
L 19.828125 46.734375 
Q 21.96875 47.46875 24.109375 47.828125 
Q 26.265625 48.1875 28.421875 48.1875 
Q 40.625 48.1875 47.75 41.5 
Q 54.890625 34.8125 54.890625 23.390625 
Q 54.890625 11.625 47.5625 5.09375 
Q 40.234375 -1.421875 26.90625 -1.421875 
Q 22.3125 -1.421875 17.546875 -0.640625 
Q 12.796875 0.140625 7.71875 1.703125 
L 7.71875 11.625 
Q 12.109375 9.234375 16.796875 8.0625 
Q 21.484375 6.890625 26.703125 6.890625 
Q 35.15625 6.890625 40.078125 11.328125 
Q 45.015625 15.765625 45.015625 23.390625 
Q 45.015625 31 40.078125 35.4375 
Q 35.15625 39.890625 26.703125 39.890625 
Q 22.75 39.890625 18.8125 39.015625 
Q 14.890625 38.140625 10.796875 36.28125 
z
" id="DejaVuSans-53"/>
      </defs>
      <g transform="translate(9.90575 145.602551)scale(0.506 -0.506)">
       <use xlink:href="#DejaVuSans-53"/>
      </g>
     </g>
    </g>
    <g id="text_6">
     <!-- Activation -->
     <defs>
      <path d="M 34.1875 63.1875 
L 20.796875 26.90625 
L 47.609375 26.90625 
z
M 28.609375 72.90625 
L 39.796875 72.90625 
L 67.578125 0 
L 57.328125 0 
L 50.6875 18.703125 
L 17.828125 18.703125 
L 11.1875 0 
L 0.78125 0 
z
" id="DejaVuSans-65"/>
      <path d="M 48.78125 52.59375 
L 48.78125 44.1875 
Q 44.96875 46.296875 41.140625 47.34375 
Q 37.3125 48.390625 33.40625 48.390625 
Q 24.65625 48.390625 19.8125 42.84375 
Q 14.984375 37.3125 14.984375 27.296875 
Q 14.984375 17.28125 19.8125 11.734375 
Q 24.65625 6.203125 33.40625 6.203125 
Q 37.3125 6.203125 41.140625 7.25 
Q 44.96875 8.296875 48.78125 10.40625 
L 48.78125 2.09375 
Q 45.015625 0.34375 40.984375 -0.53125 
Q 36.96875 -1.421875 32.421875 -1.421875 
Q 20.0625 -1.421875 12.78125 6.34375 
Q 5.515625 14.109375 5.515625 27.296875 
Q 5.515625 40.671875 12.859375 48.328125 
Q 20.21875 56 33.015625 56 
Q 37.15625 56 41.109375 55.140625 
Q 45.0625 54.296875 48.78125 52.59375 
z
" id="DejaVuSans-99"/>
      <path d="M 18.3125 70.21875 
L 18.3125 54.6875 
L 36.8125 54.6875 
L 36.8125 47.703125 
L 18.3125 47.703125 
L 18.3125 18.015625 
Q 18.3125 11.328125 20.140625 9.421875 
Q 21.96875 7.515625 27.59375 7.515625 
L 36.8125 7.515625 
L 36.8125 0 
L 27.59375 0 
Q 17.1875 0 13.234375 3.875 
Q 9.28125 7.765625 9.28125 18.015625 
L 9.28125 47.703125 
L 2.6875 47.703125 
L 2.6875 54.6875 
L 9.28125 54.6875 
L 9.28125 70.21875 
z
" id="DejaVuSans-116"/>
      <path d="M 9.421875 54.6875 
L 18.40625 54.6875 
L 18.40625 0 
L 9.421875 0 
z
M 9.421875 75.984375 
L 18.40625 75.984375 
L 18.40625 64.59375 
L 9.421875 64.59375 
z
" id="DejaVuSans-105"/>
      <path d="M 2.984375 54.6875 
L 12.5 54.6875 
L 29.59375 8.796875 
L 46.6875 54.6875 
L 56.203125 54.6875 
L 35.6875 0 
L 23.484375 0 
z
" id="DejaVuSans-118"/>
      <path d="M 34.28125 27.484375 
Q 23.390625 27.484375 19.1875 25 
Q 14.984375 22.515625 14.984375 16.5 
Q 14.984375 11.71875 18.140625 8.90625 
Q 21.296875 6.109375 26.703125 6.109375 
Q 34.1875 6.109375 38.703125 11.40625 
Q 43.21875 16.703125 43.21875 25.484375 
L 43.21875 27.484375 
z
M 52.203125 31.203125 
L 52.203125 0 
L 43.21875 0 
L 43.21875 8.296875 
Q 40.140625 3.328125 35.546875 0.953125 
Q 30.953125 -1.421875 24.3125 -1.421875 
Q 15.921875 -1.421875 10.953125 3.296875 
Q 6 8.015625 6 15.921875 
Q 6 25.140625 12.171875 29.828125 
Q 18.359375 34.515625 30.609375 34.515625 
L 43.21875 34.515625 
L 43.21875 35.40625 
Q 43.21875 41.609375 39.140625 45 
Q 35.0625 48.390625 27.6875 48.390625 
Q 23 48.390625 18.546875 47.265625 
Q 14.109375 46.140625 10.015625 43.890625 
L 10.015625 52.203125 
Q 14.9375 54.109375 19.578125 55.046875 
Q 24.21875 56 28.609375 56 
Q 40.484375 56 46.34375 49.84375 
Q 52.203125 43.703125 52.203125 31.203125 
z
" id="DejaVuSans-97"/>
      <path d="M 30.609375 48.390625 
Q 23.390625 48.390625 19.1875 42.75 
Q 14.984375 37.109375 14.984375 27.296875 
Q 14.984375 17.484375 19.15625 11.84375 
Q 23.34375 6.203125 30.609375 6.203125 
Q 37.796875 6.203125 41.984375 11.859375 
Q 46.1875 17.53125 46.1875 27.296875 
Q 46.1875 37.015625 41.984375 42.703125 
Q 37.796875 48.390625 30.609375 48.390625 
z
M 30.609375 56 
Q 42.328125 56 49.015625 48.375 
Q 55.71875 40.765625 55.71875 27.296875 
Q 55.71875 13.875 49.015625 6.21875 
Q 42.328125 -1.421875 30.609375 -1.421875 
Q 18.84375 -1.421875 12.171875 6.21875 
Q 5.515625 13.875 5.515625 27.296875 
Q 5.515625 40.765625 12.171875 48.375 
Q 18.84375 56 30.609375 56 
z
" id="DejaVuSans-111"/>
      <path d="M 54.890625 33.015625 
L 54.890625 0 
L 45.90625 0 
L 45.90625 32.71875 
Q 45.90625 40.484375 42.875 44.328125 
Q 39.84375 48.1875 33.796875 48.1875 
Q 26.515625 48.1875 22.3125 43.546875 
Q 18.109375 38.921875 18.109375 30.90625 
L 18.109375 0 
L 9.078125 0 
L 9.078125 54.6875 
L 18.109375 54.6875 
L 18.109375 46.1875 
Q 21.34375 51.125 25.703125 53.5625 
Q 30.078125 56 35.796875 56 
Q 45.21875 56 50.046875 50.171875 
Q 54.890625 44.34375 54.890625 33.015625 
z
" id="DejaVuSans-110"/>
     </defs>
     <g transform="translate(-5.574125 313.1835)rotate(-90)scale(0.552 -0.552)">
      <use xlink:href="#DejaVuSans-65"/>
      <use x="68.392578" xlink:href="#DejaVuSans-99"/>
      <use x="123.373047" xlink:href="#DejaVuSans-116"/>
      <use x="162.582031" xlink:href="#DejaVuSans-105"/>
      <use x="190.365234" xlink:href="#DejaVuSans-118"/>
      <use x="249.544922" xlink:href="#DejaVuSans-97"/>
      <use x="310.824219" xlink:href="#DejaVuSans-116"/>
      <use x="350.033203" xlink:href="#DejaVuSans-105"/>
      <use x="377.816406" xlink:href="#DejaVuSans-111"/>
      <use x="438.998047" xlink:href="#DejaVuSans-110"/>
     </g>
    </g>
   </g>
   <g id="line2d_5">
    <path clip-path="url(#p1764bdbc49)" d="M 73.832727 277.314466 
L 90.065455 263.533929 
L 106.298182 258.756389 
L 122.530909 252.586338 
L 138.763636 245.368731 
L 154.996364 244.349344 
L 171.229091 245.833603 
L 187.461818 235.062376 
L 203.694545 231.482208 
L 219.927273 232.143134 
L 236.16 236.88303 
L 252.392727 236.728281 
L 268.625455 237.465917 
L 284.858182 255.304031 
L 301.090909 252.504805 
L 317.323636 266.364823 
L 333.556364 269.873264 
L 349.789091 273.529467 
L 366.021818 271.493839 
L 382.254545 274.063754 
L 398.487273 277.314466 
" style="fill:none;stroke:#0e4db3;stroke-linecap:square;stroke-width:3;"/>
   </g>
   <g id="line2d_6">
    <path clip-path="url(#p1764bdbc49)" d="M 73.832727 278.968151 
L 90.065455 267.682202 
L 106.298182 263.442833 
L 122.530909 258.881478 
L 138.763636 253.309089 
L 154.996364 252.708628 
L 171.229091 253.386312 
L 187.461818 243.833472 
L 203.694545 242.057271 
L 219.927273 241.550681 
L 236.16 243.990716 
L 252.392727 245.550684 
L 268.625455 245.883181 
L 284.858182 261.290375 
L 301.090909 258.513113 
L 317.323636 269.703861 
L 333.556364 272.3976 
L 349.789091 274.839999 
L 366.021818 273.795311 
L 382.254545 275.717968 
L 398.487273 278.968151 
" style="fill:none;stroke:#d44e4e;stroke-linecap:square;stroke-width:3;"/>
   </g>
   <g id="line2d_7">
    <path clip-path="url(#p1764bdbc49)" d="M 73.832727 230.389015 
L 90.065455 229.970908 
L 106.298182 233.679606 
L 122.530909 240.808108 
L 138.763636 242.077855 
L 154.996364 243.634472 
L 171.229091 243.535429 
L 187.461818 235.513492 
L 203.694545 232.856159 
L 219.927273 242.333353 
L 236.16 242.327052 
L 252.392727 240.907993 
L 268.625455 233.020391 
L 284.858182 238.721553 
L 301.090909 231.589547 
L 317.323636 234.071403 
L 333.556364 233.793523 
L 349.789091 224.616279 
L 366.021818 227.223423 
L 382.254545 224.756142 
L 398.487273 230.389015 
" style="fill:none;stroke:#0e4db3;stroke-linecap:square;stroke-width:3;"/>
   </g>
   <g id="line2d_8">
    <path clip-path="url(#p1764bdbc49)" d="M 73.832727 241.856383 
L 90.065455 236.857402 
L 106.298182 243.04854 
L 122.530909 249.995771 
L 138.763636 250.831639 
L 154.996364 252.221314 
L 171.229091 252.21957 
L 187.461818 246.028265 
L 203.694545 244.14686 
L 219.927273 251.398841 
L 236.16 251.372983 
L 252.392727 249.620892 
L 268.625455 243.840142 
L 284.858182 247.46174 
L 301.090909 242.897454 
L 317.323636 244.78088 
L 333.556364 244.477662 
L 349.789091 237.373524 
L 366.021818 238.681726 
L 382.254545 237.342108 
L 398.487273 241.856383 
" style="fill:none;stroke:#d44e4e;stroke-linecap:square;stroke-width:3;"/>
   </g>
   <g id="line2d_9">
    <path clip-path="url(#p1764bdbc49)" d="M 73.832727 229.639909 
L 90.065455 226.9459 
L 106.298182 226.924546 
L 122.530909 226.939333 
L 138.763636 221.043152 
L 154.996364 221.335095 
L 171.229091 220.80778 
L 187.461818 224.758398 
L 203.694545 219.981296 
L 219.927273 222.137036 
L 236.16 225.758464 
L 252.392727 225.821195 
L 268.625455 226.471523 
L 284.858182 230.412727 
L 301.090909 231.135466 
L 317.323636 231.448118 
L 333.556364 231.302663 
L 349.789091 231.760528 
L 366.021818 230.505343 
L 382.254545 229.84347 
L 398.487273 229.639909 
" style="fill:none;stroke:#0e4db3;stroke-linecap:square;stroke-width:3;"/>
   </g>
   <g id="line2d_10">
    <path clip-path="url(#p1764bdbc49)" d="M 73.832727 239.400605 
L 90.065455 237.460871 
L 106.298182 237.298311 
L 122.530909 237.122034 
L 138.763636 233.455824 
L 154.996364 233.395395 
L 171.229091 232.524341 
L 187.461818 235.517454 
L 203.694545 231.249361 
L 219.927273 233.301273 
L 236.16 236.251227 
L 252.392727 236.18296 
L 268.625455 236.772399 
L 284.858182 238.874197 
L 301.090909 239.406388 
L 317.323636 240.126192 
L 333.556364 240.491463 
L 349.789091 240.838042 
L 366.021818 239.807622 
L 382.254545 239.404503 
L 398.487273 239.400605 
" style="fill:none;stroke:#d44e4e;stroke-linecap:square;stroke-width:3;"/>
   </g>
   <g id="line2d_11">
    <path clip-path="url(#p1764bdbc49)" d="M 73.832727 222.281821 
L 90.065455 222.206748 
L 106.298182 222.454579 
L 122.530909 228.37092 
L 138.763636 228.974687 
L 154.996364 230.484448 
L 171.229091 229.165255 
L 187.461818 227.58562 
L 203.694545 223.419364 
L 219.927273 224.891452 
L 236.16 224.297034 
L 252.392727 221.64937 
L 268.625455 220.71905 
L 284.858182 220.770145 
L 301.090909 217.831513 
L 317.323636 217.375889 
L 333.556364 210.336405 
L 349.789091 216.806776 
L 366.021818 216.463109 
L 382.254545 219.55966 
L 398.487273 222.281821 
" style="fill:none;stroke:#0e4db3;stroke-linecap:square;stroke-width:3;"/>
   </g>
   <g id="line2d_12">
    <path clip-path="url(#p1764bdbc49)" d="M 73.832727 235.578915 
L 90.065455 235.576451 
L 106.298182 235.746874 
L 122.530909 240.152741 
L 138.763636 240.440876 
L 154.996364 241.170001 
L 171.229091 240.697307 
L 187.461818 238.691504 
L 203.694545 236.664143 
L 219.927273 237.456806 
L 236.16 237.572881 
L 252.392727 234.687345 
L 268.625455 233.385241 
L 284.858182 233.022328 
L 301.090909 231.387215 
L 317.323636 231.386054 
L 333.556364 226.707517 
L 349.789091 231.011073 
L 366.021818 230.490856 
L 382.254545 233.217813 
L 398.487273 235.578915 
" style="fill:none;stroke:#d44e4e;stroke-linecap:square;stroke-width:3;"/>
   </g>
   <g id="line2d_13">
    <path clip-path="url(#p1764bdbc49)" d="M 73.832727 265.15479 
L 90.065455 264.845151 
L 106.298182 265.123542 
L 122.530909 264.449902 
L 138.763636 256.664315 
L 154.996364 255.655218 
L 171.229091 249.363654 
L 187.461818 251.301819 
L 203.694545 241.766417 
L 219.927273 234.273641 
L 236.16 234.391733 
L 252.392727 226.383206 
L 268.625455 219.326941 
L 284.858182 223.095504 
L 301.090909 213.329029 
L 317.323636 219.004447 
L 333.556364 220.614145 
L 349.789091 246.819253 
L 366.021818 249.241429 
L 382.254545 248.973866 
L 398.487273 265.15479 
" style="fill:none;stroke:#0e4db3;stroke-linecap:square;stroke-width:3;"/>
   </g>
   <g id="line2d_14">
    <path clip-path="url(#p1764bdbc49)" d="M 73.832727 266.890274 
L 90.065455 266.437786 
L 106.298182 266.682045 
L 122.530909 266.388148 
L 138.763636 260.291148 
L 154.996364 259.527397 
L 171.229091 254.019415 
L 187.461818 255.503533 
L 203.694545 248.021814 
L 219.927273 242.543591 
L 236.16 242.558735 
L 252.392727 235.869152 
L 268.625455 230.282275 
L 284.858182 233.927593 
L 301.090909 225.854364 
L 317.323636 229.848187 
L 333.556364 231.411958 
L 349.789091 251.892608 
L 366.021818 253.915627 
L 382.254545 253.895484 
L 398.487273 266.890274 
" style="fill:none;stroke:#d44e4e;stroke-linecap:square;stroke-width:3;"/>
   </g>
   <g id="line2d_15">
    <path clip-path="url(#p1764bdbc49)" d="M 73.832727 285.408 
L 90.065455 285.408 
L 106.298182 285.408 
L 122.530909 285.408 
L 138.763636 285.408 
L 154.996364 285.408 
L 171.229091 285.408 
L 187.461818 285.408 
L 203.694545 285.408 
L 219.927273 285.408 
L 236.16 285.408 
L 252.392727 285.408 
L 268.625455 285.408 
L 284.858182 285.408 
L 301.090909 285.408 
L 317.323636 285.408 
L 333.556364 285.408 
L 349.789091 285.408 
L 366.021818 285.408 
L 382.254545 285.408 
L 398.487273 285.408 
" style="fill:none;stroke:#0e4db3;stroke-linecap:square;stroke-width:3;"/>
   </g>
   <g id="line2d_16">
    <path clip-path="url(#p1764bdbc49)" d="M 73.832727 285.408 
L 90.065455 285.408 
L 106.298182 285.408 
L 122.530909 285.408 
L 138.763636 285.408 
L 154.996364 285.408 
L 171.229091 285.408 
L 187.461818 285.408 
L 203.694545 285.408 
L 219.927273 285.408 
L 236.16 285.408 
L 252.392727 285.408 
L 268.625455 285.408 
L 284.858182 285.408 
L 301.090909 285.408 
L 317.323636 285.408 
L 333.556364 285.408 
L 349.789091 285.408 
L 366.021818 285.408 
L 382.254545 285.408 
L 398.487273 285.408 
" style="fill:none;stroke:#d44e4e;stroke-linecap:square;stroke-width:3;"/>
   </g>
   <g id="line2d_17">
    <path clip-path="url(#p1764bdbc49)" d="M 73.832727 285.408 
L 90.065455 285.123675 
L 106.298182 285.294738 
L 122.530909 285.19071 
L 138.763636 285.312685 
L 154.996364 285.408 
L 171.229091 285.408 
L 187.461818 285.408 
L 203.694545 285.408 
L 219.927273 285.408 
L 236.16 285.408 
L 252.392727 285.408 
L 268.625455 284.74681 
L 284.858182 285.408 
L 301.090909 285.408 
L 317.323636 285.408 
L 333.556364 285.408 
L 349.789091 285.408 
L 366.021818 285.408 
L 382.254545 285.408 
L 398.487273 285.408 
" style="fill:none;stroke:#0e4db3;stroke-linecap:square;stroke-width:3;"/>
   </g>
   <g id="line2d_18">
    <path clip-path="url(#p1764bdbc49)" d="M 73.832727 285.408 
L 90.065455 285.408 
L 106.298182 285.408 
L 122.530909 285.408 
L 138.763636 285.408 
L 154.996364 285.408 
L 171.229091 285.408 
L 187.461818 285.408 
L 203.694545 285.408 
L 219.927273 285.408 
L 236.16 285.408 
L 252.392727 285.408 
L 268.625455 285.408 
L 284.858182 285.408 
L 301.090909 285.408 
L 317.323636 285.408 
L 333.556364 285.408 
L 349.789091 285.408 
L 366.021818 285.408 
L 382.254545 285.408 
L 398.487273 285.408 
" style="fill:none;stroke:#d44e4e;stroke-linecap:square;stroke-width:3;"/>
   </g>
   <g id="line2d_19">
    <path clip-path="url(#p1764bdbc49)" d="M 73.832727 269.076669 
L 90.065455 263.925252 
L 106.298182 256.377491 
L 122.530909 255.650562 
L 138.763636 247.850742 
L 154.996364 246.268347 
L 171.229091 241.037217 
L 187.461818 241.691985 
L 203.694545 234.169494 
L 219.927273 234.552184 
L 236.16 252.409402 
L 252.392727 235.457328 
L 268.625455 243.844991 
L 284.858182 254.233854 
L 301.090909 252.199736 
L 317.323636 259.51465 
L 333.556364 260.417208 
L 349.789091 261.900103 
L 366.021818 262.402119 
L 382.254545 267.322872 
L 398.487273 269.076669 
" style="fill:none;stroke:#0e4db3;stroke-linecap:square;stroke-width:3;"/>
   </g>
   <g id="line2d_20">
    <path clip-path="url(#p1764bdbc49)" d="M 73.832727 269.389207 
L 90.065455 265.447262 
L 106.298182 259.332067 
L 122.530909 258.123584 
L 138.763636 252.318089 
L 154.996364 251.262804 
L 171.229091 246.968204 
L 187.461818 247.150578 
L 203.694545 241.512655 
L 219.927273 241.53807 
L 236.16 255.938057 
L 252.392727 242.373081 
L 268.625455 249.005333 
L 284.858182 257.742242 
L 301.090909 255.735548 
L 317.323636 261.564816 
L 333.556364 262.205523 
L 349.789091 262.803812 
L 366.021818 263.381469 
L 382.254545 267.674736 
L 398.487273 269.389207 
" style="fill:none;stroke:#d44e4e;stroke-linecap:square;stroke-width:3;"/>
   </g>
   <g id="line2d_21">
    <path clip-path="url(#p1764bdbc49)" d="M 73.832727 251.694302 
L 90.065455 249.360044 
L 106.298182 245.84842 
L 122.530909 244.429699 
L 138.763636 246.159802 
L 154.996364 246.254424 
L 171.229091 246.421799 
L 187.461818 250.082609 
L 203.694545 249.513257 
L 219.927273 251.355621 
L 236.16 252.975675 
L 252.392727 250.993319 
L 268.625455 250.57166 
L 284.858182 250.614489 
L 301.090909 250.694832 
L 317.323636 251.012732 
L 333.556364 243.626464 
L 349.789091 247.701745 
L 366.021818 246.428654 
L 382.254545 251.815416 
L 398.487273 251.694302 
" style="fill:none;stroke:#0e4db3;stroke-linecap:square;stroke-width:3;"/>
   </g>
   <g id="line2d_22">
    <path clip-path="url(#p1764bdbc49)" d="M 73.832727 258.892739 
L 90.065455 257.032453 
L 106.298182 254.320362 
L 122.530909 252.697852 
L 138.763636 255.231637 
L 154.996364 255.359852 
L 171.229091 255.304632 
L 187.461818 257.552977 
L 203.694545 256.400916 
L 219.927273 259.088281 
L 236.16 257.852264 
L 252.392727 258.054221 
L 268.625455 257.990401 
L 284.858182 258.428522 
L 301.090909 258.621127 
L 317.323636 258.554371 
L 333.556364 252.820115 
L 349.789091 254.070866 
L 366.021818 253.801635 
L 382.254545 258.893646 
L 398.487273 258.892739 
" style="fill:none;stroke:#d44e4e;stroke-linecap:square;stroke-width:3;"/>
   </g>
   <g id="line2d_23">
    <path clip-path="url(#p1764bdbc49)" d="M 73.832727 284.182925 
L 90.065455 271.265255 
L 106.298182 260.375334 
L 122.530909 261.069962 
L 138.763636 247.862022 
L 154.996364 246.867894 
L 171.229091 247.060145 
L 187.461818 248.24641 
L 203.694545 244.933206 
L 219.927273 244.927341 
L 236.16 249.652229 
L 252.392727 246.539208 
L 268.625455 250.581882 
L 284.858182 260.28448 
L 301.090909 256.379581 
L 317.323636 270.592124 
L 333.556364 270.817479 
L 349.789091 274.313045 
L 366.021818 281.151116 
L 382.254545 274.879704 
L 398.487273 284.182925 
" style="fill:none;stroke:#0e4db3;stroke-linecap:square;stroke-width:3;"/>
   </g>
   <g id="line2d_24">
    <path clip-path="url(#p1764bdbc49)" d="M 73.832727 285.090127 
L 90.065455 275.245203 
L 106.298182 266.46874 
L 122.530909 263.998917 
L 138.763636 256.925375 
L 154.996364 256.063057 
L 171.229091 256.092359 
L 187.461818 256.049423 
L 203.694545 253.76325 
L 219.927273 253.786685 
L 236.16 257.812708 
L 252.392727 254.96713 
L 268.625455 257.496111 
L 284.858182 266.603325 
L 301.090909 262.776967 
L 317.323636 273.664138 
L 333.556364 274.854524 
L 349.789091 277.966177 
L 366.021818 282.607858 
L 382.254545 277.980402 
L 398.487273 285.090127 
" style="fill:none;stroke:#d44e4e;stroke-linecap:square;stroke-width:3;"/>
   </g>
   <g id="line2d_25">
    <path clip-path="url(#p1764bdbc49)" d="M 73.832727 235.01811 
L 90.065455 234.714357 
L 106.298182 231.619959 
L 122.530909 236.54461 
L 138.763636 239.490037 
L 154.996364 249.893793 
L 171.229091 251.725238 
L 187.461818 250.046714 
L 203.694545 233.938293 
L 219.927273 222.912076 
L 236.16 223.767444 
L 252.392727 222.710661 
L 268.625455 233.881533 
L 284.858182 240.732 
L 301.090909 231.40695 
L 317.323636 228.062787 
L 333.556364 227.207942 
L 349.789091 225.635223 
L 366.021818 221.730448 
L 382.254545 225.372642 
L 398.487273 235.01811 
" style="fill:none;stroke:#0e4db3;stroke-linecap:square;stroke-width:3;"/>
   </g>
   <g id="line2d_26">
    <path clip-path="url(#p1764bdbc49)" d="M 73.832727 242.20347 
L 90.065455 242.195178 
L 106.298182 239.69309 
L 122.530909 242.940917 
L 138.763636 246.264555 
L 154.996364 254.201171 
L 171.229091 255.581211 
L 187.461818 253.475121 
L 203.694545 240.739685 
L 219.927273 232.754052 
L 236.16 233.338229 
L 252.392727 232.520705 
L 268.625455 241.244076 
L 284.858182 246.769822 
L 301.090909 239.195315 
L 317.323636 236.639782 
L 333.556364 236.066798 
L 349.789091 234.869553 
L 366.021818 231.432512 
L 382.254545 234.532688 
L 398.487273 242.20347 
" style="fill:none;stroke:#d44e4e;stroke-linecap:square;stroke-width:3;"/>
   </g>
   <g id="line2d_27">
    <path clip-path="url(#p1764bdbc49)" d="M 73.832727 233.404646 
L 90.065455 233.067284 
L 106.298182 238.504607 
L 122.530909 240.024158 
L 138.763636 250.820977 
L 154.996364 258.220799 
L 171.229091 250.662285 
L 187.461818 240.966732 
L 203.694545 236.964271 
L 219.927273 247.125694 
L 236.16 245.911591 
L 252.392727 245.952783 
L 268.625455 251.755039 
L 284.858182 256.106573 
L 301.090909 249.11051 
L 317.323636 247.832368 
L 333.556364 241.182953 
L 349.789091 240.90778 
L 366.021818 237.082723 
L 382.254545 233.617189 
L 398.487273 233.404646 
" style="fill:none;stroke:#0e4db3;stroke-linecap:square;stroke-width:3;"/>
   </g>
   <g id="line2d_28">
    <path clip-path="url(#p1764bdbc49)" d="M 73.832727 241.588149 
L 90.065455 240.161359 
L 106.298182 245.715367 
L 122.530909 243.762562 
L 138.763636 255.428191 
L 154.996364 261.169356 
L 171.229091 254.908755 
L 187.461818 246.874094 
L 203.694545 243.786976 
L 219.927273 252.290608 
L 236.16 251.323598 
L 252.392727 251.141743 
L 268.625455 256.039008 
L 284.858182 259.11632 
L 301.090909 254.218692 
L 317.323636 252.446354 
L 333.556364 247.754729 
L 349.789091 246.607801 
L 366.021818 243.955139 
L 382.254545 240.139451 
L 398.487273 241.588149 
" style="fill:none;stroke:#d44e4e;stroke-linecap:square;stroke-width:3;"/>
   </g>
   <g id="line2d_29">
    <path clip-path="url(#p1764bdbc49)" d="M 73.832727 208.61757 
L 90.065455 208.508138 
L 106.298182 206.786725 
L 122.530909 207.82446 
L 138.763636 207.717181 
L 154.996364 207.772523 
L 171.229091 206.730807 
L 187.461818 207.507743 
L 203.694545 203.937945 
L 219.927273 205.532993 
L 236.16 205.842339 
L 252.392727 205.775395 
L 268.625455 207.066914 
L 284.858182 208.054319 
L 301.090909 207.209871 
L 317.323636 207.622991 
L 333.556364 207.33004 
L 349.789091 208.195691 
L 366.021818 206.948837 
L 382.254545 207.724287 
L 398.487273 208.61757 
" style="fill:none;stroke:#0e4db3;stroke-linecap:square;stroke-width:3;"/>
   </g>
   <g id="line2d_30">
    <path clip-path="url(#p1764bdbc49)" d="M 73.832727 220.965706 
L 90.065455 220.432287 
L 106.298182 219.318653 
L 122.530909 220.00306 
L 138.763636 219.98596 
L 154.996364 220.016808 
L 171.229091 219.209001 
L 187.461818 219.953481 
L 203.694545 217.027755 
L 219.927273 218.479437 
L 236.16 218.637879 
L 252.392727 218.604194 
L 268.625455 218.616631 
L 284.858182 219.870977 
L 301.090909 219.169508 
L 317.323636 219.717593 
L 333.556364 219.636879 
L 349.789091 220.395046 
L 366.021818 219.399353 
L 382.254545 220.163716 
L 398.487273 220.965706 
" style="fill:none;stroke:#d44e4e;stroke-linecap:square;stroke-width:3;"/>
   </g>
   <g id="line2d_31">
    <path clip-path="url(#p1764bdbc49)" d="M 73.832727 248.19574 
L 90.065455 241.407443 
L 106.298182 241.348526 
L 122.530909 245.48109 
L 138.763636 246.051735 
L 154.996364 244.434374 
L 171.229091 244.34338 
L 187.461818 244.11145 
L 203.694545 249.457484 
L 219.927273 249.315251 
L 236.16 250.551443 
L 252.392727 258.288996 
L 268.625455 266.552357 
L 284.858182 269.671469 
L 301.090909 269.756979 
L 317.323636 268.517952 
L 333.556364 267.172643 
L 349.789091 265.084775 
L 366.021818 256.509051 
L 382.254545 248.25402 
L 398.487273 248.19574 
" style="fill:none;stroke:#0e4db3;stroke-linecap:square;stroke-width:3;"/>
   </g>
   <g id="line2d_32">
    <path clip-path="url(#p1764bdbc49)" d="M 73.832727 253.445835 
L 90.065455 248.003891 
L 106.298182 248.217238 
L 122.530909 249.665356 
L 138.763636 251.835542 
L 154.996364 250.423743 
L 171.229091 250.257332 
L 187.461818 249.908611 
L 203.694545 254.199025 
L 219.927273 254.207998 
L 236.16 255.336405 
L 252.392727 261.453772 
L 268.625455 268.084861 
L 284.858182 270.381307 
L 301.090909 270.41583 
L 317.323636 269.351111 
L 333.556364 268.404406 
L 349.789091 266.624884 
L 366.021818 259.628861 
L 382.254545 252.875141 
L 398.487273 253.445835 
" style="fill:none;stroke:#d44e4e;stroke-linecap:square;stroke-width:3;"/>
   </g>
   <g id="line2d_33">
    <path clip-path="url(#p1764bdbc49)" d="M 73.832727 186.235385 
L 90.065455 186.22172 
L 106.298182 186.033401 
L 122.530909 188.232369 
L 138.763636 187.562908 
L 154.996364 187.920339 
L 171.229091 188.0651 
L 187.461818 188.759699 
L 203.694545 186.384894 
L 219.927273 187.874294 
L 236.16 187.961197 
L 252.392727 187.56325 
L 268.625455 187.707814 
L 284.858182 190.338944 
L 301.090909 188.250781 
L 317.323636 188.134213 
L 333.556364 187.550283 
L 349.789091 187.607937 
L 366.021818 186.086127 
L 382.254545 186.219885 
L 398.487273 186.235385 
" style="fill:none;stroke:#0e4db3;stroke-linecap:square;stroke-width:3;"/>
   </g>
   <g id="line2d_34">
    <path clip-path="url(#p1764bdbc49)" d="M 73.832727 204.781711 
L 90.065455 204.779353 
L 106.298182 204.577998 
L 122.530909 206.13758 
L 138.763636 205.357338 
L 154.996364 206.053862 
L 171.229091 205.853077 
L 187.461818 206.873855 
L 203.694545 204.685534 
L 219.927273 206.183973 
L 236.16 206.342976 
L 252.392727 205.828189 
L 268.625455 204.988889 
L 284.858182 206.378769 
L 301.090909 205.654126 
L 317.323636 205.656871 
L 333.556364 205.415682 
L 349.789091 205.6869 
L 366.021818 204.380155 
L 382.254545 204.664195 
L 398.487273 204.781711 
" style="fill:none;stroke:#d44e4e;stroke-linecap:square;stroke-width:3;"/>
   </g>
   <g id="line2d_35">
    <path clip-path="url(#p1764bdbc49)" d="M 73.832727 285.408 
L 90.065455 285.408 
L 106.298182 285.408 
L 122.530909 285.408 
L 138.763636 285.408 
L 154.996364 285.408 
L 171.229091 285.408 
L 187.461818 285.408 
L 203.694545 285.408 
L 219.927273 285.408 
L 236.16 285.408 
L 252.392727 285.408 
L 268.625455 283.966672 
L 284.858182 284.995617 
L 301.090909 285.408 
L 317.323636 285.408 
L 333.556364 285.408 
L 349.789091 285.408 
L 366.021818 285.408 
L 382.254545 285.408 
L 398.487273 285.408 
" style="fill:none;stroke:#0e4db3;stroke-linecap:square;stroke-width:3;"/>
   </g>
   <g id="line2d_36">
    <path clip-path="url(#p1764bdbc49)" d="M 73.832727 285.408 
L 90.065455 285.408 
L 106.298182 285.408 
L 122.530909 285.408 
L 138.763636 285.408 
L 154.996364 285.408 
L 171.229091 285.408 
L 187.461818 285.408 
L 203.694545 285.408 
L 219.927273 285.408 
L 236.16 285.408 
L 252.392727 285.408 
L 268.625455 285.408 
L 284.858182 285.408 
L 301.090909 285.408 
L 317.323636 285.408 
L 333.556364 285.408 
L 349.789091 285.408 
L 366.021818 285.408 
L 382.254545 285.408 
L 398.487273 285.408 
" style="fill:none;stroke:#d44e4e;stroke-linecap:square;stroke-width:3;"/>
   </g>
   <g id="line2d_37">
    <path clip-path="url(#p1764bdbc49)" d="M 73.832727 246.699705 
L 90.065455 218.321602 
L 106.298182 225.110752 
L 122.530909 232.788844 
L 138.763636 234.252093 
L 154.996364 254.6348 
L 171.229091 261.390379 
L 187.461818 261.235069 
L 203.694545 240.442094 
L 219.927273 221.386804 
L 236.16 222.454158 
L 252.392727 220.73364 
L 268.625455 231.503638 
L 284.858182 243.424882 
L 301.090909 232.114781 
L 317.323636 227.030691 
L 333.556364 225.876396 
L 349.789091 230.15787 
L 366.021818 214.714283 
L 382.254545 228.405434 
L 398.487273 246.699705 
" style="fill:none;stroke:#0e4db3;stroke-linecap:square;stroke-width:3;"/>
   </g>
   <g id="line2d_38">
    <path clip-path="url(#p1764bdbc49)" d="M 73.832727 254.913656 
L 90.065455 231.937468 
L 106.298182 236.141905 
L 122.530909 243.29672 
L 138.763636 245.249282 
L 154.996364 261.701659 
L 171.229091 267.115532 
L 187.461818 264.942474 
L 203.694545 248.615883 
L 219.927273 234.727896 
L 236.16 235.523145 
L 252.392727 234.141297 
L 268.625455 242.49335 
L 284.858182 252.134722 
L 301.090909 242.958718 
L 317.323636 238.931719 
L 333.556364 238.135499 
L 349.789091 240.585816 
L 366.021818 228.874287 
L 382.254545 239.82882 
L 398.487273 254.913656 
" style="fill:none;stroke:#d44e4e;stroke-linecap:square;stroke-width:3;"/>
   </g>
   <g id="line2d_39">
    <path clip-path="url(#p1764bdbc49)" d="M 73.832727 268.770597 
L 90.065455 255.532823 
L 106.298182 260.034017 
L 122.530909 259.673262 
L 138.763636 262.77489 
L 154.996364 264.27563 
L 171.229091 267.958439 
L 187.461818 271.637332 
L 203.694545 270.017241 
L 219.927273 263.202202 
L 236.16 263.743246 
L 252.392727 263.557464 
L 268.625455 265.871395 
L 284.858182 259.789269 
L 301.090909 264.678616 
L 317.323636 271.650511 
L 333.556364 271.708774 
L 349.789091 268.129435 
L 366.021818 265.658833 
L 382.254545 265.315196 
L 398.487273 268.770597 
" style="fill:none;stroke:#0e4db3;stroke-linecap:square;stroke-width:3;"/>
   </g>
   <g id="line2d_40">
    <path clip-path="url(#p1764bdbc49)" d="M 73.832727 272.996886 
L 90.065455 260.237351 
L 106.298182 263.942447 
L 122.530909 265.22923 
L 138.763636 268.057502 
L 154.996364 269.440196 
L 171.229091 271.889315 
L 187.461818 275.087446 
L 203.694545 273.432919 
L 219.927273 268.417609 
L 236.16 268.817129 
L 252.392727 268.671797 
L 268.625455 270.352741 
L 284.858182 265.49444 
L 301.090909 269.595399 
L 317.323636 274.774855 
L 333.556364 274.962168 
L 349.789091 272.129389 
L 366.021818 270.017571 
L 382.254545 269.883135 
L 398.487273 272.996886 
" style="fill:none;stroke:#d44e4e;stroke-linecap:square;stroke-width:3;"/>
   </g>
   <g id="line2d_41">
    <path clip-path="url(#p1764bdbc49)" d="M 73.832727 266.643392 
L 90.065455 257.680119 
L 106.298182 246.110515 
L 122.530909 241.908422 
L 138.763636 235.962822 
L 154.996364 233.608916 
L 171.229091 239.752712 
L 187.461818 248.082592 
L 203.694545 249.668313 
L 219.927273 239.332661 
L 236.16 239.270396 
L 252.392727 244.184385 
L 268.625455 241.833493 
L 284.858182 249.88789 
L 301.090909 253.189355 
L 317.323636 273.637037 
L 333.556364 272.62648 
L 349.789091 273.504629 
L 366.021818 264.361208 
L 382.254545 266.739484 
L 398.487273 266.643392 
" style="fill:none;stroke:#0e4db3;stroke-linecap:square;stroke-width:3;"/>
   </g>
   <g id="line2d_42">
    <path clip-path="url(#p1764bdbc49)" d="M 73.832727 270.220095 
L 90.065455 263.221186 
L 106.298182 248.33064 
L 122.530909 249.345068 
L 138.763636 246.339082 
L 154.996364 244.37758 
L 171.229091 249.129336 
L 187.461818 254.406364 
L 203.694545 256.495752 
L 219.927273 248.615321 
L 236.16 248.612447 
L 252.392727 252.227221 
L 268.625455 250.258439 
L 284.858182 256.294799 
L 301.090909 258.569918 
L 317.323636 276.32593 
L 333.556364 275.225505 
L 349.789091 274.97549 
L 366.021818 267.062871 
L 382.254545 269.670127 
L 398.487273 270.220095 
" style="fill:none;stroke:#d44e4e;stroke-linecap:square;stroke-width:3;"/>
   </g>
   <g id="line2d_43">
    <path clip-path="url(#p1764bdbc49)" d="M 73.832727 248.46262 
L 90.065455 248.181753 
L 106.298182 248.072954 
L 122.530909 251.667909 
L 138.763636 248.150666 
L 154.996364 256.437622 
L 171.229091 257.230857 
L 187.461818 257.394111 
L 203.694545 256.838571 
L 219.927273 256.524934 
L 236.16 256.270975 
L 252.392727 252.153486 
L 268.625455 250.029376 
L 284.858182 253.37322 
L 301.090909 247.960129 
L 317.323636 248.091639 
L 333.556364 248.116557 
L 349.789091 248.990265 
L 366.021818 245.470948 
L 382.254545 248.225413 
L 398.487273 248.46262 
" style="fill:none;stroke:#0e4db3;stroke-linecap:square;stroke-width:3;"/>
   </g>
   <g id="line2d_44">
    <path clip-path="url(#p1764bdbc49)" d="M 73.832727 253.965324 
L 90.065455 251.848042 
L 106.298182 251.716255 
L 122.530909 253.034959 
L 138.763636 253.917331 
L 154.996364 260.333008 
L 171.229091 260.805785 
L 187.461818 260.93281 
L 203.694545 260.867885 
L 219.927273 260.655097 
L 236.16 260.68449 
L 252.392727 256.555327 
L 268.625455 255.161239 
L 284.858182 257.596963 
L 301.090909 253.503903 
L 317.323636 253.515339 
L 333.556364 253.519983 
L 349.789091 254.441074 
L 366.021818 251.218647 
L 382.254545 253.598783 
L 398.487273 253.965324 
" style="fill:none;stroke:#d44e4e;stroke-linecap:square;stroke-width:3;"/>
   </g>
   <g id="line2d_45">
    <path clip-path="url(#p1764bdbc49)" d="M 73.832727 285.408 
L 90.065455 285.408 
L 106.298182 285.408 
L 122.530909 285.408 
L 138.763636 285.408 
L 154.996364 285.408 
L 171.229091 285.408 
L 187.461818 285.408 
L 203.694545 285.408 
L 219.927273 285.408 
L 236.16 285.408 
L 252.392727 285.408 
L 268.625455 285.408 
L 284.858182 285.408 
L 301.090909 285.408 
L 317.323636 285.408 
L 333.556364 285.408 
L 349.789091 285.408 
L 366.021818 285.408 
L 382.254545 285.408 
L 398.487273 285.408 
" style="fill:none;stroke:#0e4db3;stroke-linecap:square;stroke-width:3;"/>
   </g>
   <g id="line2d_46">
    <path clip-path="url(#p1764bdbc49)" d="M 73.832727 285.408 
L 90.065455 285.408 
L 106.298182 285.408 
L 122.530909 285.408 
L 138.763636 285.408 
L 154.996364 285.408 
L 171.229091 285.408 
L 187.461818 285.408 
L 203.694545 285.408 
L 219.927273 285.408 
L 236.16 285.408 
L 252.392727 285.408 
L 268.625455 285.408 
L 284.858182 285.408 
L 301.090909 285.408 
L 317.323636 285.408 
L 333.556364 285.408 
L 349.789091 285.408 
L 366.021818 285.408 
L 382.254545 285.408 
L 398.487273 285.408 
" style="fill:none;stroke:#d44e4e;stroke-linecap:square;stroke-width:3;"/>
   </g>
   <g id="line2d_47">
    <path clip-path="url(#p1764bdbc49)" d="M 73.832727 236.307194 
L 90.065455 191.443447 
L 106.298182 192.673232 
L 122.530909 189.087343 
L 138.763636 172.066611 
L 154.996364 185.051145 
L 171.229091 214.293238 
L 187.461818 258.428152 
L 203.694545 237.496015 
L 219.927273 219.09737 
L 236.16 216.428105 
L 252.392727 197.456329 
L 268.625455 182.304858 
L 284.858182 173.332506 
L 301.090909 188.401525 
L 317.323636 218.617192 
L 333.556364 268.00358 
L 349.789091 285.408 
L 366.021818 270.606573 
L 382.254545 233.696217 
L 398.487273 236.307194 
" style="fill:none;stroke:#0e4db3;stroke-linecap:square;stroke-width:3;"/>
   </g>
   <g id="line2d_48">
    <path clip-path="url(#p1764bdbc49)" d="M 73.832727 285.408 
L 90.065455 248.274923 
L 106.298182 251.666472 
L 122.530909 239.929054 
L 138.763636 268.368279 
L 154.996364 281.945893 
L 171.229091 285.408 
L 187.461818 285.408 
L 203.694545 285.408 
L 219.927273 285.408 
L 236.16 284.329721 
L 252.392727 268.670293 
L 268.625455 259.020109 
L 284.858182 260.97425 
L 301.090909 270.116099 
L 317.323636 285.408 
L 333.556364 285.408 
L 349.789091 285.408 
L 366.021818 285.408 
L 382.254545 285.408 
L 398.487273 285.408 
" style="fill:none;stroke:#d44e4e;stroke-linecap:square;stroke-width:3;"/>
   </g>
   <g id="line2d_49">
    <path clip-path="url(#p1764bdbc49)" d="M 73.832727 285.408 
L 90.065455 285.408 
L 106.298182 285.408 
L 122.530909 285.408 
L 138.763636 285.408 
L 154.996364 285.408 
L 171.229091 285.408 
L 187.461818 285.408 
L 203.694545 285.408 
L 219.927273 285.408 
L 236.16 285.408 
L 252.392727 285.408 
L 268.625455 285.408 
L 284.858182 285.408 
L 301.090909 285.408 
L 317.323636 285.408 
L 333.556364 285.408 
L 349.789091 285.408 
L 366.021818 285.408 
L 382.254545 285.408 
L 398.487273 285.408 
" style="fill:none;stroke:#0e4db3;stroke-linecap:square;stroke-width:3;"/>
   </g>
   <g id="line2d_50">
    <path clip-path="url(#p1764bdbc49)" d="M 73.832727 285.408 
L 90.065455 285.408 
L 106.298182 285.408 
L 122.530909 285.408 
L 138.763636 285.408 
L 154.996364 285.408 
L 171.229091 285.408 
L 187.461818 285.408 
L 203.694545 285.408 
L 219.927273 285.408 
L 236.16 285.408 
L 252.392727 285.408 
L 268.625455 285.408 
L 284.858182 285.408 
L 301.090909 285.408 
L 317.323636 285.408 
L 333.556364 285.408 
L 349.789091 285.408 
L 366.021818 285.408 
L 382.254545 285.408 
L 398.487273 285.408 
" style="fill:none;stroke:#d44e4e;stroke-linecap:square;stroke-width:3;"/>
   </g>
   <g id="line2d_51">
    <path clip-path="url(#p1764bdbc49)" d="M 73.832727 285.408 
L 90.065455 285.408 
L 106.298182 285.408 
L 122.530909 285.408 
L 138.763636 285.408 
L 154.996364 285.408 
L 171.229091 285.408 
L 187.461818 285.408 
L 203.694545 285.408 
L 219.927273 285.408 
L 236.16 285.408 
L 252.392727 285.408 
L 268.625455 285.408 
L 284.858182 285.408 
L 301.090909 285.408 
L 317.323636 285.408 
L 333.556364 285.408 
L 349.789091 285.408 
L 366.021818 285.408 
L 382.254545 285.408 
L 398.487273 285.408 
" style="fill:none;stroke:#0e4db3;stroke-linecap:square;stroke-width:3;"/>
   </g>
   <g id="line2d_52">
    <path clip-path="url(#p1764bdbc49)" d="M 73.832727 285.408 
L 90.065455 285.408 
L 106.298182 285.408 
L 122.530909 285.408 
L 138.763636 285.408 
L 154.996364 285.408 
L 171.229091 285.408 
L 187.461818 285.408 
L 203.694545 285.408 
L 219.927273 285.408 
L 236.16 285.408 
L 252.392727 285.408 
L 268.625455 285.408 
L 284.858182 285.408 
L 301.090909 285.408 
L 317.323636 285.408 
L 333.556364 285.408 
L 349.789091 285.408 
L 366.021818 285.408 
L 382.254545 285.408 
L 398.487273 285.408 
" style="fill:none;stroke:#d44e4e;stroke-linecap:square;stroke-width:3;"/>
   </g>
   <g id="line2d_53">
    <path clip-path="url(#p1764bdbc49)" d="M 73.832727 117.826977 
L 90.065455 169.59249 
L 106.298182 219.460146 
L 122.530909 226.768979 
L 138.763636 223.931691 
L 154.996364 225.710933 
L 171.229091 222.374327 
L 187.461818 231.059192 
L 203.694545 239.370542 
L 219.927273 207.95407 
L 236.16 200.032139 
L 252.392727 190.669878 
L 268.625455 213.428967 
L 284.858182 189.162317 
L 301.090909 154.215399 
L 317.323636 110.3853 
L 333.556364 75.715227 
L 349.789091 83.098817 
L 366.021818 91.863202 
L 382.254545 103.3069 
L 398.487273 117.826977 
" style="fill:none;stroke:#0e4db3;stroke-linecap:square;stroke-width:3;"/>
   </g>
   <g id="line2d_54">
    <path clip-path="url(#p1764bdbc49)" d="M 73.832727 285.408 
L 90.065455 285.408 
L 106.298182 285.408 
L 122.530909 285.408 
L 138.763636 285.408 
L 154.996364 285.408 
L 171.229091 285.408 
L 187.461818 285.408 
L 203.694545 285.408 
L 219.927273 285.408 
L 236.16 285.408 
L 252.392727 285.408 
L 268.625455 285.408 
L 284.858182 285.408 
L 301.090909 285.408 
L 317.323636 239.554175 
L 333.556364 261.668007 
L 349.789091 241.194506 
L 366.021818 237.179127 
L 382.254545 256.104203 
L 398.487273 285.408 
" style="fill:none;stroke:#d44e4e;stroke-linecap:square;stroke-width:3;"/>
   </g>
   <g id="line2d_55">
    <path clip-path="url(#p1764bdbc49)" d="M 73.832727 285.408 
L 90.065455 285.408 
L 106.298182 285.408 
L 122.530909 285.408 
L 138.763636 285.408 
L 154.996364 285.408 
L 171.229091 285.408 
L 187.461818 285.408 
L 203.694545 285.408 
L 219.927273 285.408 
L 236.16 285.408 
L 252.392727 285.408 
L 268.625455 285.408 
L 284.858182 285.408 
L 301.090909 285.408 
L 317.323636 285.408 
L 333.556364 285.408 
L 349.789091 285.408 
L 366.021818 285.408 
L 382.254545 285.408 
L 398.487273 285.408 
" style="fill:none;stroke:#0e4db3;stroke-linecap:square;stroke-width:3;"/>
   </g>
   <g id="line2d_56">
    <path clip-path="url(#p1764bdbc49)" d="M 73.832727 285.408 
L 90.065455 285.408 
L 106.298182 285.408 
L 122.530909 285.408 
L 138.763636 285.408 
L 154.996364 285.408 
L 171.229091 285.408 
L 187.461818 285.408 
L 203.694545 285.408 
L 219.927273 285.408 
L 236.16 285.408 
L 252.392727 285.408 
L 268.625455 285.408 
L 284.858182 285.408 
L 301.090909 285.408 
L 317.323636 285.408 
L 333.556364 285.408 
L 349.789091 285.408 
L 366.021818 285.408 
L 382.254545 285.408 
L 398.487273 285.408 
" style="fill:none;stroke:#d44e4e;stroke-linecap:square;stroke-width:3;"/>
   </g>
   <g id="line2d_57">
    <path clip-path="url(#p1764bdbc49)" d="M 73.832727 285.408 
L 90.065455 285.408 
L 106.298182 285.408 
L 122.530909 285.408 
L 138.763636 285.408 
L 154.996364 285.408 
L 171.229091 285.408 
L 187.461818 285.408 
L 203.694545 285.408 
L 219.927273 285.408 
L 236.16 285.408 
L 252.392727 285.408 
L 268.625455 285.408 
L 284.858182 285.408 
L 301.090909 285.408 
L 317.323636 285.408 
L 333.556364 285.408 
L 349.789091 285.408 
L 366.021818 285.408 
L 382.254545 285.408 
L 398.487273 285.408 
" style="fill:none;stroke:#0e4db3;stroke-linecap:square;stroke-width:3;"/>
   </g>
   <g id="line2d_58">
    <path clip-path="url(#p1764bdbc49)" d="M 73.832727 285.408 
L 90.065455 285.408 
L 106.298182 285.408 
L 122.530909 285.408 
L 138.763636 285.408 
L 154.996364 285.408 
L 171.229091 285.408 
L 187.461818 285.408 
L 203.694545 285.408 
L 219.927273 285.408 
L 236.16 285.408 
L 252.392727 285.408 
L 268.625455 285.408 
L 284.858182 285.408 
L 301.090909 285.408 
L 317.323636 285.408 
L 333.556364 285.408 
L 349.789091 285.408 
L 366.021818 285.408 
L 382.254545 285.408 
L 398.487273 285.408 
" style="fill:none;stroke:#d44e4e;stroke-linecap:square;stroke-width:3;"/>
   </g>
   <g id="line2d_59">
    <path clip-path="url(#p1764bdbc49)" d="M 73.832727 264.281922 
L 90.065455 264.354243 
L 106.298182 268.516511 
L 122.530909 274.133584 
L 138.763636 274.073554 
L 154.996364 275.030955 
L 171.229091 268.166634 
L 187.461818 251.857006 
L 203.694545 217.80824 
L 219.927273 193.640132 
L 236.16 223.849232 
L 252.392727 179.523432 
L 268.625455 185.139018 
L 284.858182 187.139278 
L 301.090909 187.569392 
L 317.323636 201.873479 
L 333.556364 210.875041 
L 349.789091 226.939238 
L 366.021818 235.329723 
L 382.254545 249.71225 
L 398.487273 264.281922 
" style="fill:none;stroke:#0e4db3;stroke-linecap:square;stroke-width:3;"/>
   </g>
   <g id="line2d_60">
    <path clip-path="url(#p1764bdbc49)" d="M 73.832727 284.379806 
L 90.065455 277.810303 
L 106.298182 283.860941 
L 122.530909 280.564638 
L 138.763636 280.241019 
L 154.996364 280.699852 
L 171.229091 284.44556 
L 187.461818 284.666728 
L 203.694545 284.545806 
L 219.927273 255.294719 
L 236.16 283.996898 
L 252.392727 242.81115 
L 268.625455 251.09066 
L 284.858182 260.583947 
L 301.090909 265.462856 
L 317.323636 259.659719 
L 333.556364 267.650652 
L 349.789091 261.893201 
L 366.021818 267.983126 
L 382.254545 271.711822 
L 398.487273 284.379806 
" style="fill:none;stroke:#d44e4e;stroke-linecap:square;stroke-width:3;"/>
   </g>
   <g id="line2d_61">
    <path clip-path="url(#p1764bdbc49)" d="M 73.832727 285.408 
L 90.065455 285.408 
L 106.298182 285.408 
L 122.530909 285.408 
L 138.763636 285.408 
L 154.996364 285.408 
L 171.229091 285.408 
L 187.461818 285.408 
L 203.694545 285.408 
L 219.927273 285.408 
L 236.16 285.408 
L 252.392727 285.408 
L 268.625455 285.408 
L 284.858182 285.408 
L 301.090909 285.408 
L 317.323636 285.408 
L 333.556364 285.408 
L 349.789091 285.408 
L 366.021818 285.408 
L 382.254545 285.408 
L 398.487273 285.408 
" style="fill:none;stroke:#0e4db3;stroke-linecap:square;stroke-width:3;"/>
   </g>
   <g id="line2d_62">
    <path clip-path="url(#p1764bdbc49)" d="M 73.832727 285.408 
L 90.065455 285.408 
L 106.298182 285.408 
L 122.530909 285.408 
L 138.763636 285.408 
L 154.996364 285.408 
L 171.229091 285.408 
L 187.461818 285.408 
L 203.694545 285.408 
L 219.927273 285.408 
L 236.16 285.408 
L 252.392727 285.408 
L 268.625455 285.408 
L 284.858182 285.408 
L 301.090909 285.408 
L 317.323636 285.408 
L 333.556364 285.408 
L 349.789091 285.408 
L 366.021818 285.408 
L 382.254545 285.408 
L 398.487273 285.408 
" style="fill:none;stroke:#d44e4e;stroke-linecap:square;stroke-width:3;"/>
   </g>
   <g id="line2d_63">
    <path clip-path="url(#p1764bdbc49)" d="M 73.832727 285.408 
L 90.065455 285.408 
L 106.298182 285.408 
L 122.530909 285.408 
L 138.763636 285.408 
L 154.996364 285.408 
L 171.229091 285.408 
L 187.461818 285.408 
L 203.694545 285.408 
L 219.927273 285.408 
L 236.16 285.408 
L 252.392727 285.408 
L 268.625455 285.408 
L 284.858182 285.408 
L 301.090909 285.408 
L 317.323636 285.408 
L 333.556364 285.408 
L 349.789091 285.408 
L 366.021818 285.408 
L 382.254545 285.408 
L 398.487273 285.408 
" style="fill:none;stroke:#0e4db3;stroke-linecap:square;stroke-width:3;"/>
   </g>
   <g id="line2d_64">
    <path clip-path="url(#p1764bdbc49)" d="M 73.832727 285.408 
L 90.065455 285.408 
L 106.298182 285.408 
L 122.530909 285.408 
L 138.763636 285.408 
L 154.996364 285.408 
L 171.229091 285.408 
L 187.461818 285.408 
L 203.694545 285.408 
L 219.927273 285.408 
L 236.16 285.408 
L 252.392727 285.408 
L 268.625455 285.408 
L 284.858182 285.408 
L 301.090909 285.408 
L 317.323636 285.408 
L 333.556364 285.408 
L 349.789091 285.408 
L 366.021818 285.408 
L 382.254545 285.408 
L 398.487273 285.408 
" style="fill:none;stroke:#d44e4e;stroke-linecap:square;stroke-width:3;"/>
   </g>
   <g id="line2d_65">
    <path clip-path="url(#p1764bdbc49)" d="M 73.832727 285.408 
L 90.065455 285.408 
L 106.298182 285.408 
L 122.530909 285.408 
L 138.763636 285.408 
L 154.996364 285.408 
L 171.229091 285.408 
L 187.461818 285.408 
L 203.694545 285.408 
L 219.927273 285.408 
L 236.16 285.408 
L 252.392727 285.408 
L 268.625455 285.408 
L 284.858182 285.408 
L 301.090909 285.408 
L 317.323636 285.408 
L 333.556364 285.408 
L 349.789091 285.408 
L 366.021818 285.408 
L 382.254545 285.408 
L 398.487273 285.408 
" style="fill:none;stroke:#0e4db3;stroke-linecap:square;stroke-width:3;"/>
   </g>
   <g id="line2d_66">
    <path clip-path="url(#p1764bdbc49)" d="M 73.832727 285.408 
L 90.065455 285.408 
L 106.298182 285.408 
L 122.530909 285.408 
L 138.763636 285.408 
L 154.996364 285.408 
L 171.229091 285.408 
L 187.461818 285.408 
L 203.694545 285.408 
L 219.927273 285.408 
L 236.16 285.408 
L 252.392727 285.408 
L 268.625455 285.408 
L 284.858182 285.408 
L 301.090909 285.408 
L 317.323636 285.408 
L 333.556364 285.408 
L 349.789091 285.408 
L 366.021818 285.408 
L 382.254545 285.408 
L 398.487273 285.408 
" style="fill:none;stroke:#d44e4e;stroke-linecap:square;stroke-width:3;"/>
   </g>
   <g id="line2d_67">
    <path clip-path="url(#p1764bdbc49)" d="M 73.832727 285.408 
L 90.065455 285.408 
L 106.298182 285.408 
L 122.530909 285.408 
L 138.763636 285.408 
L 154.996364 285.408 
L 171.229091 285.408 
L 187.461818 285.408 
L 203.694545 285.408 
L 219.927273 285.408 
L 236.16 285.408 
L 252.392727 285.408 
L 268.625455 285.408 
L 284.858182 285.408 
L 301.090909 285.408 
L 317.323636 285.408 
L 333.556364 285.408 
L 349.789091 285.408 
L 366.021818 285.408 
L 382.254545 285.408 
L 398.487273 285.408 
" style="fill:none;stroke:#0e4db3;stroke-linecap:square;stroke-width:3;"/>
   </g>
   <g id="line2d_68">
    <path clip-path="url(#p1764bdbc49)" d="M 73.832727 285.408 
L 90.065455 285.408 
L 106.298182 285.408 
L 122.530909 285.408 
L 138.763636 285.408 
L 154.996364 285.408 
L 171.229091 285.408 
L 187.461818 285.408 
L 203.694545 285.408 
L 219.927273 285.408 
L 236.16 285.408 
L 252.392727 285.408 
L 268.625455 285.408 
L 284.858182 285.408 
L 301.090909 285.408 
L 317.323636 285.408 
L 333.556364 285.408 
L 349.789091 285.408 
L 366.021818 285.408 
L 382.254545 285.408 
L 398.487273 285.408 
" style="fill:none;stroke:#d44e4e;stroke-linecap:square;stroke-width:3;"/>
   </g>
   <g id="line2d_69">
    <path clip-path="url(#p1764bdbc49)" d="M 73.832727 224.480041 
L 90.065455 206.057343 
L 106.298182 173.912023 
L 122.530909 178.894018 
L 138.763636 149.857822 
L 154.996364 151.926435 
L 171.229091 172.182913 
L 187.461818 214.038733 
L 203.694545 194.377037 
L 219.927273 194.040278 
L 236.16 216.690997 
L 252.392727 203.126256 
L 268.625455 208.737095 
L 284.858182 226.941843 
L 301.090909 228.503692 
L 317.323636 249.327971 
L 333.556364 240.797457 
L 349.789091 234.189487 
L 366.021818 221.057651 
L 382.254545 220.975208 
L 398.487273 224.480041 
" style="fill:none;stroke:#0e4db3;stroke-linecap:square;stroke-width:3;"/>
   </g>
   <g id="line2d_70">
    <path clip-path="url(#p1764bdbc49)" d="M 73.832727 285.408 
L 90.065455 285.408 
L 106.298182 285.408 
L 122.530909 285.408 
L 138.763636 285.408 
L 154.996364 285.408 
L 171.229091 285.408 
L 187.461818 285.408 
L 203.694545 285.408 
L 219.927273 285.408 
L 236.16 285.408 
L 252.392727 285.408 
L 268.625455 285.408 
L 284.858182 285.408 
L 301.090909 285.408 
L 317.323636 285.408 
L 333.556364 285.408 
L 349.789091 285.408 
L 366.021818 285.408 
L 382.254545 285.408 
L 398.487273 285.408 
" style="fill:none;stroke:#d44e4e;stroke-linecap:square;stroke-width:3;"/>
   </g>
   <g id="line2d_71">
    <path clip-path="url(#p1764bdbc49)" d="M 73.832727 285.408 
L 90.065455 285.408 
L 106.298182 285.408 
L 122.530909 285.408 
L 138.763636 285.408 
L 154.996364 285.408 
L 171.229091 285.408 
L 187.461818 285.408 
L 203.694545 285.408 
L 219.927273 285.408 
L 236.16 285.408 
L 252.392727 285.408 
L 268.625455 285.408 
L 284.858182 285.408 
L 301.090909 285.408 
L 317.323636 285.408 
L 333.556364 285.408 
L 349.789091 285.408 
L 366.021818 285.408 
L 382.254545 285.408 
L 398.487273 285.408 
" style="fill:none;stroke:#0e4db3;stroke-linecap:square;stroke-width:3;"/>
   </g>
   <g id="line2d_72">
    <path clip-path="url(#p1764bdbc49)" d="M 73.832727 285.408 
L 90.065455 285.408 
L 106.298182 285.408 
L 122.530909 285.408 
L 138.763636 285.408 
L 154.996364 285.408 
L 171.229091 285.408 
L 187.461818 285.408 
L 203.694545 285.408 
L 219.927273 285.408 
L 236.16 285.408 
L 252.392727 285.408 
L 268.625455 285.408 
L 284.858182 285.408 
L 301.090909 285.408 
L 317.323636 285.408 
L 333.556364 285.408 
L 349.789091 285.408 
L 366.021818 285.408 
L 382.254545 285.408 
L 398.487273 285.408 
" style="fill:none;stroke:#d44e4e;stroke-linecap:square;stroke-width:3;"/>
   </g>
   <g id="line2d_73">
    <path clip-path="url(#p1764bdbc49)" d="M 73.832727 285.408 
L 90.065455 285.408 
L 106.298182 285.408 
L 122.530909 285.408 
L 138.763636 285.408 
L 154.996364 285.408 
L 171.229091 285.408 
L 187.461818 285.408 
L 203.694545 285.408 
L 219.927273 285.408 
L 236.16 285.408 
L 252.392727 285.408 
L 268.625455 285.408 
L 284.858182 285.408 
L 301.090909 285.408 
L 317.323636 285.408 
L 333.556364 285.408 
L 349.789091 285.408 
L 366.021818 285.408 
L 382.254545 285.408 
L 398.487273 285.408 
" style="fill:none;stroke:#0e4db3;stroke-linecap:square;stroke-width:3;"/>
   </g>
   <g id="line2d_74">
    <path clip-path="url(#p1764bdbc49)" d="M 73.832727 285.408 
L 90.065455 285.408 
L 106.298182 285.408 
L 122.530909 285.408 
L 138.763636 285.408 
L 154.996364 285.408 
L 171.229091 285.408 
L 187.461818 285.408 
L 203.694545 285.408 
L 219.927273 285.408 
L 236.16 285.408 
L 252.392727 285.408 
L 268.625455 285.408 
L 284.858182 285.408 
L 301.090909 285.408 
L 317.323636 285.408 
L 333.556364 285.408 
L 349.789091 285.408 
L 366.021818 285.408 
L 382.254545 285.408 
L 398.487273 285.408 
" style="fill:none;stroke:#d44e4e;stroke-linecap:square;stroke-width:3;"/>
   </g>
   <g id="line2d_75">
    <path clip-path="url(#p1764bdbc49)" d="M 73.832727 285.408 
L 90.065455 285.408 
L 106.298182 285.408 
L 122.530909 285.408 
L 138.763636 285.408 
L 154.996364 285.408 
L 171.229091 285.408 
L 187.461818 285.408 
L 203.694545 285.408 
L 219.927273 285.408 
L 236.16 285.408 
L 252.392727 285.408 
L 268.625455 285.408 
L 284.858182 285.408 
L 301.090909 285.408 
L 317.323636 285.408 
L 333.556364 285.408 
L 349.789091 285.408 
L 366.021818 285.408 
L 382.254545 285.408 
L 398.487273 285.408 
" style="fill:none;stroke:#0e4db3;stroke-linecap:square;stroke-width:3;"/>
   </g>
   <g id="line2d_76">
    <path clip-path="url(#p1764bdbc49)" d="M 73.832727 285.408 
L 90.065455 285.408 
L 106.298182 285.408 
L 122.530909 285.408 
L 138.763636 285.408 
L 154.996364 285.408 
L 171.229091 285.408 
L 187.461818 285.408 
L 203.694545 285.408 
L 219.927273 285.408 
L 236.16 285.408 
L 252.392727 285.408 
L 268.625455 285.408 
L 284.858182 285.408 
L 301.090909 285.408 
L 317.323636 285.408 
L 333.556364 285.408 
L 349.789091 285.408 
L 366.021818 285.408 
L 382.254545 285.408 
L 398.487273 285.408 
" style="fill:none;stroke:#d44e4e;stroke-linecap:square;stroke-width:3;"/>
   </g>
   <g id="line2d_77">
    <path clip-path="url(#p1764bdbc49)" d="M 73.832727 239.233849 
L 90.065455 216.015045 
L 106.298182 250.737138 
L 122.530909 249.040264 
L 138.763636 235.203835 
L 154.996364 232.810156 
L 171.229091 219.379652 
L 187.461818 183.93083 
L 203.694545 160.280308 
L 219.927273 144.89634 
L 236.16 163.853686 
L 252.392727 117.924981 
L 268.625455 108.080518 
L 284.858182 139.471302 
L 301.090909 141.145684 
L 317.323636 189.832187 
L 333.556364 212.643053 
L 349.789091 193.765497 
L 366.021818 195.942443 
L 382.254545 202.906497 
L 398.487273 239.233849 
" style="fill:none;stroke:#0e4db3;stroke-linecap:square;stroke-width:3;"/>
   </g>
   <g id="line2d_78">
    <path clip-path="url(#p1764bdbc49)" d="M 73.832727 285.408 
L 90.065455 285.408 
L 106.298182 285.408 
L 122.530909 285.408 
L 138.763636 285.408 
L 154.996364 285.408 
L 171.229091 285.408 
L 187.461818 285.408 
L 203.694545 285.408 
L 219.927273 285.408 
L 236.16 285.408 
L 252.392727 285.408 
L 268.625455 285.408 
L 284.858182 285.408 
L 301.090909 285.408 
L 317.323636 285.408 
L 333.556364 285.408 
L 349.789091 285.408 
L 366.021818 285.408 
L 382.254545 285.408 
L 398.487273 285.408 
" style="fill:none;stroke:#d44e4e;stroke-linecap:square;stroke-width:3;"/>
   </g>
   <g id="line2d_79">
    <path clip-path="url(#p1764bdbc49)" d="M 73.832727 285.408 
L 90.065455 285.408 
L 106.298182 285.408 
L 122.530909 285.408 
L 138.763636 285.408 
L 154.996364 285.408 
L 171.229091 285.408 
L 187.461818 285.408 
L 203.694545 285.408 
L 219.927273 285.408 
L 236.16 285.408 
L 252.392727 285.408 
L 268.625455 285.408 
L 284.858182 285.408 
L 301.090909 285.408 
L 317.323636 285.408 
L 333.556364 285.408 
L 349.789091 285.408 
L 366.021818 285.408 
L 382.254545 285.408 
L 398.487273 285.408 
" style="fill:none;stroke:#0e4db3;stroke-linecap:square;stroke-width:3;"/>
   </g>
   <g id="line2d_80">
    <path clip-path="url(#p1764bdbc49)" d="M 73.832727 285.408 
L 90.065455 285.408 
L 106.298182 285.408 
L 122.530909 285.408 
L 138.763636 285.408 
L 154.996364 285.408 
L 171.229091 285.408 
L 187.461818 285.408 
L 203.694545 285.408 
L 219.927273 285.408 
L 236.16 285.408 
L 252.392727 285.408 
L 268.625455 285.408 
L 284.858182 285.408 
L 301.090909 285.408 
L 317.323636 285.408 
L 333.556364 285.408 
L 349.789091 285.408 
L 366.021818 285.408 
L 382.254545 285.408 
L 398.487273 285.408 
" style="fill:none;stroke:#d44e4e;stroke-linecap:square;stroke-width:3;"/>
   </g>
   <g id="line2d_81">
    <path clip-path="url(#p1764bdbc49)" d="M 73.832727 167.862743 
L 90.065455 150.500643 
L 106.298182 152.623005 
L 122.530909 168.582798 
L 138.763636 188.475317 
L 154.996364 195.887602 
L 171.229091 185.396844 
L 187.461818 200.262711 
L 203.694545 232.220626 
L 219.927273 250.915827 
L 236.16 255.619345 
L 252.392727 229.226595 
L 268.625455 240.199263 
L 284.858182 238.312318 
L 301.090909 190.84699 
L 317.323636 203.801798 
L 333.556364 195.461794 
L 349.789091 205.041509 
L 366.021818 190.699157 
L 382.254545 183.817569 
L 398.487273 167.862743 
" style="fill:none;stroke:#0e4db3;stroke-linecap:square;stroke-width:3;"/>
   </g>
   <g id="line2d_82">
    <path clip-path="url(#p1764bdbc49)" d="M 73.832727 285.408 
L 90.065455 266.303147 
L 106.298182 253.658993 
L 122.530909 266.531329 
L 138.763636 285.408 
L 154.996364 285.408 
L 171.229091 263.30036 
L 187.461818 280.728757 
L 203.694545 285.408 
L 219.927273 285.408 
L 236.16 285.408 
L 252.392727 285.408 
L 268.625455 285.408 
L 284.858182 285.408 
L 301.090909 284.281658 
L 317.323636 285.408 
L 333.556364 285.408 
L 349.789091 259.992043 
L 366.021818 249.387294 
L 382.254545 261.080196 
L 398.487273 285.408 
" style="fill:none;stroke:#d44e4e;stroke-linecap:square;stroke-width:3;"/>
   </g>
   <g id="line2d_83">
    <path clip-path="url(#p1764bdbc49)" d="M 73.832727 193.432757 
L 90.065455 198.831186 
L 106.298182 198.627283 
L 122.530909 196.001697 
L 138.763636 204.452907 
L 154.996364 232.430405 
L 171.229091 244.827604 
L 187.461818 253.612237 
L 203.694545 227.189553 
L 219.927273 167.588439 
L 236.16 141.157271 
L 252.392727 130.661145 
L 268.625455 145.132251 
L 284.858182 160.930477 
L 301.090909 155.98997 
L 317.323636 151.332905 
L 333.556364 167.585444 
L 349.789091 163.318287 
L 366.021818 185.208608 
L 382.254545 190.307155 
L 398.487273 193.432757 
" style="fill:none;stroke:#0e4db3;stroke-linecap:square;stroke-width:3;"/>
   </g>
   <g id="line2d_84">
    <path clip-path="url(#p1764bdbc49)" d="M 73.832727 213.641795 
L 90.065455 216.159989 
L 106.298182 213.952665 
L 122.530909 216.327841 
L 138.763636 217.11603 
L 154.996364 243.884218 
L 171.229091 257.767211 
L 187.461818 255.969613 
L 203.694545 237.268502 
L 219.927273 198.926725 
L 236.16 177.371714 
L 252.392727 168.980055 
L 268.625455 176.121501 
L 284.858182 189.893769 
L 301.090909 183.514714 
L 317.323636 177.762874 
L 333.556364 190.137832 
L 349.789091 187.474239 
L 366.021818 201.367405 
L 382.254545 189.781797 
L 398.487273 213.641795 
" style="fill:none;stroke:#d44e4e;stroke-linecap:square;stroke-width:3;"/>
   </g>
   <g id="line2d_85">
    <path clip-path="url(#p1764bdbc49)" d="M 73.832727 285.408 
L 90.065455 285.408 
L 106.298182 285.408 
L 122.530909 285.408 
L 138.763636 285.408 
L 154.996364 285.408 
L 171.229091 285.408 
L 187.461818 285.408 
L 203.694545 285.408 
L 219.927273 285.408 
L 236.16 285.408 
L 252.392727 285.408 
L 268.625455 285.408 
L 284.858182 285.408 
L 301.090909 285.408 
L 317.323636 285.408 
L 333.556364 285.408 
L 349.789091 285.408 
L 366.021818 285.408 
L 382.254545 285.408 
L 398.487273 285.408 
" style="fill:none;stroke:#0e4db3;stroke-linecap:square;stroke-width:3;"/>
   </g>
   <g id="line2d_86">
    <path clip-path="url(#p1764bdbc49)" d="M 73.832727 285.408 
L 90.065455 285.408 
L 106.298182 285.408 
L 122.530909 285.408 
L 138.763636 285.408 
L 154.996364 285.408 
L 171.229091 285.408 
L 187.461818 285.408 
L 203.694545 285.408 
L 219.927273 285.408 
L 236.16 285.408 
L 252.392727 285.408 
L 268.625455 285.408 
L 284.858182 285.408 
L 301.090909 285.408 
L 317.323636 285.408 
L 333.556364 285.408 
L 349.789091 285.408 
L 366.021818 285.408 
L 382.254545 285.408 
L 398.487273 285.408 
" style="fill:none;stroke:#d44e4e;stroke-linecap:square;stroke-width:3;"/>
   </g>
   <g id="line2d_87">
    <path clip-path="url(#p1764bdbc49)" d="M 73.832727 285.408 
L 90.065455 285.408 
L 106.298182 285.408 
L 122.530909 285.408 
L 138.763636 285.408 
L 154.996364 285.408 
L 171.229091 285.408 
L 187.461818 285.408 
L 203.694545 285.408 
L 219.927273 285.408 
L 236.16 285.408 
L 252.392727 285.408 
L 268.625455 285.408 
L 284.858182 285.408 
L 301.090909 285.408 
L 317.323636 285.408 
L 333.556364 285.408 
L 349.789091 285.408 
L 366.021818 285.408 
L 382.254545 285.408 
L 398.487273 285.408 
" style="fill:none;stroke:#0e4db3;stroke-linecap:square;stroke-width:3;"/>
   </g>
   <g id="line2d_88">
    <path clip-path="url(#p1764bdbc49)" d="M 73.832727 285.408 
L 90.065455 285.408 
L 106.298182 285.408 
L 122.530909 285.408 
L 138.763636 285.408 
L 154.996364 285.408 
L 171.229091 285.408 
L 187.461818 285.408 
L 203.694545 285.408 
L 219.927273 285.408 
L 236.16 285.408 
L 252.392727 285.408 
L 268.625455 285.408 
L 284.858182 285.408 
L 301.090909 285.408 
L 317.323636 285.408 
L 333.556364 285.408 
L 349.789091 285.408 
L 366.021818 285.408 
L 382.254545 285.408 
L 398.487273 285.408 
" style="fill:none;stroke:#d44e4e;stroke-linecap:square;stroke-width:3;"/>
   </g>
   <g id="line2d_89">
    <path clip-path="url(#p1764bdbc49)" d="M 73.832727 285.408 
L 90.065455 285.408 
L 106.298182 285.408 
L 122.530909 272.237688 
L 138.763636 260.808267 
L 154.996364 257.533615 
L 171.229091 267.909506 
L 187.461818 249.91368 
L 203.694545 214.64586 
L 219.927273 196.758576 
L 236.16 277.479075 
L 252.392727 151.476256 
L 268.625455 112.37649 
L 284.858182 118.871187 
L 301.090909 121.485755 
L 317.323636 170.672341 
L 333.556364 218.361406 
L 349.789091 269.833966 
L 366.021818 285.408 
L 382.254545 285.408 
L 398.487273 285.408 
" style="fill:none;stroke:#0e4db3;stroke-linecap:square;stroke-width:3;"/>
   </g>
   <g id="line2d_90">
    <path clip-path="url(#p1764bdbc49)" d="M 73.832727 285.408 
L 90.065455 285.408 
L 106.298182 285.408 
L 122.530909 285.408 
L 138.763636 285.408 
L 154.996364 285.408 
L 171.229091 285.408 
L 187.461818 285.408 
L 203.694545 276.648011 
L 219.927273 269.58967 
L 236.16 285.408 
L 252.392727 239.373822 
L 268.625455 231.026012 
L 284.858182 215.126023 
L 301.090909 222.423295 
L 317.323636 246.541839 
L 333.556364 263.685285 
L 349.789091 285.408 
L 366.021818 285.408 
L 382.254545 285.408 
L 398.487273 285.408 
" style="fill:none;stroke:#d44e4e;stroke-linecap:square;stroke-width:3;"/>
   </g>
   <g id="line2d_91">
    <path clip-path="url(#p1764bdbc49)" d="M 73.832727 152.370806 
L 90.065455 121.983435 
L 106.298182 107.734636 
L 122.530909 94.595688 
L 138.763636 80.634805 
L 154.996364 99.20366 
L 171.229091 117.505695 
L 187.461818 177.828302 
L 203.694545 184.848327 
L 219.927273 195.708754 
L 236.16 183.152135 
L 252.392727 172.425368 
L 268.625455 178.876243 
L 284.858182 159.711741 
L 301.090909 179.567816 
L 317.323636 189.1592 
L 333.556364 216.741682 
L 349.789091 207.274357 
L 366.021818 197.001372 
L 382.254545 174.868512 
L 398.487273 152.370806 
" style="fill:none;stroke:#0e4db3;stroke-linecap:square;stroke-width:3;"/>
   </g>
   <g id="line2d_92">
    <path clip-path="url(#p1764bdbc49)" d="M 73.832727 285.408 
L 90.065455 262.151921 
L 106.298182 265.940337 
L 122.530909 238.531394 
L 138.763636 274.925993 
L 154.996364 283.724782 
L 171.229091 283.751678 
L 187.461818 285.408 
L 203.694545 285.408 
L 219.927273 285.408 
L 236.16 285.408 
L 252.392727 285.408 
L 268.625455 285.408 
L 284.858182 285.408 
L 301.090909 285.408 
L 317.323636 285.408 
L 333.556364 285.408 
L 349.789091 285.408 
L 366.021818 285.408 
L 382.254545 285.408 
L 398.487273 285.408 
" style="fill:none;stroke:#d44e4e;stroke-linecap:square;stroke-width:3;"/>
   </g>
   <g id="line2d_93">
    <path clip-path="url(#p1764bdbc49)" d="M 73.832727 285.408 
L 90.065455 285.408 
L 106.298182 285.408 
L 122.530909 285.408 
L 138.763636 285.408 
L 154.996364 285.408 
L 171.229091 285.408 
L 187.461818 285.408 
L 203.694545 285.408 
L 219.927273 285.408 
L 236.16 285.408 
L 252.392727 285.408 
L 268.625455 285.408 
L 284.858182 285.408 
L 301.090909 285.408 
L 317.323636 285.408 
L 333.556364 285.408 
L 349.789091 285.408 
L 366.021818 285.408 
L 382.254545 285.408 
L 398.487273 285.408 
" style="fill:none;stroke:#0e4db3;stroke-linecap:square;stroke-width:3;"/>
   </g>
   <g id="line2d_94">
    <path clip-path="url(#p1764bdbc49)" d="M 73.832727 285.408 
L 90.065455 285.408 
L 106.298182 285.408 
L 122.530909 285.408 
L 138.763636 285.408 
L 154.996364 285.408 
L 171.229091 285.408 
L 187.461818 285.408 
L 203.694545 285.408 
L 219.927273 285.408 
L 236.16 285.408 
L 252.392727 285.408 
L 268.625455 285.408 
L 284.858182 285.408 
L 301.090909 285.408 
L 317.323636 285.408 
L 333.556364 285.408 
L 349.789091 285.408 
L 366.021818 285.408 
L 382.254545 285.408 
L 398.487273 285.408 
" style="fill:none;stroke:#d44e4e;stroke-linecap:square;stroke-width:3;"/>
   </g>
   <g id="line2d_95">
    <path clip-path="url(#p1764bdbc49)" d="M 73.832727 81.172053 
L 90.065455 114.452899 
L 106.298182 151.072046 
L 122.530909 198.71342 
L 138.763636 232.337948 
L 154.996364 259.929344 
L 171.229091 229.672353 
L 187.461818 193.934039 
L 203.694545 158.655557 
L 219.927273 108.272507 
L 236.16 99.599301 
L 252.392727 98.438887 
L 268.625455 117.351288 
L 284.858182 148.312944 
L 301.090909 115.304514 
L 317.323636 134.757227 
L 333.556364 105.825693 
L 349.789091 116.565677 
L 366.021818 96.058592 
L 382.254545 69.890346 
L 398.487273 81.172053 
" style="fill:none;stroke:#0e4db3;stroke-linecap:square;stroke-width:3;"/>
   </g>
   <g id="line2d_96">
    <path clip-path="url(#p1764bdbc49)" d="M 73.832727 219.964371 
L 90.065455 215.647059 
L 106.298182 241.366278 
L 122.530909 285.408 
L 138.763636 285.408 
L 154.996364 285.408 
L 171.229091 285.408 
L 187.461818 285.408 
L 203.694545 285.408 
L 219.927273 267.369212 
L 236.16 258.187653 
L 252.392727 227.470697 
L 268.625455 240.737422 
L 284.858182 251.61816 
L 301.090909 208.804517 
L 317.323636 205.468309 
L 333.556364 213.315091 
L 349.789091 188.639461 
L 366.021818 171.263529 
L 382.254545 170.129891 
L 398.487273 219.964371 
" style="fill:none;stroke:#d44e4e;stroke-linecap:square;stroke-width:3;"/>
   </g>
   <g id="line2d_97">
    <path clip-path="url(#p1764bdbc49)" d="M 73.832727 285.408 
L 90.065455 285.408 
L 106.298182 285.408 
L 122.530909 285.408 
L 138.763636 285.408 
L 154.996364 285.408 
L 171.229091 285.408 
L 187.461818 285.408 
L 203.694545 285.408 
L 219.927273 285.408 
L 236.16 285.408 
L 252.392727 285.408 
L 268.625455 285.408 
L 284.858182 285.408 
L 301.090909 285.408 
L 317.323636 285.408 
L 333.556364 285.408 
L 349.789091 285.408 
L 366.021818 285.408 
L 382.254545 285.408 
L 398.487273 285.408 
" style="fill:none;stroke:#0e4db3;stroke-linecap:square;stroke-width:3;"/>
   </g>
   <g id="line2d_98">
    <path clip-path="url(#p1764bdbc49)" d="M 73.832727 285.408 
L 90.065455 285.408 
L 106.298182 285.408 
L 122.530909 285.408 
L 138.763636 285.408 
L 154.996364 285.408 
L 171.229091 285.408 
L 187.461818 285.408 
L 203.694545 285.408 
L 219.927273 285.408 
L 236.16 285.408 
L 252.392727 285.408 
L 268.625455 285.408 
L 284.858182 285.408 
L 301.090909 285.408 
L 317.323636 285.408 
L 333.556364 285.408 
L 349.789091 285.408 
L 366.021818 285.408 
L 382.254545 285.408 
L 398.487273 285.408 
" style="fill:none;stroke:#d44e4e;stroke-linecap:square;stroke-width:3;"/>
   </g>
   <g id="line2d_99">
    <path clip-path="url(#p1764bdbc49)" d="M 73.832727 171.149221 
L 90.065455 153.429834 
L 106.298182 143.302702 
L 122.530909 141.901463 
L 138.763636 130.73138 
L 154.996364 133.7147 
L 171.229091 140.090372 
L 187.461818 159.274855 
L 203.694545 168.030186 
L 219.927273 182.856826 
L 236.16 188.006263 
L 252.392727 193.203375 
L 268.625455 201.318532 
L 284.858182 206.42382 
L 301.090909 197.333497 
L 317.323636 191.630333 
L 333.556364 172.934946 
L 349.789091 184.325577 
L 366.021818 169.477416 
L 382.254545 169.762147 
L 398.487273 171.149221 
" style="fill:none;stroke:#0e4db3;stroke-linecap:square;stroke-width:3;"/>
   </g>
   <g id="line2d_100">
    <path clip-path="url(#p1764bdbc49)" d="M 73.832727 216.295332 
L 90.065455 207.552112 
L 106.298182 206.721298 
L 122.530909 197.403338 
L 138.763636 197.850105 
L 154.996364 205.442891 
L 171.229091 197.740832 
L 187.461818 204.556727 
L 203.694545 216.379566 
L 219.927273 215.460598 
L 236.16 217.474901 
L 252.392727 217.61208 
L 268.625455 216.20658 
L 284.858182 224.545935 
L 301.090909 230.460114 
L 317.323636 223.583231 
L 333.556364 219.377096 
L 349.789091 196.374559 
L 366.021818 185.789634 
L 382.254545 198.277724 
L 398.487273 216.295332 
" style="fill:none;stroke:#d44e4e;stroke-linecap:square;stroke-width:3;"/>
   </g>
   <g id="line2d_101">
    <path clip-path="url(#p1764bdbc49)" d="M 73.832727 285.408 
L 90.065455 285.408 
L 106.298182 285.408 
L 122.530909 285.408 
L 138.763636 285.408 
L 154.996364 285.408 
L 171.229091 285.408 
L 187.461818 285.408 
L 203.694545 285.408 
L 219.927273 285.408 
L 236.16 285.408 
L 252.392727 285.408 
L 268.625455 285.408 
L 284.858182 285.408 
L 301.090909 285.408 
L 317.323636 285.408 
L 333.556364 285.408 
L 349.789091 285.408 
L 366.021818 285.408 
L 382.254545 285.408 
L 398.487273 285.408 
" style="fill:none;stroke:#0e4db3;stroke-linecap:square;stroke-width:3;"/>
   </g>
   <g id="line2d_102">
    <path clip-path="url(#p1764bdbc49)" d="M 73.832727 285.408 
L 90.065455 285.408 
L 106.298182 285.408 
L 122.530909 285.408 
L 138.763636 285.408 
L 154.996364 285.408 
L 171.229091 285.408 
L 187.461818 285.408 
L 203.694545 285.408 
L 219.927273 285.408 
L 236.16 285.408 
L 252.392727 285.408 
L 268.625455 285.408 
L 284.858182 285.408 
L 301.090909 285.408 
L 317.323636 285.408 
L 333.556364 285.408 
L 349.789091 285.408 
L 366.021818 285.408 
L 382.254545 285.408 
L 398.487273 285.408 
" style="fill:none;stroke:#d44e4e;stroke-linecap:square;stroke-width:3;"/>
   </g>
   <g id="line2d_103">
    <path clip-path="url(#p1764bdbc49)" d="M 73.832727 180.81015 
L 90.065455 162.492273 
L 106.298182 159.456175 
L 122.530909 191.561683 
L 138.763636 200.950849 
L 154.996364 204.415962 
L 171.229091 186.26847 
L 187.461818 185.065485 
L 203.694545 193.44966 
L 219.927273 210.262197 
L 236.16 195.495539 
L 252.392727 188.235053 
L 268.625455 155.060796 
L 284.858182 155.530691 
L 301.090909 140.239714 
L 317.323636 142.259493 
L 333.556364 147.124669 
L 349.789091 171.1111 
L 366.021818 170.699193 
L 382.254545 176.596083 
L 398.487273 180.81015 
" style="fill:none;stroke:#0e4db3;stroke-linecap:square;stroke-width:3;"/>
   </g>
   <g id="line2d_104">
    <path clip-path="url(#p1764bdbc49)" d="M 73.832727 236.108687 
L 90.065455 217.16934 
L 106.298182 210.023738 
L 122.530909 231.922018 
L 138.763636 245.052363 
L 154.996364 241.911652 
L 171.229091 225.668994 
L 187.461818 219.330331 
L 203.694545 219.914868 
L 219.927273 233.8643 
L 236.16 231.526604 
L 252.392727 231.769188 
L 268.625455 215.488193 
L 284.858182 214.876023 
L 301.090909 207.995489 
L 317.323636 209.00415 
L 333.556364 213.747678 
L 349.789091 209.032465 
L 366.021818 196.63074 
L 382.254545 216.800831 
L 398.487273 236.108687 
" style="fill:none;stroke:#d44e4e;stroke-linecap:square;stroke-width:3;"/>
   </g>
   <g id="line2d_105">
    <path clip-path="url(#p1764bdbc49)" d="M 73.832727 215.122611 
L 90.065455 205.554006 
L 106.298182 168.379897 
L 122.530909 165.863257 
L 138.763636 156.273761 
L 154.996364 174.115585 
L 171.229091 223.160988 
L 187.461818 240.03808 
L 203.694545 251.134714 
L 219.927273 246.673323 
L 236.16 218.524337 
L 252.392727 236.072383 
L 268.625455 209.614492 
L 284.858182 190.119981 
L 301.090909 175.335094 
L 317.323636 196.520284 
L 333.556364 210.901052 
L 349.789091 238.749739 
L 366.021818 225.368631 
L 382.254545 226.697489 
L 398.487273 215.122611 
" style="fill:none;stroke:#0e4db3;stroke-linecap:square;stroke-width:3;"/>
   </g>
   <g id="line2d_106">
    <path clip-path="url(#p1764bdbc49)" d="M 73.832727 285.408 
L 90.065455 255.475591 
L 106.298182 247.97925 
L 122.530909 238.589925 
L 138.763636 256.362748 
L 154.996364 274.326593 
L 171.229091 285.408 
L 187.461818 285.408 
L 203.694545 285.408 
L 219.927273 285.408 
L 236.16 285.408 
L 252.392727 285.408 
L 268.625455 285.408 
L 284.858182 276.536198 
L 301.090909 257.945549 
L 317.323636 274.700145 
L 333.556364 282.352232 
L 349.789091 251.005892 
L 366.021818 285.408 
L 382.254545 255.66242 
L 398.487273 285.408 
" style="fill:none;stroke:#d44e4e;stroke-linecap:square;stroke-width:3;"/>
   </g>
   <g id="line2d_107">
    <path clip-path="url(#p1764bdbc49)" d="M 73.832727 285.408 
L 90.065455 285.408 
L 106.298182 285.408 
L 122.530909 285.408 
L 138.763636 285.408 
L 154.996364 285.408 
L 171.229091 285.408 
L 187.461818 285.408 
L 203.694545 285.408 
L 219.927273 285.408 
L 236.16 285.408 
L 252.392727 285.408 
L 268.625455 285.408 
L 284.858182 285.408 
L 301.090909 285.408 
L 317.323636 285.408 
L 333.556364 285.408 
L 349.789091 285.408 
L 366.021818 285.408 
L 382.254545 285.408 
L 398.487273 285.408 
" style="fill:none;stroke:#0e4db3;stroke-linecap:square;stroke-width:3;"/>
   </g>
   <g id="line2d_108">
    <path clip-path="url(#p1764bdbc49)" d="M 73.832727 285.408 
L 90.065455 285.408 
L 106.298182 285.408 
L 122.530909 285.408 
L 138.763636 285.408 
L 154.996364 285.408 
L 171.229091 285.408 
L 187.461818 285.408 
L 203.694545 285.408 
L 219.927273 285.408 
L 236.16 285.408 
L 252.392727 285.408 
L 268.625455 285.408 
L 284.858182 285.408 
L 301.090909 285.408 
L 317.323636 285.408 
L 333.556364 285.408 
L 349.789091 285.408 
L 366.021818 285.408 
L 382.254545 285.408 
L 398.487273 285.408 
" style="fill:none;stroke:#d44e4e;stroke-linecap:square;stroke-width:3;"/>
   </g>
   <g id="line2d_109">
    <path clip-path="url(#p1764bdbc49)" d="M 73.832727 285.408 
L 90.065455 285.408 
L 106.298182 285.408 
L 122.530909 285.408 
L 138.763636 285.408 
L 154.996364 285.408 
L 171.229091 285.408 
L 187.461818 285.408 
L 203.694545 285.408 
L 219.927273 285.408 
L 236.16 285.408 
L 252.392727 285.408 
L 268.625455 285.408 
L 284.858182 285.408 
L 301.090909 285.408 
L 317.323636 285.408 
L 333.556364 285.408 
L 349.789091 285.408 
L 366.021818 285.408 
L 382.254545 285.408 
L 398.487273 285.408 
" style="fill:none;stroke:#0e4db3;stroke-linecap:square;stroke-width:3;"/>
   </g>
   <g id="line2d_110">
    <path clip-path="url(#p1764bdbc49)" d="M 73.832727 285.408 
L 90.065455 285.408 
L 106.298182 285.408 
L 122.530909 285.408 
L 138.763636 285.408 
L 154.996364 285.408 
L 171.229091 285.408 
L 187.461818 285.408 
L 203.694545 285.408 
L 219.927273 285.408 
L 236.16 285.408 
L 252.392727 285.408 
L 268.625455 285.408 
L 284.858182 285.408 
L 301.090909 285.408 
L 317.323636 285.408 
L 333.556364 285.408 
L 349.789091 285.408 
L 366.021818 285.408 
L 382.254545 285.408 
L 398.487273 285.408 
" style="fill:none;stroke:#d44e4e;stroke-linecap:square;stroke-width:3;"/>
   </g>
   <g id="line2d_111">
    <path clip-path="url(#p1764bdbc49)" d="M 73.832727 221.395654 
L 90.065455 241.070351 
L 106.298182 242.416388 
L 122.530909 256.693764 
L 138.763636 260.488328 
L 154.996364 258.066934 
L 171.229091 251.534405 
L 187.461818 252.200555 
L 203.694545 238.09041 
L 219.927273 233.689066 
L 236.16 226.132933 
L 252.392727 230.12257 
L 268.625455 225.57962 
L 284.858182 227.988238 
L 301.090909 233.585276 
L 317.323636 244.700897 
L 333.556364 238.863827 
L 349.789091 232.624605 
L 366.021818 216.363156 
L 382.254545 211.950593 
L 398.487273 221.395654 
" style="fill:none;stroke:#0e4db3;stroke-linecap:square;stroke-width:3;"/>
   </g>
   <g id="line2d_112">
    <path clip-path="url(#p1764bdbc49)" d="M 73.832727 171.241356 
L 90.065455 187.129033 
L 106.298182 194.216131 
L 122.530909 204.183486 
L 138.763636 198.267707 
L 154.996364 199.79202 
L 171.229091 203.997556 
L 187.461818 204.184662 
L 203.694545 183.580142 
L 219.927273 176.826018 
L 236.16 176.370857 
L 252.392727 178.365323 
L 268.625455 181.442013 
L 284.858182 186.692769 
L 301.090909 184.3496 
L 317.323636 184.300871 
L 333.556364 184.529798 
L 349.789091 183.469216 
L 366.021818 171.2527 
L 382.254545 170.79791 
L 398.487273 171.241356 
" style="fill:none;stroke:#d44e4e;stroke-linecap:square;stroke-width:3;"/>
   </g>
   <g id="line2d_113">
    <path clip-path="url(#p1764bdbc49)" d="M 73.832727 213.309442 
L 90.065455 229.260135 
L 106.298182 252.244757 
L 122.530909 245.799009 
L 138.763636 234.428253 
L 154.996364 254.997679 
L 171.229091 265.364938 
L 187.461818 285.408 
L 203.694545 279.17024 
L 219.927273 260.525604 
L 236.16 245.750814 
L 252.392727 218.302075 
L 268.625455 108.454957 
L 284.858182 52.979494 
L 301.090909 14.292144 
L 317.323636 44.928802 
L 333.556364 69.140679 
L 349.789091 127.888151 
L 366.021818 169.675396 
L 382.254545 191.313041 
L 398.487273 213.309442 
" style="fill:none;stroke:#0e4db3;stroke-linecap:square;stroke-width:3;"/>
   </g>
   <g id="line2d_114">
    <path clip-path="url(#p1764bdbc49)" d="M 73.832727 285.408 
L 90.065455 285.408 
L 106.298182 285.408 
L 122.530909 285.408 
L 138.763636 285.408 
L 154.996364 285.408 
L 171.229091 285.408 
L 187.461818 285.408 
L 203.694545 285.408 
L 219.927273 285.408 
L 236.16 285.408 
L 252.392727 285.408 
L 268.625455 269.913683 
L 284.858182 244.311686 
L 301.090909 221.846261 
L 317.323636 198.641896 
L 333.556364 244.366706 
L 349.789091 230.645506 
L 366.021818 262.610783 
L 382.254545 275.832389 
L 398.487273 285.408 
" style="fill:none;stroke:#d44e4e;stroke-linecap:square;stroke-width:3;"/>
   </g>
   <g id="line2d_115">
    <path clip-path="url(#p1764bdbc49)" d="M 73.832727 279.139117 
L 90.065455 273.375486 
L 106.298182 272.142891 
L 122.530909 269.185016 
L 138.763636 248.967644 
L 154.996364 241.926876 
L 171.229091 207.957627 
L 187.461818 186.085331 
L 203.694545 156.596134 
L 219.927273 127.854269 
L 236.16 101.923254 
L 252.392727 105.728811 
L 268.625455 60.404943 
L 284.858182 94.025968 
L 301.090909 131.161403 
L 317.323636 174.385005 
L 333.556364 201.501163 
L 349.789091 244.73625 
L 366.021818 253.870105 
L 382.254545 263.980277 
L 398.487273 279.139117 
" style="fill:none;stroke:#0e4db3;stroke-linecap:square;stroke-width:3;"/>
   </g>
   <g id="line2d_116">
    <path clip-path="url(#p1764bdbc49)" d="M 73.832727 285.408 
L 90.065455 285.408 
L 106.298182 285.408 
L 122.530909 285.408 
L 138.763636 285.408 
L 154.996364 285.408 
L 171.229091 285.408 
L 187.461818 285.408 
L 203.694545 285.408 
L 219.927273 285.408 
L 236.16 285.408 
L 252.392727 285.408 
L 268.625455 285.408 
L 284.858182 285.408 
L 301.090909 285.408 
L 317.323636 285.408 
L 333.556364 285.408 
L 349.789091 285.408 
L 366.021818 285.408 
L 382.254545 285.408 
L 398.487273 285.408 
" style="fill:none;stroke:#d44e4e;stroke-linecap:square;stroke-width:3;"/>
   </g>
   <g id="line2d_117">
    <path clip-path="url(#p1764bdbc49)" d="M 73.832727 285.408 
L 90.065455 235.396587 
L 106.298182 210.535136 
L 122.530909 176.564021 
L 138.763636 121.810601 
L 154.996364 109.491311 
L 171.229091 144.942233 
L 187.461818 187.389938 
L 203.694545 198.71932 
L 219.927273 223.023772 
L 236.16 245.428759 
L 252.392727 256.287836 
L 268.625455 285.408 
L 284.858182 285.408 
L 301.090909 261.678297 
L 317.323636 274.014375 
L 333.556364 282.406486 
L 349.789091 285.408 
L 366.021818 285.408 
L 382.254545 285.408 
L 398.487273 285.408 
" style="fill:none;stroke:#0e4db3;stroke-linecap:square;stroke-width:3;"/>
   </g>
   <g id="line2d_118">
    <path clip-path="url(#p1764bdbc49)" d="M 73.832727 285.408 
L 90.065455 285.408 
L 106.298182 285.408 
L 122.530909 241.609374 
L 138.763636 244.026246 
L 154.996364 238.609353 
L 171.229091 251.823223 
L 187.461818 279.00039 
L 203.694545 285.408 
L 219.927273 285.408 
L 236.16 285.408 
L 252.392727 285.408 
L 268.625455 285.408 
L 284.858182 285.408 
L 301.090909 285.408 
L 317.323636 285.408 
L 333.556364 285.408 
L 349.789091 285.408 
L 366.021818 285.408 
L 382.254545 285.408 
L 398.487273 285.408 
" style="fill:none;stroke:#d44e4e;stroke-linecap:square;stroke-width:3;"/>
   </g>
   <g id="line2d_119">
    <path clip-path="url(#p1764bdbc49)" d="M 73.832727 285.408 
L 90.065455 285.408 
L 106.298182 285.408 
L 122.530909 285.408 
L 138.763636 285.408 
L 154.996364 285.408 
L 171.229091 285.408 
L 187.461818 285.408 
L 203.694545 285.408 
L 219.927273 285.408 
L 236.16 285.408 
L 252.392727 285.408 
L 268.625455 285.408 
L 284.858182 285.408 
L 301.090909 285.408 
L 317.323636 285.408 
L 333.556364 285.408 
L 349.789091 285.408 
L 366.021818 285.408 
L 382.254545 285.408 
L 398.487273 285.408 
" style="fill:none;stroke:#0e4db3;stroke-linecap:square;stroke-width:3;"/>
   </g>
   <g id="line2d_120">
    <path clip-path="url(#p1764bdbc49)" d="M 73.832727 285.408 
L 90.065455 285.408 
L 106.298182 285.408 
L 122.530909 285.408 
L 138.763636 285.408 
L 154.996364 285.408 
L 171.229091 285.408 
L 187.461818 285.408 
L 203.694545 285.408 
L 219.927273 285.408 
L 236.16 285.408 
L 252.392727 285.408 
L 268.625455 285.408 
L 284.858182 285.408 
L 301.090909 285.408 
L 317.323636 285.408 
L 333.556364 285.408 
L 349.789091 285.408 
L 366.021818 285.408 
L 382.254545 285.408 
L 398.487273 285.408 
" style="fill:none;stroke:#d44e4e;stroke-linecap:square;stroke-width:3;"/>
   </g>
   <g id="line2d_121">
    <path clip-path="url(#p1764bdbc49)" d="M 73.832727 285.408 
L 90.065455 285.408 
L 106.298182 282.058623 
L 122.530909 278.171343 
L 138.763636 221.821988 
L 154.996364 195.794602 
L 171.229091 143.747801 
L 187.461818 130.449622 
L 203.694545 110.920911 
L 219.927273 114.90781 
L 236.16 117.188312 
L 252.392727 124.935103 
L 268.625455 110.458644 
L 284.858182 125.375166 
L 301.090909 172.265873 
L 317.323636 229.169047 
L 333.556364 257.90991 
L 349.789091 285.408 
L 366.021818 285.408 
L 382.254545 285.408 
L 398.487273 285.408 
" style="fill:none;stroke:#0e4db3;stroke-linecap:square;stroke-width:3;"/>
   </g>
   <g id="line2d_122">
    <path clip-path="url(#p1764bdbc49)" d="M 73.832727 285.408 
L 90.065455 285.408 
L 106.298182 285.408 
L 122.530909 285.408 
L 138.763636 285.408 
L 154.996364 264.441545 
L 171.229091 228.165482 
L 187.461818 176.527971 
L 203.694545 186.477165 
L 219.927273 185.098638 
L 236.16 183.326494 
L 252.392727 210.324917 
L 268.625455 205.357838 
L 284.858182 194.163754 
L 301.090909 253.460486 
L 317.323636 285.408 
L 333.556364 285.408 
L 349.789091 285.408 
L 366.021818 285.408 
L 382.254545 285.408 
L 398.487273 285.408 
" style="fill:none;stroke:#d44e4e;stroke-linecap:square;stroke-width:3;"/>
   </g>
   <g id="line2d_123">
    <path clip-path="url(#p1764bdbc49)" d="M 73.832727 285.408 
L 90.065455 285.408 
L 106.298182 285.408 
L 122.530909 285.408 
L 138.763636 285.408 
L 154.996364 285.408 
L 171.229091 285.408 
L 187.461818 285.408 
L 203.694545 285.408 
L 219.927273 285.408 
L 236.16 285.408 
L 252.392727 285.408 
L 268.625455 285.408 
L 284.858182 285.408 
L 301.090909 285.408 
L 317.323636 285.408 
L 333.556364 285.408 
L 349.789091 285.408 
L 366.021818 285.408 
L 382.254545 285.408 
L 398.487273 285.408 
" style="fill:none;stroke:#0e4db3;stroke-linecap:square;stroke-width:3;"/>
   </g>
   <g id="line2d_124">
    <path clip-path="url(#p1764bdbc49)" d="M 73.832727 285.408 
L 90.065455 285.408 
L 106.298182 285.408 
L 122.530909 285.408 
L 138.763636 285.408 
L 154.996364 285.408 
L 171.229091 285.408 
L 187.461818 285.408 
L 203.694545 285.408 
L 219.927273 285.408 
L 236.16 285.408 
L 252.392727 285.408 
L 268.625455 285.408 
L 284.858182 285.408 
L 301.090909 285.408 
L 317.323636 285.408 
L 333.556364 285.408 
L 349.789091 285.408 
L 366.021818 285.408 
L 382.254545 285.408 
L 398.487273 285.408 
" style="fill:none;stroke:#d44e4e;stroke-linecap:square;stroke-width:3;"/>
   </g>
   <g id="line2d_125">
    <path clip-path="url(#p1764bdbc49)" d="M 73.832727 285.408 
L 90.065455 278.762782 
L 106.298182 274.482917 
L 122.530909 245.360401 
L 138.763636 196.681759 
L 154.996364 183.350684 
L 171.229091 184.258292 
L 187.461818 192.830445 
L 203.694545 214.504814 
L 219.927273 274.143406 
L 236.16 285.408 
L 252.392727 285.408 
L 268.625455 285.408 
L 284.858182 285.408 
L 301.090909 285.408 
L 317.323636 285.408 
L 333.556364 285.408 
L 349.789091 285.408 
L 366.021818 285.408 
L 382.254545 285.408 
L 398.487273 285.408 
" style="fill:none;stroke:#0e4db3;stroke-linecap:square;stroke-width:3;"/>
   </g>
   <g id="line2d_126">
    <path clip-path="url(#p1764bdbc49)" d="M 73.832727 285.408 
L 90.065455 281.746637 
L 106.298182 279.062724 
L 122.530909 258.431665 
L 138.763636 235.185355 
L 154.996364 231.274237 
L 171.229091 234.82317 
L 187.461818 241.671415 
L 203.694545 249.98407 
L 219.927273 270.402987 
L 236.16 274.639988 
L 252.392727 278.019591 
L 268.625455 273.508694 
L 284.858182 281.744369 
L 301.090909 279.601424 
L 317.323636 285.062791 
L 333.556364 281.6586 
L 349.789091 282.292015 
L 366.021818 283.029607 
L 382.254545 282.011967 
L 398.487273 285.408 
" style="fill:none;stroke:#d44e4e;stroke-linecap:square;stroke-width:3;"/>
   </g>
   <g id="line2d_127">
    <path clip-path="url(#p1764bdbc49)" d="M 73.832727 215.744753 
L 90.065455 228.676845 
L 106.298182 252.288007 
L 122.530909 252.44089 
L 138.763636 227.75337 
L 154.996364 193.635249 
L 171.229091 181.800672 
L 187.461818 167.302768 
L 203.694545 172.009897 
L 219.927273 176.872814 
L 236.16 183.118299 
L 252.392727 169.176602 
L 268.625455 178.903815 
L 284.858182 142.74416 
L 301.090909 84.863651 
L 317.323636 92.521174 
L 333.556364 63.648 
L 349.789091 131.845734 
L 366.021818 163.253808 
L 382.254545 190.28571 
L 398.487273 215.744753 
" style="fill:none;stroke:#0e4db3;stroke-linecap:square;stroke-width:3;"/>
   </g>
   <g id="line2d_128">
    <path clip-path="url(#p1764bdbc49)" d="M 73.832727 285.408 
L 90.065455 285.408 
L 106.298182 285.408 
L 122.530909 285.408 
L 138.763636 285.408 
L 154.996364 285.408 
L 171.229091 282.807133 
L 187.461818 277.640203 
L 203.694545 285.316445 
L 219.927273 285.408 
L 236.16 285.408 
L 252.392727 282.991227 
L 268.625455 285.408 
L 284.858182 285.408 
L 301.090909 269.630545 
L 317.323636 227.175756 
L 333.556364 255.43912 
L 349.789091 251.963564 
L 366.021818 285.408 
L 382.254545 285.408 
L 398.487273 285.408 
" style="fill:none;stroke:#d44e4e;stroke-linecap:square;stroke-width:3;"/>
   </g>
   <g id="patch_3">
    <path d="M 57.6 307.584 
L 57.6 41.472 
" style="fill:none;stroke:#000000;stroke-linecap:square;stroke-linejoin:miter;stroke-width:2.5;"/>
   </g>
   <g id="patch_4">
    <path d="M 414.72 307.584 
L 414.72 41.472 
" style="fill:none;stroke:#000000;stroke-linecap:square;stroke-linejoin:miter;stroke-width:2.5;"/>
   </g>
   <g id="patch_5">
    <path d="M 57.6 307.584 
L 414.72 307.584 
" style="fill:none;stroke:#000000;stroke-linecap:square;stroke-linejoin:miter;stroke-width:2.5;"/>
   </g>
   <g id="patch_6">
    <path d="M 57.6 41.472 
L 414.72 41.472 
" style="fill:none;stroke:#000000;stroke-linecap:square;stroke-linejoin:miter;stroke-width:2.5;"/>
   </g>
  </g>
 </g>
 <defs>
  <clipPath id="p1764bdbc49">
   <rect height="266.112" width="357.12" x="57.6" y="41.472"/>
  </clipPath>
 </defs>
</svg>
