<?xml version="1.0" encoding="utf-8" standalone="no"?>
<!DOCTYPE svg PUBLIC "-//W3C//DTD SVG 1.1//EN"
  "http://www.w3.org/Graphics/SVG/1.1/DTD/svg11.dtd">
<!-- Created with matplotlib (https://matplotlib.org/) -->
<svg height="345.6pt" version="1.1" viewBox="0 0 460.8 345.6" width="460.8pt" xmlns="http://www.w3.org/2000/svg" xmlns:xlink="http://www.w3.org/1999/xlink">
 <defs>
  <style type="text/css">
*{stroke-linecap:butt;stroke-linejoin:round;}
  </style>
 </defs>
 <g id="figure_1">
  <g id="patch_1">
   <path d="M 0 345.6 
L 460.8 345.6 
L 460.8 0 
L 0 0 
z
" style="fill:#ffffff;"/>
  </g>
  <g id="axes_1">
   <g id="patch_2">
    <path d="M 57.6 307.584 
L 414.72 307.584 
L 414.72 41.472 
L 57.6 41.472 
z
" style="fill:#ffffff;"/>
   </g>
   <g id="matplotlib.axis_1">
    <g id="xtick_1">
     <g id="line2d_1">
      <defs>
       <path d="M 0 0 
L 0 12 
" id="m5a3c82eca2" style="stroke:#000000;stroke-width:2.5;"/>
      </defs>
      <g>
       <use style="stroke:#000000;stroke-width:2.5;" x="73.832727" xlink:href="#m5a3c82eca2" y="307.584"/>
      </g>
     </g>
     <g id="text_1">
      <!-- 0 -->
      <defs>
       <path d="M 31.78125 66.40625 
Q 24.171875 66.40625 20.328125 58.90625 
Q 16.5 51.421875 16.5 36.375 
Q 16.5 21.390625 20.328125 13.890625 
Q 24.171875 6.390625 31.78125 6.390625 
Q 39.453125 6.390625 43.28125 13.890625 
Q 47.125 21.390625 47.125 36.375 
Q 47.125 51.421875 43.28125 58.90625 
Q 39.453125 66.40625 31.78125 66.40625 
z
M 31.78125 74.21875 
Q 44.046875 74.21875 50.515625 64.515625 
Q 56.984375 54.828125 56.984375 36.375 
Q 56.984375 17.96875 50.515625 8.265625 
Q 44.046875 -1.421875 31.78125 -1.421875 
Q 19.53125 -1.421875 13.0625 8.265625 
Q 6.59375 17.96875 6.59375 36.375 
Q 6.59375 54.828125 13.0625 64.515625 
Q 19.53125 74.21875 31.78125 74.21875 
z
" id="DejaVuSans-48"/>
      </defs>
      <g transform="translate(66.833977 339.800562)scale(0.22 -0.22)">
       <use xlink:href="#DejaVuSans-48"/>
      </g>
     </g>
    </g>
    <g id="xtick_2">
     <g id="line2d_2">
      <g>
       <use style="stroke:#000000;stroke-width:2.5;" x="164.014545" xlink:href="#m5a3c82eca2" y="307.584"/>
      </g>
     </g>
     <g id="text_2">
      <!-- 50 -->
      <defs>
       <path d="M 10.796875 72.90625 
L 49.515625 72.90625 
L 49.515625 64.59375 
L 19.828125 64.59375 
L 19.828125 46.734375 
Q 21.96875 47.46875 24.109375 47.828125 
Q 26.265625 48.1875 28.421875 48.1875 
Q 40.625 48.1875 47.75 41.5 
Q 54.890625 34.8125 54.890625 23.390625 
Q 54.890625 11.625 47.5625 5.09375 
Q 40.234375 -1.421875 26.90625 -1.421875 
Q 22.3125 -1.421875 17.546875 -0.640625 
Q 12.796875 0.140625 7.71875 1.703125 
L 7.71875 11.625 
Q 12.109375 9.234375 16.796875 8.0625 
Q 21.484375 6.890625 26.703125 6.890625 
Q 35.15625 6.890625 40.078125 11.328125 
Q 45.015625 15.765625 45.015625 23.390625 
Q 45.015625 31 40.078125 35.4375 
Q 35.15625 39.890625 26.703125 39.890625 
Q 22.75 39.890625 18.8125 39.015625 
Q 14.890625 38.140625 10.796875 36.28125 
z
" id="DejaVuSans-53"/>
      </defs>
      <g transform="translate(150.017045 339.800562)scale(0.22 -0.22)">
       <use xlink:href="#DejaVuSans-53"/>
       <use x="63.623047" xlink:href="#DejaVuSans-48"/>
      </g>
     </g>
    </g>
    <g id="xtick_3">
     <g id="line2d_3">
      <g>
       <use style="stroke:#000000;stroke-width:2.5;" x="254.196364" xlink:href="#m5a3c82eca2" y="307.584"/>
      </g>
     </g>
     <g id="text_3">
      <!-- 100 -->
      <defs>
       <path d="M 12.40625 8.296875 
L 28.515625 8.296875 
L 28.515625 63.921875 
L 10.984375 60.40625 
L 10.984375 69.390625 
L 28.421875 72.90625 
L 38.28125 72.90625 
L 38.28125 8.296875 
L 54.390625 8.296875 
L 54.390625 0 
L 12.40625 0 
z
" id="DejaVuSans-49"/>
      </defs>
      <g transform="translate(233.200114 339.800562)scale(0.22 -0.22)">
       <use xlink:href="#DejaVuSans-49"/>
       <use x="63.623047" xlink:href="#DejaVuSans-48"/>
       <use x="127.246094" xlink:href="#DejaVuSans-48"/>
      </g>
     </g>
    </g>
    <g id="xtick_4">
     <g id="line2d_4">
      <g>
       <use style="stroke:#000000;stroke-width:2.5;" x="344.378182" xlink:href="#m5a3c82eca2" y="307.584"/>
      </g>
     </g>
     <g id="text_4">
      <!-- 150 -->
      <g transform="translate(323.381932 339.800562)scale(0.22 -0.22)">
       <use xlink:href="#DejaVuSans-49"/>
       <use x="63.623047" xlink:href="#DejaVuSans-53"/>
       <use x="127.246094" xlink:href="#DejaVuSans-48"/>
      </g>
     </g>
    </g>
    <g id="text_5">
     <!-- Degrees -->
     <defs>
      <path d="M 19.671875 64.796875 
L 19.671875 8.109375 
L 31.59375 8.109375 
Q 46.6875 8.109375 53.6875 14.9375 
Q 60.6875 21.78125 60.6875 36.53125 
Q 60.6875 51.171875 53.6875 57.984375 
Q 46.6875 64.796875 31.59375 64.796875 
z
M 9.8125 72.90625 
L 30.078125 72.90625 
Q 51.265625 72.90625 61.171875 64.09375 
Q 71.09375 55.28125 71.09375 36.53125 
Q 71.09375 17.671875 61.125 8.828125 
Q 51.171875 0 30.078125 0 
L 9.8125 0 
z
" id="DejaVuSans-68"/>
      <path d="M 56.203125 29.59375 
L 56.203125 25.203125 
L 14.890625 25.203125 
Q 15.484375 15.921875 20.484375 11.0625 
Q 25.484375 6.203125 34.421875 6.203125 
Q 39.59375 6.203125 44.453125 7.46875 
Q 49.3125 8.734375 54.109375 11.28125 
L 54.109375 2.78125 
Q 49.265625 0.734375 44.1875 -0.34375 
Q 39.109375 -1.421875 33.890625 -1.421875 
Q 20.796875 -1.421875 13.15625 6.1875 
Q 5.515625 13.8125 5.515625 26.8125 
Q 5.515625 40.234375 12.765625 48.109375 
Q 20.015625 56 32.328125 56 
Q 43.359375 56 49.78125 48.890625 
Q 56.203125 41.796875 56.203125 29.59375 
z
M 47.21875 32.234375 
Q 47.125 39.59375 43.09375 43.984375 
Q 39.0625 48.390625 32.421875 48.390625 
Q 24.90625 48.390625 20.390625 44.140625 
Q 15.875 39.890625 15.1875 32.171875 
z
" id="DejaVuSans-101"/>
      <path d="M 45.40625 27.984375 
Q 45.40625 37.75 41.375 43.109375 
Q 37.359375 48.484375 30.078125 48.484375 
Q 22.859375 48.484375 18.828125 43.109375 
Q 14.796875 37.75 14.796875 27.984375 
Q 14.796875 18.265625 18.828125 12.890625 
Q 22.859375 7.515625 30.078125 7.515625 
Q 37.359375 7.515625 41.375 12.890625 
Q 45.40625 18.265625 45.40625 27.984375 
z
M 54.390625 6.78125 
Q 54.390625 -7.171875 48.1875 -13.984375 
Q 42 -20.796875 29.203125 -20.796875 
Q 24.46875 -20.796875 20.265625 -20.09375 
Q 16.0625 -19.390625 12.109375 -17.921875 
L 12.109375 -9.1875 
Q 16.0625 -11.328125 19.921875 -12.34375 
Q 23.78125 -13.375 27.78125 -13.375 
Q 36.625 -13.375 41.015625 -8.765625 
Q 45.40625 -4.15625 45.40625 5.171875 
L 45.40625 9.625 
Q 42.625 4.78125 38.28125 2.390625 
Q 33.9375 0 27.875 0 
Q 17.828125 0 11.671875 7.65625 
Q 5.515625 15.328125 5.515625 27.984375 
Q 5.515625 40.671875 11.671875 48.328125 
Q 17.828125 56 27.875 56 
Q 33.9375 56 38.28125 53.609375 
Q 42.625 51.21875 45.40625 46.390625 
L 45.40625 54.6875 
L 54.390625 54.6875 
z
" id="DejaVuSans-103"/>
      <path d="M 41.109375 46.296875 
Q 39.59375 47.171875 37.8125 47.578125 
Q 36.03125 48 33.890625 48 
Q 26.265625 48 22.1875 43.046875 
Q 18.109375 38.09375 18.109375 28.8125 
L 18.109375 0 
L 9.078125 0 
L 9.078125 54.6875 
L 18.109375 54.6875 
L 18.109375 46.1875 
Q 20.953125 51.171875 25.484375 53.578125 
Q 30.03125 56 36.53125 56 
Q 37.453125 56 38.578125 55.875 
Q 39.703125 55.765625 41.0625 55.515625 
z
" id="DejaVuSans-114"/>
      <path d="M 44.28125 53.078125 
L 44.28125 44.578125 
Q 40.484375 46.53125 36.375 47.5 
Q 32.28125 48.484375 27.875 48.484375 
Q 21.1875 48.484375 17.84375 46.4375 
Q 14.5 44.390625 14.5 40.28125 
Q 14.5 37.15625 16.890625 35.375 
Q 19.28125 33.59375 26.515625 31.984375 
L 29.59375 31.296875 
Q 39.15625 29.25 43.1875 25.515625 
Q 47.21875 21.78125 47.21875 15.09375 
Q 47.21875 7.46875 41.1875 3.015625 
Q 35.15625 -1.421875 24.609375 -1.421875 
Q 20.21875 -1.421875 15.453125 -0.5625 
Q 10.6875 0.296875 5.421875 2 
L 5.421875 11.28125 
Q 10.40625 8.6875 15.234375 7.390625 
Q 20.0625 6.109375 24.8125 6.109375 
Q 31.15625 6.109375 34.5625 8.28125 
Q 37.984375 10.453125 37.984375 14.40625 
Q 37.984375 18.0625 35.515625 20.015625 
Q 33.0625 21.96875 24.703125 23.78125 
L 21.578125 24.515625 
Q 13.234375 26.265625 9.515625 29.90625 
Q 5.8125 33.546875 5.8125 39.890625 
Q 5.8125 47.609375 11.28125 51.796875 
Q 16.75 56 26.8125 56 
Q 31.78125 56 36.171875 55.265625 
Q 40.578125 54.546875 44.28125 53.078125 
z
" id="DejaVuSans-115"/>
     </defs>
     <g transform="translate(185.97 366.612125)scale(0.24 -0.24)">
      <use xlink:href="#DejaVuSans-68"/>
      <use x="77.001953" xlink:href="#DejaVuSans-101"/>
      <use x="138.525391" xlink:href="#DejaVuSans-103"/>
      <use x="202.001953" xlink:href="#DejaVuSans-114"/>
      <use x="243.083984" xlink:href="#DejaVuSans-101"/>
      <use x="304.607422" xlink:href="#DejaVuSans-101"/>
      <use x="366.130859" xlink:href="#DejaVuSans-115"/>
     </g>
    </g>
   </g>
   <g id="matplotlib.axis_2">
    <g id="ytick_1">
     <g id="line2d_5">
      <defs>
       <path d="M 0 0 
L -12 0 
" id="m8f0cde66ce" style="stroke:#000000;stroke-width:2.5;"/>
      </defs>
      <g>
       <use style="stroke:#000000;stroke-width:2.5;" x="57.6" xlink:href="#m8f0cde66ce" y="285.408"/>
      </g>
     </g>
     <g id="text_6">
      <!-- 0 -->
      <g transform="translate(28.1025 293.766281)scale(0.22 -0.22)">
       <use xlink:href="#DejaVuSans-48"/>
      </g>
     </g>
    </g>
    <g id="ytick_2">
     <g id="line2d_6">
      <g>
       <use style="stroke:#000000;stroke-width:2.5;" x="57.6" xlink:href="#m8f0cde66ce" y="207.690365"/>
      </g>
     </g>
     <g id="text_7">
      <!-- 2 -->
      <defs>
       <path d="M 19.1875 8.296875 
L 53.609375 8.296875 
L 53.609375 0 
L 7.328125 0 
L 7.328125 8.296875 
Q 12.9375 14.109375 22.625 23.890625 
Q 32.328125 33.6875 34.8125 36.53125 
Q 39.546875 41.84375 41.421875 45.53125 
Q 43.3125 49.21875 43.3125 52.78125 
Q 43.3125 58.59375 39.234375 62.25 
Q 35.15625 65.921875 28.609375 65.921875 
Q 23.96875 65.921875 18.8125 64.3125 
Q 13.671875 62.703125 7.8125 59.421875 
L 7.8125 69.390625 
Q 13.765625 71.78125 18.9375 73 
Q 24.125 74.21875 28.421875 74.21875 
Q 39.75 74.21875 46.484375 68.546875 
Q 53.21875 62.890625 53.21875 53.421875 
Q 53.21875 48.921875 51.53125 44.890625 
Q 49.859375 40.875 45.40625 35.40625 
Q 44.1875 33.984375 37.640625 27.21875 
Q 31.109375 20.453125 19.1875 8.296875 
z
" id="DejaVuSans-50"/>
      </defs>
      <g transform="translate(28.1025 216.048646)scale(0.22 -0.22)">
       <use xlink:href="#DejaVuSans-50"/>
      </g>
     </g>
    </g>
    <g id="ytick_3">
     <g id="line2d_7">
      <g>
       <use style="stroke:#000000;stroke-width:2.5;" x="57.6" xlink:href="#m8f0cde66ce" y="129.97273"/>
      </g>
     </g>
     <g id="text_8">
      <!-- 4 -->
      <defs>
       <path d="M 37.796875 64.3125 
L 12.890625 25.390625 
L 37.796875 25.390625 
z
M 35.203125 72.90625 
L 47.609375 72.90625 
L 47.609375 25.390625 
L 58.015625 25.390625 
L 58.015625 17.1875 
L 47.609375 17.1875 
L 47.609375 0 
L 37.796875 0 
L 37.796875 17.1875 
L 4.890625 17.1875 
L 4.890625 26.703125 
z
" id="DejaVuSans-52"/>
      </defs>
      <g transform="translate(28.1025 138.331011)scale(0.22 -0.22)">
       <use xlink:href="#DejaVuSans-52"/>
      </g>
     </g>
    </g>
    <g id="ytick_4">
     <g id="line2d_8">
      <g>
       <use style="stroke:#000000;stroke-width:2.5;" x="57.6" xlink:href="#m8f0cde66ce" y="52.255094"/>
      </g>
     </g>
     <g id="text_9">
      <!-- 6 -->
      <defs>
       <path d="M 33.015625 40.375 
Q 26.375 40.375 22.484375 35.828125 
Q 18.609375 31.296875 18.609375 23.390625 
Q 18.609375 15.53125 22.484375 10.953125 
Q 26.375 6.390625 33.015625 6.390625 
Q 39.65625 6.390625 43.53125 10.953125 
Q 47.40625 15.53125 47.40625 23.390625 
Q 47.40625 31.296875 43.53125 35.828125 
Q 39.65625 40.375 33.015625 40.375 
z
M 52.59375 71.296875 
L 52.59375 62.3125 
Q 48.875 64.0625 45.09375 64.984375 
Q 41.3125 65.921875 37.59375 65.921875 
Q 27.828125 65.921875 22.671875 59.328125 
Q 17.53125 52.734375 16.796875 39.40625 
Q 19.671875 43.65625 24.015625 45.921875 
Q 28.375 48.1875 33.59375 48.1875 
Q 44.578125 48.1875 50.953125 41.515625 
Q 57.328125 34.859375 57.328125 23.390625 
Q 57.328125 12.15625 50.6875 5.359375 
Q 44.046875 -1.421875 33.015625 -1.421875 
Q 20.359375 -1.421875 13.671875 8.265625 
Q 6.984375 17.96875 6.984375 36.375 
Q 6.984375 53.65625 15.1875 63.9375 
Q 23.390625 74.21875 37.203125 74.21875 
Q 40.921875 74.21875 44.703125 73.484375 
Q 48.484375 72.75 52.59375 71.296875 
z
" id="DejaVuSans-54"/>
      </defs>
      <g transform="translate(28.1025 60.613376)scale(0.22 -0.22)">
       <use xlink:href="#DejaVuSans-54"/>
      </g>
     </g>
    </g>
    <g id="text_10">
     <!-- Activation -->
     <defs>
      <path d="M 34.1875 63.1875 
L 20.796875 26.90625 
L 47.609375 26.90625 
z
M 28.609375 72.90625 
L 39.796875 72.90625 
L 67.578125 0 
L 57.328125 0 
L 50.6875 18.703125 
L 17.828125 18.703125 
L 11.1875 0 
L 0.78125 0 
z
" id="DejaVuSans-65"/>
      <path d="M 48.78125 52.59375 
L 48.78125 44.1875 
Q 44.96875 46.296875 41.140625 47.34375 
Q 37.3125 48.390625 33.40625 48.390625 
Q 24.65625 48.390625 19.8125 42.84375 
Q 14.984375 37.3125 14.984375 27.296875 
Q 14.984375 17.28125 19.8125 11.734375 
Q 24.65625 6.203125 33.40625 6.203125 
Q 37.3125 6.203125 41.140625 7.25 
Q 44.96875 8.296875 48.78125 10.40625 
L 48.78125 2.09375 
Q 45.015625 0.34375 40.984375 -0.53125 
Q 36.96875 -1.421875 32.421875 -1.421875 
Q 20.0625 -1.421875 12.78125 6.34375 
Q 5.515625 14.109375 5.515625 27.296875 
Q 5.515625 40.671875 12.859375 48.328125 
Q 20.21875 56 33.015625 56 
Q 37.15625 56 41.109375 55.140625 
Q 45.0625 54.296875 48.78125 52.59375 
z
" id="DejaVuSans-99"/>
      <path d="M 18.3125 70.21875 
L 18.3125 54.6875 
L 36.8125 54.6875 
L 36.8125 47.703125 
L 18.3125 47.703125 
L 18.3125 18.015625 
Q 18.3125 11.328125 20.140625 9.421875 
Q 21.96875 7.515625 27.59375 7.515625 
L 36.8125 7.515625 
L 36.8125 0 
L 27.59375 0 
Q 17.1875 0 13.234375 3.875 
Q 9.28125 7.765625 9.28125 18.015625 
L 9.28125 47.703125 
L 2.6875 47.703125 
L 2.6875 54.6875 
L 9.28125 54.6875 
L 9.28125 70.21875 
z
" id="DejaVuSans-116"/>
      <path d="M 9.421875 54.6875 
L 18.40625 54.6875 
L 18.40625 0 
L 9.421875 0 
z
M 9.421875 75.984375 
L 18.40625 75.984375 
L 18.40625 64.59375 
L 9.421875 64.59375 
z
" id="DejaVuSans-105"/>
      <path d="M 2.984375 54.6875 
L 12.5 54.6875 
L 29.59375 8.796875 
L 46.6875 54.6875 
L 56.203125 54.6875 
L 35.6875 0 
L 23.484375 0 
z
" id="DejaVuSans-118"/>
      <path d="M 34.28125 27.484375 
Q 23.390625 27.484375 19.1875 25 
Q 14.984375 22.515625 14.984375 16.5 
Q 14.984375 11.71875 18.140625 8.90625 
Q 21.296875 6.109375 26.703125 6.109375 
Q 34.1875 6.109375 38.703125 11.40625 
Q 43.21875 16.703125 43.21875 25.484375 
L 43.21875 27.484375 
z
M 52.203125 31.203125 
L 52.203125 0 
L 43.21875 0 
L 43.21875 8.296875 
Q 40.140625 3.328125 35.546875 0.953125 
Q 30.953125 -1.421875 24.3125 -1.421875 
Q 15.921875 -1.421875 10.953125 3.296875 
Q 6 8.015625 6 15.921875 
Q 6 25.140625 12.171875 29.828125 
Q 18.359375 34.515625 30.609375 34.515625 
L 43.21875 34.515625 
L 43.21875 35.40625 
Q 43.21875 41.609375 39.140625 45 
Q 35.0625 48.390625 27.6875 48.390625 
Q 23 48.390625 18.546875 47.265625 
Q 14.109375 46.140625 10.015625 43.890625 
L 10.015625 52.203125 
Q 14.9375 54.109375 19.578125 55.046875 
Q 24.21875 56 28.609375 56 
Q 40.484375 56 46.34375 49.84375 
Q 52.203125 43.703125 52.203125 31.203125 
z
" id="DejaVuSans-97"/>
      <path d="M 30.609375 48.390625 
Q 23.390625 48.390625 19.1875 42.75 
Q 14.984375 37.109375 14.984375 27.296875 
Q 14.984375 17.484375 19.15625 11.84375 
Q 23.34375 6.203125 30.609375 6.203125 
Q 37.796875 6.203125 41.984375 11.859375 
Q 46.1875 17.53125 46.1875 27.296875 
Q 46.1875 37.015625 41.984375 42.703125 
Q 37.796875 48.390625 30.609375 48.390625 
z
M 30.609375 56 
Q 42.328125 56 49.015625 48.375 
Q 55.71875 40.765625 55.71875 27.296875 
Q 55.71875 13.875 49.015625 6.21875 
Q 42.328125 -1.421875 30.609375 -1.421875 
Q 18.84375 -1.421875 12.171875 6.21875 
Q 5.515625 13.875 5.515625 27.296875 
Q 5.515625 40.765625 12.171875 48.375 
Q 18.84375 56 30.609375 56 
z
" id="DejaVuSans-111"/>
      <path d="M 54.890625 33.015625 
L 54.890625 0 
L 45.90625 0 
L 45.90625 32.71875 
Q 45.90625 40.484375 42.875 44.328125 
Q 39.84375 48.1875 33.796875 48.1875 
Q 26.515625 48.1875 22.3125 43.546875 
Q 18.109375 38.921875 18.109375 30.90625 
L 18.109375 0 
L 9.078125 0 
L 9.078125 54.6875 
L 18.109375 54.6875 
L 18.109375 46.1875 
Q 21.34375 51.125 25.703125 53.5625 
Q 30.078125 56 35.796875 56 
Q 45.21875 56 50.046875 50.171875 
Q 54.890625 44.34375 54.890625 33.015625 
z
" id="DejaVuSans-110"/>
     </defs>
     <g transform="translate(19.11125 234.813)rotate(-90)scale(0.24 -0.24)">
      <use xlink:href="#DejaVuSans-65"/>
      <use x="68.392578" xlink:href="#DejaVuSans-99"/>
      <use x="123.373047" xlink:href="#DejaVuSans-116"/>
      <use x="162.582031" xlink:href="#DejaVuSans-105"/>
      <use x="190.365234" xlink:href="#DejaVuSans-118"/>
      <use x="249.544922" xlink:href="#DejaVuSans-97"/>
      <use x="310.824219" xlink:href="#DejaVuSans-116"/>
      <use x="350.033203" xlink:href="#DejaVuSans-105"/>
      <use x="377.816406" xlink:href="#DejaVuSans-111"/>
      <use x="438.998047" xlink:href="#DejaVuSans-110"/>
     </g>
    </g>
   </g>
   <g id="line2d_9">
    <path clip-path="url(#p66b45731d6)" d="M 73.832727 275.519735 
L 90.065455 258.683382 
L 106.298182 252.846428 
L 122.530909 245.308176 
L 138.763636 236.490073 
L 154.996364 235.244638 
L 171.229091 237.05803 
L 187.461818 223.898297 
L 203.694545 219.524231 
L 219.927273 220.331716 
L 236.16 226.122678 
L 252.392727 225.933614 
L 268.625455 226.83482 
L 284.858182 248.628513 
L 301.090909 245.208562 
L 317.323636 262.142022 
L 333.556364 266.428455 
L 349.789091 270.895417 
L 366.021818 268.408391 
L 382.254545 271.548182 
L 398.487273 275.519735 
" style="fill:none;stroke:#0e4db3;stroke-linecap:square;stroke-width:3;"/>
   </g>
   <g id="line2d_10">
    <path clip-path="url(#p66b45731d6)" d="M 73.832727 277.540123 
L 90.065455 263.751528 
L 106.298182 258.572085 
L 122.530909 252.999255 
L 138.763636 246.191196 
L 154.996364 245.457583 
L 171.229091 246.285542 
L 187.461818 234.614373 
L 203.694545 232.444301 
L 219.927273 231.825375 
L 236.16 234.806485 
L 252.392727 236.712374 
L 268.625455 237.118602 
L 284.858182 255.942322 
L 301.090909 252.549206 
L 317.323636 266.221488 
L 333.556364 269.51256 
L 349.789091 272.496558 
L 366.021818 271.220212 
L 382.254545 273.569215 
L 398.487273 277.540123 
" style="fill:none;stroke:#d44e4e;stroke-linecap:square;stroke-width:3;"/>
   </g>
   <g id="line2d_11">
    <path clip-path="url(#p66b45731d6)" d="M 73.832727 218.188624 
L 90.065455 217.677802 
L 106.298182 222.208899 
L 122.530909 230.918138 
L 138.763636 232.46945 
L 154.996364 234.371245 
L 171.229091 234.250239 
L 187.461818 224.449447 
L 203.694545 221.202854 
L 219.927273 232.781604 
L 236.16 232.773905 
L 252.392727 231.040172 
L 268.625455 221.403504 
L 284.858182 228.368891 
L 301.090909 219.655373 
L 317.323636 222.687577 
L 333.556364 222.348078 
L 349.789091 211.135791 
L 366.021818 214.321066 
L 382.254545 211.306669 
L 398.487273 218.188624 
" style="fill:none;stroke:#0e4db3;stroke-linecap:square;stroke-width:3;"/>
   </g>
   <g id="line2d_12">
    <path clip-path="url(#p66b45731d6)" d="M 73.832727 232.198866 
L 90.065455 226.091368 
L 106.298182 233.655383 
L 122.530909 242.143154 
L 138.763636 243.164374 
L 154.996364 244.862208 
L 171.229091 244.860077 
L 187.461818 237.295858 
L 203.694545 234.997253 
L 219.927273 243.857353 
L 236.16 243.82576 
L 252.392727 241.685146 
L 268.625455 234.622521 
L 284.858182 239.047204 
L 301.090909 233.470793 
L 317.323636 235.771867 
L 333.556364 235.40141 
L 349.789091 226.72194 
L 366.021818 228.320233 
L 382.254545 226.683556 
L 398.487273 232.198866 
" style="fill:none;stroke:#d44e4e;stroke-linecap:square;stroke-width:3;"/>
   </g>
   <g id="line2d_13">
    <path clip-path="url(#p66b45731d6)" d="M 73.832727 217.273404 
L 90.065455 213.982003 
L 106.298182 213.955913 
L 122.530909 213.97398 
L 138.763636 206.770328 
L 154.996364 207.127008 
L 171.229091 206.482762 
L 187.461818 211.309425 
L 203.694545 205.473006 
L 219.927273 208.106779 
L 236.16 212.531254 
L 252.392727 212.607896 
L 268.625455 213.402433 
L 284.858182 218.217594 
L 301.090909 219.1006 
L 317.323636 219.482582 
L 333.556364 219.304872 
L 349.789091 219.864268 
L 366.021818 218.330748 
L 382.254545 217.522105 
L 398.487273 217.273404 
" style="fill:none;stroke:#0e4db3;stroke-linecap:square;stroke-width:3;"/>
   </g>
   <g id="line2d_14">
    <path clip-path="url(#p66b45731d6)" d="M 73.832727 229.198523 
L 90.065455 226.828655 
L 106.298182 226.630048 
L 122.530909 226.414682 
L 138.763636 221.935495 
L 154.996364 221.861664 
L 171.229091 220.797456 
L 187.461818 224.454288 
L 203.694545 219.239751 
L 219.927273 221.746671 
L 236.16 225.350774 
L 252.392727 225.267369 
L 268.625455 225.987516 
L 284.858182 228.555384 
L 301.090909 229.205588 
L 317.323636 230.085008 
L 333.556364 230.531278 
L 349.789091 230.95471 
L 366.021818 229.695795 
L 382.254545 229.203285 
L 398.487273 229.198523 
" style="fill:none;stroke:#d44e4e;stroke-linecap:square;stroke-width:3;"/>
   </g>
   <g id="line2d_15">
    <path clip-path="url(#p66b45731d6)" d="M 73.832727 208.283669 
L 90.065455 208.191949 
L 106.298182 208.494737 
L 122.530909 215.723018 
L 138.763636 216.460671 
L 154.996364 218.305219 
L 171.229091 216.693497 
L 187.461818 214.763579 
L 203.694545 209.673461 
L 219.927273 211.471983 
L 236.16 210.745754 
L 252.392727 207.510973 
L 268.625455 206.374356 
L 284.858182 206.436782 
L 301.090909 202.846511 
L 317.323636 202.289853 
L 333.556364 193.689373 
L 349.789091 201.59454 
L 366.021818 201.174666 
L 382.254545 204.957873 
L 398.487273 208.283669 
" style="fill:none;stroke:#0e4db3;stroke-linecap:square;stroke-width:3;"/>
   </g>
   <g id="line2d_16">
    <path clip-path="url(#p66b45731d6)" d="M 73.832727 224.529378 
L 90.065455 224.526367 
L 106.298182 224.734581 
L 122.530909 230.117444 
L 138.763636 230.469473 
L 154.996364 231.36028 
L 171.229091 230.782767 
L 187.461818 228.33218 
L 203.694545 225.855253 
L 219.927273 226.823689 
L 236.16 226.965503 
L 252.392727 223.440104 
L 268.625455 221.849259 
L 284.858182 221.405871 
L 301.090909 219.408173 
L 317.323636 219.406755 
L 333.556364 213.690759 
L 349.789091 218.948622 
L 366.021818 218.313048 
L 382.254545 221.644705 
L 398.487273 224.529378 
" style="fill:none;stroke:#d44e4e;stroke-linecap:square;stroke-width:3;"/>
   </g>
   <g id="line2d_17">
    <path clip-path="url(#p66b45731d6)" d="M 73.832727 260.663667 
L 90.065455 260.285365 
L 106.298182 260.625489 
L 122.530909 259.80247 
L 138.763636 250.290439 
L 154.996364 249.057576 
L 171.229091 241.370865 
L 187.461818 243.738816 
L 203.694545 232.08895 
L 219.927273 222.934661 
L 236.16 223.078939 
L 252.392727 213.294532 
L 268.625455 204.673549 
L 284.858182 209.277786 
L 301.090909 197.345608 
L 317.323636 204.279542 
L 333.556364 206.246189 
L 349.789091 238.262246 
L 366.021818 241.221537 
L 382.254545 240.894643 
L 398.487273 260.663667 
" style="fill:none;stroke:#0e4db3;stroke-linecap:square;stroke-width:3;"/>
   </g>
   <g id="line2d_18">
    <path clip-path="url(#p66b45731d6)" d="M 73.832727 262.783991 
L 90.065455 262.231164 
L 106.298182 262.529588 
L 122.530909 262.17052 
L 138.763636 254.721517 
L 154.996364 253.788406 
L 171.229091 247.059035 
L 187.461818 248.872255 
L 203.694545 239.731474 
L 219.927273 233.038463 
L 236.16 233.056964 
L 252.392727 224.883974 
L 268.625455 218.058214 
L 284.858182 222.511877 
L 301.090909 212.648419 
L 317.323636 217.527868 
L 333.556364 219.438404 
L 349.789091 244.460612 
L 366.021818 246.932232 
L 382.254545 246.907623 
L 398.487273 262.783991 
" style="fill:none;stroke:#d44e4e;stroke-linecap:square;stroke-width:3;"/>
   </g>
   <g id="line2d_19">
    <path clip-path="url(#p66b45731d6)" d="M 73.832727 285.408 
L 90.065455 285.408 
L 106.298182 285.408 
L 122.530909 285.408 
L 138.763636 285.408 
L 154.996364 285.408 
L 171.229091 285.408 
L 187.461818 285.408 
L 203.694545 285.408 
L 219.927273 285.408 
L 236.16 285.408 
L 252.392727 285.408 
L 268.625455 285.408 
L 284.858182 285.408 
L 301.090909 285.408 
L 317.323636 285.408 
L 333.556364 285.408 
L 349.789091 285.408 
L 366.021818 285.408 
L 382.254545 285.408 
L 398.487273 285.408 
" style="fill:none;stroke:#0e4db3;stroke-linecap:square;stroke-width:3;"/>
   </g>
   <g id="line2d_20">
    <path clip-path="url(#p66b45731d6)" d="M 73.832727 285.408 
L 90.065455 285.408 
L 106.298182 285.408 
L 122.530909 285.408 
L 138.763636 285.408 
L 154.996364 285.408 
L 171.229091 285.408 
L 187.461818 285.408 
L 203.694545 285.408 
L 219.927273 285.408 
L 236.16 285.408 
L 252.392727 285.408 
L 268.625455 285.408 
L 284.858182 285.408 
L 301.090909 285.408 
L 317.323636 285.408 
L 333.556364 285.408 
L 349.789091 285.408 
L 366.021818 285.408 
L 382.254545 285.408 
L 398.487273 285.408 
" style="fill:none;stroke:#d44e4e;stroke-linecap:square;stroke-width:3;"/>
   </g>
   <g id="line2d_21">
    <path clip-path="url(#p66b45731d6)" d="M 73.832727 285.408 
L 90.065455 285.060627 
L 106.298182 285.269622 
L 122.530909 285.142526 
L 138.763636 285.29155 
L 154.996364 285.408 
L 171.229091 285.408 
L 187.461818 285.408 
L 203.694545 285.408 
L 219.927273 285.408 
L 236.16 285.408 
L 252.392727 285.408 
L 268.625455 284.600193 
L 284.858182 285.408 
L 301.090909 285.408 
L 317.323636 285.408 
L 333.556364 285.408 
L 349.789091 285.408 
L 366.021818 285.408 
L 382.254545 285.408 
L 398.487273 285.408 
" style="fill:none;stroke:#0e4db3;stroke-linecap:square;stroke-width:3;"/>
   </g>
   <g id="line2d_22">
    <path clip-path="url(#p66b45731d6)" d="M 73.832727 285.408 
L 90.065455 285.408 
L 106.298182 285.408 
L 122.530909 285.408 
L 138.763636 285.408 
L 154.996364 285.408 
L 171.229091 285.408 
L 187.461818 285.408 
L 203.694545 285.408 
L 219.927273 285.408 
L 236.16 285.408 
L 252.392727 285.408 
L 268.625455 285.408 
L 284.858182 285.408 
L 301.090909 285.408 
L 317.323636 285.408 
L 333.556364 285.408 
L 349.789091 285.408 
L 366.021818 285.408 
L 382.254545 285.408 
L 398.487273 285.408 
" style="fill:none;stroke:#d44e4e;stroke-linecap:square;stroke-width:3;"/>
   </g>
   <g id="line2d_23">
    <path clip-path="url(#p66b45731d6)" d="M 73.832727 265.455216 
L 90.065455 259.16148 
L 106.298182 249.940012 
L 122.530909 249.051888 
L 138.763636 239.522467 
L 154.996364 237.589178 
L 171.229091 231.198051 
L 187.461818 231.998013 
L 203.694545 222.80742 
L 219.927273 223.27497 
L 236.16 245.092004 
L 252.392727 224.380829 
L 268.625455 234.628446 
L 284.858182 247.321026 
L 301.090909 244.835845 
L 317.323636 253.772832 
L 333.556364 254.875531 
L 349.789091 256.687256 
L 366.021818 257.300593 
L 382.254545 263.312517 
L 398.487273 265.455216 
" style="fill:none;stroke:#0e4db3;stroke-linecap:square;stroke-width:3;"/>
   </g>
   <g id="line2d_24">
    <path clip-path="url(#p66b45731d6)" d="M 73.832727 265.83706 
L 90.065455 261.020993 
L 106.298182 253.549762 
L 122.530909 252.073299 
L 138.763636 244.980443 
L 154.996364 243.691149 
L 171.229091 238.444227 
L 187.461818 238.667042 
L 203.694545 231.778918 
L 219.927273 231.809968 
L 236.16 249.403134 
L 252.392727 232.830142 
L 268.625455 240.933087 
L 284.858182 251.607395 
L 301.090909 249.155719 
L 317.323636 256.277619 
L 333.556364 257.060402 
L 349.789091 257.791361 
L 366.021818 258.497113 
L 382.254545 263.742407 
L 398.487273 265.83706 
" style="fill:none;stroke:#d44e4e;stroke-linecap:square;stroke-width:3;"/>
   </g>
   <g id="line2d_25">
    <path clip-path="url(#p66b45731d6)" d="M 73.832727 244.218332 
L 90.065455 241.366455 
L 106.298182 237.076133 
L 122.530909 235.342811 
L 138.763636 237.456563 
L 154.996364 237.572168 
L 171.229091 237.776657 
L 187.461818 242.249248 
L 203.694545 241.553643 
L 219.927273 243.804549 
L 236.16 245.783847 
L 252.392727 243.361906 
L 268.625455 242.846745 
L 284.858182 242.899072 
L 301.090909 242.997231 
L 317.323636 243.385624 
L 333.556364 234.361461 
L 349.789091 239.340431 
L 366.021818 237.785033 
L 382.254545 244.366302 
L 398.487273 244.218332 
" style="fill:none;stroke:#0e4db3;stroke-linecap:square;stroke-width:3;"/>
   </g>
   <g id="line2d_26">
    <path clip-path="url(#p66b45731d6)" d="M 73.832727 253.013013 
L 90.065455 250.740211 
L 106.298182 247.426717 
L 122.530909 245.444418 
L 138.763636 248.540066 
L 154.996364 248.696713 
L 171.229091 248.629248 
L 187.461818 251.37616 
L 203.694545 249.968631 
L 219.927273 253.251917 
L 236.16 251.741814 
L 252.392727 251.988555 
L 268.625455 251.910583 
L 284.858182 252.445856 
L 301.090909 252.681172 
L 317.323636 252.599613 
L 333.556364 245.593792 
L 349.789091 247.121896 
L 366.021818 246.792963 
L 382.254545 253.014121 
L 398.487273 253.013013 
" style="fill:none;stroke:#d44e4e;stroke-linecap:square;stroke-width:3;"/>
   </g>
   <g id="line2d_27">
    <path clip-path="url(#p66b45731d6)" d="M 73.832727 283.911266 
L 90.065455 268.129119 
L 106.298182 254.824371 
L 122.530909 255.673033 
L 138.763636 239.536249 
L 154.996364 238.321674 
L 171.229091 238.556557 
L 187.461818 240.005874 
L 203.694545 235.957971 
L 219.927273 235.950805 
L 236.16 241.723432 
L 252.392727 237.920102 
L 268.625455 242.859233 
L 284.858182 254.713371 
L 301.090909 249.942565 
L 317.323636 267.306722 
L 333.556364 267.58205 
L 349.789091 271.852753 
L 366.021818 280.207157 
L 382.254545 272.545068 
L 398.487273 283.911266 
" style="fill:none;stroke:#0e4db3;stroke-linecap:square;stroke-width:3;"/>
   </g>
   <g id="line2d_28">
    <path clip-path="url(#p66b45731d6)" d="M 73.832727 285.019639 
L 90.065455 272.991615 
L 106.298182 262.268983 
L 122.530909 259.251479 
L 138.763636 250.609389 
L 154.996364 249.555853 
L 171.229091 249.591652 
L 187.461818 249.539195 
L 203.694545 246.746066 
L 219.927273 246.774698 
L 236.16 251.693487 
L 252.392727 248.216905 
L 268.625455 251.306685 
L 284.858182 262.433412 
L 301.090909 257.758564 
L 317.323636 271.059951 
L 333.556364 272.514303 
L 349.789091 276.315962 
L 366.021818 281.98693 
L 382.254545 276.333341 
L 398.487273 285.019639 
" style="fill:none;stroke:#d44e4e;stroke-linecap:square;stroke-width:3;"/>
   </g>
   <g id="line2d_29">
    <path clip-path="url(#p66b45731d6)" d="M 73.832727 223.844215 
L 90.065455 223.473105 
L 106.298182 219.692529 
L 122.530909 225.709215 
L 138.763636 229.307786 
L 154.996364 242.018562 
L 171.229091 244.256127 
L 187.461818 242.205394 
L 203.694545 222.52495 
L 219.927273 209.053683 
L 236.16 210.098728 
L 252.392727 208.807605 
L 268.625455 222.455604 
L 284.858182 230.825153 
L 301.090909 219.432284 
L 317.323636 215.346558 
L 333.556364 214.302153 
L 349.789091 212.380684 
L 366.021818 207.610031 
L 382.254545 212.059877 
L 398.487273 223.844215 
" style="fill:none;stroke:#0e4db3;stroke-linecap:square;stroke-width:3;"/>
   </g>
   <g id="line2d_30">
    <path clip-path="url(#p66b45731d6)" d="M 73.832727 232.622919 
L 90.065455 232.612788 
L 106.298182 229.555866 
L 122.530909 233.523894 
L 138.763636 237.584545 
L 154.996364 247.281095 
L 171.229091 248.967158 
L 187.461818 246.394046 
L 203.694545 230.834543 
L 219.927273 221.078105 
L 236.16 221.791823 
L 252.392727 220.793013 
L 268.625455 231.450782 
L 284.858182 238.201854 
L 301.090909 228.94771 
L 317.323636 225.825491 
L 333.556364 225.125448 
L 349.789091 223.662715 
L 366.021818 219.463515 
L 382.254545 223.251151 
L 398.487273 232.622919 
" style="fill:none;stroke:#d44e4e;stroke-linecap:square;stroke-width:3;"/>
   </g>
   <g id="line2d_31">
    <path clip-path="url(#p66b45731d6)" d="M 73.832727 221.872967 
L 90.065455 221.460796 
L 106.298182 228.103838 
L 122.530909 229.960347 
L 138.763636 243.151348 
L 154.996364 252.192072 
L 171.229091 242.957467 
L 187.461818 231.111936 
L 203.694545 226.221935 
L 219.927273 238.63664 
L 236.16 237.153312 
L 252.392727 237.203638 
L 268.625455 244.292537 
L 284.858182 249.609018 
L 301.090909 241.061588 
L 317.323636 239.500019 
L 333.556364 231.376104 
L 349.789091 231.039912 
L 366.021818 226.366654 
L 382.254545 222.132642 
L 398.487273 221.872967 
" style="fill:none;stroke:#0e4db3;stroke-linecap:square;stroke-width:3;"/>
   </g>
   <g id="line2d_32">
    <path clip-path="url(#p66b45731d6)" d="M 73.832727 231.871152 
L 90.065455 230.127973 
L 106.298182 236.913575 
L 122.530909 234.527739 
L 138.763636 248.780206 
L 154.996364 255.794467 
L 171.229091 248.145586 
L 187.461818 238.329248 
L 203.694545 234.557566 
L 219.927273 244.946868 
L 236.16 243.765424 
L 252.392727 243.543244 
L 268.625455 249.52647 
L 284.858182 253.286173 
L 301.090909 247.302501 
L 317.323636 245.13715 
L 333.556364 239.405163 
L 349.789091 238.003906 
L 366.021818 234.76302 
L 382.254545 230.101207 
L 398.487273 231.871152 
" style="fill:none;stroke:#d44e4e;stroke-linecap:square;stroke-width:3;"/>
   </g>
   <g id="line2d_33">
    <path clip-path="url(#p66b45731d6)" d="M 73.832727 191.589388 
L 90.065455 191.45569 
L 106.298182 189.352556 
L 122.530909 190.620407 
L 138.763636 190.489339 
L 154.996364 190.556953 
L 171.229091 189.284238 
L 187.461818 190.233459 
L 203.694545 185.872062 
L 219.927273 187.82081 
L 236.16 188.198753 
L 252.392727 188.116965 
L 268.625455 189.694876 
L 284.858182 190.901237 
L 301.090909 189.869533 
L 317.323636 190.374263 
L 333.556364 190.01635 
L 349.789091 191.073958 
L 366.021818 189.550616 
L 382.254545 190.49802 
L 398.487273 191.589388 
" style="fill:none;stroke:#0e4db3;stroke-linecap:square;stroke-width:3;"/>
   </g>
   <g id="line2d_34">
    <path clip-path="url(#p66b45731d6)" d="M 73.832727 206.675708 
L 90.065455 206.024004 
L 106.298182 204.663423 
L 122.530909 205.499596 
L 138.763636 205.478704 
L 154.996364 205.516393 
L 171.229091 204.529456 
L 187.461818 205.439024 
L 203.694545 201.864522 
L 219.927273 203.638112 
L 236.16 203.831688 
L 252.392727 203.790534 
L 268.625455 203.805728 
L 284.858182 205.338224 
L 301.090909 204.481206 
L 317.323636 205.150828 
L 333.556364 205.052215 
L 349.789091 205.978505 
L 366.021818 204.762018 
L 382.254545 205.695877 
L 398.487273 206.675708 
" style="fill:none;stroke:#d44e4e;stroke-linecap:square;stroke-width:3;"/>
   </g>
   <g id="line2d_35">
    <path clip-path="url(#p66b45731d6)" d="M 73.832727 239.943968 
L 90.065455 231.650375 
L 106.298182 231.578393 
L 122.530909 236.627348 
L 138.763636 237.324532 
L 154.996364 235.348523 
L 171.229091 235.237352 
L 187.461818 234.953992 
L 203.694545 241.485501 
L 219.927273 241.311729 
L 236.16 242.822045 
L 252.392727 252.275391 
L 268.625455 262.371142 
L 284.858182 266.181914 
L 301.090909 266.286384 
L 317.323636 264.772605 
L 333.556364 263.128975 
L 349.789091 260.578126 
L 366.021818 250.100745 
L 382.254545 240.015172 
L 398.487273 239.943968 
" style="fill:none;stroke:#0e4db3;stroke-linecap:square;stroke-width:3;"/>
   </g>
   <g id="line2d_36">
    <path clip-path="url(#p66b45731d6)" d="M 73.832727 246.358265 
L 90.065455 239.709577 
L 106.298182 239.970233 
L 122.530909 241.739469 
L 138.763636 244.390891 
L 154.996364 242.666028 
L 171.229091 242.462715 
L 187.461818 242.036666 
L 203.694545 247.278474 
L 219.927273 247.289436 
L 236.16 248.668067 
L 252.392727 256.141952 
L 268.625455 264.243477 
L 284.858182 267.049157 
L 301.090909 267.091335 
L 317.323636 265.790516 
L 333.556364 264.633881 
L 349.789091 262.459751 
L 366.021818 253.912369 
L 382.254545 245.661021 
L 398.487273 246.358265 
" style="fill:none;stroke:#d44e4e;stroke-linecap:square;stroke-width:3;"/>
   </g>
   <g id="line2d_37">
    <path clip-path="url(#p66b45731d6)" d="M 73.832727 164.243982 
L 90.065455 164.227287 
L 106.298182 163.997208 
L 122.530909 166.683794 
L 138.763636 165.865882 
L 154.996364 166.302572 
L 171.229091 166.479434 
L 187.461818 167.328059 
L 203.694545 164.426644 
L 219.927273 166.246317 
L 236.16 166.35249 
L 252.392727 165.866299 
L 268.625455 166.04292 
L 284.858182 169.257499 
L 301.090909 166.706289 
L 317.323636 166.563872 
L 333.556364 165.850456 
L 349.789091 165.920895 
L 366.021818 164.061626 
L 382.254545 164.225045 
L 398.487273 164.243982 
" style="fill:none;stroke:#0e4db3;stroke-linecap:square;stroke-width:3;"/>
   </g>
   <g id="line2d_38">
    <path clip-path="url(#p66b45731d6)" d="M 73.832727 186.902932 
L 90.065455 186.900051 
L 106.298182 186.654046 
L 122.530909 188.559463 
L 138.763636 187.606204 
L 154.996364 188.457182 
L 171.229091 188.211872 
L 187.461818 189.459007 
L 203.694545 186.785429 
L 219.927273 188.616145 
L 236.16 188.810406 
L 252.392727 188.181465 
L 268.625455 187.156052 
L 284.858182 188.854135 
L 301.090909 187.968804 
L 317.323636 187.972158 
L 333.556364 187.677486 
L 349.789091 188.008846 
L 366.021818 186.412331 
L 382.254545 186.759358 
L 398.487273 186.902932 
" style="fill:none;stroke:#d44e4e;stroke-linecap:square;stroke-width:3;"/>
   </g>
   <g id="line2d_39">
    <path clip-path="url(#p66b45731d6)" d="M 73.832727 285.408 
L 90.065455 285.408 
L 106.298182 285.408 
L 122.530909 285.408 
L 138.763636 285.408 
L 154.996364 285.408 
L 171.229091 285.408 
L 187.461818 285.408 
L 203.694545 285.408 
L 219.927273 285.408 
L 236.16 285.408 
L 252.392727 285.408 
L 268.625455 283.647059 
L 284.858182 284.904172 
L 301.090909 285.408 
L 317.323636 285.408 
L 333.556364 285.408 
L 349.789091 285.408 
L 366.021818 285.408 
L 382.254545 285.408 
L 398.487273 285.408 
" style="fill:none;stroke:#0e4db3;stroke-linecap:square;stroke-width:3;"/>
   </g>
   <g id="line2d_40">
    <path clip-path="url(#p66b45731d6)" d="M 73.832727 285.408 
L 90.065455 285.408 
L 106.298182 285.408 
L 122.530909 285.408 
L 138.763636 285.408 
L 154.996364 285.408 
L 171.229091 285.408 
L 187.461818 285.408 
L 203.694545 285.408 
L 219.927273 285.408 
L 236.16 285.408 
L 252.392727 285.408 
L 268.625455 285.408 
L 284.858182 285.408 
L 301.090909 285.408 
L 317.323636 285.408 
L 333.556364 285.408 
L 349.789091 285.408 
L 366.021818 285.408 
L 382.254545 285.408 
L 398.487273 285.408 
" style="fill:none;stroke:#d44e4e;stroke-linecap:square;stroke-width:3;"/>
   </g>
   <g id="line2d_41">
    <path clip-path="url(#p66b45731d6)" d="M 73.832727 238.116189 
L 90.065455 203.445277 
L 106.298182 211.739912 
L 122.530909 221.120612 
L 138.763636 222.908335 
L 154.996364 247.810881 
L 171.229091 256.064502 
L 187.461818 255.874752 
L 203.694545 230.47096 
L 219.927273 207.190184 
L 236.16 208.494223 
L 252.392727 206.392182 
L 268.625455 219.550413 
L 284.858182 234.115179 
L 301.090909 220.297076 
L 317.323636 214.085596 
L 333.556364 212.675338 
L 349.789091 217.906223 
L 366.021818 199.038039 
L 382.254545 215.765187 
L 398.487273 238.116189 
" style="fill:none;stroke:#0e4db3;stroke-linecap:square;stroke-width:3;"/>
   </g>
   <g id="line2d_42">
    <path clip-path="url(#p66b45731d6)" d="M 73.832727 248.151573 
L 90.065455 220.080445 
L 106.298182 225.21721 
L 122.530909 233.958597 
L 138.763636 236.344136 
L 154.996364 256.444807 
L 171.229091 263.059201 
L 187.461818 260.40427 
L 203.694545 240.457277 
L 219.927273 223.489647 
L 236.16 224.461241 
L 252.392727 222.772969 
L 268.625455 232.97708 
L 284.858182 244.756414 
L 301.090909 233.545643 
L 317.323636 228.625661 
L 333.556364 227.652881 
L 349.789091 230.646553 
L 366.021818 216.338007 
L 382.254545 229.721694 
L 398.487273 248.151573 
" style="fill:none;stroke:#d44e4e;stroke-linecap:square;stroke-width:3;"/>
   </g>
   <g id="line2d_43">
    <path clip-path="url(#p66b45731d6)" d="M 73.832727 265.081274 
L 90.065455 248.90804 
L 106.298182 254.407369 
L 122.530909 253.966616 
L 138.763636 257.756026 
L 154.996364 259.589554 
L 171.229091 264.089021 
L 187.461818 268.583704 
L 203.694545 266.604359 
L 219.927273 258.278094 
L 236.16 258.939114 
L 252.392727 258.712134 
L 268.625455 261.539177 
L 284.858182 254.108347 
L 301.090909 260.081901 
L 317.323636 268.599806 
L 333.556364 268.670988 
L 349.789091 264.297935 
L 366.021818 261.279479 
L 382.254545 260.859642 
L 398.487273 265.081274 
" style="fill:none;stroke:#0e4db3;stroke-linecap:square;stroke-width:3;"/>
   </g>
   <g id="line2d_44">
    <path clip-path="url(#p66b45731d6)" d="M 73.832727 270.244737 
L 90.065455 254.655791 
L 106.298182 259.182488 
L 122.530909 260.754613 
L 138.763636 264.21005 
L 154.996364 265.899355 
L 171.229091 268.891564 
L 187.461818 272.798876 
L 203.694545 270.77746 
L 219.927273 264.650011 
L 236.16 265.138124 
L 252.392727 264.960564 
L 268.625455 267.014256 
L 284.858182 261.078633 
L 301.090909 266.088975 
L 317.323636 272.416969 
L 333.556364 272.645818 
L 349.789091 269.184874 
L 366.021818 266.604762 
L 382.254545 266.440516 
L 398.487273 270.244737 
" style="fill:none;stroke:#d44e4e;stroke-linecap:square;stroke-width:3;"/>
   </g>
   <g id="line2d_45">
    <path clip-path="url(#p66b45731d6)" d="M 73.832727 262.482364 
L 90.065455 251.531496 
L 106.298182 237.396347 
L 122.530909 232.262445 
L 138.763636 224.998416 
L 154.996364 222.122534 
L 171.229091 229.628709 
L 187.461818 239.80573 
L 203.694545 241.743082 
L 219.927273 229.115512 
L 236.16 229.03944 
L 252.392727 235.0431 
L 268.625455 232.170901 
L 284.858182 242.01135 
L 301.090909 246.044911 
L 317.323636 271.026841 
L 333.556364 269.792194 
L 349.789091 270.865072 
L 366.021818 259.694108 
L 382.254545 262.599764 
L 398.487273 262.482364 
" style="fill:none;stroke:#0e4db3;stroke-linecap:square;stroke-width:3;"/>
   </g>
   <g id="line2d_46">
    <path clip-path="url(#p66b45731d6)" d="M 73.832727 266.852196 
L 90.065455 258.301288 
L 106.298182 240.108782 
L 122.530909 241.348157 
L 138.763636 237.675598 
L 154.996364 235.279135 
L 171.229091 241.084587 
L 187.461818 247.53179 
L 203.694545 250.084497 
L 219.927273 240.456591 
L 236.16 240.45308 
L 252.392727 244.869425 
L 268.625455 242.464068 
L 284.858182 249.838984 
L 301.090909 252.618607 
L 317.323636 274.311992 
L 333.556364 272.967549 
L 349.789091 272.662094 
L 366.021818 262.994862 
L 382.254545 266.180274 
L 398.487273 266.852196 
" style="fill:none;stroke:#d44e4e;stroke-linecap:square;stroke-width:3;"/>
   </g>
   <g id="line2d_47">
    <path clip-path="url(#p66b45731d6)" d="M 73.832727 240.270029 
L 90.065455 239.926879 
L 106.298182 239.793954 
L 122.530909 244.186086 
L 138.763636 239.888899 
L 154.996364 250.013477 
L 171.229091 250.982611 
L 187.461818 251.182066 
L 203.694545 250.503336 
L 219.927273 250.12015 
L 236.16 249.809876 
L 252.392727 244.77934 
L 268.625455 242.18421 
L 284.858182 246.269547 
L 301.090909 239.65611 
L 317.323636 239.816783 
L 333.556364 239.847226 
L 349.789091 240.914678 
L 366.021818 236.614956 
L 382.254545 239.980221 
L 398.487273 240.270029 
" style="fill:none;stroke:#0e4db3;stroke-linecap:square;stroke-width:3;"/>
   </g>
   <g id="line2d_48">
    <path clip-path="url(#p66b45731d6)" d="M 73.832727 246.992951 
L 90.065455 244.406164 
L 106.298182 244.245153 
L 122.530909 245.856278 
L 138.763636 246.934314 
L 154.996364 254.77266 
L 171.229091 255.350275 
L 187.461818 255.505467 
L 203.694545 255.426146 
L 219.927273 255.166172 
L 236.16 255.202082 
L 252.392727 250.157283 
L 268.625455 248.454058 
L 284.858182 251.4299 
L 301.090909 246.42921 
L 317.323636 246.443181 
L 333.556364 246.448855 
L 349.789091 247.574197 
L 366.021818 243.637201 
L 382.254545 246.545129 
L 398.487273 246.992951 
" style="fill:none;stroke:#d44e4e;stroke-linecap:square;stroke-width:3;"/>
   </g>
   <g id="line2d_49">
    <path clip-path="url(#p66b45731d6)" d="M 73.832727 285.408 
L 90.065455 285.408 
L 106.298182 285.408 
L 122.530909 285.408 
L 138.763636 285.408 
L 154.996364 285.408 
L 171.229091 285.408 
L 187.461818 285.408 
L 203.694545 285.408 
L 219.927273 285.408 
L 236.16 285.408 
L 252.392727 285.408 
L 268.625455 285.408 
L 284.858182 285.408 
L 301.090909 285.408 
L 317.323636 285.408 
L 333.556364 285.408 
L 349.789091 285.408 
L 366.021818 285.408 
L 382.254545 285.408 
L 398.487273 285.408 
" style="fill:none;stroke:#0e4db3;stroke-linecap:square;stroke-width:3;"/>
   </g>
   <g id="line2d_50">
    <path clip-path="url(#p66b45731d6)" d="M 73.832727 285.408 
L 90.065455 285.408 
L 106.298182 285.408 
L 122.530909 285.408 
L 138.763636 285.408 
L 154.996364 285.408 
L 171.229091 285.408 
L 187.461818 285.408 
L 203.694545 285.408 
L 219.927273 285.408 
L 236.16 285.408 
L 252.392727 285.408 
L 268.625455 285.408 
L 284.858182 285.408 
L 301.090909 285.408 
L 317.323636 285.408 
L 333.556364 285.408 
L 349.789091 285.408 
L 366.021818 285.408 
L 382.254545 285.408 
L 398.487273 285.408 
" style="fill:none;stroke:#d44e4e;stroke-linecap:square;stroke-width:3;"/>
   </g>
   <g id="line2d_51">
    <path clip-path="url(#p66b45731d6)" d="M 73.832727 225.419152 
L 90.065455 170.606925 
L 106.298182 172.109413 
L 122.530909 167.728357 
L 138.763636 146.9333 
L 154.996364 162.797138 
L 171.229091 198.523628 
L 187.461818 252.445405 
L 203.694545 226.871592 
L 219.927273 204.393071 
L 236.16 201.1319 
L 252.392727 177.953156 
L 268.625455 159.441866 
L 284.858182 148.479906 
L 301.090909 166.890461 
L 317.323636 203.806414 
L 333.556364 264.144171 
L 349.789091 285.408 
L 366.021818 267.324375 
L 382.254545 222.229194 
L 398.487273 225.419152 
" style="fill:none;stroke:#0e4db3;stroke-linecap:square;stroke-width:3;"/>
   </g>
   <g id="line2d_52">
    <path clip-path="url(#p66b45731d6)" d="M 73.832727 285.408 
L 90.065455 240.04071 
L 106.298182 244.184331 
L 122.530909 229.844155 
L 138.763636 264.589742 
L 154.996364 281.178175 
L 171.229091 285.408 
L 187.461818 285.408 
L 203.694545 285.408 
L 219.927273 285.408 
L 236.16 284.090614 
L 252.392727 264.958728 
L 268.625455 253.168627 
L 284.858182 255.556097 
L 301.090909 266.725139 
L 317.323636 285.408 
L 333.556364 285.408 
L 349.789091 285.408 
L 366.021818 285.408 
L 382.254545 285.408 
L 398.487273 285.408 
" style="fill:none;stroke:#d44e4e;stroke-linecap:square;stroke-width:3;"/>
   </g>
   <g id="line2d_53">
    <path clip-path="url(#p66b45731d6)" d="M 73.832727 285.408 
L 90.065455 285.408 
L 106.298182 285.408 
L 122.530909 285.408 
L 138.763636 285.408 
L 154.996364 285.408 
L 171.229091 285.408 
L 187.461818 285.408 
L 203.694545 285.408 
L 219.927273 285.408 
L 236.16 285.408 
L 252.392727 285.408 
L 268.625455 285.408 
L 284.858182 285.408 
L 301.090909 285.408 
L 317.323636 285.408 
L 333.556364 285.408 
L 349.789091 285.408 
L 366.021818 285.408 
L 382.254545 285.408 
L 398.487273 285.408 
" style="fill:none;stroke:#0e4db3;stroke-linecap:square;stroke-width:3;"/>
   </g>
   <g id="line2d_54">
    <path clip-path="url(#p66b45731d6)" d="M 73.832727 285.408 
L 90.065455 285.408 
L 106.298182 285.408 
L 122.530909 285.408 
L 138.763636 285.408 
L 154.996364 285.408 
L 171.229091 285.408 
L 187.461818 285.408 
L 203.694545 285.408 
L 219.927273 285.408 
L 236.16 285.408 
L 252.392727 285.408 
L 268.625455 285.408 
L 284.858182 285.408 
L 301.090909 285.408 
L 317.323636 285.408 
L 333.556364 285.408 
L 349.789091 285.408 
L 366.021818 285.408 
L 382.254545 285.408 
L 398.487273 285.408 
" style="fill:none;stroke:#d44e4e;stroke-linecap:square;stroke-width:3;"/>
   </g>
   <g id="line2d_55">
    <path clip-path="url(#p66b45731d6)" d="M 73.832727 285.408 
L 90.065455 285.408 
L 106.298182 285.408 
L 122.530909 285.408 
L 138.763636 285.408 
L 154.996364 285.408 
L 171.229091 285.408 
L 187.461818 285.408 
L 203.694545 285.408 
L 219.927273 285.408 
L 236.16 285.408 
L 252.392727 285.408 
L 268.625455 285.408 
L 284.858182 285.408 
L 301.090909 285.408 
L 317.323636 285.408 
L 333.556364 285.408 
L 349.789091 285.408 
L 366.021818 285.408 
L 382.254545 285.408 
L 398.487273 285.408 
" style="fill:none;stroke:#0e4db3;stroke-linecap:square;stroke-width:3;"/>
   </g>
   <g id="line2d_56">
    <path clip-path="url(#p66b45731d6)" d="M 73.832727 285.408 
L 90.065455 285.408 
L 106.298182 285.408 
L 122.530909 285.408 
L 138.763636 285.408 
L 154.996364 285.408 
L 171.229091 285.408 
L 187.461818 285.408 
L 203.694545 285.408 
L 219.927273 285.408 
L 236.16 285.408 
L 252.392727 285.408 
L 268.625455 285.408 
L 284.858182 285.408 
L 301.090909 285.408 
L 317.323636 285.408 
L 333.556364 285.408 
L 349.789091 285.408 
L 366.021818 285.408 
L 382.254545 285.408 
L 398.487273 285.408 
" style="fill:none;stroke:#d44e4e;stroke-linecap:square;stroke-width:3;"/>
   </g>
   <g id="line2d_57">
    <path clip-path="url(#p66b45731d6)" d="M 73.832727 80.666095 
L 90.065455 143.910546 
L 106.298182 204.836292 
L 122.530909 213.765849 
L 138.763636 210.299396 
L 154.996364 212.473183 
L 171.229091 208.396689 
L 187.461818 219.007411 
L 203.694545 229.161794 
L 219.927273 190.778758 
L 236.16 181.100149 
L 252.392727 169.661819 
L 268.625455 197.467707 
L 284.858182 167.819957 
L 301.090909 125.123604 
L 317.323636 71.574235 
L 333.556364 29.216117 
L 349.789091 38.237009 
L 366.021818 48.944885 
L 382.254545 62.926209 
L 398.487273 80.666095 
" style="fill:none;stroke:#0e4db3;stroke-linecap:square;stroke-width:3;"/>
   </g>
   <g id="line2d_58">
    <path clip-path="url(#p66b45731d6)" d="M 73.832727 285.408 
L 90.065455 285.408 
L 106.298182 285.408 
L 122.530909 285.408 
L 138.763636 285.408 
L 154.996364 285.408 
L 171.229091 285.408 
L 187.461818 285.408 
L 203.694545 285.408 
L 219.927273 285.408 
L 236.16 285.408 
L 252.392727 285.408 
L 268.625455 285.408 
L 284.858182 285.408 
L 301.090909 285.408 
L 317.323636 229.386147 
L 333.556364 256.403693 
L 349.789091 231.390219 
L 366.021818 226.484435 
L 382.254545 249.606123 
L 398.487273 285.408 
" style="fill:none;stroke:#d44e4e;stroke-linecap:square;stroke-width:3;"/>
   </g>
   <g id="line2d_59">
    <path clip-path="url(#p66b45731d6)" d="M 73.832727 285.408 
L 90.065455 285.408 
L 106.298182 285.408 
L 122.530909 285.408 
L 138.763636 285.408 
L 154.996364 285.408 
L 171.229091 285.408 
L 187.461818 285.408 
L 203.694545 285.408 
L 219.927273 285.408 
L 236.16 285.408 
L 252.392727 285.408 
L 268.625455 285.408 
L 284.858182 285.408 
L 301.090909 285.408 
L 317.323636 285.408 
L 333.556364 285.408 
L 349.789091 285.408 
L 366.021818 285.408 
L 382.254545 285.408 
L 398.487273 285.408 
" style="fill:none;stroke:#0e4db3;stroke-linecap:square;stroke-width:3;"/>
   </g>
   <g id="line2d_60">
    <path clip-path="url(#p66b45731d6)" d="M 73.832727 285.408 
L 90.065455 285.408 
L 106.298182 285.408 
L 122.530909 285.408 
L 138.763636 285.408 
L 154.996364 285.408 
L 171.229091 285.408 
L 187.461818 285.408 
L 203.694545 285.408 
L 219.927273 285.408 
L 236.16 285.408 
L 252.392727 285.408 
L 268.625455 285.408 
L 284.858182 285.408 
L 301.090909 285.408 
L 317.323636 285.408 
L 333.556364 285.408 
L 349.789091 285.408 
L 366.021818 285.408 
L 382.254545 285.408 
L 398.487273 285.408 
" style="fill:none;stroke:#d44e4e;stroke-linecap:square;stroke-width:3;"/>
   </g>
   <g id="line2d_61">
    <path clip-path="url(#p66b45731d6)" d="M 73.832727 285.408 
L 90.065455 285.408 
L 106.298182 285.408 
L 122.530909 285.408 
L 138.763636 285.408 
L 154.996364 285.408 
L 171.229091 285.408 
L 187.461818 285.408 
L 203.694545 285.408 
L 219.927273 285.408 
L 236.16 285.408 
L 252.392727 285.408 
L 268.625455 285.408 
L 284.858182 285.408 
L 301.090909 285.408 
L 317.323636 285.408 
L 333.556364 285.408 
L 349.789091 285.408 
L 366.021818 285.408 
L 382.254545 285.408 
L 398.487273 285.408 
" style="fill:none;stroke:#0e4db3;stroke-linecap:square;stroke-width:3;"/>
   </g>
   <g id="line2d_62">
    <path clip-path="url(#p66b45731d6)" d="M 73.832727 285.408 
L 90.065455 285.408 
L 106.298182 285.408 
L 122.530909 285.408 
L 138.763636 285.408 
L 154.996364 285.408 
L 171.229091 285.408 
L 187.461818 285.408 
L 203.694545 285.408 
L 219.927273 285.408 
L 236.16 285.408 
L 252.392727 285.408 
L 268.625455 285.408 
L 284.858182 285.408 
L 301.090909 285.408 
L 317.323636 285.408 
L 333.556364 285.408 
L 349.789091 285.408 
L 366.021818 285.408 
L 382.254545 285.408 
L 398.487273 285.408 
" style="fill:none;stroke:#d44e4e;stroke-linecap:square;stroke-width:3;"/>
   </g>
   <g id="line2d_63">
    <path clip-path="url(#p66b45731d6)" d="M 73.832727 259.597241 
L 90.065455 259.685598 
L 106.298182 264.770845 
L 122.530909 271.633497 
L 138.763636 271.560155 
L 154.996364 272.729858 
L 171.229091 264.343383 
L 187.461818 244.417115 
L 203.694545 202.818078 
L 219.927273 173.290723 
L 236.16 210.198652 
L 252.392727 156.043661 
L 268.625455 162.904497 
L 284.858182 165.348311 
L 301.090909 165.873803 
L 317.323636 183.349804 
L 333.556364 194.347451 
L 349.789091 213.973864 
L 366.021818 224.224927 
L 382.254545 241.796762 
L 398.487273 259.597241 
" style="fill:none;stroke:#0e4db3;stroke-linecap:square;stroke-width:3;"/>
   </g>
   <g id="line2d_64">
    <path clip-path="url(#p66b45731d6)" d="M 73.832727 284.151805 
L 90.065455 276.125523 
L 106.298182 283.517882 
L 122.530909 279.490628 
L 138.763636 279.095248 
L 154.996364 279.655826 
L 171.229091 284.23214 
L 187.461818 284.502351 
L 203.694545 284.354616 
L 219.927273 248.617136 
L 236.16 283.683988 
L 252.392727 233.365352 
L 268.625455 243.480832 
L 284.858182 255.079244 
L 301.090909 261.040046 
L 317.323636 253.950069 
L 333.556364 263.712982 
L 349.789091 256.678823 
L 366.021818 264.119182 
L 382.254545 268.674712 
L 398.487273 284.151805 
" style="fill:none;stroke:#d44e4e;stroke-linecap:square;stroke-width:3;"/>
   </g>
   <g id="line2d_65">
    <path clip-path="url(#p66b45731d6)" d="M 73.832727 285.408 
L 90.065455 285.408 
L 106.298182 285.408 
L 122.530909 285.408 
L 138.763636 285.408 
L 154.996364 285.408 
L 171.229091 285.408 
L 187.461818 285.408 
L 203.694545 285.408 
L 219.927273 285.408 
L 236.16 285.408 
L 252.392727 285.408 
L 268.625455 285.408 
L 284.858182 285.408 
L 301.090909 285.408 
L 317.323636 285.408 
L 333.556364 285.408 
L 349.789091 285.408 
L 366.021818 285.408 
L 382.254545 285.408 
L 398.487273 285.408 
" style="fill:none;stroke:#0e4db3;stroke-linecap:square;stroke-width:3;"/>
   </g>
   <g id="line2d_66">
    <path clip-path="url(#p66b45731d6)" d="M 73.832727 285.408 
L 90.065455 285.408 
L 106.298182 285.408 
L 122.530909 285.408 
L 138.763636 285.408 
L 154.996364 285.408 
L 171.229091 285.408 
L 187.461818 285.408 
L 203.694545 285.408 
L 219.927273 285.408 
L 236.16 285.408 
L 252.392727 285.408 
L 268.625455 285.408 
L 284.858182 285.408 
L 301.090909 285.408 
L 317.323636 285.408 
L 333.556364 285.408 
L 349.789091 285.408 
L 366.021818 285.408 
L 382.254545 285.408 
L 398.487273 285.408 
" style="fill:none;stroke:#d44e4e;stroke-linecap:square;stroke-width:3;"/>
   </g>
   <g id="line2d_67">
    <path clip-path="url(#p66b45731d6)" d="M 73.832727 285.408 
L 90.065455 285.408 
L 106.298182 285.408 
L 122.530909 285.408 
L 138.763636 285.408 
L 154.996364 285.408 
L 171.229091 285.408 
L 187.461818 285.408 
L 203.694545 285.408 
L 219.927273 285.408 
L 236.16 285.408 
L 252.392727 285.408 
L 268.625455 285.408 
L 284.858182 285.408 
L 301.090909 285.408 
L 317.323636 285.408 
L 333.556364 285.408 
L 349.789091 285.408 
L 366.021818 285.408 
L 382.254545 285.408 
L 398.487273 285.408 
" style="fill:none;stroke:#0e4db3;stroke-linecap:square;stroke-width:3;"/>
   </g>
   <g id="line2d_68">
    <path clip-path="url(#p66b45731d6)" d="M 73.832727 285.408 
L 90.065455 285.408 
L 106.298182 285.408 
L 122.530909 285.408 
L 138.763636 285.408 
L 154.996364 285.408 
L 171.229091 285.408 
L 187.461818 285.408 
L 203.694545 285.408 
L 219.927273 285.408 
L 236.16 285.408 
L 252.392727 285.408 
L 268.625455 285.408 
L 284.858182 285.408 
L 301.090909 285.408 
L 317.323636 285.408 
L 333.556364 285.408 
L 349.789091 285.408 
L 366.021818 285.408 
L 382.254545 285.408 
L 398.487273 285.408 
" style="fill:none;stroke:#d44e4e;stroke-linecap:square;stroke-width:3;"/>
   </g>
   <g id="line2d_69">
    <path clip-path="url(#p66b45731d6)" d="M 73.832727 285.408 
L 90.065455 285.408 
L 106.298182 285.408 
L 122.530909 285.408 
L 138.763636 285.408 
L 154.996364 285.408 
L 171.229091 285.408 
L 187.461818 285.408 
L 203.694545 285.408 
L 219.927273 285.408 
L 236.16 285.408 
L 252.392727 285.408 
L 268.625455 285.408 
L 284.858182 285.408 
L 301.090909 285.408 
L 317.323636 285.408 
L 333.556364 285.408 
L 349.789091 285.408 
L 366.021818 285.408 
L 382.254545 285.408 
L 398.487273 285.408 
" style="fill:none;stroke:#0e4db3;stroke-linecap:square;stroke-width:3;"/>
   </g>
   <g id="line2d_70">
    <path clip-path="url(#p66b45731d6)" d="M 73.832727 285.408 
L 90.065455 285.408 
L 106.298182 285.408 
L 122.530909 285.408 
L 138.763636 285.408 
L 154.996364 285.408 
L 171.229091 285.408 
L 187.461818 285.408 
L 203.694545 285.408 
L 219.927273 285.408 
L 236.16 285.408 
L 252.392727 285.408 
L 268.625455 285.408 
L 284.858182 285.408 
L 301.090909 285.408 
L 317.323636 285.408 
L 333.556364 285.408 
L 349.789091 285.408 
L 366.021818 285.408 
L 382.254545 285.408 
L 398.487273 285.408 
" style="fill:none;stroke:#d44e4e;stroke-linecap:square;stroke-width:3;"/>
   </g>
   <g id="line2d_71">
    <path clip-path="url(#p66b45731d6)" d="M 73.832727 285.408 
L 90.065455 285.408 
L 106.298182 285.408 
L 122.530909 285.408 
L 138.763636 285.408 
L 154.996364 285.408 
L 171.229091 285.408 
L 187.461818 285.408 
L 203.694545 285.408 
L 219.927273 285.408 
L 236.16 285.408 
L 252.392727 285.408 
L 268.625455 285.408 
L 284.858182 285.408 
L 301.090909 285.408 
L 317.323636 285.408 
L 333.556364 285.408 
L 349.789091 285.408 
L 366.021818 285.408 
L 382.254545 285.408 
L 398.487273 285.408 
" style="fill:none;stroke:#0e4db3;stroke-linecap:square;stroke-width:3;"/>
   </g>
   <g id="line2d_72">
    <path clip-path="url(#p66b45731d6)" d="M 73.832727 285.408 
L 90.065455 285.408 
L 106.298182 285.408 
L 122.530909 285.408 
L 138.763636 285.408 
L 154.996364 285.408 
L 171.229091 285.408 
L 187.461818 285.408 
L 203.694545 285.408 
L 219.927273 285.408 
L 236.16 285.408 
L 252.392727 285.408 
L 268.625455 285.408 
L 284.858182 285.408 
L 301.090909 285.408 
L 317.323636 285.408 
L 333.556364 285.408 
L 349.789091 285.408 
L 366.021818 285.408 
L 382.254545 285.408 
L 398.487273 285.408 
" style="fill:none;stroke:#d44e4e;stroke-linecap:square;stroke-width:3;"/>
   </g>
   <g id="line2d_73">
    <path clip-path="url(#p66b45731d6)" d="M 73.832727 210.969342 
L 90.065455 188.461434 
L 106.298182 149.18793 
L 122.530909 155.274675 
L 138.763636 119.799739 
L 154.996364 122.327066 
L 171.229091 147.075392 
L 187.461818 198.212688 
L 203.694545 174.191035 
L 219.927273 173.7796 
L 236.16 201.453087 
L 252.392727 184.880382 
L 268.625455 191.735418 
L 284.858182 213.977046 
L 301.090909 215.885233 
L 317.323636 241.32727 
L 333.556364 230.905125 
L 349.789091 222.831846 
L 366.021818 206.788042 
L 382.254545 206.687317 
L 398.487273 210.969342 
" style="fill:none;stroke:#0e4db3;stroke-linecap:square;stroke-width:3;"/>
   </g>
   <g id="line2d_74">
    <path clip-path="url(#p66b45731d6)" d="M 73.832727 285.408 
L 90.065455 285.408 
L 106.298182 285.408 
L 122.530909 285.408 
L 138.763636 285.408 
L 154.996364 285.408 
L 171.229091 285.408 
L 187.461818 285.408 
L 203.694545 285.408 
L 219.927273 285.408 
L 236.16 285.408 
L 252.392727 285.408 
L 268.625455 285.408 
L 284.858182 285.408 
L 301.090909 285.408 
L 317.323636 285.408 
L 333.556364 285.408 
L 349.789091 285.408 
L 366.021818 285.408 
L 382.254545 285.408 
L 398.487273 285.408 
" style="fill:none;stroke:#d44e4e;stroke-linecap:square;stroke-width:3;"/>
   </g>
   <g id="line2d_75">
    <path clip-path="url(#p66b45731d6)" d="M 73.832727 285.408 
L 90.065455 285.408 
L 106.298182 285.408 
L 122.530909 285.408 
L 138.763636 285.408 
L 154.996364 285.408 
L 171.229091 285.408 
L 187.461818 285.408 
L 203.694545 285.408 
L 219.927273 285.408 
L 236.16 285.408 
L 252.392727 285.408 
L 268.625455 285.408 
L 284.858182 285.408 
L 301.090909 285.408 
L 317.323636 285.408 
L 333.556364 285.408 
L 349.789091 285.408 
L 366.021818 285.408 
L 382.254545 285.408 
L 398.487273 285.408 
" style="fill:none;stroke:#0e4db3;stroke-linecap:square;stroke-width:3;"/>
   </g>
   <g id="line2d_76">
    <path clip-path="url(#p66b45731d6)" d="M 73.832727 285.408 
L 90.065455 285.408 
L 106.298182 285.408 
L 122.530909 285.408 
L 138.763636 285.408 
L 154.996364 285.408 
L 171.229091 285.408 
L 187.461818 285.408 
L 203.694545 285.408 
L 219.927273 285.408 
L 236.16 285.408 
L 252.392727 285.408 
L 268.625455 285.408 
L 284.858182 285.408 
L 301.090909 285.408 
L 317.323636 285.408 
L 333.556364 285.408 
L 349.789091 285.408 
L 366.021818 285.408 
L 382.254545 285.408 
L 398.487273 285.408 
" style="fill:none;stroke:#d44e4e;stroke-linecap:square;stroke-width:3;"/>
   </g>
   <g id="line2d_77">
    <path clip-path="url(#p66b45731d6)" d="M 73.832727 285.408 
L 90.065455 285.408 
L 106.298182 285.408 
L 122.530909 285.408 
L 138.763636 285.408 
L 154.996364 285.408 
L 171.229091 285.408 
L 187.461818 285.408 
L 203.694545 285.408 
L 219.927273 285.408 
L 236.16 285.408 
L 252.392727 285.408 
L 268.625455 285.408 
L 284.858182 285.408 
L 301.090909 285.408 
L 317.323636 285.408 
L 333.556364 285.408 
L 349.789091 285.408 
L 366.021818 285.408 
L 382.254545 285.408 
L 398.487273 285.408 
" style="fill:none;stroke:#0e4db3;stroke-linecap:square;stroke-width:3;"/>
   </g>
   <g id="line2d_78">
    <path clip-path="url(#p66b45731d6)" d="M 73.832727 285.408 
L 90.065455 285.408 
L 106.298182 285.408 
L 122.530909 285.408 
L 138.763636 285.408 
L 154.996364 285.408 
L 171.229091 285.408 
L 187.461818 285.408 
L 203.694545 285.408 
L 219.927273 285.408 
L 236.16 285.408 
L 252.392727 285.408 
L 268.625455 285.408 
L 284.858182 285.408 
L 301.090909 285.408 
L 317.323636 285.408 
L 333.556364 285.408 
L 349.789091 285.408 
L 366.021818 285.408 
L 382.254545 285.408 
L 398.487273 285.408 
" style="fill:none;stroke:#d44e4e;stroke-linecap:square;stroke-width:3;"/>
   </g>
   <g id="line2d_79">
    <path clip-path="url(#p66b45731d6)" d="M 73.832727 285.408 
L 90.065455 285.408 
L 106.298182 285.408 
L 122.530909 285.408 
L 138.763636 285.408 
L 154.996364 285.408 
L 171.229091 285.408 
L 187.461818 285.408 
L 203.694545 285.408 
L 219.927273 285.408 
L 236.16 285.408 
L 252.392727 285.408 
L 268.625455 285.408 
L 284.858182 285.408 
L 301.090909 285.408 
L 317.323636 285.408 
L 333.556364 285.408 
L 349.789091 285.408 
L 366.021818 285.408 
L 382.254545 285.408 
L 398.487273 285.408 
" style="fill:none;stroke:#0e4db3;stroke-linecap:square;stroke-width:3;"/>
   </g>
   <g id="line2d_80">
    <path clip-path="url(#p66b45731d6)" d="M 73.832727 285.408 
L 90.065455 285.408 
L 106.298182 285.408 
L 122.530909 285.408 
L 138.763636 285.408 
L 154.996364 285.408 
L 171.229091 285.408 
L 187.461818 285.408 
L 203.694545 285.408 
L 219.927273 285.408 
L 236.16 285.408 
L 252.392727 285.408 
L 268.625455 285.408 
L 284.858182 285.408 
L 301.090909 285.408 
L 317.323636 285.408 
L 333.556364 285.408 
L 349.789091 285.408 
L 366.021818 285.408 
L 382.254545 285.408 
L 398.487273 285.408 
" style="fill:none;stroke:#d44e4e;stroke-linecap:square;stroke-width:3;"/>
   </g>
   <g id="line2d_81">
    <path clip-path="url(#p66b45731d6)" d="M 73.832727 228.994789 
L 90.065455 200.627244 
L 106.298182 243.048918 
L 122.530909 240.975764 
L 138.763636 224.071125 
L 154.996364 221.14665 
L 171.229091 204.737948 
L 187.461818 161.428395 
L 203.694545 132.533399 
L 219.927273 113.738055 
L 236.16 136.899168 
L 252.392727 80.785831 
L 268.625455 68.75837 
L 284.858182 107.110022 
L 301.090909 109.155696 
L 317.323636 168.63837 
L 333.556364 196.507517 
L 349.789091 173.443886 
L 366.021818 176.103567 
L 382.254545 184.611892 
L 398.487273 228.994789 
" style="fill:none;stroke:#0e4db3;stroke-linecap:square;stroke-width:3;"/>
   </g>
   <g id="line2d_82">
    <path clip-path="url(#p66b45731d6)" d="M 73.832727 285.408 
L 90.065455 285.408 
L 106.298182 285.408 
L 122.530909 285.408 
L 138.763636 285.408 
L 154.996364 285.408 
L 171.229091 285.408 
L 187.461818 285.408 
L 203.694545 285.408 
L 219.927273 285.408 
L 236.16 285.408 
L 252.392727 285.408 
L 268.625455 285.408 
L 284.858182 285.408 
L 301.090909 285.408 
L 317.323636 285.408 
L 333.556364 285.408 
L 349.789091 285.408 
L 366.021818 285.408 
L 382.254545 285.408 
L 398.487273 285.408 
" style="fill:none;stroke:#d44e4e;stroke-linecap:square;stroke-width:3;"/>
   </g>
   <g id="line2d_83">
    <path clip-path="url(#p66b45731d6)" d="M 73.832727 285.408 
L 90.065455 285.408 
L 106.298182 285.408 
L 122.530909 285.408 
L 138.763636 285.408 
L 154.996364 285.408 
L 171.229091 285.408 
L 187.461818 285.408 
L 203.694545 285.408 
L 219.927273 285.408 
L 236.16 285.408 
L 252.392727 285.408 
L 268.625455 285.408 
L 284.858182 285.408 
L 301.090909 285.408 
L 317.323636 285.408 
L 333.556364 285.408 
L 349.789091 285.408 
L 366.021818 285.408 
L 382.254545 285.408 
L 398.487273 285.408 
" style="fill:none;stroke:#0e4db3;stroke-linecap:square;stroke-width:3;"/>
   </g>
   <g id="line2d_84">
    <path clip-path="url(#p66b45731d6)" d="M 73.832727 285.408 
L 90.065455 285.408 
L 106.298182 285.408 
L 122.530909 285.408 
L 138.763636 285.408 
L 154.996364 285.408 
L 171.229091 285.408 
L 187.461818 285.408 
L 203.694545 285.408 
L 219.927273 285.408 
L 236.16 285.408 
L 252.392727 285.408 
L 268.625455 285.408 
L 284.858182 285.408 
L 301.090909 285.408 
L 317.323636 285.408 
L 333.556364 285.408 
L 349.789091 285.408 
L 366.021818 285.408 
L 382.254545 285.408 
L 398.487273 285.408 
" style="fill:none;stroke:#d44e4e;stroke-linecap:square;stroke-width:3;"/>
   </g>
   <g id="line2d_85">
    <path clip-path="url(#p66b45731d6)" d="M 73.832727 141.79723 
L 90.065455 120.585105 
L 106.298182 123.178099 
L 122.530909 142.676956 
L 138.763636 166.980616 
L 154.996364 176.036565 
L 171.229091 163.219495 
L 187.461818 181.38185 
L 203.694545 220.426392 
L 219.927273 243.267231 
L 236.16 249.013747 
L 252.392727 216.768439 
L 268.625455 230.174282 
L 284.858182 227.86891 
L 301.090909 169.878204 
L 317.323636 185.705725 
L 333.556364 175.516336 
L 349.789091 187.22034 
L 366.021818 169.697589 
L 382.254545 161.290018 
L 398.487273 141.79723 
" style="fill:none;stroke:#0e4db3;stroke-linecap:square;stroke-width:3;"/>
   </g>
   <g id="line2d_86">
    <path clip-path="url(#p66b45731d6)" d="M 73.832727 285.408 
L 90.065455 262.06667 
L 106.298182 246.618691 
L 122.530909 262.345451 
L 138.763636 285.408 
L 154.996364 285.408 
L 171.229091 258.398018 
L 187.461818 279.691141 
L 203.694545 285.408 
L 219.927273 285.408 
L 236.16 285.408 
L 252.392727 285.408 
L 268.625455 285.408 
L 284.858182 285.408 
L 301.090909 284.031893 
L 317.323636 285.408 
L 333.556364 285.408 
L 349.789091 254.356086 
L 366.021818 241.399748 
L 382.254545 255.685536 
L 398.487273 285.408 
" style="fill:none;stroke:#d44e4e;stroke-linecap:square;stroke-width:3;"/>
   </g>
   <g id="line2d_87">
    <path clip-path="url(#p66b45731d6)" d="M 73.832727 173.037362 
L 90.065455 179.632885 
L 106.298182 179.383768 
L 122.530909 176.175961 
L 138.763636 186.501216 
L 154.996364 220.68269 
L 171.229091 235.828952 
L 187.461818 246.561567 
L 203.694545 214.279686 
L 219.927273 141.462099 
L 236.16 109.169853 
L 252.392727 96.346224 
L 268.625455 114.026279 
L 284.858182 133.327742 
L 301.090909 127.291684 
L 317.323636 121.60192 
L 333.556364 141.458439 
L 349.789091 136.245046 
L 366.021818 162.989519 
L 382.254545 169.218662 
L 398.487273 173.037362 
" style="fill:none;stroke:#0e4db3;stroke-linecap:square;stroke-width:3;"/>
   </g>
   <g id="line2d_88">
    <path clip-path="url(#p66b45731d6)" d="M 73.832727 197.727729 
L 90.065455 200.804329 
L 106.298182 198.107534 
L 122.530909 201.009402 
L 138.763636 201.972372 
L 154.996364 234.676372 
L 171.229091 251.637901 
L 187.461818 249.441687 
L 203.694545 226.593629 
L 219.927273 179.749611 
L 236.16 153.414803 
L 252.392727 143.162304 
L 268.625455 151.887357 
L 284.858182 168.713608 
L 301.090909 160.920006 
L 317.323636 153.892703 
L 333.556364 169.011791 
L 349.789091 165.75755 
L 366.021818 182.731508 
L 382.254545 168.576806 
L 398.487273 197.727729 
" style="fill:none;stroke:#d44e4e;stroke-linecap:square;stroke-width:3;"/>
   </g>
   <g id="line2d_89">
    <path clip-path="url(#p66b45731d6)" d="M 73.832727 285.408 
L 90.065455 285.408 
L 106.298182 285.408 
L 122.530909 285.408 
L 138.763636 285.408 
L 154.996364 285.408 
L 171.229091 285.408 
L 187.461818 285.408 
L 203.694545 285.408 
L 219.927273 285.408 
L 236.16 285.408 
L 252.392727 285.408 
L 268.625455 285.408 
L 284.858182 285.408 
L 301.090909 285.408 
L 317.323636 285.408 
L 333.556364 285.408 
L 349.789091 285.408 
L 366.021818 285.408 
L 382.254545 285.408 
L 398.487273 285.408 
" style="fill:none;stroke:#0e4db3;stroke-linecap:square;stroke-width:3;"/>
   </g>
   <g id="line2d_90">
    <path clip-path="url(#p66b45731d6)" d="M 73.832727 285.408 
L 90.065455 285.408 
L 106.298182 285.408 
L 122.530909 285.408 
L 138.763636 285.408 
L 154.996364 285.408 
L 171.229091 285.408 
L 187.461818 285.408 
L 203.694545 285.408 
L 219.927273 285.408 
L 236.16 285.408 
L 252.392727 285.408 
L 268.625455 285.408 
L 284.858182 285.408 
L 301.090909 285.408 
L 317.323636 285.408 
L 333.556364 285.408 
L 349.789091 285.408 
L 366.021818 285.408 
L 382.254545 285.408 
L 398.487273 285.408 
" style="fill:none;stroke:#d44e4e;stroke-linecap:square;stroke-width:3;"/>
   </g>
   <g id="line2d_91">
    <path clip-path="url(#p66b45731d6)" d="M 73.832727 285.408 
L 90.065455 285.408 
L 106.298182 285.408 
L 122.530909 285.408 
L 138.763636 285.408 
L 154.996364 285.408 
L 171.229091 285.408 
L 187.461818 285.408 
L 203.694545 285.408 
L 219.927273 285.408 
L 236.16 285.408 
L 252.392727 285.408 
L 268.625455 285.408 
L 284.858182 285.408 
L 301.090909 285.408 
L 317.323636 285.408 
L 333.556364 285.408 
L 349.789091 285.408 
L 366.021818 285.408 
L 382.254545 285.408 
L 398.487273 285.408 
" style="fill:none;stroke:#0e4db3;stroke-linecap:square;stroke-width:3;"/>
   </g>
   <g id="line2d_92">
    <path clip-path="url(#p66b45731d6)" d="M 73.832727 285.408 
L 90.065455 285.408 
L 106.298182 285.408 
L 122.530909 285.408 
L 138.763636 285.408 
L 154.996364 285.408 
L 171.229091 285.408 
L 187.461818 285.408 
L 203.694545 285.408 
L 219.927273 285.408 
L 236.16 285.408 
L 252.392727 285.408 
L 268.625455 285.408 
L 284.858182 285.408 
L 301.090909 285.408 
L 317.323636 285.408 
L 333.556364 285.408 
L 349.789091 285.408 
L 366.021818 285.408 
L 382.254545 285.408 
L 398.487273 285.408 
" style="fill:none;stroke:#d44e4e;stroke-linecap:square;stroke-width:3;"/>
   </g>
   <g id="line2d_93">
    <path clip-path="url(#p66b45731d6)" d="M 73.832727 285.408 
L 90.065455 285.408 
L 106.298182 285.408 
L 122.530909 269.317188 
L 138.763636 255.353307 
L 154.996364 251.352505 
L 171.229091 264.029236 
L 187.461818 242.042859 
L 203.694545 198.954444 
L 219.927273 177.100677 
L 236.16 275.720846 
L 252.392727 121.777059 
L 268.625455 74.006969 
L 284.858182 81.941857 
L 301.090909 85.136202 
L 317.323636 145.229852 
L 333.556364 203.493907 
L 349.789091 266.380444 
L 366.021818 285.408 
L 382.254545 285.408 
L 398.487273 285.408 
" style="fill:none;stroke:#0e4db3;stroke-linecap:square;stroke-width:3;"/>
   </g>
   <g id="line2d_94">
    <path clip-path="url(#p66b45731d6)" d="M 73.832727 285.408 
L 90.065455 285.408 
L 106.298182 285.408 
L 122.530909 285.408 
L 138.763636 285.408 
L 154.996364 285.408 
L 171.229091 285.408 
L 187.461818 285.408 
L 203.694545 274.705495 
L 219.927273 266.081976 
L 236.16 285.408 
L 252.392727 229.165801 
L 268.625455 218.966874 
L 284.858182 199.541083 
L 301.090909 208.456515 
L 317.323636 237.923317 
L 333.556364 258.8683 
L 349.789091 285.408 
L 366.021818 285.408 
L 382.254545 285.408 
L 398.487273 285.408 
" style="fill:none;stroke:#d44e4e;stroke-linecap:square;stroke-width:3;"/>
   </g>
   <g id="line2d_95">
    <path clip-path="url(#p66b45731d6)" d="M 73.832727 122.869975 
L 90.065455 85.744242 
L 106.298182 68.33579 
L 122.530909 52.283296 
L 138.763636 35.226605 
L 154.996364 57.91308 
L 171.229091 80.273569 
L 187.461818 153.972638 
L 203.694545 162.549345 
L 219.927273 175.818058 
L 236.16 160.477025 
L 252.392727 147.371611 
L 268.625455 155.252959 
L 284.858182 131.838753 
L 301.090909 156.097887 
L 317.323636 167.816149 
L 333.556364 201.515012 
L 349.789091 189.94832 
L 366.021818 177.397313 
L 382.254545 150.356519 
L 398.487273 122.869975 
" style="fill:none;stroke:#0e4db3;stroke-linecap:square;stroke-width:3;"/>
   </g>
   <g id="line2d_96">
    <path clip-path="url(#p66b45731d6)" d="M 73.832727 285.408 
L 90.065455 256.994915 
L 106.298182 261.623407 
L 122.530909 228.136566 
L 138.763636 272.601622 
L 154.996364 283.351531 
L 171.229091 283.384391 
L 187.461818 285.408 
L 203.694545 285.408 
L 219.927273 285.408 
L 236.16 285.408 
L 252.392727 285.408 
L 268.625455 285.408 
L 284.858182 285.408 
L 301.090909 285.408 
L 317.323636 285.408 
L 333.556364 285.408 
L 349.789091 285.408 
L 366.021818 285.408 
L 382.254545 285.408 
L 398.487273 285.408 
" style="fill:none;stroke:#d44e4e;stroke-linecap:square;stroke-width:3;"/>
   </g>
   <g id="line2d_97">
    <path clip-path="url(#p66b45731d6)" d="M 73.832727 285.408 
L 90.065455 285.408 
L 106.298182 285.408 
L 122.530909 285.408 
L 138.763636 285.408 
L 154.996364 285.408 
L 171.229091 285.408 
L 187.461818 285.408 
L 203.694545 285.408 
L 219.927273 285.408 
L 236.16 285.408 
L 252.392727 285.408 
L 268.625455 285.408 
L 284.858182 285.408 
L 301.090909 285.408 
L 317.323636 285.408 
L 333.556364 285.408 
L 349.789091 285.408 
L 366.021818 285.408 
L 382.254545 285.408 
L 398.487273 285.408 
" style="fill:none;stroke:#0e4db3;stroke-linecap:square;stroke-width:3;"/>
   </g>
   <g id="line2d_98">
    <path clip-path="url(#p66b45731d6)" d="M 73.832727 285.408 
L 90.065455 285.408 
L 106.298182 285.408 
L 122.530909 285.408 
L 138.763636 285.408 
L 154.996364 285.408 
L 171.229091 285.408 
L 187.461818 285.408 
L 203.694545 285.408 
L 219.927273 285.408 
L 236.16 285.408 
L 252.392727 285.408 
L 268.625455 285.408 
L 284.858182 285.408 
L 301.090909 285.408 
L 317.323636 285.408 
L 333.556364 285.408 
L 349.789091 285.408 
L 366.021818 285.408 
L 382.254545 285.408 
L 398.487273 285.408 
" style="fill:none;stroke:#d44e4e;stroke-linecap:square;stroke-width:3;"/>
   </g>
   <g id="line2d_99">
    <path clip-path="url(#p66b45731d6)" d="M 73.832727 35.882988 
L 90.065455 76.543819 
L 106.298182 121.283216 
L 122.530909 179.489005 
L 138.763636 220.56973 
L 154.996364 254.279484 
L 171.229091 217.313043 
L 187.461818 173.649802 
L 203.694545 130.548362 
L 219.927273 68.992933 
L 236.16 58.396455 
L 252.392727 56.97872 
L 268.625455 80.084922 
L 284.858182 117.912286 
L 301.090909 77.584278 
L 317.323636 101.350606 
L 333.556364 66.003541 
L 349.789091 79.125103 
L 366.021818 54.070598 
L 382.254545 22.099576 
L 398.487273 35.882988 
" style="fill:none;stroke:#0e4db3;stroke-linecap:square;stroke-width:3;"/>
   </g>
   <g id="line2d_100">
    <path clip-path="url(#p66b45731d6)" d="M 73.832727 205.452328 
L 90.065455 200.177658 
L 106.298182 231.600082 
L 122.530909 285.408 
L 138.763636 285.408 
L 154.996364 285.408 
L 171.229091 285.408 
L 187.461818 285.408 
L 203.694545 285.408 
L 219.927273 263.369134 
L 236.16 252.151576 
L 252.392727 214.623173 
L 268.625455 230.831777 
L 284.858182 244.125305 
L 301.090909 191.81779 
L 317.323636 187.741783 
L 333.556364 197.328579 
L 349.789091 167.181158 
L 366.021818 145.952135 
L 382.254545 144.567114 
L 398.487273 205.452328 
" style="fill:none;stroke:#d44e4e;stroke-linecap:square;stroke-width:3;"/>
   </g>
   <g id="line2d_101">
    <path clip-path="url(#p66b45731d6)" d="M 73.832727 285.408 
L 90.065455 285.408 
L 106.298182 285.408 
L 122.530909 285.408 
L 138.763636 285.408 
L 154.996364 285.408 
L 171.229091 285.408 
L 187.461818 285.408 
L 203.694545 285.408 
L 219.927273 285.408 
L 236.16 285.408 
L 252.392727 285.408 
L 268.625455 285.408 
L 284.858182 285.408 
L 301.090909 285.408 
L 317.323636 285.408 
L 333.556364 285.408 
L 349.789091 285.408 
L 366.021818 285.408 
L 382.254545 285.408 
L 398.487273 285.408 
" style="fill:none;stroke:#0e4db3;stroke-linecap:square;stroke-width:3;"/>
   </g>
   <g id="line2d_102">
    <path clip-path="url(#p66b45731d6)" d="M 73.832727 285.408 
L 90.065455 285.408 
L 106.298182 285.408 
L 122.530909 285.408 
L 138.763636 285.408 
L 154.996364 285.408 
L 171.229091 285.408 
L 187.461818 285.408 
L 203.694545 285.408 
L 219.927273 285.408 
L 236.16 285.408 
L 252.392727 285.408 
L 268.625455 285.408 
L 284.858182 285.408 
L 301.090909 285.408 
L 317.323636 285.408 
L 333.556364 285.408 
L 349.789091 285.408 
L 366.021818 285.408 
L 382.254545 285.408 
L 398.487273 285.408 
" style="fill:none;stroke:#d44e4e;stroke-linecap:square;stroke-width:3;"/>
   </g>
   <g id="line2d_103">
    <path clip-path="url(#p66b45731d6)" d="M 73.832727 145.812479 
L 90.065455 124.163841 
L 106.298182 111.79103 
L 122.530909 110.079068 
L 138.763636 96.432033 
L 154.996364 100.0769 
L 171.229091 107.86637 
L 187.461818 131.304988 
L 203.694545 142.001803 
L 219.927273 160.116231 
L 236.16 166.40755 
L 252.392727 172.757115 
L 268.625455 182.671797 
L 284.858182 188.909177 
L 301.090909 177.803087 
L 317.323636 170.835253 
L 333.556364 147.994187 
L 349.789091 161.910676 
L 366.021818 143.769955 
L 382.254545 144.117824 
L 398.487273 145.812479 
" style="fill:none;stroke:#0e4db3;stroke-linecap:square;stroke-width:3;"/>
   </g>
   <g id="line2d_104">
    <path clip-path="url(#p66b45731d6)" d="M 73.832727 200.969685 
L 90.065455 190.287666 
L 106.298182 189.27262 
L 122.530909 177.888414 
L 138.763636 178.434251 
L 154.996364 187.710728 
L 171.229091 178.300747 
L 187.461818 186.628059 
L 203.694545 201.072597 
L 219.927273 199.949849 
L 236.16 202.410822 
L 252.392727 202.57842 
L 268.625455 200.861251 
L 284.858182 211.049848 
L 301.090909 218.275489 
L 317.323636 209.873666 
L 333.556364 204.734826 
L 349.789091 176.631505 
L 366.021818 163.699387 
L 382.254545 178.956695 
L 398.487273 200.969685 
" style="fill:none;stroke:#d44e4e;stroke-linecap:square;stroke-width:3;"/>
   </g>
   <g id="line2d_105">
    <path clip-path="url(#p66b45731d6)" d="M 73.832727 285.408 
L 90.065455 285.408 
L 106.298182 285.408 
L 122.530909 285.408 
L 138.763636 285.408 
L 154.996364 285.408 
L 171.229091 285.408 
L 187.461818 285.408 
L 203.694545 285.408 
L 219.927273 285.408 
L 236.16 285.408 
L 252.392727 285.408 
L 268.625455 285.408 
L 284.858182 285.408 
L 301.090909 285.408 
L 317.323636 285.408 
L 333.556364 285.408 
L 349.789091 285.408 
L 366.021818 285.408 
L 382.254545 285.408 
L 398.487273 285.408 
" style="fill:none;stroke:#0e4db3;stroke-linecap:square;stroke-width:3;"/>
   </g>
   <g id="line2d_106">
    <path clip-path="url(#p66b45731d6)" d="M 73.832727 285.408 
L 90.065455 285.408 
L 106.298182 285.408 
L 122.530909 285.408 
L 138.763636 285.408 
L 154.996364 285.408 
L 171.229091 285.408 
L 187.461818 285.408 
L 203.694545 285.408 
L 219.927273 285.408 
L 236.16 285.408 
L 252.392727 285.408 
L 268.625455 285.408 
L 284.858182 285.408 
L 301.090909 285.408 
L 317.323636 285.408 
L 333.556364 285.408 
L 349.789091 285.408 
L 366.021818 285.408 
L 382.254545 285.408 
L 398.487273 285.408 
" style="fill:none;stroke:#d44e4e;stroke-linecap:square;stroke-width:3;"/>
   </g>
   <g id="line2d_107">
    <path clip-path="url(#p66b45731d6)" d="M 73.832727 157.615708 
L 90.065455 135.235865 
L 106.298182 131.526516 
L 122.530909 170.75138 
L 138.763636 182.222581 
L 154.996364 186.456079 
L 171.229091 164.284404 
L 187.461818 162.814657 
L 203.694545 173.058013 
L 219.927273 193.598709 
L 236.16 175.557564 
L 252.392727 166.687074 
L 268.625455 126.156466 
L 284.858182 126.73056 
L 301.090909 108.048828 
L 317.323636 110.51649 
L 333.556364 116.460513 
L 349.789091 145.765906 
L 366.021818 145.262659 
L 382.254545 152.467176 
L 398.487273 157.615708 
" style="fill:none;stroke:#0e4db3;stroke-linecap:square;stroke-width:3;"/>
   </g>
   <g id="line2d_108">
    <path clip-path="url(#p66b45731d6)" d="M 73.832727 225.176626 
L 90.065455 202.037502 
L 106.298182 193.307372 
L 122.530909 220.061568 
L 138.763636 236.103552 
L 154.996364 232.266392 
L 171.229091 212.421945 
L 187.461818 204.677691 
L 203.694545 205.391848 
L 219.927273 222.43455 
L 236.16 219.578471 
L 252.392727 219.874848 
L 268.625455 199.983563 
L 284.858182 199.235645 
L 301.090909 190.829362 
L 317.323636 192.061692 
L 333.556364 197.857091 
L 349.789091 192.096286 
L 366.021818 176.944493 
L 382.254545 201.587277 
L 398.487273 225.176626 
" style="fill:none;stroke:#d44e4e;stroke-linecap:square;stroke-width:3;"/>
   </g>
   <g id="line2d_109">
    <path clip-path="url(#p66b45731d6)" d="M 73.832727 199.536914 
L 90.065455 187.846483 
L 106.298182 142.429061 
L 122.530909 139.35436 
L 138.763636 127.638405 
L 154.996364 149.436631 
L 171.229091 209.357791 
L 187.461818 229.977357 
L 203.694545 243.534655 
L 219.927273 238.083957 
L 236.16 203.692968 
L 252.392727 225.132272 
L 268.625455 192.807377 
L 284.858182 168.989982 
L 301.090909 150.926565 
L 317.323636 176.809544 
L 333.556364 194.379229 
L 349.789091 228.403328 
L 366.021818 212.054976 
L 382.254545 213.678506 
L 398.487273 199.536914 
" style="fill:none;stroke:#0e4db3;stroke-linecap:square;stroke-width:3;"/>
   </g>
   <g id="line2d_110">
    <path clip-path="url(#p66b45731d6)" d="M 73.832727 285.408 
L 90.065455 248.838117 
L 106.298182 239.679471 
L 122.530909 228.208075 
L 138.763636 249.922 
L 154.996364 271.869304 
L 171.229091 285.408 
L 187.461818 285.408 
L 203.694545 285.408 
L 219.927273 285.408 
L 236.16 285.408 
L 252.392727 285.408 
L 268.625455 285.408 
L 284.858182 274.568887 
L 301.090909 251.855785 
L 317.323636 272.325691 
L 333.556364 281.674619 
L 349.789091 243.377267 
L 366.021818 285.408 
L 382.254545 249.066375 
L 398.487273 285.408 
" style="fill:none;stroke:#d44e4e;stroke-linecap:square;stroke-width:3;"/>
   </g>
   <g id="line2d_111">
    <path clip-path="url(#p66b45731d6)" d="M 73.832727 285.408 
L 90.065455 285.408 
L 106.298182 285.408 
L 122.530909 285.408 
L 138.763636 285.408 
L 154.996364 285.408 
L 171.229091 285.408 
L 187.461818 285.408 
L 203.694545 285.408 
L 219.927273 285.408 
L 236.16 285.408 
L 252.392727 285.408 
L 268.625455 285.408 
L 284.858182 285.408 
L 301.090909 285.408 
L 317.323636 285.408 
L 333.556364 285.408 
L 349.789091 285.408 
L 366.021818 285.408 
L 382.254545 285.408 
L 398.487273 285.408 
" style="fill:none;stroke:#0e4db3;stroke-linecap:square;stroke-width:3;"/>
   </g>
   <g id="line2d_112">
    <path clip-path="url(#p66b45731d6)" d="M 73.832727 285.408 
L 90.065455 285.408 
L 106.298182 285.408 
L 122.530909 285.408 
L 138.763636 285.408 
L 154.996364 285.408 
L 171.229091 285.408 
L 187.461818 285.408 
L 203.694545 285.408 
L 219.927273 285.408 
L 236.16 285.408 
L 252.392727 285.408 
L 268.625455 285.408 
L 284.858182 285.408 
L 301.090909 285.408 
L 317.323636 285.408 
L 333.556364 285.408 
L 349.789091 285.408 
L 366.021818 285.408 
L 382.254545 285.408 
L 398.487273 285.408 
" style="fill:none;stroke:#d44e4e;stroke-linecap:square;stroke-width:3;"/>
   </g>
   <g id="line2d_113">
    <path clip-path="url(#p66b45731d6)" d="M 73.832727 285.408 
L 90.065455 285.408 
L 106.298182 285.408 
L 122.530909 285.408 
L 138.763636 285.408 
L 154.996364 285.408 
L 171.229091 285.408 
L 187.461818 285.408 
L 203.694545 285.408 
L 219.927273 285.408 
L 236.16 285.408 
L 252.392727 285.408 
L 268.625455 285.408 
L 284.858182 285.408 
L 301.090909 285.408 
L 317.323636 285.408 
L 333.556364 285.408 
L 349.789091 285.408 
L 366.021818 285.408 
L 382.254545 285.408 
L 398.487273 285.408 
" style="fill:none;stroke:#0e4db3;stroke-linecap:square;stroke-width:3;"/>
   </g>
   <g id="line2d_114">
    <path clip-path="url(#p66b45731d6)" d="M 73.832727 285.408 
L 90.065455 285.408 
L 106.298182 285.408 
L 122.530909 285.408 
L 138.763636 285.408 
L 154.996364 285.408 
L 171.229091 285.408 
L 187.461818 285.408 
L 203.694545 285.408 
L 219.927273 285.408 
L 236.16 285.408 
L 252.392727 285.408 
L 268.625455 285.408 
L 284.858182 285.408 
L 301.090909 285.408 
L 317.323636 285.408 
L 333.556364 285.408 
L 349.789091 285.408 
L 366.021818 285.408 
L 382.254545 285.408 
L 398.487273 285.408 
" style="fill:none;stroke:#d44e4e;stroke-linecap:square;stroke-width:3;"/>
   </g>
   <g id="line2d_115">
    <path clip-path="url(#p66b45731d6)" d="M 73.832727 207.200996 
L 90.065455 231.238533 
L 106.298182 232.883052 
L 122.530909 250.326418 
L 138.763636 254.962422 
L 154.996364 252.004087 
L 171.229091 244.022977 
L 187.461818 244.836845 
L 203.694545 227.597793 
L 219.927273 222.220457 
L 236.16 212.988761 
L 252.392727 217.863096 
L 268.625455 212.312751 
L 284.858182 215.255477 
L 301.090909 222.093652 
L 317.323636 235.674148 
L 333.556364 228.542715 
L 349.789091 220.919953 
L 366.021818 201.052548 
L 382.254545 195.661505 
L 398.487273 207.200996 
" style="fill:none;stroke:#0e4db3;stroke-linecap:square;stroke-width:3;"/>
   </g>
   <g id="line2d_116">
    <path clip-path="url(#p66b45731d6)" d="M 73.832727 145.925045 
L 90.065455 165.335795 
L 106.298182 173.994448 
L 122.530909 186.172052 
L 138.763636 178.944456 
L 154.996364 180.806783 
L 171.229091 185.944892 
L 187.461818 186.173488 
L 203.694545 160.999941 
L 219.927273 152.7481 
L 236.16 152.192007 
L 252.392727 154.628743 
L 268.625455 158.387686 
L 284.858182 164.802789 
L 301.090909 161.940027 
L 317.323636 161.880492 
L 333.556364 162.160183 
L 349.789091 160.864418 
L 366.021818 145.938905 
L 382.254545 145.383266 
L 398.487273 145.925045 
" style="fill:none;stroke:#d44e4e;stroke-linecap:square;stroke-width:3;"/>
   </g>
   <g id="line2d_117">
    <path clip-path="url(#p66b45731d6)" d="M 73.832727 197.321677 
L 90.065455 216.809416 
L 106.298182 244.890849 
L 122.530909 237.015764 
L 138.763636 223.123558 
L 154.996364 248.254228 
L 171.229091 260.920414 
L 187.461818 285.408 
L 203.694545 277.787024 
L 219.927273 255.007964 
L 236.16 236.956883 
L 252.392727 203.421421 
L 268.625455 69.215841 
L 284.858182 1.438764 
L 285.695731 -1 
M 321.382889 -1 
L 333.556364 21.183672 
L 349.789091 92.958321 
L 366.021818 144.011836 
L 382.254545 170.447601 
L 398.487273 197.321677 
" style="fill:none;stroke:#0e4db3;stroke-linecap:square;stroke-width:3;"/>
   </g>
   <g id="line2d_118">
    <path clip-path="url(#p66b45731d6)" d="M 73.832727 285.408 
L 90.065455 285.408 
L 106.298182 285.408 
L 122.530909 285.408 
L 138.763636 285.408 
L 154.996364 285.408 
L 171.229091 285.408 
L 187.461818 285.408 
L 203.694545 285.408 
L 219.927273 285.408 
L 236.16 285.408 
L 252.392727 285.408 
L 268.625455 266.477837 
L 284.858182 235.19863 
L 301.090909 207.751525 
L 317.323636 179.401621 
L 333.556364 235.26585 
L 349.789091 218.501992 
L 366.021818 257.555529 
L 382.254545 273.70901 
L 398.487273 285.408 
" style="fill:none;stroke:#d44e4e;stroke-linecap:square;stroke-width:3;"/>
   </g>
   <g id="line2d_119">
    <path clip-path="url(#p66b45731d6)" d="M 73.832727 277.749001 
L 90.065455 270.707291 
L 106.298182 269.201369 
L 122.530909 265.58759 
L 138.763636 240.887041 
L 154.996364 232.284991 
L 171.229091 190.783103 
L 187.461818 164.060653 
L 203.694545 128.032264 
L 219.927273 92.916927 
L 236.16 61.235741 
L 252.392727 65.885175 
L 268.625455 10.510797 
L 284.858182 51.587242 
L 301.090909 96.957414 
L 317.323636 149.765795 
L 333.556364 182.894927 
L 349.789091 235.71734 
L 366.021818 246.876616 
L 382.254545 259.228707 
L 398.487273 277.749001 
" style="fill:none;stroke:#0e4db3;stroke-linecap:square;stroke-width:3;"/>
   </g>
   <g id="line2d_120">
    <path clip-path="url(#p66b45731d6)" d="M 73.832727 285.408 
L 90.065455 285.408 
L 106.298182 285.408 
L 122.530909 285.408 
L 138.763636 285.408 
L 154.996364 285.408 
L 171.229091 285.408 
L 187.461818 285.408 
L 203.694545 285.408 
L 219.927273 285.408 
L 236.16 285.408 
L 252.392727 285.408 
L 268.625455 285.408 
L 284.858182 285.408 
L 301.090909 285.408 
L 317.323636 285.408 
L 333.556364 285.408 
L 349.789091 285.408 
L 366.021818 285.408 
L 382.254545 285.408 
L 398.487273 285.408 
" style="fill:none;stroke:#d44e4e;stroke-linecap:square;stroke-width:3;"/>
   </g>
   <g id="line2d_121">
    <path clip-path="url(#p66b45731d6)" d="M 73.832727 285.408 
L 90.065455 224.306619 
L 106.298182 193.932172 
L 122.530909 152.428005 
L 138.763636 85.533082 
L 154.996364 70.482005 
L 171.229091 113.794125 
L 187.461818 165.654555 
L 203.694545 179.496213 
L 219.927273 209.190147 
L 236.16 236.563412 
L 252.392727 249.830476 
L 268.625455 285.408 
L 284.858182 285.408 
L 301.090909 256.416265 
L 317.323636 271.487853 
L 333.556364 281.740904 
L 349.789091 285.408 
L 366.021818 285.408 
L 382.254545 285.408 
L 398.487273 285.408 
" style="fill:none;stroke:#0e4db3;stroke-linecap:square;stroke-width:3;"/>
   </g>
   <g id="line2d_122">
    <path clip-path="url(#p66b45731d6)" d="M 73.832727 285.408 
L 90.065455 285.408 
L 106.298182 285.408 
L 122.530909 231.897084 
L 138.763636 234.849894 
L 154.996364 228.231811 
L 171.229091 244.37584 
L 187.461818 277.579511 
L 203.694545 285.408 
L 219.927273 285.408 
L 236.16 285.408 
L 252.392727 285.408 
L 268.625455 285.408 
L 284.858182 285.408 
L 301.090909 285.408 
L 317.323636 285.408 
L 333.556364 285.408 
L 349.789091 285.408 
L 366.021818 285.408 
L 382.254545 285.408 
L 398.487273 285.408 
" style="fill:none;stroke:#d44e4e;stroke-linecap:square;stroke-width:3;"/>
   </g>
   <g id="line2d_123">
    <path clip-path="url(#p66b45731d6)" d="M 73.832727 285.408 
L 90.065455 285.408 
L 106.298182 285.408 
L 122.530909 285.408 
L 138.763636 285.408 
L 154.996364 285.408 
L 171.229091 285.408 
L 187.461818 285.408 
L 203.694545 285.408 
L 219.927273 285.408 
L 236.16 285.408 
L 252.392727 285.408 
L 268.625455 285.408 
L 284.858182 285.408 
L 301.090909 285.408 
L 317.323636 285.408 
L 333.556364 285.408 
L 349.789091 285.408 
L 366.021818 285.408 
L 382.254545 285.408 
L 398.487273 285.408 
" style="fill:none;stroke:#0e4db3;stroke-linecap:square;stroke-width:3;"/>
   </g>
   <g id="line2d_124">
    <path clip-path="url(#p66b45731d6)" d="M 73.832727 285.408 
L 90.065455 285.408 
L 106.298182 285.408 
L 122.530909 285.408 
L 138.763636 285.408 
L 154.996364 285.408 
L 171.229091 285.408 
L 187.461818 285.408 
L 203.694545 285.408 
L 219.927273 285.408 
L 236.16 285.408 
L 252.392727 285.408 
L 268.625455 285.408 
L 284.858182 285.408 
L 301.090909 285.408 
L 317.323636 285.408 
L 333.556364 285.408 
L 349.789091 285.408 
L 366.021818 285.408 
L 382.254545 285.408 
L 398.487273 285.408 
" style="fill:none;stroke:#d44e4e;stroke-linecap:square;stroke-width:3;"/>
   </g>
   <g id="line2d_125">
    <path clip-path="url(#p66b45731d6)" d="M 73.832727 285.408 
L 90.065455 285.408 
L 106.298182 281.315903 
L 122.530909 276.566623 
L 138.763636 207.721869 
L 154.996364 175.922943 
L 171.229091 112.334829 
L 187.461818 96.087795 
L 203.694545 72.228617 
L 219.927273 77.099607 
L 236.16 79.885806 
L 252.392727 89.350439 
L 268.625455 71.663843 
L 284.858182 89.888086 
L 301.090909 147.176748 
L 317.323636 216.698129 
L 333.556364 251.812243 
L 349.789091 285.408 
L 366.021818 285.408 
L 382.254545 285.408 
L 398.487273 285.408 
" style="fill:none;stroke:#0e4db3;stroke-linecap:square;stroke-width:3;"/>
   </g>
   <g id="line2d_126">
    <path clip-path="url(#p66b45731d6)" d="M 73.832727 285.408 
L 90.065455 285.408 
L 106.298182 285.408 
L 122.530909 285.408 
L 138.763636 285.408 
L 154.996364 259.79226 
L 171.229091 215.472025 
L 187.461818 152.383961 
L 203.694545 164.539377 
L 219.927273 162.855163 
L 236.16 160.690048 
L 252.392727 193.675337 
L 268.625455 187.606815 
L 284.858182 173.930457 
L 301.090909 246.376165 
L 317.323636 285.408 
L 333.556364 285.408 
L 349.789091 285.408 
L 366.021818 285.408 
L 382.254545 285.408 
L 398.487273 285.408 
" style="fill:none;stroke:#d44e4e;stroke-linecap:square;stroke-width:3;"/>
   </g>
   <g id="line2d_127">
    <path clip-path="url(#p66b45731d6)" d="M 73.832727 285.408 
L 90.065455 285.408 
L 106.298182 285.408 
L 122.530909 285.408 
L 138.763636 285.408 
L 154.996364 285.408 
L 171.229091 285.408 
L 187.461818 285.408 
L 203.694545 285.408 
L 219.927273 285.408 
L 236.16 285.408 
L 252.392727 285.408 
L 268.625455 285.408 
L 284.858182 285.408 
L 301.090909 285.408 
L 317.323636 285.408 
L 333.556364 285.408 
L 349.789091 285.408 
L 366.021818 285.408 
L 382.254545 285.408 
L 398.487273 285.408 
" style="fill:none;stroke:#0e4db3;stroke-linecap:square;stroke-width:3;"/>
   </g>
   <g id="line2d_128">
    <path clip-path="url(#p66b45731d6)" d="M 73.832727 285.408 
L 90.065455 285.408 
L 106.298182 285.408 
L 122.530909 285.408 
L 138.763636 285.408 
L 154.996364 285.408 
L 171.229091 285.408 
L 187.461818 285.408 
L 203.694545 285.408 
L 219.927273 285.408 
L 236.16 285.408 
L 252.392727 285.408 
L 268.625455 285.408 
L 284.858182 285.408 
L 301.090909 285.408 
L 317.323636 285.408 
L 333.556364 285.408 
L 349.789091 285.408 
L 366.021818 285.408 
L 382.254545 285.408 
L 398.487273 285.408 
" style="fill:none;stroke:#d44e4e;stroke-linecap:square;stroke-width:3;"/>
   </g>
   <g id="line2d_129">
    <path clip-path="url(#p66b45731d6)" d="M 73.832727 285.408 
L 90.065455 277.289213 
L 106.298182 272.060293 
L 122.530909 236.479896 
L 138.763636 177.006826 
L 154.996364 160.719602 
L 171.229091 161.828471 
L 187.461818 172.301488 
L 203.694545 198.782122 
L 219.927273 271.645497 
L 236.16 285.408 
L 252.392727 285.408 
L 268.625455 285.408 
L 284.858182 285.408 
L 301.090909 285.408 
L 317.323636 285.408 
L 333.556364 285.408 
L 349.789091 285.408 
L 366.021818 285.408 
L 382.254545 285.408 
L 398.487273 285.408 
" style="fill:none;stroke:#0e4db3;stroke-linecap:square;stroke-width:3;"/>
   </g>
   <g id="line2d_130">
    <path clip-path="url(#p66b45731d6)" d="M 73.832727 285.408 
L 90.065455 280.934735 
L 106.298182 277.655667 
L 122.530909 252.449696 
L 138.763636 224.048547 
L 154.996364 219.270143 
L 171.229091 223.606048 
L 187.461818 231.972883 
L 203.694545 242.128858 
L 219.927273 267.075644 
L 236.16 272.252194 
L 252.392727 276.38122 
L 268.625455 270.870037 
L 284.858182 280.931964 
L 301.090909 278.313823 
L 317.323636 284.986242 
L 333.556364 280.827175 
L 349.789091 281.601049 
L 366.021818 282.502202 
L 382.254545 281.258901 
L 398.487273 285.408 
" style="fill:none;stroke:#d44e4e;stroke-linecap:square;stroke-width:3;"/>
   </g>
   <g id="line2d_131">
    <path clip-path="url(#p66b45731d6)" d="M 73.832727 200.297015 
L 90.065455 216.096783 
L 106.298182 244.94369 
L 122.530909 245.130475 
L 138.763636 214.968527 
L 154.996364 173.284756 
L 171.229091 158.825877 
L 187.461818 141.11308 
L 203.694545 146.86401 
L 219.927273 152.805272 
L 236.16 160.435686 
L 252.392727 143.402435 
L 268.625455 155.286645 
L 284.858182 111.108632 
L 301.090909 40.393193 
L 317.323636 49.748762 
L 333.556364 14.472997 
L 349.789091 97.793494 
L 366.021818 136.166269 
L 382.254545 169.192461 
L 398.487273 200.297015 
" style="fill:none;stroke:#0e4db3;stroke-linecap:square;stroke-width:3;"/>
   </g>
   <g id="line2d_132">
    <path clip-path="url(#p66b45731d6)" d="M 73.832727 285.408 
L 90.065455 285.408 
L 106.298182 285.408 
L 122.530909 285.408 
L 138.763636 285.408 
L 154.996364 285.408 
L 171.229091 282.230394 
L 187.461818 275.917703 
L 203.694545 285.296143 
L 219.927273 285.408 
L 236.16 285.408 
L 252.392727 282.455311 
L 268.625455 285.408 
L 284.858182 285.408 
L 301.090909 266.131914 
L 317.323636 214.262829 
L 333.556364 248.793559 
L 349.789091 244.547302 
L 366.021818 285.408 
L 382.254545 285.408 
L 398.487273 285.408 
" style="fill:none;stroke:#d44e4e;stroke-linecap:square;stroke-width:3;"/>
   </g>
   <g id="line2d_133">
    <path clip-path="url(#p66b45731d6)" d="M 73.832727 285.408 
L 90.065455 285.408 
L 106.298182 285.408 
L 122.530909 285.408 
L 138.763636 285.408 
L 154.996364 285.408 
L 171.229091 285.408 
L 187.461818 285.408 
L 203.694545 285.408 
L 219.927273 285.408 
L 236.16 285.408 
L 252.392727 285.408 
L 268.625455 285.408 
L 284.858182 285.408 
L 301.090909 285.408 
L 317.323636 285.408 
L 333.556364 285.408 
L 349.789091 285.408 
L 366.021818 285.408 
L 382.254545 285.408 
L 398.487273 285.408 
" style="fill:none;stroke:#0e4db3;stroke-linecap:square;stroke-width:3;"/>
   </g>
   <g id="line2d_134">
    <path clip-path="url(#p66b45731d6)" d="M 73.832727 285.408 
L 90.065455 285.408 
L 106.298182 285.408 
L 122.530909 285.408 
L 138.763636 285.408 
L 154.996364 285.408 
L 171.229091 285.408 
L 187.461818 285.408 
L 203.694545 285.408 
L 219.927273 285.408 
L 236.16 285.408 
L 252.392727 285.408 
L 268.625455 285.408 
L 284.858182 285.408 
L 301.090909 285.408 
L 317.323636 285.408 
L 333.556364 285.408 
L 349.789091 285.408 
L 366.021818 285.408 
L 382.254545 285.408 
L 398.487273 285.408 
" style="fill:none;stroke:#d44e4e;stroke-linecap:square;stroke-width:3;"/>
   </g>
   <g id="line2d_135">
    <path clip-path="url(#p66b45731d6)" d="M 73.832727 63.648 
L 90.065455 86.655774 
L 106.298182 92.410946 
L 122.530909 116.072546 
L 138.763636 176.445684 
L 154.996364 224.242817 
L 171.229091 230.245097 
L 187.461818 218.018737 
L 203.694545 205.125758 
L 219.927273 227.169265 
L 236.16 230.844321 
L 252.392727 229.544017 
L 268.625455 245.401045 
L 284.858182 258.457972 
L 301.090909 257.131379 
L 317.323636 240.188921 
L 333.556364 192.261521 
L 349.789091 153.051573 
L 366.021818 110.845015 
L 382.254545 77.990163 
L 398.487273 63.648 
" style="fill:none;stroke:#0e4db3;stroke-linecap:square;stroke-width:3;"/>
   </g>
   <g id="line2d_136">
    <path clip-path="url(#p66b45731d6)" d="M 73.832727 272.759451 
L 90.065455 201.58181 
L 106.298182 203.255407 
L 122.530909 209.54478 
L 138.763636 285.408 
L 154.996364 285.408 
L 171.229091 285.408 
L 187.461818 285.408 
L 203.694545 285.408 
L 219.927273 285.408 
L 236.16 285.408 
L 252.392727 285.408 
L 268.625455 285.408 
L 284.858182 285.408 
L 301.090909 285.408 
L 317.323636 285.408 
L 333.556364 285.408 
L 349.789091 276.044696 
L 366.021818 276.269273 
L 382.254545 260.280336 
L 398.487273 272.759451 
" style="fill:none;stroke:#d44e4e;stroke-linecap:square;stroke-width:3;"/>
   </g>
   <g id="patch_3">
    <path d="M 57.6 307.584 
L 57.6 41.472 
" style="fill:none;stroke:#000000;stroke-linecap:square;stroke-linejoin:miter;stroke-width:2.5;"/>
   </g>
   <g id="patch_4">
    <path d="M 414.72 307.584 
L 414.72 41.472 
" style="fill:none;stroke:#000000;stroke-linecap:square;stroke-linejoin:miter;stroke-width:2.5;"/>
   </g>
   <g id="patch_5">
    <path d="M 57.6 307.584 
L 414.72 307.584 
" style="fill:none;stroke:#000000;stroke-linecap:square;stroke-linejoin:miter;stroke-width:2.5;"/>
   </g>
   <g id="patch_6">
    <path d="M 57.6 41.472 
L 414.72 41.472 
" style="fill:none;stroke:#000000;stroke-linecap:square;stroke-linejoin:miter;stroke-width:2.5;"/>
   </g>
  </g>
 </g>
 <defs>
  <clipPath id="p66b45731d6">
   <rect height="266.112" width="357.12" x="57.6" y="41.472"/>
  </clipPath>
 </defs>
</svg>
