<?xml version="1.0" encoding="utf-8" standalone="no"?>
<!DOCTYPE svg PUBLIC "-//W3C//DTD SVG 1.1//EN"
  "http://www.w3.org/Graphics/SVG/1.1/DTD/svg11.dtd">
<!-- Created with matplotlib (https://matplotlib.org/) -->
<svg height="345.6pt" version="1.1" viewBox="0 0 460.8 345.6" width="460.8pt" xmlns="http://www.w3.org/2000/svg" xmlns:xlink="http://www.w3.org/1999/xlink">
 <defs>
  <style type="text/css">
*{stroke-linecap:butt;stroke-linejoin:round;}
  </style>
 </defs>
 <g id="figure_1">
  <g id="patch_1">
   <path d="M 0 345.6 
L 460.8 345.6 
L 460.8 0 
L 0 0 
z
" style="fill:#ffffff;"/>
  </g>
  <g id="axes_1">
   <g id="patch_2">
    <path d="M 57.6 307.584 
L 414.72 307.584 
L 414.72 41.472 
L 57.6 41.472 
z
" style="fill:#ffffff;"/>
   </g>
   <g id="matplotlib.axis_1">
    <g id="xtick_1">
     <g id="line2d_1">
      <defs>
       <path d="M 0 0 
L 0 12 
" id="m55e3fea498" style="stroke:#000000;stroke-width:2.5;"/>
      </defs>
      <g>
       <use style="stroke:#000000;stroke-width:2.5;" x="73.832727" xlink:href="#m55e3fea498" y="307.584"/>
      </g>
     </g>
     <g id="text_1">
      <!-- 0 -->
      <defs>
       <path d="M 31.78125 66.40625 
Q 24.171875 66.40625 20.328125 58.90625 
Q 16.5 51.421875 16.5 36.375 
Q 16.5 21.390625 20.328125 13.890625 
Q 24.171875 6.390625 31.78125 6.390625 
Q 39.453125 6.390625 43.28125 13.890625 
Q 47.125 21.390625 47.125 36.375 
Q 47.125 51.421875 43.28125 58.90625 
Q 39.453125 66.40625 31.78125 66.40625 
z
M 31.78125 74.21875 
Q 44.046875 74.21875 50.515625 64.515625 
Q 56.984375 54.828125 56.984375 36.375 
Q 56.984375 17.96875 50.515625 8.265625 
Q 44.046875 -1.421875 31.78125 -1.421875 
Q 19.53125 -1.421875 13.0625 8.265625 
Q 6.59375 17.96875 6.59375 36.375 
Q 6.59375 54.828125 13.0625 64.515625 
Q 19.53125 74.21875 31.78125 74.21875 
z
" id="DejaVuSans-48"/>
      </defs>
      <g transform="translate(57.735602 361.532094)scale(0.506 -0.506)">
       <use xlink:href="#DejaVuSans-48"/>
      </g>
     </g>
    </g>
    <g id="xtick_2">
     <g id="line2d_2">
      <g>
       <use style="stroke:#000000;stroke-width:2.5;" x="254.196364" xlink:href="#m55e3fea498" y="307.584"/>
      </g>
     </g>
     <g id="text_2">
      <!-- 100 -->
      <defs>
       <path d="M 12.40625 8.296875 
L 28.515625 8.296875 
L 28.515625 63.921875 
L 10.984375 60.40625 
L 10.984375 69.390625 
L 28.421875 72.90625 
L 38.28125 72.90625 
L 38.28125 8.296875 
L 54.390625 8.296875 
L 54.390625 0 
L 12.40625 0 
z
" id="DejaVuSans-49"/>
      </defs>
      <g transform="translate(205.904989 361.532094)scale(0.506 -0.506)">
       <use xlink:href="#DejaVuSans-49"/>
       <use x="63.623047" xlink:href="#DejaVuSans-48"/>
       <use x="127.246094" xlink:href="#DejaVuSans-48"/>
      </g>
     </g>
    </g>
    <g id="text_3">
     <!-- Degrees -->
     <defs>
      <path d="M 19.671875 64.796875 
L 19.671875 8.109375 
L 31.59375 8.109375 
Q 46.6875 8.109375 53.6875 14.9375 
Q 60.6875 21.78125 60.6875 36.53125 
Q 60.6875 51.171875 53.6875 57.984375 
Q 46.6875 64.796875 31.59375 64.796875 
z
M 9.8125 72.90625 
L 30.078125 72.90625 
Q 51.265625 72.90625 61.171875 64.09375 
Q 71.09375 55.28125 71.09375 36.53125 
Q 71.09375 17.671875 61.125 8.828125 
Q 51.171875 0 30.078125 0 
L 9.8125 0 
z
" id="DejaVuSans-68"/>
      <path d="M 56.203125 29.59375 
L 56.203125 25.203125 
L 14.890625 25.203125 
Q 15.484375 15.921875 20.484375 11.0625 
Q 25.484375 6.203125 34.421875 6.203125 
Q 39.59375 6.203125 44.453125 7.46875 
Q 49.3125 8.734375 54.109375 11.28125 
L 54.109375 2.78125 
Q 49.265625 0.734375 44.1875 -0.34375 
Q 39.109375 -1.421875 33.890625 -1.421875 
Q 20.796875 -1.421875 13.15625 6.1875 
Q 5.515625 13.8125 5.515625 26.8125 
Q 5.515625 40.234375 12.765625 48.109375 
Q 20.015625 56 32.328125 56 
Q 43.359375 56 49.78125 48.890625 
Q 56.203125 41.796875 56.203125 29.59375 
z
M 47.21875 32.234375 
Q 47.125 39.59375 43.09375 43.984375 
Q 39.0625 48.390625 32.421875 48.390625 
Q 24.90625 48.390625 20.390625 44.140625 
Q 15.875 39.890625 15.1875 32.171875 
z
" id="DejaVuSans-101"/>
      <path d="M 45.40625 27.984375 
Q 45.40625 37.75 41.375 43.109375 
Q 37.359375 48.484375 30.078125 48.484375 
Q 22.859375 48.484375 18.828125 43.109375 
Q 14.796875 37.75 14.796875 27.984375 
Q 14.796875 18.265625 18.828125 12.890625 
Q 22.859375 7.515625 30.078125 7.515625 
Q 37.359375 7.515625 41.375 12.890625 
Q 45.40625 18.265625 45.40625 27.984375 
z
M 54.390625 6.78125 
Q 54.390625 -7.171875 48.1875 -13.984375 
Q 42 -20.796875 29.203125 -20.796875 
Q 24.46875 -20.796875 20.265625 -20.09375 
Q 16.0625 -19.390625 12.109375 -17.921875 
L 12.109375 -9.1875 
Q 16.0625 -11.328125 19.921875 -12.34375 
Q 23.78125 -13.375 27.78125 -13.375 
Q 36.625 -13.375 41.015625 -8.765625 
Q 45.40625 -4.15625 45.40625 5.171875 
L 45.40625 9.625 
Q 42.625 4.78125 38.28125 2.390625 
Q 33.9375 0 27.875 0 
Q 17.828125 0 11.671875 7.65625 
Q 5.515625 15.328125 5.515625 27.984375 
Q 5.515625 40.671875 11.671875 48.328125 
Q 17.828125 56 27.875 56 
Q 33.9375 56 38.28125 53.609375 
Q 42.625 51.21875 45.40625 46.390625 
L 45.40625 54.6875 
L 54.390625 54.6875 
z
" id="DejaVuSans-103"/>
      <path d="M 41.109375 46.296875 
Q 39.59375 47.171875 37.8125 47.578125 
Q 36.03125 48 33.890625 48 
Q 26.265625 48 22.1875 43.046875 
Q 18.109375 38.09375 18.109375 28.8125 
L 18.109375 0 
L 9.078125 0 
L 9.078125 54.6875 
L 18.109375 54.6875 
L 18.109375 46.1875 
Q 20.953125 51.171875 25.484375 53.578125 
Q 30.03125 56 36.53125 56 
Q 37.453125 56 38.578125 55.875 
Q 39.703125 55.765625 41.0625 55.515625 
z
" id="DejaVuSans-114"/>
      <path d="M 44.28125 53.078125 
L 44.28125 44.578125 
Q 40.484375 46.53125 36.375 47.5 
Q 32.28125 48.484375 27.875 48.484375 
Q 21.1875 48.484375 17.84375 46.4375 
Q 14.5 44.390625 14.5 40.28125 
Q 14.5 37.15625 16.890625 35.375 
Q 19.28125 33.59375 26.515625 31.984375 
L 29.59375 31.296875 
Q 39.15625 29.25 43.1875 25.515625 
Q 47.21875 21.78125 47.21875 15.09375 
Q 47.21875 7.46875 41.1875 3.015625 
Q 35.15625 -1.421875 24.609375 -1.421875 
Q 20.21875 -1.421875 15.453125 -0.5625 
Q 10.6875 0.296875 5.421875 2 
L 5.421875 11.28125 
Q 10.40625 8.6875 15.234375 7.390625 
Q 20.0625 6.109375 24.8125 6.109375 
Q 31.15625 6.109375 34.5625 8.28125 
Q 37.984375 10.453125 37.984375 14.40625 
Q 37.984375 18.0625 35.515625 20.015625 
Q 33.0625 21.96875 24.703125 23.78125 
L 21.578125 24.515625 
Q 13.234375 26.265625 9.515625 29.90625 
Q 5.8125 33.546875 5.8125 39.890625 
Q 5.8125 47.609375 11.28125 51.796875 
Q 16.75 56 26.8125 56 
Q 31.78125 56 36.171875 55.265625 
Q 40.578125 54.546875 44.28125 53.078125 
z
" id="DejaVuSans-115"/>
     </defs>
     <g transform="translate(120.723 417.998687)scale(0.552 -0.552)">
      <use xlink:href="#DejaVuSans-68"/>
      <use x="77.001953" xlink:href="#DejaVuSans-101"/>
      <use x="138.525391" xlink:href="#DejaVuSans-103"/>
      <use x="202.001953" xlink:href="#DejaVuSans-114"/>
      <use x="243.083984" xlink:href="#DejaVuSans-101"/>
      <use x="304.607422" xlink:href="#DejaVuSans-101"/>
      <use x="366.130859" xlink:href="#DejaVuSans-115"/>
     </g>
    </g>
   </g>
   <g id="matplotlib.axis_2">
    <g id="ytick_1">
     <g id="line2d_3">
      <defs>
       <path d="M 0 0 
L -12 0 
" id="madd4752493" style="stroke:#000000;stroke-width:2.5;"/>
      </defs>
      <g>
       <use style="stroke:#000000;stroke-width:2.5;" x="57.6" xlink:href="#madd4752493" y="307.584"/>
      </g>
     </g>
     <g id="text_4">
      <!-- −0.05 -->
      <defs>
       <path d="M 10.59375 35.5 
L 73.1875 35.5 
L 73.1875 27.203125 
L 10.59375 27.203125 
z
" id="DejaVuSans-8722"/>
       <path d="M 10.6875 12.40625 
L 21 12.40625 
L 21 0 
L 10.6875 0 
z
" id="DejaVuSans-46"/>
       <path d="M 10.796875 72.90625 
L 49.515625 72.90625 
L 49.515625 64.59375 
L 19.828125 64.59375 
L 19.828125 46.734375 
Q 21.96875 47.46875 24.109375 47.828125 
Q 26.265625 48.1875 28.421875 48.1875 
Q 40.625 48.1875 47.75 41.5 
Q 54.890625 34.8125 54.890625 23.390625 
Q 54.890625 11.625 47.5625 5.09375 
Q 40.234375 -1.421875 26.90625 -1.421875 
Q 22.3125 -1.421875 17.546875 -0.640625 
Q 12.796875 0.140625 7.71875 1.703125 
L 7.71875 11.625 
Q 12.109375 9.234375 16.796875 8.0625 
Q 21.484375 6.890625 26.703125 6.890625 
Q 35.15625 6.890625 40.078125 11.328125 
Q 45.015625 15.765625 45.015625 23.390625 
Q 45.015625 31 40.078125 35.4375 
Q 35.15625 39.890625 26.703125 39.890625 
Q 22.75 39.890625 18.8125 39.015625 
Q 14.890625 38.140625 10.796875 36.28125 
z
" id="DejaVuSans-53"/>
      </defs>
      <g transform="translate(-112.965281 326.808047)scale(0.506 -0.506)">
       <use xlink:href="#DejaVuSans-8722"/>
       <use x="83.789062" xlink:href="#DejaVuSans-48"/>
       <use x="147.412109" xlink:href="#DejaVuSans-46"/>
       <use x="179.199219" xlink:href="#DejaVuSans-48"/>
       <use x="242.822266" xlink:href="#DejaVuSans-53"/>
      </g>
     </g>
    </g>
    <g id="ytick_2">
     <g id="line2d_4">
      <g>
       <use style="stroke:#000000;stroke-width:2.5;" x="57.6" xlink:href="#madd4752493" y="174.528"/>
      </g>
     </g>
     <g id="text_5">
      <!-- 0.00 -->
      <g transform="translate(-70.564062 193.752047)scale(0.506 -0.506)">
       <use xlink:href="#DejaVuSans-48"/>
       <use x="63.623047" xlink:href="#DejaVuSans-46"/>
       <use x="95.410156" xlink:href="#DejaVuSans-48"/>
       <use x="159.033203" xlink:href="#DejaVuSans-48"/>
      </g>
     </g>
    </g>
    <g id="ytick_3">
     <g id="line2d_5">
      <g>
       <use style="stroke:#000000;stroke-width:2.5;" x="57.6" xlink:href="#madd4752493" y="41.472"/>
      </g>
     </g>
     <g id="text_6">
      <!-- 0.05 -->
      <g transform="translate(-70.564062 60.696047)scale(0.506 -0.506)">
       <use xlink:href="#DejaVuSans-48"/>
       <use x="63.623047" xlink:href="#DejaVuSans-46"/>
       <use x="95.410156" xlink:href="#DejaVuSans-48"/>
       <use x="159.033203" xlink:href="#DejaVuSans-53"/>
      </g>
     </g>
    </g>
    <g id="text_7">
     <!-- Activation -->
     <defs>
      <path d="M 34.1875 63.1875 
L 20.796875 26.90625 
L 47.609375 26.90625 
z
M 28.609375 72.90625 
L 39.796875 72.90625 
L 67.578125 0 
L 57.328125 0 
L 50.6875 18.703125 
L 17.828125 18.703125 
L 11.1875 0 
L 0.78125 0 
z
" id="DejaVuSans-65"/>
      <path d="M 48.78125 52.59375 
L 48.78125 44.1875 
Q 44.96875 46.296875 41.140625 47.34375 
Q 37.3125 48.390625 33.40625 48.390625 
Q 24.65625 48.390625 19.8125 42.84375 
Q 14.984375 37.3125 14.984375 27.296875 
Q 14.984375 17.28125 19.8125 11.734375 
Q 24.65625 6.203125 33.40625 6.203125 
Q 37.3125 6.203125 41.140625 7.25 
Q 44.96875 8.296875 48.78125 10.40625 
L 48.78125 2.09375 
Q 45.015625 0.34375 40.984375 -0.53125 
Q 36.96875 -1.421875 32.421875 -1.421875 
Q 20.0625 -1.421875 12.78125 6.34375 
Q 5.515625 14.109375 5.515625 27.296875 
Q 5.515625 40.671875 12.859375 48.328125 
Q 20.21875 56 33.015625 56 
Q 37.15625 56 41.109375 55.140625 
Q 45.0625 54.296875 48.78125 52.59375 
z
" id="DejaVuSans-99"/>
      <path d="M 18.3125 70.21875 
L 18.3125 54.6875 
L 36.8125 54.6875 
L 36.8125 47.703125 
L 18.3125 47.703125 
L 18.3125 18.015625 
Q 18.3125 11.328125 20.140625 9.421875 
Q 21.96875 7.515625 27.59375 7.515625 
L 36.8125 7.515625 
L 36.8125 0 
L 27.59375 0 
Q 17.1875 0 13.234375 3.875 
Q 9.28125 7.765625 9.28125 18.015625 
L 9.28125 47.703125 
L 2.6875 47.703125 
L 2.6875 54.6875 
L 9.28125 54.6875 
L 9.28125 70.21875 
z
" id="DejaVuSans-116"/>
      <path d="M 9.421875 54.6875 
L 18.40625 54.6875 
L 18.40625 0 
L 9.421875 0 
z
M 9.421875 75.984375 
L 18.40625 75.984375 
L 18.40625 64.59375 
L 9.421875 64.59375 
z
" id="DejaVuSans-105"/>
      <path d="M 2.984375 54.6875 
L 12.5 54.6875 
L 29.59375 8.796875 
L 46.6875 54.6875 
L 56.203125 54.6875 
L 35.6875 0 
L 23.484375 0 
z
" id="DejaVuSans-118"/>
      <path d="M 34.28125 27.484375 
Q 23.390625 27.484375 19.1875 25 
Q 14.984375 22.515625 14.984375 16.5 
Q 14.984375 11.71875 18.140625 8.90625 
Q 21.296875 6.109375 26.703125 6.109375 
Q 34.1875 6.109375 38.703125 11.40625 
Q 43.21875 16.703125 43.21875 25.484375 
L 43.21875 27.484375 
z
M 52.203125 31.203125 
L 52.203125 0 
L 43.21875 0 
L 43.21875 8.296875 
Q 40.140625 3.328125 35.546875 0.953125 
Q 30.953125 -1.421875 24.3125 -1.421875 
Q 15.921875 -1.421875 10.953125 3.296875 
Q 6 8.015625 6 15.921875 
Q 6 25.140625 12.171875 29.828125 
Q 18.359375 34.515625 30.609375 34.515625 
L 43.21875 34.515625 
L 43.21875 35.40625 
Q 43.21875 41.609375 39.140625 45 
Q 35.0625 48.390625 27.6875 48.390625 
Q 23 48.390625 18.546875 47.265625 
Q 14.109375 46.140625 10.015625 43.890625 
L 10.015625 52.203125 
Q 14.9375 54.109375 19.578125 55.046875 
Q 24.21875 56 28.609375 56 
Q 40.484375 56 46.34375 49.84375 
Q 52.203125 43.703125 52.203125 31.203125 
z
" id="DejaVuSans-97"/>
      <path d="M 30.609375 48.390625 
Q 23.390625 48.390625 19.1875 42.75 
Q 14.984375 37.109375 14.984375 27.296875 
Q 14.984375 17.484375 19.15625 11.84375 
Q 23.34375 6.203125 30.609375 6.203125 
Q 37.796875 6.203125 41.984375 11.859375 
Q 46.1875 17.53125 46.1875 27.296875 
Q 46.1875 37.015625 41.984375 42.703125 
Q 37.796875 48.390625 30.609375 48.390625 
z
M 30.609375 56 
Q 42.328125 56 49.015625 48.375 
Q 55.71875 40.765625 55.71875 27.296875 
Q 55.71875 13.875 49.015625 6.21875 
Q 42.328125 -1.421875 30.609375 -1.421875 
Q 18.84375 -1.421875 12.171875 6.21875 
Q 5.515625 13.875 5.515625 27.296875 
Q 5.515625 40.765625 12.171875 48.375 
Q 18.84375 56 30.609375 56 
z
" id="DejaVuSans-111"/>
      <path d="M 54.890625 33.015625 
L 54.890625 0 
L 45.90625 0 
L 45.90625 32.71875 
Q 45.90625 40.484375 42.875 44.328125 
Q 39.84375 48.1875 33.796875 48.1875 
Q 26.515625 48.1875 22.3125 43.546875 
Q 18.109375 38.921875 18.109375 30.90625 
L 18.109375 0 
L 9.078125 0 
L 9.078125 54.6875 
L 18.109375 54.6875 
L 18.109375 46.1875 
Q 21.34375 51.125 25.703125 53.5625 
Q 30.078125 56 35.796875 56 
Q 45.21875 56 50.046875 50.171875 
Q 54.890625 44.34375 54.890625 33.015625 
z
" id="DejaVuSans-110"/>
     </defs>
     <g transform="translate(-128.445156 313.1835)rotate(-90)scale(0.552 -0.552)">
      <use xlink:href="#DejaVuSans-65"/>
      <use x="68.392578" xlink:href="#DejaVuSans-99"/>
      <use x="123.373047" xlink:href="#DejaVuSans-116"/>
      <use x="162.582031" xlink:href="#DejaVuSans-105"/>
      <use x="190.365234" xlink:href="#DejaVuSans-118"/>
      <use x="249.544922" xlink:href="#DejaVuSans-97"/>
      <use x="310.824219" xlink:href="#DejaVuSans-116"/>
      <use x="350.033203" xlink:href="#DejaVuSans-105"/>
      <use x="377.816406" xlink:href="#DejaVuSans-111"/>
      <use x="438.998047" xlink:href="#DejaVuSans-110"/>
     </g>
    </g>
   </g>
   <g id="line2d_6">
    <path clip-path="url(#p23884b82a9)" style="fill:none;stroke:#0e4db3;stroke-linecap:square;stroke-width:3;"/>
   </g>
   <g id="line2d_7">
    <path clip-path="url(#p23884b82a9)" style="fill:none;stroke:#d44e4e;stroke-linecap:square;stroke-width:3;"/>
   </g>
   <g id="line2d_8">
    <path clip-path="url(#p23884b82a9)" style="fill:none;stroke:#0e4db3;stroke-linecap:square;stroke-width:3;"/>
   </g>
   <g id="line2d_9">
    <path clip-path="url(#p23884b82a9)" style="fill:none;stroke:#d44e4e;stroke-linecap:square;stroke-width:3;"/>
   </g>
   <g id="line2d_10">
    <path clip-path="url(#p23884b82a9)" style="fill:none;stroke:#0e4db3;stroke-linecap:square;stroke-width:3;"/>
   </g>
   <g id="line2d_11">
    <path clip-path="url(#p23884b82a9)" style="fill:none;stroke:#d44e4e;stroke-linecap:square;stroke-width:3;"/>
   </g>
   <g id="line2d_12">
    <path clip-path="url(#p23884b82a9)" style="fill:none;stroke:#0e4db3;stroke-linecap:square;stroke-width:3;"/>
   </g>
   <g id="line2d_13">
    <path clip-path="url(#p23884b82a9)" style="fill:none;stroke:#d44e4e;stroke-linecap:square;stroke-width:3;"/>
   </g>
   <g id="line2d_14">
    <path clip-path="url(#p23884b82a9)" style="fill:none;stroke:#0e4db3;stroke-linecap:square;stroke-width:3;"/>
   </g>
   <g id="line2d_15">
    <path clip-path="url(#p23884b82a9)" style="fill:none;stroke:#d44e4e;stroke-linecap:square;stroke-width:3;"/>
   </g>
   <g id="line2d_16">
    <path clip-path="url(#p23884b82a9)" d="M 73.832727 174.528 
L 90.065455 174.528 
L 106.298182 174.528 
L 122.530909 174.528 
L 138.763636 174.528 
L 154.996364 174.528 
L 171.229091 174.528 
L 187.461818 174.528 
L 203.694545 174.528 
L 219.927273 174.528 
L 236.16 174.528 
L 252.392727 174.528 
L 268.625455 174.528 
L 284.858182 174.528 
L 301.090909 174.528 
L 317.323636 174.528 
L 333.556364 174.528 
L 349.789091 174.528 
L 366.021818 174.528 
L 382.254545 174.528 
L 398.487273 174.528 
" style="fill:none;stroke:#0e4db3;stroke-linecap:square;stroke-width:3;"/>
   </g>
   <g id="line2d_17">
    <path clip-path="url(#p23884b82a9)" d="M 73.832727 174.528 
L 90.065455 174.528 
L 106.298182 174.528 
L 122.530909 174.528 
L 138.763636 174.528 
L 154.996364 174.528 
L 171.229091 174.528 
L 187.461818 174.528 
L 203.694545 174.528 
L 219.927273 174.528 
L 236.16 174.528 
L 252.392727 174.528 
L 268.625455 174.528 
L 284.858182 174.528 
L 301.090909 174.528 
L 317.323636 174.528 
L 333.556364 174.528 
L 349.789091 174.528 
L 366.021818 174.528 
L 382.254545 174.528 
L 398.487273 174.528 
" style="fill:none;stroke:#d44e4e;stroke-linecap:square;stroke-width:3;"/>
   </g>
   <g id="line2d_18">
    <path clip-path="url(#p23884b82a9)" d="M 73.832727 174.528 
L 90.065455 150.739262 
L 106.298182 165.051619 
L 122.530909 156.347893 
L 138.763636 166.553268 
L 154.996364 174.528 
L 171.229091 174.528 
L 187.461818 174.528 
L 203.694545 174.528 
L 219.927273 174.528 
L 236.16 174.528 
L 252.392727 174.528 
L 268.625455 119.207926 
L 284.858182 174.528 
L 301.090909 174.528 
L 317.323636 174.528 
L 333.556364 174.528 
L 349.789091 174.528 
L 366.021818 174.528 
L 382.254545 174.528 
L 398.487273 174.528 
" style="fill:none;stroke:#0e4db3;stroke-linecap:square;stroke-width:3;"/>
   </g>
   <g id="line2d_19">
    <path clip-path="url(#p23884b82a9)" d="M 73.832727 174.528 
L 90.065455 174.528 
L 106.298182 174.528 
L 122.530909 174.528 
L 138.763636 174.528 
L 154.996364 174.528 
L 171.229091 174.528 
L 187.461818 174.528 
L 203.694545 174.528 
L 219.927273 174.528 
L 236.16 174.528 
L 252.392727 174.528 
L 268.625455 174.528 
L 284.858182 174.528 
L 301.090909 174.528 
L 317.323636 174.528 
L 333.556364 174.528 
L 349.789091 174.528 
L 366.021818 174.528 
L 382.254545 174.528 
L 398.487273 174.528 
" style="fill:none;stroke:#d44e4e;stroke-linecap:square;stroke-width:3;"/>
   </g>
   <g id="line2d_20">
    <path clip-path="url(#p23884b82a9)" style="fill:none;stroke:#0e4db3;stroke-linecap:square;stroke-width:3;"/>
   </g>
   <g id="line2d_21">
    <path clip-path="url(#p23884b82a9)" style="fill:none;stroke:#d44e4e;stroke-linecap:square;stroke-width:3;"/>
   </g>
   <g id="line2d_22">
    <path clip-path="url(#p23884b82a9)" style="fill:none;stroke:#0e4db3;stroke-linecap:square;stroke-width:3;"/>
   </g>
   <g id="line2d_23">
    <path clip-path="url(#p23884b82a9)" style="fill:none;stroke:#d44e4e;stroke-linecap:square;stroke-width:3;"/>
   </g>
   <g id="line2d_24">
    <path clip-path="url(#p23884b82a9)" d="M 73.832727 72.029031 
L 74.929574 -1 
M 396.964283 -1 
L 398.487273 72.029031 
" style="fill:none;stroke:#0e4db3;stroke-linecap:square;stroke-width:3;"/>
   </g>
   <g id="line2d_25">
    <path clip-path="url(#p23884b82a9)" d="M 73.832727 147.93235 
L 76.767749 -1 
M 394.423111 -1 
L 398.487273 147.93235 
" style="fill:none;stroke:#d44e4e;stroke-linecap:square;stroke-width:3;"/>
   </g>
   <g id="line2d_26">
    <path clip-path="url(#p23884b82a9)" style="fill:none;stroke:#0e4db3;stroke-linecap:square;stroke-width:3;"/>
   </g>
   <g id="line2d_27">
    <path clip-path="url(#p23884b82a9)" style="fill:none;stroke:#d44e4e;stroke-linecap:square;stroke-width:3;"/>
   </g>
   <g id="line2d_28">
    <path clip-path="url(#p23884b82a9)" style="fill:none;stroke:#0e4db3;stroke-linecap:square;stroke-width:3;"/>
   </g>
   <g id="line2d_29">
    <path clip-path="url(#p23884b82a9)" style="fill:none;stroke:#d44e4e;stroke-linecap:square;stroke-width:3;"/>
   </g>
   <g id="line2d_30">
    <path clip-path="url(#p23884b82a9)" style="fill:none;stroke:#0e4db3;stroke-linecap:square;stroke-width:3;"/>
   </g>
   <g id="line2d_31">
    <path clip-path="url(#p23884b82a9)" style="fill:none;stroke:#d44e4e;stroke-linecap:square;stroke-width:3;"/>
   </g>
   <g id="line2d_32">
    <path clip-path="url(#p23884b82a9)" style="fill:none;stroke:#0e4db3;stroke-linecap:square;stroke-width:3;"/>
   </g>
   <g id="line2d_33">
    <path clip-path="url(#p23884b82a9)" style="fill:none;stroke:#d44e4e;stroke-linecap:square;stroke-width:3;"/>
   </g>
   <g id="line2d_34">
    <path clip-path="url(#p23884b82a9)" style="fill:none;stroke:#0e4db3;stroke-linecap:square;stroke-width:3;"/>
   </g>
   <g id="line2d_35">
    <path clip-path="url(#p23884b82a9)" style="fill:none;stroke:#d44e4e;stroke-linecap:square;stroke-width:3;"/>
   </g>
   <g id="line2d_36">
    <path clip-path="url(#p23884b82a9)" d="M 73.832727 174.528 
L 90.065455 174.528 
L 106.298182 174.528 
L 122.530909 174.528 
L 138.763636 174.528 
L 154.996364 174.528 
L 171.229091 174.528 
L 187.461818 174.528 
L 203.694545 174.528 
L 219.927273 174.528 
L 236.16 174.528 
L 252.392727 174.528 
L 268.625455 53.935666 
L 284.858182 140.02497 
L 301.090909 174.528 
L 317.323636 174.528 
L 333.556364 174.528 
L 349.789091 174.528 
L 366.021818 174.528 
L 382.254545 174.528 
L 398.487273 174.528 
" style="fill:none;stroke:#0e4db3;stroke-linecap:square;stroke-width:3;"/>
   </g>
   <g id="line2d_37">
    <path clip-path="url(#p23884b82a9)" d="M 73.832727 174.528 
L 90.065455 174.528 
L 106.298182 174.528 
L 122.530909 174.528 
L 138.763636 174.528 
L 154.996364 174.528 
L 171.229091 174.528 
L 187.461818 174.528 
L 203.694545 174.528 
L 219.927273 174.528 
L 236.16 174.528 
L 252.392727 174.528 
L 268.625455 174.528 
L 284.858182 174.528 
L 301.090909 174.528 
L 317.323636 174.528 
L 333.556364 174.528 
L 349.789091 174.528 
L 366.021818 174.528 
L 382.254545 174.528 
L 398.487273 174.528 
" style="fill:none;stroke:#d44e4e;stroke-linecap:square;stroke-width:3;"/>
   </g>
   <g id="line2d_38">
    <path clip-path="url(#p23884b82a9)" style="fill:none;stroke:#0e4db3;stroke-linecap:square;stroke-width:3;"/>
   </g>
   <g id="line2d_39">
    <path clip-path="url(#p23884b82a9)" style="fill:none;stroke:#d44e4e;stroke-linecap:square;stroke-width:3;"/>
   </g>
   <g id="line2d_40">
    <path clip-path="url(#p23884b82a9)" style="fill:none;stroke:#0e4db3;stroke-linecap:square;stroke-width:3;"/>
   </g>
   <g id="line2d_41">
    <path clip-path="url(#p23884b82a9)" style="fill:none;stroke:#d44e4e;stroke-linecap:square;stroke-width:3;"/>
   </g>
   <g id="line2d_42">
    <path clip-path="url(#p23884b82a9)" style="fill:none;stroke:#0e4db3;stroke-linecap:square;stroke-width:3;"/>
   </g>
   <g id="line2d_43">
    <path clip-path="url(#p23884b82a9)" style="fill:none;stroke:#d44e4e;stroke-linecap:square;stroke-width:3;"/>
   </g>
   <g id="line2d_44">
    <path clip-path="url(#p23884b82a9)" style="fill:none;stroke:#0e4db3;stroke-linecap:square;stroke-width:3;"/>
   </g>
   <g id="line2d_45">
    <path clip-path="url(#p23884b82a9)" style="fill:none;stroke:#d44e4e;stroke-linecap:square;stroke-width:3;"/>
   </g>
   <g id="line2d_46">
    <path clip-path="url(#p23884b82a9)" d="M 73.832727 174.528 
L 90.065455 174.528 
L 106.298182 174.528 
L 122.530909 174.528 
L 138.763636 174.528 
L 154.996364 174.528 
L 171.229091 174.528 
L 187.461818 174.528 
L 203.694545 174.528 
L 219.927273 174.528 
L 236.16 174.528 
L 252.392727 174.528 
L 268.625455 174.528 
L 284.858182 174.528 
L 301.090909 174.528 
L 317.323636 174.528 
L 333.556364 174.528 
L 349.789091 174.528 
L 366.021818 174.528 
L 382.254545 174.528 
L 398.487273 174.528 
" style="fill:none;stroke:#0e4db3;stroke-linecap:square;stroke-width:3;"/>
   </g>
   <g id="line2d_47">
    <path clip-path="url(#p23884b82a9)" d="M 73.832727 174.528 
L 90.065455 174.528 
L 106.298182 174.528 
L 122.530909 174.528 
L 138.763636 174.528 
L 154.996364 174.528 
L 171.229091 174.528 
L 187.461818 174.528 
L 203.694545 174.528 
L 219.927273 174.528 
L 236.16 174.528 
L 252.392727 174.528 
L 268.625455 174.528 
L 284.858182 174.528 
L 301.090909 174.528 
L 317.323636 174.528 
L 333.556364 174.528 
L 349.789091 174.528 
L 366.021818 174.528 
L 382.254545 174.528 
L 398.487273 174.528 
" style="fill:none;stroke:#d44e4e;stroke-linecap:square;stroke-width:3;"/>
   </g>
   <g id="line2d_48">
    <path clip-path="url(#p23884b82a9)" d="M 347.832403 -1 
L 349.789091 174.528 
L 352.089884 -1 
" style="fill:none;stroke:#0e4db3;stroke-linecap:square;stroke-width:3;"/>
   </g>
   <g id="line2d_49">
    <path clip-path="url(#p23884b82a9)" d="M 73.832727 174.528 
L 74.749835 -1 
M 161.39259 -1 
L 171.229091 174.528 
L 187.461818 174.528 
L 203.694545 174.528 
L 219.927273 174.528 
L 236.16 84.311115 
L 237.216974 -1 
M 315.096639 -1 
L 317.323636 174.528 
L 333.556364 174.528 
L 349.789091 174.528 
L 366.021818 174.528 
L 382.254545 174.528 
L 398.487273 174.528 
" style="fill:none;stroke:#d44e4e;stroke-linecap:square;stroke-width:3;"/>
   </g>
   <g id="line2d_50">
    <path clip-path="url(#p23884b82a9)" d="M 73.832727 174.528 
L 90.065455 174.528 
L 106.298182 174.528 
L 122.530909 174.528 
L 138.763636 174.528 
L 154.996364 174.528 
L 171.229091 174.528 
L 187.461818 174.528 
L 203.694545 174.528 
L 219.927273 174.528 
L 236.16 174.528 
L 252.392727 174.528 
L 268.625455 174.528 
L 284.858182 174.528 
L 301.090909 174.528 
L 317.323636 174.528 
L 333.556364 174.528 
L 349.789091 174.528 
L 366.021818 174.528 
L 382.254545 174.528 
L 398.487273 174.528 
" style="fill:none;stroke:#0e4db3;stroke-linecap:square;stroke-width:3;"/>
   </g>
   <g id="line2d_51">
    <path clip-path="url(#p23884b82a9)" d="M 73.832727 174.528 
L 90.065455 174.528 
L 106.298182 174.528 
L 122.530909 174.528 
L 138.763636 174.528 
L 154.996364 174.528 
L 171.229091 174.528 
L 187.461818 174.528 
L 203.694545 174.528 
L 219.927273 174.528 
L 236.16 174.528 
L 252.392727 174.528 
L 268.625455 174.528 
L 284.858182 174.528 
L 301.090909 174.528 
L 317.323636 174.528 
L 333.556364 174.528 
L 349.789091 174.528 
L 366.021818 174.528 
L 382.254545 174.528 
L 398.487273 174.528 
" style="fill:none;stroke:#d44e4e;stroke-linecap:square;stroke-width:3;"/>
   </g>
   <g id="line2d_52">
    <path clip-path="url(#p23884b82a9)" d="M 73.832727 174.528 
L 90.065455 174.528 
L 106.298182 174.528 
L 122.530909 174.528 
L 138.763636 174.528 
L 154.996364 174.528 
L 171.229091 174.528 
L 187.461818 174.528 
L 203.694545 174.528 
L 219.927273 174.528 
L 236.16 174.528 
L 252.392727 174.528 
L 268.625455 174.528 
L 284.858182 174.528 
L 301.090909 174.528 
L 317.323636 174.528 
L 333.556364 174.528 
L 349.789091 174.528 
L 366.021818 174.528 
L 382.254545 174.528 
L 398.487273 174.528 
" style="fill:none;stroke:#0e4db3;stroke-linecap:square;stroke-width:3;"/>
   </g>
   <g id="line2d_53">
    <path clip-path="url(#p23884b82a9)" d="M 73.832727 174.528 
L 90.065455 174.528 
L 106.298182 174.528 
L 122.530909 174.528 
L 138.763636 174.528 
L 154.996364 174.528 
L 171.229091 174.528 
L 187.461818 174.528 
L 203.694545 174.528 
L 219.927273 174.528 
L 236.16 174.528 
L 252.392727 174.528 
L 268.625455 174.528 
L 284.858182 174.528 
L 301.090909 174.528 
L 317.323636 174.528 
L 333.556364 174.528 
L 349.789091 174.528 
L 366.021818 174.528 
L 382.254545 174.528 
L 398.487273 174.528 
" style="fill:none;stroke:#d44e4e;stroke-linecap:square;stroke-width:3;"/>
   </g>
   <g id="line2d_54">
    <path clip-path="url(#p23884b82a9)" style="fill:none;stroke:#0e4db3;stroke-linecap:square;stroke-width:3;"/>
   </g>
   <g id="line2d_55">
    <path clip-path="url(#p23884b82a9)" d="M 73.832727 174.528 
L 90.065455 174.528 
L 106.298182 174.528 
L 122.530909 174.528 
L 138.763636 174.528 
L 154.996364 174.528 
L 171.229091 174.528 
L 187.461818 174.528 
L 203.694545 174.528 
L 219.927273 174.528 
L 236.16 174.528 
L 252.392727 174.528 
L 268.625455 174.528 
L 284.858182 174.528 
L 301.090909 174.528 
L 301.833596 -1 
M 397.325136 -1 
L 398.487273 174.528 
" style="fill:none;stroke:#d44e4e;stroke-linecap:square;stroke-width:3;"/>
   </g>
   <g id="line2d_56">
    <path clip-path="url(#p23884b82a9)" d="M 73.832727 174.528 
L 90.065455 174.528 
L 106.298182 174.528 
L 122.530909 174.528 
L 138.763636 174.528 
L 154.996364 174.528 
L 171.229091 174.528 
L 187.461818 174.528 
L 203.694545 174.528 
L 219.927273 174.528 
L 236.16 174.528 
L 252.392727 174.528 
L 268.625455 174.528 
L 284.858182 174.528 
L 301.090909 174.528 
L 317.323636 174.528 
L 333.556364 174.528 
L 349.789091 174.528 
L 366.021818 174.528 
L 382.254545 174.528 
L 398.487273 174.528 
" style="fill:none;stroke:#0e4db3;stroke-linecap:square;stroke-width:3;"/>
   </g>
   <g id="line2d_57">
    <path clip-path="url(#p23884b82a9)" d="M 73.832727 174.528 
L 90.065455 174.528 
L 106.298182 174.528 
L 122.530909 174.528 
L 138.763636 174.528 
L 154.996364 174.528 
L 171.229091 174.528 
L 187.461818 174.528 
L 203.694545 174.528 
L 219.927273 174.528 
L 236.16 174.528 
L 252.392727 174.528 
L 268.625455 174.528 
L 284.858182 174.528 
L 301.090909 174.528 
L 317.323636 174.528 
L 333.556364 174.528 
L 349.789091 174.528 
L 366.021818 174.528 
L 382.254545 174.528 
L 398.487273 174.528 
" style="fill:none;stroke:#d44e4e;stroke-linecap:square;stroke-width:3;"/>
   </g>
   <g id="line2d_58">
    <path clip-path="url(#p23884b82a9)" d="M 73.832727 174.528 
L 90.065455 174.528 
L 106.298182 174.528 
L 122.530909 174.528 
L 138.763636 174.528 
L 154.996364 174.528 
L 171.229091 174.528 
L 187.461818 174.528 
L 203.694545 174.528 
L 219.927273 174.528 
L 236.16 174.528 
L 252.392727 174.528 
L 268.625455 174.528 
L 284.858182 174.528 
L 301.090909 174.528 
L 317.323636 174.528 
L 333.556364 174.528 
L 349.789091 174.528 
L 366.021818 174.528 
L 382.254545 174.528 
L 398.487273 174.528 
" style="fill:none;stroke:#0e4db3;stroke-linecap:square;stroke-width:3;"/>
   </g>
   <g id="line2d_59">
    <path clip-path="url(#p23884b82a9)" d="M 73.832727 174.528 
L 90.065455 174.528 
L 106.298182 174.528 
L 122.530909 174.528 
L 138.763636 174.528 
L 154.996364 174.528 
L 171.229091 174.528 
L 187.461818 174.528 
L 203.694545 174.528 
L 219.927273 174.528 
L 236.16 174.528 
L 252.392727 174.528 
L 268.625455 174.528 
L 284.858182 174.528 
L 301.090909 174.528 
L 317.323636 174.528 
L 333.556364 174.528 
L 349.789091 174.528 
L 366.021818 174.528 
L 382.254545 174.528 
L 398.487273 174.528 
" style="fill:none;stroke:#d44e4e;stroke-linecap:square;stroke-width:3;"/>
   </g>
   <g id="line2d_60">
    <path clip-path="url(#p23884b82a9)" style="fill:none;stroke:#0e4db3;stroke-linecap:square;stroke-width:3;"/>
   </g>
   <g id="line2d_61">
    <path clip-path="url(#p23884b82a9)" d="M 73.832727 88.501547 
L 76.475944 -1 
M 104.820317 -1 
L 106.298182 45.089404 
L 109.010925 -1 
M 166.308261 -1 
L 171.229091 94.003053 
L 187.461818 112.507588 
L 203.694545 102.390382 
L 204.380307 -1 
M 235.771563 -1 
L 236.16 56.464626 
L 236.4307 -1 
M 397.116524 -1 
L 398.487273 88.501547 
" style="fill:none;stroke:#d44e4e;stroke-linecap:square;stroke-width:3;"/>
   </g>
   <g id="line2d_62">
    <path clip-path="url(#p23884b82a9)" d="M 73.832727 174.528 
L 90.065455 174.528 
L 106.298182 174.528 
L 122.530909 174.528 
L 138.763636 174.528 
L 154.996364 174.528 
L 171.229091 174.528 
L 187.461818 174.528 
L 203.694545 174.528 
L 219.927273 174.528 
L 236.16 174.528 
L 252.392727 174.528 
L 268.625455 174.528 
L 284.858182 174.528 
L 301.090909 174.528 
L 317.323636 174.528 
L 333.556364 174.528 
L 349.789091 174.528 
L 366.021818 174.528 
L 382.254545 174.528 
L 398.487273 174.528 
" style="fill:none;stroke:#0e4db3;stroke-linecap:square;stroke-width:3;"/>
   </g>
   <g id="line2d_63">
    <path clip-path="url(#p23884b82a9)" d="M 73.832727 174.528 
L 90.065455 174.528 
L 106.298182 174.528 
L 122.530909 174.528 
L 138.763636 174.528 
L 154.996364 174.528 
L 171.229091 174.528 
L 187.461818 174.528 
L 203.694545 174.528 
L 219.927273 174.528 
L 236.16 174.528 
L 252.392727 174.528 
L 268.625455 174.528 
L 284.858182 174.528 
L 301.090909 174.528 
L 317.323636 174.528 
L 333.556364 174.528 
L 349.789091 174.528 
L 366.021818 174.528 
L 382.254545 174.528 
L 398.487273 174.528 
" style="fill:none;stroke:#d44e4e;stroke-linecap:square;stroke-width:3;"/>
   </g>
   <g id="line2d_64">
    <path clip-path="url(#p23884b82a9)" d="M 73.832727 174.528 
L 90.065455 174.528 
L 106.298182 174.528 
L 122.530909 174.528 
L 138.763636 174.528 
L 154.996364 174.528 
L 171.229091 174.528 
L 187.461818 174.528 
L 203.694545 174.528 
L 219.927273 174.528 
L 236.16 174.528 
L 252.392727 174.528 
L 268.625455 174.528 
L 284.858182 174.528 
L 301.090909 174.528 
L 317.323636 174.528 
L 333.556364 174.528 
L 349.789091 174.528 
L 366.021818 174.528 
L 382.254545 174.528 
L 398.487273 174.528 
" style="fill:none;stroke:#0e4db3;stroke-linecap:square;stroke-width:3;"/>
   </g>
   <g id="line2d_65">
    <path clip-path="url(#p23884b82a9)" d="M 73.832727 174.528 
L 90.065455 174.528 
L 106.298182 174.528 
L 122.530909 174.528 
L 138.763636 174.528 
L 154.996364 174.528 
L 171.229091 174.528 
L 187.461818 174.528 
L 203.694545 174.528 
L 219.927273 174.528 
L 236.16 174.528 
L 252.392727 174.528 
L 268.625455 174.528 
L 284.858182 174.528 
L 301.090909 174.528 
L 317.323636 174.528 
L 333.556364 174.528 
L 349.789091 174.528 
L 366.021818 174.528 
L 382.254545 174.528 
L 398.487273 174.528 
" style="fill:none;stroke:#d44e4e;stroke-linecap:square;stroke-width:3;"/>
   </g>
   <g id="line2d_66">
    <path clip-path="url(#p23884b82a9)" d="M 73.832727 174.528 
L 90.065455 174.528 
L 106.298182 174.528 
L 122.530909 174.528 
L 138.763636 174.528 
L 154.996364 174.528 
L 171.229091 174.528 
L 187.461818 174.528 
L 203.694545 174.528 
L 219.927273 174.528 
L 236.16 174.528 
L 252.392727 174.528 
L 268.625455 174.528 
L 284.858182 174.528 
L 301.090909 174.528 
L 317.323636 174.528 
L 333.556364 174.528 
L 349.789091 174.528 
L 366.021818 174.528 
L 382.254545 174.528 
L 398.487273 174.528 
" style="fill:none;stroke:#0e4db3;stroke-linecap:square;stroke-width:3;"/>
   </g>
   <g id="line2d_67">
    <path clip-path="url(#p23884b82a9)" d="M 73.832727 174.528 
L 90.065455 174.528 
L 106.298182 174.528 
L 122.530909 174.528 
L 138.763636 174.528 
L 154.996364 174.528 
L 171.229091 174.528 
L 187.461818 174.528 
L 203.694545 174.528 
L 219.927273 174.528 
L 236.16 174.528 
L 252.392727 174.528 
L 268.625455 174.528 
L 284.858182 174.528 
L 301.090909 174.528 
L 317.323636 174.528 
L 333.556364 174.528 
L 349.789091 174.528 
L 366.021818 174.528 
L 382.254545 174.528 
L 398.487273 174.528 
" style="fill:none;stroke:#d44e4e;stroke-linecap:square;stroke-width:3;"/>
   </g>
   <g id="line2d_68">
    <path clip-path="url(#p23884b82a9)" d="M 73.832727 174.528 
L 90.065455 174.528 
L 106.298182 174.528 
L 122.530909 174.528 
L 138.763636 174.528 
L 154.996364 174.528 
L 171.229091 174.528 
L 187.461818 174.528 
L 203.694545 174.528 
L 219.927273 174.528 
L 236.16 174.528 
L 252.392727 174.528 
L 268.625455 174.528 
L 284.858182 174.528 
L 301.090909 174.528 
L 317.323636 174.528 
L 333.556364 174.528 
L 349.789091 174.528 
L 366.021818 174.528 
L 382.254545 174.528 
L 398.487273 174.528 
" style="fill:none;stroke:#0e4db3;stroke-linecap:square;stroke-width:3;"/>
   </g>
   <g id="line2d_69">
    <path clip-path="url(#p23884b82a9)" d="M 73.832727 174.528 
L 90.065455 174.528 
L 106.298182 174.528 
L 122.530909 174.528 
L 138.763636 174.528 
L 154.996364 174.528 
L 171.229091 174.528 
L 187.461818 174.528 
L 203.694545 174.528 
L 219.927273 174.528 
L 236.16 174.528 
L 252.392727 174.528 
L 268.625455 174.528 
L 284.858182 174.528 
L 301.090909 174.528 
L 317.323636 174.528 
L 333.556364 174.528 
L 349.789091 174.528 
L 366.021818 174.528 
L 382.254545 174.528 
L 398.487273 174.528 
" style="fill:none;stroke:#d44e4e;stroke-linecap:square;stroke-width:3;"/>
   </g>
   <g id="line2d_70">
    <path clip-path="url(#p23884b82a9)" style="fill:none;stroke:#0e4db3;stroke-linecap:square;stroke-width:3;"/>
   </g>
   <g id="line2d_71">
    <path clip-path="url(#p23884b82a9)" d="M 73.832727 174.528 
L 90.065455 174.528 
L 106.298182 174.528 
L 122.530909 174.528 
L 138.763636 174.528 
L 154.996364 174.528 
L 171.229091 174.528 
L 187.461818 174.528 
L 203.694545 174.528 
L 219.927273 174.528 
L 236.16 174.528 
L 252.392727 174.528 
L 268.625455 174.528 
L 284.858182 174.528 
L 301.090909 174.528 
L 317.323636 174.528 
L 333.556364 174.528 
L 349.789091 174.528 
L 366.021818 174.528 
L 382.254545 174.528 
L 398.487273 174.528 
" style="fill:none;stroke:#d44e4e;stroke-linecap:square;stroke-width:3;"/>
   </g>
   <g id="line2d_72">
    <path clip-path="url(#p23884b82a9)" d="M 73.832727 174.528 
L 90.065455 174.528 
L 106.298182 174.528 
L 122.530909 174.528 
L 138.763636 174.528 
L 154.996364 174.528 
L 171.229091 174.528 
L 187.461818 174.528 
L 203.694545 174.528 
L 219.927273 174.528 
L 236.16 174.528 
L 252.392727 174.528 
L 268.625455 174.528 
L 284.858182 174.528 
L 301.090909 174.528 
L 317.323636 174.528 
L 333.556364 174.528 
L 349.789091 174.528 
L 366.021818 174.528 
L 382.254545 174.528 
L 398.487273 174.528 
" style="fill:none;stroke:#0e4db3;stroke-linecap:square;stroke-width:3;"/>
   </g>
   <g id="line2d_73">
    <path clip-path="url(#p23884b82a9)" d="M 73.832727 174.528 
L 90.065455 174.528 
L 106.298182 174.528 
L 122.530909 174.528 
L 138.763636 174.528 
L 154.996364 174.528 
L 171.229091 174.528 
L 187.461818 174.528 
L 203.694545 174.528 
L 219.927273 174.528 
L 236.16 174.528 
L 252.392727 174.528 
L 268.625455 174.528 
L 284.858182 174.528 
L 301.090909 174.528 
L 317.323636 174.528 
L 333.556364 174.528 
L 349.789091 174.528 
L 366.021818 174.528 
L 382.254545 174.528 
L 398.487273 174.528 
" style="fill:none;stroke:#d44e4e;stroke-linecap:square;stroke-width:3;"/>
   </g>
   <g id="line2d_74">
    <path clip-path="url(#p23884b82a9)" d="M 73.832727 174.528 
L 90.065455 174.528 
L 106.298182 174.528 
L 122.530909 174.528 
L 138.763636 174.528 
L 154.996364 174.528 
L 171.229091 174.528 
L 187.461818 174.528 
L 203.694545 174.528 
L 219.927273 174.528 
L 236.16 174.528 
L 252.392727 174.528 
L 268.625455 174.528 
L 284.858182 174.528 
L 301.090909 174.528 
L 317.323636 174.528 
L 333.556364 174.528 
L 349.789091 174.528 
L 366.021818 174.528 
L 382.254545 174.528 
L 398.487273 174.528 
" style="fill:none;stroke:#0e4db3;stroke-linecap:square;stroke-width:3;"/>
   </g>
   <g id="line2d_75">
    <path clip-path="url(#p23884b82a9)" d="M 73.832727 174.528 
L 90.065455 174.528 
L 106.298182 174.528 
L 122.530909 174.528 
L 138.763636 174.528 
L 154.996364 174.528 
L 171.229091 174.528 
L 187.461818 174.528 
L 203.694545 174.528 
L 219.927273 174.528 
L 236.16 174.528 
L 252.392727 174.528 
L 268.625455 174.528 
L 284.858182 174.528 
L 301.090909 174.528 
L 317.323636 174.528 
L 333.556364 174.528 
L 349.789091 174.528 
L 366.021818 174.528 
L 382.254545 174.528 
L 398.487273 174.528 
" style="fill:none;stroke:#d44e4e;stroke-linecap:square;stroke-width:3;"/>
   </g>
   <g id="line2d_76">
    <path clip-path="url(#p23884b82a9)" d="M 73.832727 174.528 
L 90.065455 174.528 
L 106.298182 174.528 
L 122.530909 174.528 
L 138.763636 174.528 
L 154.996364 174.528 
L 171.229091 174.528 
L 187.461818 174.528 
L 203.694545 174.528 
L 219.927273 174.528 
L 236.16 174.528 
L 252.392727 174.528 
L 268.625455 174.528 
L 284.858182 174.528 
L 301.090909 174.528 
L 317.323636 174.528 
L 333.556364 174.528 
L 349.789091 174.528 
L 366.021818 174.528 
L 382.254545 174.528 
L 398.487273 174.528 
" style="fill:none;stroke:#0e4db3;stroke-linecap:square;stroke-width:3;"/>
   </g>
   <g id="line2d_77">
    <path clip-path="url(#p23884b82a9)" d="M 73.832727 174.528 
L 90.065455 174.528 
L 106.298182 174.528 
L 122.530909 174.528 
L 138.763636 174.528 
L 154.996364 174.528 
L 171.229091 174.528 
L 187.461818 174.528 
L 203.694545 174.528 
L 219.927273 174.528 
L 236.16 174.528 
L 252.392727 174.528 
L 268.625455 174.528 
L 284.858182 174.528 
L 301.090909 174.528 
L 317.323636 174.528 
L 333.556364 174.528 
L 349.789091 174.528 
L 366.021818 174.528 
L 382.254545 174.528 
L 398.487273 174.528 
" style="fill:none;stroke:#d44e4e;stroke-linecap:square;stroke-width:3;"/>
   </g>
   <g id="line2d_78">
    <path clip-path="url(#p23884b82a9)" style="fill:none;stroke:#0e4db3;stroke-linecap:square;stroke-width:3;"/>
   </g>
   <g id="line2d_79">
    <path clip-path="url(#p23884b82a9)" d="M 73.832727 174.528 
L 90.065455 174.528 
L 106.298182 174.528 
L 122.530909 174.528 
L 138.763636 174.528 
L 154.996364 174.528 
L 171.229091 174.528 
L 187.461818 174.528 
L 203.694545 174.528 
L 219.927273 174.528 
L 236.16 174.528 
L 252.392727 174.528 
L 268.625455 174.528 
L 284.858182 174.528 
L 301.090909 174.528 
L 317.323636 174.528 
L 333.556364 174.528 
L 349.789091 174.528 
L 366.021818 174.528 
L 382.254545 174.528 
L 398.487273 174.528 
" style="fill:none;stroke:#d44e4e;stroke-linecap:square;stroke-width:3;"/>
   </g>
   <g id="line2d_80">
    <path clip-path="url(#p23884b82a9)" d="M 73.832727 174.528 
L 90.065455 174.528 
L 106.298182 174.528 
L 122.530909 174.528 
L 138.763636 174.528 
L 154.996364 174.528 
L 171.229091 174.528 
L 187.461818 174.528 
L 203.694545 174.528 
L 219.927273 174.528 
L 236.16 174.528 
L 252.392727 174.528 
L 268.625455 174.528 
L 284.858182 174.528 
L 301.090909 174.528 
L 317.323636 174.528 
L 333.556364 174.528 
L 349.789091 174.528 
L 366.021818 174.528 
L 382.254545 174.528 
L 398.487273 174.528 
" style="fill:none;stroke:#0e4db3;stroke-linecap:square;stroke-width:3;"/>
   </g>
   <g id="line2d_81">
    <path clip-path="url(#p23884b82a9)" d="M 73.832727 174.528 
L 90.065455 174.528 
L 106.298182 174.528 
L 122.530909 174.528 
L 138.763636 174.528 
L 154.996364 174.528 
L 171.229091 174.528 
L 187.461818 174.528 
L 203.694545 174.528 
L 219.927273 174.528 
L 236.16 174.528 
L 252.392727 174.528 
L 268.625455 174.528 
L 284.858182 174.528 
L 301.090909 174.528 
L 317.323636 174.528 
L 333.556364 174.528 
L 349.789091 174.528 
L 366.021818 174.528 
L 382.254545 174.528 
L 398.487273 174.528 
" style="fill:none;stroke:#d44e4e;stroke-linecap:square;stroke-width:3;"/>
   </g>
   <g id="line2d_82">
    <path clip-path="url(#p23884b82a9)" style="fill:none;stroke:#0e4db3;stroke-linecap:square;stroke-width:3;"/>
   </g>
   <g id="line2d_83">
    <path clip-path="url(#p23884b82a9)" d="M 73.832727 174.528 
L 75.61526 -1 
M 136.959557 -1 
L 138.763636 174.528 
L 154.996364 174.528 
L 156.536782 -1 
M 196.416655 -1 
L 203.694545 174.528 
L 219.927273 174.528 
L 236.16 174.528 
L 252.392727 174.528 
L 268.625455 174.528 
L 284.858182 174.528 
L 301.090909 80.289755 
L 317.323636 174.528 
L 333.556364 174.528 
L 334.896271 -1 
M 397.087433 -1 
L 398.487273 174.528 
" style="fill:none;stroke:#d44e4e;stroke-linecap:square;stroke-width:3;"/>
   </g>
   <g id="line2d_84">
    <path clip-path="url(#p23884b82a9)" style="fill:none;stroke:#0e4db3;stroke-linecap:square;stroke-width:3;"/>
   </g>
   <g id="line2d_85">
    <path clip-path="url(#p23884b82a9)" style="fill:none;stroke:#d44e4e;stroke-linecap:square;stroke-width:3;"/>
   </g>
   <g id="line2d_86">
    <path clip-path="url(#p23884b82a9)" d="M 73.832727 174.528 
L 90.065455 174.528 
L 106.298182 174.528 
L 122.530909 174.528 
L 138.763636 174.528 
L 154.996364 174.528 
L 171.229091 174.528 
L 187.461818 174.528 
L 203.694545 174.528 
L 219.927273 174.528 
L 236.16 174.528 
L 252.392727 174.528 
L 268.625455 174.528 
L 284.858182 174.528 
L 301.090909 174.528 
L 317.323636 174.528 
L 333.556364 174.528 
L 349.789091 174.528 
L 366.021818 174.528 
L 382.254545 174.528 
L 398.487273 174.528 
" style="fill:none;stroke:#0e4db3;stroke-linecap:square;stroke-width:3;"/>
   </g>
   <g id="line2d_87">
    <path clip-path="url(#p23884b82a9)" d="M 73.832727 174.528 
L 90.065455 174.528 
L 106.298182 174.528 
L 122.530909 174.528 
L 138.763636 174.528 
L 154.996364 174.528 
L 171.229091 174.528 
L 187.461818 174.528 
L 203.694545 174.528 
L 219.927273 174.528 
L 236.16 174.528 
L 252.392727 174.528 
L 268.625455 174.528 
L 284.858182 174.528 
L 301.090909 174.528 
L 317.323636 174.528 
L 333.556364 174.528 
L 349.789091 174.528 
L 366.021818 174.528 
L 382.254545 174.528 
L 398.487273 174.528 
" style="fill:none;stroke:#d44e4e;stroke-linecap:square;stroke-width:3;"/>
   </g>
   <g id="line2d_88">
    <path clip-path="url(#p23884b82a9)" d="M 73.832727 174.528 
L 90.065455 174.528 
L 106.298182 174.528 
L 122.530909 174.528 
L 138.763636 174.528 
L 154.996364 174.528 
L 171.229091 174.528 
L 187.461818 174.528 
L 203.694545 174.528 
L 219.927273 174.528 
L 236.16 174.528 
L 252.392727 174.528 
L 268.625455 174.528 
L 284.858182 174.528 
L 301.090909 174.528 
L 317.323636 174.528 
L 333.556364 174.528 
L 349.789091 174.528 
L 366.021818 174.528 
L 382.254545 174.528 
L 398.487273 174.528 
" style="fill:none;stroke:#0e4db3;stroke-linecap:square;stroke-width:3;"/>
   </g>
   <g id="line2d_89">
    <path clip-path="url(#p23884b82a9)" d="M 73.832727 174.528 
L 90.065455 174.528 
L 106.298182 174.528 
L 122.530909 174.528 
L 138.763636 174.528 
L 154.996364 174.528 
L 171.229091 174.528 
L 187.461818 174.528 
L 203.694545 174.528 
L 219.927273 174.528 
L 236.16 174.528 
L 252.392727 174.528 
L 268.625455 174.528 
L 284.858182 174.528 
L 301.090909 174.528 
L 317.323636 174.528 
L 333.556364 174.528 
L 349.789091 174.528 
L 366.021818 174.528 
L 382.254545 174.528 
L 398.487273 174.528 
" style="fill:none;stroke:#d44e4e;stroke-linecap:square;stroke-width:3;"/>
   </g>
   <g id="line2d_90">
    <path clip-path="url(#p23884b82a9)" d="M 73.832727 174.528 
L 90.065455 174.528 
L 106.298182 174.528 
L 108.883923 -1 
M 363.835165 -1 
L 366.021818 174.528 
L 382.254545 174.528 
L 398.487273 174.528 
" style="fill:none;stroke:#0e4db3;stroke-linecap:square;stroke-width:3;"/>
   </g>
   <g id="line2d_91">
    <path clip-path="url(#p23884b82a9)" d="M 73.832727 174.528 
L 90.065455 174.528 
L 106.298182 174.528 
L 122.530909 174.528 
L 138.763636 174.528 
L 154.996364 174.528 
L 171.229091 174.528 
L 187.461818 174.528 
L 191.349382 -1 
M 234.007117 -1 
L 236.16 174.528 
L 236.899777 -1 
M 348.221376 -1 
L 349.789091 174.528 
L 366.021818 174.528 
L 382.254545 174.528 
L 398.487273 174.528 
" style="fill:none;stroke:#d44e4e;stroke-linecap:square;stroke-width:3;"/>
   </g>
   <g id="line2d_92">
    <path clip-path="url(#p23884b82a9)" style="fill:none;stroke:#0e4db3;stroke-linecap:square;stroke-width:3;"/>
   </g>
   <g id="line2d_93">
    <path clip-path="url(#p23884b82a9)" d="M 73.832727 174.528 
L 75.297076 -1 
M 154.231281 -1 
L 154.996364 33.697389 
L 171.229091 35.947721 
L 187.461818 174.528 
L 203.694545 174.528 
L 219.927273 174.528 
L 236.16 174.528 
L 252.392727 174.528 
L 268.625455 174.528 
L 284.858182 174.528 
L 301.090909 174.528 
L 317.323636 174.528 
L 333.556364 174.528 
L 349.789091 174.528 
L 366.021818 174.528 
L 382.254545 174.528 
L 398.487273 174.528 
" style="fill:none;stroke:#d44e4e;stroke-linecap:square;stroke-width:3;"/>
   </g>
   <g id="line2d_94">
    <path clip-path="url(#p23884b82a9)" d="M 73.832727 174.528 
L 90.065455 174.528 
L 106.298182 174.528 
L 122.530909 174.528 
L 138.763636 174.528 
L 154.996364 174.528 
L 171.229091 174.528 
L 187.461818 174.528 
L 203.694545 174.528 
L 219.927273 174.528 
L 236.16 174.528 
L 252.392727 174.528 
L 268.625455 174.528 
L 284.858182 174.528 
L 301.090909 174.528 
L 317.323636 174.528 
L 333.556364 174.528 
L 349.789091 174.528 
L 366.021818 174.528 
L 382.254545 174.528 
L 398.487273 174.528 
" style="fill:none;stroke:#0e4db3;stroke-linecap:square;stroke-width:3;"/>
   </g>
   <g id="line2d_95">
    <path clip-path="url(#p23884b82a9)" d="M 73.832727 174.528 
L 90.065455 174.528 
L 106.298182 174.528 
L 122.530909 174.528 
L 138.763636 174.528 
L 154.996364 174.528 
L 171.229091 174.528 
L 187.461818 174.528 
L 203.694545 174.528 
L 219.927273 174.528 
L 236.16 174.528 
L 252.392727 174.528 
L 268.625455 174.528 
L 284.858182 174.528 
L 301.090909 174.528 
L 317.323636 174.528 
L 333.556364 174.528 
L 349.789091 174.528 
L 366.021818 174.528 
L 382.254545 174.528 
L 398.487273 174.528 
" style="fill:none;stroke:#d44e4e;stroke-linecap:square;stroke-width:3;"/>
   </g>
   <g id="line2d_96">
    <path clip-path="url(#p23884b82a9)" style="fill:none;stroke:#0e4db3;stroke-linecap:square;stroke-width:3;"/>
   </g>
   <g id="line2d_97">
    <path clip-path="url(#p23884b82a9)" d="M 121.757665 -1 
L 122.530909 174.528 
L 138.763636 174.528 
L 154.996364 174.528 
L 171.229091 174.528 
L 187.461818 174.528 
L 203.694545 174.528 
L 205.582423 -1 
" style="fill:none;stroke:#d44e4e;stroke-linecap:square;stroke-width:3;"/>
   </g>
   <g id="line2d_98">
    <path clip-path="url(#p23884b82a9)" d="M 73.832727 174.528 
L 90.065455 174.528 
L 106.298182 174.528 
L 122.530909 174.528 
L 138.763636 174.528 
L 154.996364 174.528 
L 171.229091 174.528 
L 187.461818 174.528 
L 203.694545 174.528 
L 219.927273 174.528 
L 236.16 174.528 
L 252.392727 174.528 
L 268.625455 174.528 
L 284.858182 174.528 
L 301.090909 174.528 
L 317.323636 174.528 
L 333.556364 174.528 
L 349.789091 174.528 
L 366.021818 174.528 
L 382.254545 174.528 
L 398.487273 174.528 
" style="fill:none;stroke:#0e4db3;stroke-linecap:square;stroke-width:3;"/>
   </g>
   <g id="line2d_99">
    <path clip-path="url(#p23884b82a9)" d="M 73.832727 174.528 
L 90.065455 174.528 
L 106.298182 174.528 
L 122.530909 174.528 
L 138.763636 174.528 
L 154.996364 174.528 
L 171.229091 174.528 
L 187.461818 174.528 
L 203.694545 174.528 
L 219.927273 174.528 
L 236.16 174.528 
L 252.392727 174.528 
L 268.625455 174.528 
L 284.858182 174.528 
L 301.090909 174.528 
L 317.323636 174.528 
L 333.556364 174.528 
L 349.789091 174.528 
L 366.021818 174.528 
L 382.254545 174.528 
L 398.487273 174.528 
" style="fill:none;stroke:#d44e4e;stroke-linecap:square;stroke-width:3;"/>
   </g>
   <g id="line2d_100">
    <path clip-path="url(#p23884b82a9)" style="fill:none;stroke:#0e4db3;stroke-linecap:square;stroke-width:3;"/>
   </g>
   <g id="line2d_101">
    <path clip-path="url(#p23884b82a9)" style="fill:none;stroke:#d44e4e;stroke-linecap:square;stroke-width:3;"/>
   </g>
   <g id="line2d_102">
    <path clip-path="url(#p23884b82a9)" d="M 73.832727 174.528 
L 90.065455 174.528 
L 106.298182 174.528 
L 122.530909 174.528 
L 138.763636 174.528 
L 154.996364 174.528 
L 171.229091 174.528 
L 187.461818 174.528 
L 203.694545 174.528 
L 219.927273 174.528 
L 236.16 174.528 
L 252.392727 174.528 
L 268.625455 174.528 
L 284.858182 174.528 
L 301.090909 174.528 
L 317.323636 174.528 
L 333.556364 174.528 
L 349.789091 174.528 
L 366.021818 174.528 
L 382.254545 174.528 
L 398.487273 174.528 
" style="fill:none;stroke:#0e4db3;stroke-linecap:square;stroke-width:3;"/>
   </g>
   <g id="line2d_103">
    <path clip-path="url(#p23884b82a9)" d="M 73.832727 174.528 
L 90.065455 174.528 
L 106.298182 174.528 
L 122.530909 174.528 
L 138.763636 174.528 
L 154.996364 174.528 
L 171.229091 174.528 
L 187.461818 174.528 
L 203.694545 174.528 
L 219.927273 174.528 
L 236.16 174.528 
L 252.392727 174.528 
L 268.625455 174.528 
L 284.858182 174.528 
L 301.090909 174.528 
L 317.323636 174.528 
L 333.556364 174.528 
L 349.789091 174.528 
L 366.021818 174.528 
L 382.254545 174.528 
L 398.487273 174.528 
" style="fill:none;stroke:#d44e4e;stroke-linecap:square;stroke-width:3;"/>
   </g>
   <g id="line2d_104">
    <path clip-path="url(#p23884b82a9)" style="fill:none;stroke:#0e4db3;stroke-linecap:square;stroke-width:3;"/>
   </g>
   <g id="line2d_105">
    <path clip-path="url(#p23884b82a9)" style="fill:none;stroke:#d44e4e;stroke-linecap:square;stroke-width:3;"/>
   </g>
   <g id="line2d_106">
    <path clip-path="url(#p23884b82a9)" style="fill:none;stroke:#0e4db3;stroke-linecap:square;stroke-width:3;"/>
   </g>
   <g id="line2d_107">
    <path clip-path="url(#p23884b82a9)" d="M 73.832727 174.528 
L 74.970458 -1 
M 168.155924 -1 
L 171.229091 174.528 
L 187.461818 174.528 
L 203.694545 174.528 
L 219.927273 174.528 
L 236.16 174.528 
L 252.392727 174.528 
L 268.625455 174.528 
L 272.464023 -1 
M 365.031907 -1 
L 366.021818 174.528 
L 367.166695 -1 
M 397.342396 -1 
L 398.487273 174.528 
" style="fill:none;stroke:#d44e4e;stroke-linecap:square;stroke-width:3;"/>
   </g>
   <g id="line2d_108">
    <path clip-path="url(#p23884b82a9)" d="M 73.832727 174.528 
L 90.065455 174.528 
L 106.298182 174.528 
L 122.530909 174.528 
L 138.763636 174.528 
L 154.996364 174.528 
L 171.229091 174.528 
L 187.461818 174.528 
L 203.694545 174.528 
L 219.927273 174.528 
L 236.16 174.528 
L 252.392727 174.528 
L 268.625455 174.528 
L 284.858182 174.528 
L 301.090909 174.528 
L 317.323636 174.528 
L 333.556364 174.528 
L 349.789091 174.528 
L 366.021818 174.528 
L 382.254545 174.528 
L 398.487273 174.528 
" style="fill:none;stroke:#0e4db3;stroke-linecap:square;stroke-width:3;"/>
   </g>
   <g id="line2d_109">
    <path clip-path="url(#p23884b82a9)" d="M 73.832727 174.528 
L 90.065455 174.528 
L 106.298182 174.528 
L 122.530909 174.528 
L 138.763636 174.528 
L 154.996364 174.528 
L 171.229091 174.528 
L 187.461818 174.528 
L 203.694545 174.528 
L 219.927273 174.528 
L 236.16 174.528 
L 252.392727 174.528 
L 268.625455 174.528 
L 284.858182 174.528 
L 301.090909 174.528 
L 317.323636 174.528 
L 333.556364 174.528 
L 349.789091 174.528 
L 366.021818 174.528 
L 382.254545 174.528 
L 398.487273 174.528 
" style="fill:none;stroke:#d44e4e;stroke-linecap:square;stroke-width:3;"/>
   </g>
   <g id="line2d_110">
    <path clip-path="url(#p23884b82a9)" d="M 73.832727 174.528 
L 90.065455 174.528 
L 106.298182 174.528 
L 122.530909 174.528 
L 138.763636 174.528 
L 154.996364 174.528 
L 171.229091 174.528 
L 187.461818 174.528 
L 203.694545 174.528 
L 219.927273 174.528 
L 236.16 174.528 
L 252.392727 174.528 
L 268.625455 174.528 
L 284.858182 174.528 
L 301.090909 174.528 
L 317.323636 174.528 
L 333.556364 174.528 
L 349.789091 174.528 
L 366.021818 174.528 
L 382.254545 174.528 
L 398.487273 174.528 
" style="fill:none;stroke:#0e4db3;stroke-linecap:square;stroke-width:3;"/>
   </g>
   <g id="line2d_111">
    <path clip-path="url(#p23884b82a9)" d="M 73.832727 174.528 
L 90.065455 174.528 
L 106.298182 174.528 
L 122.530909 174.528 
L 138.763636 174.528 
L 154.996364 174.528 
L 171.229091 174.528 
L 187.461818 174.528 
L 203.694545 174.528 
L 219.927273 174.528 
L 236.16 174.528 
L 252.392727 174.528 
L 268.625455 174.528 
L 284.858182 174.528 
L 301.090909 174.528 
L 317.323636 174.528 
L 333.556364 174.528 
L 349.789091 174.528 
L 366.021818 174.528 
L 382.254545 174.528 
L 398.487273 174.528 
" style="fill:none;stroke:#d44e4e;stroke-linecap:square;stroke-width:3;"/>
   </g>
   <g id="line2d_112">
    <path clip-path="url(#p23884b82a9)" style="fill:none;stroke:#0e4db3;stroke-linecap:square;stroke-width:3;"/>
   </g>
   <g id="line2d_113">
    <path clip-path="url(#p23884b82a9)" style="fill:none;stroke:#d44e4e;stroke-linecap:square;stroke-width:3;"/>
   </g>
   <g id="line2d_114">
    <path clip-path="url(#p23884b82a9)" d="M 185.762726 -1 
L 187.461818 174.528 
L 192.921313 -1 
" style="fill:none;stroke:#0e4db3;stroke-linecap:square;stroke-width:3;"/>
   </g>
   <g id="line2d_115">
    <path clip-path="url(#p23884b82a9)" d="M 73.832727 174.528 
L 90.065455 174.528 
L 106.298182 174.528 
L 122.530909 174.528 
L 138.763636 174.528 
L 154.996364 174.528 
L 171.229091 174.528 
L 187.461818 174.528 
L 203.694545 174.528 
L 219.927273 174.528 
L 236.16 174.528 
L 252.392727 174.528 
L 254.590631 -1 
M 394.93084 -1 
L 398.487273 174.528 
" style="fill:none;stroke:#d44e4e;stroke-linecap:square;stroke-width:3;"/>
   </g>
   <g id="line2d_116">
    <path clip-path="url(#p23884b82a9)" style="fill:none;stroke:#0e4db3;stroke-linecap:square;stroke-width:3;"/>
   </g>
   <g id="line2d_117">
    <path clip-path="url(#p23884b82a9)" d="M 73.832727 174.528 
L 90.065455 174.528 
L 106.298182 174.528 
L 122.530909 174.528 
L 138.763636 174.528 
L 154.996364 174.528 
L 171.229091 174.528 
L 187.461818 174.528 
L 203.694545 174.528 
L 219.927273 174.528 
L 236.16 174.528 
L 252.392727 174.528 
L 268.625455 174.528 
L 284.858182 174.528 
L 301.090909 174.528 
L 317.323636 174.528 
L 333.556364 174.528 
L 349.789091 174.528 
L 366.021818 174.528 
L 382.254545 174.528 
L 398.487273 174.528 
" style="fill:none;stroke:#d44e4e;stroke-linecap:square;stroke-width:3;"/>
   </g>
   <g id="line2d_118">
    <path clip-path="url(#p23884b82a9)" d="M 73.832727 174.528 
L 74.513672 -1 
M 267.455989 -1 
L 268.625455 174.528 
L 284.858182 174.528 
L 286.293304 -1 
M 338.443144 -1 
L 349.789091 174.528 
L 366.021818 174.528 
L 382.254545 174.528 
L 398.487273 174.528 
" style="fill:none;stroke:#0e4db3;stroke-linecap:square;stroke-width:3;"/>
   </g>
   <g id="line2d_119">
    <path clip-path="url(#p23884b82a9)" d="M 73.832727 174.528 
L 90.065455 174.528 
L 106.298182 174.528 
L 107.075718 -1 
M 198.379768 -1 
L 203.694545 174.528 
L 219.927273 174.528 
L 236.16 174.528 
L 252.392727 174.528 
L 268.625455 174.528 
L 284.858182 174.528 
L 301.090909 174.528 
L 317.323636 174.528 
L 333.556364 174.528 
L 349.789091 174.528 
L 366.021818 174.528 
L 382.254545 174.528 
L 398.487273 174.528 
" style="fill:none;stroke:#d44e4e;stroke-linecap:square;stroke-width:3;"/>
   </g>
   <g id="line2d_120">
    <path clip-path="url(#p23884b82a9)" d="M 73.832727 174.528 
L 90.065455 174.528 
L 106.298182 174.528 
L 122.530909 174.528 
L 138.763636 174.528 
L 154.996364 174.528 
L 171.229091 174.528 
L 187.461818 174.528 
L 203.694545 174.528 
L 219.927273 174.528 
L 236.16 174.528 
L 252.392727 174.528 
L 268.625455 174.528 
L 284.858182 174.528 
L 301.090909 174.528 
L 317.323636 174.528 
L 333.556364 174.528 
L 349.789091 174.528 
L 366.021818 174.528 
L 382.254545 174.528 
L 398.487273 174.528 
" style="fill:none;stroke:#0e4db3;stroke-linecap:square;stroke-width:3;"/>
   </g>
   <g id="line2d_121">
    <path clip-path="url(#p23884b82a9)" d="M 73.832727 174.528 
L 90.065455 174.528 
L 106.298182 174.528 
L 122.530909 174.528 
L 138.763636 174.528 
L 154.996364 174.528 
L 171.229091 174.528 
L 187.461818 174.528 
L 203.694545 174.528 
L 219.927273 174.528 
L 236.16 174.528 
L 252.392727 174.528 
L 268.625455 174.528 
L 284.858182 174.528 
L 301.090909 174.528 
L 317.323636 174.528 
L 333.556364 174.528 
L 349.789091 174.528 
L 366.021818 174.528 
L 382.254545 174.528 
L 398.487273 174.528 
" style="fill:none;stroke:#d44e4e;stroke-linecap:square;stroke-width:3;"/>
   </g>
   <g id="line2d_122">
    <path clip-path="url(#p23884b82a9)" d="M 73.832727 174.528 
L 90.065455 174.528 
L 100.233022 -1 
M 348.550641 -1 
L 349.789091 174.528 
L 366.021818 174.528 
L 382.254545 174.528 
L 398.487273 174.528 
" style="fill:none;stroke:#0e4db3;stroke-linecap:square;stroke-width:3;"/>
   </g>
   <g id="line2d_123">
    <path clip-path="url(#p23884b82a9)" d="M 73.832727 174.528 
L 90.065455 174.528 
L 106.298182 174.528 
L 122.530909 174.528 
L 138.763636 174.528 
L 140.387898 -1 
M 316.257669 -1 
L 317.323636 174.528 
L 333.556364 174.528 
L 349.789091 174.528 
L 366.021818 174.528 
L 382.254545 174.528 
L 398.487273 174.528 
" style="fill:none;stroke:#d44e4e;stroke-linecap:square;stroke-width:3;"/>
   </g>
   <g id="line2d_124">
    <path clip-path="url(#p23884b82a9)" d="M 73.832727 174.528 
L 90.065455 174.528 
L 106.298182 174.528 
L 122.530909 174.528 
L 138.763636 174.528 
L 154.996364 174.528 
L 171.229091 174.528 
L 187.461818 174.528 
L 203.694545 174.528 
L 219.927273 174.528 
L 236.16 174.528 
L 252.392727 174.528 
L 268.625455 174.528 
L 284.858182 174.528 
L 301.090909 174.528 
L 317.323636 174.528 
L 333.556364 174.528 
L 349.789091 174.528 
L 366.021818 174.528 
L 382.254545 174.528 
L 398.487273 174.528 
" style="fill:none;stroke:#0e4db3;stroke-linecap:square;stroke-width:3;"/>
   </g>
   <g id="line2d_125">
    <path clip-path="url(#p23884b82a9)" d="M 73.832727 174.528 
L 90.065455 174.528 
L 106.298182 174.528 
L 122.530909 174.528 
L 138.763636 174.528 
L 154.996364 174.528 
L 171.229091 174.528 
L 187.461818 174.528 
L 203.694545 174.528 
L 219.927273 174.528 
L 236.16 174.528 
L 252.392727 174.528 
L 268.625455 174.528 
L 284.858182 174.528 
L 301.090909 174.528 
L 317.323636 174.528 
L 333.556364 174.528 
L 349.789091 174.528 
L 366.021818 174.528 
L 382.254545 174.528 
L 398.487273 174.528 
" style="fill:none;stroke:#d44e4e;stroke-linecap:square;stroke-width:3;"/>
   </g>
   <g id="line2d_126">
    <path clip-path="url(#p23884b82a9)" d="M 73.832727 174.528 
L 78.957468 -1 
M 233.136809 -1 
L 236.16 174.528 
L 252.392727 174.528 
L 268.625455 174.528 
L 284.858182 174.528 
L 301.090909 174.528 
L 317.323636 174.528 
L 333.556364 174.528 
L 349.789091 174.528 
L 366.021818 174.528 
L 382.254545 174.528 
L 398.487273 174.528 
" style="fill:none;stroke:#0e4db3;stroke-linecap:square;stroke-width:3;"/>
   </g>
   <g id="line2d_127">
    <path clip-path="url(#p23884b82a9)" d="M 73.832727 174.528 
L 83.133914 -1 
M 312.114072 -1 
L 317.323636 145.645266 
L 325.681374 -1 
M 388.459391 -1 
L 398.487273 174.528 
" style="fill:none;stroke:#d44e4e;stroke-linecap:square;stroke-width:3;"/>
   </g>
   <g id="line2d_128">
    <path clip-path="url(#p23884b82a9)" style="fill:none;stroke:#0e4db3;stroke-linecap:square;stroke-width:3;"/>
   </g>
   <g id="line2d_129">
    <path clip-path="url(#p23884b82a9)" d="M 73.832727 174.528 
L 90.065455 174.528 
L 106.298182 174.528 
L 122.530909 174.528 
L 138.763636 174.528 
L 154.996364 174.528 
L 168.090081 -1 
M 199.451736 -1 
L 203.694545 166.867862 
L 219.927273 174.528 
L 236.16 174.528 
L 250.251114 -1 
M 254.534341 -1 
L 268.625455 174.528 
L 284.858182 174.528 
L 287.016643 -1 
M 365.003562 -1 
L 366.021818 174.528 
L 382.254545 174.528 
L 398.487273 174.528 
" style="fill:none;stroke:#d44e4e;stroke-linecap:square;stroke-width:3;"/>
   </g>
   <g id="line2d_130">
    <path clip-path="url(#p23884b82a9)" d="M 73.832727 174.528 
L 90.065455 174.528 
L 106.298182 174.528 
L 122.530909 174.528 
L 138.763636 174.528 
L 154.996364 174.528 
L 171.229091 174.528 
L 187.461818 174.528 
L 203.694545 174.528 
L 219.927273 174.528 
L 236.16 174.528 
L 252.392727 174.528 
L 268.625455 174.528 
L 284.858182 174.528 
L 301.090909 174.528 
L 317.323636 174.528 
L 333.556364 174.528 
L 349.789091 174.528 
L 366.021818 174.528 
L 382.254545 174.528 
L 398.487273 174.528 
" style="fill:none;stroke:#0e4db3;stroke-linecap:square;stroke-width:3;"/>
   </g>
   <g id="line2d_131">
    <path clip-path="url(#p23884b82a9)" d="M 73.832727 174.528 
L 90.065455 174.528 
L 106.298182 174.528 
L 122.530909 174.528 
L 138.763636 174.528 
L 154.996364 174.528 
L 171.229091 174.528 
L 187.461818 174.528 
L 203.694545 174.528 
L 219.927273 174.528 
L 236.16 174.528 
L 252.392727 174.528 
L 268.625455 174.528 
L 284.858182 174.528 
L 301.090909 174.528 
L 317.323636 174.528 
L 333.556364 174.528 
L 349.789091 174.528 
L 366.021818 174.528 
L 382.254545 174.528 
L 398.487273 174.528 
" style="fill:none;stroke:#d44e4e;stroke-linecap:square;stroke-width:3;"/>
   </g>
   <g id="line2d_132">
    <path clip-path="url(#p23884b82a9)" style="fill:none;stroke:#0e4db3;stroke-linecap:square;stroke-width:3;"/>
   </g>
   <g id="line2d_133">
    <path clip-path="url(#p23884b82a9)" d="M 138.215193 -1 
L 138.763636 174.528 
L 154.996364 174.528 
L 171.229091 174.528 
L 187.461818 174.528 
L 203.694545 174.528 
L 219.927273 174.528 
L 236.16 174.528 
L 252.392727 174.528 
L 268.625455 174.528 
L 284.858182 174.528 
L 301.090909 174.528 
L 317.323636 174.528 
L 333.556364 174.528 
L 337.999953 -1 
" style="fill:none;stroke:#d44e4e;stroke-linecap:square;stroke-width:3;"/>
   </g>
   <g id="line2d_134">
    <path clip-path="url(#p23884b82a9)" d="M 73.832727 174.528 
L 90.065455 174.528 
L 106.298182 174.528 
L 122.530909 174.528 
L 138.763636 174.528 
L 154.996364 174.528 
L 171.229091 174.528 
L 187.461818 174.528 
L 203.694545 174.528 
L 219.927273 174.528 
L 236.16 174.528 
L 252.392727 174.528 
L 268.625455 174.528 
L 284.858182 174.528 
L 301.090909 174.528 
L 317.323636 174.528 
L 333.556364 174.528 
L 349.789091 174.528 
L 366.021818 174.528 
L 382.254545 174.528 
L 398.487273 174.528 
" style="fill:none;stroke:#0e4db3;stroke-linecap:square;stroke-width:3;"/>
   </g>
   <g id="line2d_135">
    <path clip-path="url(#p23884b82a9)" d="M 73.832727 174.528 
L 90.065455 174.528 
L 106.298182 174.528 
L 122.530909 174.528 
L 138.763636 174.528 
L 154.996364 174.528 
L 171.229091 174.528 
L 187.461818 174.528 
L 203.694545 174.528 
L 219.927273 174.528 
L 236.16 174.528 
L 252.392727 174.528 
L 268.625455 174.528 
L 284.858182 174.528 
L 301.090909 174.528 
L 317.323636 174.528 
L 333.556364 174.528 
L 349.789091 174.528 
L 366.021818 174.528 
L 382.254545 174.528 
L 398.487273 174.528 
" style="fill:none;stroke:#d44e4e;stroke-linecap:square;stroke-width:3;"/>
   </g>
   <g id="patch_3">
    <path d="M 57.6 307.584 
L 57.6 41.472 
" style="fill:none;stroke:#000000;stroke-linecap:square;stroke-linejoin:miter;stroke-width:2.5;"/>
   </g>
   <g id="patch_4">
    <path d="M 414.72 307.584 
L 414.72 41.472 
" style="fill:none;stroke:#000000;stroke-linecap:square;stroke-linejoin:miter;stroke-width:2.5;"/>
   </g>
   <g id="patch_5">
    <path d="M 57.6 307.584 
L 414.72 307.584 
" style="fill:none;stroke:#000000;stroke-linecap:square;stroke-linejoin:miter;stroke-width:2.5;"/>
   </g>
   <g id="patch_6">
    <path d="M 57.6 41.472 
L 414.72 41.472 
" style="fill:none;stroke:#000000;stroke-linecap:square;stroke-linejoin:miter;stroke-width:2.5;"/>
   </g>
  </g>
 </g>
 <defs>
  <clipPath id="p23884b82a9">
   <rect height="266.112" width="357.12" x="57.6" y="41.472"/>
  </clipPath>
 </defs>
</svg>
