<?xml version="1.0" encoding="utf-8" standalone="no"?>
<!DOCTYPE svg PUBLIC "-//W3C//DTD SVG 1.1//EN"
  "http://www.w3.org/Graphics/SVG/1.1/DTD/svg11.dtd">
<!-- Created with matplotlib (https://matplotlib.org/) -->
<svg height="345.6pt" version="1.1" viewBox="0 0 460.8 345.6" width="460.8pt" xmlns="http://www.w3.org/2000/svg" xmlns:xlink="http://www.w3.org/1999/xlink">
 <defs>
  <style type="text/css">
*{stroke-linecap:butt;stroke-linejoin:round;}
  </style>
 </defs>
 <g id="figure_1">
  <g id="patch_1">
   <path d="M 0 345.6 
L 460.8 345.6 
L 460.8 0 
L 0 0 
z
" style="fill:#ffffff;"/>
  </g>
  <g id="axes_1">
   <g id="patch_2">
    <path d="M 57.6 307.584 
L 414.72 307.584 
L 414.72 41.472 
L 57.6 41.472 
z
" style="fill:#ffffff;"/>
   </g>
   <g id="matplotlib.axis_1">
    <g id="xtick_1">
     <g id="line2d_1">
      <defs>
       <path d="M 0 0 
L 0 12 
" id="m07c23e2255" style="stroke:#000000;stroke-width:2.5;"/>
      </defs>
      <g>
       <use style="stroke:#000000;stroke-width:2.5;" x="73.832727" xlink:href="#m07c23e2255" y="307.584"/>
      </g>
     </g>
     <g id="text_1">
      <!-- 0 -->
      <defs>
       <path d="M 31.78125 66.40625 
Q 24.171875 66.40625 20.328125 58.90625 
Q 16.5 51.421875 16.5 36.375 
Q 16.5 21.390625 20.328125 13.890625 
Q 24.171875 6.390625 31.78125 6.390625 
Q 39.453125 6.390625 43.28125 13.890625 
Q 47.125 21.390625 47.125 36.375 
Q 47.125 51.421875 43.28125 58.90625 
Q 39.453125 66.40625 31.78125 66.40625 
z
M 31.78125 74.21875 
Q 44.046875 74.21875 50.515625 64.515625 
Q 56.984375 54.828125 56.984375 36.375 
Q 56.984375 17.96875 50.515625 8.265625 
Q 44.046875 -1.421875 31.78125 -1.421875 
Q 19.53125 -1.421875 13.0625 8.265625 
Q 6.59375 17.96875 6.59375 36.375 
Q 6.59375 54.828125 13.0625 64.515625 
Q 19.53125 74.21875 31.78125 74.21875 
z
" id="DejaVuSans-48"/>
      </defs>
      <g transform="translate(57.735602 361.532094)scale(0.506 -0.506)">
       <use xlink:href="#DejaVuSans-48"/>
      </g>
     </g>
    </g>
    <g id="xtick_2">
     <g id="line2d_2">
      <g>
       <use style="stroke:#000000;stroke-width:2.5;" x="254.196364" xlink:href="#m07c23e2255" y="307.584"/>
      </g>
     </g>
     <g id="text_2">
      <!-- 100 -->
      <defs>
       <path d="M 12.40625 8.296875 
L 28.515625 8.296875 
L 28.515625 63.921875 
L 10.984375 60.40625 
L 10.984375 69.390625 
L 28.421875 72.90625 
L 38.28125 72.90625 
L 38.28125 8.296875 
L 54.390625 8.296875 
L 54.390625 0 
L 12.40625 0 
z
" id="DejaVuSans-49"/>
      </defs>
      <g transform="translate(205.904989 361.532094)scale(0.506 -0.506)">
       <use xlink:href="#DejaVuSans-49"/>
       <use x="63.623047" xlink:href="#DejaVuSans-48"/>
       <use x="127.246094" xlink:href="#DejaVuSans-48"/>
      </g>
     </g>
    </g>
    <g id="text_3">
     <!-- Degrees -->
     <defs>
      <path d="M 19.671875 64.796875 
L 19.671875 8.109375 
L 31.59375 8.109375 
Q 46.6875 8.109375 53.6875 14.9375 
Q 60.6875 21.78125 60.6875 36.53125 
Q 60.6875 51.171875 53.6875 57.984375 
Q 46.6875 64.796875 31.59375 64.796875 
z
M 9.8125 72.90625 
L 30.078125 72.90625 
Q 51.265625 72.90625 61.171875 64.09375 
Q 71.09375 55.28125 71.09375 36.53125 
Q 71.09375 17.671875 61.125 8.828125 
Q 51.171875 0 30.078125 0 
L 9.8125 0 
z
" id="DejaVuSans-68"/>
      <path d="M 56.203125 29.59375 
L 56.203125 25.203125 
L 14.890625 25.203125 
Q 15.484375 15.921875 20.484375 11.0625 
Q 25.484375 6.203125 34.421875 6.203125 
Q 39.59375 6.203125 44.453125 7.46875 
Q 49.3125 8.734375 54.109375 11.28125 
L 54.109375 2.78125 
Q 49.265625 0.734375 44.1875 -0.34375 
Q 39.109375 -1.421875 33.890625 -1.421875 
Q 20.796875 -1.421875 13.15625 6.1875 
Q 5.515625 13.8125 5.515625 26.8125 
Q 5.515625 40.234375 12.765625 48.109375 
Q 20.015625 56 32.328125 56 
Q 43.359375 56 49.78125 48.890625 
Q 56.203125 41.796875 56.203125 29.59375 
z
M 47.21875 32.234375 
Q 47.125 39.59375 43.09375 43.984375 
Q 39.0625 48.390625 32.421875 48.390625 
Q 24.90625 48.390625 20.390625 44.140625 
Q 15.875 39.890625 15.1875 32.171875 
z
" id="DejaVuSans-101"/>
      <path d="M 45.40625 27.984375 
Q 45.40625 37.75 41.375 43.109375 
Q 37.359375 48.484375 30.078125 48.484375 
Q 22.859375 48.484375 18.828125 43.109375 
Q 14.796875 37.75 14.796875 27.984375 
Q 14.796875 18.265625 18.828125 12.890625 
Q 22.859375 7.515625 30.078125 7.515625 
Q 37.359375 7.515625 41.375 12.890625 
Q 45.40625 18.265625 45.40625 27.984375 
z
M 54.390625 6.78125 
Q 54.390625 -7.171875 48.1875 -13.984375 
Q 42 -20.796875 29.203125 -20.796875 
Q 24.46875 -20.796875 20.265625 -20.09375 
Q 16.0625 -19.390625 12.109375 -17.921875 
L 12.109375 -9.1875 
Q 16.0625 -11.328125 19.921875 -12.34375 
Q 23.78125 -13.375 27.78125 -13.375 
Q 36.625 -13.375 41.015625 -8.765625 
Q 45.40625 -4.15625 45.40625 5.171875 
L 45.40625 9.625 
Q 42.625 4.78125 38.28125 2.390625 
Q 33.9375 0 27.875 0 
Q 17.828125 0 11.671875 7.65625 
Q 5.515625 15.328125 5.515625 27.984375 
Q 5.515625 40.671875 11.671875 48.328125 
Q 17.828125 56 27.875 56 
Q 33.9375 56 38.28125 53.609375 
Q 42.625 51.21875 45.40625 46.390625 
L 45.40625 54.6875 
L 54.390625 54.6875 
z
" id="DejaVuSans-103"/>
      <path d="M 41.109375 46.296875 
Q 39.59375 47.171875 37.8125 47.578125 
Q 36.03125 48 33.890625 48 
Q 26.265625 48 22.1875 43.046875 
Q 18.109375 38.09375 18.109375 28.8125 
L 18.109375 0 
L 9.078125 0 
L 9.078125 54.6875 
L 18.109375 54.6875 
L 18.109375 46.1875 
Q 20.953125 51.171875 25.484375 53.578125 
Q 30.03125 56 36.53125 56 
Q 37.453125 56 38.578125 55.875 
Q 39.703125 55.765625 41.0625 55.515625 
z
" id="DejaVuSans-114"/>
      <path d="M 44.28125 53.078125 
L 44.28125 44.578125 
Q 40.484375 46.53125 36.375 47.5 
Q 32.28125 48.484375 27.875 48.484375 
Q 21.1875 48.484375 17.84375 46.4375 
Q 14.5 44.390625 14.5 40.28125 
Q 14.5 37.15625 16.890625 35.375 
Q 19.28125 33.59375 26.515625 31.984375 
L 29.59375 31.296875 
Q 39.15625 29.25 43.1875 25.515625 
Q 47.21875 21.78125 47.21875 15.09375 
Q 47.21875 7.46875 41.1875 3.015625 
Q 35.15625 -1.421875 24.609375 -1.421875 
Q 20.21875 -1.421875 15.453125 -0.5625 
Q 10.6875 0.296875 5.421875 2 
L 5.421875 11.28125 
Q 10.40625 8.6875 15.234375 7.390625 
Q 20.0625 6.109375 24.8125 6.109375 
Q 31.15625 6.109375 34.5625 8.28125 
Q 37.984375 10.453125 37.984375 14.40625 
Q 37.984375 18.0625 35.515625 20.015625 
Q 33.0625 21.96875 24.703125 23.78125 
L 21.578125 24.515625 
Q 13.234375 26.265625 9.515625 29.90625 
Q 5.8125 33.546875 5.8125 39.890625 
Q 5.8125 47.609375 11.28125 51.796875 
Q 16.75 56 26.8125 56 
Q 31.78125 56 36.171875 55.265625 
Q 40.578125 54.546875 44.28125 53.078125 
z
" id="DejaVuSans-115"/>
     </defs>
     <g transform="translate(120.723 417.998687)scale(0.552 -0.552)">
      <use xlink:href="#DejaVuSans-68"/>
      <use x="77.001953" xlink:href="#DejaVuSans-101"/>
      <use x="138.525391" xlink:href="#DejaVuSans-103"/>
      <use x="202.001953" xlink:href="#DejaVuSans-114"/>
      <use x="243.083984" xlink:href="#DejaVuSans-101"/>
      <use x="304.607422" xlink:href="#DejaVuSans-101"/>
      <use x="366.130859" xlink:href="#DejaVuSans-115"/>
     </g>
    </g>
   </g>
   <g id="matplotlib.axis_2">
    <g id="ytick_1">
     <g id="line2d_3">
      <defs>
       <path d="M 0 0 
L -12 0 
" id="m035eeb2776" style="stroke:#000000;stroke-width:2.5;"/>
      </defs>
      <g>
       <use style="stroke:#000000;stroke-width:2.5;" x="57.6" xlink:href="#m035eeb2776" y="285.408"/>
      </g>
     </g>
     <g id="text_4">
      <!-- 0 -->
      <g transform="translate(9.90575 304.632047)scale(0.506 -0.506)">
       <use xlink:href="#DejaVuSans-48"/>
      </g>
     </g>
    </g>
    <g id="ytick_2">
     <g id="line2d_4">
      <g>
       <use style="stroke:#000000;stroke-width:2.5;" x="57.6" xlink:href="#m035eeb2776" y="85.616838"/>
      </g>
     </g>
     <g id="text_5">
      <!-- 2 -->
      <defs>
       <path d="M 19.1875 8.296875 
L 53.609375 8.296875 
L 53.609375 0 
L 7.328125 0 
L 7.328125 8.296875 
Q 12.9375 14.109375 22.625 23.890625 
Q 32.328125 33.6875 34.8125 36.53125 
Q 39.546875 41.84375 41.421875 45.53125 
Q 43.3125 49.21875 43.3125 52.78125 
Q 43.3125 58.59375 39.234375 62.25 
Q 35.15625 65.921875 28.609375 65.921875 
Q 23.96875 65.921875 18.8125 64.3125 
Q 13.671875 62.703125 7.8125 59.421875 
L 7.8125 69.390625 
Q 13.765625 71.78125 18.9375 73 
Q 24.125 74.21875 28.421875 74.21875 
Q 39.75 74.21875 46.484375 68.546875 
Q 53.21875 62.890625 53.21875 53.421875 
Q 53.21875 48.921875 51.53125 44.890625 
Q 49.859375 40.875 45.40625 35.40625 
Q 44.1875 33.984375 37.640625 27.21875 
Q 31.109375 20.453125 19.1875 8.296875 
z
" id="DejaVuSans-50"/>
      </defs>
      <g transform="translate(9.90575 104.840885)scale(0.506 -0.506)">
       <use xlink:href="#DejaVuSans-50"/>
      </g>
     </g>
    </g>
    <g id="text_6">
     <!-- Activation -->
     <defs>
      <path d="M 34.1875 63.1875 
L 20.796875 26.90625 
L 47.609375 26.90625 
z
M 28.609375 72.90625 
L 39.796875 72.90625 
L 67.578125 0 
L 57.328125 0 
L 50.6875 18.703125 
L 17.828125 18.703125 
L 11.1875 0 
L 0.78125 0 
z
" id="DejaVuSans-65"/>
      <path d="M 48.78125 52.59375 
L 48.78125 44.1875 
Q 44.96875 46.296875 41.140625 47.34375 
Q 37.3125 48.390625 33.40625 48.390625 
Q 24.65625 48.390625 19.8125 42.84375 
Q 14.984375 37.3125 14.984375 27.296875 
Q 14.984375 17.28125 19.8125 11.734375 
Q 24.65625 6.203125 33.40625 6.203125 
Q 37.3125 6.203125 41.140625 7.25 
Q 44.96875 8.296875 48.78125 10.40625 
L 48.78125 2.09375 
Q 45.015625 0.34375 40.984375 -0.53125 
Q 36.96875 -1.421875 32.421875 -1.421875 
Q 20.0625 -1.421875 12.78125 6.34375 
Q 5.515625 14.109375 5.515625 27.296875 
Q 5.515625 40.671875 12.859375 48.328125 
Q 20.21875 56 33.015625 56 
Q 37.15625 56 41.109375 55.140625 
Q 45.0625 54.296875 48.78125 52.59375 
z
" id="DejaVuSans-99"/>
      <path d="M 18.3125 70.21875 
L 18.3125 54.6875 
L 36.8125 54.6875 
L 36.8125 47.703125 
L 18.3125 47.703125 
L 18.3125 18.015625 
Q 18.3125 11.328125 20.140625 9.421875 
Q 21.96875 7.515625 27.59375 7.515625 
L 36.8125 7.515625 
L 36.8125 0 
L 27.59375 0 
Q 17.1875 0 13.234375 3.875 
Q 9.28125 7.765625 9.28125 18.015625 
L 9.28125 47.703125 
L 2.6875 47.703125 
L 2.6875 54.6875 
L 9.28125 54.6875 
L 9.28125 70.21875 
z
" id="DejaVuSans-116"/>
      <path d="M 9.421875 54.6875 
L 18.40625 54.6875 
L 18.40625 0 
L 9.421875 0 
z
M 9.421875 75.984375 
L 18.40625 75.984375 
L 18.40625 64.59375 
L 9.421875 64.59375 
z
" id="DejaVuSans-105"/>
      <path d="M 2.984375 54.6875 
L 12.5 54.6875 
L 29.59375 8.796875 
L 46.6875 54.6875 
L 56.203125 54.6875 
L 35.6875 0 
L 23.484375 0 
z
" id="DejaVuSans-118"/>
      <path d="M 34.28125 27.484375 
Q 23.390625 27.484375 19.1875 25 
Q 14.984375 22.515625 14.984375 16.5 
Q 14.984375 11.71875 18.140625 8.90625 
Q 21.296875 6.109375 26.703125 6.109375 
Q 34.1875 6.109375 38.703125 11.40625 
Q 43.21875 16.703125 43.21875 25.484375 
L 43.21875 27.484375 
z
M 52.203125 31.203125 
L 52.203125 0 
L 43.21875 0 
L 43.21875 8.296875 
Q 40.140625 3.328125 35.546875 0.953125 
Q 30.953125 -1.421875 24.3125 -1.421875 
Q 15.921875 -1.421875 10.953125 3.296875 
Q 6 8.015625 6 15.921875 
Q 6 25.140625 12.171875 29.828125 
Q 18.359375 34.515625 30.609375 34.515625 
L 43.21875 34.515625 
L 43.21875 35.40625 
Q 43.21875 41.609375 39.140625 45 
Q 35.0625 48.390625 27.6875 48.390625 
Q 23 48.390625 18.546875 47.265625 
Q 14.109375 46.140625 10.015625 43.890625 
L 10.015625 52.203125 
Q 14.9375 54.109375 19.578125 55.046875 
Q 24.21875 56 28.609375 56 
Q 40.484375 56 46.34375 49.84375 
Q 52.203125 43.703125 52.203125 31.203125 
z
" id="DejaVuSans-97"/>
      <path d="M 30.609375 48.390625 
Q 23.390625 48.390625 19.1875 42.75 
Q 14.984375 37.109375 14.984375 27.296875 
Q 14.984375 17.484375 19.15625 11.84375 
Q 23.34375 6.203125 30.609375 6.203125 
Q 37.796875 6.203125 41.984375 11.859375 
Q 46.1875 17.53125 46.1875 27.296875 
Q 46.1875 37.015625 41.984375 42.703125 
Q 37.796875 48.390625 30.609375 48.390625 
z
M 30.609375 56 
Q 42.328125 56 49.015625 48.375 
Q 55.71875 40.765625 55.71875 27.296875 
Q 55.71875 13.875 49.015625 6.21875 
Q 42.328125 -1.421875 30.609375 -1.421875 
Q 18.84375 -1.421875 12.171875 6.21875 
Q 5.515625 13.875 5.515625 27.296875 
Q 5.515625 40.765625 12.171875 48.375 
Q 18.84375 56 30.609375 56 
z
" id="DejaVuSans-111"/>
      <path d="M 54.890625 33.015625 
L 54.890625 0 
L 45.90625 0 
L 45.90625 32.71875 
Q 45.90625 40.484375 42.875 44.328125 
Q 39.84375 48.1875 33.796875 48.1875 
Q 26.515625 48.1875 22.3125 43.546875 
Q 18.109375 38.921875 18.109375 30.90625 
L 18.109375 0 
L 9.078125 0 
L 9.078125 54.6875 
L 18.109375 54.6875 
L 18.109375 46.1875 
Q 21.34375 51.125 25.703125 53.5625 
Q 30.078125 56 35.796875 56 
Q 45.21875 56 50.046875 50.171875 
Q 54.890625 44.34375 54.890625 33.015625 
z
" id="DejaVuSans-110"/>
     </defs>
     <g transform="translate(-5.574125 313.1835)rotate(-90)scale(0.552 -0.552)">
      <use xlink:href="#DejaVuSans-65"/>
      <use x="68.392578" xlink:href="#DejaVuSans-99"/>
      <use x="123.373047" xlink:href="#DejaVuSans-116"/>
      <use x="162.582031" xlink:href="#DejaVuSans-105"/>
      <use x="190.365234" xlink:href="#DejaVuSans-118"/>
      <use x="249.544922" xlink:href="#DejaVuSans-97"/>
      <use x="310.824219" xlink:href="#DejaVuSans-116"/>
      <use x="350.033203" xlink:href="#DejaVuSans-105"/>
      <use x="377.816406" xlink:href="#DejaVuSans-111"/>
      <use x="438.998047" xlink:href="#DejaVuSans-110"/>
     </g>
    </g>
   </g>
   <g id="line2d_5">
    <path clip-path="url(#pb8ef7fe632)" d="M 73.832727 259.987927 
L 90.065455 216.706185 
L 106.298182 201.700945 
L 122.530909 182.322125 
L 138.763636 159.653152 
L 154.996364 156.451473 
L 171.229091 161.113215 
L 187.461818 127.283077 
L 203.694545 116.03853 
L 219.927273 118.114357 
L 236.16 133.001363 
L 252.392727 132.515331 
L 268.625455 134.83209 
L 284.858182 190.857821 
L 301.090909 182.066045 
L 317.323636 225.597421 
L 333.556364 236.61669 
L 349.789091 248.100047 
L 366.021818 241.706571 
L 382.254545 249.778131 
L 398.487273 259.987927 
" style="fill:none;stroke:#0e4db3;stroke-linecap:square;stroke-width:3;"/>
   </g>
   <g id="line2d_6">
    <path clip-path="url(#pb8ef7fe632)" d="M 73.832727 265.181802 
L 90.065455 229.735028 
L 106.298182 216.420072 
L 122.530909 202.093824 
L 138.763636 184.592131 
L 154.996364 182.706209 
L 171.229091 184.834671 
L 187.461818 154.831229 
L 203.694545 149.252558 
L 219.927273 147.661466 
L 236.16 155.325098 
L 252.392727 160.224628 
L 268.625455 161.26893 
L 284.858182 209.659657 
L 301.090909 200.936867 
L 317.323636 236.084631 
L 333.556364 244.545095 
L 349.789091 252.216151 
L 366.021818 248.935007 
L 382.254545 254.973664 
L 398.487273 265.181802 
" style="fill:none;stroke:#d44e4e;stroke-linecap:square;stroke-width:3;"/>
   </g>
   <g id="line2d_7">
    <path clip-path="url(#pb8ef7fe632)" d="M 73.832727 112.605041 
L 90.065455 111.291857 
L 106.298182 122.94009 
L 122.530909 145.329202 
L 138.763636 149.317209 
L 154.996364 154.206212 
L 171.229091 153.895139 
L 187.461818 128.699937 
L 203.694545 120.353818 
L 219.927273 150.119674 
L 236.16 150.099882 
L 252.392727 145.642919 
L 268.625455 120.869634 
L 284.858182 138.775774 
L 301.090909 116.375659 
L 317.323636 124.170641 
L 333.556364 123.29788 
L 349.789091 94.474104 
L 366.021818 102.66259 
L 382.254545 94.913384 
L 398.487273 112.605041 
" style="fill:none;stroke:#0e4db3;stroke-linecap:square;stroke-width:3;"/>
   </g>
   <g id="line2d_8">
    <path clip-path="url(#pb8ef7fe632)" d="M 73.832727 148.621611 
L 90.065455 132.920874 
L 106.298182 152.365923 
L 122.530909 174.185703 
L 138.763636 176.810987 
L 154.996364 181.17566 
L 171.229091 181.170182 
L 187.461818 161.724608 
L 203.694545 155.815513 
L 219.927273 178.592448 
L 236.16 178.511232 
L 252.392727 173.008287 
L 268.625455 154.852176 
L 284.858182 166.226848 
L 301.090909 151.891394 
L 317.323636 157.806837 
L 333.556364 156.854492 
L 349.789091 134.541904 
L 366.021818 138.650687 
L 382.254545 134.44323 
L 398.487273 148.621611 
" style="fill:none;stroke:#d44e4e;stroke-linecap:square;stroke-width:3;"/>
   </g>
   <g id="line2d_9">
    <path clip-path="url(#pb8ef7fe632)" d="M 73.832727 110.252258 
L 90.065455 101.790949 
L 106.298182 101.72388 
L 122.530909 101.770323 
L 138.763636 83.25167 
L 154.996364 84.1686 
L 171.229091 82.512416 
L 187.461818 94.92047 
L 203.694545 79.916605 
L 219.927273 86.687327 
L 236.16 98.061463 
L 252.392727 98.258488 
L 268.625455 100.301031 
L 284.858182 112.679516 
L 301.090909 114.949487 
L 317.323636 115.931461 
L 333.556364 115.474615 
L 349.789091 116.912672 
L 366.021818 112.970405 
L 382.254545 110.891601 
L 398.487273 110.252258 
" style="fill:none;stroke:#0e4db3;stroke-linecap:square;stroke-width:3;"/>
   </g>
   <g id="line2d_10">
    <path clip-path="url(#pb8ef7fe632)" d="M 73.832727 140.908535 
L 90.065455 134.81624 
L 106.298182 134.305676 
L 122.530909 133.752026 
L 138.763636 122.23724 
L 154.996364 122.047442 
L 171.229091 119.311647 
L 187.461818 128.712381 
L 203.694545 115.307206 
L 219.927273 121.751826 
L 236.16 131.017006 
L 252.392727 130.802593 
L 268.625455 132.653898 
L 284.858182 139.255198 
L 301.090909 140.926696 
L 317.323636 143.18745 
L 333.556364 144.334689 
L 349.789091 145.423219 
L 366.021818 142.186887 
L 382.254545 140.920777 
L 398.487273 140.908535 
" style="fill:none;stroke:#d44e4e;stroke-linecap:square;stroke-width:3;"/>
   </g>
   <g id="line2d_11">
    <path clip-path="url(#pb8ef7fe632)" d="M 73.832727 87.142064 
L 90.065455 86.906276 
L 106.298182 87.684662 
L 122.530909 106.266632 
L 138.763636 108.162939 
L 154.996364 112.904777 
L 171.229091 108.761471 
L 187.461818 103.800172 
L 203.694545 90.714847 
L 219.927273 95.338362 
L 236.16 93.471422 
L 252.392727 85.15567 
L 268.625455 82.233733 
L 284.858182 82.394212 
L 301.090909 73.164591 
L 317.323636 71.733573 
L 333.556364 49.624048 
L 349.789091 69.94611 
L 366.021818 68.866725 
L 382.254545 78.592334 
L 398.487273 87.142064 
" style="fill:none;stroke:#0e4db3;stroke-linecap:square;stroke-width:3;"/>
   </g>
   <g id="line2d_12">
    <path clip-path="url(#pb8ef7fe632)" d="M 73.832727 128.905417 
L 90.065455 128.897677 
L 106.298182 129.432939 
L 122.530909 143.270833 
L 138.763636 144.175806 
L 154.996364 146.465831 
L 171.229091 144.9812 
L 187.461818 138.681399 
L 203.694545 132.313887 
L 219.927273 134.803474 
L 236.16 135.16804 
L 252.392727 126.105186 
L 268.625455 122.015551 
L 284.858182 120.875719 
L 301.090909 115.740175 
L 317.323636 115.736531 
L 333.556364 101.042239 
L 349.789091 114.558794 
L 366.021818 112.924902 
L 382.254545 121.489697 
L 398.487273 128.905417 
" style="fill:none;stroke:#d44e4e;stroke-linecap:square;stroke-width:3;"/>
   </g>
   <g id="line2d_13">
    <path clip-path="url(#pb8ef7fe632)" d="M 73.832727 221.796966 
L 90.065455 220.824454 
L 106.298182 221.698822 
L 122.530909 219.58306 
L 138.763636 195.130185 
L 154.996364 191.960826 
L 171.229091 172.200356 
L 187.461818 178.287722 
L 203.694545 148.339047 
L 219.927273 124.805828 
L 236.16 125.176729 
L 252.392727 100.023647 
L 268.625455 77.861415 
L 284.858182 89.697672 
L 301.090909 59.023246 
L 317.323636 76.848528 
L 333.556364 81.90425 
L 349.789091 164.208932 
L 366.021818 171.816475 
L 382.254545 170.976117 
L 398.487273 221.796966 
" style="fill:none;stroke:#0e4db3;stroke-linecap:square;stroke-width:3;"/>
   </g>
   <g id="line2d_14">
    <path clip-path="url(#pb8ef7fe632)" d="M 73.832727 227.247752 
L 90.065455 225.826582 
L 106.298182 226.59375 
L 122.530909 225.670682 
L 138.763636 206.521296 
L 154.996364 204.122517 
L 171.229091 186.823114 
L 187.461818 191.484415 
L 203.694545 167.985921 
L 219.927273 150.779988 
L 236.16 150.82755 
L 252.392727 129.816988 
L 268.625455 112.269793 
L 284.858182 123.718964 
L 301.090909 98.362664 
L 317.323636 110.906415 
L 333.556364 115.817889 
L 349.789091 180.143266 
L 366.021818 186.497137 
L 382.254545 186.433873 
L 398.487273 227.247752 
" style="fill:none;stroke:#d44e4e;stroke-linecap:square;stroke-width:3;"/>
   </g>
   <g id="line2d_15">
    <path clip-path="url(#pb8ef7fe632)" d="M 73.832727 285.408 
L 90.065455 285.408 
L 106.298182 285.408 
L 122.530909 285.408 
L 138.763636 285.408 
L 154.996364 285.408 
L 171.229091 285.408 
L 187.461818 285.408 
L 203.694545 285.408 
L 219.927273 285.408 
L 236.16 285.408 
L 252.392727 285.408 
L 268.625455 285.408 
L 284.858182 285.408 
L 301.090909 285.408 
L 317.323636 285.408 
L 333.556364 285.408 
L 349.789091 285.408 
L 366.021818 285.408 
L 382.254545 285.408 
L 398.487273 285.408 
" style="fill:none;stroke:#0e4db3;stroke-linecap:square;stroke-width:3;"/>
   </g>
   <g id="line2d_16">
    <path clip-path="url(#pb8ef7fe632)" d="M 73.832727 285.408 
L 90.065455 285.408 
L 106.298182 285.408 
L 122.530909 285.408 
L 138.763636 285.408 
L 154.996364 285.408 
L 171.229091 285.408 
L 187.461818 285.408 
L 203.694545 285.408 
L 219.927273 285.408 
L 236.16 285.408 
L 252.392727 285.408 
L 268.625455 285.408 
L 284.858182 285.408 
L 301.090909 285.408 
L 317.323636 285.408 
L 333.556364 285.408 
L 349.789091 285.408 
L 366.021818 285.408 
L 382.254545 285.408 
L 398.487273 285.408 
" style="fill:none;stroke:#d44e4e;stroke-linecap:square;stroke-width:3;"/>
   </g>
   <g id="line2d_17">
    <path clip-path="url(#pb8ef7fe632)" d="M 73.832727 285.408 
L 90.065455 284.514996 
L 106.298182 285.052267 
L 122.530909 284.725538 
L 138.763636 285.108637 
L 154.996364 285.408 
L 171.229091 285.408 
L 187.461818 285.408 
L 203.694545 285.408 
L 219.927273 285.408 
L 236.16 285.408 
L 252.392727 285.408 
L 268.625455 283.331344 
L 284.858182 285.408 
L 301.090909 285.408 
L 317.323636 285.408 
L 333.556364 285.408 
L 349.789091 285.408 
L 366.021818 285.408 
L 382.254545 285.408 
L 398.487273 285.408 
" style="fill:none;stroke:#0e4db3;stroke-linecap:square;stroke-width:3;"/>
   </g>
   <g id="line2d_18">
    <path clip-path="url(#pb8ef7fe632)" d="M 73.832727 285.408 
L 90.065455 285.408 
L 106.298182 285.408 
L 122.530909 285.408 
L 138.763636 285.408 
L 154.996364 285.408 
L 171.229091 285.408 
L 187.461818 285.408 
L 203.694545 285.408 
L 219.927273 285.408 
L 236.16 285.408 
L 252.392727 285.408 
L 268.625455 285.408 
L 284.858182 285.408 
L 301.090909 285.408 
L 317.323636 285.408 
L 333.556364 285.408 
L 349.789091 285.408 
L 366.021818 285.408 
L 382.254545 285.408 
L 398.487273 285.408 
" style="fill:none;stroke:#d44e4e;stroke-linecap:square;stroke-width:3;"/>
   </g>
   <g id="line2d_19">
    <path clip-path="url(#pb8ef7fe632)" d="M 73.832727 234.114753 
L 90.065455 217.935248 
L 106.298182 194.229332 
L 122.530909 191.946202 
L 138.763636 167.448622 
L 154.996364 162.478653 
L 171.229091 146.048784 
L 187.461818 148.105271 
L 203.694545 124.478725 
L 219.927273 125.680672 
L 236.16 181.766404 
L 252.392727 128.523536 
L 268.625455 154.867407 
L 284.858182 187.496622 
L 301.090909 181.107888 
L 317.323636 204.082481 
L 333.556364 206.917223 
L 349.789091 211.574684 
L 366.021818 213.151408 
L 382.254545 228.60645 
L 398.487273 234.114753 
" style="fill:none;stroke:#0e4db3;stroke-linecap:square;stroke-width:3;"/>
   </g>
   <g id="line2d_20">
    <path clip-path="url(#pb8ef7fe632)" d="M 73.832727 235.09637 
L 90.065455 222.715556 
L 106.298182 203.509028 
L 122.530909 199.713438 
L 138.763636 181.479612 
L 154.996364 178.165184 
L 171.229091 164.676757 
L 187.461818 165.249554 
L 203.694545 147.542036 
L 219.927273 147.621858 
L 236.16 192.849163 
L 252.392727 150.244451 
L 268.625455 171.074945 
L 284.858182 198.515724 
L 301.090909 192.213125 
L 317.323636 210.521617 
L 333.556364 212.533942 
L 349.789091 214.413041 
L 366.021818 216.227339 
L 382.254545 229.711581 
L 398.487273 235.09637 
" style="fill:none;stroke:#d44e4e;stroke-linecap:square;stroke-width:3;"/>
   </g>
   <g id="line2d_21">
    <path clip-path="url(#pb8ef7fe632)" d="M 73.832727 179.520428 
L 90.065455 172.189019 
L 106.298182 161.159753 
L 122.530909 156.70385 
L 138.763636 162.137737 
L 154.996364 162.434925 
L 171.229091 162.960613 
L 187.461818 174.458443 
L 203.694545 172.670229 
L 219.927273 178.456703 
L 236.16 183.544947 
L 252.392727 177.318788 
L 268.625455 175.994446 
L 284.858182 176.128964 
L 301.090909 176.381305 
L 317.323636 177.37976 
L 333.556364 154.181062 
L 349.789091 166.980655 
L 366.021818 162.982144 
L 382.254545 179.900821 
L 398.487273 179.520428 
" style="fill:none;stroke:#0e4db3;stroke-linecap:square;stroke-width:3;"/>
   </g>
   <g id="line2d_22">
    <path clip-path="url(#pb8ef7fe632)" d="M 73.832727 202.129192 
L 90.065455 196.286427 
L 106.298182 187.768326 
L 122.530909 182.672365 
L 138.763636 190.630446 
L 154.996364 191.033143 
L 171.229091 190.859708 
L 187.461818 197.921283 
L 203.694545 194.302902 
L 219.927273 202.743348 
L 236.16 198.861279 
L 252.392727 199.495584 
L 268.625455 199.29514 
L 284.858182 200.671183 
L 301.090909 201.276116 
L 317.323636 201.066449 
L 333.556364 183.056366 
L 349.789091 186.984712 
L 366.021818 186.139115 
L 382.254545 202.132038 
L 398.487273 202.129192 
" style="fill:none;stroke:#d44e4e;stroke-linecap:square;stroke-width:3;"/>
   </g>
   <g id="line2d_23">
    <path clip-path="url(#pb8ef7fe632)" d="M 73.832727 281.560299 
L 90.065455 240.988638 
L 106.298182 206.785706 
L 122.530909 208.967387 
L 138.763636 167.48405 
L 154.996364 164.361706 
L 171.229091 164.965525 
L 187.461818 168.691332 
L 203.694545 158.28526 
L 219.927273 158.266838 
L 236.16 173.106711 
L 252.392727 163.329371 
L 268.625455 176.026551 
L 284.858182 206.500355 
L 301.090909 194.235893 
L 317.323636 238.874478 
L 333.556364 239.582271 
L 349.789091 250.561101 
L 366.021818 272.038031 
L 382.254545 252.340857 
L 398.487273 281.560299 
" style="fill:none;stroke:#0e4db3;stroke-linecap:square;stroke-width:3;"/>
   </g>
   <g id="line2d_24">
    <path clip-path="url(#pb8ef7fe632)" d="M 73.832727 284.409628 
L 90.065455 253.48881 
L 106.298182 225.923802 
L 122.530909 218.166612 
L 138.763636 195.950119 
L 154.996364 193.241762 
L 171.229091 193.33379 
L 187.461818 193.198939 
L 203.694545 186.018553 
L 219.927273 186.092159 
L 236.16 198.737043 
L 252.392727 189.799686 
L 268.625455 197.742679 
L 284.858182 226.346506 
L 301.090909 214.328729 
L 317.323636 248.523021 
L 333.556364 252.26177 
L 349.789091 262.034813 
L 366.021818 276.613347 
L 382.254545 262.079491 
L 398.487273 284.409628 
" style="fill:none;stroke:#d44e4e;stroke-linecap:square;stroke-width:3;"/>
   </g>
   <g id="line2d_25">
    <path clip-path="url(#pb8ef7fe632)" d="M 73.832727 127.144046 
L 90.065455 126.190022 
L 106.298182 116.471177 
L 122.530909 131.93846 
L 138.763636 141.189421 
L 154.996364 173.865412 
L 171.229091 179.61759 
L 187.461818 174.345705 
L 203.694545 123.75257 
L 219.927273 89.121563 
L 236.16 91.808093 
L 252.392727 88.488961 
L 268.625455 123.5743 
L 284.858182 145.090163 
L 301.090909 115.802158 
L 317.323636 105.298854 
L 333.556364 102.613968 
L 349.789091 97.674389 
L 366.021818 85.410321 
L 382.254545 96.849679 
L 398.487273 127.144046 
" style="fill:none;stroke:#0e4db3;stroke-linecap:square;stroke-width:3;"/>
   </g>
   <g id="line2d_26">
    <path clip-path="url(#pb8ef7fe632)" d="M 73.832727 149.711737 
L 90.065455 149.685693 
L 106.298182 141.827168 
L 122.530909 152.027901 
L 138.763636 162.466745 
L 154.996364 187.393971 
L 171.229091 191.728384 
L 187.461818 185.113604 
L 203.694545 145.114301 
L 219.927273 120.033123 
L 236.16 121.867898 
L 252.392727 119.300227 
L 268.625455 146.698487 
L 284.858182 164.053681 
L 301.090909 140.263763 
L 317.323636 132.237375 
L 333.556364 130.437753 
L 349.789091 126.67746 
L 366.021818 115.882445 
L 382.254545 125.619439 
L 398.487273 149.711737 
" style="fill:none;stroke:#d44e4e;stroke-linecap:square;stroke-width:3;"/>
   </g>
   <g id="line2d_27">
    <path clip-path="url(#pb8ef7fe632)" d="M 73.832727 122.076499 
L 90.065455 121.016918 
L 106.298182 138.094395 
L 122.530909 142.86698 
L 138.763636 176.7775 
L 154.996364 200.018771 
L 171.229091 176.279083 
L 187.461818 145.827405 
L 203.694545 133.256526 
L 219.927273 165.171399 
L 236.16 161.35816 
L 252.392727 161.487534 
L 268.625455 179.71119 
L 284.858182 193.378435 
L 301.090909 171.405287 
L 317.323636 167.390914 
L 333.556364 146.50651 
L 349.789091 145.642252 
L 366.021818 133.628559 
L 382.254545 122.744053 
L 398.487273 122.076499 
" style="fill:none;stroke:#0e4db3;stroke-linecap:square;stroke-width:3;"/>
   </g>
   <g id="line2d_28">
    <path clip-path="url(#pb8ef7fe632)" d="M 73.832727 147.779146 
L 90.065455 143.297901 
L 106.298182 160.741861 
L 122.530909 154.608517 
L 138.763636 191.247782 
L 154.996364 209.279562 
L 171.229091 189.616343 
L 187.461818 164.381176 
L 203.694545 154.685195 
L 219.927273 181.393299 
L 236.16 178.356124 
L 252.392727 177.784958 
L 268.625455 193.166226 
L 284.858182 202.831411 
L 301.090909 187.449 
L 317.323636 181.882464 
L 333.556364 167.147064 
L 349.789091 163.544808 
L 366.021818 155.21336 
L 382.254545 143.229094 
L 398.487273 147.779146 
" style="fill:none;stroke:#d44e4e;stroke-linecap:square;stroke-width:3;"/>
   </g>
   <g id="line2d_29">
    <path clip-path="url(#pb8ef7fe632)" d="M 73.832727 44.225553 
L 90.065455 43.88185 
L 106.298182 38.475257 
L 122.530909 41.734561 
L 138.763636 41.397622 
L 154.996364 41.571438 
L 171.229091 38.299631 
L 187.461818 40.739821 
L 203.694545 29.527843 
L 219.927273 34.537551 
L 236.16 35.50914 
L 252.392727 35.298884 
L 268.625455 39.35527 
L 284.858182 42.4565 
L 301.090909 39.804267 
L 317.323636 41.101792 
L 333.556364 40.181695 
L 349.789091 42.90052 
L 366.021818 38.984416 
L 382.254545 41.419939 
L 398.487273 44.225553 
" style="fill:none;stroke:#0e4db3;stroke-linecap:square;stroke-width:3;"/>
   </g>
   <g id="line2d_30">
    <path clip-path="url(#pb8ef7fe632)" d="M 73.832727 83.008428 
L 90.065455 81.333071 
L 106.298182 77.835384 
L 122.530909 79.98496 
L 138.763636 79.931252 
L 154.996364 80.02814 
L 171.229091 77.49099 
L 187.461818 79.829244 
L 203.694545 70.64016 
L 219.927273 75.199584 
L 236.16 75.697216 
L 252.392727 75.591421 
L 268.625455 75.630481 
L 284.858182 79.570116 
L 301.090909 77.366951 
L 317.323636 79.08837 
L 333.556364 78.834862 
L 349.789091 81.216106 
L 366.021818 78.088844 
L 382.254545 80.489546 
L 398.487273 83.008428 
" style="fill:none;stroke:#d44e4e;stroke-linecap:square;stroke-width:3;"/>
   </g>
   <g id="line2d_31">
    <path clip-path="url(#pb8ef7fe632)" d="M 73.832727 168.532187 
L 90.065455 147.211587 
L 106.298182 147.026541 
L 122.530909 160.006048 
L 138.763636 161.798322 
L 154.996364 156.718533 
L 171.229091 156.432741 
L 187.461818 155.704299 
L 203.694545 172.495056 
L 219.927273 172.048333 
L 236.16 175.93095 
L 252.392727 200.232963 
L 268.625455 226.186426 
L 284.858182 235.982896 
L 301.090909 236.251463 
L 317.323636 232.359944 
L 333.556364 228.134612 
L 349.789091 221.577064 
L 366.021818 194.642532 
L 382.254545 168.715232 
L 398.487273 168.532187 
" style="fill:none;stroke:#0e4db3;stroke-linecap:square;stroke-width:3;"/>
   </g>
   <g id="line2d_32">
    <path clip-path="url(#pb8ef7fe632)" d="M 73.832727 185.021623 
L 90.065455 167.92963 
L 106.298182 168.599708 
L 122.530909 173.147938 
L 138.763636 179.964031 
L 154.996364 175.529872 
L 171.229091 175.007209 
L 187.461818 173.91195 
L 203.694545 187.387231 
L 219.927273 187.415412 
L 236.16 190.959501 
L 252.392727 210.172853 
L 268.625455 230.999697 
L 284.858182 238.212346 
L 301.090909 238.320775 
L 317.323636 234.976719 
L 333.556364 232.00332 
L 349.789091 226.414217 
L 366.021818 204.441194 
L 382.254545 183.229194 
L 398.487273 185.021623 
" style="fill:none;stroke:#d44e4e;stroke-linecap:square;stroke-width:3;"/>
   </g>
   <g id="line2d_33">
    <path clip-path="url(#pb8ef7fe632)" style="fill:none;stroke:#0e4db3;stroke-linecap:square;stroke-width:3;"/>
   </g>
   <g id="line2d_34">
    <path clip-path="url(#pb8ef7fe632)" d="M 73.832727 32.177933 
L 90.065455 32.170526 
L 106.298182 31.538114 
L 122.530909 36.43643 
L 138.763636 33.985855 
L 154.996364 36.17349 
L 171.229091 35.542865 
L 187.461818 38.748914 
L 203.694545 31.875862 
L 219.927273 36.582142 
L 236.16 37.081536 
L 252.392727 35.464698 
L 268.625455 32.828636 
L 284.858182 37.193952 
L 301.090909 34.918003 
L 317.323636 34.926625 
L 333.556364 34.169102 
L 349.789091 35.02094 
L 366.021818 30.916729 
L 382.254545 31.808841 
L 398.487273 32.177933 
" style="fill:none;stroke:#d44e4e;stroke-linecap:square;stroke-width:3;"/>
   </g>
   <g id="line2d_35">
    <path clip-path="url(#pb8ef7fe632)" d="M 73.832727 285.408 
L 90.065455 285.408 
L 106.298182 285.408 
L 122.530909 285.408 
L 138.763636 285.408 
L 154.996364 285.408 
L 171.229091 285.408 
L 187.461818 285.408 
L 203.694545 285.408 
L 219.927273 285.408 
L 236.16 285.408 
L 252.392727 285.408 
L 268.625455 280.881094 
L 284.858182 284.112793 
L 301.090909 285.408 
L 317.323636 285.408 
L 333.556364 285.408 
L 349.789091 285.408 
L 366.021818 285.408 
L 382.254545 285.408 
L 398.487273 285.408 
" style="fill:none;stroke:#0e4db3;stroke-linecap:square;stroke-width:3;"/>
   </g>
   <g id="line2d_36">
    <path clip-path="url(#pb8ef7fe632)" d="M 73.832727 285.408 
L 90.065455 285.408 
L 106.298182 285.408 
L 122.530909 285.408 
L 138.763636 285.408 
L 154.996364 285.408 
L 171.229091 285.408 
L 187.461818 285.408 
L 203.694545 285.408 
L 219.927273 285.408 
L 236.16 285.408 
L 252.392727 285.408 
L 268.625455 285.408 
L 284.858182 285.408 
L 301.090909 285.408 
L 317.323636 285.408 
L 333.556364 285.408 
L 349.789091 285.408 
L 366.021818 285.408 
L 382.254545 285.408 
L 398.487273 285.408 
" style="fill:none;stroke:#d44e4e;stroke-linecap:square;stroke-width:3;"/>
   </g>
   <g id="line2d_37">
    <path clip-path="url(#pb8ef7fe632)" d="M 73.832727 163.833457 
L 90.065455 74.703858 
L 106.298182 96.027137 
L 122.530909 120.142395 
L 138.763636 124.738152 
L 154.996364 188.755908 
L 171.229091 209.973749 
L 187.461818 209.485954 
L 203.694545 144.179628 
L 219.927273 84.331008 
L 236.16 87.68334 
L 252.392727 82.279557 
L 268.625455 116.105836 
L 284.858182 153.547935 
L 301.090909 118.025305 
L 317.323636 102.057258 
L 333.556364 98.431864 
L 349.789091 111.879064 
L 366.021818 63.374033 
L 382.254545 106.375035 
L 398.487273 163.833457 
" style="fill:none;stroke:#0e4db3;stroke-linecap:square;stroke-width:3;"/>
   </g>
   <g id="line2d_38">
    <path clip-path="url(#pb8ef7fe632)" d="M 73.832727 189.631735 
L 90.065455 117.468405 
L 106.298182 130.673648 
L 122.530909 153.145405 
L 138.763636 159.277987 
L 154.996364 210.951412 
L 171.229091 227.95524 
L 187.461818 221.130127 
L 203.694545 169.851766 
L 219.927273 126.232547 
L 236.16 128.730256 
L 252.392727 124.390162 
L 268.625455 150.622188 
L 284.858182 180.903694 
L 301.090909 152.083811 
L 317.323636 139.435861 
L 333.556364 136.935104 
L 349.789091 144.631031 
L 366.021818 107.847602 
L 382.254545 142.253467 
L 398.487273 189.631735 
" style="fill:none;stroke:#d44e4e;stroke-linecap:square;stroke-width:3;"/>
   </g>
   <g id="line2d_39">
    <path clip-path="url(#pb8ef7fe632)" d="M 73.832727 233.153447 
L 90.065455 191.576408 
L 106.298182 205.713704 
L 122.530909 204.580648 
L 138.763636 214.322203 
L 154.996364 219.035711 
L 171.229091 230.602633 
L 187.461818 242.157253 
L 203.694545 237.06889 
L 219.927273 215.6643 
L 236.16 217.363605 
L 252.392727 216.780101 
L 268.625455 224.047669 
L 284.858182 204.945 
L 301.090909 220.301403 
L 317.323636 242.198647 
L 333.556364 242.381639 
L 349.789091 231.139693 
L 366.021818 223.380055 
L 382.254545 222.300766 
L 398.487273 233.153447 
" style="fill:none;stroke:#0e4db3;stroke-linecap:square;stroke-width:3;"/>
   </g>
   <g id="line2d_40">
    <path clip-path="url(#pb8ef7fe632)" d="M 73.832727 246.427325 
L 90.065455 206.352332 
L 106.298182 217.989253 
L 122.530909 222.030765 
L 138.763636 230.913766 
L 154.996364 235.256515 
L 171.229091 242.948679 
L 187.461818 252.993328 
L 203.694545 247.796812 
L 219.927273 232.044786 
L 236.16 233.299594 
L 252.392727 232.843136 
L 268.625455 238.122624 
L 284.858182 222.863734 
L 301.090909 235.743977 
L 317.323636 252.011549 
L 333.556364 252.599857 
L 349.789091 243.7027 
L 366.021818 237.069926 
L 382.254545 236.647693 
L 398.487273 246.427325 
" style="fill:none;stroke:#d44e4e;stroke-linecap:square;stroke-width:3;"/>
   </g>
   <g id="line2d_41">
    <path clip-path="url(#pb8ef7fe632)" d="M 73.832727 226.472349 
L 90.065455 198.32061 
L 106.298182 161.982939 
L 122.530909 148.785055 
L 138.763636 130.111187 
L 154.996364 122.718068 
L 171.229091 142.014428 
L 187.461818 168.176814 
L 203.694545 173.157227 
L 219.927273 140.695135 
L 236.16 140.499574 
L 252.392727 155.933371 
L 268.625455 148.54972 
L 284.858182 173.846871 
L 301.090909 184.216073 
L 317.323636 248.437903 
L 333.556364 245.263959 
L 349.789091 248.022038 
L 366.021818 219.304491 
L 382.254545 226.774151 
L 398.487273 226.472349 
" style="fill:none;stroke:#0e4db3;stroke-linecap:square;stroke-width:3;"/>
   </g>
   <g id="line2d_42">
    <path clip-path="url(#pb8ef7fe632)" d="M 73.832727 237.706012 
L 90.065455 215.723926 
L 106.298182 168.955879 
L 122.530909 172.141981 
L 138.763636 162.700818 
L 154.996364 156.540156 
L 171.229091 171.464412 
L 187.461818 188.03844 
L 203.694545 194.600763 
L 219.927273 169.850003 
L 236.16 169.840977 
L 252.392727 181.194213 
L 268.625455 175.010686 
L 284.858182 193.969614 
L 301.090909 201.11528 
L 317.323636 256.883144 
L 333.556364 253.426943 
L 349.789091 252.641701 
L 366.021818 227.789844 
L 382.254545 235.978681 
L 398.487273 237.706012 
" style="fill:none;stroke:#d44e4e;stroke-linecap:square;stroke-width:3;"/>
   </g>
   <g id="line2d_43">
    <path clip-path="url(#pb8ef7fe632)" d="M 73.832727 169.370401 
L 90.065455 168.488256 
L 106.298182 168.146543 
L 122.530909 179.437533 
L 138.763636 168.390619 
L 154.996364 194.418188 
L 171.229091 196.909574 
L 187.461818 197.422317 
L 203.694545 195.677487 
L 219.927273 194.692417 
L 236.16 193.894787 
L 252.392727 180.962629 
L 268.625455 174.291247 
L 284.858182 184.793551 
L 301.090909 167.792182 
L 317.323636 168.205228 
L 333.556364 168.28349 
L 349.789091 171.027621 
L 366.021818 159.974193 
L 382.254545 168.625383 
L 398.487273 169.370401 
" style="fill:none;stroke:#0e4db3;stroke-linecap:square;stroke-width:3;"/>
   </g>
   <g id="line2d_44">
    <path clip-path="url(#pb8ef7fe632)" d="M 73.832727 186.653228 
L 90.065455 180.003293 
L 106.298182 179.589378 
L 122.530909 183.731148 
L 138.763636 186.50249 
L 154.996364 206.652772 
L 171.229091 208.137664 
L 187.461818 208.536622 
L 203.694545 208.332707 
L 219.927273 207.664385 
L 236.16 207.7567 
L 252.392727 194.787875 
L 268.625455 190.409341 
L 284.858182 198.059433 
L 301.090909 185.204001 
L 317.323636 185.239917 
L 333.556364 185.254505 
L 349.789091 188.147456 
L 366.021818 178.026497 
L 382.254545 185.501999 
L 398.487273 186.653228 
" style="fill:none;stroke:#d44e4e;stroke-linecap:square;stroke-width:3;"/>
   </g>
   <g id="line2d_45">
    <path clip-path="url(#pb8ef7fe632)" d="M 73.832727 285.408 
L 90.065455 285.408 
L 106.298182 285.408 
L 122.530909 285.408 
L 138.763636 285.408 
L 154.996364 285.408 
L 171.229091 285.408 
L 187.461818 285.408 
L 203.694545 285.408 
L 219.927273 285.408 
L 236.16 285.408 
L 252.392727 285.408 
L 268.625455 285.408 
L 284.858182 285.408 
L 301.090909 285.408 
L 317.323636 285.408 
L 333.556364 285.408 
L 349.789091 285.408 
L 366.021818 285.408 
L 382.254545 285.408 
L 398.487273 285.408 
" style="fill:none;stroke:#0e4db3;stroke-linecap:square;stroke-width:3;"/>
   </g>
   <g id="line2d_46">
    <path clip-path="url(#pb8ef7fe632)" d="M 73.832727 285.408 
L 90.065455 285.408 
L 106.298182 285.408 
L 122.530909 285.408 
L 138.763636 285.408 
L 154.996364 285.408 
L 171.229091 285.408 
L 187.461818 285.408 
L 203.694545 285.408 
L 219.927273 285.408 
L 236.16 285.408 
L 252.392727 285.408 
L 268.625455 285.408 
L 284.858182 285.408 
L 301.090909 285.408 
L 317.323636 285.408 
L 333.556364 285.408 
L 349.789091 285.408 
L 366.021818 285.408 
L 382.254545 285.408 
L 398.487273 285.408 
" style="fill:none;stroke:#d44e4e;stroke-linecap:square;stroke-width:3;"/>
   </g>
   <g id="line2d_47">
    <path clip-path="url(#pb8ef7fe632)" d="M 73.832727 131.192787 
L 89.061507 -1 
M 160.085101 -1 
L 171.229091 62.05162 
L 187.461818 200.670022 
L 203.694545 134.926619 
L 219.927273 77.140381 
L 236.16 68.756786 
L 252.392727 9.170461 
L 255.862003 -1 
M 304.215763 -1 
L 317.323636 75.632243 
L 333.556364 230.744409 
L 349.789091 285.408 
L 366.021818 238.919858 
L 382.254545 122.992261 
L 398.487273 131.192787 
" style="fill:none;stroke:#0e4db3;stroke-linecap:square;stroke-width:3;"/>
   </g>
   <g id="line2d_48">
    <path clip-path="url(#pb8ef7fe632)" d="M 73.832727 285.408 
L 90.065455 168.780884 
L 106.298182 179.43302 
L 122.530909 142.56828 
L 138.763636 231.88985 
L 154.996364 274.534256 
L 171.229091 285.408 
L 187.461818 285.408 
L 203.694545 285.408 
L 219.927273 285.408 
L 236.16 282.021355 
L 252.392727 232.838414 
L 268.625455 202.529234 
L 284.858182 208.666776 
L 301.090909 237.379383 
L 317.323636 285.408 
L 333.556364 285.408 
L 349.789091 285.408 
L 366.021818 285.408 
L 382.254545 285.408 
L 398.487273 285.408 
" style="fill:none;stroke:#d44e4e;stroke-linecap:square;stroke-width:3;"/>
   </g>
   <g id="line2d_49">
    <path clip-path="url(#pb8ef7fe632)" d="M 73.832727 285.408 
L 90.065455 285.408 
L 106.298182 285.408 
L 122.530909 285.408 
L 138.763636 285.408 
L 154.996364 285.408 
L 171.229091 285.408 
L 187.461818 285.408 
L 203.694545 285.408 
L 219.927273 285.408 
L 236.16 285.408 
L 252.392727 285.408 
L 268.625455 285.408 
L 284.858182 285.408 
L 301.090909 285.408 
L 317.323636 285.408 
L 333.556364 285.408 
L 349.789091 285.408 
L 366.021818 285.408 
L 382.254545 285.408 
L 398.487273 285.408 
" style="fill:none;stroke:#0e4db3;stroke-linecap:square;stroke-width:3;"/>
   </g>
   <g id="line2d_50">
    <path clip-path="url(#pb8ef7fe632)" d="M 73.832727 285.408 
L 90.065455 285.408 
L 106.298182 285.408 
L 122.530909 285.408 
L 138.763636 285.408 
L 154.996364 285.408 
L 171.229091 285.408 
L 187.461818 285.408 
L 203.694545 285.408 
L 219.927273 285.408 
L 236.16 285.408 
L 252.392727 285.408 
L 268.625455 285.408 
L 284.858182 285.408 
L 301.090909 285.408 
L 317.323636 285.408 
L 333.556364 285.408 
L 349.789091 285.408 
L 366.021818 285.408 
L 382.254545 285.408 
L 398.487273 285.408 
" style="fill:none;stroke:#d44e4e;stroke-linecap:square;stroke-width:3;"/>
   </g>
   <g id="line2d_51">
    <path clip-path="url(#pb8ef7fe632)" d="M 73.832727 285.408 
L 90.065455 285.408 
L 106.298182 285.408 
L 122.530909 285.408 
L 138.763636 285.408 
L 154.996364 285.408 
L 171.229091 285.408 
L 187.461818 285.408 
L 203.694545 285.408 
L 219.927273 285.408 
L 236.16 285.408 
L 252.392727 285.408 
L 268.625455 285.408 
L 284.858182 285.408 
L 301.090909 285.408 
L 317.323636 285.408 
L 333.556364 285.408 
L 349.789091 285.408 
L 366.021818 285.408 
L 382.254545 285.408 
L 398.487273 285.408 
" style="fill:none;stroke:#0e4db3;stroke-linecap:square;stroke-width:3;"/>
   </g>
   <g id="line2d_52">
    <path clip-path="url(#pb8ef7fe632)" d="M 73.832727 285.408 
L 90.065455 285.408 
L 106.298182 285.408 
L 122.530909 285.408 
L 138.763636 285.408 
L 154.996364 285.408 
L 171.229091 285.408 
L 187.461818 285.408 
L 203.694545 285.408 
L 219.927273 285.408 
L 236.16 285.408 
L 252.392727 285.408 
L 268.625455 285.408 
L 284.858182 285.408 
L 301.090909 285.408 
L 317.323636 285.408 
L 333.556364 285.408 
L 349.789091 285.408 
L 366.021818 285.408 
L 382.254545 285.408 
L 398.487273 285.408 
" style="fill:none;stroke:#d44e4e;stroke-linecap:square;stroke-width:3;"/>
   </g>
   <g id="line2d_53">
    <path clip-path="url(#pb8ef7fe632)" d="M 98.081501 -1 
L 106.298182 78.279784 
L 122.530909 101.235275 
L 138.763636 92.323956 
L 154.996364 97.912178 
L 171.229091 87.432607 
L 187.461818 114.709924 
L 203.694545 140.814113 
L 219.927273 42.14164 
L 236.16 17.260536 
L 246.240584 -1 
M 254.923495 -1 
L 268.625455 59.33713 
L 281.476182 -1 
" style="fill:none;stroke:#0e4db3;stroke-linecap:square;stroke-width:3;"/>
   </g>
   <g id="line2d_54">
    <path clip-path="url(#pb8ef7fe632)" d="M 73.832727 285.408 
L 90.065455 285.408 
L 106.298182 285.408 
L 122.530909 285.408 
L 138.763636 285.408 
L 154.996364 285.408 
L 171.229091 285.408 
L 187.461818 285.408 
L 203.694545 285.408 
L 219.927273 285.408 
L 236.16 285.408 
L 252.392727 285.408 
L 268.625455 285.408 
L 284.858182 285.408 
L 301.090909 285.408 
L 317.323636 141.390865 
L 333.556364 210.845718 
L 349.789091 146.542795 
L 366.021818 133.931344 
L 382.254545 193.370992 
L 398.487273 285.408 
" style="fill:none;stroke:#d44e4e;stroke-linecap:square;stroke-width:3;"/>
   </g>
   <g id="line2d_55">
    <path clip-path="url(#pb8ef7fe632)" d="M 73.832727 285.408 
L 90.065455 285.408 
L 106.298182 285.408 
L 122.530909 285.408 
L 138.763636 285.408 
L 154.996364 285.408 
L 171.229091 285.408 
L 187.461818 285.408 
L 203.694545 285.408 
L 219.927273 285.408 
L 236.16 285.408 
L 252.392727 285.408 
L 268.625455 285.408 
L 284.858182 285.408 
L 301.090909 285.408 
L 317.323636 285.408 
L 333.556364 285.408 
L 349.789091 285.408 
L 366.021818 285.408 
L 382.254545 285.408 
L 398.487273 285.408 
" style="fill:none;stroke:#0e4db3;stroke-linecap:square;stroke-width:3;"/>
   </g>
   <g id="line2d_56">
    <path clip-path="url(#pb8ef7fe632)" d="M 73.832727 285.408 
L 90.065455 285.408 
L 106.298182 285.408 
L 122.530909 285.408 
L 138.763636 285.408 
L 154.996364 285.408 
L 171.229091 285.408 
L 187.461818 285.408 
L 203.694545 285.408 
L 219.927273 285.408 
L 236.16 285.408 
L 252.392727 285.408 
L 268.625455 285.408 
L 284.858182 285.408 
L 301.090909 285.408 
L 317.323636 285.408 
L 333.556364 285.408 
L 349.789091 285.408 
L 366.021818 285.408 
L 382.254545 285.408 
L 398.487273 285.408 
" style="fill:none;stroke:#d44e4e;stroke-linecap:square;stroke-width:3;"/>
   </g>
   <g id="line2d_57">
    <path clip-path="url(#pb8ef7fe632)" d="M 73.832727 285.408 
L 90.065455 285.408 
L 106.298182 285.408 
L 122.530909 285.408 
L 138.763636 285.408 
L 154.996364 285.408 
L 171.229091 285.408 
L 187.461818 285.408 
L 203.694545 285.408 
L 219.927273 285.408 
L 236.16 285.408 
L 252.392727 285.408 
L 268.625455 285.408 
L 284.858182 285.408 
L 301.090909 285.408 
L 317.323636 285.408 
L 333.556364 285.408 
L 349.789091 285.408 
L 366.021818 285.408 
L 382.254545 285.408 
L 398.487273 285.408 
" style="fill:none;stroke:#0e4db3;stroke-linecap:square;stroke-width:3;"/>
   </g>
   <g id="line2d_58">
    <path clip-path="url(#pb8ef7fe632)" d="M 73.832727 285.408 
L 90.065455 285.408 
L 106.298182 285.408 
L 122.530909 285.408 
L 138.763636 285.408 
L 154.996364 285.408 
L 171.229091 285.408 
L 187.461818 285.408 
L 203.694545 285.408 
L 219.927273 285.408 
L 236.16 285.408 
L 252.392727 285.408 
L 268.625455 285.408 
L 284.858182 285.408 
L 301.090909 285.408 
L 317.323636 285.408 
L 333.556364 285.408 
L 349.789091 285.408 
L 366.021818 285.408 
L 382.254545 285.408 
L 398.487273 285.408 
" style="fill:none;stroke:#d44e4e;stroke-linecap:square;stroke-width:3;"/>
   </g>
   <g id="line2d_59">
    <path clip-path="url(#pb8ef7fe632)" d="M 73.832727 219.055473 
L 90.065455 219.282615 
L 106.298182 232.355418 
L 122.530909 249.997452 
L 138.763636 249.808911 
L 154.996364 252.815904 
L 171.229091 231.256527 
L 187.461818 180.031445 
L 203.694545 73.091497 
L 219.539048 -1 
M 220.237863 -1 
L 236.16 92.064971 
L 247.01132 -1 
M 308.636118 -1 
L 317.323636 23.043794 
L 333.556364 51.315791 
L 349.789091 101.770026 
L 366.021818 128.122756 
L 382.254545 173.295222 
L 398.487273 219.055473 
" style="fill:none;stroke:#0e4db3;stroke-linecap:square;stroke-width:3;"/>
   </g>
   <g id="line2d_60">
    <path clip-path="url(#pb8ef7fe632)" d="M 73.832727 282.17866 
L 90.065455 261.545246 
L 106.298182 280.549014 
L 122.530909 270.196027 
L 138.763636 269.17961 
L 154.996364 270.620706 
L 171.229091 282.38518 
L 187.461818 283.07982 
L 203.694545 282.700031 
L 219.927273 190.828573 
L 236.16 280.976028 
L 252.392727 151.620333 
L 268.625455 177.624515 
L 284.858182 207.440917 
L 301.090909 222.764536 
L 317.323636 204.538111 
L 333.556364 229.635938 
L 349.789091 211.553004 
L 366.021818 230.680169 
L 382.254545 242.39121 
L 398.487273 282.17866 
" style="fill:none;stroke:#d44e4e;stroke-linecap:square;stroke-width:3;"/>
   </g>
   <g id="line2d_61">
    <path clip-path="url(#pb8ef7fe632)" d="M 73.832727 285.408 
L 90.065455 285.408 
L 106.298182 285.408 
L 122.530909 285.408 
L 138.763636 285.408 
L 154.996364 285.408 
L 171.229091 285.408 
L 187.461818 285.408 
L 203.694545 285.408 
L 219.927273 285.408 
L 236.16 285.408 
L 252.392727 285.408 
L 268.625455 285.408 
L 284.858182 285.408 
L 301.090909 285.408 
L 317.323636 285.408 
L 333.556364 285.408 
L 349.789091 285.408 
L 366.021818 285.408 
L 382.254545 285.408 
L 398.487273 285.408 
" style="fill:none;stroke:#0e4db3;stroke-linecap:square;stroke-width:3;"/>
   </g>
   <g id="line2d_62">
    <path clip-path="url(#pb8ef7fe632)" d="M 73.832727 285.408 
L 90.065455 285.408 
L 106.298182 285.408 
L 122.530909 285.408 
L 138.763636 285.408 
L 154.996364 285.408 
L 171.229091 285.408 
L 187.461818 285.408 
L 203.694545 285.408 
L 219.927273 285.408 
L 236.16 285.408 
L 252.392727 285.408 
L 268.625455 285.408 
L 284.858182 285.408 
L 301.090909 285.408 
L 317.323636 285.408 
L 333.556364 285.408 
L 349.789091 285.408 
L 366.021818 285.408 
L 382.254545 285.408 
L 398.487273 285.408 
" style="fill:none;stroke:#d44e4e;stroke-linecap:square;stroke-width:3;"/>
   </g>
   <g id="line2d_63">
    <path clip-path="url(#pb8ef7fe632)" d="M 73.832727 285.408 
L 90.065455 285.408 
L 106.298182 285.408 
L 122.530909 285.408 
L 138.763636 285.408 
L 154.996364 285.408 
L 171.229091 285.408 
L 187.461818 285.408 
L 203.694545 285.408 
L 219.927273 285.408 
L 236.16 285.408 
L 252.392727 285.408 
L 268.625455 285.408 
L 284.858182 285.408 
L 301.090909 285.408 
L 317.323636 285.408 
L 333.556364 285.408 
L 349.789091 285.408 
L 366.021818 285.408 
L 382.254545 285.408 
L 398.487273 285.408 
" style="fill:none;stroke:#0e4db3;stroke-linecap:square;stroke-width:3;"/>
   </g>
   <g id="line2d_64">
    <path clip-path="url(#pb8ef7fe632)" d="M 73.832727 285.408 
L 90.065455 285.408 
L 106.298182 285.408 
L 122.530909 285.408 
L 138.763636 285.408 
L 154.996364 285.408 
L 171.229091 285.408 
L 187.461818 285.408 
L 203.694545 285.408 
L 219.927273 285.408 
L 236.16 285.408 
L 252.392727 285.408 
L 268.625455 285.408 
L 284.858182 285.408 
L 301.090909 285.408 
L 317.323636 285.408 
L 333.556364 285.408 
L 349.789091 285.408 
L 366.021818 285.408 
L 382.254545 285.408 
L 398.487273 285.408 
" style="fill:none;stroke:#d44e4e;stroke-linecap:square;stroke-width:3;"/>
   </g>
   <g id="line2d_65">
    <path clip-path="url(#pb8ef7fe632)" d="M 73.832727 285.408 
L 90.065455 285.408 
L 106.298182 285.408 
L 122.530909 285.408 
L 138.763636 285.408 
L 154.996364 285.408 
L 171.229091 285.408 
L 187.461818 285.408 
L 203.694545 285.408 
L 219.927273 285.408 
L 236.16 285.408 
L 252.392727 285.408 
L 268.625455 285.408 
L 284.858182 285.408 
L 301.090909 285.408 
L 317.323636 285.408 
L 333.556364 285.408 
L 349.789091 285.408 
L 366.021818 285.408 
L 382.254545 285.408 
L 398.487273 285.408 
" style="fill:none;stroke:#0e4db3;stroke-linecap:square;stroke-width:3;"/>
   </g>
   <g id="line2d_66">
    <path clip-path="url(#pb8ef7fe632)" d="M 73.832727 285.408 
L 90.065455 285.408 
L 106.298182 285.408 
L 122.530909 285.408 
L 138.763636 285.408 
L 154.996364 285.408 
L 171.229091 285.408 
L 187.461818 285.408 
L 203.694545 285.408 
L 219.927273 285.408 
L 236.16 285.408 
L 252.392727 285.408 
L 268.625455 285.408 
L 284.858182 285.408 
L 301.090909 285.408 
L 317.323636 285.408 
L 333.556364 285.408 
L 349.789091 285.408 
L 366.021818 285.408 
L 382.254545 285.408 
L 398.487273 285.408 
" style="fill:none;stroke:#d44e4e;stroke-linecap:square;stroke-width:3;"/>
   </g>
   <g id="line2d_67">
    <path clip-path="url(#pb8ef7fe632)" d="M 73.832727 285.408 
L 90.065455 285.408 
L 106.298182 285.408 
L 122.530909 285.408 
L 138.763636 285.408 
L 154.996364 285.408 
L 171.229091 285.408 
L 187.461818 285.408 
L 203.694545 285.408 
L 219.927273 285.408 
L 236.16 285.408 
L 252.392727 285.408 
L 268.625455 285.408 
L 284.858182 285.408 
L 301.090909 285.408 
L 317.323636 285.408 
L 333.556364 285.408 
L 349.789091 285.408 
L 366.021818 285.408 
L 382.254545 285.408 
L 398.487273 285.408 
" style="fill:none;stroke:#0e4db3;stroke-linecap:square;stroke-width:3;"/>
   </g>
   <g id="line2d_68">
    <path clip-path="url(#pb8ef7fe632)" d="M 73.832727 285.408 
L 90.065455 285.408 
L 106.298182 285.408 
L 122.530909 285.408 
L 138.763636 285.408 
L 154.996364 285.408 
L 171.229091 285.408 
L 187.461818 285.408 
L 203.694545 285.408 
L 219.927273 285.408 
L 236.16 285.408 
L 252.392727 285.408 
L 268.625455 285.408 
L 284.858182 285.408 
L 301.090909 285.408 
L 317.323636 285.408 
L 333.556364 285.408 
L 349.789091 285.408 
L 366.021818 285.408 
L 382.254545 285.408 
L 398.487273 285.408 
" style="fill:none;stroke:#d44e4e;stroke-linecap:square;stroke-width:3;"/>
   </g>
   <g id="line2d_69">
    <path clip-path="url(#pb8ef7fe632)" d="M 73.832727 94.046209 
L 90.065455 36.184422 
L 96.044009 -1 
M 179.7749 -1 
L 187.461818 61.252276 
L 203.694545 -0.50094 
L 211.353802 -1 
M 220.054738 -1 
L 236.16 69.582473 
L 252.392727 26.978499 
L 268.625455 44.600956 
L 284.858182 101.778207 
L 301.090909 106.683644 
L 317.323636 172.088286 
L 333.556364 145.295751 
L 349.789091 124.541519 
L 366.021818 83.297208 
L 382.254545 83.03827 
L 398.487273 94.046209 
" style="fill:none;stroke:#0e4db3;stroke-linecap:square;stroke-width:3;"/>
   </g>
   <g id="line2d_70">
    <path clip-path="url(#pb8ef7fe632)" d="M 73.832727 285.408 
L 90.065455 285.408 
L 106.298182 285.408 
L 122.530909 285.408 
L 138.763636 285.408 
L 154.996364 285.408 
L 171.229091 285.408 
L 187.461818 285.408 
L 203.694545 285.408 
L 219.927273 285.408 
L 236.16 285.408 
L 252.392727 285.408 
L 268.625455 285.408 
L 284.858182 285.408 
L 301.090909 285.408 
L 317.323636 285.408 
L 333.556364 285.408 
L 349.789091 285.408 
L 366.021818 285.408 
L 382.254545 285.408 
L 398.487273 285.408 
" style="fill:none;stroke:#d44e4e;stroke-linecap:square;stroke-width:3;"/>
   </g>
   <g id="line2d_71">
    <path clip-path="url(#pb8ef7fe632)" d="M 73.832727 285.408 
L 90.065455 285.408 
L 106.298182 285.408 
L 122.530909 285.408 
L 138.763636 285.408 
L 154.996364 285.408 
L 171.229091 285.408 
L 187.461818 285.408 
L 203.694545 285.408 
L 219.927273 285.408 
L 236.16 285.408 
L 252.392727 285.408 
L 268.625455 285.408 
L 284.858182 285.408 
L 301.090909 285.408 
L 317.323636 285.408 
L 333.556364 285.408 
L 349.789091 285.408 
L 366.021818 285.408 
L 382.254545 285.408 
L 398.487273 285.408 
" style="fill:none;stroke:#0e4db3;stroke-linecap:square;stroke-width:3;"/>
   </g>
   <g id="line2d_72">
    <path clip-path="url(#pb8ef7fe632)" d="M 73.832727 285.408 
L 90.065455 285.408 
L 106.298182 285.408 
L 122.530909 285.408 
L 138.763636 285.408 
L 154.996364 285.408 
L 171.229091 285.408 
L 187.461818 285.408 
L 203.694545 285.408 
L 219.927273 285.408 
L 236.16 285.408 
L 252.392727 285.408 
L 268.625455 285.408 
L 284.858182 285.408 
L 301.090909 285.408 
L 317.323636 285.408 
L 333.556364 285.408 
L 349.789091 285.408 
L 366.021818 285.408 
L 382.254545 285.408 
L 398.487273 285.408 
" style="fill:none;stroke:#d44e4e;stroke-linecap:square;stroke-width:3;"/>
   </g>
   <g id="line2d_73">
    <path clip-path="url(#pb8ef7fe632)" d="M 73.832727 285.408 
L 90.065455 285.408 
L 106.298182 285.408 
L 122.530909 285.408 
L 138.763636 285.408 
L 154.996364 285.408 
L 171.229091 285.408 
L 187.461818 285.408 
L 203.694545 285.408 
L 219.927273 285.408 
L 236.16 285.408 
L 252.392727 285.408 
L 268.625455 285.408 
L 284.858182 285.408 
L 301.090909 285.408 
L 317.323636 285.408 
L 333.556364 285.408 
L 349.789091 285.408 
L 366.021818 285.408 
L 382.254545 285.408 
L 398.487273 285.408 
" style="fill:none;stroke:#0e4db3;stroke-linecap:square;stroke-width:3;"/>
   </g>
   <g id="line2d_74">
    <path clip-path="url(#pb8ef7fe632)" d="M 73.832727 285.408 
L 90.065455 285.408 
L 106.298182 285.408 
L 122.530909 285.408 
L 138.763636 285.408 
L 154.996364 285.408 
L 171.229091 285.408 
L 187.461818 285.408 
L 203.694545 285.408 
L 219.927273 285.408 
L 236.16 285.408 
L 252.392727 285.408 
L 268.625455 285.408 
L 284.858182 285.408 
L 301.090909 285.408 
L 317.323636 285.408 
L 333.556364 285.408 
L 349.789091 285.408 
L 366.021818 285.408 
L 382.254545 285.408 
L 398.487273 285.408 
" style="fill:none;stroke:#d44e4e;stroke-linecap:square;stroke-width:3;"/>
   </g>
   <g id="line2d_75">
    <path clip-path="url(#pb8ef7fe632)" d="M 73.832727 285.408 
L 90.065455 285.408 
L 106.298182 285.408 
L 122.530909 285.408 
L 138.763636 285.408 
L 154.996364 285.408 
L 171.229091 285.408 
L 187.461818 285.408 
L 203.694545 285.408 
L 219.927273 285.408 
L 236.16 285.408 
L 252.392727 285.408 
L 268.625455 285.408 
L 284.858182 285.408 
L 301.090909 285.408 
L 317.323636 285.408 
L 333.556364 285.408 
L 349.789091 285.408 
L 366.021818 285.408 
L 382.254545 285.408 
L 398.487273 285.408 
" style="fill:none;stroke:#0e4db3;stroke-linecap:square;stroke-width:3;"/>
   </g>
   <g id="line2d_76">
    <path clip-path="url(#pb8ef7fe632)" d="M 73.832727 285.408 
L 90.065455 285.408 
L 106.298182 285.408 
L 122.530909 285.408 
L 138.763636 285.408 
L 154.996364 285.408 
L 171.229091 285.408 
L 187.461818 285.408 
L 203.694545 285.408 
L 219.927273 285.408 
L 236.16 285.408 
L 252.392727 285.408 
L 268.625455 285.408 
L 284.858182 285.408 
L 301.090909 285.408 
L 317.323636 285.408 
L 333.556364 285.408 
L 349.789091 285.408 
L 366.021818 285.408 
L 382.254545 285.408 
L 398.487273 285.408 
" style="fill:none;stroke:#d44e4e;stroke-linecap:square;stroke-width:3;"/>
   </g>
   <g id="line2d_77">
    <path clip-path="url(#pb8ef7fe632)" d="M 73.832727 140.384788 
L 90.065455 67.459452 
L 106.298182 176.51418 
L 122.530909 171.184658 
L 138.763636 127.727371 
L 154.996364 120.209332 
L 171.229091 78.026967 
L 182.751052 -1 
M 320.44478 -1 
L 333.556364 56.86874 
L 349.399864 -1 
M 353.1643 -1 
L 366.021818 4.415667 
L 382.254545 26.288284 
L 398.487273 140.384788 
" style="fill:none;stroke:#0e4db3;stroke-linecap:square;stroke-width:3;"/>
   </g>
   <g id="line2d_78">
    <path clip-path="url(#pb8ef7fe632)" d="M 73.832727 285.408 
L 90.065455 285.408 
L 106.298182 285.408 
L 122.530909 285.408 
L 138.763636 285.408 
L 154.996364 285.408 
L 171.229091 285.408 
L 187.461818 285.408 
L 203.694545 285.408 
L 219.927273 285.408 
L 236.16 285.408 
L 252.392727 285.408 
L 268.625455 285.408 
L 284.858182 285.408 
L 301.090909 285.408 
L 317.323636 285.408 
L 333.556364 285.408 
L 349.789091 285.408 
L 366.021818 285.408 
L 382.254545 285.408 
L 398.487273 285.408 
" style="fill:none;stroke:#d44e4e;stroke-linecap:square;stroke-width:3;"/>
   </g>
   <g id="line2d_79">
    <path clip-path="url(#pb8ef7fe632)" d="M 73.832727 285.408 
L 90.065455 285.408 
L 106.298182 285.408 
L 122.530909 285.408 
L 138.763636 285.408 
L 154.996364 285.408 
L 171.229091 285.408 
L 187.461818 285.408 
L 203.694545 285.408 
L 219.927273 285.408 
L 236.16 285.408 
L 252.392727 285.408 
L 268.625455 285.408 
L 284.858182 285.408 
L 301.090909 285.408 
L 317.323636 285.408 
L 333.556364 285.408 
L 349.789091 285.408 
L 366.021818 285.408 
L 382.254545 285.408 
L 398.487273 285.408 
" style="fill:none;stroke:#0e4db3;stroke-linecap:square;stroke-width:3;"/>
   </g>
   <g id="line2d_80">
    <path clip-path="url(#pb8ef7fe632)" d="M 73.832727 285.408 
L 90.065455 285.408 
L 106.298182 285.408 
L 122.530909 285.408 
L 138.763636 285.408 
L 154.996364 285.408 
L 171.229091 285.408 
L 187.461818 285.408 
L 203.694545 285.408 
L 219.927273 285.408 
L 236.16 285.408 
L 252.392727 285.408 
L 268.625455 285.408 
L 284.858182 285.408 
L 301.090909 285.408 
L 317.323636 285.408 
L 333.556364 285.408 
L 349.789091 285.408 
L 366.021818 285.408 
L 382.254545 285.408 
L 398.487273 285.408 
" style="fill:none;stroke:#d44e4e;stroke-linecap:square;stroke-width:3;"/>
   </g>
   <g id="line2d_81">
    <path clip-path="url(#pb8ef7fe632)" d="M 151.340284 -1 
L 154.996364 4.243422 
L 157.579581 -1 
M 180.861472 -1 
L 187.461818 17.984714 
L 203.694545 118.357742 
L 219.927273 177.075403 
L 236.16 191.848154 
L 252.392727 108.954127 
L 268.625455 143.41695 
L 284.858182 137.490456 
L 299.938005 -1 
M 305.315053 -1 
L 317.323636 29.100234 
L 333.556364 2.906052 
L 349.789091 32.993902 
L 362.039019 -1 
" style="fill:none;stroke:#0e4db3;stroke-linecap:square;stroke-width:3;"/>
   </g>
   <g id="line2d_82">
    <path clip-path="url(#pb8ef7fe632)" d="M 73.832727 285.408 
L 90.065455 225.403711 
L 106.298182 185.691106 
L 122.530909 226.120382 
L 138.763636 285.408 
L 154.996364 285.408 
L 171.229091 215.972593 
L 187.461818 270.71149 
L 203.694545 285.408 
L 219.927273 285.408 
L 236.16 285.408 
L 252.392727 285.408 
L 268.625455 285.408 
L 284.858182 285.408 
L 301.090909 281.870398 
L 317.323636 285.408 
L 333.556364 285.408 
L 349.789091 205.581872 
L 366.021818 172.274606 
L 382.254545 208.999528 
L 398.487273 285.408 
" style="fill:none;stroke:#d44e4e;stroke-linecap:square;stroke-width:3;"/>
   </g>
   <g id="line2d_83">
    <path clip-path="url(#pb8ef7fe632)" d="M 76.194326 -1 
L 90.065455 13.488596 
L 106.298182 12.848181 
L 122.530909 4.601772 
L 138.763636 31.145229 
L 154.996364 119.016615 
L 171.229091 157.953585 
L 187.461818 185.544256 
L 203.694545 102.556212 
L 212.674511 -1 
" style="fill:none;stroke:#0e4db3;stroke-linecap:square;stroke-width:3;"/>
   </g>
   <g id="line2d_84">
    <path clip-path="url(#pb8ef7fe632)" d="M 73.832727 60.005577 
L 90.065455 67.91469 
L 106.298182 60.981953 
L 122.530909 68.441878 
L 138.763636 70.917413 
L 154.996364 154.990612 
L 171.229091 198.594147 
L 187.461818 192.948271 
L 203.694545 134.212051 
L 219.927273 13.788666 
L 223.473231 -1 
M 357.668642 -1 
L 366.021818 21.454322 
L 376.038734 -1 
M 385.272733 -1 
L 398.487273 60.005577 
" style="fill:none;stroke:#d44e4e;stroke-linecap:square;stroke-width:3;"/>
   </g>
   <g id="line2d_85">
    <path clip-path="url(#pb8ef7fe632)" d="M 73.832727 285.408 
L 90.065455 285.408 
L 106.298182 285.408 
L 122.530909 285.408 
L 138.763636 285.408 
L 154.996364 285.408 
L 171.229091 285.408 
L 187.461818 285.408 
L 203.694545 285.408 
L 219.927273 285.408 
L 236.16 285.408 
L 252.392727 285.408 
L 268.625455 285.408 
L 284.858182 285.408 
L 301.090909 285.408 
L 317.323636 285.408 
L 333.556364 285.408 
L 349.789091 285.408 
L 366.021818 285.408 
L 382.254545 285.408 
L 398.487273 285.408 
" style="fill:none;stroke:#0e4db3;stroke-linecap:square;stroke-width:3;"/>
   </g>
   <g id="line2d_86">
    <path clip-path="url(#pb8ef7fe632)" d="M 73.832727 285.408 
L 90.065455 285.408 
L 106.298182 285.408 
L 122.530909 285.408 
L 138.763636 285.408 
L 154.996364 285.408 
L 171.229091 285.408 
L 187.461818 285.408 
L 203.694545 285.408 
L 219.927273 285.408 
L 236.16 285.408 
L 252.392727 285.408 
L 268.625455 285.408 
L 284.858182 285.408 
L 301.090909 285.408 
L 317.323636 285.408 
L 333.556364 285.408 
L 349.789091 285.408 
L 366.021818 285.408 
L 382.254545 285.408 
L 398.487273 285.408 
" style="fill:none;stroke:#d44e4e;stroke-linecap:square;stroke-width:3;"/>
   </g>
   <g id="line2d_87">
    <path clip-path="url(#pb8ef7fe632)" d="M 73.832727 285.408 
L 90.065455 285.408 
L 106.298182 285.408 
L 122.530909 285.408 
L 138.763636 285.408 
L 154.996364 285.408 
L 171.229091 285.408 
L 187.461818 285.408 
L 203.694545 285.408 
L 219.927273 285.408 
L 236.16 285.408 
L 252.392727 285.408 
L 268.625455 285.408 
L 284.858182 285.408 
L 301.090909 285.408 
L 317.323636 285.408 
L 333.556364 285.408 
L 349.789091 285.408 
L 366.021818 285.408 
L 382.254545 285.408 
L 398.487273 285.408 
" style="fill:none;stroke:#0e4db3;stroke-linecap:square;stroke-width:3;"/>
   </g>
   <g id="line2d_88">
    <path clip-path="url(#pb8ef7fe632)" d="M 73.832727 285.408 
L 90.065455 285.408 
L 106.298182 285.408 
L 122.530909 285.408 
L 138.763636 285.408 
L 154.996364 285.408 
L 171.229091 285.408 
L 187.461818 285.408 
L 203.694545 285.408 
L 219.927273 285.408 
L 236.16 285.408 
L 252.392727 285.408 
L 268.625455 285.408 
L 284.858182 285.408 
L 301.090909 285.408 
L 317.323636 285.408 
L 333.556364 285.408 
L 349.789091 285.408 
L 366.021818 285.408 
L 382.254545 285.408 
L 398.487273 285.408 
" style="fill:none;stroke:#d44e4e;stroke-linecap:square;stroke-width:3;"/>
   </g>
   <g id="line2d_89">
    <path clip-path="url(#pb8ef7fe632)" d="M 73.832727 285.408 
L 90.065455 285.408 
L 106.298182 285.408 
L 122.530909 244.042845 
L 138.763636 208.145458 
L 154.996364 197.860472 
L 171.229091 230.448942 
L 187.461818 173.927872 
L 203.694545 63.159133 
L 219.927273 6.978967 
L 236.16 260.50493 
L 246.886364 -1 
M 325.338315 -1 
L 333.556364 74.828873 
L 349.789091 236.493264 
L 366.021818 285.408 
L 382.254545 285.408 
L 398.487273 285.408 
" style="fill:none;stroke:#0e4db3;stroke-linecap:square;stroke-width:3;"/>
   </g>
   <g id="line2d_90">
    <path clip-path="url(#pb8ef7fe632)" d="M 73.832727 285.408 
L 90.065455 285.408 
L 106.298182 285.408 
L 122.530909 285.408 
L 138.763636 285.408 
L 154.996364 285.408 
L 171.229091 285.408 
L 187.461818 285.408 
L 203.694545 257.894734 
L 219.927273 235.725983 
L 236.16 285.408 
L 252.392727 140.824414 
L 268.625455 114.605713 
L 284.858182 64.667223 
L 301.090909 87.586405 
L 317.323636 163.337636 
L 333.556364 217.18156 
L 349.789091 285.408 
L 366.021818 285.408 
L 382.254545 285.408 
L 398.487273 285.408 
" style="fill:none;stroke:#d44e4e;stroke-linecap:square;stroke-width:3;"/>
   </g>
   <g id="line2d_91">
    <path clip-path="url(#pb8ef7fe632)" d="M 217.699302 -1 
L 219.927273 3.681699 
L 221.854282 -1 
M 320.300903 -1 
L 333.556364 69.741665 
L 349.789091 40.006807 
L 366.021818 7.741539 
L 368.063101 -1 
" style="fill:none;stroke:#0e4db3;stroke-linecap:square;stroke-width:3;"/>
   </g>
   <g id="line2d_92">
    <path clip-path="url(#pb8ef7fe632)" d="M 73.832727 285.408 
L 90.065455 212.365592 
L 106.298182 224.264201 
L 122.530909 138.178528 
L 138.763636 252.486241 
L 154.996364 280.12137 
L 171.229091 280.205845 
L 187.461818 285.408 
L 203.694545 285.408 
L 219.927273 285.408 
L 236.16 285.408 
L 252.392727 285.408 
L 268.625455 285.408 
L 284.858182 285.408 
L 301.090909 285.408 
L 317.323636 285.408 
L 333.556364 285.408 
L 349.789091 285.408 
L 366.021818 285.408 
L 382.254545 285.408 
L 398.487273 285.408 
" style="fill:none;stroke:#d44e4e;stroke-linecap:square;stroke-width:3;"/>
   </g>
   <g id="line2d_93">
    <path clip-path="url(#pb8ef7fe632)" d="M 73.832727 285.408 
L 90.065455 285.408 
L 106.298182 285.408 
L 122.530909 285.408 
L 138.763636 285.408 
L 154.996364 285.408 
L 171.229091 285.408 
L 187.461818 285.408 
L 203.694545 285.408 
L 219.927273 285.408 
L 236.16 285.408 
L 252.392727 285.408 
L 268.625455 285.408 
L 284.858182 285.408 
L 301.090909 285.408 
L 317.323636 285.408 
L 333.556364 285.408 
L 349.789091 285.408 
L 366.021818 285.408 
L 382.254545 285.408 
L 398.487273 285.408 
" style="fill:none;stroke:#0e4db3;stroke-linecap:square;stroke-width:3;"/>
   </g>
   <g id="line2d_94">
    <path clip-path="url(#pb8ef7fe632)" d="M 73.832727 285.408 
L 90.065455 285.408 
L 106.298182 285.408 
L 122.530909 285.408 
L 138.763636 285.408 
L 154.996364 285.408 
L 171.229091 285.408 
L 187.461818 285.408 
L 203.694545 285.408 
L 219.927273 285.408 
L 236.16 285.408 
L 252.392727 285.408 
L 268.625455 285.408 
L 284.858182 285.408 
L 301.090909 285.408 
L 317.323636 285.408 
L 333.556364 285.408 
L 349.789091 285.408 
L 366.021818 285.408 
L 382.254545 285.408 
L 398.487273 285.408 
" style="fill:none;stroke:#d44e4e;stroke-linecap:square;stroke-width:3;"/>
   </g>
   <g id="line2d_95">
    <path clip-path="url(#pb8ef7fe632)" d="M 120.999244 -1 
L 122.530909 13.118718 
L 138.763636 118.726226 
L 154.996364 205.384947 
L 171.229091 110.354159 
L 187.332776 -1 
" style="fill:none;stroke:#0e4db3;stroke-linecap:square;stroke-width:3;"/>
   </g>
   <g id="line2d_96">
    <path clip-path="url(#pb8ef7fe632)" d="M 73.832727 79.863445 
L 90.065455 66.303687 
L 106.298182 147.082297 
L 122.530909 285.408 
L 138.763636 285.408 
L 154.996364 285.408 
L 171.229091 285.408 
L 187.461818 285.408 
L 203.694545 285.408 
L 219.927273 228.751995 
L 236.16 199.914667 
L 252.392727 103.439226 
L 268.625455 145.107192 
L 284.858182 179.281282 
L 301.090909 44.812712 
L 317.323636 34.334392 
L 333.556364 58.97947 
L 346.119187 -1 
M 390.10088 -1 
L 398.487273 79.863445 
" style="fill:none;stroke:#d44e4e;stroke-linecap:square;stroke-width:3;"/>
   </g>
   <g id="line2d_97">
    <path clip-path="url(#pb8ef7fe632)" d="M 73.832727 285.408 
L 90.065455 285.408 
L 106.298182 285.408 
L 122.530909 285.408 
L 138.763636 285.408 
L 154.996364 285.408 
L 171.229091 285.408 
L 187.461818 285.408 
L 203.694545 285.408 
L 219.927273 285.408 
L 236.16 285.408 
L 252.392727 285.408 
L 268.625455 285.408 
L 284.858182 285.408 
L 301.090909 285.408 
L 317.323636 285.408 
L 333.556364 285.408 
L 349.789091 285.408 
L 366.021818 285.408 
L 382.254545 285.408 
L 398.487273 285.408 
" style="fill:none;stroke:#0e4db3;stroke-linecap:square;stroke-width:3;"/>
   </g>
   <g id="line2d_98">
    <path clip-path="url(#pb8ef7fe632)" d="M 73.832727 285.408 
L 90.065455 285.408 
L 106.298182 285.408 
L 122.530909 285.408 
L 138.763636 285.408 
L 154.996364 285.408 
L 171.229091 285.408 
L 187.461818 285.408 
L 203.694545 285.408 
L 219.927273 285.408 
L 236.16 285.408 
L 252.392727 285.408 
L 268.625455 285.408 
L 284.858182 285.408 
L 301.090909 285.408 
L 317.323636 285.408 
L 333.556364 285.408 
L 349.789091 285.408 
L 366.021818 285.408 
L 382.254545 285.408 
L 398.487273 285.408 
" style="fill:none;stroke:#d44e4e;stroke-linecap:square;stroke-width:3;"/>
   </g>
   <g id="line2d_99">
    <path clip-path="url(#pb8ef7fe632)" d="M 254.42256 -1 
L 268.625455 21.300821 
L 284.858182 37.335449 
L 301.090909 8.784674 
L 309.958046 -1 
" style="fill:none;stroke:#0e4db3;stroke-linecap:square;stroke-width:3;"/>
   </g>
   <g id="line2d_100">
    <path clip-path="url(#pb8ef7fe632)" d="M 73.832727 68.339775 
L 90.065455 40.879174 
L 106.298182 38.269764 
L 122.530909 9.004028 
L 138.763636 10.407229 
L 154.996364 34.254558 
L 171.229091 10.064026 
L 187.461818 31.471307 
L 203.694545 68.604334 
L 219.927273 65.718051 
L 236.16 72.044551 
L 252.392727 72.4754 
L 268.625455 68.061021 
L 284.858182 94.253166 
L 301.090909 112.828349 
L 317.323636 91.229519 
L 333.556364 78.018941 
L 349.789091 5.772853 
L 353.09611 -1 
M 376.977668 -1 
L 382.254545 11.750291 
L 398.487273 68.339775 
" style="fill:none;stroke:#d44e4e;stroke-linecap:square;stroke-width:3;"/>
   </g>
   <g id="line2d_101">
    <path clip-path="url(#pb8ef7fe632)" d="M 73.832727 285.408 
L 90.065455 285.408 
L 106.298182 285.408 
L 122.530909 285.408 
L 138.763636 285.408 
L 154.996364 285.408 
L 171.229091 285.408 
L 187.461818 285.408 
L 203.694545 285.408 
L 219.927273 285.408 
L 236.16 285.408 
L 252.392727 285.408 
L 268.625455 285.408 
L 284.858182 285.408 
L 301.090909 285.408 
L 317.323636 285.408 
L 333.556364 285.408 
L 349.789091 285.408 
L 366.021818 285.408 
L 382.254545 285.408 
L 398.487273 285.408 
" style="fill:none;stroke:#0e4db3;stroke-linecap:square;stroke-width:3;"/>
   </g>
   <g id="line2d_102">
    <path clip-path="url(#pb8ef7fe632)" d="M 73.832727 285.408 
L 90.065455 285.408 
L 106.298182 285.408 
L 122.530909 285.408 
L 138.763636 285.408 
L 154.996364 285.408 
L 171.229091 285.408 
L 187.461818 285.408 
L 203.694545 285.408 
L 219.927273 285.408 
L 236.16 285.408 
L 252.392727 285.408 
L 268.625455 285.408 
L 284.858182 285.408 
L 301.090909 285.408 
L 317.323636 285.408 
L 333.556364 285.408 
L 349.789091 285.408 
L 366.021818 285.408 
L 382.254545 285.408 
L 398.487273 285.408 
" style="fill:none;stroke:#d44e4e;stroke-linecap:square;stroke-width:3;"/>
   </g>
   <g id="line2d_103">
    <path clip-path="url(#pb8ef7fe632)" d="M 127.123601 -1 
L 138.763636 20.146008 
L 154.996364 31.029193 
L 164.1182 -1 
M 204.436524 -1 
L 219.927273 49.390976 
L 236.16 3.012038 
L 239.015961 -1 
" style="fill:none;stroke:#0e4db3;stroke-linecap:square;stroke-width:3;"/>
   </g>
   <g id="line2d_104">
    <path clip-path="url(#pb8ef7fe632)" d="M 73.832727 130.569318 
L 90.065455 71.084847 
L 106.298182 48.642027 
L 122.530909 117.419878 
L 138.763636 158.659508 
L 154.996364 148.795201 
L 171.229091 97.780458 
L 187.461818 77.872062 
L 203.694545 79.707968 
L 219.927273 123.520176 
L 236.16 116.177966 
L 252.392727 116.939871 
L 268.625455 65.804721 
L 284.858182 63.882025 
L 301.090909 42.271728 
L 317.323636 45.439718 
L 333.556364 60.338133 
L 349.789091 45.52865 
L 366.021818 6.577461 
L 382.254545 69.927437 
L 398.487273 130.569318 
" style="fill:none;stroke:#d44e4e;stroke-linecap:square;stroke-width:3;"/>
   </g>
   <g id="line2d_105">
    <path clip-path="url(#pb8ef7fe632)" d="M 73.832727 64.656505 
L 90.065455 34.603548 
L 95.015459 -1 
M 161.649776 -1 
L 171.229091 89.903343 
L 187.461818 142.910708 
L 203.694545 177.762879 
L 219.927273 163.750598 
L 236.16 75.340604 
L 252.392727 130.455294 
L 268.625455 47.356674 
L 281.445718 -1 
M 315.559665 -1 
L 317.323636 6.230543 
L 333.556364 51.397483 
L 349.789091 138.864302 
L 366.021818 96.83708 
L 382.254545 101.010741 
L 398.487273 64.656505 
" style="fill:none;stroke:#0e4db3;stroke-linecap:square;stroke-width:3;"/>
   </g>
   <g id="line2d_106">
    <path clip-path="url(#pb8ef7fe632)" d="M 73.832727 285.408 
L 90.065455 191.396655 
L 106.298182 167.852236 
L 122.530909 138.362359 
L 138.763636 194.183026 
L 154.996364 250.60365 
L 171.229091 285.408 
L 187.461818 285.408 
L 203.694545 285.408 
L 219.927273 285.408 
L 236.16 285.408 
L 252.392727 285.408 
L 268.625455 285.408 
L 284.858182 257.543553 
L 301.090909 199.154269 
L 317.323636 251.776898 
L 333.556364 275.810482 
L 349.789091 177.358277 
L 366.021818 285.408 
L 382.254545 191.983446 
L 398.487273 285.408 
" style="fill:none;stroke:#d44e4e;stroke-linecap:square;stroke-width:3;"/>
   </g>
   <g id="line2d_107">
    <path clip-path="url(#pb8ef7fe632)" d="M 73.832727 285.408 
L 90.065455 285.408 
L 106.298182 285.408 
L 122.530909 285.408 
L 138.763636 285.408 
L 154.996364 285.408 
L 171.229091 285.408 
L 187.461818 285.408 
L 203.694545 285.408 
L 219.927273 285.408 
L 236.16 285.408 
L 252.392727 285.408 
L 268.625455 285.408 
L 284.858182 285.408 
L 301.090909 285.408 
L 317.323636 285.408 
L 333.556364 285.408 
L 349.789091 285.408 
L 366.021818 285.408 
L 382.254545 285.408 
L 398.487273 285.408 
" style="fill:none;stroke:#0e4db3;stroke-linecap:square;stroke-width:3;"/>
   </g>
   <g id="line2d_108">
    <path clip-path="url(#pb8ef7fe632)" d="M 73.832727 285.408 
L 90.065455 285.408 
L 106.298182 285.408 
L 122.530909 285.408 
L 138.763636 285.408 
L 154.996364 285.408 
L 171.229091 285.408 
L 187.461818 285.408 
L 203.694545 285.408 
L 219.927273 285.408 
L 236.16 285.408 
L 252.392727 285.408 
L 268.625455 285.408 
L 284.858182 285.408 
L 301.090909 285.408 
L 317.323636 285.408 
L 333.556364 285.408 
L 349.789091 285.408 
L 366.021818 285.408 
L 382.254545 285.408 
L 398.487273 285.408 
" style="fill:none;stroke:#d44e4e;stroke-linecap:square;stroke-width:3;"/>
   </g>
   <g id="line2d_109">
    <path clip-path="url(#pb8ef7fe632)" d="M 73.832727 285.408 
L 90.065455 285.408 
L 106.298182 285.408 
L 122.530909 285.408 
L 138.763636 285.408 
L 154.996364 285.408 
L 171.229091 285.408 
L 187.461818 285.408 
L 203.694545 285.408 
L 219.927273 285.408 
L 236.16 285.408 
L 252.392727 285.408 
L 268.625455 285.408 
L 284.858182 285.408 
L 301.090909 285.408 
L 317.323636 285.408 
L 333.556364 285.408 
L 349.789091 285.408 
L 366.021818 285.408 
L 382.254545 285.408 
L 398.487273 285.408 
" style="fill:none;stroke:#0e4db3;stroke-linecap:square;stroke-width:3;"/>
   </g>
   <g id="line2d_110">
    <path clip-path="url(#pb8ef7fe632)" d="M 73.832727 285.408 
L 90.065455 285.408 
L 106.298182 285.408 
L 122.530909 285.408 
L 138.763636 285.408 
L 154.996364 285.408 
L 171.229091 285.408 
L 187.461818 285.408 
L 203.694545 285.408 
L 219.927273 285.408 
L 236.16 285.408 
L 252.392727 285.408 
L 268.625455 285.408 
L 284.858182 285.408 
L 301.090909 285.408 
L 317.323636 285.408 
L 333.556364 285.408 
L 349.789091 285.408 
L 366.021818 285.408 
L 382.254545 285.408 
L 398.487273 285.408 
" style="fill:none;stroke:#d44e4e;stroke-linecap:square;stroke-width:3;"/>
   </g>
   <g id="line2d_111">
    <path clip-path="url(#pb8ef7fe632)" d="M 73.832727 84.358802 
L 90.065455 146.152852 
L 106.298182 150.38047 
L 122.530909 195.222678 
L 138.763636 207.140597 
L 154.996364 199.535513 
L 171.229091 179.018224 
L 187.461818 181.110461 
L 203.694545 136.793488 
L 219.927273 122.969802 
L 236.16 99.237592 
L 252.392727 111.768196 
L 268.625455 97.499751 
L 284.858182 105.064709 
L 301.090909 122.643819 
L 317.323636 157.555628 
L 333.556364 139.222628 
L 349.789091 119.626555 
L 366.021818 68.552794 
L 382.254545 54.69387 
L 398.487273 84.358802 
" style="fill:none;stroke:#0e4db3;stroke-linecap:square;stroke-width:3;"/>
   </g>
   <g id="line2d_112">
    <path clip-path="url(#pb8ef7fe632)" d="M 106.301455 -1 
L 122.530909 30.299037 
L 138.763636 11.718829 
L 154.996364 16.506372 
L 171.229091 29.715068 
L 187.461818 30.302728 
L 195.313679 -1 
" style="fill:none;stroke:#d44e4e;stroke-linecap:square;stroke-width:3;"/>
   </g>
   <g id="line2d_113">
    <path clip-path="url(#pb8ef7fe632)" d="M 73.832727 58.961727 
L 90.065455 109.059469 
L 106.298182 181.24929 
L 122.530909 161.004562 
L 138.763636 125.291432 
L 154.996364 189.895633 
L 171.229091 222.456993 
L 187.461818 285.408 
L 203.694545 265.816518 
L 219.927273 207.257675 
L 236.16 160.853193 
L 252.392727 74.642529 
L 255.951746 -1 
M 384.398428 -1 
L 398.487273 58.961727 
" style="fill:none;stroke:#0e4db3;stroke-linecap:square;stroke-width:3;"/>
   </g>
   <g id="line2d_114">
    <path clip-path="url(#pb8ef7fe632)" d="M 73.832727 285.408 
L 90.065455 285.408 
L 106.298182 285.408 
L 122.530909 285.408 
L 138.763636 285.408 
L 154.996364 285.408 
L 171.229091 285.408 
L 187.461818 285.408 
L 203.694545 285.408 
L 219.927273 285.408 
L 236.16 285.408 
L 252.392727 285.408 
L 268.625455 236.743637 
L 284.858182 156.333198 
L 301.090909 85.774065 
L 317.323636 12.894077 
L 333.556364 156.506002 
L 349.789091 113.410626 
L 366.021818 213.80678 
L 382.254545 255.333038 
L 398.487273 285.408 
" style="fill:none;stroke:#d44e4e;stroke-linecap:square;stroke-width:3;"/>
   </g>
   <g id="line2d_115">
    <path clip-path="url(#pb8ef7fe632)" d="M 73.832727 265.71877 
L 90.065455 247.616426 
L 106.298182 243.745107 
L 122.530909 234.45505 
L 138.763636 170.956575 
L 154.996364 148.843014 
L 171.229091 42.15281 
L 181.425978 -1 
M 329.196479 -1 
L 333.556364 21.874429 
L 349.789091 157.666662 
L 366.021818 186.354164 
L 382.254545 218.10807 
L 398.487273 265.71877 
" style="fill:none;stroke:#0e4db3;stroke-linecap:square;stroke-width:3;"/>
   </g>
   <g id="line2d_116">
    <path clip-path="url(#pb8ef7fe632)" d="M 73.832727 285.408 
L 90.065455 285.408 
L 106.298182 285.408 
L 122.530909 285.408 
L 138.763636 285.408 
L 154.996364 285.408 
L 171.229091 285.408 
L 187.461818 285.408 
L 203.694545 285.408 
L 219.927273 285.408 
L 236.16 285.408 
L 252.392727 285.408 
L 268.625455 285.408 
L 284.858182 285.408 
L 301.090909 285.408 
L 317.323636 285.408 
L 333.556364 285.408 
L 349.789091 285.408 
L 366.021818 285.408 
L 382.254545 285.408 
L 398.487273 285.408 
" style="fill:none;stroke:#d44e4e;stroke-linecap:square;stroke-width:3;"/>
   </g>
   <g id="line2d_117">
    <path clip-path="url(#pb8ef7fe632)" d="M 73.832727 285.408 
L 90.065455 128.332762 
L 106.298182 50.24822 
L 114.09508 -1 
M 197.245261 -1 
L 203.694545 13.137248 
L 219.927273 89.472375 
L 236.16 159.841687 
L 252.392727 193.947744 
L 268.625455 285.408 
L 284.858182 285.408 
L 301.090909 210.878038 
L 317.323636 249.623041 
L 333.556364 275.980882 
L 349.789091 285.408 
L 366.021818 285.408 
L 382.254545 285.408 
L 398.487273 285.408 
" style="fill:none;stroke:#0e4db3;stroke-linecap:square;stroke-width:3;"/>
   </g>
   <g id="line2d_118">
    <path clip-path="url(#pb8ef7fe632)" d="M 73.832727 285.408 
L 90.065455 285.408 
L 106.298182 285.408 
L 122.530909 147.845809 
L 138.763636 155.436692 
L 154.996364 138.423378 
L 171.229091 179.925341 
L 187.461818 265.283057 
L 203.694545 285.408 
L 219.927273 285.408 
L 236.16 285.408 
L 252.392727 285.408 
L 268.625455 285.408 
L 284.858182 285.408 
L 301.090909 285.408 
L 317.323636 285.408 
L 333.556364 285.408 
L 349.789091 285.408 
L 366.021818 285.408 
L 382.254545 285.408 
L 398.487273 285.408 
" style="fill:none;stroke:#d44e4e;stroke-linecap:square;stroke-width:3;"/>
   </g>
   <g id="line2d_119">
    <path clip-path="url(#pb8ef7fe632)" d="M 73.832727 285.408 
L 90.065455 285.408 
L 106.298182 285.408 
L 122.530909 285.408 
L 138.763636 285.408 
L 154.996364 285.408 
L 171.229091 285.408 
L 187.461818 285.408 
L 203.694545 285.408 
L 219.927273 285.408 
L 236.16 285.408 
L 252.392727 285.408 
L 268.625455 285.408 
L 284.858182 285.408 
L 301.090909 285.408 
L 317.323636 285.408 
L 333.556364 285.408 
L 349.789091 285.408 
L 366.021818 285.408 
L 382.254545 285.408 
L 398.487273 285.408 
" style="fill:none;stroke:#0e4db3;stroke-linecap:square;stroke-width:3;"/>
   </g>
   <g id="line2d_120">
    <path clip-path="url(#pb8ef7fe632)" d="M 73.832727 285.408 
L 90.065455 285.408 
L 106.298182 285.408 
L 122.530909 285.408 
L 138.763636 285.408 
L 154.996364 285.408 
L 171.229091 285.408 
L 187.461818 285.408 
L 203.694545 285.408 
L 219.927273 285.408 
L 236.16 285.408 
L 252.392727 285.408 
L 268.625455 285.408 
L 284.858182 285.408 
L 301.090909 285.408 
L 317.323636 285.408 
L 333.556364 285.408 
L 349.789091 285.408 
L 366.021818 285.408 
L 382.254545 285.408 
L 398.487273 285.408 
" style="fill:none;stroke:#d44e4e;stroke-linecap:square;stroke-width:3;"/>
   </g>
   <g id="line2d_121">
    <path clip-path="url(#pb8ef7fe632)" d="M 73.832727 285.408 
L 90.065455 285.408 
L 106.298182 274.888317 
L 122.530909 262.679196 
L 138.763636 85.697827 
L 154.996364 3.951331 
L 155.488042 -1 
M 307.353217 -1 
L 317.323636 108.77338 
L 333.556364 199.042335 
L 349.789091 285.408 
L 366.021818 285.408 
L 382.254545 285.408 
L 398.487273 285.408 
" style="fill:none;stroke:#0e4db3;stroke-linecap:square;stroke-width:3;"/>
   </g>
   <g id="line2d_122">
    <path clip-path="url(#pb8ef7fe632)" d="M 73.832727 285.408 
L 90.065455 285.408 
L 106.298182 285.408 
L 122.530909 285.408 
L 138.763636 285.408 
L 154.996364 219.556814 
L 171.229091 105.621395 
L 181.90075 -1 
M 242.708573 -1 
L 252.392727 49.587966 
L 268.625455 33.987427 
L 284.779315 -1 
M 284.87307 -1 
L 301.090909 185.067637 
L 317.323636 285.408 
L 333.556364 285.408 
L 349.789091 285.408 
L 366.021818 285.408 
L 382.254545 285.408 
L 398.487273 285.408 
" style="fill:none;stroke:#d44e4e;stroke-linecap:square;stroke-width:3;"/>
   </g>
   <g id="line2d_123">
    <path clip-path="url(#pb8ef7fe632)" d="M 73.832727 285.408 
L 90.065455 285.408 
L 106.298182 285.408 
L 122.530909 285.408 
L 138.763636 285.408 
L 154.996364 285.408 
L 171.229091 285.408 
L 187.461818 285.408 
L 203.694545 285.408 
L 219.927273 285.408 
L 236.16 285.408 
L 252.392727 285.408 
L 268.625455 285.408 
L 284.858182 285.408 
L 301.090909 285.408 
L 317.323636 285.408 
L 333.556364 285.408 
L 349.789091 285.408 
L 366.021818 285.408 
L 382.254545 285.408 
L 398.487273 285.408 
" style="fill:none;stroke:#0e4db3;stroke-linecap:square;stroke-width:3;"/>
   </g>
   <g id="line2d_124">
    <path clip-path="url(#pb8ef7fe632)" d="M 73.832727 285.408 
L 90.065455 285.408 
L 106.298182 285.408 
L 122.530909 285.408 
L 138.763636 285.408 
L 154.996364 285.408 
L 171.229091 285.408 
L 187.461818 285.408 
L 203.694545 285.408 
L 219.927273 285.408 
L 236.16 285.408 
L 252.392727 285.408 
L 268.625455 285.408 
L 284.858182 285.408 
L 301.090909 285.408 
L 317.323636 285.408 
L 333.556364 285.408 
L 349.789091 285.408 
L 366.021818 285.408 
L 382.254545 285.408 
L 398.487273 285.408 
" style="fill:none;stroke:#d44e4e;stroke-linecap:square;stroke-width:3;"/>
   </g>
   <g id="line2d_125">
    <path clip-path="url(#pb8ef7fe632)" d="M 73.832727 285.408 
L 90.065455 264.536779 
L 106.298182 251.094631 
L 122.530909 159.626989 
L 138.763636 6.737701 
L 141.763487 -1 
M 188.501114 -1 
L 203.694545 62.716138 
L 219.927273 250.028301 
L 236.16 285.408 
L 252.392727 285.408 
L 268.625455 285.408 
L 284.858182 285.408 
L 301.090909 285.408 
L 317.323636 285.408 
L 333.556364 285.408 
L 349.789091 285.408 
L 366.021818 285.408 
L 382.254545 285.408 
L 398.487273 285.408 
" style="fill:none;stroke:#0e4db3;stroke-linecap:square;stroke-width:3;"/>
   </g>
   <g id="line2d_126">
    <path clip-path="url(#pb8ef7fe632)" d="M 73.832727 285.408 
L 90.065455 273.908437 
L 106.298182 265.478834 
L 122.530909 200.681055 
L 138.763636 127.669329 
L 154.996364 115.385338 
L 171.229091 126.531783 
L 187.461818 148.040668 
L 203.694545 174.148953 
L 219.927273 238.280438 
L 236.16 251.587958 
L 252.392727 262.202574 
L 268.625455 248.034803 
L 284.858182 273.901314 
L 301.090909 267.170777 
L 317.323636 284.323773 
L 333.556364 273.631929 
L 349.789091 275.621353 
L 366.021818 277.937973 
L 382.254545 274.74178 
L 398.487273 285.408 
" style="fill:none;stroke:#d44e4e;stroke-linecap:square;stroke-width:3;"/>
   </g>
   <g id="line2d_127">
    <path clip-path="url(#pb8ef7fe632)" d="M 73.832727 66.610521 
L 90.065455 107.22748 
L 106.298182 181.38513 
L 122.530909 181.865304 
L 138.763636 104.327039 
L 154.719035 -1 
M 384.76187 -1 
L 398.487273 66.610521 
" style="fill:none;stroke:#0e4db3;stroke-linecap:square;stroke-width:3;"/>
   </g>
   <g id="line2d_128">
    <path clip-path="url(#pb8ef7fe632)" d="M 73.832727 285.408 
L 90.065455 285.408 
L 106.298182 285.408 
L 122.530909 285.408 
L 138.763636 285.408 
L 154.996364 285.408 
L 171.229091 277.239228 
L 187.461818 261.010996 
L 203.694545 285.120447 
L 219.927273 285.408 
L 236.16 285.408 
L 252.392727 277.81743 
L 268.625455 285.408 
L 284.858182 285.408 
L 301.090909 235.854362 
L 317.323636 102.512877 
L 333.556364 191.282108 
L 349.789091 180.366121 
L 366.021818 285.408 
L 382.254545 285.408 
L 398.487273 285.408 
" style="fill:none;stroke:#d44e4e;stroke-linecap:square;stroke-width:3;"/>
   </g>
   <g id="line2d_129">
    <path clip-path="url(#pb8ef7fe632)" d="M 73.832727 285.408 
L 90.065455 285.408 
L 106.298182 285.408 
L 122.530909 285.408 
L 138.763636 285.408 
L 154.996364 285.408 
L 171.229091 285.408 
L 187.461818 285.408 
L 203.694545 285.408 
L 219.927273 285.408 
L 236.16 285.408 
L 252.392727 285.408 
L 268.625455 285.408 
L 284.858182 285.408 
L 301.090909 285.408 
L 317.323636 285.408 
L 333.556364 285.408 
L 349.789091 285.408 
L 366.021818 285.408 
L 382.254545 285.408 
L 398.487273 285.408 
" style="fill:none;stroke:#0e4db3;stroke-linecap:square;stroke-width:3;"/>
   </g>
   <g id="line2d_130">
    <path clip-path="url(#pb8ef7fe632)" d="M 73.832727 285.408 
L 90.065455 285.408 
L 106.298182 285.408 
L 122.530909 285.408 
L 138.763636 285.408 
L 154.996364 285.408 
L 171.229091 285.408 
L 187.461818 285.408 
L 203.694545 285.408 
L 219.927273 285.408 
L 236.16 285.408 
L 252.392727 285.408 
L 268.625455 285.408 
L 284.858182 285.408 
L 301.090909 285.408 
L 317.323636 285.408 
L 333.556364 285.408 
L 349.789091 285.408 
L 366.021818 285.408 
L 382.254545 285.408 
L 398.487273 285.408 
" style="fill:none;stroke:#d44e4e;stroke-linecap:square;stroke-width:3;"/>
   </g>
   <g id="line2d_131">
    <path clip-path="url(#pb8ef7fe632)" d="M 138.105225 -1 
L 138.763636 5.295156 
L 154.996364 128.168747 
L 171.229091 143.598995 
L 187.461818 112.168309 
L 203.694545 79.023921 
L 219.927273 135.691858 
L 236.16 145.13944 
L 252.392727 141.796706 
L 268.625455 182.560866 
L 284.858182 216.126719 
L 301.090909 212.716404 
L 317.323636 169.161895 
L 333.556364 45.953426 
L 341.117826 -1 
" style="fill:none;stroke:#0e4db3;stroke-linecap:square;stroke-width:3;"/>
   </g>
   <g id="line2d_132">
    <path clip-path="url(#pb8ef7fe632)" d="M 73.832727 252.891978 
L 90.065455 69.913385 
L 106.298182 74.215753 
L 122.530909 90.384041 
L 138.763636 285.408 
L 154.996364 285.408 
L 171.229091 285.408 
L 187.461818 285.408 
L 203.694545 285.408 
L 219.927273 285.408 
L 236.16 285.408 
L 252.392727 285.408 
L 268.625455 285.408 
L 284.858182 285.408 
L 301.090909 285.408 
L 317.323636 285.408 
L 333.556364 285.408 
L 349.789091 261.337461 
L 366.021818 261.914787 
L 382.254545 220.811527 
L 398.487273 252.891978 
" style="fill:none;stroke:#d44e4e;stroke-linecap:square;stroke-width:3;"/>
   </g>
   <g id="line2d_133">
    <path clip-path="url(#pb8ef7fe632)" d="M 73.832727 285.408 
L 90.065455 285.408 
L 106.298182 285.408 
L 122.530909 285.408 
L 138.763636 285.408 
L 154.996364 285.408 
L 171.229091 285.408 
L 187.461818 285.408 
L 203.694545 285.408 
L 219.927273 285.408 
L 236.16 285.408 
L 252.392727 285.408 
L 268.625455 285.408 
L 284.858182 285.408 
L 301.090909 285.408 
L 317.323636 285.408 
L 333.556364 285.408 
L 349.789091 285.408 
L 366.021818 285.408 
L 382.254545 285.408 
L 398.487273 285.408 
" style="fill:none;stroke:#0e4db3;stroke-linecap:square;stroke-width:3;"/>
   </g>
   <g id="line2d_134">
    <path clip-path="url(#pb8ef7fe632)" d="M 73.832727 285.408 
L 90.065455 285.408 
L 106.298182 285.408 
L 122.530909 285.408 
L 138.763636 285.408 
L 154.996364 285.408 
L 171.229091 285.408 
L 187.461818 285.408 
L 203.694545 285.408 
L 219.927273 285.408 
L 236.16 285.408 
L 252.392727 285.408 
L 268.625455 285.408 
L 284.858182 285.408 
L 301.090909 285.408 
L 317.323636 285.408 
L 333.556364 285.408 
L 349.789091 285.408 
L 366.021818 285.408 
L 382.254545 285.408 
L 398.487273 285.408 
" style="fill:none;stroke:#d44e4e;stroke-linecap:square;stroke-width:3;"/>
   </g>
   <g id="line2d_135">
    <path clip-path="url(#pb8ef7fe632)" d="M 73.832727 285.408 
L 90.065455 208.654379 
L 106.298182 285.408 
L 122.530909 285.408 
L 138.763636 173.363148 
L 153.094679 -1 
M 229.317048 -1 
L 236.16 163.249763 
L 247.299374 -1 
M 262.50927 -1 
L 268.625455 44.404228 
L 284.858182 212.662524 
L 301.090909 280.473379 
L 317.323636 285.408 
L 333.556364 285.408 
L 349.789091 282.120913 
L 366.021818 285.408 
L 382.254545 285.408 
L 398.487273 285.408 
" style="fill:none;stroke:#0e4db3;stroke-linecap:square;stroke-width:3;"/>
   </g>
   <g id="line2d_136">
    <path clip-path="url(#pb8ef7fe632)" d="M 73.832727 285.408 
L 90.065455 285.408 
L 106.298182 285.408 
L 122.530909 285.408 
L 138.763636 285.408 
L 154.996364 285.408 
L 171.229091 281.852448 
L 187.461818 212.666191 
L 203.694545 223.711361 
L 219.927273 210.670765 
L 236.16 285.408 
L 252.392727 285.408 
L 268.625455 285.408 
L 284.858182 285.408 
L 301.090909 285.408 
L 317.323636 285.408 
L 333.556364 285.408 
L 349.789091 285.408 
L 366.021818 285.408 
L 382.254545 285.408 
L 398.487273 285.408 
" style="fill:none;stroke:#d44e4e;stroke-linecap:square;stroke-width:3;"/>
   </g>
   <g id="line2d_137">
    <path clip-path="url(#pb8ef7fe632)" d="M 73.832727 285.408 
L 90.065455 285.408 
L 106.298182 285.408 
L 122.530909 285.408 
L 138.763636 285.408 
L 154.996364 285.408 
L 171.229091 285.408 
L 187.461818 285.408 
L 203.694545 285.408 
L 219.927273 285.408 
L 236.16 285.408 
L 252.392727 285.408 
L 268.625455 285.408 
L 284.858182 285.408 
L 301.090909 285.408 
L 317.323636 285.408 
L 333.556364 285.408 
L 349.789091 285.408 
L 366.021818 285.408 
L 382.254545 285.408 
L 398.487273 285.408 
" style="fill:none;stroke:#0e4db3;stroke-linecap:square;stroke-width:3;"/>
   </g>
   <g id="line2d_138">
    <path clip-path="url(#pb8ef7fe632)" d="M 73.832727 285.408 
L 90.065455 285.408 
L 106.298182 285.408 
L 122.530909 285.408 
L 138.763636 285.408 
L 154.996364 285.408 
L 171.229091 285.408 
L 187.461818 285.408 
L 203.694545 285.408 
L 219.927273 285.408 
L 236.16 285.408 
L 252.392727 285.408 
L 268.625455 285.408 
L 284.858182 285.408 
L 301.090909 285.408 
L 317.323636 285.408 
L 333.556364 285.408 
L 349.789091 285.408 
L 366.021818 285.408 
L 382.254545 285.408 
L 398.487273 285.408 
" style="fill:none;stroke:#d44e4e;stroke-linecap:square;stroke-width:3;"/>
   </g>
   <g id="line2d_139">
    <path clip-path="url(#pb8ef7fe632)" d="M 73.832727 285.408 
L 90.065455 285.408 
L 106.298182 285.408 
L 122.530909 285.408 
L 138.763636 285.408 
L 154.996364 285.408 
L 171.229091 285.408 
L 187.461818 285.408 
L 203.694545 285.408 
L 219.927273 285.408 
L 236.16 285.408 
L 252.392727 285.408 
L 268.625455 285.408 
L 284.858182 285.408 
L 301.090909 285.408 
L 317.323636 285.408 
L 333.556364 285.408 
L 349.789091 285.408 
L 366.021818 285.408 
L 382.254545 285.408 
L 398.487273 285.408 
" style="fill:none;stroke:#0e4db3;stroke-linecap:square;stroke-width:3;"/>
   </g>
   <g id="line2d_140">
    <path clip-path="url(#pb8ef7fe632)" d="M 73.832727 285.408 
L 90.065455 285.408 
L 106.298182 285.408 
L 122.530909 285.408 
L 138.763636 285.408 
L 154.996364 285.408 
L 171.229091 285.408 
L 187.461818 285.408 
L 203.694545 285.408 
L 219.927273 285.408 
L 236.16 285.408 
L 252.392727 285.408 
L 268.625455 285.408 
L 284.858182 285.408 
L 301.090909 285.408 
L 317.323636 285.408 
L 333.556364 285.408 
L 349.789091 285.408 
L 366.021818 285.408 
L 382.254545 285.408 
L 398.487273 285.408 
" style="fill:none;stroke:#d44e4e;stroke-linecap:square;stroke-width:3;"/>
   </g>
   <g id="line2d_141">
    <path clip-path="url(#pb8ef7fe632)" d="M 73.832727 209.144597 
L 90.065455 179.906251 
L 106.298182 284.474719 
L 122.530909 285.408 
L 138.763636 282.238727 
L 154.996364 263.995464 
L 171.229091 171.827585 
L 187.461818 129.917638 
L 203.694545 10.471487 
L 219.927273 19.877162 
L 236.16 19.304126 
L 252.392727 48.060655 
L 268.625455 75.983186 
L 284.858182 218.064181 
L 301.090909 241.740287 
L 317.323636 241.990175 
L 333.556364 132.919278 
L 349.789091 181.774763 
L 366.021818 180.933358 
L 382.254545 197.598003 
L 398.487273 209.144597 
" style="fill:none;stroke:#0e4db3;stroke-linecap:square;stroke-width:3;"/>
   </g>
   <g id="line2d_142">
    <path clip-path="url(#pb8ef7fe632)" d="M 73.832727 255.059569 
L 90.065455 167.193269 
L 106.298182 248.053967 
L 122.530909 285.408 
L 138.763636 285.408 
L 154.996364 285.408 
L 171.229091 247.059335 
L 187.461818 189.36954 
L 203.694545 118.952273 
L 219.927273 115.789833 
L 236.16 99.833695 
L 252.392727 144.393398 
L 268.625455 165.9515 
L 284.858182 269.253597 
L 301.090909 285.408 
L 317.323636 262.145776 
L 333.556364 183.165043 
L 349.789091 186.363363 
L 366.021818 196.859987 
L 382.254545 195.245042 
L 398.487273 255.059569 
" style="fill:none;stroke:#d44e4e;stroke-linecap:square;stroke-width:3;"/>
   </g>
   <g id="line2d_143">
    <path clip-path="url(#pb8ef7fe632)" d="M 73.832727 196.595875 
L 90.065455 114.747591 
L 106.298182 109.008453 
L 122.530909 101.77186 
L 138.763636 68.593378 
L 154.996364 108.73195 
L 171.229091 110.872833 
L 187.461818 111.83617 
L 203.694545 95.80452 
L 219.927273 216.199926 
L 236.16 285.408 
L 252.392727 122.448603 
L 268.625455 63.648 
L 284.858182 130.576999 
L 301.090909 184.2928 
L 317.323636 285.408 
L 333.556364 285.408 
L 349.789091 285.408 
L 366.021818 285.408 
L 382.254545 227.408457 
L 398.487273 196.595875 
" style="fill:none;stroke:#0e4db3;stroke-linecap:square;stroke-width:3;"/>
   </g>
   <g id="line2d_144">
    <path clip-path="url(#pb8ef7fe632)" d="M 73.832727 178.131375 
L 90.065455 105.777861 
L 106.298182 122.243908 
L 122.530909 141.97675 
L 138.763636 113.985388 
L 154.996364 135.668053 
L 171.229091 164.133825 
L 187.461818 199.753557 
L 203.694545 191.576634 
L 219.927273 245.637424 
L 236.16 268.464156 
L 252.392727 188.46418 
L 268.625455 204.102142 
L 284.858182 245.494873 
L 301.090909 256.055279 
L 317.323636 285.408 
L 333.556364 285.408 
L 349.789091 285.408 
L 366.021818 285.408 
L 382.254545 221.245669 
L 398.487273 178.131375 
" style="fill:none;stroke:#d44e4e;stroke-linecap:square;stroke-width:3;"/>
   </g>
   <g id="patch_3">
    <path d="M 57.6 307.584 
L 57.6 41.472 
" style="fill:none;stroke:#000000;stroke-linecap:square;stroke-linejoin:miter;stroke-width:2.5;"/>
   </g>
   <g id="patch_4">
    <path d="M 414.72 307.584 
L 414.72 41.472 
" style="fill:none;stroke:#000000;stroke-linecap:square;stroke-linejoin:miter;stroke-width:2.5;"/>
   </g>
   <g id="patch_5">
    <path d="M 57.6 307.584 
L 414.72 307.584 
" style="fill:none;stroke:#000000;stroke-linecap:square;stroke-linejoin:miter;stroke-width:2.5;"/>
   </g>
   <g id="patch_6">
    <path d="M 57.6 41.472 
L 414.72 41.472 
" style="fill:none;stroke:#000000;stroke-linecap:square;stroke-linejoin:miter;stroke-width:2.5;"/>
   </g>
  </g>
 </g>
 <defs>
  <clipPath id="pb8ef7fe632">
   <rect height="266.112" width="357.12" x="57.6" y="41.472"/>
  </clipPath>
 </defs>
</svg>
