<?xml version="1.0" encoding="utf-8" standalone="no"?>
<!DOCTYPE svg PUBLIC "-//W3C//DTD SVG 1.1//EN"
  "http://www.w3.org/Graphics/SVG/1.1/DTD/svg11.dtd">
<!-- Created with matplotlib (https://matplotlib.org/) -->
<svg height="345.6pt" version="1.1" viewBox="0 0 460.8 345.6" width="460.8pt" xmlns="http://www.w3.org/2000/svg" xmlns:xlink="http://www.w3.org/1999/xlink">
 <defs>
  <style type="text/css">
*{stroke-linecap:butt;stroke-linejoin:round;}
  </style>
 </defs>
 <g id="figure_1">
  <g id="patch_1">
   <path d="M 0 345.6 
L 460.8 345.6 
L 460.8 0 
L 0 0 
z
" style="fill:#ffffff;"/>
  </g>
  <g id="axes_1">
   <g id="patch_2">
    <path d="M 57.6 307.584 
L 414.72 307.584 
L 414.72 41.472 
L 57.6 41.472 
z
" style="fill:#ffffff;"/>
   </g>
   <g id="matplotlib.axis_1">
    <g id="xtick_1">
     <g id="line2d_1">
      <defs>
       <path d="M 0 0 
L 0 12 
" id="m5e86e38241" style="stroke:#000000;stroke-width:2.5;"/>
      </defs>
      <g>
       <use style="stroke:#000000;stroke-width:2.5;" x="73.832727" xlink:href="#m5e86e38241" y="307.584"/>
      </g>
     </g>
     <g id="text_1">
      <!-- 0 -->
      <defs>
       <path d="M 31.78125 66.40625 
Q 24.171875 66.40625 20.328125 58.90625 
Q 16.5 51.421875 16.5 36.375 
Q 16.5 21.390625 20.328125 13.890625 
Q 24.171875 6.390625 31.78125 6.390625 
Q 39.453125 6.390625 43.28125 13.890625 
Q 47.125 21.390625 47.125 36.375 
Q 47.125 51.421875 43.28125 58.90625 
Q 39.453125 66.40625 31.78125 66.40625 
z
M 31.78125 74.21875 
Q 44.046875 74.21875 50.515625 64.515625 
Q 56.984375 54.828125 56.984375 36.375 
Q 56.984375 17.96875 50.515625 8.265625 
Q 44.046875 -1.421875 31.78125 -1.421875 
Q 19.53125 -1.421875 13.0625 8.265625 
Q 6.59375 17.96875 6.59375 36.375 
Q 6.59375 54.828125 13.0625 64.515625 
Q 19.53125 74.21875 31.78125 74.21875 
z
" id="DejaVuSans-48"/>
      </defs>
      <g transform="translate(57.735602 361.532094)scale(0.506 -0.506)">
       <use xlink:href="#DejaVuSans-48"/>
      </g>
     </g>
    </g>
    <g id="xtick_2">
     <g id="line2d_2">
      <g>
       <use style="stroke:#000000;stroke-width:2.5;" x="254.196364" xlink:href="#m5e86e38241" y="307.584"/>
      </g>
     </g>
     <g id="text_2">
      <!-- 100 -->
      <defs>
       <path d="M 12.40625 8.296875 
L 28.515625 8.296875 
L 28.515625 63.921875 
L 10.984375 60.40625 
L 10.984375 69.390625 
L 28.421875 72.90625 
L 38.28125 72.90625 
L 38.28125 8.296875 
L 54.390625 8.296875 
L 54.390625 0 
L 12.40625 0 
z
" id="DejaVuSans-49"/>
      </defs>
      <g transform="translate(205.904989 361.532094)scale(0.506 -0.506)">
       <use xlink:href="#DejaVuSans-49"/>
       <use x="63.623047" xlink:href="#DejaVuSans-48"/>
       <use x="127.246094" xlink:href="#DejaVuSans-48"/>
      </g>
     </g>
    </g>
    <g id="text_3">
     <!-- Degrees -->
     <defs>
      <path d="M 19.671875 64.796875 
L 19.671875 8.109375 
L 31.59375 8.109375 
Q 46.6875 8.109375 53.6875 14.9375 
Q 60.6875 21.78125 60.6875 36.53125 
Q 60.6875 51.171875 53.6875 57.984375 
Q 46.6875 64.796875 31.59375 64.796875 
z
M 9.8125 72.90625 
L 30.078125 72.90625 
Q 51.265625 72.90625 61.171875 64.09375 
Q 71.09375 55.28125 71.09375 36.53125 
Q 71.09375 17.671875 61.125 8.828125 
Q 51.171875 0 30.078125 0 
L 9.8125 0 
z
" id="DejaVuSans-68"/>
      <path d="M 56.203125 29.59375 
L 56.203125 25.203125 
L 14.890625 25.203125 
Q 15.484375 15.921875 20.484375 11.0625 
Q 25.484375 6.203125 34.421875 6.203125 
Q 39.59375 6.203125 44.453125 7.46875 
Q 49.3125 8.734375 54.109375 11.28125 
L 54.109375 2.78125 
Q 49.265625 0.734375 44.1875 -0.34375 
Q 39.109375 -1.421875 33.890625 -1.421875 
Q 20.796875 -1.421875 13.15625 6.1875 
Q 5.515625 13.8125 5.515625 26.8125 
Q 5.515625 40.234375 12.765625 48.109375 
Q 20.015625 56 32.328125 56 
Q 43.359375 56 49.78125 48.890625 
Q 56.203125 41.796875 56.203125 29.59375 
z
M 47.21875 32.234375 
Q 47.125 39.59375 43.09375 43.984375 
Q 39.0625 48.390625 32.421875 48.390625 
Q 24.90625 48.390625 20.390625 44.140625 
Q 15.875 39.890625 15.1875 32.171875 
z
" id="DejaVuSans-101"/>
      <path d="M 45.40625 27.984375 
Q 45.40625 37.75 41.375 43.109375 
Q 37.359375 48.484375 30.078125 48.484375 
Q 22.859375 48.484375 18.828125 43.109375 
Q 14.796875 37.75 14.796875 27.984375 
Q 14.796875 18.265625 18.828125 12.890625 
Q 22.859375 7.515625 30.078125 7.515625 
Q 37.359375 7.515625 41.375 12.890625 
Q 45.40625 18.265625 45.40625 27.984375 
z
M 54.390625 6.78125 
Q 54.390625 -7.171875 48.1875 -13.984375 
Q 42 -20.796875 29.203125 -20.796875 
Q 24.46875 -20.796875 20.265625 -20.09375 
Q 16.0625 -19.390625 12.109375 -17.921875 
L 12.109375 -9.1875 
Q 16.0625 -11.328125 19.921875 -12.34375 
Q 23.78125 -13.375 27.78125 -13.375 
Q 36.625 -13.375 41.015625 -8.765625 
Q 45.40625 -4.15625 45.40625 5.171875 
L 45.40625 9.625 
Q 42.625 4.78125 38.28125 2.390625 
Q 33.9375 0 27.875 0 
Q 17.828125 0 11.671875 7.65625 
Q 5.515625 15.328125 5.515625 27.984375 
Q 5.515625 40.671875 11.671875 48.328125 
Q 17.828125 56 27.875 56 
Q 33.9375 56 38.28125 53.609375 
Q 42.625 51.21875 45.40625 46.390625 
L 45.40625 54.6875 
L 54.390625 54.6875 
z
" id="DejaVuSans-103"/>
      <path d="M 41.109375 46.296875 
Q 39.59375 47.171875 37.8125 47.578125 
Q 36.03125 48 33.890625 48 
Q 26.265625 48 22.1875 43.046875 
Q 18.109375 38.09375 18.109375 28.8125 
L 18.109375 0 
L 9.078125 0 
L 9.078125 54.6875 
L 18.109375 54.6875 
L 18.109375 46.1875 
Q 20.953125 51.171875 25.484375 53.578125 
Q 30.03125 56 36.53125 56 
Q 37.453125 56 38.578125 55.875 
Q 39.703125 55.765625 41.0625 55.515625 
z
" id="DejaVuSans-114"/>
      <path d="M 44.28125 53.078125 
L 44.28125 44.578125 
Q 40.484375 46.53125 36.375 47.5 
Q 32.28125 48.484375 27.875 48.484375 
Q 21.1875 48.484375 17.84375 46.4375 
Q 14.5 44.390625 14.5 40.28125 
Q 14.5 37.15625 16.890625 35.375 
Q 19.28125 33.59375 26.515625 31.984375 
L 29.59375 31.296875 
Q 39.15625 29.25 43.1875 25.515625 
Q 47.21875 21.78125 47.21875 15.09375 
Q 47.21875 7.46875 41.1875 3.015625 
Q 35.15625 -1.421875 24.609375 -1.421875 
Q 20.21875 -1.421875 15.453125 -0.5625 
Q 10.6875 0.296875 5.421875 2 
L 5.421875 11.28125 
Q 10.40625 8.6875 15.234375 7.390625 
Q 20.0625 6.109375 24.8125 6.109375 
Q 31.15625 6.109375 34.5625 8.28125 
Q 37.984375 10.453125 37.984375 14.40625 
Q 37.984375 18.0625 35.515625 20.015625 
Q 33.0625 21.96875 24.703125 23.78125 
L 21.578125 24.515625 
Q 13.234375 26.265625 9.515625 29.90625 
Q 5.8125 33.546875 5.8125 39.890625 
Q 5.8125 47.609375 11.28125 51.796875 
Q 16.75 56 26.8125 56 
Q 31.78125 56 36.171875 55.265625 
Q 40.578125 54.546875 44.28125 53.078125 
z
" id="DejaVuSans-115"/>
     </defs>
     <g transform="translate(120.723 417.998687)scale(0.552 -0.552)">
      <use xlink:href="#DejaVuSans-68"/>
      <use x="77.001953" xlink:href="#DejaVuSans-101"/>
      <use x="138.525391" xlink:href="#DejaVuSans-103"/>
      <use x="202.001953" xlink:href="#DejaVuSans-114"/>
      <use x="243.083984" xlink:href="#DejaVuSans-101"/>
      <use x="304.607422" xlink:href="#DejaVuSans-101"/>
      <use x="366.130859" xlink:href="#DejaVuSans-115"/>
     </g>
    </g>
   </g>
   <g id="matplotlib.axis_2">
    <g id="ytick_1">
     <g id="line2d_3">
      <defs>
       <path d="M 0 0 
L -12 0 
" id="mb1aed72a2a" style="stroke:#000000;stroke-width:2.5;"/>
      </defs>
      <g>
       <use style="stroke:#000000;stroke-width:2.5;" x="57.6" xlink:href="#mb1aed72a2a" y="285.408"/>
      </g>
     </g>
     <g id="text_4">
      <!-- 0 -->
      <g transform="translate(9.90575 304.632047)scale(0.506 -0.506)">
       <use xlink:href="#DejaVuSans-48"/>
      </g>
     </g>
    </g>
    <g id="ytick_2">
     <g id="line2d_4">
      <g>
       <use style="stroke:#000000;stroke-width:2.5;" x="57.6" xlink:href="#mb1aed72a2a" y="152.182237"/>
      </g>
     </g>
     <g id="text_5">
      <!-- 2 -->
      <defs>
       <path d="M 19.1875 8.296875 
L 53.609375 8.296875 
L 53.609375 0 
L 7.328125 0 
L 7.328125 8.296875 
Q 12.9375 14.109375 22.625 23.890625 
Q 32.328125 33.6875 34.8125 36.53125 
Q 39.546875 41.84375 41.421875 45.53125 
Q 43.3125 49.21875 43.3125 52.78125 
Q 43.3125 58.59375 39.234375 62.25 
Q 35.15625 65.921875 28.609375 65.921875 
Q 23.96875 65.921875 18.8125 64.3125 
Q 13.671875 62.703125 7.8125 59.421875 
L 7.8125 69.390625 
Q 13.765625 71.78125 18.9375 73 
Q 24.125 74.21875 28.421875 74.21875 
Q 39.75 74.21875 46.484375 68.546875 
Q 53.21875 62.890625 53.21875 53.421875 
Q 53.21875 48.921875 51.53125 44.890625 
Q 49.859375 40.875 45.40625 35.40625 
Q 44.1875 33.984375 37.640625 27.21875 
Q 31.109375 20.453125 19.1875 8.296875 
z
" id="DejaVuSans-50"/>
      </defs>
      <g transform="translate(9.90575 171.406284)scale(0.506 -0.506)">
       <use xlink:href="#DejaVuSans-50"/>
      </g>
     </g>
    </g>
    <g id="text_6">
     <!-- Activation -->
     <defs>
      <path d="M 34.1875 63.1875 
L 20.796875 26.90625 
L 47.609375 26.90625 
z
M 28.609375 72.90625 
L 39.796875 72.90625 
L 67.578125 0 
L 57.328125 0 
L 50.6875 18.703125 
L 17.828125 18.703125 
L 11.1875 0 
L 0.78125 0 
z
" id="DejaVuSans-65"/>
      <path d="M 48.78125 52.59375 
L 48.78125 44.1875 
Q 44.96875 46.296875 41.140625 47.34375 
Q 37.3125 48.390625 33.40625 48.390625 
Q 24.65625 48.390625 19.8125 42.84375 
Q 14.984375 37.3125 14.984375 27.296875 
Q 14.984375 17.28125 19.8125 11.734375 
Q 24.65625 6.203125 33.40625 6.203125 
Q 37.3125 6.203125 41.140625 7.25 
Q 44.96875 8.296875 48.78125 10.40625 
L 48.78125 2.09375 
Q 45.015625 0.34375 40.984375 -0.53125 
Q 36.96875 -1.421875 32.421875 -1.421875 
Q 20.0625 -1.421875 12.78125 6.34375 
Q 5.515625 14.109375 5.515625 27.296875 
Q 5.515625 40.671875 12.859375 48.328125 
Q 20.21875 56 33.015625 56 
Q 37.15625 56 41.109375 55.140625 
Q 45.0625 54.296875 48.78125 52.59375 
z
" id="DejaVuSans-99"/>
      <path d="M 18.3125 70.21875 
L 18.3125 54.6875 
L 36.8125 54.6875 
L 36.8125 47.703125 
L 18.3125 47.703125 
L 18.3125 18.015625 
Q 18.3125 11.328125 20.140625 9.421875 
Q 21.96875 7.515625 27.59375 7.515625 
L 36.8125 7.515625 
L 36.8125 0 
L 27.59375 0 
Q 17.1875 0 13.234375 3.875 
Q 9.28125 7.765625 9.28125 18.015625 
L 9.28125 47.703125 
L 2.6875 47.703125 
L 2.6875 54.6875 
L 9.28125 54.6875 
L 9.28125 70.21875 
z
" id="DejaVuSans-116"/>
      <path d="M 9.421875 54.6875 
L 18.40625 54.6875 
L 18.40625 0 
L 9.421875 0 
z
M 9.421875 75.984375 
L 18.40625 75.984375 
L 18.40625 64.59375 
L 9.421875 64.59375 
z
" id="DejaVuSans-105"/>
      <path d="M 2.984375 54.6875 
L 12.5 54.6875 
L 29.59375 8.796875 
L 46.6875 54.6875 
L 56.203125 54.6875 
L 35.6875 0 
L 23.484375 0 
z
" id="DejaVuSans-118"/>
      <path d="M 34.28125 27.484375 
Q 23.390625 27.484375 19.1875 25 
Q 14.984375 22.515625 14.984375 16.5 
Q 14.984375 11.71875 18.140625 8.90625 
Q 21.296875 6.109375 26.703125 6.109375 
Q 34.1875 6.109375 38.703125 11.40625 
Q 43.21875 16.703125 43.21875 25.484375 
L 43.21875 27.484375 
z
M 52.203125 31.203125 
L 52.203125 0 
L 43.21875 0 
L 43.21875 8.296875 
Q 40.140625 3.328125 35.546875 0.953125 
Q 30.953125 -1.421875 24.3125 -1.421875 
Q 15.921875 -1.421875 10.953125 3.296875 
Q 6 8.015625 6 15.921875 
Q 6 25.140625 12.171875 29.828125 
Q 18.359375 34.515625 30.609375 34.515625 
L 43.21875 34.515625 
L 43.21875 35.40625 
Q 43.21875 41.609375 39.140625 45 
Q 35.0625 48.390625 27.6875 48.390625 
Q 23 48.390625 18.546875 47.265625 
Q 14.109375 46.140625 10.015625 43.890625 
L 10.015625 52.203125 
Q 14.9375 54.109375 19.578125 55.046875 
Q 24.21875 56 28.609375 56 
Q 40.484375 56 46.34375 49.84375 
Q 52.203125 43.703125 52.203125 31.203125 
z
" id="DejaVuSans-97"/>
      <path d="M 30.609375 48.390625 
Q 23.390625 48.390625 19.1875 42.75 
Q 14.984375 37.109375 14.984375 27.296875 
Q 14.984375 17.484375 19.15625 11.84375 
Q 23.34375 6.203125 30.609375 6.203125 
Q 37.796875 6.203125 41.984375 11.859375 
Q 46.1875 17.53125 46.1875 27.296875 
Q 46.1875 37.015625 41.984375 42.703125 
Q 37.796875 48.390625 30.609375 48.390625 
z
M 30.609375 56 
Q 42.328125 56 49.015625 48.375 
Q 55.71875 40.765625 55.71875 27.296875 
Q 55.71875 13.875 49.015625 6.21875 
Q 42.328125 -1.421875 30.609375 -1.421875 
Q 18.84375 -1.421875 12.171875 6.21875 
Q 5.515625 13.875 5.515625 27.296875 
Q 5.515625 40.765625 12.171875 48.375 
Q 18.84375 56 30.609375 56 
z
" id="DejaVuSans-111"/>
      <path d="M 54.890625 33.015625 
L 54.890625 0 
L 45.90625 0 
L 45.90625 32.71875 
Q 45.90625 40.484375 42.875 44.328125 
Q 39.84375 48.1875 33.796875 48.1875 
Q 26.515625 48.1875 22.3125 43.546875 
Q 18.109375 38.921875 18.109375 30.90625 
L 18.109375 0 
L 9.078125 0 
L 9.078125 54.6875 
L 18.109375 54.6875 
L 18.109375 46.1875 
Q 21.34375 51.125 25.703125 53.5625 
Q 30.078125 56 35.796875 56 
Q 45.21875 56 50.046875 50.171875 
Q 54.890625 44.34375 54.890625 33.015625 
z
" id="DejaVuSans-110"/>
     </defs>
     <g transform="translate(-5.574125 313.1835)rotate(-90)scale(0.552 -0.552)">
      <use xlink:href="#DejaVuSans-65"/>
      <use x="68.392578" xlink:href="#DejaVuSans-99"/>
      <use x="123.373047" xlink:href="#DejaVuSans-116"/>
      <use x="162.582031" xlink:href="#DejaVuSans-105"/>
      <use x="190.365234" xlink:href="#DejaVuSans-118"/>
      <use x="249.544922" xlink:href="#DejaVuSans-97"/>
      <use x="310.824219" xlink:href="#DejaVuSans-116"/>
      <use x="350.033203" xlink:href="#DejaVuSans-105"/>
      <use x="377.816406" xlink:href="#DejaVuSans-111"/>
      <use x="438.998047" xlink:href="#DejaVuSans-110"/>
     </g>
    </g>
   </g>
   <g id="line2d_5">
    <path clip-path="url(#p42e9d131c0)" d="M 73.832727 268.457257 
L 90.065455 239.595905 
L 106.298182 229.590034 
L 122.530909 216.66775 
L 138.763636 201.55151 
L 154.996364 199.41655 
L 171.229091 202.525117 
L 187.461818 179.966332 
L 203.694545 172.468185 
L 219.927273 173.852398 
L 236.16 183.779428 
L 252.392727 183.455329 
L 268.625455 185.000203 
L 284.858182 222.359566 
L 301.090909 216.49699 
L 317.323636 245.524804 
L 333.556364 252.872729 
L 349.789091 260.53012 
L 366.021818 256.26679 
L 382.254545 261.649109 
L 398.487273 268.457257 
" style="fill:none;stroke:#0e4db3;stroke-linecap:square;stroke-width:3;"/>
   </g>
   <g id="line2d_6">
    <path clip-path="url(#p42e9d131c0)" d="M 73.832727 271.920663 
L 90.065455 248.283865 
L 106.298182 239.405118 
L 122.530909 229.852016 
L 138.763636 218.181448 
L 154.996364 216.923867 
L 171.229091 218.343179 
L 187.461818 198.336131 
L 203.694545 194.616133 
L 219.927273 193.555153 
L 236.16 198.665455 
L 252.392727 201.932585 
L 268.625455 202.628952 
L 284.858182 234.897103 
L 301.090909 229.080528 
L 317.323636 252.517939 
L 333.556364 258.159589 
L 349.789091 263.274842 
L 366.021818 261.086893 
L 382.254545 265.113621 
L 398.487273 271.920663 
" style="fill:none;stroke:#d44e4e;stroke-linecap:square;stroke-width:3;"/>
   </g>
   <g id="line2d_7">
    <path clip-path="url(#p42e9d131c0)" d="M 73.832727 170.178648 
L 90.065455 169.302984 
L 106.298182 177.070319 
L 122.530909 191.99994 
L 138.763636 194.659244 
L 154.996364 197.919354 
L 171.229091 197.711922 
L 187.461818 180.911129 
L 203.694545 175.345727 
L 219.927273 195.194348 
L 236.16 195.18115 
L 252.392727 192.209135 
L 268.625455 175.689686 
L 284.858182 187.62995 
L 301.090909 172.692991 
L 317.323636 177.890881 
L 333.556364 177.308902 
L 349.789091 158.088484 
L 366.021818 163.548773 
L 382.254545 158.381407 
L 398.487273 170.178648 
" style="fill:none;stroke:#0e4db3;stroke-linecap:square;stroke-width:3;"/>
   </g>
   <g id="line2d_8">
    <path clip-path="url(#p42e9d131c0)" d="M 73.832727 194.195402 
L 90.065455 183.725756 
L 106.298182 196.692203 
L 122.530909 211.24218 
L 138.763636 212.992785 
L 154.996364 215.903258 
L 171.229091 215.899606 
L 187.461818 202.932809 
L 203.694545 198.992476 
L 219.927273 214.180708 
L 236.16 214.126551 
L 252.392727 210.45705 
L 268.625455 198.350099 
L 284.858182 205.935015 
L 301.090909 196.375775 
L 317.323636 200.320341 
L 333.556364 199.685293 
L 349.789091 184.806699 
L 366.021818 187.546539 
L 382.254545 184.740901 
L 398.487273 194.195402 
" style="fill:none;stroke:#d44e4e;stroke-linecap:square;stroke-width:3;"/>
   </g>
   <g id="line2d_9">
    <path clip-path="url(#p42e9d131c0)" d="M 73.832727 168.609754 
L 90.065455 162.96754 
L 106.298182 162.922817 
L 122.530909 162.953787 
L 138.763636 150.605084 
L 154.996364 151.216515 
L 171.229091 150.11213 
L 187.461818 158.386132 
L 203.694545 148.381179 
L 219.927273 152.896066 
L 236.16 160.480625 
L 252.392727 160.612007 
L 268.625455 161.974026 
L 284.858182 170.22831 
L 301.090909 171.741984 
L 317.323636 172.396788 
L 333.556364 172.092153 
L 349.789091 173.051085 
L 366.021818 170.422282 
L 382.254545 169.036083 
L 398.487273 168.609754 
" style="fill:none;stroke:#0e4db3;stroke-linecap:square;stroke-width:3;"/>
   </g>
   <g id="line2d_10">
    <path clip-path="url(#p42e9d131c0)" d="M 73.832727 189.052129 
L 90.065455 184.989633 
L 106.298182 184.649176 
L 122.530909 184.279989 
L 138.763636 176.60164 
L 154.996364 176.475079 
L 171.229091 174.650782 
L 187.461818 180.919427 
L 203.694545 171.98052 
L 219.927273 176.277954 
L 236.16 182.456209 
L 252.392727 182.313233 
L 268.625455 183.547729 
L 284.858182 187.949642 
L 301.090909 189.064239 
L 317.323636 190.571766 
L 333.556364 191.336774 
L 349.789091 192.062634 
L 366.021818 189.904566 
L 382.254545 189.060292 
L 398.487273 189.052129 
" style="fill:none;stroke:#d44e4e;stroke-linecap:square;stroke-width:3;"/>
   </g>
   <g id="line2d_11">
    <path clip-path="url(#p42e9d131c0)" d="M 73.832727 153.199296 
L 90.065455 153.042067 
L 106.298182 153.561114 
L 122.530909 165.952038 
L 138.763636 167.216543 
L 154.996364 170.37852 
L 171.229091 167.61566 
L 187.461818 164.30734 
L 203.694545 155.581717 
L 219.927273 158.664793 
L 236.16 157.419871 
L 252.392727 151.874719 
L 268.625455 149.926298 
L 284.858182 150.033309 
L 301.090909 143.878766 
L 317.323636 142.924527 
L 333.556364 128.181341 
L 349.789091 141.732602 
L 366.021818 141.012841 
L 382.254545 147.498122 
L 398.487273 153.199296 
" style="fill:none;stroke:#0e4db3;stroke-linecap:square;stroke-width:3;"/>
   </g>
   <g id="line2d_12">
    <path clip-path="url(#p42e9d131c0)" d="M 73.832727 181.048149 
L 90.065455 181.042987 
L 106.298182 181.399913 
L 122.530909 190.627368 
L 138.763636 191.230827 
L 154.996364 192.757873 
L 171.229091 191.767884 
L 187.461818 187.567019 
L 203.694545 183.321002 
L 219.927273 184.981121 
L 236.16 185.224223 
L 252.392727 179.180884 
L 268.625455 176.453813 
L 284.858182 175.693744 
L 301.090909 172.269234 
L 317.323636 172.266804 
L 333.556364 162.468282 
L 349.789091 171.48146 
L 366.021818 170.39194 
L 382.254545 176.10316 
L 398.487273 181.048149 
" style="fill:none;stroke:#d44e4e;stroke-linecap:square;stroke-width:3;"/>
   </g>
   <g id="line2d_13">
    <path clip-path="url(#p42e9d131c0)" d="M 73.832727 242.990565 
L 90.065455 242.34207 
L 106.298182 242.925121 
L 122.530909 241.514277 
L 138.763636 225.208486 
L 154.996364 223.095078 
L 171.229091 209.918301 
L 187.461818 213.977509 
L 203.694545 194.006981 
L 219.927273 178.314439 
L 236.16 178.561766 
L 252.392727 161.789059 
L 268.625455 147.010727 
L 284.858182 154.903439 
L 301.090909 134.448962 
L 317.323636 146.335308 
L 333.556364 149.70659 
L 349.789091 204.589418 
L 366.021818 209.662319 
L 382.254545 209.101947 
L 398.487273 242.990565 
" style="fill:none;stroke:#0e4db3;stroke-linecap:square;stroke-width:3;"/>
   </g>
   <g id="line2d_14">
    <path clip-path="url(#p42e9d131c0)" d="M 73.832727 246.625286 
L 90.065455 245.677614 
L 106.298182 246.189181 
L 122.530909 245.573656 
L 138.763636 232.804365 
L 154.996364 231.204799 
L 171.229091 219.669123 
L 187.461818 222.777395 
L 203.694545 207.10801 
L 219.927273 195.634661 
L 236.16 195.666377 
L 252.392727 181.656007 
L 268.625455 169.955097 
L 284.858182 177.589691 
L 301.090909 160.681474 
L 317.323636 169.045962 
L 333.556364 172.321056 
L 349.789091 215.214832 
L 366.021818 219.451753 
L 382.254545 219.409567 
L 398.487273 246.625286 
" style="fill:none;stroke:#d44e4e;stroke-linecap:square;stroke-width:3;"/>
   </g>
   <g id="line2d_15">
    <path clip-path="url(#p42e9d131c0)" d="M 73.832727 285.408 
L 90.065455 285.408 
L 106.298182 285.408 
L 122.530909 285.408 
L 138.763636 285.408 
L 154.996364 285.408 
L 171.229091 285.408 
L 187.461818 285.408 
L 203.694545 285.408 
L 219.927273 285.408 
L 236.16 285.408 
L 252.392727 285.408 
L 268.625455 285.408 
L 284.858182 285.408 
L 301.090909 285.408 
L 317.323636 285.408 
L 333.556364 285.408 
L 349.789091 285.408 
L 366.021818 285.408 
L 382.254545 285.408 
L 398.487273 285.408 
" style="fill:none;stroke:#0e4db3;stroke-linecap:square;stroke-width:3;"/>
   </g>
   <g id="line2d_16">
    <path clip-path="url(#p42e9d131c0)" d="M 73.832727 285.408 
L 90.065455 285.408 
L 106.298182 285.408 
L 122.530909 285.408 
L 138.763636 285.408 
L 154.996364 285.408 
L 171.229091 285.408 
L 187.461818 285.408 
L 203.694545 285.408 
L 219.927273 285.408 
L 236.16 285.408 
L 252.392727 285.408 
L 268.625455 285.408 
L 284.858182 285.408 
L 301.090909 285.408 
L 317.323636 285.408 
L 333.556364 285.408 
L 349.789091 285.408 
L 366.021818 285.408 
L 382.254545 285.408 
L 398.487273 285.408 
" style="fill:none;stroke:#d44e4e;stroke-linecap:square;stroke-width:3;"/>
   </g>
   <g id="line2d_17">
    <path clip-path="url(#p42e9d131c0)" d="M 73.832727 285.408 
L 90.065455 284.812523 
L 106.298182 285.170788 
L 122.530909 284.952917 
L 138.763636 285.208377 
L 154.996364 285.408 
L 171.229091 285.408 
L 187.461818 285.408 
L 203.694545 285.408 
L 219.927273 285.408 
L 236.16 285.408 
L 252.392727 285.408 
L 268.625455 284.023234 
L 284.858182 285.408 
L 301.090909 285.408 
L 317.323636 285.408 
L 333.556364 285.408 
L 349.789091 285.408 
L 366.021818 285.408 
L 382.254545 285.408 
L 398.487273 285.408 
" style="fill:none;stroke:#0e4db3;stroke-linecap:square;stroke-width:3;"/>
   </g>
   <g id="line2d_18">
    <path clip-path="url(#p42e9d131c0)" d="M 73.832727 285.408 
L 90.065455 285.408 
L 106.298182 285.408 
L 122.530909 285.408 
L 138.763636 285.408 
L 154.996364 285.408 
L 171.229091 285.408 
L 187.461818 285.408 
L 203.694545 285.408 
L 219.927273 285.408 
L 236.16 285.408 
L 252.392727 285.408 
L 268.625455 285.408 
L 284.858182 285.408 
L 301.090909 285.408 
L 317.323636 285.408 
L 333.556364 285.408 
L 349.789091 285.408 
L 366.021818 285.408 
L 382.254545 285.408 
L 398.487273 285.408 
" style="fill:none;stroke:#d44e4e;stroke-linecap:square;stroke-width:3;"/>
   </g>
   <g id="line2d_19">
    <path clip-path="url(#p42e9d131c0)" d="M 73.832727 251.204375 
L 90.065455 240.415475 
L 106.298182 224.607775 
L 122.530909 223.085327 
L 138.763636 206.749725 
L 154.996364 203.435625 
L 171.229091 192.479776 
L 187.461818 193.851093 
L 203.694545 178.096319 
L 219.927273 178.897808 
L 236.16 216.297181 
L 252.392727 180.793501 
L 268.625455 198.360255 
L 284.858182 220.118235 
L 301.090909 215.858067 
L 317.323636 231.178102 
L 333.556364 233.068379 
L 349.789091 236.174091 
L 366.021818 237.225491 
L 382.254545 247.5313 
L 398.487273 251.204375 
" style="fill:none;stroke:#0e4db3;stroke-linecap:square;stroke-width:3;"/>
   </g>
   <g id="line2d_20">
    <path clip-path="url(#p42e9d131c0)" d="M 73.832727 251.858942 
L 90.065455 243.603105 
L 106.298182 230.795709 
L 122.530909 228.264714 
L 138.763636 216.105941 
L 154.996364 213.895797 
L 171.229091 204.901376 
L 187.461818 205.283332 
L 203.694545 193.475514 
L 219.927273 193.528741 
L 236.16 223.687443 
L 252.392727 195.277552 
L 268.625455 209.167849 
L 284.858182 227.466049 
L 301.090909 223.263317 
L 317.323636 235.47188 
L 333.556364 236.813748 
L 349.789091 238.066779 
L 366.021818 239.276599 
L 382.254545 248.268229 
L 398.487273 251.858942 
" style="fill:none;stroke:#d44e4e;stroke-linecap:square;stroke-width:3;"/>
   </g>
   <g id="line2d_21">
    <path clip-path="url(#p42e9d131c0)" d="M 73.832727 214.799509 
L 90.065455 209.910741 
L 106.298182 202.55615 
L 122.530909 199.584841 
L 138.763636 203.208294 
L 154.996364 203.406466 
L 171.229091 203.757008 
L 187.461818 211.424049 
L 203.694545 210.231624 
L 219.927273 214.09019 
L 236.16 217.483159 
L 252.392727 213.3314 
L 268.625455 212.448295 
L 284.858182 212.537995 
L 301.090909 212.706262 
L 317.323636 213.372057 
L 333.556364 197.902583 
L 349.789091 206.437673 
L 366.021818 203.771365 
L 382.254545 215.053164 
L 398.487273 214.799509 
" style="fill:none;stroke:#0e4db3;stroke-linecap:square;stroke-width:3;"/>
   </g>
   <g id="line2d_22">
    <path clip-path="url(#p42e9d131c0)" d="M 73.832727 229.8756 
L 90.065455 225.979497 
L 106.298182 220.299414 
L 122.530909 216.901299 
L 138.763636 222.207947 
L 154.996364 222.476476 
L 171.229091 222.360825 
L 187.461818 227.06966 
L 203.694545 224.656834 
L 219.927273 230.285135 
L 236.16 227.696473 
L 252.392727 228.119444 
L 268.625455 227.985783 
L 284.858182 228.903363 
L 301.090909 229.306748 
L 317.323636 229.166937 
L 333.556364 217.157361 
L 349.789091 219.77688 
L 366.021818 219.213015 
L 382.254545 229.877498 
L 398.487273 229.8756 
" style="fill:none;stroke:#d44e4e;stroke-linecap:square;stroke-width:3;"/>
   </g>
   <g id="line2d_23">
    <path clip-path="url(#p42e9d131c0)" d="M 73.832727 282.842256 
L 90.065455 255.788055 
L 106.298182 232.98068 
L 122.530909 234.43548 
L 138.763636 206.773349 
L 154.996364 204.691292 
L 171.229091 205.093934 
L 187.461818 207.578395 
L 203.694545 200.639365 
L 219.927273 200.627081 
L 236.16 210.522681 
L 252.392727 204.002905 
L 268.625455 212.469704 
L 284.858182 232.790401 
L 301.090909 224.61215 
L 317.323636 254.378279 
L 333.556364 254.850253 
L 349.789091 262.171213 
L 366.021818 276.492569 
L 382.254545 263.357999 
L 398.487273 282.842256 
" style="fill:none;stroke:#0e4db3;stroke-linecap:square;stroke-width:3;"/>
   </g>
   <g id="line2d_24">
    <path clip-path="url(#p42e9d131c0)" d="M 73.832727 284.74226 
L 90.065455 264.123483 
L 106.298182 245.742444 
L 122.530909 240.569754 
L 138.763636 225.755239 
L 154.996364 223.949238 
L 171.229091 224.010605 
L 187.461818 223.920683 
L 203.694545 219.132621 
L 219.927273 219.181704 
L 236.16 227.61363 
L 252.392727 221.653976 
L 268.625455 226.950563 
L 284.858182 246.024313 
L 301.090909 238.010557 
L 317.323636 260.81217 
L 333.556364 263.305261 
L 349.789091 269.822172 
L 366.021818 279.543505 
L 382.254545 269.851964 
L 398.487273 284.74226 
" style="fill:none;stroke:#d44e4e;stroke-linecap:square;stroke-width:3;"/>
   </g>
   <g id="line2d_25">
    <path clip-path="url(#p42e9d131c0)" d="M 73.832727 179.873622 
L 90.065455 179.237455 
L 106.298182 172.756685 
L 122.530909 183.070658 
L 138.763636 189.23943 
L 154.996364 211.028602 
L 171.229091 214.864298 
L 187.461818 211.348873 
L 203.694545 177.612101 
L 219.927273 154.519276 
L 236.16 156.310721 
L 252.392727 154.097441 
L 268.625455 177.493226 
L 284.858182 191.840543 
L 301.090909 172.310566 
L 317.323636 165.306699 
L 333.556364 163.51635 
L 349.789091 160.222515 
L 366.021818 152.044526 
L 382.254545 159.672578 
L 398.487273 179.873622 
" style="fill:none;stroke:#0e4db3;stroke-linecap:square;stroke-width:3;"/>
   </g>
   <g id="line2d_26">
    <path clip-path="url(#p42e9d131c0)" d="M 73.832727 194.922325 
L 90.065455 194.904958 
L 106.298182 189.664696 
L 122.530909 196.466801 
L 138.763636 203.427684 
L 154.996364 220.049784 
L 171.229091 222.94008 
L 187.461818 218.529179 
L 203.694545 191.856639 
L 219.927273 175.13188 
L 236.16 176.355354 
L 252.392727 174.643166 
L 268.625455 192.913014 
L 284.858182 204.485893 
L 301.090909 188.622178 
L 317.323636 183.269981 
L 333.556364 182.069949 
L 349.789091 179.56249 
L 366.021818 172.364104 
L 382.254545 178.856976 
L 398.487273 194.922325 
" style="fill:none;stroke:#d44e4e;stroke-linecap:square;stroke-width:3;"/>
   </g>
   <g id="line2d_27">
    <path clip-path="url(#p42e9d131c0)" d="M 73.832727 176.494454 
L 90.065455 175.787899 
L 106.298182 187.175589 
L 122.530909 190.358069 
L 138.763636 212.970455 
L 154.996364 228.468318 
L 171.229091 212.638098 
L 187.461818 192.332155 
L 203.694545 183.949577 
L 219.927273 205.231216 
L 236.16 202.688453 
L 252.392727 202.774722 
L 268.625455 214.926714 
L 284.858182 224.040376 
L 301.090909 209.388128 
L 317.323636 206.711244 
L 333.556364 192.784999 
L 349.789091 192.20869 
L 366.021818 184.197658 
L 382.254545 176.939596 
L 398.487273 176.494454 
" style="fill:none;stroke:#0e4db3;stroke-linecap:square;stroke-width:3;"/>
   </g>
   <g id="line2d_28">
    <path clip-path="url(#p42e9d131c0)" d="M 73.832727 193.633624 
L 90.065455 190.645418 
L 106.298182 202.277488 
L 122.530909 198.187621 
L 138.763636 222.619602 
L 154.996364 234.643646 
L 171.229091 221.531718 
L 187.461818 204.704275 
L 203.694545 198.238752 
L 219.927273 216.048386 
L 236.16 214.023121 
L 252.392727 213.642253 
L 268.625455 223.898869 
L 284.858182 230.343857 
L 301.090909 220.086479 
L 317.323636 216.374573 
L 333.556364 206.548639 
L 349.789091 204.146564 
L 366.021818 198.590945 
L 382.254545 190.599535 
L 398.487273 193.633624 
" style="fill:none;stroke:#d44e4e;stroke-linecap:square;stroke-width:3;"/>
   </g>
   <g id="line2d_29">
    <path clip-path="url(#p42e9d131c0)" d="M 73.832727 124.581489 
L 90.065455 124.352299 
L 106.298182 120.747047 
L 122.530909 122.920433 
L 138.763636 122.695754 
L 154.996364 122.811659 
L 171.229091 120.629935 
L 187.461818 122.257116 
L 203.694545 114.780687 
L 219.927273 118.121286 
L 236.16 118.769166 
L 252.392727 118.628962 
L 268.625455 121.333862 
L 284.858182 123.40184 
L 301.090909 121.633265 
L 317.323636 122.498486 
L 333.556364 121.884943 
L 349.789091 123.697924 
L 366.021818 121.086567 
L 382.254545 122.710635 
L 398.487273 124.581489 
" style="fill:none;stroke:#0e4db3;stroke-linecap:square;stroke-width:3;"/>
   </g>
   <g id="line2d_30">
    <path clip-path="url(#p42e9d131c0)" d="M 73.832727 150.442884 
L 90.065455 149.325714 
L 106.298182 146.993368 
L 122.530909 148.426759 
L 138.763636 148.390946 
L 154.996364 148.455553 
L 171.229091 146.763718 
L 187.461818 148.322924 
L 203.694545 142.195412 
L 219.927273 145.235751 
L 236.16 145.567584 
L 252.392727 145.497037 
L 268.625455 145.523083 
L 284.858182 148.150131 
L 301.090909 146.681006 
L 317.323636 147.828891 
L 333.556364 147.659845 
L 349.789091 149.247718 
L 366.021818 147.162381 
L 382.254545 148.76323 
L 398.487273 150.442884 
" style="fill:none;stroke:#d44e4e;stroke-linecap:square;stroke-width:3;"/>
   </g>
   <g id="line2d_31">
    <path clip-path="url(#p42e9d131c0)" d="M 73.832727 207.472273 
L 90.065455 193.255162 
L 106.298182 193.131769 
L 122.530909 201.78683 
L 138.763636 202.981963 
L 154.996364 199.594632 
L 171.229091 199.404059 
L 187.461818 198.918316 
L 203.694545 210.114814 
L 219.927273 209.816928 
L 236.16 212.405954 
L 252.392727 228.611147 
L 268.625455 245.917568 
L 284.858182 252.4501 
L 301.090909 252.629187 
L 317.323636 250.034224 
L 333.556364 247.216667 
L 349.789091 242.843929 
L 366.021818 224.883307 
L 382.254545 207.594333 
L 398.487273 207.472273 
" style="fill:none;stroke:#0e4db3;stroke-linecap:square;stroke-width:3;"/>
   </g>
   <g id="line2d_32">
    <path clip-path="url(#p42e9d131c0)" d="M 73.832727 218.467843 
L 90.065455 207.070473 
L 106.298182 207.517298 
L 122.530909 210.550172 
L 138.763636 215.095314 
L 154.996364 212.138506 
L 171.229091 211.789981 
L 187.461818 211.059635 
L 203.694545 220.04529 
L 219.927273 220.064082 
L 236.16 222.42737 
L 252.392727 235.239315 
L 268.625455 249.127178 
L 284.858182 253.936753 
L 301.090909 254.009056 
L 317.323636 251.779156 
L 333.556364 249.796419 
L 349.789091 246.069465 
L 366.021818 231.417301 
L 382.254545 217.272607 
L 398.487273 218.467843 
" style="fill:none;stroke:#d44e4e;stroke-linecap:square;stroke-width:3;"/>
   </g>
   <g id="line2d_33">
    <path clip-path="url(#p42e9d131c0)" d="M 73.832727 77.705222 
L 90.065455 77.676603 
L 106.298182 77.282195 
L 122.530909 81.887617 
L 138.763636 80.485528 
L 154.996364 81.234114 
L 171.229091 81.537297 
L 187.461818 82.992033 
L 203.694545 78.018346 
L 219.927273 81.13768 
L 236.16 81.319685 
L 252.392727 80.486243 
L 268.625455 80.789012 
L 284.858182 86.299534 
L 301.090909 81.926177 
L 317.323636 81.682043 
L 333.556364 80.459085 
L 349.789091 80.579834 
L 366.021818 77.392621 
L 382.254545 77.672759 
L 398.487273 77.705222 
" style="fill:none;stroke:#0e4db3;stroke-linecap:square;stroke-width:3;"/>
   </g>
   <g id="line2d_34">
    <path clip-path="url(#p42e9d131c0)" d="M 73.832727 116.547833 
L 90.065455 116.542894 
L 106.298182 116.121186 
L 122.530909 119.387506 
L 138.763636 117.753401 
L 154.996364 119.212171 
L 171.229091 118.791655 
L 187.461818 120.929528 
L 203.694545 116.346405 
L 219.927273 119.48467 
L 236.16 119.817679 
L 252.392727 118.739531 
L 268.625455 116.981739 
L 284.858182 119.892641 
L 301.090909 118.374981 
L 317.323636 118.38073 
L 333.556364 117.875595 
L 349.789091 118.443622 
L 366.021818 115.706831 
L 382.254545 116.301714 
L 398.487273 116.547833 
" style="fill:none;stroke:#d44e4e;stroke-linecap:square;stroke-width:3;"/>
   </g>
   <g id="line2d_35">
    <path clip-path="url(#p42e9d131c0)" d="M 73.832727 285.408 
L 90.065455 285.408 
L 106.298182 285.408 
L 122.530909 285.408 
L 138.763636 285.408 
L 154.996364 285.408 
L 171.229091 285.408 
L 187.461818 285.408 
L 203.694545 285.408 
L 219.927273 285.408 
L 236.16 285.408 
L 252.392727 285.408 
L 268.625455 282.389345 
L 284.858182 284.544324 
L 301.090909 285.408 
L 317.323636 285.408 
L 333.556364 285.408 
L 349.789091 285.408 
L 366.021818 285.408 
L 382.254545 285.408 
L 398.487273 285.408 
" style="fill:none;stroke:#0e4db3;stroke-linecap:square;stroke-width:3;"/>
   </g>
   <g id="line2d_36">
    <path clip-path="url(#p42e9d131c0)" d="M 73.832727 285.408 
L 90.065455 285.408 
L 106.298182 285.408 
L 122.530909 285.408 
L 138.763636 285.408 
L 154.996364 285.408 
L 171.229091 285.408 
L 187.461818 285.408 
L 203.694545 285.408 
L 219.927273 285.408 
L 236.16 285.408 
L 252.392727 285.408 
L 268.625455 285.408 
L 284.858182 285.408 
L 301.090909 285.408 
L 317.323636 285.408 
L 333.556364 285.408 
L 349.789091 285.408 
L 366.021818 285.408 
L 382.254545 285.408 
L 398.487273 285.408 
" style="fill:none;stroke:#d44e4e;stroke-linecap:square;stroke-width:3;"/>
   </g>
   <g id="line2d_37">
    <path clip-path="url(#p42e9d131c0)" d="M 73.832727 204.339043 
L 90.065455 144.905188 
L 106.298182 159.124086 
L 122.530909 175.204745 
L 138.763636 178.269311 
L 154.996364 220.957958 
L 171.229091 235.106548 
L 187.461818 234.781274 
L 203.694545 191.233376 
L 219.927273 151.324813 
L 236.16 153.560233 
L 252.392727 149.956854 
L 268.625455 172.513067 
L 284.858182 197.480398 
L 301.090909 173.793016 
L 317.323636 163.145122 
L 333.556364 160.727618 
L 349.789091 169.694549 
L 366.021818 137.350177 
L 382.254545 166.024324 
L 398.487273 204.339043 
" style="fill:none;stroke:#0e4db3;stroke-linecap:square;stroke-width:3;"/>
   </g>
   <g id="line2d_38">
    <path clip-path="url(#p42e9d131c0)" d="M 73.832727 221.541982 
L 90.065455 173.421662 
L 106.298182 182.227249 
L 122.530909 197.211981 
L 138.763636 201.301341 
L 154.996364 235.758478 
L 171.229091 247.097057 
L 187.461818 242.5459 
L 203.694545 208.352202 
L 219.927273 179.265811 
L 236.16 180.931346 
L 252.392727 178.037263 
L 268.625455 195.529437 
L 284.858182 215.721905 
L 301.090909 196.504084 
L 317.323636 188.070113 
L 333.556364 186.402545 
L 349.789091 191.534383 
L 366.021818 167.006269 
L 382.254545 189.948963 
L 398.487273 221.541982 
" style="fill:none;stroke:#d44e4e;stroke-linecap:square;stroke-width:3;"/>
   </g>
   <g id="line2d_39">
    <path clip-path="url(#p42e9d131c0)" d="M 73.832727 250.563352 
L 90.065455 222.838739 
L 106.298182 232.265843 
L 122.530909 231.510292 
L 138.763636 238.006206 
L 154.996364 241.149291 
L 171.229091 248.862405 
L 187.461818 256.567316 
L 203.694545 253.174268 
L 219.927273 238.90115 
L 236.16 240.034289 
L 252.392727 239.645194 
L 268.625455 244.491391 
L 284.858182 231.753251 
L 301.090909 241.993287 
L 317.323636 256.594919 
L 333.556364 256.716942 
L 349.789091 249.220531 
L 366.021818 244.046209 
L 382.254545 243.326512 
L 398.487273 250.563352 
" style="fill:none;stroke:#0e4db3;stroke-linecap:square;stroke-width:3;"/>
   </g>
   <g id="line2d_40">
    <path clip-path="url(#p42e9d131c0)" d="M 73.832727 259.414707 
L 90.065455 232.691696 
L 106.298182 240.451487 
L 122.530909 243.146469 
L 138.763636 249.069876 
L 154.996364 251.965731 
L 171.229091 257.095059 
L 187.461818 263.793083 
L 203.694545 260.327916 
L 219.927273 249.824069 
L 236.16 250.660807 
L 252.392727 250.356429 
L 268.625455 253.876924 
L 284.858182 243.701913 
L 301.090909 252.290782 
L 317.323636 263.138408 
L 333.556364 263.530707 
L 349.789091 257.597859 
L 366.021818 253.174959 
L 382.254545 252.893403 
L 398.487273 259.414707 
" style="fill:none;stroke:#d44e4e;stroke-linecap:square;stroke-width:3;"/>
   </g>
   <g id="line2d_41">
    <path clip-path="url(#p42e9d131c0)" d="M 73.832727 246.108228 
L 90.065455 227.335942 
L 106.298182 203.10507 
L 122.530909 194.30439 
L 138.763636 181.852186 
L 154.996364 176.922269 
L 171.229091 189.789566 
L 187.461818 207.235302 
L 203.694545 210.556366 
L 219.927273 188.909829 
L 236.16 188.779424 
L 252.392727 199.071067 
L 268.625455 194.147463 
L 284.858182 211.016238 
L 301.090909 217.930683 
L 317.323636 260.755411 
L 333.556364 258.638946 
L 349.789091 260.478102 
L 366.021818 241.32852 
L 382.254545 246.309478 
L 398.487273 246.108228 
" style="fill:none;stroke:#0e4db3;stroke-linecap:square;stroke-width:3;"/>
   </g>
   <g id="line2d_42">
    <path clip-path="url(#p42e9d131c0)" d="M 73.832727 253.599117 
L 90.065455 238.94091 
L 106.298182 207.754802 
L 122.530909 209.879375 
L 138.763636 203.58377 
L 154.996364 199.475686 
L 171.229091 209.427555 
L 187.461818 220.479533 
L 203.694545 224.855455 
L 219.927273 208.351026 
L 236.16 208.345007 
L 252.392727 215.91563 
L 268.625455 211.7923 
L 284.858182 224.434588 
L 301.090909 229.199498 
L 317.323636 266.38691 
L 333.556364 264.082228 
L 349.789091 263.558609 
L 366.021818 246.986767 
L 382.254545 252.447289 
L 398.487273 253.599117 
" style="fill:none;stroke:#d44e4e;stroke-linecap:square;stroke-width:3;"/>
   </g>
   <g id="line2d_43">
    <path clip-path="url(#p42e9d131c0)" d="M 73.832727 208.031216 
L 90.065455 207.44298 
L 106.298182 207.215116 
L 122.530909 214.744232 
L 138.763636 207.377872 
L 154.996364 224.733709 
L 171.229091 226.395027 
L 187.461818 226.736938 
L 203.694545 225.573441 
L 219.927273 224.916572 
L 236.16 224.384692 
L 252.392727 215.761204 
L 268.625455 211.31256 
L 284.858182 218.31576 
L 301.090909 206.97882 
L 317.323636 207.254249 
L 333.556364 207.306436 
L 349.789091 209.136292 
L 366.021818 201.765588 
L 382.254545 207.534419 
L 398.487273 208.031216 
" style="fill:none;stroke:#0e4db3;stroke-linecap:square;stroke-width:3;"/>
   </g>
   <g id="line2d_44">
    <path clip-path="url(#p42e9d131c0)" d="M 73.832727 219.555838 
L 90.065455 215.121495 
L 106.298182 214.845486 
L 122.530909 217.607322 
L 138.763636 219.455323 
L 154.996364 232.892036 
L 171.229091 233.8822 
L 187.461818 234.148235 
L 203.694545 234.012259 
L 219.927273 233.566606 
L 236.16 233.628163 
L 252.392727 224.980226 
L 268.625455 222.060509 
L 284.858182 227.161782 
L 301.090909 218.589458 
L 317.323636 218.613407 
L 333.556364 218.623135 
L 349.789091 220.552227 
L 366.021818 213.803318 
L 382.254545 218.78817 
L 398.487273 219.555838 
" style="fill:none;stroke:#d44e4e;stroke-linecap:square;stroke-width:3;"/>
   </g>
   <g id="line2d_45">
    <path clip-path="url(#p42e9d131c0)" d="M 73.832727 285.408 
L 90.065455 285.408 
L 106.298182 285.408 
L 122.530909 285.408 
L 138.763636 285.408 
L 154.996364 285.408 
L 171.229091 285.408 
L 187.461818 285.408 
L 203.694545 285.408 
L 219.927273 285.408 
L 236.16 285.408 
L 252.392727 285.408 
L 268.625455 285.408 
L 284.858182 285.408 
L 301.090909 285.408 
L 317.323636 285.408 
L 333.556364 285.408 
L 349.789091 285.408 
L 366.021818 285.408 
L 382.254545 285.408 
L 398.487273 285.408 
" style="fill:none;stroke:#0e4db3;stroke-linecap:square;stroke-width:3;"/>
   </g>
   <g id="line2d_46">
    <path clip-path="url(#p42e9d131c0)" d="M 73.832727 285.408 
L 90.065455 285.408 
L 106.298182 285.408 
L 122.530909 285.408 
L 138.763636 285.408 
L 154.996364 285.408 
L 171.229091 285.408 
L 187.461818 285.408 
L 203.694545 285.408 
L 219.927273 285.408 
L 236.16 285.408 
L 252.392727 285.408 
L 268.625455 285.408 
L 284.858182 285.408 
L 301.090909 285.408 
L 317.323636 285.408 
L 333.556364 285.408 
L 349.789091 285.408 
L 366.021818 285.408 
L 382.254545 285.408 
L 398.487273 285.408 
" style="fill:none;stroke:#d44e4e;stroke-linecap:square;stroke-width:3;"/>
   </g>
   <g id="line2d_47">
    <path clip-path="url(#p42e9d131c0)" d="M 73.832727 182.573424 
L 90.065455 88.612759 
L 106.298182 91.188366 
L 122.530909 83.678236 
L 138.763636 48.030762 
L 154.996364 75.225001 
L 171.229091 136.468358 
L 187.461818 228.902589 
L 203.694545 185.063237 
L 219.927273 146.529922 
L 236.16 140.939531 
L 252.392727 101.205874 
L 268.625455 69.473298 
L 284.858182 50.681998 
L 301.090909 82.241891 
L 317.323636 145.524258 
L 333.556364 248.956945 
L 349.789091 285.408 
L 366.021818 254.40854 
L 382.254545 177.105108 
L 398.487273 182.573424 
" style="fill:none;stroke:#0e4db3;stroke-linecap:square;stroke-width:3;"/>
   </g>
   <g id="line2d_48">
    <path clip-path="url(#p42e9d131c0)" d="M 73.832727 285.408 
L 90.065455 207.638111 
L 106.298182 214.741223 
L 122.530909 190.158888 
L 138.763636 249.720754 
L 154.996364 278.157115 
L 171.229091 285.408 
L 187.461818 285.408 
L 203.694545 285.408 
L 219.927273 285.408 
L 236.16 283.1497 
L 252.392727 250.35328 
L 268.625455 230.142358 
L 284.858182 234.235025 
L 301.090909 253.381312 
L 317.323636 285.408 
L 333.556364 285.408 
L 349.789091 285.408 
L 366.021818 285.408 
L 382.254545 285.408 
L 398.487273 285.408 
" style="fill:none;stroke:#d44e4e;stroke-linecap:square;stroke-width:3;"/>
   </g>
   <g id="line2d_49">
    <path clip-path="url(#p42e9d131c0)" d="M 73.832727 285.408 
L 90.065455 285.408 
L 106.298182 285.408 
L 122.530909 285.408 
L 138.763636 285.408 
L 154.996364 285.408 
L 171.229091 285.408 
L 187.461818 285.408 
L 203.694545 285.408 
L 219.927273 285.408 
L 236.16 285.408 
L 252.392727 285.408 
L 268.625455 285.408 
L 284.858182 285.408 
L 301.090909 285.408 
L 317.323636 285.408 
L 333.556364 285.408 
L 349.789091 285.408 
L 366.021818 285.408 
L 382.254545 285.408 
L 398.487273 285.408 
" style="fill:none;stroke:#0e4db3;stroke-linecap:square;stroke-width:3;"/>
   </g>
   <g id="line2d_50">
    <path clip-path="url(#p42e9d131c0)" d="M 73.832727 285.408 
L 90.065455 285.408 
L 106.298182 285.408 
L 122.530909 285.408 
L 138.763636 285.408 
L 154.996364 285.408 
L 171.229091 285.408 
L 187.461818 285.408 
L 203.694545 285.408 
L 219.927273 285.408 
L 236.16 285.408 
L 252.392727 285.408 
L 268.625455 285.408 
L 284.858182 285.408 
L 301.090909 285.408 
L 317.323636 285.408 
L 333.556364 285.408 
L 349.789091 285.408 
L 366.021818 285.408 
L 382.254545 285.408 
L 398.487273 285.408 
" style="fill:none;stroke:#d44e4e;stroke-linecap:square;stroke-width:3;"/>
   </g>
   <g id="line2d_51">
    <path clip-path="url(#p42e9d131c0)" d="M 73.832727 285.408 
L 90.065455 285.408 
L 106.298182 285.408 
L 122.530909 285.408 
L 138.763636 285.408 
L 154.996364 285.408 
L 171.229091 285.408 
L 187.461818 285.408 
L 203.694545 285.408 
L 219.927273 285.408 
L 236.16 285.408 
L 252.392727 285.408 
L 268.625455 285.408 
L 284.858182 285.408 
L 301.090909 285.408 
L 317.323636 285.408 
L 333.556364 285.408 
L 349.789091 285.408 
L 366.021818 285.408 
L 382.254545 285.408 
L 398.487273 285.408 
" style="fill:none;stroke:#0e4db3;stroke-linecap:square;stroke-width:3;"/>
   </g>
   <g id="line2d_52">
    <path clip-path="url(#p42e9d131c0)" d="M 73.832727 285.408 
L 90.065455 285.408 
L 106.298182 285.408 
L 122.530909 285.408 
L 138.763636 285.408 
L 154.996364 285.408 
L 171.229091 285.408 
L 187.461818 285.408 
L 203.694545 285.408 
L 219.927273 285.408 
L 236.16 285.408 
L 252.392727 285.408 
L 268.625455 285.408 
L 284.858182 285.408 
L 301.090909 285.408 
L 317.323636 285.408 
L 333.556364 285.408 
L 349.789091 285.408 
L 366.021818 285.408 
L 382.254545 285.408 
L 398.487273 285.408 
" style="fill:none;stroke:#d44e4e;stroke-linecap:square;stroke-width:3;"/>
   </g>
   <g id="line2d_53">
    <path clip-path="url(#p42e9d131c0)" d="M 83.50006 -1 
L 90.065455 42.849071 
L 106.298182 147.289705 
L 122.530909 162.597003 
L 138.763636 156.654712 
L 154.996364 160.381078 
L 171.229091 153.393038 
L 187.461818 171.582237 
L 203.694545 188.989166 
L 219.927273 123.191884 
L 236.16 106.600538 
L 252.392727 86.99263 
L 268.625455 134.658268 
L 284.858182 83.835259 
L 301.090909 10.643966 
L 303.149971 -1 
" style="fill:none;stroke:#0e4db3;stroke-linecap:square;stroke-width:3;"/>
   </g>
   <g id="line2d_54">
    <path clip-path="url(#p42e9d131c0)" d="M 73.832727 285.408 
L 90.065455 285.408 
L 106.298182 285.408 
L 122.530909 285.408 
L 138.763636 285.408 
L 154.996364 285.408 
L 171.229091 285.408 
L 187.461818 285.408 
L 203.694545 285.408 
L 219.927273 285.408 
L 236.16 285.408 
L 252.392727 285.408 
L 268.625455 285.408 
L 284.858182 285.408 
L 301.090909 285.408 
L 317.323636 189.373758 
L 333.556364 235.687998 
L 349.789091 192.809195 
L 366.021818 184.399563 
L 382.254545 224.035413 
L 398.487273 285.408 
" style="fill:none;stroke:#d44e4e;stroke-linecap:square;stroke-width:3;"/>
   </g>
   <g id="line2d_55">
    <path clip-path="url(#p42e9d131c0)" d="M 73.832727 285.408 
L 90.065455 285.408 
L 106.298182 285.408 
L 122.530909 285.408 
L 138.763636 285.408 
L 154.996364 285.408 
L 171.229091 285.408 
L 187.461818 285.408 
L 203.694545 285.408 
L 219.927273 285.408 
L 236.16 285.408 
L 252.392727 285.408 
L 268.625455 285.408 
L 284.858182 285.408 
L 301.090909 285.408 
L 317.323636 285.408 
L 333.556364 285.408 
L 349.789091 285.408 
L 366.021818 285.408 
L 382.254545 285.408 
L 398.487273 285.408 
" style="fill:none;stroke:#0e4db3;stroke-linecap:square;stroke-width:3;"/>
   </g>
   <g id="line2d_56">
    <path clip-path="url(#p42e9d131c0)" d="M 73.832727 285.408 
L 90.065455 285.408 
L 106.298182 285.408 
L 122.530909 285.408 
L 138.763636 285.408 
L 154.996364 285.408 
L 171.229091 285.408 
L 187.461818 285.408 
L 203.694545 285.408 
L 219.927273 285.408 
L 236.16 285.408 
L 252.392727 285.408 
L 268.625455 285.408 
L 284.858182 285.408 
L 301.090909 285.408 
L 317.323636 285.408 
L 333.556364 285.408 
L 349.789091 285.408 
L 366.021818 285.408 
L 382.254545 285.408 
L 398.487273 285.408 
" style="fill:none;stroke:#d44e4e;stroke-linecap:square;stroke-width:3;"/>
   </g>
   <g id="line2d_57">
    <path clip-path="url(#p42e9d131c0)" d="M 73.832727 285.408 
L 90.065455 285.408 
L 106.298182 285.408 
L 122.530909 285.408 
L 138.763636 285.408 
L 154.996364 285.408 
L 171.229091 285.408 
L 187.461818 285.408 
L 203.694545 285.408 
L 219.927273 285.408 
L 236.16 285.408 
L 252.392727 285.408 
L 268.625455 285.408 
L 284.858182 285.408 
L 301.090909 285.408 
L 317.323636 285.408 
L 333.556364 285.408 
L 349.789091 285.408 
L 366.021818 285.408 
L 382.254545 285.408 
L 398.487273 285.408 
" style="fill:none;stroke:#0e4db3;stroke-linecap:square;stroke-width:3;"/>
   </g>
   <g id="line2d_58">
    <path clip-path="url(#p42e9d131c0)" d="M 73.832727 285.408 
L 90.065455 285.408 
L 106.298182 285.408 
L 122.530909 285.408 
L 138.763636 285.408 
L 154.996364 285.408 
L 171.229091 285.408 
L 187.461818 285.408 
L 203.694545 285.408 
L 219.927273 285.408 
L 236.16 285.408 
L 252.392727 285.408 
L 268.625455 285.408 
L 284.858182 285.408 
L 301.090909 285.408 
L 317.323636 285.408 
L 333.556364 285.408 
L 349.789091 285.408 
L 366.021818 285.408 
L 382.254545 285.408 
L 398.487273 285.408 
" style="fill:none;stroke:#d44e4e;stroke-linecap:square;stroke-width:3;"/>
   </g>
   <g id="line2d_59">
    <path clip-path="url(#p42e9d131c0)" d="M 73.832727 241.162469 
L 90.065455 241.313933 
L 106.298182 250.031207 
L 122.530909 261.795358 
L 138.763636 261.669634 
L 154.996364 263.674772 
L 171.229091 249.298439 
L 187.461818 215.140267 
L 203.694545 143.830025 
L 219.927273 93.2134 
L 236.16 156.482014 
L 252.392727 63.648 
L 268.625455 75.409038 
L 284.858182 79.598294 
L 301.090909 80.499107 
L 317.323636 110.456961 
L 333.556364 129.309438 
L 349.789091 162.953588 
L 366.021818 180.526251 
L 382.254545 210.648385 
L 398.487273 241.162469 
" style="fill:none;stroke:#0e4db3;stroke-linecap:square;stroke-width:3;"/>
   </g>
   <g id="line2d_60">
    <path clip-path="url(#p42e9d131c0)" d="M 73.832727 283.254595 
L 90.065455 269.495717 
L 106.298182 282.167906 
L 122.530909 275.264275 
L 138.763636 274.586502 
L 154.996364 275.547461 
L 171.229091 283.392308 
L 187.461818 283.855511 
L 203.694545 283.602259 
L 219.927273 222.340064 
L 236.16 282.45265 
L 252.392727 196.195025 
L 268.625455 213.535266 
L 284.858182 233.417591 
L 301.090909 243.635765 
L 317.323636 231.481928 
L 333.556364 248.217789 
L 349.789091 236.159635 
L 366.021818 248.914108 
L 382.254545 256.723325 
L 398.487273 283.254595 
" style="fill:none;stroke:#d44e4e;stroke-linecap:square;stroke-width:3;"/>
   </g>
   <g id="patch_3">
    <path d="M 57.6 307.584 
L 57.6 41.472 
" style="fill:none;stroke:#000000;stroke-linecap:square;stroke-linejoin:miter;stroke-width:2.5;"/>
   </g>
   <g id="patch_4">
    <path d="M 414.72 307.584 
L 414.72 41.472 
" style="fill:none;stroke:#000000;stroke-linecap:square;stroke-linejoin:miter;stroke-width:2.5;"/>
   </g>
   <g id="patch_5">
    <path d="M 57.6 307.584 
L 414.72 307.584 
" style="fill:none;stroke:#000000;stroke-linecap:square;stroke-linejoin:miter;stroke-width:2.5;"/>
   </g>
   <g id="patch_6">
    <path d="M 57.6 41.472 
L 414.72 41.472 
" style="fill:none;stroke:#000000;stroke-linecap:square;stroke-linejoin:miter;stroke-width:2.5;"/>
   </g>
  </g>
 </g>
 <defs>
  <clipPath id="p42e9d131c0">
   <rect height="266.112" width="357.12" x="57.6" y="41.472"/>
  </clipPath>
 </defs>
</svg>
