<?xml version="1.0" encoding="utf-8" standalone="no"?>
<!DOCTYPE svg PUBLIC "-//W3C//DTD SVG 1.1//EN"
  "http://www.w3.org/Graphics/SVG/1.1/DTD/svg11.dtd">
<!-- Created with matplotlib (https://matplotlib.org/) -->
<svg height="345.6pt" version="1.1" viewBox="0 0 460.8 345.6" width="460.8pt" xmlns="http://www.w3.org/2000/svg" xmlns:xlink="http://www.w3.org/1999/xlink">
 <defs>
  <style type="text/css">
*{stroke-linecap:butt;stroke-linejoin:round;}
  </style>
 </defs>
 <g id="figure_1">
  <g id="patch_1">
   <path d="M 0 345.6 
L 460.8 345.6 
L 460.8 0 
L 0 0 
z
" style="fill:#ffffff;"/>
  </g>
  <g id="axes_1">
   <g id="patch_2">
    <path d="M 57.6 307.584 
L 414.72 307.584 
L 414.72 41.472 
L 57.6 41.472 
z
" style="fill:#ffffff;"/>
   </g>
   <g id="matplotlib.axis_1">
    <g id="xtick_1">
     <g id="line2d_1">
      <defs>
       <path d="M 0 0 
L 0 12 
" id="m544e44bd43" style="stroke:#000000;stroke-width:2.5;"/>
      </defs>
      <g>
       <use style="stroke:#000000;stroke-width:2.5;" x="73.832727" xlink:href="#m544e44bd43" y="307.584"/>
      </g>
     </g>
     <g id="text_1">
      <!-- 0 -->
      <defs>
       <path d="M 31.78125 66.40625 
Q 24.171875 66.40625 20.328125 58.90625 
Q 16.5 51.421875 16.5 36.375 
Q 16.5 21.390625 20.328125 13.890625 
Q 24.171875 6.390625 31.78125 6.390625 
Q 39.453125 6.390625 43.28125 13.890625 
Q 47.125 21.390625 47.125 36.375 
Q 47.125 51.421875 43.28125 58.90625 
Q 39.453125 66.40625 31.78125 66.40625 
z
M 31.78125 74.21875 
Q 44.046875 74.21875 50.515625 64.515625 
Q 56.984375 54.828125 56.984375 36.375 
Q 56.984375 17.96875 50.515625 8.265625 
Q 44.046875 -1.421875 31.78125 -1.421875 
Q 19.53125 -1.421875 13.0625 8.265625 
Q 6.59375 17.96875 6.59375 36.375 
Q 6.59375 54.828125 13.0625 64.515625 
Q 19.53125 74.21875 31.78125 74.21875 
z
" id="DejaVuSans-48"/>
      </defs>
      <g transform="translate(66.833977 339.800562)scale(0.22 -0.22)">
       <use xlink:href="#DejaVuSans-48"/>
      </g>
     </g>
    </g>
    <g id="xtick_2">
     <g id="line2d_2">
      <g>
       <use style="stroke:#000000;stroke-width:2.5;" x="164.014545" xlink:href="#m544e44bd43" y="307.584"/>
      </g>
     </g>
     <g id="text_2">
      <!-- 50 -->
      <defs>
       <path d="M 10.796875 72.90625 
L 49.515625 72.90625 
L 49.515625 64.59375 
L 19.828125 64.59375 
L 19.828125 46.734375 
Q 21.96875 47.46875 24.109375 47.828125 
Q 26.265625 48.1875 28.421875 48.1875 
Q 40.625 48.1875 47.75 41.5 
Q 54.890625 34.8125 54.890625 23.390625 
Q 54.890625 11.625 47.5625 5.09375 
Q 40.234375 -1.421875 26.90625 -1.421875 
Q 22.3125 -1.421875 17.546875 -0.640625 
Q 12.796875 0.140625 7.71875 1.703125 
L 7.71875 11.625 
Q 12.109375 9.234375 16.796875 8.0625 
Q 21.484375 6.890625 26.703125 6.890625 
Q 35.15625 6.890625 40.078125 11.328125 
Q 45.015625 15.765625 45.015625 23.390625 
Q 45.015625 31 40.078125 35.4375 
Q 35.15625 39.890625 26.703125 39.890625 
Q 22.75 39.890625 18.8125 39.015625 
Q 14.890625 38.140625 10.796875 36.28125 
z
" id="DejaVuSans-53"/>
      </defs>
      <g transform="translate(150.017045 339.800562)scale(0.22 -0.22)">
       <use xlink:href="#DejaVuSans-53"/>
       <use x="63.623047" xlink:href="#DejaVuSans-48"/>
      </g>
     </g>
    </g>
    <g id="xtick_3">
     <g id="line2d_3">
      <g>
       <use style="stroke:#000000;stroke-width:2.5;" x="254.196364" xlink:href="#m544e44bd43" y="307.584"/>
      </g>
     </g>
     <g id="text_3">
      <!-- 100 -->
      <defs>
       <path d="M 12.40625 8.296875 
L 28.515625 8.296875 
L 28.515625 63.921875 
L 10.984375 60.40625 
L 10.984375 69.390625 
L 28.421875 72.90625 
L 38.28125 72.90625 
L 38.28125 8.296875 
L 54.390625 8.296875 
L 54.390625 0 
L 12.40625 0 
z
" id="DejaVuSans-49"/>
      </defs>
      <g transform="translate(233.200114 339.800562)scale(0.22 -0.22)">
       <use xlink:href="#DejaVuSans-49"/>
       <use x="63.623047" xlink:href="#DejaVuSans-48"/>
       <use x="127.246094" xlink:href="#DejaVuSans-48"/>
      </g>
     </g>
    </g>
    <g id="xtick_4">
     <g id="line2d_4">
      <g>
       <use style="stroke:#000000;stroke-width:2.5;" x="344.378182" xlink:href="#m544e44bd43" y="307.584"/>
      </g>
     </g>
     <g id="text_4">
      <!-- 150 -->
      <g transform="translate(323.381932 339.800562)scale(0.22 -0.22)">
       <use xlink:href="#DejaVuSans-49"/>
       <use x="63.623047" xlink:href="#DejaVuSans-53"/>
       <use x="127.246094" xlink:href="#DejaVuSans-48"/>
      </g>
     </g>
    </g>
    <g id="text_5">
     <!-- Degrees -->
     <defs>
      <path d="M 19.671875 64.796875 
L 19.671875 8.109375 
L 31.59375 8.109375 
Q 46.6875 8.109375 53.6875 14.9375 
Q 60.6875 21.78125 60.6875 36.53125 
Q 60.6875 51.171875 53.6875 57.984375 
Q 46.6875 64.796875 31.59375 64.796875 
z
M 9.8125 72.90625 
L 30.078125 72.90625 
Q 51.265625 72.90625 61.171875 64.09375 
Q 71.09375 55.28125 71.09375 36.53125 
Q 71.09375 17.671875 61.125 8.828125 
Q 51.171875 0 30.078125 0 
L 9.8125 0 
z
" id="DejaVuSans-68"/>
      <path d="M 56.203125 29.59375 
L 56.203125 25.203125 
L 14.890625 25.203125 
Q 15.484375 15.921875 20.484375 11.0625 
Q 25.484375 6.203125 34.421875 6.203125 
Q 39.59375 6.203125 44.453125 7.46875 
Q 49.3125 8.734375 54.109375 11.28125 
L 54.109375 2.78125 
Q 49.265625 0.734375 44.1875 -0.34375 
Q 39.109375 -1.421875 33.890625 -1.421875 
Q 20.796875 -1.421875 13.15625 6.1875 
Q 5.515625 13.8125 5.515625 26.8125 
Q 5.515625 40.234375 12.765625 48.109375 
Q 20.015625 56 32.328125 56 
Q 43.359375 56 49.78125 48.890625 
Q 56.203125 41.796875 56.203125 29.59375 
z
M 47.21875 32.234375 
Q 47.125 39.59375 43.09375 43.984375 
Q 39.0625 48.390625 32.421875 48.390625 
Q 24.90625 48.390625 20.390625 44.140625 
Q 15.875 39.890625 15.1875 32.171875 
z
" id="DejaVuSans-101"/>
      <path d="M 45.40625 27.984375 
Q 45.40625 37.75 41.375 43.109375 
Q 37.359375 48.484375 30.078125 48.484375 
Q 22.859375 48.484375 18.828125 43.109375 
Q 14.796875 37.75 14.796875 27.984375 
Q 14.796875 18.265625 18.828125 12.890625 
Q 22.859375 7.515625 30.078125 7.515625 
Q 37.359375 7.515625 41.375 12.890625 
Q 45.40625 18.265625 45.40625 27.984375 
z
M 54.390625 6.78125 
Q 54.390625 -7.171875 48.1875 -13.984375 
Q 42 -20.796875 29.203125 -20.796875 
Q 24.46875 -20.796875 20.265625 -20.09375 
Q 16.0625 -19.390625 12.109375 -17.921875 
L 12.109375 -9.1875 
Q 16.0625 -11.328125 19.921875 -12.34375 
Q 23.78125 -13.375 27.78125 -13.375 
Q 36.625 -13.375 41.015625 -8.765625 
Q 45.40625 -4.15625 45.40625 5.171875 
L 45.40625 9.625 
Q 42.625 4.78125 38.28125 2.390625 
Q 33.9375 0 27.875 0 
Q 17.828125 0 11.671875 7.65625 
Q 5.515625 15.328125 5.515625 27.984375 
Q 5.515625 40.671875 11.671875 48.328125 
Q 17.828125 56 27.875 56 
Q 33.9375 56 38.28125 53.609375 
Q 42.625 51.21875 45.40625 46.390625 
L 45.40625 54.6875 
L 54.390625 54.6875 
z
" id="DejaVuSans-103"/>
      <path d="M 41.109375 46.296875 
Q 39.59375 47.171875 37.8125 47.578125 
Q 36.03125 48 33.890625 48 
Q 26.265625 48 22.1875 43.046875 
Q 18.109375 38.09375 18.109375 28.8125 
L 18.109375 0 
L 9.078125 0 
L 9.078125 54.6875 
L 18.109375 54.6875 
L 18.109375 46.1875 
Q 20.953125 51.171875 25.484375 53.578125 
Q 30.03125 56 36.53125 56 
Q 37.453125 56 38.578125 55.875 
Q 39.703125 55.765625 41.0625 55.515625 
z
" id="DejaVuSans-114"/>
      <path d="M 44.28125 53.078125 
L 44.28125 44.578125 
Q 40.484375 46.53125 36.375 47.5 
Q 32.28125 48.484375 27.875 48.484375 
Q 21.1875 48.484375 17.84375 46.4375 
Q 14.5 44.390625 14.5 40.28125 
Q 14.5 37.15625 16.890625 35.375 
Q 19.28125 33.59375 26.515625 31.984375 
L 29.59375 31.296875 
Q 39.15625 29.25 43.1875 25.515625 
Q 47.21875 21.78125 47.21875 15.09375 
Q 47.21875 7.46875 41.1875 3.015625 
Q 35.15625 -1.421875 24.609375 -1.421875 
Q 20.21875 -1.421875 15.453125 -0.5625 
Q 10.6875 0.296875 5.421875 2 
L 5.421875 11.28125 
Q 10.40625 8.6875 15.234375 7.390625 
Q 20.0625 6.109375 24.8125 6.109375 
Q 31.15625 6.109375 34.5625 8.28125 
Q 37.984375 10.453125 37.984375 14.40625 
Q 37.984375 18.0625 35.515625 20.015625 
Q 33.0625 21.96875 24.703125 23.78125 
L 21.578125 24.515625 
Q 13.234375 26.265625 9.515625 29.90625 
Q 5.8125 33.546875 5.8125 39.890625 
Q 5.8125 47.609375 11.28125 51.796875 
Q 16.75 56 26.8125 56 
Q 31.78125 56 36.171875 55.265625 
Q 40.578125 54.546875 44.28125 53.078125 
z
" id="DejaVuSans-115"/>
     </defs>
     <g transform="translate(185.97 366.612125)scale(0.24 -0.24)">
      <use xlink:href="#DejaVuSans-68"/>
      <use x="77.001953" xlink:href="#DejaVuSans-101"/>
      <use x="138.525391" xlink:href="#DejaVuSans-103"/>
      <use x="202.001953" xlink:href="#DejaVuSans-114"/>
      <use x="243.083984" xlink:href="#DejaVuSans-101"/>
      <use x="304.607422" xlink:href="#DejaVuSans-101"/>
      <use x="366.130859" xlink:href="#DejaVuSans-115"/>
     </g>
    </g>
   </g>
   <g id="matplotlib.axis_2">
    <g id="ytick_1">
     <g id="line2d_5">
      <defs>
       <path d="M 0 0 
L -12 0 
" id="mc28cb7e347" style="stroke:#000000;stroke-width:2.5;"/>
      </defs>
      <g>
       <use style="stroke:#000000;stroke-width:2.5;" x="57.6" xlink:href="#mc28cb7e347" y="285.408"/>
      </g>
     </g>
     <g id="text_6">
      <!-- 0.0 -->
      <defs>
       <path d="M 10.6875 12.40625 
L 21 12.40625 
L 21 0 
L 10.6875 0 
z
" id="DejaVuSans-46"/>
      </defs>
      <g transform="translate(7.113125 293.766281)scale(0.22 -0.22)">
       <use xlink:href="#DejaVuSans-48"/>
       <use x="63.623047" xlink:href="#DejaVuSans-46"/>
       <use x="95.410156" xlink:href="#DejaVuSans-48"/>
      </g>
     </g>
    </g>
    <g id="ytick_2">
     <g id="line2d_6">
      <g>
       <use style="stroke:#000000;stroke-width:2.5;" x="57.6" xlink:href="#mc28cb7e347" y="218.029515"/>
      </g>
     </g>
     <g id="text_7">
      <!-- 0.5 -->
      <g transform="translate(7.113125 226.387796)scale(0.22 -0.22)">
       <use xlink:href="#DejaVuSans-48"/>
       <use x="63.623047" xlink:href="#DejaVuSans-46"/>
       <use x="95.410156" xlink:href="#DejaVuSans-53"/>
      </g>
     </g>
    </g>
    <g id="ytick_3">
     <g id="line2d_7">
      <g>
       <use style="stroke:#000000;stroke-width:2.5;" x="57.6" xlink:href="#mc28cb7e347" y="150.65103"/>
      </g>
     </g>
     <g id="text_8">
      <!-- 1.0 -->
      <g transform="translate(7.113125 159.009311)scale(0.22 -0.22)">
       <use xlink:href="#DejaVuSans-49"/>
       <use x="63.623047" xlink:href="#DejaVuSans-46"/>
       <use x="95.410156" xlink:href="#DejaVuSans-48"/>
      </g>
     </g>
    </g>
    <g id="ytick_4">
     <g id="line2d_8">
      <g>
       <use style="stroke:#000000;stroke-width:2.5;" x="57.6" xlink:href="#mc28cb7e347" y="83.272545"/>
      </g>
     </g>
     <g id="text_9">
      <!-- 1.5 -->
      <g transform="translate(7.113125 91.630827)scale(0.22 -0.22)">
       <use xlink:href="#DejaVuSans-49"/>
       <use x="63.623047" xlink:href="#DejaVuSans-46"/>
       <use x="95.410156" xlink:href="#DejaVuSans-53"/>
      </g>
     </g>
    </g>
    <g id="text_10">
     <!-- Activation -->
     <defs>
      <path d="M 34.1875 63.1875 
L 20.796875 26.90625 
L 47.609375 26.90625 
z
M 28.609375 72.90625 
L 39.796875 72.90625 
L 67.578125 0 
L 57.328125 0 
L 50.6875 18.703125 
L 17.828125 18.703125 
L 11.1875 0 
L 0.78125 0 
z
" id="DejaVuSans-65"/>
      <path d="M 48.78125 52.59375 
L 48.78125 44.1875 
Q 44.96875 46.296875 41.140625 47.34375 
Q 37.3125 48.390625 33.40625 48.390625 
Q 24.65625 48.390625 19.8125 42.84375 
Q 14.984375 37.3125 14.984375 27.296875 
Q 14.984375 17.28125 19.8125 11.734375 
Q 24.65625 6.203125 33.40625 6.203125 
Q 37.3125 6.203125 41.140625 7.25 
Q 44.96875 8.296875 48.78125 10.40625 
L 48.78125 2.09375 
Q 45.015625 0.34375 40.984375 -0.53125 
Q 36.96875 -1.421875 32.421875 -1.421875 
Q 20.0625 -1.421875 12.78125 6.34375 
Q 5.515625 14.109375 5.515625 27.296875 
Q 5.515625 40.671875 12.859375 48.328125 
Q 20.21875 56 33.015625 56 
Q 37.15625 56 41.109375 55.140625 
Q 45.0625 54.296875 48.78125 52.59375 
z
" id="DejaVuSans-99"/>
      <path d="M 18.3125 70.21875 
L 18.3125 54.6875 
L 36.8125 54.6875 
L 36.8125 47.703125 
L 18.3125 47.703125 
L 18.3125 18.015625 
Q 18.3125 11.328125 20.140625 9.421875 
Q 21.96875 7.515625 27.59375 7.515625 
L 36.8125 7.515625 
L 36.8125 0 
L 27.59375 0 
Q 17.1875 0 13.234375 3.875 
Q 9.28125 7.765625 9.28125 18.015625 
L 9.28125 47.703125 
L 2.6875 47.703125 
L 2.6875 54.6875 
L 9.28125 54.6875 
L 9.28125 70.21875 
z
" id="DejaVuSans-116"/>
      <path d="M 9.421875 54.6875 
L 18.40625 54.6875 
L 18.40625 0 
L 9.421875 0 
z
M 9.421875 75.984375 
L 18.40625 75.984375 
L 18.40625 64.59375 
L 9.421875 64.59375 
z
" id="DejaVuSans-105"/>
      <path d="M 2.984375 54.6875 
L 12.5 54.6875 
L 29.59375 8.796875 
L 46.6875 54.6875 
L 56.203125 54.6875 
L 35.6875 0 
L 23.484375 0 
z
" id="DejaVuSans-118"/>
      <path d="M 34.28125 27.484375 
Q 23.390625 27.484375 19.1875 25 
Q 14.984375 22.515625 14.984375 16.5 
Q 14.984375 11.71875 18.140625 8.90625 
Q 21.296875 6.109375 26.703125 6.109375 
Q 34.1875 6.109375 38.703125 11.40625 
Q 43.21875 16.703125 43.21875 25.484375 
L 43.21875 27.484375 
z
M 52.203125 31.203125 
L 52.203125 0 
L 43.21875 0 
L 43.21875 8.296875 
Q 40.140625 3.328125 35.546875 0.953125 
Q 30.953125 -1.421875 24.3125 -1.421875 
Q 15.921875 -1.421875 10.953125 3.296875 
Q 6 8.015625 6 15.921875 
Q 6 25.140625 12.171875 29.828125 
Q 18.359375 34.515625 30.609375 34.515625 
L 43.21875 34.515625 
L 43.21875 35.40625 
Q 43.21875 41.609375 39.140625 45 
Q 35.0625 48.390625 27.6875 48.390625 
Q 23 48.390625 18.546875 47.265625 
Q 14.109375 46.140625 10.015625 43.890625 
L 10.015625 52.203125 
Q 14.9375 54.109375 19.578125 55.046875 
Q 24.21875 56 28.609375 56 
Q 40.484375 56 46.34375 49.84375 
Q 52.203125 43.703125 52.203125 31.203125 
z
" id="DejaVuSans-97"/>
      <path d="M 30.609375 48.390625 
Q 23.390625 48.390625 19.1875 42.75 
Q 14.984375 37.109375 14.984375 27.296875 
Q 14.984375 17.484375 19.15625 11.84375 
Q 23.34375 6.203125 30.609375 6.203125 
Q 37.796875 6.203125 41.984375 11.859375 
Q 46.1875 17.53125 46.1875 27.296875 
Q 46.1875 37.015625 41.984375 42.703125 
Q 37.796875 48.390625 30.609375 48.390625 
z
M 30.609375 56 
Q 42.328125 56 49.015625 48.375 
Q 55.71875 40.765625 55.71875 27.296875 
Q 55.71875 13.875 49.015625 6.21875 
Q 42.328125 -1.421875 30.609375 -1.421875 
Q 18.84375 -1.421875 12.171875 6.21875 
Q 5.515625 13.875 5.515625 27.296875 
Q 5.515625 40.765625 12.171875 48.375 
Q 18.84375 56 30.609375 56 
z
" id="DejaVuSans-111"/>
      <path d="M 54.890625 33.015625 
L 54.890625 0 
L 45.90625 0 
L 45.90625 32.71875 
Q 45.90625 40.484375 42.875 44.328125 
Q 39.84375 48.1875 33.796875 48.1875 
Q 26.515625 48.1875 22.3125 43.546875 
Q 18.109375 38.921875 18.109375 30.90625 
L 18.109375 0 
L 9.078125 0 
L 9.078125 54.6875 
L 18.109375 54.6875 
L 18.109375 46.1875 
Q 21.34375 51.125 25.703125 53.5625 
Q 30.078125 56 35.796875 56 
Q 45.21875 56 50.046875 50.171875 
Q 54.890625 44.34375 54.890625 33.015625 
z
" id="DejaVuSans-110"/>
     </defs>
     <g transform="translate(-1.878125 234.813)rotate(-90)scale(0.24 -0.24)">
      <use xlink:href="#DejaVuSans-65"/>
      <use x="68.392578" xlink:href="#DejaVuSans-99"/>
      <use x="123.373047" xlink:href="#DejaVuSans-116"/>
      <use x="162.582031" xlink:href="#DejaVuSans-105"/>
      <use x="190.365234" xlink:href="#DejaVuSans-118"/>
      <use x="249.544922" xlink:href="#DejaVuSans-97"/>
      <use x="310.824219" xlink:href="#DejaVuSans-116"/>
      <use x="350.033203" xlink:href="#DejaVuSans-105"/>
      <use x="377.816406" xlink:href="#DejaVuSans-111"/>
      <use x="438.998047" xlink:href="#DejaVuSans-110"/>
     </g>
    </g>
   </g>
   <g id="line2d_9">
    <path clip-path="url(#p79f46e1526)" d="M 73.832727 251.116873 
L 90.065455 192.730744 
L 106.298182 172.489001 
L 122.530909 146.347393 
L 138.763636 115.76744 
L 154.996364 111.448446 
L 171.229091 117.737034 
L 187.461818 72.100913 
L 203.694545 56.932262 
L 219.927273 59.732508 
L 236.16 79.814757 
L 252.392727 79.159109 
L 268.625455 82.284367 
L 284.858182 157.861861 
L 301.090909 146.001947 
L 317.323636 204.724827 
L 333.556364 219.589582 
L 349.789091 235.080382 
L 366.021818 226.455721 
L 382.254545 237.34408 
L 398.487273 251.116873 
" style="fill:none;stroke:#0e4db3;stroke-linecap:square;stroke-width:3;"/>
   </g>
   <g id="line2d_10">
    <path clip-path="url(#p79f46e1526)" d="M 73.832727 258.123298 
L 90.065455 210.30637 
L 106.298182 192.344783 
L 122.530909 173.018986 
L 138.763636 149.409582 
L 154.996364 146.865514 
L 171.229091 149.736764 
L 187.461818 109.262771 
L 203.694545 101.737266 
L 219.927273 99.590917 
L 236.16 109.928989 
L 252.392727 116.538349 
L 268.625455 117.947091 
L 284.858182 183.22513 
L 301.090909 171.458276 
L 317.323636 218.871846 
L 333.556364 230.284828 
L 349.789091 240.632917 
L 366.021818 236.206725 
L 382.254545 244.352742 
L 398.487273 258.123298 
" style="fill:none;stroke:#d44e4e;stroke-linecap:square;stroke-width:3;"/>
   </g>
   <g id="line2d_11">
    <path clip-path="url(#p79f46e1526)" d="M 73.832727 52.30056 
L 90.065455 50.529104 
L 106.298182 66.242317 
L 122.530909 96.444743 
L 138.763636 101.824479 
L 154.996364 108.419638 
L 171.229091 108.000006 
L 187.461818 74.012225 
L 203.694545 62.753493 
L 219.927273 102.906986 
L 236.16 102.880287 
L 252.392727 96.86794 
L 268.625455 63.449317 
L 284.858182 87.604311 
L 301.090909 57.387042 
L 317.323636 67.902304 
L 333.556364 66.724969 
L 349.789091 27.84232 
L 366.021818 38.88841 
L 382.254545 28.4349 
L 398.487273 52.30056 
" style="fill:none;stroke:#0e4db3;stroke-linecap:square;stroke-width:3;"/>
   </g>
   <g id="line2d_12">
    <path clip-path="url(#p79f46e1526)" d="M 73.832727 100.886132 
L 90.065455 79.706178 
L 106.298182 105.937128 
L 122.530909 135.371536 
L 138.763636 138.912987 
L 154.996364 144.800836 
L 171.229091 144.793447 
L 187.461818 118.56179 
L 203.694545 110.590549 
L 219.927273 141.31614 
L 236.16 141.206581 
L 252.392727 133.783228 
L 268.625455 109.291029 
L 284.858182 124.635214 
L 301.090909 105.296998 
L 317.323636 113.276802 
L 333.556364 111.992109 
L 349.789091 81.892913 
L 366.021818 87.435572 
L 382.254545 81.759804 
L 398.487273 100.886132 
" style="fill:none;stroke:#d44e4e;stroke-linecap:square;stroke-width:3;"/>
   </g>
   <g id="line2d_13">
    <path clip-path="url(#p79f46e1526)" d="M 73.832727 49.126708 
L 90.065455 37.712585 
L 106.298182 37.622111 
L 122.530909 37.684762 
L 138.763636 12.703501 
L 154.996364 13.940419 
L 171.229091 11.706263 
L 187.461818 28.444458 
L 203.694545 8.20457 
L 219.927273 17.338127 
L 236.16 32.681589 
L 252.392727 32.947373 
L 268.625455 35.702719 
L 284.858182 52.401026 
L 301.090909 55.463168 
L 317.323636 56.787828 
L 333.556364 56.171554 
L 349.789091 58.111461 
L 366.021818 52.793428 
L 382.254545 49.989167 
L 398.487273 49.126708 
" style="fill:none;stroke:#0e4db3;stroke-linecap:square;stroke-width:3;"/>
   </g>
   <g id="line2d_14">
    <path clip-path="url(#p79f46e1526)" d="M 73.832727 90.48136 
L 90.065455 82.262985 
L 106.298182 81.574245 
L 122.530909 80.827385 
L 138.763636 65.294187 
L 154.996364 65.038155 
L 171.229091 61.347627 
L 187.461818 74.029013 
L 203.694545 55.945723 
L 219.927273 64.639375 
L 236.16 77.137901 
L 252.392727 76.848664 
L 268.625455 79.346033 
L 284.858182 88.251043 
L 301.090909 90.505858 
L 317.323636 93.555566 
L 333.556364 95.103167 
L 349.789091 96.571571 
L 366.021818 92.205829 
L 382.254545 90.497874 
L 398.487273 90.48136 
" style="fill:none;stroke:#d44e4e;stroke-linecap:square;stroke-width:3;"/>
   </g>
   <g id="line2d_15">
    <path clip-path="url(#p79f46e1526)" d="M 73.832727 17.951558 
L 90.065455 17.633485 
L 106.298182 18.683511 
L 122.530909 43.750185 
L 138.763636 46.308262 
L 154.996364 52.704898 
L 171.229091 47.115668 
L 187.461818 40.422983 
L 203.694545 22.771164 
L 219.927273 29.008186 
L 236.16 26.489724 
L 252.392727 15.271955 
L 268.625455 11.330326 
L 284.858182 11.546809 
L 301.090909 -0.903749 
L 301.900274 -1 
M 373.076171 -1 
L 382.254545 6.418158 
L 398.487273 17.951558 
" style="fill:none;stroke:#0e4db3;stroke-linecap:square;stroke-width:3;"/>
   </g>
   <g id="line2d_16">
    <path clip-path="url(#p79f46e1526)" d="M 73.832727 74.289415 
L 90.065455 74.278973 
L 106.298182 75.00103 
L 122.530909 93.668048 
L 138.763636 94.888837 
L 154.996364 97.978031 
L 171.229091 95.975296 
L 187.461818 87.477002 
L 203.694545 78.887366 
L 219.927273 82.245765 
L 236.16 82.737557 
L 252.392727 70.511963 
L 268.625455 64.995135 
L 284.858182 63.457526 
L 301.090909 56.529788 
L 317.323636 56.524872 
L 333.556364 36.702592 
L 349.789091 54.936131 
L 366.021818 52.732047 
L 382.254545 64.285768 
L 398.487273 74.289415 
" style="fill:none;stroke:#d44e4e;stroke-linecap:square;stroke-width:3;"/>
   </g>
   <g id="line2d_17">
    <path clip-path="url(#p79f46e1526)" d="M 73.832727 199.598096 
L 90.065455 198.286199 
L 106.298182 199.465702 
L 122.530909 196.611585 
L 138.763636 163.625187 
L 154.996364 159.349791 
L 171.229091 132.693347 
L 187.461818 140.905071 
L 203.694545 100.504958 
L 219.927273 68.759157 
L 236.16 69.259495 
L 252.392727 35.328533 
L 268.625455 5.432164 
L 284.858182 21.399017 
L 293.64515 -1 
M 313.903856 -1 
L 317.323636 4.065801 
L 333.556364 10.88586 
L 349.789091 121.913089 
L 366.021818 132.175499 
L 382.254545 131.041874 
L 398.487273 199.598096 
" style="fill:none;stroke:#0e4db3;stroke-linecap:square;stroke-width:3;"/>
   </g>
   <g id="line2d_18">
    <path clip-path="url(#p79f46e1526)" d="M 73.832727 206.951088 
L 90.065455 205.03396 
L 106.298182 206.068853 
L 122.530909 204.823655 
L 138.763636 178.991549 
L 154.996364 175.755649 
L 171.229091 152.419129 
L 187.461818 158.707123 
L 203.694545 127.008165 
L 219.927273 103.797735 
L 236.16 103.861895 
L 252.392727 75.519103 
L 268.625455 51.848319 
L 284.858182 67.293002 
L 301.090909 33.087903 
L 317.323636 50.009151 
L 333.556364 56.634623 
L 349.789091 143.408159 
L 366.021818 151.979394 
L 382.254545 151.894052 
L 398.487273 206.951088 
" style="fill:none;stroke:#d44e4e;stroke-linecap:square;stroke-width:3;"/>
   </g>
   <g id="line2d_19">
    <path clip-path="url(#p79f46e1526)" d="M 73.832727 285.408 
L 90.065455 285.408 
L 106.298182 285.408 
L 122.530909 285.408 
L 138.763636 285.408 
L 154.996364 285.408 
L 171.229091 285.408 
L 187.461818 285.408 
L 203.694545 285.408 
L 219.927273 285.408 
L 236.16 285.408 
L 252.392727 285.408 
L 268.625455 285.408 
L 284.858182 285.408 
L 301.090909 285.408 
L 317.323636 285.408 
L 333.556364 285.408 
L 349.789091 285.408 
L 366.021818 285.408 
L 382.254545 285.408 
L 398.487273 285.408 
" style="fill:none;stroke:#0e4db3;stroke-linecap:square;stroke-width:3;"/>
   </g>
   <g id="line2d_20">
    <path clip-path="url(#p79f46e1526)" d="M 73.832727 285.408 
L 90.065455 285.408 
L 106.298182 285.408 
L 122.530909 285.408 
L 138.763636 285.408 
L 154.996364 285.408 
L 171.229091 285.408 
L 187.461818 285.408 
L 203.694545 285.408 
L 219.927273 285.408 
L 236.16 285.408 
L 252.392727 285.408 
L 268.625455 285.408 
L 284.858182 285.408 
L 301.090909 285.408 
L 317.323636 285.408 
L 333.556364 285.408 
L 349.789091 285.408 
L 366.021818 285.408 
L 382.254545 285.408 
L 398.487273 285.408 
" style="fill:none;stroke:#d44e4e;stroke-linecap:square;stroke-width:3;"/>
   </g>
   <g id="line2d_21">
    <path clip-path="url(#p79f46e1526)" d="M 73.832727 285.408 
L 90.065455 284.203358 
L 106.298182 284.928124 
L 122.530909 284.487374 
L 138.763636 285.004166 
L 154.996364 285.408 
L 171.229091 285.408 
L 187.461818 285.408 
L 203.694545 285.408 
L 219.927273 285.408 
L 236.16 285.408 
L 252.392727 285.408 
L 268.625455 282.606636 
L 284.858182 285.408 
L 301.090909 285.408 
L 317.323636 285.408 
L 333.556364 285.408 
L 349.789091 285.408 
L 366.021818 285.408 
L 382.254545 285.408 
L 398.487273 285.408 
" style="fill:none;stroke:#0e4db3;stroke-linecap:square;stroke-width:3;"/>
   </g>
   <g id="line2d_22">
    <path clip-path="url(#p79f46e1526)" d="M 73.832727 285.408 
L 90.065455 285.408 
L 106.298182 285.408 
L 122.530909 285.408 
L 138.763636 285.408 
L 154.996364 285.408 
L 171.229091 285.408 
L 187.461818 285.408 
L 203.694545 285.408 
L 219.927273 285.408 
L 236.16 285.408 
L 252.392727 285.408 
L 268.625455 285.408 
L 284.858182 285.408 
L 301.090909 285.408 
L 317.323636 285.408 
L 333.556364 285.408 
L 349.789091 285.408 
L 366.021818 285.408 
L 382.254545 285.408 
L 398.487273 285.408 
" style="fill:none;stroke:#d44e4e;stroke-linecap:square;stroke-width:3;"/>
   </g>
   <g id="line2d_23">
    <path clip-path="url(#p79f46e1526)" d="M 73.832727 216.214524 
L 90.065455 194.388722 
L 106.298182 162.409957 
L 122.530909 159.330064 
L 138.763636 126.283361 
L 154.996364 119.578981 
L 171.229091 97.415443 
L 187.461818 100.1896 
L 203.694545 68.317903 
L 219.927273 69.939303 
L 236.16 145.597737 
L 252.392727 73.774265 
L 268.625455 109.311575 
L 284.858182 153.327677 
L 301.090909 144.709414 
L 317.323636 175.70164 
L 333.556364 179.525647 
L 349.789091 185.80846 
L 366.021818 187.935427 
L 382.254545 208.783942 
L 398.487273 216.214524 
" style="fill:none;stroke:#0e4db3;stroke-linecap:square;stroke-width:3;"/>
   </g>
   <g id="line2d_24">
    <path clip-path="url(#p79f46e1526)" d="M 73.832727 217.538703 
L 90.065455 200.837255 
L 106.298182 174.928065 
L 122.530909 169.807896 
L 138.763636 145.210861 
L 154.996364 140.739769 
L 171.229091 122.544174 
L 187.461818 123.316866 
L 203.694545 99.429808 
L 219.927273 99.537487 
L 236.16 160.548138 
L 252.392727 103.075308 
L 268.625455 131.175192 
L 284.858182 168.192207 
L 301.090909 159.690137 
L 317.323636 184.387895 
L 333.556364 187.102478 
L 349.789091 189.637341 
L 366.021818 192.084791 
L 382.254545 210.27474 
L 398.487273 217.538703 
" style="fill:none;stroke:#d44e4e;stroke-linecap:square;stroke-width:3;"/>
   </g>
   <g id="line2d_25">
    <path clip-path="url(#p79f46e1526)" d="M 73.832727 142.567965 
L 90.065455 132.678054 
L 106.298182 117.799813 
L 122.530909 111.788896 
L 138.763636 119.119092 
L 154.996364 119.519993 
L 171.229091 120.229134 
L 187.461818 135.739456 
L 203.694545 133.327195 
L 219.927273 141.133023 
L 236.16 147.996954 
L 252.392727 139.598001 
L 268.625455 137.811492 
L 284.858182 137.992954 
L 301.090909 138.333356 
L 317.323636 139.68025 
L 333.556364 108.38571 
L 349.789091 125.652083 
L 366.021818 120.258179 
L 382.254545 143.081107 
L 398.487273 142.567965 
" style="fill:none;stroke:#0e4db3;stroke-linecap:square;stroke-width:3;"/>
   </g>
   <g id="line2d_26">
    <path clip-path="url(#p79f46e1526)" d="M 73.832727 173.066696 
L 90.065455 165.184933 
L 106.298182 153.6942 
L 122.530909 146.819859 
L 138.763636 157.555138 
L 154.996364 158.098367 
L 171.229091 157.864407 
L 187.461818 167.390318 
L 203.694545 162.509202 
L 219.927273 173.89518 
L 236.16 168.658352 
L 252.392727 169.514016 
L 268.625455 169.243622 
L 284.858182 171.099874 
L 301.090909 171.915916 
L 317.323636 171.63308 
L 333.556364 147.337868 
L 349.789091 152.637122 
L 366.021818 151.496429 
L 382.254545 173.070536 
L 398.487273 173.066696 
" style="fill:none;stroke:#d44e4e;stroke-linecap:square;stroke-width:3;"/>
   </g>
   <g id="line2d_27">
    <path clip-path="url(#p79f46e1526)" d="M 73.832727 280.217535 
L 90.065455 225.487246 
L 106.298182 179.348233 
L 122.530909 182.291273 
L 138.763636 126.331152 
L 154.996364 122.119178 
L 171.229091 122.933717 
L 187.461818 127.959749 
L 203.694545 113.922185 
L 219.927273 113.897333 
L 236.16 133.916 
L 252.392727 120.726581 
L 268.625455 137.854801 
L 284.858182 178.9633 
L 301.090909 162.418808 
L 317.323636 222.63529 
L 333.556364 223.590086 
L 349.789091 238.400291 
L 366.021818 267.372202 
L 382.254545 240.801142 
L 398.487273 280.217535 
" style="fill:none;stroke:#0e4db3;stroke-linecap:square;stroke-width:3;"/>
   </g>
   <g id="line2d_28">
    <path clip-path="url(#p79f46e1526)" d="M 73.832727 284.061218 
L 90.065455 242.349706 
L 106.298182 205.165109 
L 122.530909 194.700827 
L 138.763636 164.731261 
L 154.996364 161.077746 
L 171.229091 161.20189 
L 187.461818 161.019978 
L 203.694545 151.333794 
L 219.927273 151.433088 
L 236.16 168.490761 
L 252.392727 156.434461 
L 268.625455 167.149386 
L 284.858182 205.735327 
L 301.090909 189.523606 
L 317.323636 235.650965 
L 333.556364 240.694455 
L 349.789091 253.878078 
L 366.021818 273.544204 
L 382.254545 253.938347 
L 398.487273 284.061218 
" style="fill:none;stroke:#d44e4e;stroke-linecap:square;stroke-width:3;"/>
   </g>
   <g id="line2d_29">
    <path clip-path="url(#p79f46e1526)" d="M 73.832727 71.913363 
L 90.065455 70.626405 
L 106.298182 57.515894 
L 122.530909 78.380923 
L 138.763636 90.860268 
L 154.996364 134.939471 
L 171.229091 142.699034 
L 187.461818 135.587376 
L 203.694545 67.338335 
L 219.927273 20.621859 
L 236.16 24.245929 
L 252.392727 19.768492 
L 268.625455 67.097853 
L 284.858182 96.122285 
L 301.090909 56.613402 
L 317.323636 42.444673 
L 333.556364 38.82282 
L 349.789091 32.159436 
L 366.021818 15.615474 
L 382.254545 31.04692 
L 398.487273 71.913363 
" style="fill:none;stroke:#0e4db3;stroke-linecap:square;stroke-width:3;"/>
   </g>
   <g id="line2d_30">
    <path clip-path="url(#p79f46e1526)" d="M 73.832727 102.356688 
L 90.065455 102.321556 
L 106.298182 91.720575 
L 122.530909 105.481143 
L 138.763636 119.562916 
L 154.996364 153.189203 
L 171.229091 159.036232 
L 187.461818 150.113037 
L 203.694545 96.154847 
L 219.927273 62.320881 
L 236.16 64.795954 
L 252.392727 61.332221 
L 268.625455 98.291879 
L 284.858182 121.703659 
L 301.090909 89.611576 
L 317.323636 78.784153 
L 333.556364 76.356502 
L 349.789091 71.283948 
L 366.021818 56.721708 
L 382.254545 69.856701 
L 398.487273 102.356688 
" style="fill:none;stroke:#d44e4e;stroke-linecap:square;stroke-width:3;"/>
   </g>
   <g id="line2d_31">
    <path clip-path="url(#p79f46e1526)" d="M 73.832727 65.077352 
L 90.065455 63.648 
L 106.298182 86.685145 
L 122.530909 93.12326 
L 138.763636 138.867815 
L 154.996364 170.219784 
L 171.229091 138.19546 
L 187.461818 97.116808 
L 203.694545 80.158966 
L 219.927273 123.211436 
L 236.16 118.06746 
L 252.392727 118.241983 
L 268.625455 142.825299 
L 284.858182 161.262115 
L 301.090909 131.620815 
L 317.323636 126.205513 
L 333.556364 98.032906 
L 349.789091 96.867041 
L 366.021818 80.66083 
L 382.254545 65.977867 
L 398.487273 65.077352 
" style="fill:none;stroke:#0e4db3;stroke-linecap:square;stroke-width:3;"/>
   </g>
   <g id="line2d_32">
    <path clip-path="url(#p79f46e1526)" d="M 73.832727 99.749664 
L 90.065455 93.704562 
L 106.298182 117.236085 
L 122.530909 108.962337 
L 138.763636 158.38791 
L 154.996364 182.712391 
L 171.229091 156.187135 
L 187.461818 122.145443 
L 203.694545 109.065775 
L 219.927273 145.094427 
L 236.16 140.997344 
L 252.392727 140.226853 
L 268.625455 160.97585 
L 284.858182 174.013975 
L 301.090909 153.263436 
L 317.323636 145.7543 
L 333.556364 125.876565 
L 349.789091 121.0172 
L 366.021818 109.778258 
L 382.254545 93.611743 
L 398.487273 99.749664 
" style="fill:none;stroke:#d44e4e;stroke-linecap:square;stroke-width:3;"/>
   </g>
   <g id="patch_3">
    <path d="M 57.6 307.584 
L 57.6 41.472 
" style="fill:none;stroke:#000000;stroke-linecap:square;stroke-linejoin:miter;stroke-width:2.5;"/>
   </g>
   <g id="patch_4">
    <path d="M 414.72 307.584 
L 414.72 41.472 
" style="fill:none;stroke:#000000;stroke-linecap:square;stroke-linejoin:miter;stroke-width:2.5;"/>
   </g>
   <g id="patch_5">
    <path d="M 57.6 307.584 
L 414.72 307.584 
" style="fill:none;stroke:#000000;stroke-linecap:square;stroke-linejoin:miter;stroke-width:2.5;"/>
   </g>
   <g id="patch_6">
    <path d="M 57.6 41.472 
L 414.72 41.472 
" style="fill:none;stroke:#000000;stroke-linecap:square;stroke-linejoin:miter;stroke-width:2.5;"/>
   </g>
  </g>
 </g>
 <defs>
  <clipPath id="p79f46e1526">
   <rect height="266.112" width="357.12" x="57.6" y="41.472"/>
  </clipPath>
 </defs>
</svg>
