<?xml version="1.0" encoding="utf-8" standalone="no"?>
<!DOCTYPE svg PUBLIC "-//W3C//DTD SVG 1.1//EN"
  "http://www.w3.org/Graphics/SVG/1.1/DTD/svg11.dtd">
<!-- Created with matplotlib (https://matplotlib.org/) -->
<svg height="345.6pt" version="1.1" viewBox="0 0 460.8 345.6" width="460.8pt" xmlns="http://www.w3.org/2000/svg" xmlns:xlink="http://www.w3.org/1999/xlink">
 <defs>
  <style type="text/css">
*{stroke-linecap:butt;stroke-linejoin:round;}
  </style>
 </defs>
 <g id="figure_1">
  <g id="patch_1">
   <path d="M 0 345.6 
L 460.8 345.6 
L 460.8 0 
L 0 0 
z
" style="fill:#ffffff;"/>
  </g>
  <g id="axes_1">
   <g id="patch_2">
    <path d="M 57.6 307.584 
L 414.72 307.584 
L 414.72 41.472 
L 57.6 41.472 
z
" style="fill:#ffffff;"/>
   </g>
   <g id="matplotlib.axis_1">
    <g id="xtick_1">
     <g id="line2d_1">
      <defs>
       <path d="M 0 0 
L 0 12 
" id="m90ec34b11e" style="stroke:#000000;stroke-width:2.5;"/>
      </defs>
      <g>
       <use style="stroke:#000000;stroke-width:2.5;" x="73.832727" xlink:href="#m90ec34b11e" y="307.584"/>
      </g>
     </g>
     <g id="text_1">
      <!-- 0 -->
      <defs>
       <path d="M 31.78125 66.40625 
Q 24.171875 66.40625 20.328125 58.90625 
Q 16.5 51.421875 16.5 36.375 
Q 16.5 21.390625 20.328125 13.890625 
Q 24.171875 6.390625 31.78125 6.390625 
Q 39.453125 6.390625 43.28125 13.890625 
Q 47.125 21.390625 47.125 36.375 
Q 47.125 51.421875 43.28125 58.90625 
Q 39.453125 66.40625 31.78125 66.40625 
z
M 31.78125 74.21875 
Q 44.046875 74.21875 50.515625 64.515625 
Q 56.984375 54.828125 56.984375 36.375 
Q 56.984375 17.96875 50.515625 8.265625 
Q 44.046875 -1.421875 31.78125 -1.421875 
Q 19.53125 -1.421875 13.0625 8.265625 
Q 6.59375 17.96875 6.59375 36.375 
Q 6.59375 54.828125 13.0625 64.515625 
Q 19.53125 74.21875 31.78125 74.21875 
z
" id="DejaVuSans-48"/>
      </defs>
      <g transform="translate(66.833977 339.800562)scale(0.22 -0.22)">
       <use xlink:href="#DejaVuSans-48"/>
      </g>
     </g>
    </g>
    <g id="xtick_2">
     <g id="line2d_2">
      <g>
       <use style="stroke:#000000;stroke-width:2.5;" x="164.014545" xlink:href="#m90ec34b11e" y="307.584"/>
      </g>
     </g>
     <g id="text_2">
      <!-- 50 -->
      <defs>
       <path d="M 10.796875 72.90625 
L 49.515625 72.90625 
L 49.515625 64.59375 
L 19.828125 64.59375 
L 19.828125 46.734375 
Q 21.96875 47.46875 24.109375 47.828125 
Q 26.265625 48.1875 28.421875 48.1875 
Q 40.625 48.1875 47.75 41.5 
Q 54.890625 34.8125 54.890625 23.390625 
Q 54.890625 11.625 47.5625 5.09375 
Q 40.234375 -1.421875 26.90625 -1.421875 
Q 22.3125 -1.421875 17.546875 -0.640625 
Q 12.796875 0.140625 7.71875 1.703125 
L 7.71875 11.625 
Q 12.109375 9.234375 16.796875 8.0625 
Q 21.484375 6.890625 26.703125 6.890625 
Q 35.15625 6.890625 40.078125 11.328125 
Q 45.015625 15.765625 45.015625 23.390625 
Q 45.015625 31 40.078125 35.4375 
Q 35.15625 39.890625 26.703125 39.890625 
Q 22.75 39.890625 18.8125 39.015625 
Q 14.890625 38.140625 10.796875 36.28125 
z
" id="DejaVuSans-53"/>
      </defs>
      <g transform="translate(150.017045 339.800562)scale(0.22 -0.22)">
       <use xlink:href="#DejaVuSans-53"/>
       <use x="63.623047" xlink:href="#DejaVuSans-48"/>
      </g>
     </g>
    </g>
    <g id="xtick_3">
     <g id="line2d_3">
      <g>
       <use style="stroke:#000000;stroke-width:2.5;" x="254.196364" xlink:href="#m90ec34b11e" y="307.584"/>
      </g>
     </g>
     <g id="text_3">
      <!-- 100 -->
      <defs>
       <path d="M 12.40625 8.296875 
L 28.515625 8.296875 
L 28.515625 63.921875 
L 10.984375 60.40625 
L 10.984375 69.390625 
L 28.421875 72.90625 
L 38.28125 72.90625 
L 38.28125 8.296875 
L 54.390625 8.296875 
L 54.390625 0 
L 12.40625 0 
z
" id="DejaVuSans-49"/>
      </defs>
      <g transform="translate(233.200114 339.800562)scale(0.22 -0.22)">
       <use xlink:href="#DejaVuSans-49"/>
       <use x="63.623047" xlink:href="#DejaVuSans-48"/>
       <use x="127.246094" xlink:href="#DejaVuSans-48"/>
      </g>
     </g>
    </g>
    <g id="xtick_4">
     <g id="line2d_4">
      <g>
       <use style="stroke:#000000;stroke-width:2.5;" x="344.378182" xlink:href="#m90ec34b11e" y="307.584"/>
      </g>
     </g>
     <g id="text_4">
      <!-- 150 -->
      <g transform="translate(323.381932 339.800562)scale(0.22 -0.22)">
       <use xlink:href="#DejaVuSans-49"/>
       <use x="63.623047" xlink:href="#DejaVuSans-53"/>
       <use x="127.246094" xlink:href="#DejaVuSans-48"/>
      </g>
     </g>
    </g>
    <g id="text_5">
     <!-- Degrees -->
     <defs>
      <path d="M 19.671875 64.796875 
L 19.671875 8.109375 
L 31.59375 8.109375 
Q 46.6875 8.109375 53.6875 14.9375 
Q 60.6875 21.78125 60.6875 36.53125 
Q 60.6875 51.171875 53.6875 57.984375 
Q 46.6875 64.796875 31.59375 64.796875 
z
M 9.8125 72.90625 
L 30.078125 72.90625 
Q 51.265625 72.90625 61.171875 64.09375 
Q 71.09375 55.28125 71.09375 36.53125 
Q 71.09375 17.671875 61.125 8.828125 
Q 51.171875 0 30.078125 0 
L 9.8125 0 
z
" id="DejaVuSans-68"/>
      <path d="M 56.203125 29.59375 
L 56.203125 25.203125 
L 14.890625 25.203125 
Q 15.484375 15.921875 20.484375 11.0625 
Q 25.484375 6.203125 34.421875 6.203125 
Q 39.59375 6.203125 44.453125 7.46875 
Q 49.3125 8.734375 54.109375 11.28125 
L 54.109375 2.78125 
Q 49.265625 0.734375 44.1875 -0.34375 
Q 39.109375 -1.421875 33.890625 -1.421875 
Q 20.796875 -1.421875 13.15625 6.1875 
Q 5.515625 13.8125 5.515625 26.8125 
Q 5.515625 40.234375 12.765625 48.109375 
Q 20.015625 56 32.328125 56 
Q 43.359375 56 49.78125 48.890625 
Q 56.203125 41.796875 56.203125 29.59375 
z
M 47.21875 32.234375 
Q 47.125 39.59375 43.09375 43.984375 
Q 39.0625 48.390625 32.421875 48.390625 
Q 24.90625 48.390625 20.390625 44.140625 
Q 15.875 39.890625 15.1875 32.171875 
z
" id="DejaVuSans-101"/>
      <path d="M 45.40625 27.984375 
Q 45.40625 37.75 41.375 43.109375 
Q 37.359375 48.484375 30.078125 48.484375 
Q 22.859375 48.484375 18.828125 43.109375 
Q 14.796875 37.75 14.796875 27.984375 
Q 14.796875 18.265625 18.828125 12.890625 
Q 22.859375 7.515625 30.078125 7.515625 
Q 37.359375 7.515625 41.375 12.890625 
Q 45.40625 18.265625 45.40625 27.984375 
z
M 54.390625 6.78125 
Q 54.390625 -7.171875 48.1875 -13.984375 
Q 42 -20.796875 29.203125 -20.796875 
Q 24.46875 -20.796875 20.265625 -20.09375 
Q 16.0625 -19.390625 12.109375 -17.921875 
L 12.109375 -9.1875 
Q 16.0625 -11.328125 19.921875 -12.34375 
Q 23.78125 -13.375 27.78125 -13.375 
Q 36.625 -13.375 41.015625 -8.765625 
Q 45.40625 -4.15625 45.40625 5.171875 
L 45.40625 9.625 
Q 42.625 4.78125 38.28125 2.390625 
Q 33.9375 0 27.875 0 
Q 17.828125 0 11.671875 7.65625 
Q 5.515625 15.328125 5.515625 27.984375 
Q 5.515625 40.671875 11.671875 48.328125 
Q 17.828125 56 27.875 56 
Q 33.9375 56 38.28125 53.609375 
Q 42.625 51.21875 45.40625 46.390625 
L 45.40625 54.6875 
L 54.390625 54.6875 
z
" id="DejaVuSans-103"/>
      <path d="M 41.109375 46.296875 
Q 39.59375 47.171875 37.8125 47.578125 
Q 36.03125 48 33.890625 48 
Q 26.265625 48 22.1875 43.046875 
Q 18.109375 38.09375 18.109375 28.8125 
L 18.109375 0 
L 9.078125 0 
L 9.078125 54.6875 
L 18.109375 54.6875 
L 18.109375 46.1875 
Q 20.953125 51.171875 25.484375 53.578125 
Q 30.03125 56 36.53125 56 
Q 37.453125 56 38.578125 55.875 
Q 39.703125 55.765625 41.0625 55.515625 
z
" id="DejaVuSans-114"/>
      <path d="M 44.28125 53.078125 
L 44.28125 44.578125 
Q 40.484375 46.53125 36.375 47.5 
Q 32.28125 48.484375 27.875 48.484375 
Q 21.1875 48.484375 17.84375 46.4375 
Q 14.5 44.390625 14.5 40.28125 
Q 14.5 37.15625 16.890625 35.375 
Q 19.28125 33.59375 26.515625 31.984375 
L 29.59375 31.296875 
Q 39.15625 29.25 43.1875 25.515625 
Q 47.21875 21.78125 47.21875 15.09375 
Q 47.21875 7.46875 41.1875 3.015625 
Q 35.15625 -1.421875 24.609375 -1.421875 
Q 20.21875 -1.421875 15.453125 -0.5625 
Q 10.6875 0.296875 5.421875 2 
L 5.421875 11.28125 
Q 10.40625 8.6875 15.234375 7.390625 
Q 20.0625 6.109375 24.8125 6.109375 
Q 31.15625 6.109375 34.5625 8.28125 
Q 37.984375 10.453125 37.984375 14.40625 
Q 37.984375 18.0625 35.515625 20.015625 
Q 33.0625 21.96875 24.703125 23.78125 
L 21.578125 24.515625 
Q 13.234375 26.265625 9.515625 29.90625 
Q 5.8125 33.546875 5.8125 39.890625 
Q 5.8125 47.609375 11.28125 51.796875 
Q 16.75 56 26.8125 56 
Q 31.78125 56 36.171875 55.265625 
Q 40.578125 54.546875 44.28125 53.078125 
z
" id="DejaVuSans-115"/>
     </defs>
     <g transform="translate(185.97 366.612125)scale(0.24 -0.24)">
      <use xlink:href="#DejaVuSans-68"/>
      <use x="77.001953" xlink:href="#DejaVuSans-101"/>
      <use x="138.525391" xlink:href="#DejaVuSans-103"/>
      <use x="202.001953" xlink:href="#DejaVuSans-114"/>
      <use x="243.083984" xlink:href="#DejaVuSans-101"/>
      <use x="304.607422" xlink:href="#DejaVuSans-101"/>
      <use x="366.130859" xlink:href="#DejaVuSans-115"/>
     </g>
    </g>
   </g>
   <g id="matplotlib.axis_2">
    <g id="ytick_1">
     <g id="line2d_5">
      <defs>
       <path d="M 0 0 
L -12 0 
" id="ma09e091869" style="stroke:#000000;stroke-width:2.5;"/>
      </defs>
      <g>
       <use style="stroke:#000000;stroke-width:2.5;" x="57.6" xlink:href="#ma09e091869" y="285.408"/>
      </g>
     </g>
     <g id="text_6">
      <!-- 0 -->
      <g transform="translate(28.1025 293.766281)scale(0.22 -0.22)">
       <use xlink:href="#DejaVuSans-48"/>
      </g>
     </g>
    </g>
    <g id="ytick_2">
     <g id="line2d_6">
      <g>
       <use style="stroke:#000000;stroke-width:2.5;" x="57.6" xlink:href="#ma09e091869" y="198.832924"/>
      </g>
     </g>
     <g id="text_7">
      <!-- 1 -->
      <g transform="translate(28.1025 207.191205)scale(0.22 -0.22)">
       <use xlink:href="#DejaVuSans-49"/>
      </g>
     </g>
    </g>
    <g id="ytick_3">
     <g id="line2d_7">
      <g>
       <use style="stroke:#000000;stroke-width:2.5;" x="57.6" xlink:href="#ma09e091869" y="112.257847"/>
      </g>
     </g>
     <g id="text_8">
      <!-- 2 -->
      <defs>
       <path d="M 19.1875 8.296875 
L 53.609375 8.296875 
L 53.609375 0 
L 7.328125 0 
L 7.328125 8.296875 
Q 12.9375 14.109375 22.625 23.890625 
Q 32.328125 33.6875 34.8125 36.53125 
Q 39.546875 41.84375 41.421875 45.53125 
Q 43.3125 49.21875 43.3125 52.78125 
Q 43.3125 58.59375 39.234375 62.25 
Q 35.15625 65.921875 28.609375 65.921875 
Q 23.96875 65.921875 18.8125 64.3125 
Q 13.671875 62.703125 7.8125 59.421875 
L 7.8125 69.390625 
Q 13.765625 71.78125 18.9375 73 
Q 24.125 74.21875 28.421875 74.21875 
Q 39.75 74.21875 46.484375 68.546875 
Q 53.21875 62.890625 53.21875 53.421875 
Q 53.21875 48.921875 51.53125 44.890625 
Q 49.859375 40.875 45.40625 35.40625 
Q 44.1875 33.984375 37.640625 27.21875 
Q 31.109375 20.453125 19.1875 8.296875 
z
" id="DejaVuSans-50"/>
      </defs>
      <g transform="translate(28.1025 120.616129)scale(0.22 -0.22)">
       <use xlink:href="#DejaVuSans-50"/>
      </g>
     </g>
    </g>
    <g id="text_9">
     <!-- Activation -->
     <defs>
      <path d="M 34.1875 63.1875 
L 20.796875 26.90625 
L 47.609375 26.90625 
z
M 28.609375 72.90625 
L 39.796875 72.90625 
L 67.578125 0 
L 57.328125 0 
L 50.6875 18.703125 
L 17.828125 18.703125 
L 11.1875 0 
L 0.78125 0 
z
" id="DejaVuSans-65"/>
      <path d="M 48.78125 52.59375 
L 48.78125 44.1875 
Q 44.96875 46.296875 41.140625 47.34375 
Q 37.3125 48.390625 33.40625 48.390625 
Q 24.65625 48.390625 19.8125 42.84375 
Q 14.984375 37.3125 14.984375 27.296875 
Q 14.984375 17.28125 19.8125 11.734375 
Q 24.65625 6.203125 33.40625 6.203125 
Q 37.3125 6.203125 41.140625 7.25 
Q 44.96875 8.296875 48.78125 10.40625 
L 48.78125 2.09375 
Q 45.015625 0.34375 40.984375 -0.53125 
Q 36.96875 -1.421875 32.421875 -1.421875 
Q 20.0625 -1.421875 12.78125 6.34375 
Q 5.515625 14.109375 5.515625 27.296875 
Q 5.515625 40.671875 12.859375 48.328125 
Q 20.21875 56 33.015625 56 
Q 37.15625 56 41.109375 55.140625 
Q 45.0625 54.296875 48.78125 52.59375 
z
" id="DejaVuSans-99"/>
      <path d="M 18.3125 70.21875 
L 18.3125 54.6875 
L 36.8125 54.6875 
L 36.8125 47.703125 
L 18.3125 47.703125 
L 18.3125 18.015625 
Q 18.3125 11.328125 20.140625 9.421875 
Q 21.96875 7.515625 27.59375 7.515625 
L 36.8125 7.515625 
L 36.8125 0 
L 27.59375 0 
Q 17.1875 0 13.234375 3.875 
Q 9.28125 7.765625 9.28125 18.015625 
L 9.28125 47.703125 
L 2.6875 47.703125 
L 2.6875 54.6875 
L 9.28125 54.6875 
L 9.28125 70.21875 
z
" id="DejaVuSans-116"/>
      <path d="M 9.421875 54.6875 
L 18.40625 54.6875 
L 18.40625 0 
L 9.421875 0 
z
M 9.421875 75.984375 
L 18.40625 75.984375 
L 18.40625 64.59375 
L 9.421875 64.59375 
z
" id="DejaVuSans-105"/>
      <path d="M 2.984375 54.6875 
L 12.5 54.6875 
L 29.59375 8.796875 
L 46.6875 54.6875 
L 56.203125 54.6875 
L 35.6875 0 
L 23.484375 0 
z
" id="DejaVuSans-118"/>
      <path d="M 34.28125 27.484375 
Q 23.390625 27.484375 19.1875 25 
Q 14.984375 22.515625 14.984375 16.5 
Q 14.984375 11.71875 18.140625 8.90625 
Q 21.296875 6.109375 26.703125 6.109375 
Q 34.1875 6.109375 38.703125 11.40625 
Q 43.21875 16.703125 43.21875 25.484375 
L 43.21875 27.484375 
z
M 52.203125 31.203125 
L 52.203125 0 
L 43.21875 0 
L 43.21875 8.296875 
Q 40.140625 3.328125 35.546875 0.953125 
Q 30.953125 -1.421875 24.3125 -1.421875 
Q 15.921875 -1.421875 10.953125 3.296875 
Q 6 8.015625 6 15.921875 
Q 6 25.140625 12.171875 29.828125 
Q 18.359375 34.515625 30.609375 34.515625 
L 43.21875 34.515625 
L 43.21875 35.40625 
Q 43.21875 41.609375 39.140625 45 
Q 35.0625 48.390625 27.6875 48.390625 
Q 23 48.390625 18.546875 47.265625 
Q 14.109375 46.140625 10.015625 43.890625 
L 10.015625 52.203125 
Q 14.9375 54.109375 19.578125 55.046875 
Q 24.21875 56 28.609375 56 
Q 40.484375 56 46.34375 49.84375 
Q 52.203125 43.703125 52.203125 31.203125 
z
" id="DejaVuSans-97"/>
      <path d="M 30.609375 48.390625 
Q 23.390625 48.390625 19.1875 42.75 
Q 14.984375 37.109375 14.984375 27.296875 
Q 14.984375 17.484375 19.15625 11.84375 
Q 23.34375 6.203125 30.609375 6.203125 
Q 37.796875 6.203125 41.984375 11.859375 
Q 46.1875 17.53125 46.1875 27.296875 
Q 46.1875 37.015625 41.984375 42.703125 
Q 37.796875 48.390625 30.609375 48.390625 
z
M 30.609375 56 
Q 42.328125 56 49.015625 48.375 
Q 55.71875 40.765625 55.71875 27.296875 
Q 55.71875 13.875 49.015625 6.21875 
Q 42.328125 -1.421875 30.609375 -1.421875 
Q 18.84375 -1.421875 12.171875 6.21875 
Q 5.515625 13.875 5.515625 27.296875 
Q 5.515625 40.765625 12.171875 48.375 
Q 18.84375 56 30.609375 56 
z
" id="DejaVuSans-111"/>
      <path d="M 54.890625 33.015625 
L 54.890625 0 
L 45.90625 0 
L 45.90625 32.71875 
Q 45.90625 40.484375 42.875 44.328125 
Q 39.84375 48.1875 33.796875 48.1875 
Q 26.515625 48.1875 22.3125 43.546875 
Q 18.109375 38.921875 18.109375 30.90625 
L 18.109375 0 
L 9.078125 0 
L 9.078125 54.6875 
L 18.109375 54.6875 
L 18.109375 46.1875 
Q 21.34375 51.125 25.703125 53.5625 
Q 30.078125 56 35.796875 56 
Q 45.21875 56 50.046875 50.171875 
Q 54.890625 44.34375 54.890625 33.015625 
z
" id="DejaVuSans-110"/>
     </defs>
     <g transform="translate(19.11125 234.813)rotate(-90)scale(0.24 -0.24)">
      <use xlink:href="#DejaVuSans-65"/>
      <use x="68.392578" xlink:href="#DejaVuSans-99"/>
      <use x="123.373047" xlink:href="#DejaVuSans-116"/>
      <use x="162.582031" xlink:href="#DejaVuSans-105"/>
      <use x="190.365234" xlink:href="#DejaVuSans-118"/>
      <use x="249.544922" xlink:href="#DejaVuSans-97"/>
      <use x="310.824219" xlink:href="#DejaVuSans-116"/>
      <use x="350.033203" xlink:href="#DejaVuSans-105"/>
      <use x="377.816406" xlink:href="#DejaVuSans-111"/>
      <use x="438.998047" xlink:href="#DejaVuSans-110"/>
     </g>
    </g>
   </g>
   <g id="line2d_8">
    <path clip-path="url(#p7e4e1d7561)" d="M 73.832727 263.377548 
L 90.065455 225.86718 
L 106.298182 212.862803 
L 122.530909 196.068037 
L 138.763636 176.421842 
L 154.996364 173.647089 
L 171.229091 177.687214 
L 187.461818 148.368132 
L 203.694545 138.622981 
L 219.927273 140.422008 
L 236.16 153.323917 
L 252.392727 152.902694 
L 268.625455 154.910527 
L 284.858182 203.465547 
L 301.090909 195.846104 
L 317.323636 233.57282 
L 333.556364 243.122732 
L 349.789091 253.074849 
L 366.021818 247.533907 
L 382.254545 254.52917 
L 398.487273 263.377548 
" style="fill:none;stroke:#0e4db3;stroke-linecap:square;stroke-width:3;"/>
   </g>
   <g id="line2d_9">
    <path clip-path="url(#p7e4e1d7561)" d="M 73.832727 267.87885 
L 90.065455 237.158701 
L 106.298182 225.619218 
L 122.530909 213.203293 
L 138.763636 198.035351 
L 154.996364 196.400906 
L 171.229091 198.24555 
L 187.461818 172.242895 
L 203.694545 167.408108 
L 219.927273 166.029179 
L 236.16 172.670909 
L 252.392727 176.917115 
L 268.625455 177.822166 
L 284.858182 219.760266 
L 301.090909 212.20061 
L 317.323636 242.66162 
L 333.556364 249.993929 
L 349.789091 256.642094 
L 366.021818 253.798472 
L 382.254545 259.031909 
L 398.487273 267.87885 
" style="fill:none;stroke:#d44e4e;stroke-linecap:square;stroke-width:3;"/>
   </g>
   <g id="line2d_10">
    <path clip-path="url(#p7e4e1d7561)" d="M 73.832727 135.647328 
L 90.065455 134.509249 
L 106.298182 144.604257 
L 122.530909 164.007909 
L 138.763636 167.464139 
L 154.996364 171.701221 
L 171.229091 171.431628 
L 187.461818 149.596061 
L 203.694545 142.36285 
L 219.927273 168.159599 
L 236.16 168.142447 
L 252.392727 164.279794 
L 268.625455 142.809885 
L 284.858182 158.328343 
L 301.090909 138.915156 
L 317.323636 145.670721 
L 333.556364 144.914338 
L 349.789091 119.934048 
L 366.021818 127.030646 
L 382.254545 120.314753 
L 398.487273 135.647328 
" style="fill:none;stroke:#0e4db3;stroke-linecap:square;stroke-width:3;"/>
   </g>
   <g id="line2d_11">
    <path clip-path="url(#p7e4e1d7561)" d="M 73.832727 166.861294 
L 90.065455 153.254161 
L 106.298182 170.106324 
L 122.530909 189.01656 
L 138.763636 191.291778 
L 154.996364 195.074447 
L 171.229091 195.069699 
L 187.461818 178.217082 
L 203.694545 173.09593 
L 219.927273 192.835691 
L 236.16 192.765305 
L 252.392727 187.996147 
L 268.625455 172.261049 
L 284.858182 182.118973 
L 301.090909 169.695071 
L 317.323636 174.821723 
L 333.556364 173.996368 
L 349.789091 154.659036 
L 366.021818 158.219936 
L 382.254545 154.57352 
L 398.487273 166.861294 
" style="fill:none;stroke:#d44e4e;stroke-linecap:square;stroke-width:3;"/>
   </g>
   <g id="line2d_12">
    <path clip-path="url(#p7e4e1d7561)" d="M 73.832727 133.608275 
L 90.065455 126.275233 
L 106.298182 126.217108 
L 122.530909 126.257358 
L 138.763636 110.208062 
L 154.996364 111.002724 
L 171.229091 109.567382 
L 187.461818 120.320893 
L 203.694545 107.317708 
L 219.927273 113.185593 
L 236.16 123.043053 
L 252.392727 123.213806 
L 268.625455 124.983988 
L 284.858182 135.711873 
L 301.090909 137.679156 
L 317.323636 138.530189 
L 333.556364 138.134261 
L 349.789091 139.380561 
L 366.021818 135.963973 
L 382.254545 134.162365 
L 398.487273 133.608275 
" style="fill:none;stroke:#0e4db3;stroke-linecap:square;stroke-width:3;"/>
   </g>
   <g id="line2d_13">
    <path clip-path="url(#p7e4e1d7561)" d="M 73.832727 160.176713 
L 90.065455 154.89679 
L 106.298182 154.454307 
L 122.530909 153.974484 
L 138.763636 143.995128 
L 154.996364 143.830639 
L 171.229091 141.459647 
L 187.461818 149.606846 
L 203.694545 137.989175 
L 219.927273 143.574442 
L 236.16 151.604162 
L 252.392727 151.418341 
L 268.625455 153.022784 
L 284.858182 158.743839 
L 301.090909 160.192452 
L 317.323636 162.151747 
L 333.556364 163.146009 
L 349.789091 164.08939 
L 366.021818 161.284604 
L 382.254545 160.187323 
L 398.487273 160.176713 
" style="fill:none;stroke:#d44e4e;stroke-linecap:square;stroke-width:3;"/>
   </g>
   <g id="line2d_14">
    <path clip-path="url(#p7e4e1d7561)" d="M 73.832727 113.579694 
L 90.065455 113.375347 
L 106.298182 114.049939 
L 122.530909 130.15411 
L 138.763636 131.797555 
L 154.996364 135.907096 
L 171.229091 132.316276 
L 187.461818 128.016538 
L 203.694545 116.676066 
L 219.927273 120.683062 
L 236.16 119.065068 
L 252.392727 111.858174 
L 268.625455 109.325861 
L 284.858182 109.464941 
L 301.090909 101.466037 
L 317.323636 100.225837 
L 333.556364 81.064491 
L 349.789091 98.676722 
L 366.021818 97.741267 
L 382.254545 106.170021 
L 398.487273 113.579694 
" style="fill:none;stroke:#0e4db3;stroke-linecap:square;stroke-width:3;"/>
   </g>
   <g id="line2d_15">
    <path clip-path="url(#p7e4e1d7561)" d="M 73.832727 149.774143 
L 90.065455 149.767434 
L 106.298182 150.231322 
L 122.530909 162.224012 
L 138.763636 163.008312 
L 154.996364 164.992975 
L 171.229091 163.706312 
L 187.461818 158.246553 
L 203.694545 152.728112 
L 219.927273 154.885727 
L 236.16 155.20168 
L 252.392727 147.347306 
L 268.625455 143.803001 
L 284.858182 142.815159 
L 301.090909 138.36441 
L 317.323636 138.361251 
L 333.556364 125.62636 
L 349.789091 137.340559 
L 366.021818 135.924538 
L 382.254545 143.347266 
L 398.487273 149.774143 
" style="fill:none;stroke:#d44e4e;stroke-linecap:square;stroke-width:3;"/>
   </g>
   <g id="line2d_16">
    <path clip-path="url(#p7e4e1d7561)" d="M 73.832727 230.279134 
L 90.065455 229.436301 
L 106.298182 230.194077 
L 122.530909 228.36044 
L 138.763636 207.168215 
L 154.996364 204.421472 
L 171.229091 187.295949 
L 187.461818 192.571599 
L 203.694545 166.616408 
L 219.927273 146.221209 
L 236.16 146.542653 
L 252.392727 124.743591 
L 268.625455 105.536566 
L 284.858182 115.794526 
L 301.090909 89.210359 
L 317.323636 104.658741 
L 333.556364 109.040312 
L 349.789091 180.370135 
L 366.021818 186.963255 
L 382.254545 186.234955 
L 398.487273 230.279134 
" style="fill:none;stroke:#0e4db3;stroke-linecap:square;stroke-width:3;"/>
   </g>
   <g id="line2d_17">
    <path clip-path="url(#p7e4e1d7561)" d="M 73.832727 235.003088 
L 90.065455 233.771423 
L 106.298182 234.436294 
L 122.530909 233.636312 
L 138.763636 217.040387 
L 154.996364 214.961472 
L 171.229091 199.968845 
L 187.461818 204.008588 
L 203.694545 183.643484 
L 219.927273 168.731864 
L 236.16 168.773084 
L 252.392727 150.56416 
L 268.625455 135.356784 
L 284.858182 145.279273 
L 301.090909 123.304091 
L 317.323636 134.175204 
L 333.556364 138.431762 
L 349.789091 194.179717 
L 366.021818 199.686335 
L 382.254545 199.631508 
L 398.487273 235.003088 
" style="fill:none;stroke:#d44e4e;stroke-linecap:square;stroke-width:3;"/>
   </g>
   <g id="line2d_18">
    <path clip-path="url(#p7e4e1d7561)" d="M 73.832727 285.408 
L 90.065455 285.408 
L 106.298182 285.408 
L 122.530909 285.408 
L 138.763636 285.408 
L 154.996364 285.408 
L 171.229091 285.408 
L 187.461818 285.408 
L 203.694545 285.408 
L 219.927273 285.408 
L 236.16 285.408 
L 252.392727 285.408 
L 268.625455 285.408 
L 284.858182 285.408 
L 301.090909 285.408 
L 317.323636 285.408 
L 333.556364 285.408 
L 349.789091 285.408 
L 366.021818 285.408 
L 382.254545 285.408 
L 398.487273 285.408 
" style="fill:none;stroke:#0e4db3;stroke-linecap:square;stroke-width:3;"/>
   </g>
   <g id="line2d_19">
    <path clip-path="url(#p7e4e1d7561)" d="M 73.832727 285.408 
L 90.065455 285.408 
L 106.298182 285.408 
L 122.530909 285.408 
L 138.763636 285.408 
L 154.996364 285.408 
L 171.229091 285.408 
L 187.461818 285.408 
L 203.694545 285.408 
L 219.927273 285.408 
L 236.16 285.408 
L 252.392727 285.408 
L 268.625455 285.408 
L 284.858182 285.408 
L 301.090909 285.408 
L 317.323636 285.408 
L 333.556364 285.408 
L 349.789091 285.408 
L 366.021818 285.408 
L 382.254545 285.408 
L 398.487273 285.408 
" style="fill:none;stroke:#d44e4e;stroke-linecap:square;stroke-width:3;"/>
   </g>
   <g id="line2d_20">
    <path clip-path="url(#p7e4e1d7561)" d="M 73.832727 285.408 
L 90.065455 284.634073 
L 106.298182 285.099702 
L 122.530909 284.816541 
L 138.763636 285.148555 
L 154.996364 285.408 
L 171.229091 285.408 
L 187.461818 285.408 
L 203.694545 285.408 
L 219.927273 285.408 
L 236.16 285.408 
L 252.392727 285.408 
L 268.625455 283.608254 
L 284.858182 285.408 
L 301.090909 285.408 
L 317.323636 285.408 
L 333.556364 285.408 
L 349.789091 285.408 
L 366.021818 285.408 
L 382.254545 285.408 
L 398.487273 285.408 
" style="fill:none;stroke:#0e4db3;stroke-linecap:square;stroke-width:3;"/>
   </g>
   <g id="line2d_21">
    <path clip-path="url(#p7e4e1d7561)" d="M 73.832727 285.408 
L 90.065455 285.408 
L 106.298182 285.408 
L 122.530909 285.408 
L 138.763636 285.408 
L 154.996364 285.408 
L 171.229091 285.408 
L 187.461818 285.408 
L 203.694545 285.408 
L 219.927273 285.408 
L 236.16 285.408 
L 252.392727 285.408 
L 268.625455 285.408 
L 284.858182 285.408 
L 301.090909 285.408 
L 317.323636 285.408 
L 333.556364 285.408 
L 349.789091 285.408 
L 366.021818 285.408 
L 382.254545 285.408 
L 398.487273 285.408 
" style="fill:none;stroke:#d44e4e;stroke-linecap:square;stroke-width:3;"/>
   </g>
   <g id="line2d_22">
    <path clip-path="url(#p7e4e1d7561)" d="M 73.832727 240.954415 
L 90.065455 226.932354 
L 106.298182 206.387486 
L 122.530909 204.408799 
L 138.763636 183.177831 
L 154.996364 178.870579 
L 171.229091 164.631539 
L 187.461818 166.413806 
L 203.694545 145.937725 
L 219.927273 146.979399 
L 236.16 195.586418 
L 252.392727 149.443183 
L 268.625455 172.274249 
L 284.858182 200.552545 
L 301.090909 195.015712 
L 317.323636 214.926774 
L 333.556364 217.38352 
L 349.789091 221.419935 
L 366.021818 222.786412 
L 382.254545 236.180612 
L 398.487273 240.954415 
" style="fill:none;stroke:#0e4db3;stroke-linecap:square;stroke-width:3;"/>
   </g>
   <g id="line2d_23">
    <path clip-path="url(#p7e4e1d7561)" d="M 73.832727 241.805138 
L 90.065455 231.075235 
L 106.298182 214.429788 
L 122.530909 211.140318 
L 138.763636 195.337868 
L 154.996364 192.4654 
L 171.229091 180.775578 
L 187.461818 181.271997 
L 203.694545 165.925674 
L 219.927273 165.994853 
L 236.16 205.191355 
L 252.392727 168.267738 
L 268.625455 186.320605 
L 284.858182 210.102313 
L 301.090909 204.640129 
L 317.323636 220.507288 
L 333.556364 222.251281 
L 349.789091 223.879813 
L 366.021818 225.452185 
L 382.254545 237.13838 
L 398.487273 241.805138 
" style="fill:none;stroke:#d44e4e;stroke-linecap:square;stroke-width:3;"/>
   </g>
   <g id="line2d_24">
    <path clip-path="url(#p7e4e1d7561)" d="M 73.832727 193.639931 
L 90.065455 187.286124 
L 106.298182 177.727547 
L 122.530909 173.865813 
L 138.763636 178.575122 
L 154.996364 178.832682 
L 171.229091 179.288273 
L 187.461818 189.252932 
L 203.694545 187.703167 
L 219.927273 192.718047 
L 236.16 197.127803 
L 252.392727 191.731867 
L 268.625455 190.584118 
L 284.858182 190.700699 
L 301.090909 190.919392 
L 317.323636 191.784708 
L 333.556364 171.679424 
L 349.789091 182.772264 
L 366.021818 179.306932 
L 382.254545 193.9696 
L 398.487273 193.639931 
" style="fill:none;stroke:#0e4db3;stroke-linecap:square;stroke-width:3;"/>
   </g>
   <g id="line2d_25">
    <path clip-path="url(#p7e4e1d7561)" d="M 73.832727 213.233945 
L 90.065455 208.170279 
L 106.298182 200.788018 
L 122.530909 196.371575 
L 138.763636 203.268491 
L 154.996364 203.617491 
L 171.229091 203.467182 
L 187.461818 209.587136 
L 203.694545 206.451247 
L 219.927273 213.766207 
L 236.16 210.401789 
L 252.392727 210.951514 
L 268.625455 210.777798 
L 284.858182 211.970353 
L 301.090909 212.494622 
L 317.323636 212.312913 
L 333.556364 196.704372 
L 349.789091 200.108895 
L 366.021818 199.376053 
L 382.254545 213.236412 
L 398.487273 213.233945 
" style="fill:none;stroke:#d44e4e;stroke-linecap:square;stroke-width:3;"/>
   </g>
   <g id="line2d_26">
    <path clip-path="url(#p7e4e1d7561)" d="M 73.832727 282.073368 
L 90.065455 246.911707 
L 106.298182 217.26954 
L 122.530909 219.160306 
L 138.763636 183.208535 
L 154.996364 180.502537 
L 171.229091 181.025841 
L 187.461818 184.254833 
L 203.694545 175.236351 
L 219.927273 175.220385 
L 236.16 188.081446 
L 252.392727 179.607859 
L 268.625455 190.611942 
L 284.858182 217.022238 
L 301.090909 206.393173 
L 317.323636 245.079457 
L 333.556364 245.69287 
L 349.789091 255.207736 
L 366.021818 273.82084 
L 382.254545 256.750171 
L 398.487273 282.073368 
" style="fill:none;stroke:#0e4db3;stroke-linecap:square;stroke-width:3;"/>
   </g>
   <g id="line2d_27">
    <path clip-path="url(#p7e4e1d7561)" d="M 73.832727 284.542755 
L 90.065455 257.745052 
L 106.298182 233.85568 
L 122.530909 227.132867 
L 138.763636 207.878816 
L 154.996364 205.531603 
L 171.229091 205.61136 
L 187.461818 205.49449 
L 203.694545 199.271568 
L 219.927273 199.335359 
L 236.16 210.29412 
L 252.392727 202.548509 
L 268.625455 209.432349 
L 284.858182 234.222019 
L 301.090909 223.806743 
L 317.323636 253.441423 
L 333.556364 256.68163 
L 349.789091 265.151494 
L 366.021818 277.786064 
L 382.254545 265.190214 
L 398.487273 284.542755 
" style="fill:none;stroke:#d44e4e;stroke-linecap:square;stroke-width:3;"/>
   </g>
   <g id="line2d_28">
    <path clip-path="url(#p7e4e1d7561)" d="M 73.832727 148.24764 
L 90.065455 147.420829 
L 106.298182 138.997937 
L 122.530909 152.402746 
L 138.763636 160.420144 
L 154.996364 188.738979 
L 171.229091 193.724136 
L 187.461818 189.155227 
L 203.694545 145.308398 
L 219.927273 115.295238 
L 236.16 117.623534 
L 252.392727 114.746989 
L 268.625455 145.153899 
L 284.858182 163.800745 
L 301.090909 138.418128 
L 317.323636 129.315379 
L 333.556364 126.988507 
L 349.789091 122.707594 
L 366.021818 112.078868 
L 382.254545 121.992854 
L 398.487273 148.24764 
" style="fill:none;stroke:#0e4db3;stroke-linecap:square;stroke-width:3;"/>
   </g>
   <g id="line2d_29">
    <path clip-path="url(#p7e4e1d7561)" d="M 73.832727 167.806058 
L 90.065455 167.783487 
L 106.298182 160.972851 
L 122.530909 169.813375 
L 138.763636 178.860259 
L 154.996364 200.463581 
L 171.229091 204.220026 
L 187.461818 198.487288 
L 203.694545 163.821664 
L 219.927273 142.084917 
L 236.16 143.675036 
L 252.392727 141.449749 
L 268.625455 165.194608 
L 284.858182 180.235586 
L 301.090909 159.617917 
L 317.323636 152.661802 
L 333.556364 151.10215 
L 349.789091 147.84327 
L 366.021818 138.487709 
L 382.254545 146.92633 
L 398.487273 167.806058 
" style="fill:none;stroke:#d44e4e;stroke-linecap:square;stroke-width:3;"/>
   </g>
   <g id="line2d_30">
    <path clip-path="url(#p7e4e1d7561)" d="M 73.832727 143.855821 
L 90.065455 142.937529 
L 106.298182 157.737822 
L 122.530909 161.874011 
L 138.763636 191.262757 
L 154.996364 211.404937 
L 171.229091 190.8308 
L 187.461818 164.43968 
L 203.694545 153.545056 
L 219.927273 181.204263 
L 236.16 177.899498 
L 252.392727 178.01162 
L 268.625455 193.805256 
L 284.858182 205.650052 
L 301.090909 186.606897 
L 317.323636 183.127818 
L 333.556364 165.02823 
L 349.789091 164.279216 
L 366.021818 153.86748 
L 382.254545 144.43436 
L 398.487273 143.855821 
" style="fill:none;stroke:#0e4db3;stroke-linecap:square;stroke-width:3;"/>
   </g>
   <g id="line2d_31">
    <path clip-path="url(#p7e4e1d7561)" d="M 73.832727 166.131167 
L 90.065455 162.24747 
L 106.298182 177.365378 
L 122.530909 172.04988 
L 138.763636 203.803509 
L 154.996364 219.430854 
L 171.229091 202.389613 
L 187.461818 180.519411 
L 203.694545 172.116334 
L 219.927273 195.263065 
L 236.16 192.63088 
L 252.392727 192.135875 
L 268.625455 205.466139 
L 284.858182 213.842528 
L 301.090909 200.511273 
L 317.323636 195.687002 
L 333.556364 182.916484 
L 349.789091 179.794568 
L 366.021818 172.574072 
L 382.254545 162.187838 
L 398.487273 166.131167 
" style="fill:none;stroke:#d44e4e;stroke-linecap:square;stroke-width:3;"/>
   </g>
   <g id="line2d_32">
    <path clip-path="url(#p7e4e1d7561)" d="M 73.832727 76.385854 
L 90.065455 76.087982 
L 106.298182 71.402327 
L 122.530909 74.227021 
L 138.763636 73.935012 
L 154.996364 74.08565 
L 171.229091 71.25012 
L 187.461818 73.364925 
L 203.694545 63.648 
L 219.927273 67.989692 
L 236.16 68.831725 
L 252.392727 68.649505 
L 268.625455 72.164995 
L 284.858182 74.852694 
L 301.090909 72.554121 
L 317.323636 73.678628 
L 333.556364 72.881221 
L 349.789091 75.237507 
L 366.021818 71.843593 
L 382.254545 73.954352 
L 398.487273 76.385854 
" style="fill:none;stroke:#0e4db3;stroke-linecap:square;stroke-width:3;"/>
   </g>
   <g id="line2d_33">
    <path clip-path="url(#p7e4e1d7561)" d="M 73.832727 109.997254 
L 90.065455 108.545297 
L 106.298182 105.514006 
L 122.530909 107.376948 
L 138.763636 107.330402 
L 154.996364 107.414371 
L 171.229091 105.215535 
L 187.461818 107.241997 
L 203.694545 99.278224 
L 219.927273 103.229675 
L 236.16 103.66095 
L 252.392727 103.569263 
L 268.625455 103.603114 
L 284.858182 107.017421 
L 301.090909 105.108036 
L 317.323636 106.599914 
L 333.556364 106.38021 
L 349.789091 108.443928 
L 366.021818 105.733668 
L 382.254545 107.814251 
L 398.487273 109.997254 
" style="fill:none;stroke:#d44e4e;stroke-linecap:square;stroke-width:3;"/>
   </g>
   <g id="patch_3">
    <path d="M 57.6 307.584 
L 57.6 41.472 
" style="fill:none;stroke:#000000;stroke-linecap:square;stroke-linejoin:miter;stroke-width:2.5;"/>
   </g>
   <g id="patch_4">
    <path d="M 414.72 307.584 
L 414.72 41.472 
" style="fill:none;stroke:#000000;stroke-linecap:square;stroke-linejoin:miter;stroke-width:2.5;"/>
   </g>
   <g id="patch_5">
    <path d="M 57.6 307.584 
L 414.72 307.584 
" style="fill:none;stroke:#000000;stroke-linecap:square;stroke-linejoin:miter;stroke-width:2.5;"/>
   </g>
   <g id="patch_6">
    <path d="M 57.6 41.472 
L 414.72 41.472 
" style="fill:none;stroke:#000000;stroke-linecap:square;stroke-linejoin:miter;stroke-width:2.5;"/>
   </g>
  </g>
 </g>
 <defs>
  <clipPath id="p7e4e1d7561">
   <rect height="266.112" width="357.12" x="57.6" y="41.472"/>
  </clipPath>
 </defs>
</svg>
