<?xml version="1.0" encoding="utf-8" standalone="no"?>
<!DOCTYPE svg PUBLIC "-//W3C//DTD SVG 1.1//EN"
  "http://www.w3.org/Graphics/SVG/1.1/DTD/svg11.dtd">
<!-- Created with matplotlib (https://matplotlib.org/) -->
<svg height="345.6pt" version="1.1" viewBox="0 0 460.8 345.6" width="460.8pt" xmlns="http://www.w3.org/2000/svg" xmlns:xlink="http://www.w3.org/1999/xlink">
 <defs>
  <style type="text/css">
*{stroke-linecap:butt;stroke-linejoin:round;}
  </style>
 </defs>
 <g id="figure_1">
  <g id="patch_1">
   <path d="M 0 345.6 
L 460.8 345.6 
L 460.8 0 
L 0 0 
z
" style="fill:#ffffff;"/>
  </g>
  <g id="axes_1">
   <g id="patch_2">
    <path d="M 57.6 307.584 
L 414.72 307.584 
L 414.72 41.472 
L 57.6 41.472 
z
" style="fill:#ffffff;"/>
   </g>
   <g id="matplotlib.axis_1">
    <g id="xtick_1">
     <g id="line2d_1">
      <defs>
       <path d="M 0 0 
L 0 12 
" id="mf2714bbdc9" style="stroke:#000000;stroke-width:2.5;"/>
      </defs>
      <g>
       <use style="stroke:#000000;stroke-width:2.5;" x="73.832727" xlink:href="#mf2714bbdc9" y="307.584"/>
      </g>
     </g>
     <g id="text_1">
      <!-- 0 -->
      <defs>
       <path d="M 31.78125 66.40625 
Q 24.171875 66.40625 20.328125 58.90625 
Q 16.5 51.421875 16.5 36.375 
Q 16.5 21.390625 20.328125 13.890625 
Q 24.171875 6.390625 31.78125 6.390625 
Q 39.453125 6.390625 43.28125 13.890625 
Q 47.125 21.390625 47.125 36.375 
Q 47.125 51.421875 43.28125 58.90625 
Q 39.453125 66.40625 31.78125 66.40625 
z
M 31.78125 74.21875 
Q 44.046875 74.21875 50.515625 64.515625 
Q 56.984375 54.828125 56.984375 36.375 
Q 56.984375 17.96875 50.515625 8.265625 
Q 44.046875 -1.421875 31.78125 -1.421875 
Q 19.53125 -1.421875 13.0625 8.265625 
Q 6.59375 17.96875 6.59375 36.375 
Q 6.59375 54.828125 13.0625 64.515625 
Q 19.53125 74.21875 31.78125 74.21875 
z
" id="DejaVuSans-48"/>
      </defs>
      <g transform="translate(66.833977 339.800562)scale(0.22 -0.22)">
       <use xlink:href="#DejaVuSans-48"/>
      </g>
     </g>
    </g>
    <g id="xtick_2">
     <g id="line2d_2">
      <g>
       <use style="stroke:#000000;stroke-width:2.5;" x="164.014545" xlink:href="#mf2714bbdc9" y="307.584"/>
      </g>
     </g>
     <g id="text_2">
      <!-- 50 -->
      <defs>
       <path d="M 10.796875 72.90625 
L 49.515625 72.90625 
L 49.515625 64.59375 
L 19.828125 64.59375 
L 19.828125 46.734375 
Q 21.96875 47.46875 24.109375 47.828125 
Q 26.265625 48.1875 28.421875 48.1875 
Q 40.625 48.1875 47.75 41.5 
Q 54.890625 34.8125 54.890625 23.390625 
Q 54.890625 11.625 47.5625 5.09375 
Q 40.234375 -1.421875 26.90625 -1.421875 
Q 22.3125 -1.421875 17.546875 -0.640625 
Q 12.796875 0.140625 7.71875 1.703125 
L 7.71875 11.625 
Q 12.109375 9.234375 16.796875 8.0625 
Q 21.484375 6.890625 26.703125 6.890625 
Q 35.15625 6.890625 40.078125 11.328125 
Q 45.015625 15.765625 45.015625 23.390625 
Q 45.015625 31 40.078125 35.4375 
Q 35.15625 39.890625 26.703125 39.890625 
Q 22.75 39.890625 18.8125 39.015625 
Q 14.890625 38.140625 10.796875 36.28125 
z
" id="DejaVuSans-53"/>
      </defs>
      <g transform="translate(150.017045 339.800562)scale(0.22 -0.22)">
       <use xlink:href="#DejaVuSans-53"/>
       <use x="63.623047" xlink:href="#DejaVuSans-48"/>
      </g>
     </g>
    </g>
    <g id="xtick_3">
     <g id="line2d_3">
      <g>
       <use style="stroke:#000000;stroke-width:2.5;" x="254.196364" xlink:href="#mf2714bbdc9" y="307.584"/>
      </g>
     </g>
     <g id="text_3">
      <!-- 100 -->
      <defs>
       <path d="M 12.40625 8.296875 
L 28.515625 8.296875 
L 28.515625 63.921875 
L 10.984375 60.40625 
L 10.984375 69.390625 
L 28.421875 72.90625 
L 38.28125 72.90625 
L 38.28125 8.296875 
L 54.390625 8.296875 
L 54.390625 0 
L 12.40625 0 
z
" id="DejaVuSans-49"/>
      </defs>
      <g transform="translate(233.200114 339.800562)scale(0.22 -0.22)">
       <use xlink:href="#DejaVuSans-49"/>
       <use x="63.623047" xlink:href="#DejaVuSans-48"/>
       <use x="127.246094" xlink:href="#DejaVuSans-48"/>
      </g>
     </g>
    </g>
    <g id="xtick_4">
     <g id="line2d_4">
      <g>
       <use style="stroke:#000000;stroke-width:2.5;" x="344.378182" xlink:href="#mf2714bbdc9" y="307.584"/>
      </g>
     </g>
     <g id="text_4">
      <!-- 150 -->
      <g transform="translate(323.381932 339.800562)scale(0.22 -0.22)">
       <use xlink:href="#DejaVuSans-49"/>
       <use x="63.623047" xlink:href="#DejaVuSans-53"/>
       <use x="127.246094" xlink:href="#DejaVuSans-48"/>
      </g>
     </g>
    </g>
    <g id="text_5">
     <!-- Degrees -->
     <defs>
      <path d="M 19.671875 64.796875 
L 19.671875 8.109375 
L 31.59375 8.109375 
Q 46.6875 8.109375 53.6875 14.9375 
Q 60.6875 21.78125 60.6875 36.53125 
Q 60.6875 51.171875 53.6875 57.984375 
Q 46.6875 64.796875 31.59375 64.796875 
z
M 9.8125 72.90625 
L 30.078125 72.90625 
Q 51.265625 72.90625 61.171875 64.09375 
Q 71.09375 55.28125 71.09375 36.53125 
Q 71.09375 17.671875 61.125 8.828125 
Q 51.171875 0 30.078125 0 
L 9.8125 0 
z
" id="DejaVuSans-68"/>
      <path d="M 56.203125 29.59375 
L 56.203125 25.203125 
L 14.890625 25.203125 
Q 15.484375 15.921875 20.484375 11.0625 
Q 25.484375 6.203125 34.421875 6.203125 
Q 39.59375 6.203125 44.453125 7.46875 
Q 49.3125 8.734375 54.109375 11.28125 
L 54.109375 2.78125 
Q 49.265625 0.734375 44.1875 -0.34375 
Q 39.109375 -1.421875 33.890625 -1.421875 
Q 20.796875 -1.421875 13.15625 6.1875 
Q 5.515625 13.8125 5.515625 26.8125 
Q 5.515625 40.234375 12.765625 48.109375 
Q 20.015625 56 32.328125 56 
Q 43.359375 56 49.78125 48.890625 
Q 56.203125 41.796875 56.203125 29.59375 
z
M 47.21875 32.234375 
Q 47.125 39.59375 43.09375 43.984375 
Q 39.0625 48.390625 32.421875 48.390625 
Q 24.90625 48.390625 20.390625 44.140625 
Q 15.875 39.890625 15.1875 32.171875 
z
" id="DejaVuSans-101"/>
      <path d="M 45.40625 27.984375 
Q 45.40625 37.75 41.375 43.109375 
Q 37.359375 48.484375 30.078125 48.484375 
Q 22.859375 48.484375 18.828125 43.109375 
Q 14.796875 37.75 14.796875 27.984375 
Q 14.796875 18.265625 18.828125 12.890625 
Q 22.859375 7.515625 30.078125 7.515625 
Q 37.359375 7.515625 41.375 12.890625 
Q 45.40625 18.265625 45.40625 27.984375 
z
M 54.390625 6.78125 
Q 54.390625 -7.171875 48.1875 -13.984375 
Q 42 -20.796875 29.203125 -20.796875 
Q 24.46875 -20.796875 20.265625 -20.09375 
Q 16.0625 -19.390625 12.109375 -17.921875 
L 12.109375 -9.1875 
Q 16.0625 -11.328125 19.921875 -12.34375 
Q 23.78125 -13.375 27.78125 -13.375 
Q 36.625 -13.375 41.015625 -8.765625 
Q 45.40625 -4.15625 45.40625 5.171875 
L 45.40625 9.625 
Q 42.625 4.78125 38.28125 2.390625 
Q 33.9375 0 27.875 0 
Q 17.828125 0 11.671875 7.65625 
Q 5.515625 15.328125 5.515625 27.984375 
Q 5.515625 40.671875 11.671875 48.328125 
Q 17.828125 56 27.875 56 
Q 33.9375 56 38.28125 53.609375 
Q 42.625 51.21875 45.40625 46.390625 
L 45.40625 54.6875 
L 54.390625 54.6875 
z
" id="DejaVuSans-103"/>
      <path d="M 41.109375 46.296875 
Q 39.59375 47.171875 37.8125 47.578125 
Q 36.03125 48 33.890625 48 
Q 26.265625 48 22.1875 43.046875 
Q 18.109375 38.09375 18.109375 28.8125 
L 18.109375 0 
L 9.078125 0 
L 9.078125 54.6875 
L 18.109375 54.6875 
L 18.109375 46.1875 
Q 20.953125 51.171875 25.484375 53.578125 
Q 30.03125 56 36.53125 56 
Q 37.453125 56 38.578125 55.875 
Q 39.703125 55.765625 41.0625 55.515625 
z
" id="DejaVuSans-114"/>
      <path d="M 44.28125 53.078125 
L 44.28125 44.578125 
Q 40.484375 46.53125 36.375 47.5 
Q 32.28125 48.484375 27.875 48.484375 
Q 21.1875 48.484375 17.84375 46.4375 
Q 14.5 44.390625 14.5 40.28125 
Q 14.5 37.15625 16.890625 35.375 
Q 19.28125 33.59375 26.515625 31.984375 
L 29.59375 31.296875 
Q 39.15625 29.25 43.1875 25.515625 
Q 47.21875 21.78125 47.21875 15.09375 
Q 47.21875 7.46875 41.1875 3.015625 
Q 35.15625 -1.421875 24.609375 -1.421875 
Q 20.21875 -1.421875 15.453125 -0.5625 
Q 10.6875 0.296875 5.421875 2 
L 5.421875 11.28125 
Q 10.40625 8.6875 15.234375 7.390625 
Q 20.0625 6.109375 24.8125 6.109375 
Q 31.15625 6.109375 34.5625 8.28125 
Q 37.984375 10.453125 37.984375 14.40625 
Q 37.984375 18.0625 35.515625 20.015625 
Q 33.0625 21.96875 24.703125 23.78125 
L 21.578125 24.515625 
Q 13.234375 26.265625 9.515625 29.90625 
Q 5.8125 33.546875 5.8125 39.890625 
Q 5.8125 47.609375 11.28125 51.796875 
Q 16.75 56 26.8125 56 
Q 31.78125 56 36.171875 55.265625 
Q 40.578125 54.546875 44.28125 53.078125 
z
" id="DejaVuSans-115"/>
     </defs>
     <g transform="translate(185.97 366.612125)scale(0.24 -0.24)">
      <use xlink:href="#DejaVuSans-68"/>
      <use x="77.001953" xlink:href="#DejaVuSans-101"/>
      <use x="138.525391" xlink:href="#DejaVuSans-103"/>
      <use x="202.001953" xlink:href="#DejaVuSans-114"/>
      <use x="243.083984" xlink:href="#DejaVuSans-101"/>
      <use x="304.607422" xlink:href="#DejaVuSans-101"/>
      <use x="366.130859" xlink:href="#DejaVuSans-115"/>
     </g>
    </g>
   </g>
   <g id="matplotlib.axis_2">
    <g id="ytick_1">
     <g id="line2d_5">
      <defs>
       <path d="M 0 0 
L -12 0 
" id="maf5dd44375" style="stroke:#000000;stroke-width:2.5;"/>
      </defs>
      <g>
       <use style="stroke:#000000;stroke-width:2.5;" x="57.6" xlink:href="#maf5dd44375" y="285.408"/>
      </g>
     </g>
     <g id="text_6">
      <!-- 0.0 -->
      <defs>
       <path d="M 10.6875 12.40625 
L 21 12.40625 
L 21 0 
L 10.6875 0 
z
" id="DejaVuSans-46"/>
      </defs>
      <g transform="translate(7.113125 293.766281)scale(0.22 -0.22)">
       <use xlink:href="#DejaVuSans-48"/>
       <use x="63.623047" xlink:href="#DejaVuSans-46"/>
       <use x="95.410156" xlink:href="#DejaVuSans-48"/>
      </g>
     </g>
    </g>
    <g id="ytick_2">
     <g id="line2d_6">
      <g>
       <use style="stroke:#000000;stroke-width:2.5;" x="57.6" xlink:href="#maf5dd44375" y="205.365326"/>
      </g>
     </g>
     <g id="text_7">
      <!-- 0.5 -->
      <g transform="translate(7.113125 213.723607)scale(0.22 -0.22)">
       <use xlink:href="#DejaVuSans-48"/>
       <use x="63.623047" xlink:href="#DejaVuSans-46"/>
       <use x="95.410156" xlink:href="#DejaVuSans-53"/>
      </g>
     </g>
    </g>
    <g id="ytick_3">
     <g id="line2d_7">
      <g>
       <use style="stroke:#000000;stroke-width:2.5;" x="57.6" xlink:href="#maf5dd44375" y="125.322651"/>
      </g>
     </g>
     <g id="text_8">
      <!-- 1.0 -->
      <g transform="translate(7.113125 133.680932)scale(0.22 -0.22)">
       <use xlink:href="#DejaVuSans-49"/>
       <use x="63.623047" xlink:href="#DejaVuSans-46"/>
       <use x="95.410156" xlink:href="#DejaVuSans-48"/>
      </g>
     </g>
    </g>
    <g id="ytick_4">
     <g id="line2d_8">
      <g>
       <use style="stroke:#000000;stroke-width:2.5;" x="57.6" xlink:href="#maf5dd44375" y="45.279977"/>
      </g>
     </g>
     <g id="text_9">
      <!-- 1.5 -->
      <g transform="translate(7.113125 53.638258)scale(0.22 -0.22)">
       <use xlink:href="#DejaVuSans-49"/>
       <use x="63.623047" xlink:href="#DejaVuSans-46"/>
       <use x="95.410156" xlink:href="#DejaVuSans-53"/>
      </g>
     </g>
    </g>
    <g id="text_10">
     <!-- Activation -->
     <defs>
      <path d="M 34.1875 63.1875 
L 20.796875 26.90625 
L 47.609375 26.90625 
z
M 28.609375 72.90625 
L 39.796875 72.90625 
L 67.578125 0 
L 57.328125 0 
L 50.6875 18.703125 
L 17.828125 18.703125 
L 11.1875 0 
L 0.78125 0 
z
" id="DejaVuSans-65"/>
      <path d="M 48.78125 52.59375 
L 48.78125 44.1875 
Q 44.96875 46.296875 41.140625 47.34375 
Q 37.3125 48.390625 33.40625 48.390625 
Q 24.65625 48.390625 19.8125 42.84375 
Q 14.984375 37.3125 14.984375 27.296875 
Q 14.984375 17.28125 19.8125 11.734375 
Q 24.65625 6.203125 33.40625 6.203125 
Q 37.3125 6.203125 41.140625 7.25 
Q 44.96875 8.296875 48.78125 10.40625 
L 48.78125 2.09375 
Q 45.015625 0.34375 40.984375 -0.53125 
Q 36.96875 -1.421875 32.421875 -1.421875 
Q 20.0625 -1.421875 12.78125 6.34375 
Q 5.515625 14.109375 5.515625 27.296875 
Q 5.515625 40.671875 12.859375 48.328125 
Q 20.21875 56 33.015625 56 
Q 37.15625 56 41.109375 55.140625 
Q 45.0625 54.296875 48.78125 52.59375 
z
" id="DejaVuSans-99"/>
      <path d="M 18.3125 70.21875 
L 18.3125 54.6875 
L 36.8125 54.6875 
L 36.8125 47.703125 
L 18.3125 47.703125 
L 18.3125 18.015625 
Q 18.3125 11.328125 20.140625 9.421875 
Q 21.96875 7.515625 27.59375 7.515625 
L 36.8125 7.515625 
L 36.8125 0 
L 27.59375 0 
Q 17.1875 0 13.234375 3.875 
Q 9.28125 7.765625 9.28125 18.015625 
L 9.28125 47.703125 
L 2.6875 47.703125 
L 2.6875 54.6875 
L 9.28125 54.6875 
L 9.28125 70.21875 
z
" id="DejaVuSans-116"/>
      <path d="M 9.421875 54.6875 
L 18.40625 54.6875 
L 18.40625 0 
L 9.421875 0 
z
M 9.421875 75.984375 
L 18.40625 75.984375 
L 18.40625 64.59375 
L 9.421875 64.59375 
z
" id="DejaVuSans-105"/>
      <path d="M 2.984375 54.6875 
L 12.5 54.6875 
L 29.59375 8.796875 
L 46.6875 54.6875 
L 56.203125 54.6875 
L 35.6875 0 
L 23.484375 0 
z
" id="DejaVuSans-118"/>
      <path d="M 34.28125 27.484375 
Q 23.390625 27.484375 19.1875 25 
Q 14.984375 22.515625 14.984375 16.5 
Q 14.984375 11.71875 18.140625 8.90625 
Q 21.296875 6.109375 26.703125 6.109375 
Q 34.1875 6.109375 38.703125 11.40625 
Q 43.21875 16.703125 43.21875 25.484375 
L 43.21875 27.484375 
z
M 52.203125 31.203125 
L 52.203125 0 
L 43.21875 0 
L 43.21875 8.296875 
Q 40.140625 3.328125 35.546875 0.953125 
Q 30.953125 -1.421875 24.3125 -1.421875 
Q 15.921875 -1.421875 10.953125 3.296875 
Q 6 8.015625 6 15.921875 
Q 6 25.140625 12.171875 29.828125 
Q 18.359375 34.515625 30.609375 34.515625 
L 43.21875 34.515625 
L 43.21875 35.40625 
Q 43.21875 41.609375 39.140625 45 
Q 35.0625 48.390625 27.6875 48.390625 
Q 23 48.390625 18.546875 47.265625 
Q 14.109375 46.140625 10.015625 43.890625 
L 10.015625 52.203125 
Q 14.9375 54.109375 19.578125 55.046875 
Q 24.21875 56 28.609375 56 
Q 40.484375 56 46.34375 49.84375 
Q 52.203125 43.703125 52.203125 31.203125 
z
" id="DejaVuSans-97"/>
      <path d="M 30.609375 48.390625 
Q 23.390625 48.390625 19.1875 42.75 
Q 14.984375 37.109375 14.984375 27.296875 
Q 14.984375 17.484375 19.15625 11.84375 
Q 23.34375 6.203125 30.609375 6.203125 
Q 37.796875 6.203125 41.984375 11.859375 
Q 46.1875 17.53125 46.1875 27.296875 
Q 46.1875 37.015625 41.984375 42.703125 
Q 37.796875 48.390625 30.609375 48.390625 
z
M 30.609375 56 
Q 42.328125 56 49.015625 48.375 
Q 55.71875 40.765625 55.71875 27.296875 
Q 55.71875 13.875 49.015625 6.21875 
Q 42.328125 -1.421875 30.609375 -1.421875 
Q 18.84375 -1.421875 12.171875 6.21875 
Q 5.515625 13.875 5.515625 27.296875 
Q 5.515625 40.765625 12.171875 48.375 
Q 18.84375 56 30.609375 56 
z
" id="DejaVuSans-111"/>
      <path d="M 54.890625 33.015625 
L 54.890625 0 
L 45.90625 0 
L 45.90625 32.71875 
Q 45.90625 40.484375 42.875 44.328125 
Q 39.84375 48.1875 33.796875 48.1875 
Q 26.515625 48.1875 22.3125 43.546875 
Q 18.109375 38.921875 18.109375 30.90625 
L 18.109375 0 
L 9.078125 0 
L 9.078125 54.6875 
L 18.109375 54.6875 
L 18.109375 46.1875 
Q 21.34375 51.125 25.703125 53.5625 
Q 30.078125 56 35.796875 56 
Q 45.21875 56 50.046875 50.171875 
Q 54.890625 44.34375 54.890625 33.015625 
z
" id="DejaVuSans-110"/>
     </defs>
     <g transform="translate(-1.878125 234.813)rotate(-90)scale(0.24 -0.24)">
      <use xlink:href="#DejaVuSans-65"/>
      <use x="68.392578" xlink:href="#DejaVuSans-99"/>
      <use x="123.373047" xlink:href="#DejaVuSans-116"/>
      <use x="162.582031" xlink:href="#DejaVuSans-105"/>
      <use x="190.365234" xlink:href="#DejaVuSans-118"/>
      <use x="249.544922" xlink:href="#DejaVuSans-97"/>
      <use x="310.824219" xlink:href="#DejaVuSans-116"/>
      <use x="350.033203" xlink:href="#DejaVuSans-105"/>
      <use x="377.816406" xlink:href="#DejaVuSans-111"/>
      <use x="438.998047" xlink:href="#DejaVuSans-110"/>
     </g>
    </g>
   </g>
   <g id="line2d_9">
    <path clip-path="url(#p27340aec08)" d="M 73.832727 244.67165 
L 90.065455 175.311499 
L 106.298182 151.265199 
L 122.530909 120.210119 
L 138.763636 83.882482 
L 154.996364 78.751706 
L 171.229091 86.222272 
L 187.461818 32.008569 
L 203.694545 13.98888 
L 219.927273 17.315448 
L 236.16 41.172276 
L 252.392727 40.393395 
L 268.625455 44.106064 
L 284.858182 133.888801 
L 301.090909 119.799744 
L 317.323636 189.559942 
L 333.556364 207.218616 
L 349.789091 225.621004 
L 366.021818 215.375288 
L 382.254545 228.310179 
L 398.487273 244.67165 
" style="fill:none;stroke:#0e4db3;stroke-linecap:square;stroke-width:3;"/>
   </g>
   <g id="line2d_10">
    <path clip-path="url(#p27340aec08)" d="M 73.832727 252.994975 
L 90.065455 196.190569 
L 106.298182 174.852995 
L 122.530909 151.894797 
L 138.763636 123.847866 
L 154.996364 120.825625 
L 171.229091 124.236543 
L 187.461818 76.155221 
L 203.694545 67.215251 
L 219.927273 64.665484 
L 236.16 76.946659 
L 252.392727 84.798288 
L 268.625455 86.47181 
L 284.858182 164.019248 
L 301.090909 150.040743 
L 317.323636 206.365977 
L 333.556364 219.924098 
L 349.789091 232.217172 
L 366.021818 226.959051 
L 382.254545 236.63616 
L 398.487273 252.994975 
" style="fill:none;stroke:#d44e4e;stroke-linecap:square;stroke-width:3;"/>
   </g>
   <g id="line2d_11">
    <path clip-path="url(#p27340aec08)" d="M 73.832727 8.486621 
L 90.065455 6.382209 
L 106.298182 25.048815 
L 122.530909 60.927968 
L 138.763636 67.318857 
L 154.996364 75.153615 
L 171.229091 74.655112 
L 187.461818 34.279124 
L 203.694545 20.904245 
L 219.927273 68.604828 
L 236.16 68.573111 
L 252.392727 61.430708 
L 268.625455 21.730854 
L 284.858182 50.425924 
L 301.090909 14.529138 
L 317.323636 27.020806 
L 333.556364 25.622184 
L 342.912122 -1 
M 393.055654 -1 
L 398.487273 8.486621 
" style="fill:none;stroke:#0e4db3;stroke-linecap:square;stroke-width:3;"/>
   </g>
   <g id="line2d_12">
    <path clip-path="url(#p27340aec08)" d="M 73.832727 66.204142 
L 90.065455 41.043289 
L 106.298182 72.204503 
L 122.530909 107.171284 
L 138.763636 111.378373 
L 154.996364 118.372878 
L 171.229091 118.364099 
L 187.461818 87.202046 
L 203.694545 77.732562 
L 219.927273 114.233212 
L 236.16 114.103062 
L 252.392727 105.284445 
L 268.625455 76.188789 
L 284.858182 94.417006 
L 301.090909 71.444057 
L 317.323636 80.923713 
L 333.556364 79.397554 
L 349.789091 43.641034 
L 366.021818 50.225469 
L 382.254545 43.482906 
L 398.487273 66.204142 
" style="fill:none;stroke:#d44e4e;stroke-linecap:square;stroke-width:3;"/>
   </g>
   <g id="line2d_13">
    <path clip-path="url(#p27340aec08)" d="M 73.832727 4.716224 
L 80.675906 -1 
M 276.997505 -1 
L 284.858182 8.605971 
L 301.090909 12.24366 
L 317.323636 13.817299 
L 333.556364 13.085192 
L 349.789091 15.389716 
L 366.021818 9.072127 
L 382.254545 5.740788 
L 398.487273 4.716224 
" style="fill:none;stroke:#0e4db3;stroke-linecap:square;stroke-width:3;"/>
   </g>
   <g id="line2d_14">
    <path clip-path="url(#p27340aec08)" d="M 73.832727 53.843731 
L 90.065455 44.080664 
L 106.298182 43.262471 
L 122.530909 42.375233 
L 138.763636 23.922479 
L 154.996364 23.618323 
L 171.229091 19.234138 
L 187.461818 34.299066 
L 203.694545 12.816914 
L 219.927273 23.14459 
L 236.16 37.992289 
L 252.392727 37.648688 
L 268.625455 40.615453 
L 284.858182 51.194213 
L 301.090909 53.872834 
L 317.323636 57.495752 
L 333.556364 59.334234 
L 349.789091 61.078633 
L 366.021818 55.892324 
L 382.254545 53.863349 
L 398.487273 53.843731 
" style="fill:none;stroke:#d44e4e;stroke-linecap:square;stroke-width:3;"/>
   </g>
   <g id="line2d_15">
    <path clip-path="url(#p27340aec08)" d="M 126.114361 -1 
L 138.763636 1.368034 
L 154.996364 8.966957 
L 171.229091 2.327198 
L 178.022213 -1 
" style="fill:none;stroke:#0e4db3;stroke-linecap:square;stroke-width:3;"/>
   </g>
   <g id="line2d_16">
    <path clip-path="url(#p27340aec08)" d="M 73.832727 34.608413 
L 90.065455 34.596008 
L 106.298182 35.453781 
L 122.530909 57.629376 
L 138.763636 59.07962 
L 154.996364 62.749446 
L 171.229091 60.370286 
L 187.461818 50.274686 
L 203.694545 40.070576 
L 219.927273 44.060206 
L 236.16 44.644433 
L 252.392727 30.120966 
L 268.625455 23.567217 
L 284.858182 21.740605 
L 301.090909 13.510758 
L 317.323636 13.504918 
L 327.32255 -1 
M 340.333348 -1 
L 349.789091 11.617563 
L 366.021818 8.999209 
L 382.254545 22.724521 
L 398.487273 34.608413 
" style="fill:none;stroke:#d44e4e;stroke-linecap:square;stroke-width:3;"/>
   </g>
   <g id="line2d_17">
    <path clip-path="url(#p27340aec08)" d="M 73.832727 183.469611 
L 90.065455 181.911134 
L 106.298182 183.312333 
L 122.530909 179.921768 
L 138.763636 140.735379 
L 154.996364 135.656396 
L 171.229091 103.989714 
L 187.461818 113.74488 
L 203.694545 65.751325 
L 219.927273 28.03871 
L 236.16 28.633089 
L 248.093612 -1 
M 338.443853 -1 
L 349.789091 91.183242 
L 366.021818 103.374533 
L 382.254545 102.027837 
L 398.487273 183.469611 
" style="fill:none;stroke:#0e4db3;stroke-linecap:square;stroke-width:3;"/>
   </g>
   <g id="line2d_18">
    <path clip-path="url(#p27340aec08)" d="M 73.832727 192.204641 
L 90.065455 189.927178 
L 106.298182 191.156586 
L 122.530909 189.677345 
L 138.763636 158.98994 
L 154.996364 155.145833 
L 171.229091 127.423075 
L 187.461818 134.892935 
L 203.694545 97.235968 
L 219.927273 69.662998 
L 236.16 69.739218 
L 252.392727 36.069229 
L 268.625455 7.949378 
L 284.858182 26.296982 
L 295.762912 -1 
M 311.861076 -1 
L 317.323636 5.764528 
L 333.556364 13.635298 
L 349.789091 116.718439 
L 366.021818 126.900688 
L 382.254545 126.799307 
L 398.487273 192.204641 
" style="fill:none;stroke:#d44e4e;stroke-linecap:square;stroke-width:3;"/>
   </g>
   <g id="line2d_19">
    <path clip-path="url(#p27340aec08)" d="M 73.832727 285.408 
L 90.065455 285.408 
L 106.298182 285.408 
L 122.530909 285.408 
L 138.763636 285.408 
L 154.996364 285.408 
L 171.229091 285.408 
L 187.461818 285.408 
L 203.694545 285.408 
L 219.927273 285.408 
L 236.16 285.408 
L 252.392727 285.408 
L 268.625455 285.408 
L 284.858182 285.408 
L 301.090909 285.408 
L 317.323636 285.408 
L 333.556364 285.408 
L 349.789091 285.408 
L 366.021818 285.408 
L 382.254545 285.408 
L 398.487273 285.408 
" style="fill:none;stroke:#0e4db3;stroke-linecap:square;stroke-width:3;"/>
   </g>
   <g id="line2d_20">
    <path clip-path="url(#p27340aec08)" d="M 73.832727 285.408 
L 90.065455 285.408 
L 106.298182 285.408 
L 122.530909 285.408 
L 138.763636 285.408 
L 154.996364 285.408 
L 171.229091 285.408 
L 187.461818 285.408 
L 203.694545 285.408 
L 219.927273 285.408 
L 236.16 285.408 
L 252.392727 285.408 
L 268.625455 285.408 
L 284.858182 285.408 
L 301.090909 285.408 
L 317.323636 285.408 
L 333.556364 285.408 
L 349.789091 285.408 
L 366.021818 285.408 
L 382.254545 285.408 
L 398.487273 285.408 
" style="fill:none;stroke:#d44e4e;stroke-linecap:square;stroke-width:3;"/>
   </g>
   <g id="line2d_21">
    <path clip-path="url(#p27340aec08)" d="M 73.832727 285.408 
L 90.065455 283.976938 
L 106.298182 284.837928 
L 122.530909 284.314337 
L 138.763636 284.928263 
L 154.996364 285.408 
L 171.229091 285.408 
L 187.461818 285.408 
L 203.694545 285.408 
L 219.927273 285.408 
L 236.16 285.408 
L 252.392727 285.408 
L 268.625455 282.080103 
L 284.858182 285.408 
L 301.090909 285.408 
L 317.323636 285.408 
L 333.556364 285.408 
L 349.789091 285.408 
L 366.021818 285.408 
L 382.254545 285.408 
L 398.487273 285.408 
" style="fill:none;stroke:#0e4db3;stroke-linecap:square;stroke-width:3;"/>
   </g>
   <g id="line2d_22">
    <path clip-path="url(#p27340aec08)" d="M 73.832727 285.408 
L 90.065455 285.408 
L 106.298182 285.408 
L 122.530909 285.408 
L 138.763636 285.408 
L 154.996364 285.408 
L 171.229091 285.408 
L 187.461818 285.408 
L 203.694545 285.408 
L 219.927273 285.408 
L 236.16 285.408 
L 252.392727 285.408 
L 268.625455 285.408 
L 284.858182 285.408 
L 301.090909 285.408 
L 317.323636 285.408 
L 333.556364 285.408 
L 349.789091 285.408 
L 366.021818 285.408 
L 382.254545 285.408 
L 398.487273 285.408 
" style="fill:none;stroke:#d44e4e;stroke-linecap:square;stroke-width:3;"/>
   </g>
   <g id="line2d_23">
    <path clip-path="url(#p27340aec08)" d="M 73.832727 203.209196 
L 90.065455 177.281104 
L 106.298182 139.291738 
L 122.530909 135.632961 
L 138.763636 96.374932 
L 154.996364 88.410424 
L 171.229091 62.081117 
L 187.461818 65.376693 
L 203.694545 27.51452 
L 219.927273 29.440672 
L 236.16 119.319561 
L 252.392727 33.996438 
L 268.625455 76.213197 
L 284.858182 128.50239 
L 301.090909 118.264273 
L 317.323636 155.081673 
L 333.556364 159.624424 
L 349.789091 167.08813 
L 366.021818 169.614873 
L 382.254545 194.381992 
L 398.487273 203.209196 
" style="fill:none;stroke:#0e4db3;stroke-linecap:square;stroke-width:3;"/>
   </g>
   <g id="line2d_24">
    <path clip-path="url(#p27340aec08)" d="M 73.832727 204.782262 
L 90.065455 184.941677 
L 106.298182 154.1627 
L 122.530909 148.080165 
L 138.763636 118.859969 
L 154.996364 113.548509 
L 171.229091 91.932943 
L 187.461818 92.850867 
L 203.694545 64.474094 
L 219.927273 64.602011 
L 236.16 137.07998 
L 252.392727 68.804787 
L 268.625455 102.186212 
L 284.858182 146.160797 
L 301.090909 136.060712 
L 317.323636 165.400562 
L 333.556364 168.625366 
L 349.789091 171.636673 
L 366.021818 174.544135 
L 382.254545 196.152994 
L 398.487273 204.782262 
" style="fill:none;stroke:#d44e4e;stroke-linecap:square;stroke-width:3;"/>
   </g>
   <g id="line2d_25">
    <path clip-path="url(#p27340aec08)" d="M 73.832727 115.720325 
L 90.065455 103.971546 
L 106.298182 86.296851 
L 122.530909 79.156146 
L 138.763636 87.864097 
L 154.996364 88.340349 
L 171.229091 89.182778 
L 187.461818 107.608357 
L 203.694545 104.742698 
L 219.927273 114.015677 
L 236.16 122.169725 
L 252.392727 112.192138 
L 268.625455 110.069844 
L 284.858182 110.285413 
L 301.090909 110.689796 
L 317.323636 112.289847 
L 333.556364 75.113311 
L 349.789091 95.625002 
L 366.021818 89.217281 
L 382.254545 116.329915 
L 398.487273 115.720325 
" style="fill:none;stroke:#0e4db3;stroke-linecap:square;stroke-width:3;"/>
   </g>
   <g id="line2d_26">
    <path clip-path="url(#p27340aec08)" d="M 73.832727 151.951476 
L 90.065455 142.588288 
L 106.298182 128.937802 
L 122.530909 120.771389 
L 138.763636 133.524427 
L 154.996364 134.16976 
L 171.229091 133.891825 
L 187.461818 145.208188 
L 203.694545 139.409637 
L 219.927273 152.935678 
L 236.16 146.714557 
L 252.392727 147.731048 
L 268.625455 147.409832 
L 284.858182 149.614977 
L 301.090909 150.584399 
L 317.323636 150.248402 
L 333.556364 121.386761 
L 349.789091 127.68204 
L 366.021818 126.326948 
L 382.254545 151.956037 
L 398.487273 151.951476 
" style="fill:none;stroke:#d44e4e;stroke-linecap:square;stroke-width:3;"/>
   </g>
   <g id="line2d_27">
    <path clip-path="url(#p27340aec08)" d="M 73.832727 279.241956 
L 90.065455 214.224781 
L 106.298182 159.413664 
L 122.530909 162.909867 
L 138.763636 96.431706 
L 154.996364 91.428066 
L 171.229091 92.395703 
L 187.461818 98.366408 
L 203.694545 81.690399 
L 219.927273 81.660877 
L 236.16 105.442171 
L 252.392727 89.773722 
L 268.625455 110.121294 
L 284.858182 158.956382 
L 301.090909 139.302253 
L 317.323636 210.836783 
L 333.556364 211.971039 
L 349.789091 229.56491 
L 366.021818 263.982266 
L 382.254545 232.417016 
L 398.487273 279.241956 
" style="fill:none;stroke:#0e4db3;stroke-linecap:square;stroke-width:3;"/>
   </g>
   <g id="line2d_28">
    <path clip-path="url(#p27340aec08)" d="M 73.832727 283.808082 
L 90.065455 234.256642 
L 106.298182 190.082977 
L 122.530909 177.651871 
L 138.763636 142.049346 
L 154.996364 137.70913 
L 171.229091 137.856609 
L 187.461818 137.640505 
L 203.694545 126.133745 
L 219.927273 126.251701 
L 236.16 146.515467 
L 252.392727 132.193112 
L 268.625455 144.921971 
L 284.858182 190.760371 
L 301.090909 171.50156 
L 317.323636 226.298832 
L 333.556364 232.290276 
L 349.789091 247.951841 
L 366.021818 271.314333 
L 382.254545 248.023438 
L 398.487273 283.808082 
" style="fill:none;stroke:#d44e4e;stroke-linecap:square;stroke-width:3;"/>
   </g>
   <g id="line2d_29">
    <path clip-path="url(#p27340aec08)" d="M 73.832727 31.785767 
L 90.065455 30.256918 
L 106.298182 14.682208 
L 122.530909 39.468945 
L 138.763636 54.293857 
L 154.996364 106.65801 
L 171.229091 115.876029 
L 187.461818 107.427692 
L 203.694545 26.350836 
L 211.694577 -1 
M 260.811498 -1 
L 268.625455 26.065154 
L 284.858182 60.544901 
L 301.090909 13.610088 
L 315.180977 -1 
M 387.524771 -1 
L 398.487273 31.785767 
" style="fill:none;stroke:#0e4db3;stroke-linecap:square;stroke-width:3;"/>
   </g>
   <g id="line2d_30">
    <path clip-path="url(#p27340aec08)" d="M 73.832727 67.951098 
L 90.065455 67.909362 
L 106.298182 55.315864 
L 122.530909 71.662813 
L 138.763636 88.39134 
L 154.996364 128.337889 
L 171.229091 135.283902 
L 187.461818 124.683539 
L 203.694545 60.583584 
L 219.927273 20.390322 
L 236.16 23.330599 
L 252.392727 19.215837 
L 268.625455 63.122283 
L 284.858182 90.934448 
L 301.090909 52.810465 
L 317.323636 39.947964 
L 333.556364 37.064022 
L 349.789091 31.03805 
L 366.021818 13.73875 
L 382.254545 29.342544 
L 398.487273 67.951098 
" style="fill:none;stroke:#d44e4e;stroke-linecap:square;stroke-width:3;"/>
   </g>
   <g id="line2d_31">
    <path clip-path="url(#p27340aec08)" d="M 73.832727 23.664887 
L 90.065455 21.96688 
L 106.298182 49.333995 
L 122.530909 56.982192 
L 138.763636 111.32471 
L 154.996364 148.56947 
L 171.229091 110.525982 
L 187.461818 61.726352 
L 203.694545 41.581181 
L 219.927273 92.725621 
L 236.16 86.614804 
L 252.392727 86.822129 
L 268.625455 116.026027 
L 284.858182 137.928153 
L 301.090909 102.715593 
L 317.323636 96.282453 
L 333.556364 62.814636 
L 349.789091 61.429639 
L 366.021818 42.177374 
L 382.254545 24.73466 
L 398.487273 23.664887 
" style="fill:none;stroke:#0e4db3;stroke-linecap:square;stroke-width:3;"/>
   </g>
   <g id="line2d_32">
    <path clip-path="url(#p27340aec08)" d="M 73.832727 64.854068 
L 90.065455 57.672753 
L 106.298182 85.627167 
L 122.530909 75.798319 
L 138.763636 134.513724 
L 154.996364 163.410136 
L 171.229091 131.8993 
L 187.461818 91.459268 
L 203.694545 75.921198 
L 219.927273 118.721651 
L 236.16 113.854497 
L 252.392727 112.939187 
L 268.625455 137.588082 
L 284.858182 153.076801 
L 301.090909 128.426074 
L 317.323636 119.50555 
L 333.556364 95.891677 
L 349.789091 90.118965 
L 366.021818 76.767597 
L 382.254545 57.562488 
L 398.487273 64.854068 
" style="fill:none;stroke:#d44e4e;stroke-linecap:square;stroke-width:3;"/>
   </g>
   <g id="line2d_33">
    <path clip-path="url(#p27340aec08)" style="fill:none;stroke:#0e4db3;stroke-linecap:square;stroke-width:3;"/>
   </g>
   <g id="line2d_34">
    <path clip-path="url(#p27340aec08)" style="fill:none;stroke:#d44e4e;stroke-linecap:square;stroke-width:3;"/>
   </g>
   <g id="line2d_35">
    <path clip-path="url(#p27340aec08)" d="M 73.832727 98.111374 
L 90.065455 63.944541 
L 106.298182 63.648 
L 122.530909 84.448007 
L 138.763636 87.320174 
L 154.996364 79.179676 
L 171.229091 78.721687 
L 187.461818 77.55434 
L 203.694545 104.461977 
L 219.927273 103.746092 
L 236.16 109.96809 
L 252.392727 148.912718 
L 268.625455 190.503839 
L 284.858182 206.202946 
L 301.090909 206.63333 
L 317.323636 200.397066 
L 333.556364 193.625859 
L 349.789091 183.117212 
L 366.021818 139.953903 
L 382.254545 98.404709 
L 398.487273 98.111374 
" style="fill:none;stroke:#0e4db3;stroke-linecap:square;stroke-width:3;"/>
   </g>
   <g id="line2d_36">
    <path clip-path="url(#p27340aec08)" d="M 73.832727 124.536137 
L 90.065455 97.14576 
L 106.298182 98.219578 
L 122.530909 105.508239 
L 138.763636 116.431211 
L 154.996364 109.325353 
L 171.229091 108.487771 
L 187.461818 106.732589 
L 203.694545 128.327087 
L 219.927273 128.372249 
L 236.16 134.051746 
L 252.392727 164.841659 
L 268.625455 198.217235 
L 284.858182 209.775698 
L 301.090909 209.949459 
L 317.323636 204.590519 
L 333.556364 199.825568 
L 349.789091 190.868881 
L 366.021818 155.656521 
L 382.254545 121.663722 
L 398.487273 124.536137 
" style="fill:none;stroke:#d44e4e;stroke-linecap:square;stroke-width:3;"/>
   </g>
   <g id="patch_3">
    <path d="M 57.6 307.584 
L 57.6 41.472 
" style="fill:none;stroke:#000000;stroke-linecap:square;stroke-linejoin:miter;stroke-width:2.5;"/>
   </g>
   <g id="patch_4">
    <path d="M 414.72 307.584 
L 414.72 41.472 
" style="fill:none;stroke:#000000;stroke-linecap:square;stroke-linejoin:miter;stroke-width:2.5;"/>
   </g>
   <g id="patch_5">
    <path d="M 57.6 307.584 
L 414.72 307.584 
" style="fill:none;stroke:#000000;stroke-linecap:square;stroke-linejoin:miter;stroke-width:2.5;"/>
   </g>
   <g id="patch_6">
    <path d="M 57.6 41.472 
L 414.72 41.472 
" style="fill:none;stroke:#000000;stroke-linecap:square;stroke-linejoin:miter;stroke-width:2.5;"/>
   </g>
  </g>
 </g>
 <defs>
  <clipPath id="p27340aec08">
   <rect height="266.112" width="357.12" x="57.6" y="41.472"/>
  </clipPath>
 </defs>
</svg>
