<?xml version="1.0" encoding="utf-8" standalone="no"?>
<!DOCTYPE svg PUBLIC "-//W3C//DTD SVG 1.1//EN"
  "http://www.w3.org/Graphics/SVG/1.1/DTD/svg11.dtd">
<!-- Created with matplotlib (https://matplotlib.org/) -->
<svg height="345.6pt" version="1.1" viewBox="0 0 460.8 345.6" width="460.8pt" xmlns="http://www.w3.org/2000/svg" xmlns:xlink="http://www.w3.org/1999/xlink">
 <defs>
  <style type="text/css">
*{stroke-linecap:butt;stroke-linejoin:round;}
  </style>
 </defs>
 <g id="figure_1">
  <g id="patch_1">
   <path d="M 0 345.6 
L 460.8 345.6 
L 460.8 0 
L 0 0 
z
" style="fill:#ffffff;"/>
  </g>
  <g id="axes_1">
   <g id="patch_2">
    <path d="M 57.6 307.584 
L 414.72 307.584 
L 414.72 41.472 
L 57.6 41.472 
z
" style="fill:#ffffff;"/>
   </g>
   <g id="matplotlib.axis_1">
    <g id="xtick_1">
     <g id="line2d_1">
      <defs>
       <path d="M 0 0 
L 0 12 
" id="ma61cd39f4b" style="stroke:#000000;stroke-width:2.5;"/>
      </defs>
      <g>
       <use style="stroke:#000000;stroke-width:2.5;" x="73.832727" xlink:href="#ma61cd39f4b" y="307.584"/>
      </g>
     </g>
     <g id="text_1">
      <!-- 0 -->
      <defs>
       <path d="M 31.78125 66.40625 
Q 24.171875 66.40625 20.328125 58.90625 
Q 16.5 51.421875 16.5 36.375 
Q 16.5 21.390625 20.328125 13.890625 
Q 24.171875 6.390625 31.78125 6.390625 
Q 39.453125 6.390625 43.28125 13.890625 
Q 47.125 21.390625 47.125 36.375 
Q 47.125 51.421875 43.28125 58.90625 
Q 39.453125 66.40625 31.78125 66.40625 
z
M 31.78125 74.21875 
Q 44.046875 74.21875 50.515625 64.515625 
Q 56.984375 54.828125 56.984375 36.375 
Q 56.984375 17.96875 50.515625 8.265625 
Q 44.046875 -1.421875 31.78125 -1.421875 
Q 19.53125 -1.421875 13.0625 8.265625 
Q 6.59375 17.96875 6.59375 36.375 
Q 6.59375 54.828125 13.0625 64.515625 
Q 19.53125 74.21875 31.78125 74.21875 
z
" id="DejaVuSans-48"/>
      </defs>
      <g transform="translate(57.735602 361.532094)scale(0.506 -0.506)">
       <use xlink:href="#DejaVuSans-48"/>
      </g>
     </g>
    </g>
    <g id="xtick_2">
     <g id="line2d_2">
      <g>
       <use style="stroke:#000000;stroke-width:2.5;" x="254.196364" xlink:href="#ma61cd39f4b" y="307.584"/>
      </g>
     </g>
     <g id="text_2">
      <!-- 100 -->
      <defs>
       <path d="M 12.40625 8.296875 
L 28.515625 8.296875 
L 28.515625 63.921875 
L 10.984375 60.40625 
L 10.984375 69.390625 
L 28.421875 72.90625 
L 38.28125 72.90625 
L 38.28125 8.296875 
L 54.390625 8.296875 
L 54.390625 0 
L 12.40625 0 
z
" id="DejaVuSans-49"/>
      </defs>
      <g transform="translate(205.904989 361.532094)scale(0.506 -0.506)">
       <use xlink:href="#DejaVuSans-49"/>
       <use x="63.623047" xlink:href="#DejaVuSans-48"/>
       <use x="127.246094" xlink:href="#DejaVuSans-48"/>
      </g>
     </g>
    </g>
    <g id="text_3">
     <!-- Degrees -->
     <defs>
      <path d="M 19.671875 64.796875 
L 19.671875 8.109375 
L 31.59375 8.109375 
Q 46.6875 8.109375 53.6875 14.9375 
Q 60.6875 21.78125 60.6875 36.53125 
Q 60.6875 51.171875 53.6875 57.984375 
Q 46.6875 64.796875 31.59375 64.796875 
z
M 9.8125 72.90625 
L 30.078125 72.90625 
Q 51.265625 72.90625 61.171875 64.09375 
Q 71.09375 55.28125 71.09375 36.53125 
Q 71.09375 17.671875 61.125 8.828125 
Q 51.171875 0 30.078125 0 
L 9.8125 0 
z
" id="DejaVuSans-68"/>
      <path d="M 56.203125 29.59375 
L 56.203125 25.203125 
L 14.890625 25.203125 
Q 15.484375 15.921875 20.484375 11.0625 
Q 25.484375 6.203125 34.421875 6.203125 
Q 39.59375 6.203125 44.453125 7.46875 
Q 49.3125 8.734375 54.109375 11.28125 
L 54.109375 2.78125 
Q 49.265625 0.734375 44.1875 -0.34375 
Q 39.109375 -1.421875 33.890625 -1.421875 
Q 20.796875 -1.421875 13.15625 6.1875 
Q 5.515625 13.8125 5.515625 26.8125 
Q 5.515625 40.234375 12.765625 48.109375 
Q 20.015625 56 32.328125 56 
Q 43.359375 56 49.78125 48.890625 
Q 56.203125 41.796875 56.203125 29.59375 
z
M 47.21875 32.234375 
Q 47.125 39.59375 43.09375 43.984375 
Q 39.0625 48.390625 32.421875 48.390625 
Q 24.90625 48.390625 20.390625 44.140625 
Q 15.875 39.890625 15.1875 32.171875 
z
" id="DejaVuSans-101"/>
      <path d="M 45.40625 27.984375 
Q 45.40625 37.75 41.375 43.109375 
Q 37.359375 48.484375 30.078125 48.484375 
Q 22.859375 48.484375 18.828125 43.109375 
Q 14.796875 37.75 14.796875 27.984375 
Q 14.796875 18.265625 18.828125 12.890625 
Q 22.859375 7.515625 30.078125 7.515625 
Q 37.359375 7.515625 41.375 12.890625 
Q 45.40625 18.265625 45.40625 27.984375 
z
M 54.390625 6.78125 
Q 54.390625 -7.171875 48.1875 -13.984375 
Q 42 -20.796875 29.203125 -20.796875 
Q 24.46875 -20.796875 20.265625 -20.09375 
Q 16.0625 -19.390625 12.109375 -17.921875 
L 12.109375 -9.1875 
Q 16.0625 -11.328125 19.921875 -12.34375 
Q 23.78125 -13.375 27.78125 -13.375 
Q 36.625 -13.375 41.015625 -8.765625 
Q 45.40625 -4.15625 45.40625 5.171875 
L 45.40625 9.625 
Q 42.625 4.78125 38.28125 2.390625 
Q 33.9375 0 27.875 0 
Q 17.828125 0 11.671875 7.65625 
Q 5.515625 15.328125 5.515625 27.984375 
Q 5.515625 40.671875 11.671875 48.328125 
Q 17.828125 56 27.875 56 
Q 33.9375 56 38.28125 53.609375 
Q 42.625 51.21875 45.40625 46.390625 
L 45.40625 54.6875 
L 54.390625 54.6875 
z
" id="DejaVuSans-103"/>
      <path d="M 41.109375 46.296875 
Q 39.59375 47.171875 37.8125 47.578125 
Q 36.03125 48 33.890625 48 
Q 26.265625 48 22.1875 43.046875 
Q 18.109375 38.09375 18.109375 28.8125 
L 18.109375 0 
L 9.078125 0 
L 9.078125 54.6875 
L 18.109375 54.6875 
L 18.109375 46.1875 
Q 20.953125 51.171875 25.484375 53.578125 
Q 30.03125 56 36.53125 56 
Q 37.453125 56 38.578125 55.875 
Q 39.703125 55.765625 41.0625 55.515625 
z
" id="DejaVuSans-114"/>
      <path d="M 44.28125 53.078125 
L 44.28125 44.578125 
Q 40.484375 46.53125 36.375 47.5 
Q 32.28125 48.484375 27.875 48.484375 
Q 21.1875 48.484375 17.84375 46.4375 
Q 14.5 44.390625 14.5 40.28125 
Q 14.5 37.15625 16.890625 35.375 
Q 19.28125 33.59375 26.515625 31.984375 
L 29.59375 31.296875 
Q 39.15625 29.25 43.1875 25.515625 
Q 47.21875 21.78125 47.21875 15.09375 
Q 47.21875 7.46875 41.1875 3.015625 
Q 35.15625 -1.421875 24.609375 -1.421875 
Q 20.21875 -1.421875 15.453125 -0.5625 
Q 10.6875 0.296875 5.421875 2 
L 5.421875 11.28125 
Q 10.40625 8.6875 15.234375 7.390625 
Q 20.0625 6.109375 24.8125 6.109375 
Q 31.15625 6.109375 34.5625 8.28125 
Q 37.984375 10.453125 37.984375 14.40625 
Q 37.984375 18.0625 35.515625 20.015625 
Q 33.0625 21.96875 24.703125 23.78125 
L 21.578125 24.515625 
Q 13.234375 26.265625 9.515625 29.90625 
Q 5.8125 33.546875 5.8125 39.890625 
Q 5.8125 47.609375 11.28125 51.796875 
Q 16.75 56 26.8125 56 
Q 31.78125 56 36.171875 55.265625 
Q 40.578125 54.546875 44.28125 53.078125 
z
" id="DejaVuSans-115"/>
     </defs>
     <g transform="translate(120.723 417.998687)scale(0.552 -0.552)">
      <use xlink:href="#DejaVuSans-68"/>
      <use x="77.001953" xlink:href="#DejaVuSans-101"/>
      <use x="138.525391" xlink:href="#DejaVuSans-103"/>
      <use x="202.001953" xlink:href="#DejaVuSans-114"/>
      <use x="243.083984" xlink:href="#DejaVuSans-101"/>
      <use x="304.607422" xlink:href="#DejaVuSans-101"/>
      <use x="366.130859" xlink:href="#DejaVuSans-115"/>
     </g>
    </g>
   </g>
   <g id="matplotlib.axis_2">
    <g id="ytick_1">
     <g id="line2d_3">
      <defs>
       <path d="M 0 0 
L -12 0 
" id="m2b2096fe4c" style="stroke:#000000;stroke-width:2.5;"/>
      </defs>
      <g>
       <use style="stroke:#000000;stroke-width:2.5;" x="57.6" xlink:href="#m2b2096fe4c" y="285.408"/>
      </g>
     </g>
     <g id="text_4">
      <!-- 0 -->
      <g transform="translate(9.90575 304.632047)scale(0.506 -0.506)">
       <use xlink:href="#DejaVuSans-48"/>
      </g>
     </g>
    </g>
    <g id="ytick_2">
     <g id="line2d_4">
      <g>
       <use style="stroke:#000000;stroke-width:2.5;" x="57.6" xlink:href="#m2b2096fe4c" y="143.454698"/>
      </g>
     </g>
     <g id="text_5">
      <!-- 2 -->
      <defs>
       <path d="M 19.1875 8.296875 
L 53.609375 8.296875 
L 53.609375 0 
L 7.328125 0 
L 7.328125 8.296875 
Q 12.9375 14.109375 22.625 23.890625 
Q 32.328125 33.6875 34.8125 36.53125 
Q 39.546875 41.84375 41.421875 45.53125 
Q 43.3125 49.21875 43.3125 52.78125 
Q 43.3125 58.59375 39.234375 62.25 
Q 35.15625 65.921875 28.609375 65.921875 
Q 23.96875 65.921875 18.8125 64.3125 
Q 13.671875 62.703125 7.8125 59.421875 
L 7.8125 69.390625 
Q 13.765625 71.78125 18.9375 73 
Q 24.125 74.21875 28.421875 74.21875 
Q 39.75 74.21875 46.484375 68.546875 
Q 53.21875 62.890625 53.21875 53.421875 
Q 53.21875 48.921875 51.53125 44.890625 
Q 49.859375 40.875 45.40625 35.40625 
Q 44.1875 33.984375 37.640625 27.21875 
Q 31.109375 20.453125 19.1875 8.296875 
z
" id="DejaVuSans-50"/>
      </defs>
      <g transform="translate(9.90575 162.678745)scale(0.506 -0.506)">
       <use xlink:href="#DejaVuSans-50"/>
      </g>
     </g>
    </g>
    <g id="text_6">
     <!-- Activation -->
     <defs>
      <path d="M 34.1875 63.1875 
L 20.796875 26.90625 
L 47.609375 26.90625 
z
M 28.609375 72.90625 
L 39.796875 72.90625 
L 67.578125 0 
L 57.328125 0 
L 50.6875 18.703125 
L 17.828125 18.703125 
L 11.1875 0 
L 0.78125 0 
z
" id="DejaVuSans-65"/>
      <path d="M 48.78125 52.59375 
L 48.78125 44.1875 
Q 44.96875 46.296875 41.140625 47.34375 
Q 37.3125 48.390625 33.40625 48.390625 
Q 24.65625 48.390625 19.8125 42.84375 
Q 14.984375 37.3125 14.984375 27.296875 
Q 14.984375 17.28125 19.8125 11.734375 
Q 24.65625 6.203125 33.40625 6.203125 
Q 37.3125 6.203125 41.140625 7.25 
Q 44.96875 8.296875 48.78125 10.40625 
L 48.78125 2.09375 
Q 45.015625 0.34375 40.984375 -0.53125 
Q 36.96875 -1.421875 32.421875 -1.421875 
Q 20.0625 -1.421875 12.78125 6.34375 
Q 5.515625 14.109375 5.515625 27.296875 
Q 5.515625 40.671875 12.859375 48.328125 
Q 20.21875 56 33.015625 56 
Q 37.15625 56 41.109375 55.140625 
Q 45.0625 54.296875 48.78125 52.59375 
z
" id="DejaVuSans-99"/>
      <path d="M 18.3125 70.21875 
L 18.3125 54.6875 
L 36.8125 54.6875 
L 36.8125 47.703125 
L 18.3125 47.703125 
L 18.3125 18.015625 
Q 18.3125 11.328125 20.140625 9.421875 
Q 21.96875 7.515625 27.59375 7.515625 
L 36.8125 7.515625 
L 36.8125 0 
L 27.59375 0 
Q 17.1875 0 13.234375 3.875 
Q 9.28125 7.765625 9.28125 18.015625 
L 9.28125 47.703125 
L 2.6875 47.703125 
L 2.6875 54.6875 
L 9.28125 54.6875 
L 9.28125 70.21875 
z
" id="DejaVuSans-116"/>
      <path d="M 9.421875 54.6875 
L 18.40625 54.6875 
L 18.40625 0 
L 9.421875 0 
z
M 9.421875 75.984375 
L 18.40625 75.984375 
L 18.40625 64.59375 
L 9.421875 64.59375 
z
" id="DejaVuSans-105"/>
      <path d="M 2.984375 54.6875 
L 12.5 54.6875 
L 29.59375 8.796875 
L 46.6875 54.6875 
L 56.203125 54.6875 
L 35.6875 0 
L 23.484375 0 
z
" id="DejaVuSans-118"/>
      <path d="M 34.28125 27.484375 
Q 23.390625 27.484375 19.1875 25 
Q 14.984375 22.515625 14.984375 16.5 
Q 14.984375 11.71875 18.140625 8.90625 
Q 21.296875 6.109375 26.703125 6.109375 
Q 34.1875 6.109375 38.703125 11.40625 
Q 43.21875 16.703125 43.21875 25.484375 
L 43.21875 27.484375 
z
M 52.203125 31.203125 
L 52.203125 0 
L 43.21875 0 
L 43.21875 8.296875 
Q 40.140625 3.328125 35.546875 0.953125 
Q 30.953125 -1.421875 24.3125 -1.421875 
Q 15.921875 -1.421875 10.953125 3.296875 
Q 6 8.015625 6 15.921875 
Q 6 25.140625 12.171875 29.828125 
Q 18.359375 34.515625 30.609375 34.515625 
L 43.21875 34.515625 
L 43.21875 35.40625 
Q 43.21875 41.609375 39.140625 45 
Q 35.0625 48.390625 27.6875 48.390625 
Q 23 48.390625 18.546875 47.265625 
Q 14.109375 46.140625 10.015625 43.890625 
L 10.015625 52.203125 
Q 14.9375 54.109375 19.578125 55.046875 
Q 24.21875 56 28.609375 56 
Q 40.484375 56 46.34375 49.84375 
Q 52.203125 43.703125 52.203125 31.203125 
z
" id="DejaVuSans-97"/>
      <path d="M 30.609375 48.390625 
Q 23.390625 48.390625 19.1875 42.75 
Q 14.984375 37.109375 14.984375 27.296875 
Q 14.984375 17.484375 19.15625 11.84375 
Q 23.34375 6.203125 30.609375 6.203125 
Q 37.796875 6.203125 41.984375 11.859375 
Q 46.1875 17.53125 46.1875 27.296875 
Q 46.1875 37.015625 41.984375 42.703125 
Q 37.796875 48.390625 30.609375 48.390625 
z
M 30.609375 56 
Q 42.328125 56 49.015625 48.375 
Q 55.71875 40.765625 55.71875 27.296875 
Q 55.71875 13.875 49.015625 6.21875 
Q 42.328125 -1.421875 30.609375 -1.421875 
Q 18.84375 -1.421875 12.171875 6.21875 
Q 5.515625 13.875 5.515625 27.296875 
Q 5.515625 40.765625 12.171875 48.375 
Q 18.84375 56 30.609375 56 
z
" id="DejaVuSans-111"/>
      <path d="M 54.890625 33.015625 
L 54.890625 0 
L 45.90625 0 
L 45.90625 32.71875 
Q 45.90625 40.484375 42.875 44.328125 
Q 39.84375 48.1875 33.796875 48.1875 
Q 26.515625 48.1875 22.3125 43.546875 
Q 18.109375 38.921875 18.109375 30.90625 
L 18.109375 0 
L 9.078125 0 
L 9.078125 54.6875 
L 18.109375 54.6875 
L 18.109375 46.1875 
Q 21.34375 51.125 25.703125 53.5625 
Q 30.078125 56 35.796875 56 
Q 45.21875 56 50.046875 50.171875 
Q 54.890625 44.34375 54.890625 33.015625 
z
" id="DejaVuSans-110"/>
     </defs>
     <g transform="translate(-5.574125 313.1835)rotate(-90)scale(0.552 -0.552)">
      <use xlink:href="#DejaVuSans-65"/>
      <use x="68.392578" xlink:href="#DejaVuSans-99"/>
      <use x="123.373047" xlink:href="#DejaVuSans-116"/>
      <use x="162.582031" xlink:href="#DejaVuSans-105"/>
      <use x="190.365234" xlink:href="#DejaVuSans-118"/>
      <use x="249.544922" xlink:href="#DejaVuSans-97"/>
      <use x="310.824219" xlink:href="#DejaVuSans-116"/>
      <use x="350.033203" xlink:href="#DejaVuSans-105"/>
      <use x="377.816406" xlink:href="#DejaVuSans-111"/>
      <use x="438.998047" xlink:href="#DejaVuSans-110"/>
     </g>
    </g>
   </g>
   <g id="line2d_5">
    <path clip-path="url(#p94b77d0a58)" d="M 73.832727 267.346824 
L 90.065455 236.594783 
L 106.298182 225.933433 
L 122.530909 212.164618 
L 138.763636 196.058122 
L 154.996364 193.783303 
L 171.229091 197.095509 
L 187.461818 173.058912 
L 203.694545 165.069566 
L 219.927273 166.544459 
L 236.16 177.121802 
L 252.392727 176.776472 
L 268.625455 178.422549 
L 284.858182 218.229302 
L 301.090909 211.982671 
L 317.323636 242.91208 
L 333.556364 250.741363 
L 349.789091 258.900385 
L 366.021818 254.357767 
L 382.254545 260.092678 
L 398.487273 267.346824 
" style="fill:none;stroke:#0e4db3;stroke-linecap:square;stroke-width:3;"/>
   </g>
   <g id="line2d_6">
    <path clip-path="url(#p94b77d0a58)" d="M 73.832727 271.037116 
L 90.065455 245.851885 
L 106.298182 236.391497 
L 122.530909 226.212577 
L 138.763636 213.777477 
L 154.996364 212.437513 
L 171.229091 213.949804 
L 187.461818 192.632105 
L 203.694545 188.668413 
L 219.927273 187.537928 
L 236.16 192.983003 
L 252.392727 196.464161 
L 268.625455 197.206146 
L 284.858182 231.588165 
L 301.090909 225.390549 
L 317.323636 250.363331 
L 333.556364 256.374562 
L 349.789091 261.824912 
L 366.021818 259.493632 
L 382.254545 263.784148 
L 398.487273 271.037116 
" style="fill:none;stroke:#d44e4e;stroke-linecap:square;stroke-width:3;"/>
   </g>
   <g id="line2d_7">
    <path clip-path="url(#p94b77d0a58)" d="M 73.832727 162.630043 
L 90.065455 161.697015 
L 106.298182 169.973183 
L 122.530909 185.880835 
L 138.763636 188.714348 
L 154.996364 192.188026 
L 171.229091 191.967006 
L 187.461818 174.065602 
L 203.694545 168.135615 
L 219.927273 189.284506 
L 236.16 189.270444 
L 252.392727 186.103734 
L 268.625455 168.502106 
L 284.858182 181.224569 
L 301.090909 165.309099 
L 317.323636 170.8475 
L 333.556364 170.227396 
L 349.789091 149.74786 
L 366.021818 155.565848 
L 382.254545 150.059972 
L 398.487273 162.630043 
" style="fill:none;stroke:#0e4db3;stroke-linecap:square;stroke-width:3;"/>
   </g>
   <g id="line2d_8">
    <path clip-path="url(#p94b77d0a58)" d="M 73.832727 188.22012 
L 90.065455 177.064614 
L 106.298182 190.880485 
L 122.530909 206.383622 
L 138.763636 208.248908 
L 154.996364 211.350045 
L 171.229091 211.346153 
L 187.461818 197.529909 
L 203.694545 193.331447 
L 219.927273 209.514651 
L 236.16 209.456947 
L 252.392727 205.547058 
L 268.625455 192.646988 
L 284.858182 200.728788 
L 301.090909 190.543328 
L 317.323636 194.7463 
L 333.556364 194.069651 
L 349.789091 178.216369 
L 366.021818 181.135694 
L 382.254545 178.146261 
L 398.487273 188.22012 
" style="fill:none;stroke:#d44e4e;stroke-linecap:square;stroke-width:3;"/>
   </g>
   <g id="line2d_9">
    <path clip-path="url(#p94b77d0a58)" d="M 73.832727 160.958371 
L 90.065455 154.94654 
L 106.298182 154.898887 
L 122.530909 154.931885 
L 138.763636 141.774227 
L 154.996364 142.425713 
L 171.229091 141.24898 
L 187.461818 150.065007 
L 203.694545 139.404635 
L 219.927273 144.215289 
L 236.16 152.296709 
L 252.392727 152.436697 
L 268.625455 153.887941 
L 284.858182 162.682959 
L 301.090909 164.295792 
L 317.323636 164.993493 
L 333.556364 164.6689 
L 349.789091 165.690651 
L 366.021818 162.889637 
L 382.254545 161.41263 
L 398.487273 160.958371 
" style="fill:none;stroke:#0e4db3;stroke-linecap:square;stroke-width:3;"/>
   </g>
   <g id="line2d_10">
    <path clip-path="url(#p94b77d0a58)" d="M 73.832727 182.739914 
L 90.065455 178.411287 
L 106.298182 178.048527 
L 122.530909 177.655155 
L 138.763636 169.473802 
L 154.996364 169.338949 
L 171.229091 167.395144 
L 187.461818 174.074444 
L 203.694545 164.549954 
L 219.927273 169.128911 
L 236.16 175.711899 
L 252.392727 175.559557 
L 268.625455 176.874925 
L 284.858182 181.565204 
L 301.090909 182.752818 
L 317.323636 184.359102 
L 333.556364 185.174225 
L 349.789091 185.947635 
L 366.021818 183.648194 
L 382.254545 182.748612 
L 398.487273 182.739914 
" style="fill:none;stroke:#d44e4e;stroke-linecap:square;stroke-width:3;"/>
   </g>
   <g id="line2d_11">
    <path clip-path="url(#p94b77d0a58)" d="M 73.832727 144.538384 
L 90.065455 144.370855 
L 106.298182 144.923904 
L 122.530909 158.126551 
L 138.763636 159.473893 
L 154.996364 162.843008 
L 171.229091 159.899155 
L 187.461818 156.37411 
L 203.694545 147.076876 
L 219.927273 150.361923 
L 236.16 149.035446 
L 252.392727 143.127034 
L 268.625455 141.050974 
L 284.858182 141.164995 
L 301.090909 134.607272 
L 317.323636 133.590521 
L 333.556364 117.881518 
L 349.789091 132.320514 
L 366.021818 131.553602 
L 382.254545 138.463729 
L 398.487273 144.538384 
" style="fill:none;stroke:#0e4db3;stroke-linecap:square;stroke-width:3;"/>
   </g>
   <g id="line2d_12">
    <path clip-path="url(#p94b77d0a58)" d="M 73.832727 174.211598 
L 90.065455 174.206098 
L 106.298182 174.586407 
L 122.530909 184.418347 
L 138.763636 185.061338 
L 154.996364 186.688419 
L 171.229091 185.633577 
L 187.461818 181.157515 
L 203.694545 176.633344 
L 219.927273 178.402217 
L 236.16 178.661244 
L 252.392727 172.22201 
L 268.625455 169.31629 
L 284.858182 168.50643 
L 301.090909 164.857582 
L 317.323636 164.854993 
L 333.556364 154.414575 
L 349.789091 164.018201 
L 366.021818 162.857308 
L 382.254545 168.942666 
L 398.487273 174.211598 
" style="fill:none;stroke:#d44e4e;stroke-linecap:square;stroke-width:3;"/>
   </g>
   <g id="line2d_13">
    <path clip-path="url(#p94b77d0a58)" d="M 73.832727 240.211825 
L 90.065455 239.520847 
L 106.298182 240.142093 
L 122.530909 238.638826 
L 138.763636 221.264852 
L 154.996364 219.012996 
L 171.229091 204.973016 
L 187.461818 209.298141 
L 203.694545 188.019355 
L 219.927273 171.298805 
L 236.16 171.562334 
L 252.392727 153.690857 
L 268.625455 137.944405 
L 284.858182 146.354165 
L 301.090909 124.559727 
L 317.323636 137.22474 
L 333.556364 140.816873 
L 349.789091 199.295042 
L 366.021818 204.700265 
L 382.254545 204.103184 
L 398.487273 240.211825 
" style="fill:none;stroke:#0e4db3;stroke-linecap:square;stroke-width:3;"/>
   </g>
   <g id="line2d_14">
    <path clip-path="url(#p94b77d0a58)" d="M 73.832727 244.084654 
L 90.065455 243.074901 
L 106.298182 243.61998 
L 122.530909 242.964133 
L 138.763636 229.358333 
L 154.996364 227.65398 
L 171.229091 215.362609 
L 187.461818 218.674502 
L 203.694545 201.978625 
L 219.927273 189.753664 
L 236.16 189.787458 
L 252.392727 174.859277 
L 268.625455 162.391847 
L 284.858182 170.526579 
L 301.090909 152.510715 
L 317.323636 161.423155 
L 333.556364 164.912799 
L 349.789091 210.61652 
L 366.021818 215.131 
L 382.254545 215.08605 
L 398.487273 244.084654 
" style="fill:none;stroke:#d44e4e;stroke-linecap:square;stroke-width:3;"/>
   </g>
   <g id="line2d_15">
    <path clip-path="url(#p94b77d0a58)" d="M 73.832727 285.408 
L 90.065455 285.408 
L 106.298182 285.408 
L 122.530909 285.408 
L 138.763636 285.408 
L 154.996364 285.408 
L 171.229091 285.408 
L 187.461818 285.408 
L 203.694545 285.408 
L 219.927273 285.408 
L 236.16 285.408 
L 252.392727 285.408 
L 268.625455 285.408 
L 284.858182 285.408 
L 301.090909 285.408 
L 317.323636 285.408 
L 333.556364 285.408 
L 349.789091 285.408 
L 366.021818 285.408 
L 382.254545 285.408 
L 398.487273 285.408 
" style="fill:none;stroke:#0e4db3;stroke-linecap:square;stroke-width:3;"/>
   </g>
   <g id="line2d_16">
    <path clip-path="url(#p94b77d0a58)" d="M 73.832727 285.408 
L 90.065455 285.408 
L 106.298182 285.408 
L 122.530909 285.408 
L 138.763636 285.408 
L 154.996364 285.408 
L 171.229091 285.408 
L 187.461818 285.408 
L 203.694545 285.408 
L 219.927273 285.408 
L 236.16 285.408 
L 252.392727 285.408 
L 268.625455 285.408 
L 284.858182 285.408 
L 301.090909 285.408 
L 317.323636 285.408 
L 333.556364 285.408 
L 349.789091 285.408 
L 366.021818 285.408 
L 382.254545 285.408 
L 398.487273 285.408 
" style="fill:none;stroke:#d44e4e;stroke-linecap:square;stroke-width:3;"/>
   </g>
   <g id="line2d_17">
    <path clip-path="url(#p94b77d0a58)" d="M 73.832727 285.408 
L 90.065455 284.773513 
L 106.298182 285.155249 
L 122.530909 284.923105 
L 138.763636 285.1953 
L 154.996364 285.408 
L 171.229091 285.408 
L 187.461818 285.408 
L 203.694545 285.408 
L 219.927273 285.408 
L 236.16 285.408 
L 252.392727 285.408 
L 268.625455 283.932518 
L 284.858182 285.408 
L 301.090909 285.408 
L 317.323636 285.408 
L 333.556364 285.408 
L 349.789091 285.408 
L 366.021818 285.408 
L 382.254545 285.408 
L 398.487273 285.408 
" style="fill:none;stroke:#0e4db3;stroke-linecap:square;stroke-width:3;"/>
   </g>
   <g id="line2d_18">
    <path clip-path="url(#p94b77d0a58)" d="M 73.832727 285.408 
L 90.065455 285.408 
L 106.298182 285.408 
L 122.530909 285.408 
L 138.763636 285.408 
L 154.996364 285.408 
L 171.229091 285.408 
L 187.461818 285.408 
L 203.694545 285.408 
L 219.927273 285.408 
L 236.16 285.408 
L 252.392727 285.408 
L 268.625455 285.408 
L 284.858182 285.408 
L 301.090909 285.408 
L 317.323636 285.408 
L 333.556364 285.408 
L 349.789091 285.408 
L 366.021818 285.408 
L 382.254545 285.408 
L 398.487273 285.408 
" style="fill:none;stroke:#d44e4e;stroke-linecap:square;stroke-width:3;"/>
   </g>
   <g id="line2d_19">
    <path clip-path="url(#p94b77d0a58)" d="M 73.832727 248.963717 
L 90.065455 237.468042 
L 106.298182 220.624789 
L 122.530909 219.002606 
L 138.763636 201.596869 
L 154.996364 198.065665 
L 171.229091 186.392104 
L 187.461818 187.853256 
L 203.694545 171.066396 
L 219.927273 171.920389 
L 236.16 211.769774 
L 252.392727 173.940268 
L 268.625455 192.65781 
L 284.858182 215.841142 
L 301.090909 211.301893 
L 317.323636 227.625534 
L 333.556364 229.639643 
L 349.789091 232.948808 
L 366.021818 234.069084 
L 382.254545 245.050021 
L 398.487273 248.963717 
" style="fill:none;stroke:#0e4db3;stroke-linecap:square;stroke-width:3;"/>
   </g>
   <g id="line2d_20">
    <path clip-path="url(#p94b77d0a58)" d="M 73.832727 249.661163 
L 90.065455 240.864491 
L 106.298182 227.218091 
L 122.530909 224.521292 
L 138.763636 211.566005 
L 154.996364 209.211076 
L 171.229091 199.627435 
L 187.461818 200.034413 
L 203.694545 187.453072 
L 219.927273 187.509787 
L 236.16 219.644167 
L 252.392727 189.373161 
L 268.625455 204.173402 
L 284.858182 223.670307 
L 301.090909 219.192257 
L 317.323636 232.200595 
L 333.556364 233.630368 
L 349.789091 234.965484 
L 366.021818 236.254558 
L 382.254545 245.835225 
L 398.487273 249.661163 
" style="fill:none;stroke:#d44e4e;stroke-linecap:square;stroke-width:3;"/>
   </g>
   <g id="line2d_21">
    <path clip-path="url(#p94b77d0a58)" d="M 73.832727 210.173989 
L 90.065455 204.964962 
L 106.298182 197.128575 
L 122.530909 193.962618 
L 138.763636 197.823441 
L 154.996364 198.034596 
L 171.229091 198.408101 
L 187.461818 206.577406 
L 203.694545 205.306865 
L 219.927273 209.418204 
L 236.16 213.033444 
L 252.392727 208.609705 
L 268.625455 207.668749 
L 284.858182 207.764326 
L 301.090909 207.943616 
L 317.323636 208.653026 
L 333.556364 192.170156 
L 349.789091 201.264375 
L 366.021818 198.423399 
L 382.254545 210.444261 
L 398.487273 210.173989 
" style="fill:none;stroke:#0e4db3;stroke-linecap:square;stroke-width:3;"/>
   </g>
   <g id="line2d_22">
    <path clip-path="url(#p94b77d0a58)" d="M 73.832727 226.237706 
L 90.065455 222.086372 
L 106.298182 216.03419 
L 122.530909 212.413467 
L 138.763636 218.06775 
L 154.996364 218.35387 
L 171.229091 218.230643 
L 187.461818 223.247951 
L 203.694545 220.677062 
L 219.927273 226.674069 
L 236.16 223.915826 
L 252.392727 224.366505 
L 268.625455 224.224088 
L 284.858182 225.201779 
L 301.090909 225.631588 
L 317.323636 225.482619 
L 333.556364 212.686303 
L 349.789091 215.477426 
L 366.021818 214.876622 
L 382.254545 226.239728 
L 398.487273 226.237706 
" style="fill:none;stroke:#d44e4e;stroke-linecap:square;stroke-width:3;"/>
   </g>
   <g id="line2d_23">
    <path clip-path="url(#p94b77d0a58)" d="M 73.832727 282.674176 
L 90.065455 253.84767 
L 106.298182 229.546198 
L 122.530909 231.096301 
L 138.763636 201.622041 
L 154.996364 199.403589 
L 171.229091 199.832608 
L 187.461818 202.479825 
L 203.694545 195.086224 
L 219.927273 195.073134 
L 236.16 205.616989 
L 252.392727 198.670107 
L 268.625455 207.69156 
L 284.858182 229.343454 
L 301.090909 220.629451 
L 317.323636 252.345541 
L 333.556364 252.848434 
L 349.789091 260.648985 
L 366.021818 275.908525 
L 382.254545 261.913516 
L 398.487273 282.674176 
" style="fill:none;stroke:#0e4db3;stroke-linecap:square;stroke-width:3;"/>
   </g>
   <g id="line2d_24">
    <path clip-path="url(#p94b77d0a58)" d="M 73.832727 284.698648 
L 90.065455 262.729147 
L 106.298182 243.143977 
L 122.530909 237.632428 
L 138.763636 221.847423 
L 154.996364 219.923112 
L 171.229091 219.988499 
L 187.461818 219.892686 
L 203.694545 214.790962 
L 219.927273 214.843259 
L 236.16 223.827556 
L 252.392727 217.477489 
L 268.625455 223.121052 
L 284.858182 243.444311 
L 301.090909 234.905579 
L 317.323636 259.200912 
L 333.556364 261.857324 
L 349.789091 268.801154 
L 366.021818 279.159325 
L 382.254545 268.832898 
L 398.487273 284.698648 
" style="fill:none;stroke:#d44e4e;stroke-linecap:square;stroke-width:3;"/>
   </g>
   <g id="line2d_25">
    <path clip-path="url(#p94b77d0a58)" d="M 73.832727 172.960129 
L 90.065455 172.282287 
L 106.298182 165.376965 
L 122.530909 176.3666 
L 138.763636 182.939486 
L 154.996364 206.156053 
L 171.229091 210.243023 
L 187.461818 206.497305 
L 203.694545 170.550457 
L 219.927273 145.944835 
L 236.16 147.853637 
L 252.392727 145.495366 
L 268.625455 170.423794 
L 284.858182 185.710996 
L 301.090909 164.901622 
L 317.323636 157.438936 
L 333.556364 155.531302 
L 349.789091 152.02169 
L 366.021818 143.307966 
L 382.254545 151.435726 
L 398.487273 172.960129 
" style="fill:none;stroke:#0e4db3;stroke-linecap:square;stroke-width:3;"/>
   </g>
   <g id="line2d_26">
    <path clip-path="url(#p94b77d0a58)" d="M 73.832727 188.994663 
L 90.065455 188.976159 
L 106.298182 183.39261 
L 122.530909 190.640317 
L 138.763636 198.057204 
L 154.996364 215.768207 
L 171.229091 218.847845 
L 187.461818 214.147987 
L 203.694545 185.728146 
L 219.927273 167.907758 
L 236.16 169.211381 
L 252.392727 167.387029 
L 268.625455 186.853723 
L 284.858182 199.184735 
L 301.090909 182.281798 
L 317.323636 176.578982 
L 333.556364 175.300335 
L 349.789091 172.628615 
L 366.021818 164.958667 
L 382.254545 171.876883 
L 398.487273 188.994663 
" style="fill:none;stroke:#d44e4e;stroke-linecap:square;stroke-width:3;"/>
   </g>
   <g id="line2d_27">
    <path clip-path="url(#p94b77d0a58)" d="M 73.832727 169.359594 
L 90.065455 168.606753 
L 106.298182 180.740444 
L 122.530909 184.131406 
L 138.763636 208.225116 
L 154.996364 224.738234 
L 171.229091 207.870986 
L 187.461818 186.234813 
L 203.694545 177.303098 
L 219.927273 199.978883 
L 236.16 197.269545 
L 252.392727 197.361466 
L 268.625455 210.309527 
L 284.858182 220.02022 
L 301.090909 204.408113 
L 317.323636 201.555867 
L 333.556364 186.717322 
L 349.789091 186.10326 
L 366.021818 177.56743 
L 382.254545 169.833896 
L 398.487273 169.359594 
" style="fill:none;stroke:#0e4db3;stroke-linecap:square;stroke-width:3;"/>
   </g>
   <g id="line2d_28">
    <path clip-path="url(#p94b77d0a58)" d="M 73.832727 187.621541 
L 90.065455 184.437579 
L 106.298182 196.831659 
L 122.530909 192.473866 
L 138.763636 218.506372 
L 154.996364 231.318104 
L 171.229091 217.347222 
L 187.461818 199.417423 
L 203.694545 192.528347 
L 219.927273 211.50468 
L 236.16 209.346741 
L 252.392727 208.940923 
L 268.625455 219.869443 
L 284.858182 226.736639 
L 301.090909 215.807306 
L 317.323636 211.852235 
L 333.556364 201.38261 
L 349.789091 198.823176 
L 366.021818 192.903613 
L 382.254545 184.38869 
L 398.487273 187.621541 
" style="fill:none;stroke:#d44e4e;stroke-linecap:square;stroke-width:3;"/>
   </g>
   <g id="line2d_29">
    <path clip-path="url(#p94b77d0a58)" d="M 73.832727 114.045842 
L 90.065455 113.801638 
L 106.298182 109.960208 
L 122.530909 112.275971 
L 138.763636 112.036573 
L 154.996364 112.160071 
L 171.229091 109.835424 
L 187.461818 111.5692 
L 203.694545 103.602995 
L 219.927273 107.162435 
L 236.16 107.852757 
L 252.392727 107.703368 
L 268.625455 110.585465 
L 284.858182 112.788915 
L 301.090909 110.904481 
L 317.323636 111.826383 
L 333.556364 111.172646 
L 349.789091 113.104395 
L 366.021818 110.32197 
L 382.254545 112.052429 
L 398.487273 114.045842 
" style="fill:none;stroke:#0e4db3;stroke-linecap:square;stroke-width:3;"/>
   </g>
   <g id="line2d_30">
    <path clip-path="url(#p94b77d0a58)" d="M 73.832727 141.601401 
L 90.065455 140.411046 
L 106.298182 137.925909 
L 122.530909 139.453201 
L 138.763636 139.415042 
L 154.996364 139.483881 
L 171.229091 137.681215 
L 187.461818 139.342564 
L 203.694545 132.813642 
L 219.927273 136.053151 
L 236.16 136.406723 
L 252.392727 136.331555 
L 268.625455 136.359307 
L 284.858182 139.158451 
L 301.090909 137.593084 
L 317.323636 138.816167 
L 333.556364 138.636047 
L 349.789091 140.327941 
L 366.021818 138.105995 
L 382.254545 139.811714 
L 398.487273 141.601401 
" style="fill:none;stroke:#d44e4e;stroke-linecap:square;stroke-width:3;"/>
   </g>
   <g id="line2d_31">
    <path clip-path="url(#p94b77d0a58)" d="M 73.832727 202.366751 
L 90.065455 187.218286 
L 106.298182 187.086809 
L 122.530909 196.308858 
L 138.763636 197.582283 
L 154.996364 193.973051 
L 171.229091 193.769993 
L 187.461818 193.252429 
L 203.694545 205.182403 
L 219.927273 204.865002 
L 236.16 207.623635 
L 252.392727 224.890419 
L 268.625455 243.330573 
L 284.858182 250.291048 
L 301.090909 250.481866 
L 317.323636 247.716909 
L 333.556364 244.714776 
L 349.789091 240.055583 
L 366.021818 220.918371 
L 382.254545 202.496806 
L 398.487273 202.366751 
" style="fill:none;stroke:#0e4db3;stroke-linecap:square;stroke-width:3;"/>
   </g>
   <g id="line2d_32">
    <path clip-path="url(#p94b77d0a58)" d="M 73.832727 214.082634 
L 90.065455 201.938629 
L 106.298182 202.414726 
L 122.530909 205.646281 
L 138.763636 210.489173 
L 154.996364 207.338666 
L 171.229091 206.967309 
L 187.461818 206.189119 
L 203.694545 215.763418 
L 219.927273 215.783442 
L 236.16 218.301547 
L 252.392727 231.952795 
L 268.625455 246.750443 
L 284.858182 251.875091 
L 301.090909 251.952131 
L 317.323636 249.576151 
L 333.556364 247.463526 
L 349.789091 243.492421 
L 366.021818 227.880403 
L 382.254545 212.809098 
L 398.487273 214.082634 
" style="fill:none;stroke:#d44e4e;stroke-linecap:square;stroke-width:3;"/>
   </g>
   <g id="line2d_33">
    <path clip-path="url(#p94b77d0a58)" d="M 73.832727 64.098738 
L 90.065455 64.068245 
L 106.298182 63.648 
L 122.530909 68.55512 
L 138.763636 67.061181 
L 154.996364 67.858807 
L 171.229091 68.181851 
L 187.461818 69.731886 
L 203.694545 64.432376 
L 219.927273 67.756056 
L 236.16 67.949983 
L 252.392727 67.061943 
L 268.625455 67.384547 
L 284.858182 73.25606 
L 301.090909 68.596207 
L 317.323636 68.336079 
L 333.556364 67.033006 
L 349.789091 67.161665 
L 366.021818 63.76566 
L 382.254545 64.06415 
L 398.487273 64.098738 
" style="fill:none;stroke:#0e4db3;stroke-linecap:square;stroke-width:3;"/>
   </g>
   <g id="line2d_34">
    <path clip-path="url(#p94b77d0a58)" d="M 73.832727 105.485906 
L 90.065455 105.480644 
L 106.298182 105.03131 
L 122.530909 108.511604 
L 138.763636 106.77045 
L 154.996364 108.324783 
L 171.229091 107.876719 
L 187.461818 110.154644 
L 203.694545 105.271283 
L 219.927273 108.615134 
L 236.16 108.969957 
L 252.392727 107.82118 
L 268.625455 105.948236 
L 284.858182 109.04983 
L 301.090909 107.432749 
L 317.323636 107.438875 
L 333.556364 106.900649 
L 349.789091 107.505887 
L 366.021818 104.589811 
L 382.254545 105.223664 
L 398.487273 105.485906 
" style="fill:none;stroke:#d44e4e;stroke-linecap:square;stroke-width:3;"/>
   </g>
   <g id="patch_3">
    <path d="M 57.6 307.584 
L 57.6 41.472 
" style="fill:none;stroke:#000000;stroke-linecap:square;stroke-linejoin:miter;stroke-width:2.5;"/>
   </g>
   <g id="patch_4">
    <path d="M 414.72 307.584 
L 414.72 41.472 
" style="fill:none;stroke:#000000;stroke-linecap:square;stroke-linejoin:miter;stroke-width:2.5;"/>
   </g>
   <g id="patch_5">
    <path d="M 57.6 307.584 
L 414.72 307.584 
" style="fill:none;stroke:#000000;stroke-linecap:square;stroke-linejoin:miter;stroke-width:2.5;"/>
   </g>
   <g id="patch_6">
    <path d="M 57.6 41.472 
L 414.72 41.472 
" style="fill:none;stroke:#000000;stroke-linecap:square;stroke-linejoin:miter;stroke-width:2.5;"/>
   </g>
  </g>
 </g>
 <defs>
  <clipPath id="p94b77d0a58">
   <rect height="266.112" width="357.12" x="57.6" y="41.472"/>
  </clipPath>
 </defs>
</svg>
