<?xml version="1.0" encoding="utf-8" standalone="no"?>
<!DOCTYPE svg PUBLIC "-//W3C//DTD SVG 1.1//EN"
  "http://www.w3.org/Graphics/SVG/1.1/DTD/svg11.dtd">
<!-- Created with matplotlib (https://matplotlib.org/) -->
<svg height="345.6pt" version="1.1" viewBox="0 0 460.8 345.6" width="460.8pt" xmlns="http://www.w3.org/2000/svg" xmlns:xlink="http://www.w3.org/1999/xlink">
 <defs>
  <style type="text/css">
*{stroke-linecap:butt;stroke-linejoin:round;}
  </style>
 </defs>
 <g id="figure_1">
  <g id="patch_1">
   <path d="M 0 345.6 
L 460.8 345.6 
L 460.8 0 
L 0 0 
z
" style="fill:#ffffff;"/>
  </g>
  <g id="axes_1">
   <g id="patch_2">
    <path d="M 57.6 307.584 
L 414.72 307.584 
L 414.72 41.472 
L 57.6 41.472 
z
" style="fill:#ffffff;"/>
   </g>
   <g id="matplotlib.axis_1">
    <g id="xtick_1">
     <g id="line2d_1">
      <defs>
       <path d="M 0 0 
L 0 12 
" id="macbdaf07d0" style="stroke:#000000;stroke-width:2.5;"/>
      </defs>
      <g>
       <use style="stroke:#000000;stroke-width:2.5;" x="73.832727" xlink:href="#macbdaf07d0" y="307.584"/>
      </g>
     </g>
     <g id="text_1">
      <!-- 0 -->
      <defs>
       <path d="M 31.78125 66.40625 
Q 24.171875 66.40625 20.328125 58.90625 
Q 16.5 51.421875 16.5 36.375 
Q 16.5 21.390625 20.328125 13.890625 
Q 24.171875 6.390625 31.78125 6.390625 
Q 39.453125 6.390625 43.28125 13.890625 
Q 47.125 21.390625 47.125 36.375 
Q 47.125 51.421875 43.28125 58.90625 
Q 39.453125 66.40625 31.78125 66.40625 
z
M 31.78125 74.21875 
Q 44.046875 74.21875 50.515625 64.515625 
Q 56.984375 54.828125 56.984375 36.375 
Q 56.984375 17.96875 50.515625 8.265625 
Q 44.046875 -1.421875 31.78125 -1.421875 
Q 19.53125 -1.421875 13.0625 8.265625 
Q 6.59375 17.96875 6.59375 36.375 
Q 6.59375 54.828125 13.0625 64.515625 
Q 19.53125 74.21875 31.78125 74.21875 
z
" id="DejaVuSans-48"/>
      </defs>
      <g transform="translate(57.735602 361.532094)scale(0.506 -0.506)">
       <use xlink:href="#DejaVuSans-48"/>
      </g>
     </g>
    </g>
    <g id="xtick_2">
     <g id="line2d_2">
      <g>
       <use style="stroke:#000000;stroke-width:2.5;" x="254.196364" xlink:href="#macbdaf07d0" y="307.584"/>
      </g>
     </g>
     <g id="text_2">
      <!-- 100 -->
      <defs>
       <path d="M 12.40625 8.296875 
L 28.515625 8.296875 
L 28.515625 63.921875 
L 10.984375 60.40625 
L 10.984375 69.390625 
L 28.421875 72.90625 
L 38.28125 72.90625 
L 38.28125 8.296875 
L 54.390625 8.296875 
L 54.390625 0 
L 12.40625 0 
z
" id="DejaVuSans-49"/>
      </defs>
      <g transform="translate(205.904989 361.532094)scale(0.506 -0.506)">
       <use xlink:href="#DejaVuSans-49"/>
       <use x="63.623047" xlink:href="#DejaVuSans-48"/>
       <use x="127.246094" xlink:href="#DejaVuSans-48"/>
      </g>
     </g>
    </g>
    <g id="text_3">
     <!-- Degrees -->
     <defs>
      <path d="M 19.671875 64.796875 
L 19.671875 8.109375 
L 31.59375 8.109375 
Q 46.6875 8.109375 53.6875 14.9375 
Q 60.6875 21.78125 60.6875 36.53125 
Q 60.6875 51.171875 53.6875 57.984375 
Q 46.6875 64.796875 31.59375 64.796875 
z
M 9.8125 72.90625 
L 30.078125 72.90625 
Q 51.265625 72.90625 61.171875 64.09375 
Q 71.09375 55.28125 71.09375 36.53125 
Q 71.09375 17.671875 61.125 8.828125 
Q 51.171875 0 30.078125 0 
L 9.8125 0 
z
" id="DejaVuSans-68"/>
      <path d="M 56.203125 29.59375 
L 56.203125 25.203125 
L 14.890625 25.203125 
Q 15.484375 15.921875 20.484375 11.0625 
Q 25.484375 6.203125 34.421875 6.203125 
Q 39.59375 6.203125 44.453125 7.46875 
Q 49.3125 8.734375 54.109375 11.28125 
L 54.109375 2.78125 
Q 49.265625 0.734375 44.1875 -0.34375 
Q 39.109375 -1.421875 33.890625 -1.421875 
Q 20.796875 -1.421875 13.15625 6.1875 
Q 5.515625 13.8125 5.515625 26.8125 
Q 5.515625 40.234375 12.765625 48.109375 
Q 20.015625 56 32.328125 56 
Q 43.359375 56 49.78125 48.890625 
Q 56.203125 41.796875 56.203125 29.59375 
z
M 47.21875 32.234375 
Q 47.125 39.59375 43.09375 43.984375 
Q 39.0625 48.390625 32.421875 48.390625 
Q 24.90625 48.390625 20.390625 44.140625 
Q 15.875 39.890625 15.1875 32.171875 
z
" id="DejaVuSans-101"/>
      <path d="M 45.40625 27.984375 
Q 45.40625 37.75 41.375 43.109375 
Q 37.359375 48.484375 30.078125 48.484375 
Q 22.859375 48.484375 18.828125 43.109375 
Q 14.796875 37.75 14.796875 27.984375 
Q 14.796875 18.265625 18.828125 12.890625 
Q 22.859375 7.515625 30.078125 7.515625 
Q 37.359375 7.515625 41.375 12.890625 
Q 45.40625 18.265625 45.40625 27.984375 
z
M 54.390625 6.78125 
Q 54.390625 -7.171875 48.1875 -13.984375 
Q 42 -20.796875 29.203125 -20.796875 
Q 24.46875 -20.796875 20.265625 -20.09375 
Q 16.0625 -19.390625 12.109375 -17.921875 
L 12.109375 -9.1875 
Q 16.0625 -11.328125 19.921875 -12.34375 
Q 23.78125 -13.375 27.78125 -13.375 
Q 36.625 -13.375 41.015625 -8.765625 
Q 45.40625 -4.15625 45.40625 5.171875 
L 45.40625 9.625 
Q 42.625 4.78125 38.28125 2.390625 
Q 33.9375 0 27.875 0 
Q 17.828125 0 11.671875 7.65625 
Q 5.515625 15.328125 5.515625 27.984375 
Q 5.515625 40.671875 11.671875 48.328125 
Q 17.828125 56 27.875 56 
Q 33.9375 56 38.28125 53.609375 
Q 42.625 51.21875 45.40625 46.390625 
L 45.40625 54.6875 
L 54.390625 54.6875 
z
" id="DejaVuSans-103"/>
      <path d="M 41.109375 46.296875 
Q 39.59375 47.171875 37.8125 47.578125 
Q 36.03125 48 33.890625 48 
Q 26.265625 48 22.1875 43.046875 
Q 18.109375 38.09375 18.109375 28.8125 
L 18.109375 0 
L 9.078125 0 
L 9.078125 54.6875 
L 18.109375 54.6875 
L 18.109375 46.1875 
Q 20.953125 51.171875 25.484375 53.578125 
Q 30.03125 56 36.53125 56 
Q 37.453125 56 38.578125 55.875 
Q 39.703125 55.765625 41.0625 55.515625 
z
" id="DejaVuSans-114"/>
      <path d="M 44.28125 53.078125 
L 44.28125 44.578125 
Q 40.484375 46.53125 36.375 47.5 
Q 32.28125 48.484375 27.875 48.484375 
Q 21.1875 48.484375 17.84375 46.4375 
Q 14.5 44.390625 14.5 40.28125 
Q 14.5 37.15625 16.890625 35.375 
Q 19.28125 33.59375 26.515625 31.984375 
L 29.59375 31.296875 
Q 39.15625 29.25 43.1875 25.515625 
Q 47.21875 21.78125 47.21875 15.09375 
Q 47.21875 7.46875 41.1875 3.015625 
Q 35.15625 -1.421875 24.609375 -1.421875 
Q 20.21875 -1.421875 15.453125 -0.5625 
Q 10.6875 0.296875 5.421875 2 
L 5.421875 11.28125 
Q 10.40625 8.6875 15.234375 7.390625 
Q 20.0625 6.109375 24.8125 6.109375 
Q 31.15625 6.109375 34.5625 8.28125 
Q 37.984375 10.453125 37.984375 14.40625 
Q 37.984375 18.0625 35.515625 20.015625 
Q 33.0625 21.96875 24.703125 23.78125 
L 21.578125 24.515625 
Q 13.234375 26.265625 9.515625 29.90625 
Q 5.8125 33.546875 5.8125 39.890625 
Q 5.8125 47.609375 11.28125 51.796875 
Q 16.75 56 26.8125 56 
Q 31.78125 56 36.171875 55.265625 
Q 40.578125 54.546875 44.28125 53.078125 
z
" id="DejaVuSans-115"/>
     </defs>
     <g transform="translate(120.723 417.998687)scale(0.552 -0.552)">
      <use xlink:href="#DejaVuSans-68"/>
      <use x="77.001953" xlink:href="#DejaVuSans-101"/>
      <use x="138.525391" xlink:href="#DejaVuSans-103"/>
      <use x="202.001953" xlink:href="#DejaVuSans-114"/>
      <use x="243.083984" xlink:href="#DejaVuSans-101"/>
      <use x="304.607422" xlink:href="#DejaVuSans-101"/>
      <use x="366.130859" xlink:href="#DejaVuSans-115"/>
     </g>
    </g>
   </g>
   <g id="matplotlib.axis_2">
    <g id="ytick_1">
     <g id="line2d_3">
      <defs>
       <path d="M 0 0 
L -12 0 
" id="m49ac0dfc65" style="stroke:#000000;stroke-width:2.5;"/>
      </defs>
      <g>
       <use style="stroke:#000000;stroke-width:2.5;" x="57.6" xlink:href="#m49ac0dfc65" y="285.408"/>
      </g>
     </g>
     <g id="text_4">
      <!-- 0 -->
      <g transform="translate(9.90575 304.632047)scale(0.506 -0.506)">
       <use xlink:href="#DejaVuSans-48"/>
      </g>
     </g>
    </g>
    <g id="ytick_2">
     <g id="line2d_4">
      <g>
       <use style="stroke:#000000;stroke-width:2.5;" x="57.6" xlink:href="#m49ac0dfc65" y="85.863359"/>
      </g>
     </g>
     <g id="text_5">
      <!-- 2 -->
      <defs>
       <path d="M 19.1875 8.296875 
L 53.609375 8.296875 
L 53.609375 0 
L 7.328125 0 
L 7.328125 8.296875 
Q 12.9375 14.109375 22.625 23.890625 
Q 32.328125 33.6875 34.8125 36.53125 
Q 39.546875 41.84375 41.421875 45.53125 
Q 43.3125 49.21875 43.3125 52.78125 
Q 43.3125 58.59375 39.234375 62.25 
Q 35.15625 65.921875 28.609375 65.921875 
Q 23.96875 65.921875 18.8125 64.3125 
Q 13.671875 62.703125 7.8125 59.421875 
L 7.8125 69.390625 
Q 13.765625 71.78125 18.9375 73 
Q 24.125 74.21875 28.421875 74.21875 
Q 39.75 74.21875 46.484375 68.546875 
Q 53.21875 62.890625 53.21875 53.421875 
Q 53.21875 48.921875 51.53125 44.890625 
Q 49.859375 40.875 45.40625 35.40625 
Q 44.1875 33.984375 37.640625 27.21875 
Q 31.109375 20.453125 19.1875 8.296875 
z
" id="DejaVuSans-50"/>
      </defs>
      <g transform="translate(9.90575 105.087406)scale(0.506 -0.506)">
       <use xlink:href="#DejaVuSans-50"/>
      </g>
     </g>
    </g>
    <g id="text_6">
     <!-- Activation -->
     <defs>
      <path d="M 34.1875 63.1875 
L 20.796875 26.90625 
L 47.609375 26.90625 
z
M 28.609375 72.90625 
L 39.796875 72.90625 
L 67.578125 0 
L 57.328125 0 
L 50.6875 18.703125 
L 17.828125 18.703125 
L 11.1875 0 
L 0.78125 0 
z
" id="DejaVuSans-65"/>
      <path d="M 48.78125 52.59375 
L 48.78125 44.1875 
Q 44.96875 46.296875 41.140625 47.34375 
Q 37.3125 48.390625 33.40625 48.390625 
Q 24.65625 48.390625 19.8125 42.84375 
Q 14.984375 37.3125 14.984375 27.296875 
Q 14.984375 17.28125 19.8125 11.734375 
Q 24.65625 6.203125 33.40625 6.203125 
Q 37.3125 6.203125 41.140625 7.25 
Q 44.96875 8.296875 48.78125 10.40625 
L 48.78125 2.09375 
Q 45.015625 0.34375 40.984375 -0.53125 
Q 36.96875 -1.421875 32.421875 -1.421875 
Q 20.0625 -1.421875 12.78125 6.34375 
Q 5.515625 14.109375 5.515625 27.296875 
Q 5.515625 40.671875 12.859375 48.328125 
Q 20.21875 56 33.015625 56 
Q 37.15625 56 41.109375 55.140625 
Q 45.0625 54.296875 48.78125 52.59375 
z
" id="DejaVuSans-99"/>
      <path d="M 18.3125 70.21875 
L 18.3125 54.6875 
L 36.8125 54.6875 
L 36.8125 47.703125 
L 18.3125 47.703125 
L 18.3125 18.015625 
Q 18.3125 11.328125 20.140625 9.421875 
Q 21.96875 7.515625 27.59375 7.515625 
L 36.8125 7.515625 
L 36.8125 0 
L 27.59375 0 
Q 17.1875 0 13.234375 3.875 
Q 9.28125 7.765625 9.28125 18.015625 
L 9.28125 47.703125 
L 2.6875 47.703125 
L 2.6875 54.6875 
L 9.28125 54.6875 
L 9.28125 70.21875 
z
" id="DejaVuSans-116"/>
      <path d="M 9.421875 54.6875 
L 18.40625 54.6875 
L 18.40625 0 
L 9.421875 0 
z
M 9.421875 75.984375 
L 18.40625 75.984375 
L 18.40625 64.59375 
L 9.421875 64.59375 
z
" id="DejaVuSans-105"/>
      <path d="M 2.984375 54.6875 
L 12.5 54.6875 
L 29.59375 8.796875 
L 46.6875 54.6875 
L 56.203125 54.6875 
L 35.6875 0 
L 23.484375 0 
z
" id="DejaVuSans-118"/>
      <path d="M 34.28125 27.484375 
Q 23.390625 27.484375 19.1875 25 
Q 14.984375 22.515625 14.984375 16.5 
Q 14.984375 11.71875 18.140625 8.90625 
Q 21.296875 6.109375 26.703125 6.109375 
Q 34.1875 6.109375 38.703125 11.40625 
Q 43.21875 16.703125 43.21875 25.484375 
L 43.21875 27.484375 
z
M 52.203125 31.203125 
L 52.203125 0 
L 43.21875 0 
L 43.21875 8.296875 
Q 40.140625 3.328125 35.546875 0.953125 
Q 30.953125 -1.421875 24.3125 -1.421875 
Q 15.921875 -1.421875 10.953125 3.296875 
Q 6 8.015625 6 15.921875 
Q 6 25.140625 12.171875 29.828125 
Q 18.359375 34.515625 30.609375 34.515625 
L 43.21875 34.515625 
L 43.21875 35.40625 
Q 43.21875 41.609375 39.140625 45 
Q 35.0625 48.390625 27.6875 48.390625 
Q 23 48.390625 18.546875 47.265625 
Q 14.109375 46.140625 10.015625 43.890625 
L 10.015625 52.203125 
Q 14.9375 54.109375 19.578125 55.046875 
Q 24.21875 56 28.609375 56 
Q 40.484375 56 46.34375 49.84375 
Q 52.203125 43.703125 52.203125 31.203125 
z
" id="DejaVuSans-97"/>
      <path d="M 30.609375 48.390625 
Q 23.390625 48.390625 19.1875 42.75 
Q 14.984375 37.109375 14.984375 27.296875 
Q 14.984375 17.484375 19.15625 11.84375 
Q 23.34375 6.203125 30.609375 6.203125 
Q 37.796875 6.203125 41.984375 11.859375 
Q 46.1875 17.53125 46.1875 27.296875 
Q 46.1875 37.015625 41.984375 42.703125 
Q 37.796875 48.390625 30.609375 48.390625 
z
M 30.609375 56 
Q 42.328125 56 49.015625 48.375 
Q 55.71875 40.765625 55.71875 27.296875 
Q 55.71875 13.875 49.015625 6.21875 
Q 42.328125 -1.421875 30.609375 -1.421875 
Q 18.84375 -1.421875 12.171875 6.21875 
Q 5.515625 13.875 5.515625 27.296875 
Q 5.515625 40.765625 12.171875 48.375 
Q 18.84375 56 30.609375 56 
z
" id="DejaVuSans-111"/>
      <path d="M 54.890625 33.015625 
L 54.890625 0 
L 45.90625 0 
L 45.90625 32.71875 
Q 45.90625 40.484375 42.875 44.328125 
Q 39.84375 48.1875 33.796875 48.1875 
Q 26.515625 48.1875 22.3125 43.546875 
Q 18.109375 38.921875 18.109375 30.90625 
L 18.109375 0 
L 9.078125 0 
L 9.078125 54.6875 
L 18.109375 54.6875 
L 18.109375 46.1875 
Q 21.34375 51.125 25.703125 53.5625 
Q 30.078125 56 35.796875 56 
Q 45.21875 56 50.046875 50.171875 
Q 54.890625 44.34375 54.890625 33.015625 
z
" id="DejaVuSans-110"/>
     </defs>
     <g transform="translate(-5.574125 313.1835)rotate(-90)scale(0.552 -0.552)">
      <use xlink:href="#DejaVuSans-65"/>
      <use x="68.392578" xlink:href="#DejaVuSans-99"/>
      <use x="123.373047" xlink:href="#DejaVuSans-116"/>
      <use x="162.582031" xlink:href="#DejaVuSans-105"/>
      <use x="190.365234" xlink:href="#DejaVuSans-118"/>
      <use x="249.544922" xlink:href="#DejaVuSans-97"/>
      <use x="310.824219" xlink:href="#DejaVuSans-116"/>
      <use x="350.033203" xlink:href="#DejaVuSans-105"/>
      <use x="377.816406" xlink:href="#DejaVuSans-111"/>
      <use x="438.998047" xlink:href="#DejaVuSans-110"/>
     </g>
    </g>
   </g>
   <g id="line2d_5">
    <path clip-path="url(#p15ad0482d2)" d="M 73.832727 260.019292 
L 90.065455 216.790956 
L 106.298182 201.804231 
L 122.530909 182.449322 
L 138.763636 159.80832 
L 154.996364 156.610592 
L 171.229091 161.266582 
L 187.461818 127.478187 
L 203.694545 116.247514 
L 219.927273 118.320779 
L 236.16 133.189417 
L 252.392727 132.703984 
L 268.625455 135.017885 
L 284.858182 190.974485 
L 301.090909 182.193558 
L 317.323636 225.671221 
L 333.556364 236.676893 
L 349.789091 248.146081 
L 366.021818 241.760494 
L 382.254545 249.822094 
L 398.487273 260.019292 
" style="fill:none;stroke:#0e4db3;stroke-linecap:square;stroke-width:3;"/>
   </g>
   <g id="line2d_6">
    <path clip-path="url(#p15ad0482d2)" d="M 73.832727 265.206759 
L 90.065455 229.803723 
L 106.298182 216.505196 
L 122.530909 202.196625 
L 138.763636 184.716528 
L 154.996364 182.832932 
L 171.229091 184.958768 
L 187.461818 154.992347 
L 203.694545 149.42056 
L 219.927273 147.831431 
L 236.16 155.485606 
L 252.392727 160.379091 
L 268.625455 161.422105 
L 284.858182 209.753123 
L 301.090909 201.041096 
L 317.323636 236.14549 
L 333.556364 244.595515 
L 349.789091 252.257106 
L 366.021818 248.980011 
L 382.254545 255.011217 
L 398.487273 265.206759 
" style="fill:none;stroke:#d44e4e;stroke-linecap:square;stroke-width:3;"/>
   </g>
   <g id="line2d_7">
    <path clip-path="url(#p15ad0482d2)" d="M 73.832727 112.818261 
L 90.065455 111.506698 
L 106.298182 123.140558 
L 122.530909 145.502044 
L 138.763636 149.485131 
L 154.996364 154.368102 
L 171.229091 154.057412 
L 187.461818 128.893298 
L 203.694545 120.557477 
L 219.927273 150.286606 
L 236.16 150.266838 
L 252.392727 145.815374 
L 268.625455 121.072657 
L 284.858182 138.956703 
L 301.090909 116.584227 
L 317.323636 124.369591 
L 333.556364 123.497907 
L 349.789091 94.709696 
L 366.021818 102.888079 
L 382.254545 95.148434 
L 398.487273 112.818261 
" style="fill:none;stroke:#0e4db3;stroke-linecap:square;stroke-width:3;"/>
   </g>
   <g id="line2d_8">
    <path clip-path="url(#p15ad0482d2)" d="M 73.832727 148.790391 
L 90.065455 133.109027 
L 106.298182 152.530083 
L 122.530909 174.322939 
L 138.763636 176.944984 
L 154.996364 181.304271 
L 171.229091 181.2988 
L 187.461818 161.877221 
L 203.694545 155.975416 
L 219.927273 178.724247 
L 236.16 178.643132 
L 252.392727 173.146977 
L 268.625455 155.013268 
L 284.858182 166.373905 
L 301.090909 152.05614 
L 317.323636 157.964283 
L 333.556364 157.013113 
L 349.789091 134.728057 
L 366.021818 138.83177 
L 382.254545 134.629505 
L 398.487273 148.790391 
" style="fill:none;stroke:#d44e4e;stroke-linecap:square;stroke-width:3;"/>
   </g>
   <g id="line2d_9">
    <path clip-path="url(#p15ad0482d2)" d="M 73.832727 110.468382 
L 90.065455 102.017513 
L 106.298182 101.950527 
L 122.530909 101.996913 
L 138.763636 83.50111 
L 154.996364 84.416908 
L 171.229091 82.762767 
L 187.461818 95.155511 
L 203.694545 80.17016 
L 219.927273 86.932527 
L 236.16 98.292628 
L 252.392727 98.489411 
L 268.625455 100.529434 
L 284.858182 112.892645 
L 301.090909 115.159815 
L 317.323636 116.140577 
L 333.556364 115.684295 
L 349.789091 117.120577 
L 366.021818 113.183175 
L 382.254545 111.106936 
L 398.487273 110.468382 
" style="fill:none;stroke:#0e4db3;stroke-linecap:square;stroke-width:3;"/>
   </g>
   <g id="line2d_10">
    <path clip-path="url(#p15ad0482d2)" d="M 73.832727 141.086833 
L 90.065455 135.002054 
L 106.298182 134.49212 
L 122.530909 133.939154 
L 138.763636 122.438575 
L 154.996364 122.249012 
L 171.229091 119.516593 
L 187.461818 128.905727 
L 203.694545 115.517093 
L 219.927273 121.953761 
L 236.16 131.207508 
L 252.392727 130.99336 
L 268.625455 132.84238 
L 284.858182 139.435535 
L 301.090909 141.104971 
L 317.323636 143.362935 
L 333.556364 144.508758 
L 349.789091 145.595946 
L 366.021818 142.363607 
L 382.254545 141.099059 
L 398.487273 141.086833 
" style="fill:none;stroke:#d44e4e;stroke-linecap:square;stroke-width:3;"/>
   </g>
   <g id="line2d_11">
    <path clip-path="url(#p15ad0482d2)" d="M 73.832727 87.386703 
L 90.065455 87.151206 
L 106.298182 87.928632 
L 122.530909 106.487674 
L 138.763636 108.381641 
L 154.996364 113.117628 
L 171.229091 108.979434 
L 187.461818 104.024257 
L 203.694545 90.955077 
L 219.927273 95.572888 
L 236.16 93.708251 
L 252.392727 85.40276 
L 268.625455 82.484429 
L 284.858182 82.64471 
L 301.090909 73.426477 
L 317.323636 71.997225 
L 333.556364 49.914981 
L 349.789091 70.211967 
L 366.021818 69.133914 
L 382.254545 78.847523 
L 398.487273 87.386703 
" style="fill:none;stroke:#0e4db3;stroke-linecap:square;stroke-width:3;"/>
   </g>
   <g id="line2d_12">
    <path clip-path="url(#p15ad0482d2)" d="M 73.832727 129.098525 
L 90.065455 129.090794 
L 106.298182 129.625396 
L 122.530909 143.446215 
L 138.763636 144.350072 
L 154.996364 146.637271 
L 171.229091 145.154472 
L 187.461818 138.862444 
L 203.694545 132.502789 
L 219.927273 134.989304 
L 236.16 135.35342 
L 252.392727 126.301749 
L 268.625455 122.21716 
L 284.858182 121.078735 
L 301.090909 115.949527 
L 317.323636 115.945887 
L 333.556364 101.269727 
L 349.789091 114.769604 
L 366.021818 113.137728 
L 382.254545 121.691954 
L 398.487273 129.098525 
" style="fill:none;stroke:#d44e4e;stroke-linecap:square;stroke-width:3;"/>
   </g>
   <g id="line2d_13">
    <path clip-path="url(#p15ad0482d2)" d="M 73.832727 221.875455 
L 90.065455 220.904143 
L 106.298182 221.777432 
L 122.530909 219.664281 
L 138.763636 195.241578 
L 154.996364 192.07613 
L 171.229091 172.340043 
L 187.461818 178.419897 
L 203.694545 148.508175 
L 219.927273 125.003994 
L 236.16 125.374438 
L 252.392727 100.252392 
L 268.625455 78.117506 
L 284.858182 89.939158 
L 301.090909 59.302581 
L 317.323636 77.105868 
L 333.556364 82.155352 
L 349.789091 164.358479 
L 366.021818 171.956635 
L 382.254545 171.117314 
L 398.487273 221.875455 
" style="fill:none;stroke:#0e4db3;stroke-linecap:square;stroke-width:3;"/>
   </g>
   <g id="line2d_14">
    <path clip-path="url(#p15ad0482d2)" d="M 73.832727 227.319515 
L 90.065455 225.900099 
L 106.298182 226.66632 
L 122.530909 225.744391 
L 138.763636 206.618634 
L 154.996364 204.222815 
L 171.229091 186.944757 
L 187.461818 191.600307 
L 203.694545 168.130807 
L 219.927273 150.946104 
L 236.16 150.993608 
L 252.392727 130.008971 
L 268.625455 112.483427 
L 284.858182 123.918471 
L 301.090909 98.593458 
L 317.323636 111.121731 
L 333.556364 116.027146 
L 349.789091 180.273151 
L 366.021818 186.619183 
L 382.254545 186.555997 
L 398.487273 227.319515 
" style="fill:none;stroke:#d44e4e;stroke-linecap:square;stroke-width:3;"/>
   </g>
   <g id="line2d_15">
    <path clip-path="url(#p15ad0482d2)" d="M 73.832727 285.408 
L 90.065455 285.408 
L 106.298182 285.408 
L 122.530909 285.408 
L 138.763636 285.408 
L 154.996364 285.408 
L 171.229091 285.408 
L 187.461818 285.408 
L 203.694545 285.408 
L 219.927273 285.408 
L 236.16 285.408 
L 252.392727 285.408 
L 268.625455 285.408 
L 284.858182 285.408 
L 301.090909 285.408 
L 317.323636 285.408 
L 333.556364 285.408 
L 349.789091 285.408 
L 366.021818 285.408 
L 382.254545 285.408 
L 398.487273 285.408 
" style="fill:none;stroke:#0e4db3;stroke-linecap:square;stroke-width:3;"/>
   </g>
   <g id="line2d_16">
    <path clip-path="url(#p15ad0482d2)" d="M 73.832727 285.408 
L 90.065455 285.408 
L 106.298182 285.408 
L 122.530909 285.408 
L 138.763636 285.408 
L 154.996364 285.408 
L 171.229091 285.408 
L 187.461818 285.408 
L 203.694545 285.408 
L 219.927273 285.408 
L 236.16 285.408 
L 252.392727 285.408 
L 268.625455 285.408 
L 284.858182 285.408 
L 301.090909 285.408 
L 317.323636 285.408 
L 333.556364 285.408 
L 349.789091 285.408 
L 366.021818 285.408 
L 382.254545 285.408 
L 398.487273 285.408 
" style="fill:none;stroke:#d44e4e;stroke-linecap:square;stroke-width:3;"/>
   </g>
   <g id="line2d_17">
    <path clip-path="url(#p15ad0482d2)" d="M 73.832727 285.408 
L 90.065455 284.516098 
L 106.298182 285.052706 
L 122.530909 284.72638 
L 138.763636 285.109007 
L 154.996364 285.408 
L 171.229091 285.408 
L 187.461818 285.408 
L 203.694545 285.408 
L 219.927273 285.408 
L 236.16 285.408 
L 252.392727 285.408 
L 268.625455 283.333906 
L 284.858182 285.408 
L 301.090909 285.408 
L 317.323636 285.408 
L 333.556364 285.408 
L 349.789091 285.408 
L 366.021818 285.408 
L 382.254545 285.408 
L 398.487273 285.408 
" style="fill:none;stroke:#0e4db3;stroke-linecap:square;stroke-width:3;"/>
   </g>
   <g id="line2d_18">
    <path clip-path="url(#p15ad0482d2)" d="M 73.832727 285.408 
L 90.065455 285.408 
L 106.298182 285.408 
L 122.530909 285.408 
L 138.763636 285.408 
L 154.996364 285.408 
L 171.229091 285.408 
L 187.461818 285.408 
L 203.694545 285.408 
L 219.927273 285.408 
L 236.16 285.408 
L 252.392727 285.408 
L 268.625455 285.408 
L 284.858182 285.408 
L 301.090909 285.408 
L 317.323636 285.408 
L 333.556364 285.408 
L 349.789091 285.408 
L 366.021818 285.408 
L 382.254545 285.408 
L 398.487273 285.408 
" style="fill:none;stroke:#d44e4e;stroke-linecap:square;stroke-width:3;"/>
   </g>
   <g id="line2d_19">
    <path clip-path="url(#p15ad0482d2)" d="M 73.832727 234.178044 
L 90.065455 218.018502 
L 106.298182 194.341837 
L 122.530909 192.061524 
L 138.763636 167.594172 
L 154.996364 162.630335 
L 171.229091 146.220738 
L 187.461818 148.274688 
L 203.694545 124.677295 
L 219.927273 125.877759 
L 236.16 181.894286 
L 252.392727 128.717115 
L 268.625455 155.02848 
L 284.858182 187.617434 
L 301.090909 181.236584 
L 317.323636 204.182828 
L 333.556364 207.014073 
L 349.789091 211.665786 
L 366.021818 213.240565 
L 382.254545 228.676537 
L 398.487273 234.178044 
" style="fill:none;stroke:#0e4db3;stroke-linecap:square;stroke-width:3;"/>
   </g>
   <g id="line2d_20">
    <path clip-path="url(#p15ad0482d2)" d="M 73.832727 235.158449 
L 90.065455 222.792912 
L 106.298182 203.610082 
L 122.530909 199.819176 
L 138.763636 181.607848 
L 154.996364 178.29751 
L 171.229091 164.825726 
L 187.461818 165.397817 
L 203.694545 147.712148 
L 219.927273 147.791872 
L 236.16 192.963371 
L 252.392727 150.411229 
L 268.625455 171.21602 
L 284.858182 198.62294 
L 301.090909 192.328117 
L 317.323636 210.614019 
L 333.556364 212.623861 
L 349.789091 214.500641 
L 366.021818 216.312701 
L 382.254545 229.780304 
L 398.487273 235.158449 
" style="fill:none;stroke:#d44e4e;stroke-linecap:square;stroke-width:3;"/>
   </g>
   <g id="line2d_21">
    <path clip-path="url(#p15ad0482d2)" d="M 73.832727 179.651082 
L 90.065455 172.32872 
L 106.298182 161.313063 
L 122.530909 156.862657 
L 138.763636 162.28984 
L 154.996364 162.586661 
L 171.229091 163.111701 
L 187.461818 174.595343 
L 203.694545 172.809336 
L 219.927273 178.58867 
L 236.16 183.670635 
L 252.392727 177.452159 
L 268.625455 176.129451 
L 284.858182 176.263803 
L 301.090909 176.515832 
L 317.323636 177.513055 
L 333.556364 154.342982 
L 349.789091 167.126782 
L 366.021818 163.133205 
L 382.254545 180.031006 
L 398.487273 179.651082 
" style="fill:none;stroke:#0e4db3;stroke-linecap:square;stroke-width:3;"/>
   </g>
   <g id="line2d_22">
    <path clip-path="url(#p15ad0482d2)" d="M 73.832727 202.231949 
L 90.065455 196.396393 
L 106.298182 187.888803 
L 122.530909 182.79913 
L 138.763636 190.747391 
L 154.996364 191.149592 
L 171.229091 190.976371 
L 187.461818 198.029232 
L 203.694545 194.415317 
L 219.927273 202.845348 
L 236.16 198.968068 
L 252.392727 199.601591 
L 268.625455 199.401394 
L 284.858182 200.775739 
L 301.090909 201.379926 
L 317.323636 201.170518 
L 333.556364 183.182657 
L 349.789091 187.106156 
L 366.021818 186.261602 
L 382.254545 202.234792 
L 398.487273 202.231949 
" style="fill:none;stroke:#d44e4e;stroke-linecap:square;stroke-width:3;"/>
   </g>
   <g id="line2d_23">
    <path clip-path="url(#p15ad0482d2)" d="M 73.832727 281.565047 
L 90.065455 241.043447 
L 106.298182 206.882718 
L 122.530909 209.061707 
L 138.763636 167.629556 
L 154.996364 164.511064 
L 171.229091 165.114139 
L 187.461818 168.835348 
L 203.694545 158.442116 
L 219.927273 158.423717 
L 236.16 173.245279 
L 252.392727 163.480004 
L 268.625455 176.161517 
L 284.858182 206.597719 
L 301.090909 194.34839 
L 317.323636 238.931896 
L 333.556364 239.638815 
L 349.789091 250.604099 
L 366.021818 272.054528 
L 382.254545 252.381658 
L 398.487273 281.565047 
" style="fill:none;stroke:#0e4db3;stroke-linecap:square;stroke-width:3;"/>
   </g>
   <g id="line2d_24">
    <path clip-path="url(#p15ad0482d2)" d="M 73.832727 284.41086 
L 90.065455 253.528195 
L 106.298182 225.9972 
L 122.530909 218.249581 
L 138.763636 196.060501 
L 154.996364 193.355485 
L 171.229091 193.4474 
L 187.461818 193.312715 
L 203.694545 186.141189 
L 219.927273 186.214705 
L 236.16 198.843986 
L 252.392727 189.917657 
L 268.625455 197.850849 
L 284.858182 226.419381 
L 301.090909 214.416433 
L 317.323636 248.568534 
L 333.556364 252.302668 
L 349.789091 262.063653 
L 366.021818 276.624199 
L 382.254545 262.108276 
L 398.487273 284.41086 
" style="fill:none;stroke:#d44e4e;stroke-linecap:square;stroke-width:3;"/>
   </g>
   <g id="line2d_25">
    <path clip-path="url(#p15ad0482d2)" d="M 73.832727 127.339327 
L 90.065455 126.38648 
L 106.298182 116.679627 
L 122.530909 132.127825 
L 138.763636 141.367371 
L 154.996364 174.003044 
L 171.229091 179.748124 
L 187.461818 174.482744 
L 203.694545 123.952036 
L 219.927273 89.36376 
L 236.16 92.046975 
L 252.392727 88.731938 
L 268.625455 123.773986 
L 284.858182 145.2633 
L 301.090909 116.011434 
L 317.323636 105.52109 
L 333.556364 102.839516 
L 349.789091 97.906033 
L 366.021818 85.657097 
L 382.254545 97.08234 
L 398.487273 127.339327 
" style="fill:none;stroke:#0e4db3;stroke-linecap:square;stroke-width:3;"/>
   </g>
   <g id="line2d_26">
    <path clip-path="url(#p15ad0482d2)" d="M 73.832727 149.879172 
L 90.065455 149.85316 
L 106.298182 142.004331 
L 122.530909 152.192478 
L 138.763636 162.618441 
L 154.996364 187.51491 
L 171.229091 191.843975 
L 187.461818 185.237357 
L 203.694545 145.287409 
L 219.927273 120.237178 
L 236.16 122.069689 
L 252.392727 119.505186 
L 268.625455 146.86964 
L 284.858182 164.203419 
L 301.090909 140.442855 
L 317.323636 132.426371 
L 333.556364 130.62897 
L 349.789091 126.873316 
L 366.021818 116.091622 
L 382.254545 125.816601 
L 398.487273 149.879172 
" style="fill:none;stroke:#d44e4e;stroke-linecap:square;stroke-width:3;"/>
   </g>
   <g id="line2d_27">
    <path clip-path="url(#p15ad0482d2)" d="M 73.832727 122.278033 
L 90.065455 121.219759 
L 106.298182 138.276164 
L 122.530909 143.042861 
L 138.763636 176.911539 
L 154.996364 200.124132 
L 171.229091 176.413736 
L 187.461818 145.999633 
L 203.694545 133.444265 
L 219.927273 165.319758 
L 236.16 161.511225 
L 252.392727 161.640439 
L 268.625455 179.841609 
L 284.858182 193.49199 
L 301.090909 171.545954 
L 317.323636 167.536534 
L 333.556364 146.6779 
L 349.789091 145.814708 
L 366.021818 133.815839 
L 382.254545 122.944763 
L 398.487273 122.278033 
" style="fill:none;stroke:#0e4db3;stroke-linecap:square;stroke-width:3;"/>
   </g>
   <g id="line2d_28">
    <path clip-path="url(#p15ad0482d2)" d="M 73.832727 147.948965 
L 90.065455 143.47325 
L 106.298182 160.895686 
L 122.530909 154.769909 
L 138.763636 191.363965 
L 154.996364 209.373497 
L 171.229091 189.73454 
L 187.461818 164.53051 
L 203.694545 154.846494 
L 219.927273 181.521642 
L 236.16 178.488215 
L 252.392727 177.917753 
L 268.625455 193.280043 
L 284.858182 202.933302 
L 301.090909 187.569871 
L 317.323636 182.010203 
L 333.556364 167.292985 
L 349.789091 163.695174 
L 366.021818 155.374007 
L 382.254545 143.404527 
L 398.487273 147.948965 
" style="fill:none;stroke:#d44e4e;stroke-linecap:square;stroke-width:3;"/>
   </g>
   <g id="line2d_29">
    <path clip-path="url(#p15ad0482d2)" d="M 73.832727 44.523147 
L 90.065455 44.179868 
L 106.298182 38.779946 
L 122.530909 42.035228 
L 138.763636 41.698705 
L 154.996364 41.872307 
L 171.229091 38.604536 
L 187.461818 41.041716 
L 203.694545 29.843572 
L 219.927273 34.847099 
L 236.16 35.817489 
L 252.392727 35.607492 
L 268.625455 39.658873 
L 284.858182 42.756277 
L 301.090909 40.107316 
L 317.323636 41.40324 
L 333.556364 40.484278 
L 349.789091 43.199749 
L 366.021818 39.288477 
L 382.254545 41.720994 
L 398.487273 44.523147 
" style="fill:none;stroke:#0e4db3;stroke-linecap:square;stroke-width:3;"/>
   </g>
   <g id="line2d_30">
    <path clip-path="url(#p15ad0482d2)" d="M 73.832727 83.258168 
L 90.065455 81.584878 
L 106.298182 78.091506 
L 122.530909 80.23843 
L 138.763636 80.184789 
L 154.996364 80.281557 
L 171.229091 77.747538 
L 187.461818 80.082907 
L 203.694545 70.905161 
L 219.927273 75.458959 
L 236.16 75.955977 
L 252.392727 75.850312 
L 268.625455 75.889324 
L 284.858182 79.824098 
L 301.090909 77.623652 
L 317.323636 79.342947 
L 333.556364 79.089752 
L 349.789091 81.468057 
L 366.021818 78.344654 
L 382.254545 80.742394 
L 398.487273 83.258168 
" style="fill:none;stroke:#d44e4e;stroke-linecap:square;stroke-width:3;"/>
   </g>
   <g id="line2d_31">
    <path clip-path="url(#p15ad0482d2)" d="M 73.832727 168.676399 
L 90.065455 147.382107 
L 106.298182 147.19729 
L 122.530909 160.160781 
L 138.763636 161.950843 
L 154.996364 156.877322 
L 171.229091 156.591883 
L 187.461818 155.86434 
L 203.694545 172.634378 
L 219.927273 172.188207 
L 236.16 176.066033 
L 252.392727 200.33806 
L 268.625455 226.259499 
L 284.858182 236.043882 
L 301.090909 236.312116 
L 317.323636 232.425399 
L 333.556364 228.205281 
L 349.789091 221.655824 
L 366.021818 194.754527 
L 382.254545 168.859219 
L 398.487273 168.676399 
" style="fill:none;stroke:#0e4db3;stroke-linecap:square;stroke-width:3;"/>
   </g>
   <g id="line2d_32">
    <path clip-path="url(#p15ad0482d2)" d="M 73.832727 185.145489 
L 90.065455 168.074586 
L 106.298182 168.743837 
L 122.530909 173.286455 
L 138.763636 180.094138 
L 154.996364 175.66545 
L 171.229091 175.143432 
L 187.461818 174.049525 
L 203.694545 187.508178 
L 219.927273 187.536325 
L 236.16 191.076041 
L 252.392727 210.265685 
L 268.625455 231.066831 
L 284.858182 238.27058 
L 301.090909 238.378876 
L 317.323636 235.038946 
L 333.556364 232.069216 
L 349.789091 226.48701 
L 366.021818 204.541098 
L 382.254545 183.355272 
L 398.487273 185.145489 
" style="fill:none;stroke:#d44e4e;stroke-linecap:square;stroke-width:3;"/>
   </g>
   <g id="line2d_33">
    <path clip-path="url(#p15ad0482d2)" style="fill:none;stroke:#0e4db3;stroke-linecap:square;stroke-width:3;"/>
   </g>
   <g id="line2d_34">
    <path clip-path="url(#p15ad0482d2)" d="M 73.832727 32.490392 
L 90.065455 32.482994 
L 106.298182 31.851363 
L 122.530909 36.743634 
L 138.763636 34.296083 
L 154.996364 36.481019 
L 171.229091 35.851172 
L 187.461818 39.053265 
L 203.694545 32.188694 
L 219.927273 36.889167 
L 236.16 37.387945 
L 252.392727 35.773101 
L 268.625455 33.140292 
L 284.858182 37.500222 
L 301.090909 35.227081 
L 317.323636 35.235692 
L 333.556364 34.479105 
L 349.789091 35.329891 
L 366.021818 31.230745 
L 382.254545 32.121756 
L 398.487273 32.490392 
" style="fill:none;stroke:#d44e4e;stroke-linecap:square;stroke-width:3;"/>
   </g>
   <g id="line2d_35">
    <path clip-path="url(#p15ad0482d2)" d="M 73.832727 285.408 
L 90.065455 285.408 
L 106.298182 285.408 
L 122.530909 285.408 
L 138.763636 285.408 
L 154.996364 285.408 
L 171.229091 285.408 
L 187.461818 285.408 
L 203.694545 285.408 
L 219.927273 285.408 
L 236.16 285.408 
L 252.392727 285.408 
L 268.625455 280.886679 
L 284.858182 284.114392 
L 301.090909 285.408 
L 317.323636 285.408 
L 333.556364 285.408 
L 349.789091 285.408 
L 366.021818 285.408 
L 382.254545 285.408 
L 398.487273 285.408 
" style="fill:none;stroke:#0e4db3;stroke-linecap:square;stroke-width:3;"/>
   </g>
   <g id="line2d_36">
    <path clip-path="url(#p15ad0482d2)" d="M 73.832727 285.408 
L 90.065455 285.408 
L 106.298182 285.408 
L 122.530909 285.408 
L 138.763636 285.408 
L 154.996364 285.408 
L 171.229091 285.408 
L 187.461818 285.408 
L 203.694545 285.408 
L 219.927273 285.408 
L 236.16 285.408 
L 252.392727 285.408 
L 268.625455 285.408 
L 284.858182 285.408 
L 301.090909 285.408 
L 317.323636 285.408 
L 333.556364 285.408 
L 349.789091 285.408 
L 366.021818 285.408 
L 382.254545 285.408 
L 398.487273 285.408 
" style="fill:none;stroke:#d44e4e;stroke-linecap:square;stroke-width:3;"/>
   </g>
   <g id="line2d_37">
    <path clip-path="url(#p15ad0482d2)" d="M 73.832727 163.983468 
L 90.065455 74.963845 
L 106.298182 96.260813 
L 122.530909 120.346315 
L 138.763636 124.936401 
L 154.996364 188.875167 
L 171.229091 210.066827 
L 187.461818 209.579634 
L 203.694545 144.353889 
L 219.927273 84.579115 
L 236.16 87.927312 
L 252.392727 82.530196 
L 268.625455 116.314737 
L 284.858182 153.710637 
L 301.090909 118.231838 
L 317.323636 102.283494 
L 333.556364 98.662573 
L 349.789091 112.09318 
L 366.021818 63.648 
L 382.254545 106.595943 
L 398.487273 163.983468 
" style="fill:none;stroke:#0e4db3;stroke-linecap:square;stroke-width:3;"/>
   </g>
   <g id="line2d_38">
    <path clip-path="url(#p15ad0482d2)" d="M 73.832727 189.749913 
L 90.065455 117.675625 
L 106.298182 130.864574 
L 122.530909 153.308603 
L 138.763636 159.433618 
L 154.996364 211.043283 
L 171.229091 228.026131 
L 187.461818 221.209439 
L 203.694545 169.99435 
L 219.927273 126.428953 
L 236.16 128.923579 
L 252.392727 124.588841 
L 268.625455 150.7885 
L 284.858182 181.032641 
L 301.090909 152.248319 
L 317.323636 139.615975 
L 333.556364 137.118304 
L 349.789091 144.804735 
L 366.021818 108.066693 
L 382.254545 142.430105 
L 398.487273 189.749913 
" style="fill:none;stroke:#d44e4e;stroke-linecap:square;stroke-width:3;"/>
   </g>
   <g id="patch_3">
    <path d="M 57.6 307.584 
L 57.6 41.472 
" style="fill:none;stroke:#000000;stroke-linecap:square;stroke-linejoin:miter;stroke-width:2.5;"/>
   </g>
   <g id="patch_4">
    <path d="M 414.72 307.584 
L 414.72 41.472 
" style="fill:none;stroke:#000000;stroke-linecap:square;stroke-linejoin:miter;stroke-width:2.5;"/>
   </g>
   <g id="patch_5">
    <path d="M 57.6 307.584 
L 414.72 307.584 
" style="fill:none;stroke:#000000;stroke-linecap:square;stroke-linejoin:miter;stroke-width:2.5;"/>
   </g>
   <g id="patch_6">
    <path d="M 57.6 41.472 
L 414.72 41.472 
" style="fill:none;stroke:#000000;stroke-linecap:square;stroke-linejoin:miter;stroke-width:2.5;"/>
   </g>
  </g>
 </g>
 <defs>
  <clipPath id="p15ad0482d2">
   <rect height="266.112" width="357.12" x="57.6" y="41.472"/>
  </clipPath>
 </defs>
</svg>
