<?xml version="1.0" encoding="utf-8" standalone="no"?>
<!DOCTYPE svg PUBLIC "-//W3C//DTD SVG 1.1//EN"
  "http://www.w3.org/Graphics/SVG/1.1/DTD/svg11.dtd">
<!-- Created with matplotlib (https://matplotlib.org/) -->
<svg height="345.6pt" version="1.1" viewBox="0 0 460.8 345.6" width="460.8pt" xmlns="http://www.w3.org/2000/svg" xmlns:xlink="http://www.w3.org/1999/xlink">
 <defs>
  <style type="text/css">
*{stroke-linecap:butt;stroke-linejoin:round;}
  </style>
 </defs>
 <g id="figure_1">
  <g id="patch_1">
   <path d="M 0 345.6 
L 460.8 345.6 
L 460.8 0 
L 0 0 
z
" style="fill:#ffffff;"/>
  </g>
  <g id="axes_1">
   <g id="patch_2">
    <path d="M 57.6 307.584 
L 414.72 307.584 
L 414.72 41.472 
L 57.6 41.472 
z
" style="fill:#ffffff;"/>
   </g>
   <g id="matplotlib.axis_1">
    <g id="xtick_1">
     <g id="line2d_1">
      <defs>
       <path d="M 0 0 
L 0 12 
" id="mccecc27168" style="stroke:#000000;stroke-width:2.5;"/>
      </defs>
      <g>
       <use style="stroke:#000000;stroke-width:2.5;" x="73.832727" xlink:href="#mccecc27168" y="307.584"/>
      </g>
     </g>
     <g id="text_1">
      <!-- 0 -->
      <defs>
       <path d="M 31.78125 66.40625 
Q 24.171875 66.40625 20.328125 58.90625 
Q 16.5 51.421875 16.5 36.375 
Q 16.5 21.390625 20.328125 13.890625 
Q 24.171875 6.390625 31.78125 6.390625 
Q 39.453125 6.390625 43.28125 13.890625 
Q 47.125 21.390625 47.125 36.375 
Q 47.125 51.421875 43.28125 58.90625 
Q 39.453125 66.40625 31.78125 66.40625 
z
M 31.78125 74.21875 
Q 44.046875 74.21875 50.515625 64.515625 
Q 56.984375 54.828125 56.984375 36.375 
Q 56.984375 17.96875 50.515625 8.265625 
Q 44.046875 -1.421875 31.78125 -1.421875 
Q 19.53125 -1.421875 13.0625 8.265625 
Q 6.59375 17.96875 6.59375 36.375 
Q 6.59375 54.828125 13.0625 64.515625 
Q 19.53125 74.21875 31.78125 74.21875 
z
" id="DejaVuSans-48"/>
      </defs>
      <g transform="translate(57.735602 361.532094)scale(0.506 -0.506)">
       <use xlink:href="#DejaVuSans-48"/>
      </g>
     </g>
    </g>
    <g id="xtick_2">
     <g id="line2d_2">
      <g>
       <use style="stroke:#000000;stroke-width:2.5;" x="254.196364" xlink:href="#mccecc27168" y="307.584"/>
      </g>
     </g>
     <g id="text_2">
      <!-- 100 -->
      <defs>
       <path d="M 12.40625 8.296875 
L 28.515625 8.296875 
L 28.515625 63.921875 
L 10.984375 60.40625 
L 10.984375 69.390625 
L 28.421875 72.90625 
L 38.28125 72.90625 
L 38.28125 8.296875 
L 54.390625 8.296875 
L 54.390625 0 
L 12.40625 0 
z
" id="DejaVuSans-49"/>
      </defs>
      <g transform="translate(205.904989 361.532094)scale(0.506 -0.506)">
       <use xlink:href="#DejaVuSans-49"/>
       <use x="63.623047" xlink:href="#DejaVuSans-48"/>
       <use x="127.246094" xlink:href="#DejaVuSans-48"/>
      </g>
     </g>
    </g>
    <g id="text_3">
     <!-- Degrees -->
     <defs>
      <path d="M 19.671875 64.796875 
L 19.671875 8.109375 
L 31.59375 8.109375 
Q 46.6875 8.109375 53.6875 14.9375 
Q 60.6875 21.78125 60.6875 36.53125 
Q 60.6875 51.171875 53.6875 57.984375 
Q 46.6875 64.796875 31.59375 64.796875 
z
M 9.8125 72.90625 
L 30.078125 72.90625 
Q 51.265625 72.90625 61.171875 64.09375 
Q 71.09375 55.28125 71.09375 36.53125 
Q 71.09375 17.671875 61.125 8.828125 
Q 51.171875 0 30.078125 0 
L 9.8125 0 
z
" id="DejaVuSans-68"/>
      <path d="M 56.203125 29.59375 
L 56.203125 25.203125 
L 14.890625 25.203125 
Q 15.484375 15.921875 20.484375 11.0625 
Q 25.484375 6.203125 34.421875 6.203125 
Q 39.59375 6.203125 44.453125 7.46875 
Q 49.3125 8.734375 54.109375 11.28125 
L 54.109375 2.78125 
Q 49.265625 0.734375 44.1875 -0.34375 
Q 39.109375 -1.421875 33.890625 -1.421875 
Q 20.796875 -1.421875 13.15625 6.1875 
Q 5.515625 13.8125 5.515625 26.8125 
Q 5.515625 40.234375 12.765625 48.109375 
Q 20.015625 56 32.328125 56 
Q 43.359375 56 49.78125 48.890625 
Q 56.203125 41.796875 56.203125 29.59375 
z
M 47.21875 32.234375 
Q 47.125 39.59375 43.09375 43.984375 
Q 39.0625 48.390625 32.421875 48.390625 
Q 24.90625 48.390625 20.390625 44.140625 
Q 15.875 39.890625 15.1875 32.171875 
z
" id="DejaVuSans-101"/>
      <path d="M 45.40625 27.984375 
Q 45.40625 37.75 41.375 43.109375 
Q 37.359375 48.484375 30.078125 48.484375 
Q 22.859375 48.484375 18.828125 43.109375 
Q 14.796875 37.75 14.796875 27.984375 
Q 14.796875 18.265625 18.828125 12.890625 
Q 22.859375 7.515625 30.078125 7.515625 
Q 37.359375 7.515625 41.375 12.890625 
Q 45.40625 18.265625 45.40625 27.984375 
z
M 54.390625 6.78125 
Q 54.390625 -7.171875 48.1875 -13.984375 
Q 42 -20.796875 29.203125 -20.796875 
Q 24.46875 -20.796875 20.265625 -20.09375 
Q 16.0625 -19.390625 12.109375 -17.921875 
L 12.109375 -9.1875 
Q 16.0625 -11.328125 19.921875 -12.34375 
Q 23.78125 -13.375 27.78125 -13.375 
Q 36.625 -13.375 41.015625 -8.765625 
Q 45.40625 -4.15625 45.40625 5.171875 
L 45.40625 9.625 
Q 42.625 4.78125 38.28125 2.390625 
Q 33.9375 0 27.875 0 
Q 17.828125 0 11.671875 7.65625 
Q 5.515625 15.328125 5.515625 27.984375 
Q 5.515625 40.671875 11.671875 48.328125 
Q 17.828125 56 27.875 56 
Q 33.9375 56 38.28125 53.609375 
Q 42.625 51.21875 45.40625 46.390625 
L 45.40625 54.6875 
L 54.390625 54.6875 
z
" id="DejaVuSans-103"/>
      <path d="M 41.109375 46.296875 
Q 39.59375 47.171875 37.8125 47.578125 
Q 36.03125 48 33.890625 48 
Q 26.265625 48 22.1875 43.046875 
Q 18.109375 38.09375 18.109375 28.8125 
L 18.109375 0 
L 9.078125 0 
L 9.078125 54.6875 
L 18.109375 54.6875 
L 18.109375 46.1875 
Q 20.953125 51.171875 25.484375 53.578125 
Q 30.03125 56 36.53125 56 
Q 37.453125 56 38.578125 55.875 
Q 39.703125 55.765625 41.0625 55.515625 
z
" id="DejaVuSans-114"/>
      <path d="M 44.28125 53.078125 
L 44.28125 44.578125 
Q 40.484375 46.53125 36.375 47.5 
Q 32.28125 48.484375 27.875 48.484375 
Q 21.1875 48.484375 17.84375 46.4375 
Q 14.5 44.390625 14.5 40.28125 
Q 14.5 37.15625 16.890625 35.375 
Q 19.28125 33.59375 26.515625 31.984375 
L 29.59375 31.296875 
Q 39.15625 29.25 43.1875 25.515625 
Q 47.21875 21.78125 47.21875 15.09375 
Q 47.21875 7.46875 41.1875 3.015625 
Q 35.15625 -1.421875 24.609375 -1.421875 
Q 20.21875 -1.421875 15.453125 -0.5625 
Q 10.6875 0.296875 5.421875 2 
L 5.421875 11.28125 
Q 10.40625 8.6875 15.234375 7.390625 
Q 20.0625 6.109375 24.8125 6.109375 
Q 31.15625 6.109375 34.5625 8.28125 
Q 37.984375 10.453125 37.984375 14.40625 
Q 37.984375 18.0625 35.515625 20.015625 
Q 33.0625 21.96875 24.703125 23.78125 
L 21.578125 24.515625 
Q 13.234375 26.265625 9.515625 29.90625 
Q 5.8125 33.546875 5.8125 39.890625 
Q 5.8125 47.609375 11.28125 51.796875 
Q 16.75 56 26.8125 56 
Q 31.78125 56 36.171875 55.265625 
Q 40.578125 54.546875 44.28125 53.078125 
z
" id="DejaVuSans-115"/>
     </defs>
     <g transform="translate(120.723 417.998687)scale(0.552 -0.552)">
      <use xlink:href="#DejaVuSans-68"/>
      <use x="77.001953" xlink:href="#DejaVuSans-101"/>
      <use x="138.525391" xlink:href="#DejaVuSans-103"/>
      <use x="202.001953" xlink:href="#DejaVuSans-114"/>
      <use x="243.083984" xlink:href="#DejaVuSans-101"/>
      <use x="304.607422" xlink:href="#DejaVuSans-101"/>
      <use x="366.130859" xlink:href="#DejaVuSans-115"/>
     </g>
    </g>
   </g>
   <g id="matplotlib.axis_2">
    <g id="ytick_1">
     <g id="line2d_3">
      <defs>
       <path d="M 0 0 
L -12 0 
" id="m08a778b800" style="stroke:#000000;stroke-width:2.5;"/>
      </defs>
      <g>
       <use style="stroke:#000000;stroke-width:2.5;" x="57.6" xlink:href="#m08a778b800" y="285.408"/>
      </g>
     </g>
     <g id="text_4">
      <!-- 0 -->
      <g transform="translate(9.90575 304.632047)scale(0.506 -0.506)">
       <use xlink:href="#DejaVuSans-48"/>
      </g>
     </g>
    </g>
    <g id="ytick_2">
     <g id="line2d_4">
      <g>
       <use style="stroke:#000000;stroke-width:2.5;" x="57.6" xlink:href="#m08a778b800" y="149.241958"/>
      </g>
     </g>
     <g id="text_5">
      <!-- 1 -->
      <g transform="translate(9.90575 168.466005)scale(0.506 -0.506)">
       <use xlink:href="#DejaVuSans-49"/>
      </g>
     </g>
    </g>
    <g id="text_6">
     <!-- Activation -->
     <defs>
      <path d="M 34.1875 63.1875 
L 20.796875 26.90625 
L 47.609375 26.90625 
z
M 28.609375 72.90625 
L 39.796875 72.90625 
L 67.578125 0 
L 57.328125 0 
L 50.6875 18.703125 
L 17.828125 18.703125 
L 11.1875 0 
L 0.78125 0 
z
" id="DejaVuSans-65"/>
      <path d="M 48.78125 52.59375 
L 48.78125 44.1875 
Q 44.96875 46.296875 41.140625 47.34375 
Q 37.3125 48.390625 33.40625 48.390625 
Q 24.65625 48.390625 19.8125 42.84375 
Q 14.984375 37.3125 14.984375 27.296875 
Q 14.984375 17.28125 19.8125 11.734375 
Q 24.65625 6.203125 33.40625 6.203125 
Q 37.3125 6.203125 41.140625 7.25 
Q 44.96875 8.296875 48.78125 10.40625 
L 48.78125 2.09375 
Q 45.015625 0.34375 40.984375 -0.53125 
Q 36.96875 -1.421875 32.421875 -1.421875 
Q 20.0625 -1.421875 12.78125 6.34375 
Q 5.515625 14.109375 5.515625 27.296875 
Q 5.515625 40.671875 12.859375 48.328125 
Q 20.21875 56 33.015625 56 
Q 37.15625 56 41.109375 55.140625 
Q 45.0625 54.296875 48.78125 52.59375 
z
" id="DejaVuSans-99"/>
      <path d="M 18.3125 70.21875 
L 18.3125 54.6875 
L 36.8125 54.6875 
L 36.8125 47.703125 
L 18.3125 47.703125 
L 18.3125 18.015625 
Q 18.3125 11.328125 20.140625 9.421875 
Q 21.96875 7.515625 27.59375 7.515625 
L 36.8125 7.515625 
L 36.8125 0 
L 27.59375 0 
Q 17.1875 0 13.234375 3.875 
Q 9.28125 7.765625 9.28125 18.015625 
L 9.28125 47.703125 
L 2.6875 47.703125 
L 2.6875 54.6875 
L 9.28125 54.6875 
L 9.28125 70.21875 
z
" id="DejaVuSans-116"/>
      <path d="M 9.421875 54.6875 
L 18.40625 54.6875 
L 18.40625 0 
L 9.421875 0 
z
M 9.421875 75.984375 
L 18.40625 75.984375 
L 18.40625 64.59375 
L 9.421875 64.59375 
z
" id="DejaVuSans-105"/>
      <path d="M 2.984375 54.6875 
L 12.5 54.6875 
L 29.59375 8.796875 
L 46.6875 54.6875 
L 56.203125 54.6875 
L 35.6875 0 
L 23.484375 0 
z
" id="DejaVuSans-118"/>
      <path d="M 34.28125 27.484375 
Q 23.390625 27.484375 19.1875 25 
Q 14.984375 22.515625 14.984375 16.5 
Q 14.984375 11.71875 18.140625 8.90625 
Q 21.296875 6.109375 26.703125 6.109375 
Q 34.1875 6.109375 38.703125 11.40625 
Q 43.21875 16.703125 43.21875 25.484375 
L 43.21875 27.484375 
z
M 52.203125 31.203125 
L 52.203125 0 
L 43.21875 0 
L 43.21875 8.296875 
Q 40.140625 3.328125 35.546875 0.953125 
Q 30.953125 -1.421875 24.3125 -1.421875 
Q 15.921875 -1.421875 10.953125 3.296875 
Q 6 8.015625 6 15.921875 
Q 6 25.140625 12.171875 29.828125 
Q 18.359375 34.515625 30.609375 34.515625 
L 43.21875 34.515625 
L 43.21875 35.40625 
Q 43.21875 41.609375 39.140625 45 
Q 35.0625 48.390625 27.6875 48.390625 
Q 23 48.390625 18.546875 47.265625 
Q 14.109375 46.140625 10.015625 43.890625 
L 10.015625 52.203125 
Q 14.9375 54.109375 19.578125 55.046875 
Q 24.21875 56 28.609375 56 
Q 40.484375 56 46.34375 49.84375 
Q 52.203125 43.703125 52.203125 31.203125 
z
" id="DejaVuSans-97"/>
      <path d="M 30.609375 48.390625 
Q 23.390625 48.390625 19.1875 42.75 
Q 14.984375 37.109375 14.984375 27.296875 
Q 14.984375 17.484375 19.15625 11.84375 
Q 23.34375 6.203125 30.609375 6.203125 
Q 37.796875 6.203125 41.984375 11.859375 
Q 46.1875 17.53125 46.1875 27.296875 
Q 46.1875 37.015625 41.984375 42.703125 
Q 37.796875 48.390625 30.609375 48.390625 
z
M 30.609375 56 
Q 42.328125 56 49.015625 48.375 
Q 55.71875 40.765625 55.71875 27.296875 
Q 55.71875 13.875 49.015625 6.21875 
Q 42.328125 -1.421875 30.609375 -1.421875 
Q 18.84375 -1.421875 12.171875 6.21875 
Q 5.515625 13.875 5.515625 27.296875 
Q 5.515625 40.765625 12.171875 48.375 
Q 18.84375 56 30.609375 56 
z
" id="DejaVuSans-111"/>
      <path d="M 54.890625 33.015625 
L 54.890625 0 
L 45.90625 0 
L 45.90625 32.71875 
Q 45.90625 40.484375 42.875 44.328125 
Q 39.84375 48.1875 33.796875 48.1875 
Q 26.515625 48.1875 22.3125 43.546875 
Q 18.109375 38.921875 18.109375 30.90625 
L 18.109375 0 
L 9.078125 0 
L 9.078125 54.6875 
L 18.109375 54.6875 
L 18.109375 46.1875 
Q 21.34375 51.125 25.703125 53.5625 
Q 30.078125 56 35.796875 56 
Q 45.21875 56 50.046875 50.171875 
Q 54.890625 44.34375 54.890625 33.015625 
z
" id="DejaVuSans-110"/>
     </defs>
     <g transform="translate(-5.574125 313.1835)rotate(-90)scale(0.552 -0.552)">
      <use xlink:href="#DejaVuSans-65"/>
      <use x="68.392578" xlink:href="#DejaVuSans-99"/>
      <use x="123.373047" xlink:href="#DejaVuSans-116"/>
      <use x="162.582031" xlink:href="#DejaVuSans-105"/>
      <use x="190.365234" xlink:href="#DejaVuSans-118"/>
      <use x="249.544922" xlink:href="#DejaVuSans-97"/>
      <use x="310.824219" xlink:href="#DejaVuSans-116"/>
      <use x="350.033203" xlink:href="#DejaVuSans-105"/>
      <use x="377.816406" xlink:href="#DejaVuSans-111"/>
      <use x="438.998047" xlink:href="#DejaVuSans-110"/>
     </g>
    </g>
   </g>
   <g id="line2d_5">
    <path clip-path="url(#p3ac899931b)" d="M 73.832727 250.758311 
L 90.065455 191.761674 
L 106.298182 171.308275 
L 122.530909 144.89332 
L 138.763636 113.993612 
L 154.996364 109.629456 
L 171.229091 115.9838 
L 187.461818 69.87049 
L 203.694545 54.54323 
L 219.927273 57.372755 
L 236.16 77.664992 
L 252.392727 77.002489 
L 268.625455 80.160426 
L 284.858182 156.528188 
L 301.090909 144.544262 
L 317.323636 203.881172 
L 333.556364 218.901358 
L 349.789091 234.554136 
L 366.021818 225.839293 
L 382.254545 236.841505 
L 398.487273 250.758311 
" style="fill:none;stroke:#0e4db3;stroke-linecap:square;stroke-width:3;"/>
   </g>
   <g id="line2d_6">
    <path clip-path="url(#p3ac899931b)" d="M 73.832727 257.837998 
L 90.065455 209.521078 
L 106.298182 191.371678 
L 122.530909 171.843801 
L 138.763636 147.987529 
L 154.996364 145.416859 
L 171.229091 148.318132 
L 187.461818 107.420927 
L 203.694545 99.816732 
L 219.927273 97.64794 
L 236.16 108.094111 
L 252.392727 114.772581 
L 268.625455 116.196053 
L 284.858182 182.156666 
L 301.090909 170.266773 
L 317.323636 218.176117 
L 333.556364 229.708438 
L 349.789091 240.164731 
L 366.021818 235.692257 
L 382.254545 243.923452 
L 398.487273 257.837998 
" style="fill:none;stroke:#d44e4e;stroke-linecap:square;stroke-width:3;"/>
   </g>
   <g id="line2d_7">
    <path clip-path="url(#p3ac899931b)" d="M 73.832727 49.863097 
L 90.065455 48.073117 
L 106.298182 63.950634 
L 122.530909 94.468868 
L 138.763636 99.904856 
L 154.996364 106.568977 
L 171.229091 106.144958 
L 187.461818 71.801787 
L 203.694545 60.425329 
L 219.927273 100.998683 
L 236.16 100.971705 
L 252.392727 94.896491 
L 268.625455 61.128429 
L 284.858182 85.535998 
L 301.090909 55.002765 
L 317.323636 65.627978 
L 333.556364 64.438332 
L 349.789091 25.149112 
L 366.021818 36.310704 
L 382.254545 25.747887 
L 398.487273 49.863097 
" style="fill:none;stroke:#0e4db3;stroke-linecap:square;stroke-width:3;"/>
   </g>
   <g id="line2d_8">
    <path clip-path="url(#p3ac899931b)" d="M 73.832727 98.956698 
L 90.065455 77.555278 
L 106.298182 104.060509 
L 122.530909 133.802695 
L 138.763636 137.381178 
L 154.996364 143.330592 
L 171.229091 143.323125 
L 187.461818 116.81718 
L 203.694545 108.762588 
L 219.927273 139.809458 
L 236.16 139.698754 
L 252.392727 132.19778 
L 268.625455 107.44948 
L 284.858182 122.95411 
L 301.090909 103.413686 
L 317.323636 111.47693 
L 333.556364 110.178804 
L 349.789091 79.764878 
L 366.021818 85.365494 
L 382.254545 79.630378 
L 398.487273 98.956698 
" style="fill:none;stroke:#d44e4e;stroke-linecap:square;stroke-width:3;"/>
   </g>
   <g id="line2d_9">
    <path clip-path="url(#p3ac899931b)" d="M 73.832727 46.656057 
L 90.065455 35.122584 
L 106.298182 35.031164 
L 122.530909 35.09447 
L 138.763636 9.851995 
L 154.996364 11.101846 
L 171.229091 8.844329 
L 187.461818 25.757545 
L 203.694545 5.306021 
L 219.927273 14.535082 
L 236.16 30.038982 
L 252.392727 30.307544 
L 268.625455 33.091701 
L 284.858182 49.964613 
L 301.090909 53.058773 
L 317.323636 54.397285 
L 333.556364 53.774567 
L 349.789091 55.734758 
L 366.021818 50.361118 
L 382.254545 47.527534 
L 398.487273 46.656057 
" style="fill:none;stroke:#0e4db3;stroke-linecap:square;stroke-width:3;"/>
   </g>
   <g id="line2d_10">
    <path clip-path="url(#p3ac899931b)" d="M 73.832727 88.44313 
L 90.065455 80.138821 
L 106.298182 79.442879 
L 122.530909 78.688209 
L 138.763636 62.99259 
L 154.996364 62.73388 
L 171.229091 59.004763 
L 187.461818 71.81875 
L 203.694545 53.546374 
L 219.927273 62.330931 
L 236.16 74.960146 
L 252.392727 74.667885 
L 268.625455 77.191368 
L 284.858182 86.189492 
L 301.090909 88.467884 
L 317.323636 91.549481 
L 333.556364 93.113264 
L 349.789091 94.597022 
L 366.021818 90.18563 
L 382.254545 88.459817 
L 398.487273 88.44313 
" style="fill:none;stroke:#d44e4e;stroke-linecap:square;stroke-width:3;"/>
   </g>
   <g id="line2d_11">
    <path clip-path="url(#p3ac899931b)" d="M 73.832727 15.154927 
L 90.065455 14.833529 
L 106.298182 15.894534 
L 122.530909 41.223315 
L 138.763636 43.80814 
L 154.996364 50.271662 
L 171.229091 44.623989 
L 187.461818 37.861323 
L 203.694545 20.024929 
L 219.927273 26.327168 
L 236.16 23.782372 
L 252.392727 12.447306 
L 268.625455 8.464462 
L 284.858182 8.683207 
L 297.352263 -1 
M 376.743242 -1 
L 382.254545 3.500929 
L 398.487273 15.154927 
" style="fill:none;stroke:#0e4db3;stroke-linecap:square;stroke-width:3;"/>
   </g>
   <g id="line2d_12">
    <path clip-path="url(#p3ac899931b)" d="M 73.832727 72.081875 
L 90.065455 72.071324 
L 106.298182 72.800932 
L 122.530909 91.663139 
L 138.763636 92.896693 
L 154.996364 96.018189 
L 171.229091 93.994513 
L 187.461818 85.407357 
L 203.694545 76.727904 
L 219.927273 80.12142 
L 236.16 80.618354 
L 252.392727 68.264925 
L 268.625455 62.69041 
L 284.858182 61.136724 
L 301.090909 54.136547 
L 317.323636 54.13158 
L 333.556364 34.102029 
L 349.789091 52.526226 
L 366.021818 50.299095 
L 382.254545 61.973626 
L 398.487273 72.081875 
" style="fill:none;stroke:#d44e4e;stroke-linecap:square;stroke-width:3;"/>
   </g>
   <g id="line2d_13">
    <path clip-path="url(#p3ac899931b)" d="M 73.832727 198.700834 
L 90.065455 197.375218 
L 106.298182 198.567056 
L 122.530909 195.683095 
L 138.763636 162.351778 
L 154.996364 158.031677 
L 171.229091 131.096502 
L 187.461818 139.394091 
L 203.694545 98.571539 
L 219.927273 66.493791 
L 236.16 66.999361 
L 252.392727 32.713603 
L 268.625455 2.504626 
L 284.858182 18.638435 
L 292.482471 -1 
M 315.904638 -1 
L 317.323636 1.123975 
L 333.556364 8.015347 
L 349.789091 120.203521 
L 366.021818 130.573239 
L 382.254545 129.427761 
L 398.487273 198.700834 
" style="fill:none;stroke:#0e4db3;stroke-linecap:square;stroke-width:3;"/>
   </g>
   <g id="line2d_14">
    <path clip-path="url(#p3ac899931b)" d="M 73.832727 206.130711 
L 90.065455 204.193537 
L 106.298182 205.239252 
L 122.530909 203.981033 
L 138.763636 177.878817 
L 154.996364 174.60908 
L 171.229091 151.028545 
L 187.461818 157.382289 
L 203.694545 125.351874 
L 219.927273 101.898746 
L 236.16 101.963577 
L 252.392727 73.324422 
L 268.625455 49.406126 
L 284.858182 65.012305 
L 301.090909 30.449544 
L 317.323636 47.547727 
L 333.556364 54.242478 
L 349.789091 141.923353 
L 366.021818 150.584211 
L 382.254545 150.497978 
L 398.487273 206.130711 
" style="fill:none;stroke:#d44e4e;stroke-linecap:square;stroke-width:3;"/>
   </g>
   <g id="line2d_15">
    <path clip-path="url(#p3ac899931b)" d="M 73.832727 285.408 
L 90.065455 285.408 
L 106.298182 285.408 
L 122.530909 285.408 
L 138.763636 285.408 
L 154.996364 285.408 
L 171.229091 285.408 
L 187.461818 285.408 
L 203.694545 285.408 
L 219.927273 285.408 
L 236.16 285.408 
L 252.392727 285.408 
L 268.625455 285.408 
L 284.858182 285.408 
L 301.090909 285.408 
L 317.323636 285.408 
L 333.556364 285.408 
L 349.789091 285.408 
L 366.021818 285.408 
L 382.254545 285.408 
L 398.487273 285.408 
" style="fill:none;stroke:#0e4db3;stroke-linecap:square;stroke-width:3;"/>
   </g>
   <g id="line2d_16">
    <path clip-path="url(#p3ac899931b)" d="M 73.832727 285.408 
L 90.065455 285.408 
L 106.298182 285.408 
L 122.530909 285.408 
L 138.763636 285.408 
L 154.996364 285.408 
L 171.229091 285.408 
L 187.461818 285.408 
L 203.694545 285.408 
L 219.927273 285.408 
L 236.16 285.408 
L 252.392727 285.408 
L 268.625455 285.408 
L 284.858182 285.408 
L 301.090909 285.408 
L 317.323636 285.408 
L 333.556364 285.408 
L 349.789091 285.408 
L 366.021818 285.408 
L 382.254545 285.408 
L 398.487273 285.408 
" style="fill:none;stroke:#d44e4e;stroke-linecap:square;stroke-width:3;"/>
   </g>
   <g id="line2d_17">
    <path clip-path="url(#p3ac899931b)" d="M 73.832727 285.408 
L 90.065455 284.190761 
L 106.298182 284.923106 
L 122.530909 284.477748 
L 138.763636 284.999943 
L 154.996364 285.408 
L 171.229091 285.408 
L 187.461818 285.408 
L 203.694545 285.408 
L 219.927273 285.408 
L 236.16 285.408 
L 252.392727 285.408 
L 268.625455 282.577344 
L 284.858182 285.408 
L 301.090909 285.408 
L 317.323636 285.408 
L 333.556364 285.408 
L 349.789091 285.408 
L 366.021818 285.408 
L 382.254545 285.408 
L 398.487273 285.408 
" style="fill:none;stroke:#0e4db3;stroke-linecap:square;stroke-width:3;"/>
   </g>
   <g id="line2d_18">
    <path clip-path="url(#p3ac899931b)" d="M 73.832727 285.408 
L 90.065455 285.408 
L 106.298182 285.408 
L 122.530909 285.408 
L 138.763636 285.408 
L 154.996364 285.408 
L 171.229091 285.408 
L 187.461818 285.408 
L 203.694545 285.408 
L 219.927273 285.408 
L 236.16 285.408 
L 252.392727 285.408 
L 268.625455 285.408 
L 284.858182 285.408 
L 301.090909 285.408 
L 317.323636 285.408 
L 333.556364 285.408 
L 349.789091 285.408 
L 366.021818 285.408 
L 382.254545 285.408 
L 398.487273 285.408 
" style="fill:none;stroke:#d44e4e;stroke-linecap:square;stroke-width:3;"/>
   </g>
   <g id="line2d_19">
    <path clip-path="url(#p3ac899931b)" d="M 73.832727 215.49101 
L 90.065455 193.436989 
L 106.298182 161.12384 
L 122.530909 158.011743 
L 138.763636 124.619491 
L 154.996364 117.845007 
L 171.229091 95.449719 
L 187.461818 98.252883 
L 203.694545 66.047923 
L 219.927273 67.686277 
L 236.16 144.135826 
L 252.392727 71.561339 
L 268.625455 107.470241 
L 284.858182 151.946593 
L 301.090909 143.238214 
L 317.323636 174.554507 
L 333.556364 178.418499 
L 349.789091 184.767008 
L 366.021818 186.916215 
L 382.254545 207.982731 
L 398.487273 215.49101 
" style="fill:none;stroke:#0e4db3;stroke-linecap:square;stroke-width:3;"/>
   </g>
   <g id="line2d_20">
    <path clip-path="url(#p3ac899931b)" d="M 73.832727 216.829035 
L 90.065455 199.95295 
L 106.298182 173.772843 
L 122.530909 168.599136 
L 138.763636 143.744904 
L 154.996364 139.227061 
L 171.229091 120.841206 
L 187.461818 121.621977 
L 203.694545 97.485146 
L 219.927273 97.593951 
L 236.16 159.242554 
L 252.392727 101.168765 
L 268.625455 129.562473 
L 284.858182 166.966552 
L 301.090909 158.375581 
L 317.323636 183.331589 
L 333.556364 186.074556 
L 349.789091 188.635925 
L 366.021818 191.108967 
L 382.254545 209.489117 
L 398.487273 216.829035 
" style="fill:none;stroke:#d44e4e;stroke-linecap:square;stroke-width:3;"/>
   </g>
   <g id="line2d_21">
    <path clip-path="url(#p3ac899931b)" d="M 73.832727 141.074373 
L 90.065455 131.081049 
L 106.298182 116.047236 
L 122.530909 109.973466 
L 138.763636 117.38031 
L 154.996364 117.785402 
L 171.229091 118.501959 
L 187.461818 134.174463 
L 203.694545 131.736978 
L 219.927273 139.624427 
L 236.16 146.560129 
L 252.392727 138.073353 
L 268.625455 136.268164 
L 284.858182 136.451524 
L 301.090909 136.795485 
L 317.323636 138.156463 
L 333.556364 106.534695 
L 349.789091 123.981612 
L 366.021818 118.531307 
L 382.254545 141.59288 
L 398.487273 141.074373 
" style="fill:none;stroke:#0e4db3;stroke-linecap:square;stroke-width:3;"/>
   </g>
   <g id="line2d_22">
    <path clip-path="url(#p3ac899931b)" d="M 73.832727 171.892011 
L 90.065455 163.927833 
L 106.298182 152.316948 
L 122.530909 145.370727 
L 138.763636 156.218257 
L 154.996364 156.767167 
L 171.229091 156.530761 
L 187.461818 166.156278 
L 203.694545 161.224123 
L 219.927273 172.729157 
L 236.16 167.437572 
L 252.392727 168.302183 
L 268.625455 168.028961 
L 284.858182 169.904623 
L 301.090909 170.729197 
L 317.323636 170.443404 
L 333.556364 145.894152 
L 349.789091 151.248817 
L 366.021818 150.096197 
L 382.254545 171.895891 
L 398.487273 171.892011 
" style="fill:none;stroke:#d44e4e;stroke-linecap:square;stroke-width:3;"/>
   </g>
   <g id="line2d_23">
    <path clip-path="url(#p3ac899931b)" d="M 73.832727 280.163261 
L 90.065455 224.860691 
L 106.298182 178.23923 
L 122.530909 181.213044 
L 138.763636 124.667782 
L 154.996364 120.411765 
L 171.229091 121.234822 
L 187.461818 126.313408 
L 203.694545 112.129061 
L 219.927273 112.10395 
L 236.16 132.331939 
L 252.392727 119.004607 
L 268.625455 136.311926 
L 284.858182 177.850272 
L 301.090909 161.132784 
L 317.323636 221.978913 
L 333.556364 222.943694 
L 349.789091 237.908759 
L 366.021818 267.183613 
L 382.254545 240.334715 
L 398.487273 280.163261 
" style="fill:none;stroke:#0e4db3;stroke-linecap:square;stroke-width:3;"/>
   </g>
   <g id="line2d_24">
    <path clip-path="url(#p3ac899931b)" d="M 73.832727 284.047135 
L 90.065455 241.899472 
L 106.298182 204.326058 
L 122.530909 193.752357 
L 138.763636 163.469418 
L 154.996364 159.777699 
L 171.229091 159.903142 
L 187.461818 159.719328 
L 203.694545 149.931861 
L 219.927273 150.032193 
L 236.16 167.268229 
L 252.392727 155.085863 
L 268.625455 165.912827 
L 284.858182 204.902238 
L 301.090909 188.521001 
L 317.323636 235.130686 
L 333.556364 240.226912 
L 349.789091 253.548389 
L 366.021818 273.420151 
L 382.254545 253.609288 
L 398.487273 284.047135 
" style="fill:none;stroke:#d44e4e;stroke-linecap:square;stroke-width:3;"/>
   </g>
   <g id="line2d_25">
    <path clip-path="url(#p3ac899931b)" d="M 73.832727 69.680978 
L 90.065455 68.380563 
L 106.298182 55.132964 
L 122.530909 76.216166 
L 138.763636 88.826 
L 154.996364 133.366113 
L 171.229091 141.206812 
L 187.461818 134.020792 
L 203.694545 65.058112 
L 219.927273 17.85315 
L 236.16 21.515115 
L 252.392727 16.99086 
L 268.625455 64.815116 
L 284.858182 94.143038 
L 301.090909 54.221036 
L 317.323636 39.904152 
L 333.556364 36.244428 
L 349.789091 29.511368 
L 366.021818 12.794416 
L 382.254545 28.38722 
L 398.487273 69.680978 
" style="fill:none;stroke:#0e4db3;stroke-linecap:square;stroke-width:3;"/>
   </g>
   <g id="line2d_26">
    <path clip-path="url(#p3ac899931b)" d="M 73.832727 100.442631 
L 90.065455 100.407131 
L 106.298182 89.695302 
L 122.530909 103.599756 
L 138.763636 117.828775 
L 154.996364 151.806671 
L 171.229091 157.714839 
L 187.461818 148.69834 
L 203.694545 94.175941 
L 219.927273 59.988194 
L 236.16 62.489147 
L 252.392727 58.989196 
L 268.625455 96.335318 
L 284.858182 119.991901 
L 301.090909 87.564251 
L 317.323636 76.623612 
L 333.556364 74.170577 
L 349.789091 69.044982 
L 366.021818 54.330473 
L 382.254545 67.602811 
L 398.487273 100.442631 
" style="fill:none;stroke:#d44e4e;stroke-linecap:square;stroke-width:3;"/>
   </g>
   <g id="line2d_27">
    <path clip-path="url(#p3ac899931b)" d="M 73.832727 62.773487 
L 90.065455 61.32919 
L 106.298182 84.60722 
L 122.530909 91.112654 
L 138.763636 137.335532 
L 154.996364 169.015331 
L 171.229091 136.656148 
L 187.461818 95.147961 
L 203.694545 78.012801 
L 219.927273 121.515445 
L 236.16 116.317681 
L 252.392727 116.494028 
L 268.625455 141.334398 
L 284.858182 159.963997 
L 301.090909 130.012755 
L 317.323636 124.540829 
L 333.556364 96.073638 
L 349.789091 94.895582 
L 366.021818 78.519913 
L 382.254545 63.683419 
L 398.487273 62.773487 
" style="fill:none;stroke:#0e4db3;stroke-linecap:square;stroke-width:3;"/>
   </g>
   <g id="line2d_28">
    <path clip-path="url(#p3ac899931b)" d="M 73.832727 97.808347 
L 90.065455 91.700035 
L 106.298182 115.477613 
L 122.530909 107.117352 
L 138.763636 157.059738 
L 154.996364 181.638565 
L 171.229091 154.835951 
L 187.461818 120.438305 
L 203.694545 107.221871 
L 219.927273 143.627253 
L 236.16 139.487329 
L 252.392727 138.708781 
L 268.625455 159.674738 
L 284.858182 172.849195 
L 301.090909 151.88168 
L 317.323636 144.294025 
L 333.556364 124.208441 
L 349.789091 119.298265 
L 366.021818 107.941804 
L 382.254545 91.606245 
L 398.487273 97.808347 
" style="fill:none;stroke:#d44e4e;stroke-linecap:square;stroke-width:3;"/>
   </g>
   <g id="line2d_29">
    <path clip-path="url(#p3ac899931b)" style="fill:none;stroke:#0e4db3;stroke-linecap:square;stroke-width:3;"/>
   </g>
   <g id="line2d_30">
    <path clip-path="url(#p3ac899931b)" d="M 73.832727 9.520435 
L 90.065455 7.236783 
L 106.298182 2.469142 
L 122.530909 5.399195 
L 138.763636 5.325987 
L 154.996364 5.458053 
L 171.229091 1.999705 
L 187.461818 5.186942 
L 195.479942 -1 
M 222.886893 -1 
L 236.16 -0.445359 
L 252.392727 -0.589567 
L 268.625455 -0.536325 
L 284.858182 4.833728 
L 301.090909 1.83063 
L 317.323636 4.177068 
L 333.556364 3.831516 
L 349.789091 7.07735 
L 366.021818 2.81463 
L 382.254545 6.086988 
L 398.487273 9.520435 
" style="fill:none;stroke:#d44e4e;stroke-linecap:square;stroke-width:3;"/>
   </g>
   <g id="line2d_31">
    <path clip-path="url(#p3ac899931b)" d="M 73.832727 126.09648 
L 90.065455 97.034717 
L 106.298182 96.782484 
L 122.530909 114.474638 
L 138.763636 116.917658 
L 154.996364 109.99348 
L 171.229091 109.603922 
L 187.461818 108.610995 
L 203.694545 131.498202 
L 219.927273 130.889281 
L 236.16 136.181614 
L 252.392727 169.307292 
L 268.625455 204.684036 
L 284.858182 218.037445 
L 301.090909 218.403523 
L 317.323636 213.099057 
L 333.556364 207.339576 
L 349.789091 198.401089 
L 366.021818 161.687067 
L 382.254545 126.345986 
L 398.487273 126.09648 
" style="fill:none;stroke:#0e4db3;stroke-linecap:square;stroke-width:3;"/>
   </g>
   <g id="line2d_32">
    <path clip-path="url(#p3ac899931b)" d="M 73.832727 148.572962 
L 90.065455 125.275144 
L 106.298182 126.188517 
L 122.530909 132.388135 
L 138.763636 141.679041 
L 154.996364 135.634911 
L 171.229091 134.922478 
L 187.461818 133.429548 
L 203.694545 151.797483 
L 219.927273 151.835897 
L 236.16 156.666787 
L 252.392727 182.856195 
L 268.625455 211.244927 
L 284.858182 221.076371 
L 301.090909 221.22417 
L 317.323636 216.665941 
L 333.556364 212.61295 
L 349.789091 204.994534 
L 366.021818 175.043463 
L 382.254545 146.129731 
L 398.487273 148.572962 
" style="fill:none;stroke:#d44e4e;stroke-linecap:square;stroke-width:3;"/>
   </g>
   <g id="line2d_33">
    <path clip-path="url(#p3ac899931b)" style="fill:none;stroke:#0e4db3;stroke-linecap:square;stroke-width:3;"/>
   </g>
   <g id="line2d_34">
    <path clip-path="url(#p3ac899931b)" style="fill:none;stroke:#d44e4e;stroke-linecap:square;stroke-width:3;"/>
   </g>
   <g id="line2d_35">
    <path clip-path="url(#p3ac899931b)" d="M 73.832727 285.408 
L 90.065455 285.408 
L 106.298182 285.408 
L 122.530909 285.408 
L 138.763636 285.408 
L 154.996364 285.408 
L 171.229091 285.408 
L 187.461818 285.408 
L 203.694545 285.408 
L 219.927273 285.408 
L 236.16 285.408 
L 252.392727 285.408 
L 268.625455 279.237447 
L 284.858182 283.642525 
L 301.090909 285.408 
L 317.323636 285.408 
L 333.556364 285.408 
L 349.789091 285.408 
L 366.021818 285.408 
L 382.254545 285.408 
L 398.487273 285.408 
" style="fill:none;stroke:#0e4db3;stroke-linecap:square;stroke-width:3;"/>
   </g>
   <g id="line2d_36">
    <path clip-path="url(#p3ac899931b)" d="M 73.832727 285.408 
L 90.065455 285.408 
L 106.298182 285.408 
L 122.530909 285.408 
L 138.763636 285.408 
L 154.996364 285.408 
L 171.229091 285.408 
L 187.461818 285.408 
L 203.694545 285.408 
L 219.927273 285.408 
L 236.16 285.408 
L 252.392727 285.408 
L 268.625455 285.408 
L 284.858182 285.408 
L 301.090909 285.408 
L 317.323636 285.408 
L 333.556364 285.408 
L 349.789091 285.408 
L 366.021818 285.408 
L 382.254545 285.408 
L 398.487273 285.408 
" style="fill:none;stroke:#d44e4e;stroke-linecap:square;stroke-width:3;"/>
   </g>
   <g id="line2d_37">
    <path clip-path="url(#p3ac899931b)" d="M 73.832727 119.691718 
L 89.958646 -1 
M 90.511905 -1 
L 106.298182 27.266025 
L 122.530909 60.137141 
L 138.763636 66.401543 
L 154.996364 153.663105 
L 171.229091 182.5848 
L 187.461818 181.919894 
L 203.694545 92.901904 
L 219.927273 11.323222 
L 236.16 15.892732 
L 252.392727 8.526923 
L 268.625455 54.634974 
L 284.858182 105.67169 
L 301.090909 57.251371 
L 317.323636 35.485586 
L 333.556364 30.54387 
L 349.789091 48.873529 
L 362.033907 -1 
M 370.520172 -1 
L 382.254545 41.371078 
L 398.487273 119.691718 
" style="fill:none;stroke:#0e4db3;stroke-linecap:square;stroke-width:3;"/>
   </g>
   <g id="line2d_38">
    <path clip-path="url(#p3ac899931b)" d="M 73.832727 154.856931 
L 90.065455 56.492269 
L 106.298182 74.492122 
L 122.530909 105.123008 
L 138.763636 113.482231 
L 154.996364 183.917436 
L 171.229091 207.095078 
L 187.461818 197.791876 
L 203.694545 127.895176 
L 219.927273 68.438529 
L 236.16 71.843115 
L 252.392727 65.927204 
L 268.625455 101.683652 
L 284.858182 142.95988 
L 301.090909 103.675967 
L 317.323636 86.435752 
L 333.556364 83.02701 
L 349.789091 93.517204 
L 366.021818 43.37831 
L 382.254545 90.276385 
L 398.487273 154.856931 
" style="fill:none;stroke:#d44e4e;stroke-linecap:square;stroke-width:3;"/>
   </g>
   <g id="line2d_39">
    <path clip-path="url(#p3ac899931b)" d="M 73.832727 214.180669 
L 90.065455 157.507683 
L 106.298182 176.778002 
L 122.530909 175.233551 
L 138.763636 188.512106 
L 154.996364 194.937012 
L 171.229091 210.703695 
L 187.461818 226.453611 
L 203.694545 219.517746 
L 219.927273 190.341497 
L 236.16 192.657792 
L 252.392727 191.862427 
L 268.625455 201.76873 
L 284.858182 175.730193 
L 301.090909 196.662257 
L 317.323636 226.510034 
L 333.556364 226.759467 
L 349.789091 211.435754 
L 366.021818 200.858718 
L 382.254545 199.387556 
L 398.487273 214.180669 
" style="fill:none;stroke:#0e4db3;stroke-linecap:square;stroke-width:3;"/>
   </g>
   <g id="line2d_40">
    <path clip-path="url(#p3ac899931b)" d="M 73.832727 232.274076 
L 90.065455 177.648505 
L 106.298182 193.510602 
L 122.530909 199.019522 
L 138.763636 211.127795 
L 154.996364 217.047326 
L 171.229091 227.53239 
L 187.461818 241.224088 
L 203.694545 234.140802 
L 219.927273 212.66947 
L 236.16 214.379879 
L 252.392727 213.757689 
L 268.625455 220.954073 
L 284.858182 200.154928 
L 301.090909 217.711777 
L 317.323636 239.88584 
L 333.556364 240.687754 
L 349.789091 228.560184 
L 366.021818 219.519158 
L 382.254545 218.943619 
L 398.487273 232.274076 
" style="fill:none;stroke:#d44e4e;stroke-linecap:square;stroke-width:3;"/>
   </g>
   <g id="line2d_41">
    <path clip-path="url(#p3ac899931b)" d="M 73.832727 205.073772 
L 90.065455 166.700595 
L 106.298182 117.169307 
L 122.530909 99.179486 
L 138.763636 73.72544 
L 154.996364 63.648 
L 171.229091 89.950555 
L 187.461818 125.612077 
L 203.694545 132.400796 
L 219.927273 88.152248 
L 236.16 87.885682 
L 252.392727 108.923239 
L 268.625455 98.858704 
L 284.858182 133.340839 
L 301.090909 147.474931 
L 317.323636 235.014661 
L 333.556364 230.68831 
L 349.789091 234.447803 
L 366.021818 195.303382 
L 382.254545 205.485154 
L 398.487273 205.073772 
" style="fill:none;stroke:#0e4db3;stroke-linecap:square;stroke-width:3;"/>
   </g>
   <g id="line2d_42">
    <path clip-path="url(#p3ac899931b)" d="M 73.832727 220.386196 
L 90.065455 190.422772 
L 106.298182 126.674007 
L 122.530909 131.016932 
L 138.763636 118.147836 
L 154.996364 109.750337 
L 171.229091 130.093349 
L 187.461818 152.685136 
L 203.694545 161.630133 
L 219.927273 127.892774 
L 236.16 127.88047 
L 252.392727 143.355882 
L 268.625455 134.927217 
L 284.858182 160.769823 
L 301.090909 170.509964 
L 317.323636 246.526233 
L 333.556364 241.815141 
L 349.789091 240.74479 
L 366.021818 206.869628 
L 382.254545 218.031699 
L 398.487273 220.386196 
" style="fill:none;stroke:#d44e4e;stroke-linecap:square;stroke-width:3;"/>
   </g>
   <g id="patch_3">
    <path d="M 57.6 307.584 
L 57.6 41.472 
" style="fill:none;stroke:#000000;stroke-linecap:square;stroke-linejoin:miter;stroke-width:2.5;"/>
   </g>
   <g id="patch_4">
    <path d="M 414.72 307.584 
L 414.72 41.472 
" style="fill:none;stroke:#000000;stroke-linecap:square;stroke-linejoin:miter;stroke-width:2.5;"/>
   </g>
   <g id="patch_5">
    <path d="M 57.6 307.584 
L 414.72 307.584 
" style="fill:none;stroke:#000000;stroke-linecap:square;stroke-linejoin:miter;stroke-width:2.5;"/>
   </g>
   <g id="patch_6">
    <path d="M 57.6 41.472 
L 414.72 41.472 
" style="fill:none;stroke:#000000;stroke-linecap:square;stroke-linejoin:miter;stroke-width:2.5;"/>
   </g>
  </g>
 </g>
 <defs>
  <clipPath id="p3ac899931b">
   <rect height="266.112" width="357.12" x="57.6" y="41.472"/>
  </clipPath>
 </defs>
</svg>
