<?xml version="1.0" encoding="utf-8" standalone="no"?>
<!DOCTYPE svg PUBLIC "-//W3C//DTD SVG 1.1//EN"
  "http://www.w3.org/Graphics/SVG/1.1/DTD/svg11.dtd">
<!-- Created with matplotlib (https://matplotlib.org/) -->
<svg height="345.6pt" version="1.1" viewBox="0 0 460.8 345.6" width="460.8pt" xmlns="http://www.w3.org/2000/svg" xmlns:xlink="http://www.w3.org/1999/xlink">
 <defs>
  <style type="text/css">
*{stroke-linecap:butt;stroke-linejoin:round;}
  </style>
 </defs>
 <g id="figure_1">
  <g id="patch_1">
   <path d="M 0 345.6 
L 460.8 345.6 
L 460.8 0 
L 0 0 
z
" style="fill:#ffffff;"/>
  </g>
  <g id="axes_1">
   <g id="patch_2">
    <path d="M 57.6 307.584 
L 414.72 307.584 
L 414.72 41.472 
L 57.6 41.472 
z
" style="fill:#ffffff;"/>
   </g>
   <g id="matplotlib.axis_1">
    <g id="xtick_1">
     <g id="line2d_1">
      <defs>
       <path d="M 0 0 
L 0 12 
" id="mfd29550cd3" style="stroke:#000000;stroke-width:2.5;"/>
      </defs>
      <g>
       <use style="stroke:#000000;stroke-width:2.5;" x="73.832727" xlink:href="#mfd29550cd3" y="307.584"/>
      </g>
     </g>
     <g id="text_1">
      <!-- 0 -->
      <defs>
       <path d="M 31.78125 66.40625 
Q 24.171875 66.40625 20.328125 58.90625 
Q 16.5 51.421875 16.5 36.375 
Q 16.5 21.390625 20.328125 13.890625 
Q 24.171875 6.390625 31.78125 6.390625 
Q 39.453125 6.390625 43.28125 13.890625 
Q 47.125 21.390625 47.125 36.375 
Q 47.125 51.421875 43.28125 58.90625 
Q 39.453125 66.40625 31.78125 66.40625 
z
M 31.78125 74.21875 
Q 44.046875 74.21875 50.515625 64.515625 
Q 56.984375 54.828125 56.984375 36.375 
Q 56.984375 17.96875 50.515625 8.265625 
Q 44.046875 -1.421875 31.78125 -1.421875 
Q 19.53125 -1.421875 13.0625 8.265625 
Q 6.59375 17.96875 6.59375 36.375 
Q 6.59375 54.828125 13.0625 64.515625 
Q 19.53125 74.21875 31.78125 74.21875 
z
" id="DejaVuSans-48"/>
      </defs>
      <g transform="translate(57.735602 361.532094)scale(0.506 -0.506)">
       <use xlink:href="#DejaVuSans-48"/>
      </g>
     </g>
    </g>
    <g id="xtick_2">
     <g id="line2d_2">
      <g>
       <use style="stroke:#000000;stroke-width:2.5;" x="254.196364" xlink:href="#mfd29550cd3" y="307.584"/>
      </g>
     </g>
     <g id="text_2">
      <!-- 100 -->
      <defs>
       <path d="M 12.40625 8.296875 
L 28.515625 8.296875 
L 28.515625 63.921875 
L 10.984375 60.40625 
L 10.984375 69.390625 
L 28.421875 72.90625 
L 38.28125 72.90625 
L 38.28125 8.296875 
L 54.390625 8.296875 
L 54.390625 0 
L 12.40625 0 
z
" id="DejaVuSans-49"/>
      </defs>
      <g transform="translate(205.904989 361.532094)scale(0.506 -0.506)">
       <use xlink:href="#DejaVuSans-49"/>
       <use x="63.623047" xlink:href="#DejaVuSans-48"/>
       <use x="127.246094" xlink:href="#DejaVuSans-48"/>
      </g>
     </g>
    </g>
    <g id="text_3">
     <!-- Degrees -->
     <defs>
      <path d="M 19.671875 64.796875 
L 19.671875 8.109375 
L 31.59375 8.109375 
Q 46.6875 8.109375 53.6875 14.9375 
Q 60.6875 21.78125 60.6875 36.53125 
Q 60.6875 51.171875 53.6875 57.984375 
Q 46.6875 64.796875 31.59375 64.796875 
z
M 9.8125 72.90625 
L 30.078125 72.90625 
Q 51.265625 72.90625 61.171875 64.09375 
Q 71.09375 55.28125 71.09375 36.53125 
Q 71.09375 17.671875 61.125 8.828125 
Q 51.171875 0 30.078125 0 
L 9.8125 0 
z
" id="DejaVuSans-68"/>
      <path d="M 56.203125 29.59375 
L 56.203125 25.203125 
L 14.890625 25.203125 
Q 15.484375 15.921875 20.484375 11.0625 
Q 25.484375 6.203125 34.421875 6.203125 
Q 39.59375 6.203125 44.453125 7.46875 
Q 49.3125 8.734375 54.109375 11.28125 
L 54.109375 2.78125 
Q 49.265625 0.734375 44.1875 -0.34375 
Q 39.109375 -1.421875 33.890625 -1.421875 
Q 20.796875 -1.421875 13.15625 6.1875 
Q 5.515625 13.8125 5.515625 26.8125 
Q 5.515625 40.234375 12.765625 48.109375 
Q 20.015625 56 32.328125 56 
Q 43.359375 56 49.78125 48.890625 
Q 56.203125 41.796875 56.203125 29.59375 
z
M 47.21875 32.234375 
Q 47.125 39.59375 43.09375 43.984375 
Q 39.0625 48.390625 32.421875 48.390625 
Q 24.90625 48.390625 20.390625 44.140625 
Q 15.875 39.890625 15.1875 32.171875 
z
" id="DejaVuSans-101"/>
      <path d="M 45.40625 27.984375 
Q 45.40625 37.75 41.375 43.109375 
Q 37.359375 48.484375 30.078125 48.484375 
Q 22.859375 48.484375 18.828125 43.109375 
Q 14.796875 37.75 14.796875 27.984375 
Q 14.796875 18.265625 18.828125 12.890625 
Q 22.859375 7.515625 30.078125 7.515625 
Q 37.359375 7.515625 41.375 12.890625 
Q 45.40625 18.265625 45.40625 27.984375 
z
M 54.390625 6.78125 
Q 54.390625 -7.171875 48.1875 -13.984375 
Q 42 -20.796875 29.203125 -20.796875 
Q 24.46875 -20.796875 20.265625 -20.09375 
Q 16.0625 -19.390625 12.109375 -17.921875 
L 12.109375 -9.1875 
Q 16.0625 -11.328125 19.921875 -12.34375 
Q 23.78125 -13.375 27.78125 -13.375 
Q 36.625 -13.375 41.015625 -8.765625 
Q 45.40625 -4.15625 45.40625 5.171875 
L 45.40625 9.625 
Q 42.625 4.78125 38.28125 2.390625 
Q 33.9375 0 27.875 0 
Q 17.828125 0 11.671875 7.65625 
Q 5.515625 15.328125 5.515625 27.984375 
Q 5.515625 40.671875 11.671875 48.328125 
Q 17.828125 56 27.875 56 
Q 33.9375 56 38.28125 53.609375 
Q 42.625 51.21875 45.40625 46.390625 
L 45.40625 54.6875 
L 54.390625 54.6875 
z
" id="DejaVuSans-103"/>
      <path d="M 41.109375 46.296875 
Q 39.59375 47.171875 37.8125 47.578125 
Q 36.03125 48 33.890625 48 
Q 26.265625 48 22.1875 43.046875 
Q 18.109375 38.09375 18.109375 28.8125 
L 18.109375 0 
L 9.078125 0 
L 9.078125 54.6875 
L 18.109375 54.6875 
L 18.109375 46.1875 
Q 20.953125 51.171875 25.484375 53.578125 
Q 30.03125 56 36.53125 56 
Q 37.453125 56 38.578125 55.875 
Q 39.703125 55.765625 41.0625 55.515625 
z
" id="DejaVuSans-114"/>
      <path d="M 44.28125 53.078125 
L 44.28125 44.578125 
Q 40.484375 46.53125 36.375 47.5 
Q 32.28125 48.484375 27.875 48.484375 
Q 21.1875 48.484375 17.84375 46.4375 
Q 14.5 44.390625 14.5 40.28125 
Q 14.5 37.15625 16.890625 35.375 
Q 19.28125 33.59375 26.515625 31.984375 
L 29.59375 31.296875 
Q 39.15625 29.25 43.1875 25.515625 
Q 47.21875 21.78125 47.21875 15.09375 
Q 47.21875 7.46875 41.1875 3.015625 
Q 35.15625 -1.421875 24.609375 -1.421875 
Q 20.21875 -1.421875 15.453125 -0.5625 
Q 10.6875 0.296875 5.421875 2 
L 5.421875 11.28125 
Q 10.40625 8.6875 15.234375 7.390625 
Q 20.0625 6.109375 24.8125 6.109375 
Q 31.15625 6.109375 34.5625 8.28125 
Q 37.984375 10.453125 37.984375 14.40625 
Q 37.984375 18.0625 35.515625 20.015625 
Q 33.0625 21.96875 24.703125 23.78125 
L 21.578125 24.515625 
Q 13.234375 26.265625 9.515625 29.90625 
Q 5.8125 33.546875 5.8125 39.890625 
Q 5.8125 47.609375 11.28125 51.796875 
Q 16.75 56 26.8125 56 
Q 31.78125 56 36.171875 55.265625 
Q 40.578125 54.546875 44.28125 53.078125 
z
" id="DejaVuSans-115"/>
     </defs>
     <g transform="translate(120.723 417.998687)scale(0.552 -0.552)">
      <use xlink:href="#DejaVuSans-68"/>
      <use x="77.001953" xlink:href="#DejaVuSans-101"/>
      <use x="138.525391" xlink:href="#DejaVuSans-103"/>
      <use x="202.001953" xlink:href="#DejaVuSans-114"/>
      <use x="243.083984" xlink:href="#DejaVuSans-101"/>
      <use x="304.607422" xlink:href="#DejaVuSans-101"/>
      <use x="366.130859" xlink:href="#DejaVuSans-115"/>
     </g>
    </g>
   </g>
   <g id="matplotlib.axis_2">
    <g id="ytick_1">
     <g id="line2d_3">
      <defs>
       <path d="M 0 0 
L -12 0 
" id="m8839d03455" style="stroke:#000000;stroke-width:2.5;"/>
      </defs>
      <g>
       <use style="stroke:#000000;stroke-width:2.5;" x="57.6" xlink:href="#m8839d03455" y="285.408"/>
      </g>
     </g>
     <g id="text_4">
      <!-- 0 -->
      <g transform="translate(9.90575 304.632047)scale(0.506 -0.506)">
       <use xlink:href="#DejaVuSans-48"/>
      </g>
     </g>
    </g>
    <g id="ytick_2">
     <g id="line2d_4">
      <g>
       <use style="stroke:#000000;stroke-width:2.5;" x="57.6" xlink:href="#m8839d03455" y="108.798165"/>
      </g>
     </g>
     <g id="text_5">
      <!-- 1 -->
      <g transform="translate(9.90575 128.022212)scale(0.506 -0.506)">
       <use xlink:href="#DejaVuSans-49"/>
      </g>
     </g>
    </g>
    <g id="text_6">
     <!-- Activation -->
     <defs>
      <path d="M 34.1875 63.1875 
L 20.796875 26.90625 
L 47.609375 26.90625 
z
M 28.609375 72.90625 
L 39.796875 72.90625 
L 67.578125 0 
L 57.328125 0 
L 50.6875 18.703125 
L 17.828125 18.703125 
L 11.1875 0 
L 0.78125 0 
z
" id="DejaVuSans-65"/>
      <path d="M 48.78125 52.59375 
L 48.78125 44.1875 
Q 44.96875 46.296875 41.140625 47.34375 
Q 37.3125 48.390625 33.40625 48.390625 
Q 24.65625 48.390625 19.8125 42.84375 
Q 14.984375 37.3125 14.984375 27.296875 
Q 14.984375 17.28125 19.8125 11.734375 
Q 24.65625 6.203125 33.40625 6.203125 
Q 37.3125 6.203125 41.140625 7.25 
Q 44.96875 8.296875 48.78125 10.40625 
L 48.78125 2.09375 
Q 45.015625 0.34375 40.984375 -0.53125 
Q 36.96875 -1.421875 32.421875 -1.421875 
Q 20.0625 -1.421875 12.78125 6.34375 
Q 5.515625 14.109375 5.515625 27.296875 
Q 5.515625 40.671875 12.859375 48.328125 
Q 20.21875 56 33.015625 56 
Q 37.15625 56 41.109375 55.140625 
Q 45.0625 54.296875 48.78125 52.59375 
z
" id="DejaVuSans-99"/>
      <path d="M 18.3125 70.21875 
L 18.3125 54.6875 
L 36.8125 54.6875 
L 36.8125 47.703125 
L 18.3125 47.703125 
L 18.3125 18.015625 
Q 18.3125 11.328125 20.140625 9.421875 
Q 21.96875 7.515625 27.59375 7.515625 
L 36.8125 7.515625 
L 36.8125 0 
L 27.59375 0 
Q 17.1875 0 13.234375 3.875 
Q 9.28125 7.765625 9.28125 18.015625 
L 9.28125 47.703125 
L 2.6875 47.703125 
L 2.6875 54.6875 
L 9.28125 54.6875 
L 9.28125 70.21875 
z
" id="DejaVuSans-116"/>
      <path d="M 9.421875 54.6875 
L 18.40625 54.6875 
L 18.40625 0 
L 9.421875 0 
z
M 9.421875 75.984375 
L 18.40625 75.984375 
L 18.40625 64.59375 
L 9.421875 64.59375 
z
" id="DejaVuSans-105"/>
      <path d="M 2.984375 54.6875 
L 12.5 54.6875 
L 29.59375 8.796875 
L 46.6875 54.6875 
L 56.203125 54.6875 
L 35.6875 0 
L 23.484375 0 
z
" id="DejaVuSans-118"/>
      <path d="M 34.28125 27.484375 
Q 23.390625 27.484375 19.1875 25 
Q 14.984375 22.515625 14.984375 16.5 
Q 14.984375 11.71875 18.140625 8.90625 
Q 21.296875 6.109375 26.703125 6.109375 
Q 34.1875 6.109375 38.703125 11.40625 
Q 43.21875 16.703125 43.21875 25.484375 
L 43.21875 27.484375 
z
M 52.203125 31.203125 
L 52.203125 0 
L 43.21875 0 
L 43.21875 8.296875 
Q 40.140625 3.328125 35.546875 0.953125 
Q 30.953125 -1.421875 24.3125 -1.421875 
Q 15.921875 -1.421875 10.953125 3.296875 
Q 6 8.015625 6 15.921875 
Q 6 25.140625 12.171875 29.828125 
Q 18.359375 34.515625 30.609375 34.515625 
L 43.21875 34.515625 
L 43.21875 35.40625 
Q 43.21875 41.609375 39.140625 45 
Q 35.0625 48.390625 27.6875 48.390625 
Q 23 48.390625 18.546875 47.265625 
Q 14.109375 46.140625 10.015625 43.890625 
L 10.015625 52.203125 
Q 14.9375 54.109375 19.578125 55.046875 
Q 24.21875 56 28.609375 56 
Q 40.484375 56 46.34375 49.84375 
Q 52.203125 43.703125 52.203125 31.203125 
z
" id="DejaVuSans-97"/>
      <path d="M 30.609375 48.390625 
Q 23.390625 48.390625 19.1875 42.75 
Q 14.984375 37.109375 14.984375 27.296875 
Q 14.984375 17.484375 19.15625 11.84375 
Q 23.34375 6.203125 30.609375 6.203125 
Q 37.796875 6.203125 41.984375 11.859375 
Q 46.1875 17.53125 46.1875 27.296875 
Q 46.1875 37.015625 41.984375 42.703125 
Q 37.796875 48.390625 30.609375 48.390625 
z
M 30.609375 56 
Q 42.328125 56 49.015625 48.375 
Q 55.71875 40.765625 55.71875 27.296875 
Q 55.71875 13.875 49.015625 6.21875 
Q 42.328125 -1.421875 30.609375 -1.421875 
Q 18.84375 -1.421875 12.171875 6.21875 
Q 5.515625 13.875 5.515625 27.296875 
Q 5.515625 40.765625 12.171875 48.375 
Q 18.84375 56 30.609375 56 
z
" id="DejaVuSans-111"/>
      <path d="M 54.890625 33.015625 
L 54.890625 0 
L 45.90625 0 
L 45.90625 32.71875 
Q 45.90625 40.484375 42.875 44.328125 
Q 39.84375 48.1875 33.796875 48.1875 
Q 26.515625 48.1875 22.3125 43.546875 
Q 18.109375 38.921875 18.109375 30.90625 
L 18.109375 0 
L 9.078125 0 
L 9.078125 54.6875 
L 18.109375 54.6875 
L 18.109375 46.1875 
Q 21.34375 51.125 25.703125 53.5625 
Q 30.078125 56 35.796875 56 
Q 45.21875 56 50.046875 50.171875 
Q 54.890625 44.34375 54.890625 33.015625 
z
" id="DejaVuSans-110"/>
     </defs>
     <g transform="translate(-5.574125 313.1835)rotate(-90)scale(0.552 -0.552)">
      <use xlink:href="#DejaVuSans-65"/>
      <use x="68.392578" xlink:href="#DejaVuSans-99"/>
      <use x="123.373047" xlink:href="#DejaVuSans-116"/>
      <use x="162.582031" xlink:href="#DejaVuSans-105"/>
      <use x="190.365234" xlink:href="#DejaVuSans-118"/>
      <use x="249.544922" xlink:href="#DejaVuSans-97"/>
      <use x="310.824219" xlink:href="#DejaVuSans-116"/>
      <use x="350.033203" xlink:href="#DejaVuSans-105"/>
      <use x="377.816406" xlink:href="#DejaVuSans-111"/>
      <use x="438.998047" xlink:href="#DejaVuSans-110"/>
     </g>
    </g>
   </g>
   <g id="line2d_5">
    <path clip-path="url(#pefa4e0087e)" d="M 73.832727 240.466723 
L 90.065455 163.94701 
L 106.298182 137.41858 
L 122.530909 103.157902 
L 138.763636 63.080418 
L 154.996364 57.420028 
L 171.229091 65.661728 
L 187.461818 5.851925 
L 193.056734 -1 
M 225.698819 -1 
L 236.16 15.961537 
L 252.392727 15.102258 
L 268.625455 19.19816 
L 284.858182 118.248538 
L 301.090909 102.705167 
L 317.323636 179.66622 
L 333.556364 199.147675 
L 349.789091 219.449613 
L 366.021818 208.146303 
L 382.254545 222.416371 
L 398.487273 240.466723 
" style="fill:none;stroke:#0e4db3;stroke-linecap:square;stroke-width:3;"/>
   </g>
   <g id="line2d_6">
    <path clip-path="url(#pefa4e0087e)" d="M 73.832727 249.649206 
L 90.065455 186.981281 
L 106.298182 163.441178 
L 122.530909 138.113167 
L 138.763636 107.171148 
L 154.996364 103.836942 
L 171.229091 107.599945 
L 187.461818 54.555526 
L 203.694545 44.692746 
L 219.927273 41.879784 
L 236.16 55.428659 
L 252.392727 64.090756 
L 268.625455 65.937024 
L 284.858182 151.48914 
L 301.090909 136.067732 
L 317.323636 198.207024 
L 333.556364 213.164654 
L 349.789091 226.726656 
L 366.021818 220.925776 
L 382.254545 231.601786 
L 398.487273 249.649206 
" style="fill:none;stroke:#d44e4e;stroke-linecap:square;stroke-width:3;"/>
   </g>
   <g id="line2d_7">
    <path clip-path="url(#pefa4e0087e)" d="M 106.637018 -1 
L 122.530909 37.75647 
L 138.763636 44.807046 
L 154.996364 53.450532 
L 171.229091 52.900571 
L 187.461818 8.356854 
L 197.755439 -1 
M 205.359825 -1 
L 219.927273 46.225759 
L 236.16 46.190768 
L 252.392727 38.311105 
L 266.962559 -1 
M 270.926084 -1 
L 284.858182 26.170374 
L 295.995183 -1 
M 315.734285 -1 
L 317.323636 0.349311 
L 331.518778 -1 
" style="fill:none;stroke:#0e4db3;stroke-linecap:square;stroke-width:3;"/>
   </g>
   <g id="line2d_8">
    <path clip-path="url(#pefa4e0087e)" d="M 73.832727 43.577267 
L 90.065455 15.819236 
L 106.298182 50.197003 
L 122.530909 88.77316 
L 138.763636 93.414517 
L 154.996364 101.131015 
L 171.229091 101.121331 
L 187.461818 66.742638 
L 203.694545 56.295685 
L 219.927273 96.564041 
L 236.16 96.420456 
L 252.392727 86.691555 
L 268.625455 54.59256 
L 284.858182 74.702347 
L 301.090909 49.358062 
L 317.323636 59.816236 
L 333.556364 58.132543 
L 349.789091 18.685128 
L 366.021818 25.949228 
L 382.254545 18.510678 
L 398.487273 43.577267 
" style="fill:none;stroke:#d44e4e;stroke-linecap:square;stroke-width:3;"/>
   </g>
   <g id="line2d_9">
    <path clip-path="url(#pefa4e0087e)" style="fill:none;stroke:#0e4db3;stroke-linecap:square;stroke-width:3;"/>
   </g>
   <g id="line2d_10">
    <path clip-path="url(#pefa4e0087e)" d="M 73.832727 29.940978 
L 90.065455 19.170138 
L 106.298182 18.267489 
L 122.530909 17.288668 
L 137.113982 -1 
M 178.301492 -1 
L 187.461818 8.378855 
L 193.885739 -1 
M 222.827918 -1 
L 236.16 12.453303 
L 252.392727 12.074234 
L 268.625455 15.347237 
L 284.858182 27.017969 
L 301.090909 29.973085 
L 317.323636 33.969971 
L 333.556364 35.998227 
L 349.789091 37.922688 
L 366.021818 32.201033 
L 382.254545 29.962621 
L 398.487273 29.940978 
" style="fill:none;stroke:#d44e4e;stroke-linecap:square;stroke-width:3;"/>
   </g>
   <g id="line2d_11">
    <path clip-path="url(#pefa4e0087e)" style="fill:none;stroke:#0e4db3;stroke-linecap:square;stroke-width:3;"/>
   </g>
   <g id="line2d_12">
    <path clip-path="url(#pefa4e0087e)" d="M 73.832727 8.720132 
L 90.065455 8.706448 
L 106.298182 9.652762 
L 122.530909 34.117388 
L 138.763636 35.71733 
L 154.996364 39.765967 
L 171.229091 37.141223 
L 187.461818 26.003525 
L 203.694545 14.746117 
L 219.927273 19.147568 
L 236.16 19.792101 
L 252.392727 3.769478 
L 263.10075 -1 
M 386.452395 -1 
L 398.487273 8.720132 
" style="fill:none;stroke:#d44e4e;stroke-linecap:square;stroke-width:3;"/>
   </g>
   <g id="line2d_13">
    <path clip-path="url(#pefa4e0087e)" d="M 73.832727 172.947227 
L 90.065455 171.22788 
L 106.298182 172.773714 
L 122.530909 169.033165 
L 138.763636 125.80184 
L 154.996364 120.19859 
L 171.229091 85.263178 
L 187.461818 96.025302 
L 203.694545 43.077709 
L 219.927273 1.472285 
L 236.16 2.128019 
L 237.301829 -1 
M 341.741923 -1 
L 349.789091 71.134784 
L 366.021818 84.584496 
L 382.254545 83.098791 
L 398.487273 172.947227 
" style="fill:none;stroke:#0e4db3;stroke-linecap:square;stroke-width:3;"/>
   </g>
   <g id="line2d_14">
    <path clip-path="url(#pefa4e0087e)" d="M 73.832727 182.583913 
L 90.065455 180.071364 
L 106.298182 181.427674 
L 122.530909 179.795741 
L 138.763636 145.940692 
L 154.996364 141.699784 
L 171.229091 111.115401 
L 187.461818 119.356322 
L 203.694545 77.812291 
L 219.927273 47.393157 
L 236.16 47.477244 
L 252.392727 10.331738 
L 258.322141 -1 
M 284.416489 -1 
L 284.858182 -0.449229 
L 285.05762 -1 
M 335.471611 -1 
L 349.789091 99.3058 
L 366.021818 110.539092 
L 382.254545 110.427245 
L 398.487273 182.583913 
" style="fill:none;stroke:#d44e4e;stroke-linecap:square;stroke-width:3;"/>
   </g>
   <g id="line2d_15">
    <path clip-path="url(#pefa4e0087e)" d="M 73.832727 285.408 
L 90.065455 285.408 
L 106.298182 285.408 
L 122.530909 285.408 
L 138.763636 285.408 
L 154.996364 285.408 
L 171.229091 285.408 
L 187.461818 285.408 
L 203.694545 285.408 
L 219.927273 285.408 
L 236.16 285.408 
L 252.392727 285.408 
L 268.625455 285.408 
L 284.858182 285.408 
L 301.090909 285.408 
L 317.323636 285.408 
L 333.556364 285.408 
L 349.789091 285.408 
L 366.021818 285.408 
L 382.254545 285.408 
L 398.487273 285.408 
" style="fill:none;stroke:#0e4db3;stroke-linecap:square;stroke-width:3;"/>
   </g>
   <g id="line2d_16">
    <path clip-path="url(#pefa4e0087e)" d="M 73.832727 285.408 
L 90.065455 285.408 
L 106.298182 285.408 
L 122.530909 285.408 
L 138.763636 285.408 
L 154.996364 285.408 
L 171.229091 285.408 
L 187.461818 285.408 
L 203.694545 285.408 
L 219.927273 285.408 
L 236.16 285.408 
L 252.392727 285.408 
L 268.625455 285.408 
L 284.858182 285.408 
L 301.090909 285.408 
L 317.323636 285.408 
L 333.556364 285.408 
L 349.789091 285.408 
L 366.021818 285.408 
L 382.254545 285.408 
L 398.487273 285.408 
" style="fill:none;stroke:#d44e4e;stroke-linecap:square;stroke-width:3;"/>
   </g>
   <g id="line2d_17">
    <path clip-path="url(#pefa4e0087e)" d="M 73.832727 285.408 
L 90.065455 283.829219 
L 106.298182 284.779084 
L 122.530909 284.201446 
L 138.763636 284.878743 
L 154.996364 285.408 
L 171.229091 285.408 
L 187.461818 285.408 
L 203.694545 285.408 
L 219.927273 285.408 
L 236.16 285.408 
L 252.392727 285.408 
L 268.625455 281.736588 
L 284.858182 285.408 
L 301.090909 285.408 
L 317.323636 285.408 
L 333.556364 285.408 
L 349.789091 285.408 
L 366.021818 285.408 
L 382.254545 285.408 
L 398.487273 285.408 
" style="fill:none;stroke:#0e4db3;stroke-linecap:square;stroke-width:3;"/>
   </g>
   <g id="line2d_18">
    <path clip-path="url(#pefa4e0087e)" d="M 73.832727 285.408 
L 90.065455 285.408 
L 106.298182 285.408 
L 122.530909 285.408 
L 138.763636 285.408 
L 154.996364 285.408 
L 171.229091 285.408 
L 187.461818 285.408 
L 203.694545 285.408 
L 219.927273 285.408 
L 236.16 285.408 
L 252.392727 285.408 
L 268.625455 285.408 
L 284.858182 285.408 
L 301.090909 285.408 
L 317.323636 285.408 
L 333.556364 285.408 
L 349.789091 285.408 
L 366.021818 285.408 
L 382.254545 285.408 
L 398.487273 285.408 
" style="fill:none;stroke:#d44e4e;stroke-linecap:square;stroke-width:3;"/>
   </g>
   <g id="line2d_19">
    <path clip-path="url(#pefa4e0087e)" d="M 73.832727 194.724391 
L 90.065455 166.119924 
L 106.298182 124.209182 
L 122.530909 120.172736 
L 138.763636 76.862376 
L 154.996364 68.075747 
L 171.229091 39.028651 
L 187.461818 42.664407 
L 203.694545 0.893987 
L 219.927273 3.018962 
L 236.16 102.175418 
L 252.392727 8.044988 
L 268.625455 54.619487 
L 284.858182 112.306125 
L 301.090909 101.0112 
L 317.323636 141.629002 
L 333.556364 146.640669 
L 349.789091 154.874801 
L 366.021818 157.662362 
L 382.254545 184.986016 
L 398.487273 194.724391 
" style="fill:none;stroke:#0e4db3;stroke-linecap:square;stroke-width:3;"/>
   </g>
   <g id="line2d_20">
    <path clip-path="url(#pefa4e0087e)" d="M 73.832727 196.459834 
L 90.065455 174.571244 
L 106.298182 140.615169 
L 122.530909 133.904776 
L 138.763636 101.668386 
L 154.996364 95.808661 
L 171.229091 71.961872 
L 187.461818 72.974547 
L 203.694545 41.668638 
L 219.927273 41.80976 
L 236.16 121.76912 
L 252.392727 46.446358 
L 268.625455 83.273514 
L 284.858182 131.787286 
L 301.090909 120.64464 
L 317.323636 153.013037 
L 333.556364 156.570715 
L 349.789091 159.892858 
L 366.021818 163.100437 
L 382.254545 186.939826 
L 398.487273 196.459834 
" style="fill:none;stroke:#d44e4e;stroke-linecap:square;stroke-width:3;"/>
   </g>
   <g id="line2d_21">
    <path clip-path="url(#pefa4e0087e)" d="M 73.832727 98.204659 
L 90.065455 85.243135 
L 106.298182 65.744006 
L 122.530909 57.866216 
L 138.763636 67.473027 
L 154.996364 67.998439 
L 171.229091 68.927826 
L 187.461818 89.255349 
L 203.694545 86.093887 
L 219.927273 96.324052 
L 236.16 105.319784 
L 252.392727 94.312281 
L 268.625455 91.970918 
L 284.858182 92.208739 
L 301.090909 92.654863 
L 317.323636 94.420075 
L 333.556364 53.406067 
L 349.789091 76.035036 
L 366.021818 68.965891 
L 382.254545 98.877172 
L 398.487273 98.204659 
" style="fill:none;stroke:#0e4db3;stroke-linecap:square;stroke-width:3;"/>
   </g>
   <g id="line2d_22">
    <path clip-path="url(#pefa4e0087e)" d="M 73.832727 138.175696 
L 90.065455 127.846012 
L 106.298182 112.786483 
L 122.530909 103.777108 
L 138.763636 117.846552 
L 154.996364 118.558498 
L 171.229091 118.251875 
L 187.461818 130.736346 
L 203.694545 124.339251 
L 219.927273 139.26149 
L 236.16 132.398207 
L 252.392727 133.519623 
L 268.625455 133.16525 
L 284.858182 135.598017 
L 301.090909 136.667505 
L 317.323636 136.296826 
L 333.556364 104.456 
L 349.789091 111.401097 
L 366.021818 109.906128 
L 382.254545 138.180728 
L 398.487273 138.175696 
" style="fill:none;stroke:#d44e4e;stroke-linecap:square;stroke-width:3;"/>
   </g>
   <g id="line2d_23">
    <path clip-path="url(#pefa4e0087e)" d="M 73.832727 278.605478 
L 90.065455 206.877038 
L 106.298182 146.408154 
L 122.530909 150.265245 
L 138.763636 76.925011 
L 154.996364 71.404879 
L 171.229091 72.472399 
L 187.461818 79.059418 
L 203.694545 60.662062 
L 219.927273 60.629492 
L 236.16 86.865562 
L 252.392727 69.57977 
L 268.625455 92.027678 
L 284.858182 145.903669 
L 301.090909 124.220783 
L 317.323636 203.13932 
L 333.556364 204.390658 
L 349.789091 223.80062 
L 366.021818 261.770638 
L 382.254545 226.947129 
L 398.487273 278.605478 
" style="fill:none;stroke:#0e4db3;stroke-linecap:square;stroke-width:3;"/>
   </g>
   <g id="line2d_24">
    <path clip-path="url(#pefa4e0087e)" d="M 73.832727 283.642934 
L 90.065455 228.976647 
L 106.298182 180.243245 
L 122.530909 166.528963 
L 138.763636 127.251439 
L 154.996364 122.463213 
L 171.229091 122.625915 
L 187.461818 122.387504 
L 203.694545 109.692982 
L 219.927273 109.823114 
L 236.16 132.178566 
L 252.392727 116.377816 
L 268.625455 130.420585 
L 284.858182 180.990561 
L 301.090909 159.743799 
L 317.323636 220.197408 
L 333.556364 226.807307 
L 349.789091 244.085504 
L 366.021818 269.859542 
L 382.254545 244.164492 
L 398.487273 283.642934 
" style="fill:none;stroke:#d44e4e;stroke-linecap:square;stroke-width:3;"/>
   </g>
   <g id="line2d_25">
    <path clip-path="url(#pefa4e0087e)" d="M 73.832727 5.606125 
L 90.065455 3.919464 
L 94.713025 -1 
M 113.577698 -1 
L 122.530909 14.082383 
L 138.763636 30.437568 
L 154.996364 88.206904 
L 171.229091 98.376434 
L 187.461818 89.056035 
L 203.694545 -0.389815 
L 203.856323 -1 
M 268.548251 -1 
L 268.625455 -0.704987 
L 284.858182 37.333863 
L 296.875725 -1 
M 396.485071 -1 
L 398.487273 5.606125 
" style="fill:none;stroke:#0e4db3;stroke-linecap:square;stroke-width:3;"/>
   </g>
   <g id="line2d_26">
    <path clip-path="url(#pefa4e0087e)" d="M 73.832727 45.504549 
L 90.065455 45.458505 
L 106.298182 31.565068 
L 122.530909 49.599399 
L 138.763636 68.054694 
L 154.996364 112.124644 
L 171.229091 119.787646 
L 187.461818 108.093082 
L 203.694545 37.376538 
L 217.743394 -1 
M 254.826135 -1 
L 268.625455 40.17729 
L 284.858182 70.860309 
L 301.090909 28.801055 
L 317.323636 14.610848 
L 333.556364 11.429217 
L 349.789091 4.781227 
L 354.706311 -1 
M 378.566867 -1 
L 382.254545 2.910705 
L 398.487273 45.504549 
" style="fill:none;stroke:#d44e4e;stroke-linecap:square;stroke-width:3;"/>
   </g>
   <g id="line2d_27">
    <path clip-path="url(#pefa4e0087e)" d="M 92.33772 -1 
L 106.298182 24.965733 
L 122.530909 33.4034 
L 138.763636 93.355314 
L 154.996364 134.444589 
L 171.229091 92.474139 
L 187.461818 38.637266 
L 203.694545 16.412651 
L 219.927273 72.836372 
L 236.16 66.094778 
L 252.392727 66.323504 
L 268.625455 98.541915 
L 284.858182 122.704844 
L 301.090909 83.857539 
L 317.323636 76.760351 
L 333.556364 39.837886 
L 349.789091 38.309926 
L 366.021818 17.070385 
L 381.265207 -1 
" style="fill:none;stroke:#0e4db3;stroke-linecap:square;stroke-width:3;"/>
   </g>
   <g id="line2d_28">
    <path clip-path="url(#pefa4e0087e)" d="M 73.832727 42.087835 
L 90.065455 34.165243 
L 106.298182 65.005195 
L 122.530909 54.161783 
L 138.763636 118.937967 
L 154.996364 150.817153 
L 171.229091 116.053675 
L 187.461818 71.439302 
L 203.694545 54.297347 
L 219.927273 101.51579 
L 236.16 96.146234 
L 252.392727 95.136443 
L 268.625455 122.32967 
L 284.858182 139.417181 
L 301.090909 112.221932 
L 317.323636 102.380606 
L 333.556364 76.329238 
L 349.789091 69.960649 
L 366.021818 55.231113 
L 382.254545 34.043596 
L 398.487273 42.087835 
" style="fill:none;stroke:#d44e4e;stroke-linecap:square;stroke-width:3;"/>
   </g>
   <g id="line2d_29">
    <path clip-path="url(#pefa4e0087e)" style="fill:none;stroke:#0e4db3;stroke-linecap:square;stroke-width:3;"/>
   </g>
   <g id="line2d_30">
    <path clip-path="url(#pefa4e0087e)" style="fill:none;stroke:#d44e4e;stroke-linecap:square;stroke-width:3;"/>
   </g>
   <g id="line2d_31">
    <path clip-path="url(#pefa4e0087e)" d="M 73.832727 78.778058 
L 90.065455 41.084423 
L 106.298182 40.757273 
L 122.530909 63.704318 
L 138.763636 66.872959 
L 154.996364 57.892175 
L 171.229091 57.386911 
L 187.461818 56.099066 
L 203.694545 85.78419 
L 219.927273 84.994409 
L 236.16 91.85866 
L 252.392727 134.823268 
L 268.625455 180.707549 
L 284.858182 198.027164 
L 301.090909 198.501974 
L 317.323636 191.621985 
L 333.556364 184.151833 
L 349.789091 172.558453 
L 366.021818 124.939698 
L 382.254545 79.101672 
L 398.487273 78.778058 
" style="fill:none;stroke:#0e4db3;stroke-linecap:square;stroke-width:3;"/>
   </g>
   <g id="line2d_32">
    <path clip-path="url(#pefa4e0087e)" d="M 73.832727 107.930464 
L 90.065455 77.712771 
L 106.298182 78.897432 
L 122.530909 86.93845 
L 138.763636 98.988924 
L 154.996364 91.149577 
L 171.229091 90.225538 
L 187.461818 88.289181 
L 203.694545 112.112728 
L 219.927273 112.162551 
L 236.16 118.428303 
L 252.392727 152.396442 
L 268.625455 189.217145 
L 284.858182 201.968706 
L 301.090909 202.160404 
L 317.323636 196.248298 
L 333.556364 190.991494 
L 349.789091 181.110271 
L 366.021818 142.263187 
L 382.254545 104.76155 
L 398.487273 107.930464 
" style="fill:none;stroke:#d44e4e;stroke-linecap:square;stroke-width:3;"/>
   </g>
   <g id="line2d_33">
    <path clip-path="url(#pefa4e0087e)" style="fill:none;stroke:#0e4db3;stroke-linecap:square;stroke-width:3;"/>
   </g>
   <g id="line2d_34">
    <path clip-path="url(#pefa4e0087e)" style="fill:none;stroke:#d44e4e;stroke-linecap:square;stroke-width:3;"/>
   </g>
   <g id="line2d_35">
    <path clip-path="url(#pefa4e0087e)" d="M 73.832727 285.408 
L 90.065455 285.408 
L 106.298182 285.408 
L 122.530909 285.408 
L 138.763636 285.408 
L 154.996364 285.408 
L 171.229091 285.408 
L 187.461818 285.408 
L 203.694545 285.408 
L 219.927273 285.408 
L 236.16 285.408 
L 252.392727 285.408 
L 268.625455 277.404681 
L 284.858182 283.118147 
L 301.090909 285.408 
L 317.323636 285.408 
L 333.556364 285.408 
L 349.789091 285.408 
L 366.021818 285.408 
L 382.254545 285.408 
L 398.487273 285.408 
" style="fill:none;stroke:#0e4db3;stroke-linecap:square;stroke-width:3;"/>
   </g>
   <g id="line2d_36">
    <path clip-path="url(#pefa4e0087e)" d="M 73.832727 285.408 
L 90.065455 285.408 
L 106.298182 285.408 
L 122.530909 285.408 
L 138.763636 285.408 
L 154.996364 285.408 
L 171.229091 285.408 
L 187.461818 285.408 
L 203.694545 285.408 
L 219.927273 285.408 
L 236.16 285.408 
L 252.392727 285.408 
L 268.625455 285.408 
L 284.858182 285.408 
L 301.090909 285.408 
L 317.323636 285.408 
L 333.556364 285.408 
L 349.789091 285.408 
L 366.021818 285.408 
L 382.254545 285.408 
L 398.487273 285.408 
" style="fill:none;stroke:#d44e4e;stroke-linecap:square;stroke-width:3;"/>
   </g>
   <g id="line2d_37">
    <path clip-path="url(#pefa4e0087e)" d="M 73.832727 70.470966 
L 81.195317 -1 
M 134.063386 -1 
L 138.763636 1.352638 
L 154.996364 114.532473 
L 171.229091 152.044437 
L 187.461818 151.182043 
L 203.694545 35.724089 
L 209.328583 -1 
M 271.791004 -1 
L 284.858182 52.286735 
L 298.631446 -1 
M 387.066412 -1 
L 398.487273 70.470966 
" style="fill:none;stroke:#0e4db3;stroke-linecap:square;stroke-width:3;"/>
   </g>
   <g id="line2d_38">
    <path clip-path="url(#pefa4e0087e)" d="M 73.832727 116.080887 
L 88.729504 -1 
M 97.366086 -1 
L 106.298182 11.846266 
L 122.530909 51.575083 
L 138.763636 62.417147 
L 154.996364 153.77289 
L 171.229091 183.834714 
L 187.461818 171.768292 
L 203.694545 81.111 
L 219.927273 3.994646 
L 236.16 8.410456 
L 252.392727 0.737412 
L 268.625455 47.114176 
L 284.858182 100.650195 
L 301.090909 49.698245 
L 317.323636 27.337372 
L 333.556364 22.916172 
L 349.789091 36.522144 
L 359.155181 -1 
M 373.362964 -1 
L 382.254545 32.318743 
L 398.487273 116.080887 
" style="fill:none;stroke:#d44e4e;stroke-linecap:square;stroke-width:3;"/>
   </g>
   <g id="line2d_39">
    <path clip-path="url(#pefa4e0087e)" d="M 73.832727 193.024855 
L 90.065455 119.518961 
L 106.298182 144.512915 
L 122.530909 142.509734 
L 138.763636 159.732261 
L 154.996364 168.065481 
L 171.229091 188.515157 
L 187.461818 208.943084 
L 203.694545 199.947141 
L 219.927273 162.105015 
L 236.16 165.109291 
L 252.392727 164.077689 
L 268.625455 176.926345 
L 284.858182 143.153888 
L 301.090909 170.303156 
L 317.323636 209.016266 
L 333.556364 209.339785 
L 349.789091 189.46465 
L 366.021818 175.746042 
L 382.254545 173.837918 
L 398.487273 193.024855 
" style="fill:none;stroke:#0e4db3;stroke-linecap:square;stroke-width:3;"/>
   </g>
   <g id="line2d_40">
    <path clip-path="url(#pefa4e0087e)" d="M 73.832727 216.492334 
L 90.065455 145.641974 
L 106.298182 166.215402 
L 122.530909 173.360571 
L 138.763636 189.065222 
L 154.996364 196.742962 
L 171.229091 210.342281 
L 187.461818 228.100662 
L 203.694545 218.913511 
L 219.927273 191.064803 
L 236.16 193.283235 
L 252.392727 192.476242 
L 268.625455 201.810084 
L 284.858182 174.833213 
L 301.090909 197.604767 
L 317.323636 226.36493 
L 333.556364 227.405027 
L 349.789091 211.675348 
L 366.021818 199.948973 
L 382.254545 199.202488 
L 398.487273 216.492334 
" style="fill:none;stroke:#d44e4e;stroke-linecap:square;stroke-width:3;"/>
   </g>
   <g id="line2d_41">
    <path clip-path="url(#pefa4e0087e)" d="M 73.832727 181.213044 
L 90.065455 131.442334 
L 106.298182 67.199352 
L 122.530909 43.866227 
L 138.763636 10.851866 
L 153.482759 -1 
M 155.576279 -1 
L 171.229091 31.896135 
L 187.461818 78.149779 
L 203.694545 86.954872 
L 219.927273 29.563699 
L 236.16 29.217957 
L 252.392727 56.504052 
L 268.625455 43.450167 
L 284.858182 88.174124 
L 301.090909 106.506298 
L 317.323636 220.046923 
L 333.556364 214.435567 
L 349.789091 219.311696 
L 366.021818 168.54067 
L 382.254545 181.746614 
L 398.487273 181.213044 
" style="fill:none;stroke:#0e4db3;stroke-linecap:square;stroke-width:3;"/>
   </g>
   <g id="line2d_42">
    <path clip-path="url(#pefa4e0087e)" d="M 73.832727 201.073537 
L 90.065455 162.210431 
L 106.298182 79.527122 
L 122.530909 85.159974 
L 138.763636 68.468522 
L 154.996364 57.576814 
L 171.229091 83.96207 
L 187.461818 113.26403 
L 203.694545 124.865853 
L 219.927273 81.107884 
L 236.16 81.091926 
L 252.392727 101.163817 
L 268.625455 90.231686 
L 284.858182 123.750015 
L 301.090909 136.383156 
L 317.323636 234.977641 
L 333.556364 228.867269 
L 349.789091 227.479004 
L 366.021818 183.542302 
L 382.254545 198.019711 
L 398.487273 201.073537 
" style="fill:none;stroke:#d44e4e;stroke-linecap:square;stroke-width:3;"/>
   </g>
   <g id="line2d_43">
    <path clip-path="url(#pefa4e0087e)" d="M 73.832727 80.259974 
L 90.065455 78.700392 
L 106.298182 78.096261 
L 122.530909 98.058105 
L 138.763636 78.527774 
L 154.996364 124.54307 
L 171.229091 128.947701 
L 187.461818 129.854203 
L 203.694545 126.769439 
L 219.927273 125.027891 
L 236.16 123.617726 
L 252.392727 100.754389 
L 268.625455 88.959757 
L 284.858182 107.527247 
L 301.090909 77.469771 
L 317.323636 78.200013 
L 333.556364 78.338376 
L 349.789091 83.189847 
L 366.021818 63.648 
L 382.254545 78.942823 
L 398.487273 80.259974 
" style="fill:none;stroke:#0e4db3;stroke-linecap:square;stroke-width:3;"/>
   </g>
   <g id="line2d_44">
    <path clip-path="url(#pefa4e0087e)" d="M 73.832727 110.815051 
L 90.065455 99.058337 
L 106.298182 98.326558 
L 122.530909 105.648977 
L 138.763636 110.548555 
L 154.996364 146.173133 
L 171.229091 148.79834 
L 187.461818 149.503676 
L 203.694545 149.143166 
L 219.927273 147.96161 
L 236.16 148.124817 
L 252.392727 125.196656 
L 268.625455 117.455651 
L 284.858182 130.980588 
L 301.090909 108.252899 
L 317.323636 108.316397 
L 333.556364 108.342187 
L 349.789091 113.456764 
L 366.021818 95.563472 
L 382.254545 108.779743 
L 398.487273 110.815051 
" style="fill:none;stroke:#d44e4e;stroke-linecap:square;stroke-width:3;"/>
   </g>
   <g id="patch_3">
    <path d="M 57.6 307.584 
L 57.6 41.472 
" style="fill:none;stroke:#000000;stroke-linecap:square;stroke-linejoin:miter;stroke-width:2.5;"/>
   </g>
   <g id="patch_4">
    <path d="M 414.72 307.584 
L 414.72 41.472 
" style="fill:none;stroke:#000000;stroke-linecap:square;stroke-linejoin:miter;stroke-width:2.5;"/>
   </g>
   <g id="patch_5">
    <path d="M 57.6 307.584 
L 414.72 307.584 
" style="fill:none;stroke:#000000;stroke-linecap:square;stroke-linejoin:miter;stroke-width:2.5;"/>
   </g>
   <g id="patch_6">
    <path d="M 57.6 41.472 
L 414.72 41.472 
" style="fill:none;stroke:#000000;stroke-linecap:square;stroke-linejoin:miter;stroke-width:2.5;"/>
   </g>
  </g>
 </g>
 <defs>
  <clipPath id="pefa4e0087e">
   <rect height="266.112" width="357.12" x="57.6" y="41.472"/>
  </clipPath>
 </defs>
</svg>
